<svg xmlns="http://www.w3.org/2000/svg" width="234" height="333"><g transform="translate(0 -719.362)"><rect width="233.244" height="332.244" x=".378" y="719.74" fill="#fff" stroke="gray" stroke-width=".756" rx="8.919" ry="8.946"/><g stroke-width="3.181"><path d="M114.588 797.319h4.816v16.757h-4.816z"/><path d="M143.462 789.304c3.792 6.847 1.333 15.48-5.493 19.284-6.826 3.804-15.433 1.337-19.225-5.51a14.177 14.177 0 0 1-1.745-5.926c-.528 7.817-7.273 13.72-15.063 13.189-7.79-.532-13.676-7.297-13.147-15.11.53-7.815 7.275-13.718 15.066-13.187 2.045.14 4.035.724 5.859 1.713-6.677-4.017-8.862-12.725-4.855-19.447 4.007-6.722 12.688-8.914 19.39-4.895 6.702 4.018 8.887 12.726 4.88 19.448a14.314 14.314 0 0 1-4.903 4.924c6.836-3.795 15.443-1.329 19.236 5.517z"/></g><g stroke-width="3.181"><path d="M16.402 775.116h1.605v5.586h-1.605z"/><path d="M26.026 772.445a4.735 4.735 0 0 1-1.83 6.428 4.705 4.705 0 0 1-6.41-1.837 4.726 4.726 0 0 1-.58-1.975 4.717 4.717 0 0 1-5.022 4.396 4.722 4.722 0 0 1-4.382-5.037 4.718 4.718 0 0 1 6.975-3.824 4.74 4.74 0 0 1-1.618-6.483 4.705 4.705 0 0 1 6.463-1.631 4.735 4.735 0 0 1 1.627 6.482 4.771 4.771 0 0 1-1.635 1.642 4.712 4.712 0 0 1 6.412 1.839z"/></g><g stroke-width="3.181"><path d="M216.56 996.608h1.605v-5.586h-1.606z"/><path d="M226.184 999.28a4.734 4.734 0 0 0-1.831-6.428 4.705 4.705 0 0 0-6.409 1.836 4.726 4.726 0 0 0-.581 1.976 4.717 4.717 0 0 0-5.021-4.397 4.722 4.722 0 0 0-4.382 5.037 4.718 4.718 0 0 0 6.974 3.825 4.74 4.74 0 0 0-1.618 6.482 4.705 4.705 0 0 0 6.464 1.632 4.735 4.735 0 0 0 1.626-6.483 4.771 4.771 0 0 0-1.634-1.641 4.712 4.712 0 0 0 6.412-1.84z"/></g><g stroke-width="3.181"><path d="M114.588 974.405h4.816v-16.757h-4.816z"/><path d="M143.462 982.42c3.792-6.846 1.333-15.48-5.493-19.284-6.826-3.803-15.433-1.337-19.225 5.51a14.177 14.177 0 0 0-1.745 5.926c-.528-7.816-7.273-13.72-15.063-13.189-7.79.532-13.676 7.297-13.147 15.111.53 7.814 7.275 13.718 15.066 13.186a14.314 14.314 0 0 0 5.859-1.713c-6.677 4.018-8.862 12.725-4.855 19.447 4.007 6.723 12.688 8.914 19.39 4.896 6.702-4.019 8.887-12.726 4.88-19.449a14.314 14.314 0 0 0-4.903-4.924c6.836 3.796 15.443 1.33 19.236-5.517z"/></g><g aria-label="2" font-family="Levenim MT" font-size="3.772" font-weight="700" letter-spacing="0" style="line-height:0%;-inkscape-font-specification:&quot;Sans Bold&quot;" word-spacing="0"><path d="m27 735.552-.711 5.649H7.94q.423-4.86 3.92-8.588l6.224-5.303q3.247-2.804 3.247-5.629 0-1.882-1.076-2.997-1.056-1.133-2.92-1.133-2.152 0-3.208 1.153-.692.768-1.057 2.363-.365 1.69-.576 1.96-.308.095-.711.095h-2.42q-.424 0-.73-.173-.135-.403-.135-.903 0-4.015 2.632-6.378 2.516-2.267 6.55-2.267 3.747 0 6.13 1.998 2.535 2.113 2.535 5.802 0 3.631-2.804 6.647-.98 1.076-5.572 4.592-3.343 2.594-4.111 4.669h8.953l.153-1.73q.212-.922 1.134-.922h1.92q1.115 0 .98 1.095z" font-size="39.346" style="line-height:1.25" transform="scale(.98105 1.01931)"/></g><g aria-label="2" font-family="Levenim MT" font-size="3.772" font-weight="700" letter-spacing="0" style="line-height:0%;-inkscape-font-specification:&quot;Sans Bold&quot;" word-spacing="0"><path d="m-211.519-1002.606-.71 5.648h-18.348q.422-4.86 3.919-8.588l6.225-5.302q3.247-2.805 3.247-5.63 0-1.882-1.076-2.996-1.057-1.134-2.92-1.134-2.152 0-3.209 1.153-.692.768-1.057 2.363-.365 1.69-.576 1.96-.307.095-.71.095h-2.422q-.422 0-.73-.172-.134-.404-.134-.903 0-4.016 2.632-6.379 2.517-2.267 6.551-2.267 3.747 0 6.129 1.998 2.536 2.114 2.536 5.802 0 3.631-2.805 6.648-.98 1.076-5.572 4.591-3.342 2.594-4.11 4.669h8.952l.154-1.73q.21-.921 1.133-.921h1.921q1.115 0 .98 1.095z" font-size="39.346" style="line-height:1.25" transform="scale(-.98105 -1.01931)"/></g></g></svg>