<svg xmlns="http://www.w3.org/2000/svg" width="234" height="333"><g transform="translate(0 -719.362)"><rect width="233.244" height="332.244" x=".378" y="719.74" fill="#fff" stroke="gray" stroke-width=".756" rx="8.919" ry="8.946"/><path d="M114.583 797.181h4.826v16.783h-4.826z"/><path d="M143.52 789.154c3.801 6.857 1.337 15.504-5.504 19.313-6.841 3.81-15.468 1.34-19.268-5.517a14.192 14.192 0 0 1-1.75-5.936c-.528 7.829-7.288 13.741-15.096 13.21-7.807-.533-13.706-7.309-13.175-15.135.53-7.826 7.29-13.739 15.098-13.207 2.05.14 4.045.725 5.873 1.716-6.692-4.024-8.882-12.745-4.866-19.478 4.016-6.732 12.716-8.927 19.433-4.902 6.717 4.025 8.907 12.745 4.891 19.478a14.341 14.341 0 0 1-4.914 4.932c6.851-3.802 15.478-1.331 19.278 5.526zM16.178 774.944h1.61v5.594h-1.61z"/><path d="M25.824 772.268a4.74 4.74 0 0 1-1.835 6.438 4.717 4.717 0 0 1-6.423-1.84 4.73 4.73 0 0 1-.582-1.978 4.726 4.726 0 0 1-5.033 4.403 4.73 4.73 0 0 1-4.391-5.045 4.727 4.727 0 0 1 6.99-3.83 4.745 4.745 0 0 1-1.622-6.492 4.717 4.717 0 0 1 6.478-1.635 4.74 4.74 0 0 1 1.63 6.493 4.78 4.78 0 0 1-1.638 1.644 4.724 4.724 0 0 1 6.426 1.842zM216.78 996.78h1.61v-5.594h-1.61z"/><path d="M226.426 999.456a4.74 4.74 0 0 0-1.835-6.438 4.717 4.717 0 0 0-6.422 1.84 4.73 4.73 0 0 0-.583 1.978 4.726 4.726 0 0 0-5.032-4.403 4.73 4.73 0 0 0-4.392 5.045 4.727 4.727 0 0 0 6.99 3.83 4.745 4.745 0 0 0-1.622 6.493 4.717 4.717 0 0 0 6.478 1.634 4.74 4.74 0 0 0 1.63-6.493 4.78 4.78 0 0 0-1.638-1.644 4.724 4.724 0 0 0 6.426-1.842zM114.583 897.46h4.826v16.783h-4.826z"/><path d="M143.52 889.432c3.801 6.857 1.337 15.504-5.504 19.314-6.841 3.81-15.468 1.34-19.268-5.518a14.192 14.192 0 0 1-1.75-5.935c-.528 7.828-7.288 13.741-15.096 13.209-7.807-.533-13.706-7.308-13.175-15.135.53-7.826 7.29-13.738 15.098-13.206 2.05.14 4.045.724 5.873 1.715-6.692-4.023-8.882-12.744-4.866-19.477 4.016-6.733 12.716-8.928 19.433-4.903 6.717 4.025 8.907 12.746 4.891 19.479a14.341 14.341 0 0 1-4.914 4.931c6.851-3.801 15.478-1.33 19.278 5.526zM114.583 974.543h4.826V957.76h-4.826z"/><path d="M143.52 982.57c3.801-6.856 1.337-15.503-5.504-19.313-6.841-3.81-15.468-1.34-19.268 5.518a14.192 14.192 0 0 0-1.75 5.935c-.528-7.828-7.288-13.741-15.096-13.209-7.807.532-13.706 7.308-13.175 15.134.53 7.827 7.29 13.74 15.098 13.207 2.05-.14 4.045-.725 5.873-1.715-6.692 4.023-8.882 12.744-4.866 19.477 4.016 6.733 12.716 8.928 19.433 4.903 6.717-4.025 8.907-12.746 4.891-19.479a14.341 14.341 0 0 0-4.914-4.931c6.851 3.8 15.478 1.33 19.278-5.527z"/><g stroke-width=".315" aria-label="3" font-family="Levenim MT" font-size="3.779" font-weight="700" letter-spacing="0" style="line-height:0%;-inkscape-font-specification:&quot;Sans Bold&quot;" word-spacing="0"><path d="M26.169 754.467q0 3.984-2.793 6.133-2.52 1.953-6.602 1.953-9.297 0-9.297-8.79 0-.41.137-.78.293-.176.664-.176h2.539q.37 0 .683.175.098.274.157.645.332 2.422 1.367 3.516 1.152 1.21 3.535 1.21 1.953 0 3.184-1.054 1.289-1.133 1.289-3.047 0-4.063-4.434-4.766-.547-.078-.82-.234-.157-.313-.157-3.164 0-.371.176-.703 1.465-.43 2.93-.88 1.543-.702 1.543-2.949 0-3.398-3.984-3.398-1.836 0-2.872.898-.546.489-1.132 1.66-.43.9-.86.9h-2.52q-.956 0-.956-.86 0-3.262 2.558-5.157 2.305-1.699 5.664-1.699 3.868 0 6.31 1.621 2.87 1.895 2.87 5.586 0 4.453-4.394 6.055 5.215 2.207 5.215 7.305z" font-size="40.001" style="line-height:1.25" transform="scale(1.00959 .9905)"/></g><g stroke-width=".315" aria-label="3" font-family="Levenim MT" font-size="3.779" font-weight="700" letter-spacing="0" style="line-height:0%;-inkscape-font-specification:&quot;Sans Bold&quot;" word-spacing="0"><path d="M-205.61-1034.245q0 3.984-2.792 6.133-2.52 1.953-6.602 1.953-9.297 0-9.297-8.79 0-.41.137-.78.293-.176.664-.176h2.54q.37 0 .683.176.097.273.156.644.332 2.422 1.367 3.516 1.153 1.21 3.535 1.21 1.954 0 3.184-1.054 1.29-1.133 1.29-3.047 0-4.062-4.435-4.766-.546-.078-.82-.234-.156-.312-.156-3.164 0-.371.176-.703 1.465-.43 2.93-.88 1.542-.702 1.542-2.948 0-3.399-3.984-3.399-1.836 0-2.871.899-.547.488-1.133 1.66-.43.898-.86.898h-2.519q-.957 0-.957-.86 0-3.26 2.559-5.155 2.304-1.7 5.664-1.7 3.867 0 6.308 1.621 2.872 1.895 2.872 5.586 0 4.454-4.395 6.055 5.215 2.207 5.215 7.305z" font-size="40.001" style="line-height:1.25" transform="scale(-1.00959 -.9905)"/></g></g></svg>