<svg xmlns="http://www.w3.org/2000/svg" width="234" height="333"><g transform="translate(0 -719.362)"><rect width="233.244" height="332.244" x=".378" y="719.74" fill="#fff" stroke="gray" stroke-width=".756" rx="8.919" ry="8.946"/><path fill="red" d="m117 814.076 28.244-28.336L117 757.403 88.756 785.74ZM117 1014.321l28.244-28.336L117 957.648l-28.244 28.337ZM117 914.199l28.244-28.337L117 857.526l-28.244 28.336ZM17.206 780.702l9.414-9.445-9.414-9.446-9.415 9.446zM216.794 991.022l9.415 9.446-9.415 9.445-9.414-9.445z"/><g fill="red" aria-label="3" font-family="Levenim MT" font-size="3.772" font-weight="700" letter-spacing="0" style="line-height:0%;-inkscape-font-specification:&quot;Sans Bold&quot;" word-spacing="0"><path d="M26.376 754.435q0 3.977-2.788 6.122-2.515 1.95-6.589 1.95-9.28 0-9.28-8.773 0-.41.137-.78.292-.176.663-.176h2.534q.37 0 .682.176.098.273.156.643.332 2.417 1.365 3.51 1.15 1.208 3.529 1.208 1.95 0 3.177-1.053 1.287-1.13 1.287-3.041 0-4.055-4.425-4.757-.546-.078-.82-.234-.155-.312-.155-3.158 0-.37.175-.702 1.462-.429 2.925-.877 1.54-.702 1.54-2.944 0-3.392-3.977-3.392-1.833 0-2.866.897-.546.487-1.13 1.657-.43.897-.859.897H9.143q-.956 0-.956-.858 0-3.256 2.554-5.147 2.3-1.696 5.654-1.696 3.86 0 6.297 1.618 2.865 1.891 2.865 5.576 0 4.445-4.386 6.043 5.205 2.203 5.205 7.291z" font-size="39.925" style="line-height:1.25" transform="scale(1.00925 .99083)"/></g><g fill="red" aria-label="3" font-family="Levenim MT" font-size="3.772" font-weight="700" letter-spacing="0" style="line-height:0%;-inkscape-font-specification:&quot;Sans Bold&quot;" word-spacing="0"><path d="M-205.478-1033.686q0 3.977-2.788 6.121-2.515 1.95-6.59 1.95-9.279 0-9.279-8.773 0-.41.137-.78.292-.175.663-.175h2.534q.37 0 .682.175.098.273.156.644.332 2.417 1.365 3.509 1.15 1.209 3.528 1.209 1.95 0 3.178-1.053 1.287-1.13 1.287-3.041 0-4.055-4.426-4.757-.545-.078-.818-.234-.156-.312-.156-3.158 0-.37.175-.702 1.462-.429 2.924-.877 1.54-.702 1.54-2.944 0-3.392-3.977-3.392-1.832 0-2.865.897-.546.487-1.13 1.657-.43.896-.859.896h-2.515q-.955 0-.955-.857 0-3.256 2.554-5.147 2.3-1.696 5.654-1.696 3.86 0 6.296 1.618 2.866 1.891 2.866 5.576 0 4.444-4.386 6.043 5.205 2.203 5.205 7.291z" font-size="39.925" style="line-height:1.25" transform="scale(-1.00925 -.99083)"/></g></g></svg>