<svg xmlns="http://www.w3.org/2000/svg" width="234" height="333"><g transform="translate(0 -719.362)"><rect width="233.244" height="332.244" x=".378" y="719.74" fill="#fff" stroke="gray" stroke-width=".756" rx="8.919" ry="8.946"/><g stroke-width="3.181"><path d="M56.218 797.319h4.816v16.757h-4.816z"/><path d="M85.091 789.304c3.793 6.847 1.334 15.48-5.492 19.284-6.826 3.804-15.433 1.337-19.226-5.51a14.177 14.177 0 0 1-1.744-5.926c-.528 7.817-7.273 13.72-15.064 13.189-7.79-.532-13.676-7.297-13.146-15.11.53-7.815 7.275-13.718 15.065-13.187 2.045.14 4.036.724 5.86 1.713-6.677-4.017-8.862-12.725-4.855-19.447 4.006-6.722 12.687-8.914 19.39-4.895 6.702 4.018 8.887 12.726 4.88 19.448a14.314 14.314 0 0 1-4.904 4.924c6.837-3.795 15.444-1.329 19.236 5.517z"/></g><g stroke-width="3.181"><path d="M16.402 775.116h1.605v5.586h-1.605z"/><path d="M26.026 772.445a4.735 4.735 0 0 1-1.83 6.428 4.705 4.705 0 0 1-6.41-1.837 4.726 4.726 0 0 1-.58-1.975 4.717 4.717 0 0 1-5.022 4.396 4.722 4.722 0 0 1-4.382-5.037 4.718 4.718 0 0 1 6.975-3.824 4.74 4.74 0 0 1-1.618-6.483 4.705 4.705 0 0 1 6.463-1.631 4.735 4.735 0 0 1 1.627 6.482 4.771 4.771 0 0 1-1.635 1.642 4.712 4.712 0 0 1 6.412 1.839z"/></g><g stroke-width="3.181"><path d="M216.56 996.608h1.605v-5.586h-1.606z"/><path d="M226.184 999.28a4.734 4.734 0 0 0-1.831-6.428 4.705 4.705 0 0 0-6.409 1.836 4.726 4.726 0 0 0-.581 1.976 4.717 4.717 0 0 0-5.021-4.397 4.722 4.722 0 0 0-4.382 5.037 4.718 4.718 0 0 0 6.974 3.825 4.74 4.74 0 0 0-1.618 6.482 4.705 4.705 0 0 0 6.464 1.632 4.735 4.735 0 0 0 1.626-6.483 4.771 4.771 0 0 0-1.634-1.641 4.712 4.712 0 0 0 6.412-1.84z"/></g><g stroke-width="3.181"><path d="M172.958 797.319h4.816v16.757h-4.816z"/><path d="M201.832 789.304c3.792 6.847 1.333 15.48-5.493 19.284-6.825 3.804-15.433 1.337-19.225-5.51a14.177 14.177 0 0 1-1.745-5.926c-.528 7.817-7.272 13.72-15.063 13.189-7.79-.532-13.676-7.297-13.146-15.11.53-7.815 7.274-13.718 15.065-13.187 2.045.14 4.036.724 5.86 1.713-6.677-4.017-8.862-12.725-4.856-19.447 4.007-6.722 12.688-8.914 19.39-4.895 6.702 4.018 8.887 12.726 4.88 19.448a14.314 14.314 0 0 1-4.903 4.924c6.836-3.795 15.444-1.329 19.236 5.517z"/></g><g stroke-width="3.181"><path d="M56.218 974.405h4.816v-16.757h-4.816z"/><path d="M85.091 982.42c3.793-6.846 1.334-15.48-5.492-19.284-6.826-3.803-15.433-1.337-19.226 5.51a14.177 14.177 0 0 0-1.744 5.926c-.528-7.816-7.273-13.72-15.064-13.189-7.79.532-13.676 7.297-13.146 15.111.53 7.814 7.275 13.718 15.065 13.186a14.314 14.314 0 0 0 5.86-1.713c-6.677 4.018-8.862 12.725-4.855 19.447 4.006 6.723 12.687 8.914 19.39 4.896 6.702-4.019 8.887-12.726 4.88-19.449a14.314 14.314 0 0 0-4.904-4.924c6.837 3.796 15.444 1.33 19.236-5.517z"/></g><g stroke-width="3.181"><path d="M172.958 974.405h4.816v-16.757h-4.816z"/><path d="M201.832 982.42c3.792-6.846 1.333-15.48-5.493-19.284-6.825-3.803-15.433-1.337-19.225 5.51a14.177 14.177 0 0 0-1.745 5.926c-.528-7.816-7.272-13.72-15.063-13.189-7.79.532-13.676 7.297-13.146 15.111.53 7.814 7.274 13.718 15.065 13.186a14.314 14.314 0 0 0 5.86-1.713c-6.677 4.018-8.862 12.725-4.856 19.447 4.007 6.723 12.688 8.914 19.39 4.896 6.702-4.019 8.887-12.726 4.88-19.449a14.314 14.314 0 0 0-4.903-4.924c6.836 3.796 15.444 1.33 19.236-5.517z"/></g><g font-family="Levenim MT" font-size="3.772" font-weight="700" letter-spacing="0" style="line-height:0%;-inkscape-font-specification:&quot;Sans Bold&quot;" word-spacing="0"><path d="M28.418 706.772q0 .386-.147.754-.331.185-.7.185H15.754q-1.362 0-1.362-1.381 0-.22.037-.773.036-.552.036-.847 0-.644.276-.828.203-.13.902-.13h4.602v-2.834H9.92q-1.602 0-1.602-1.49 0-.259.055-.94.056-.7.056-1.104 0-.626.718-1.565l10.64-13.99q.496-.662 1.25-.662h2.43q.866 0 .866.957v15.02q.662 0 1.51-.036.864-.037 1.104-.037.994 0 1.233.497.24.479.24 2.393 0 .35-.056.534-.11.423-.847.423h-3.184v2.835q.68 0 1.546-.037.865-.037 1.086-.037 1.05 0 1.27.534.184.442.184 2.559zm-8.1-19.696q-1.011 1.546-7.473 10.069h7.4q0-.976-.037-3.35-.055-2.154-.036-3.37.018-1.84.147-3.35z" aria-label="4" font-size="37.699" style="line-height:1.25" transform="scale(.93673 1.06755)"/></g><g font-family="Levenim MT" font-size="3.772" font-weight="700" letter-spacing="0" style="line-height:0%;-inkscape-font-specification:&quot;Sans Bold&quot;" word-spacing="0"><path d="M-221.388-952.85q0 .386-.147.754-.331.184-.7.184h-11.817q-1.362 0-1.362-1.38 0-.221.037-.773.036-.553.036-.847 0-.644.277-.828.202-.13.902-.13h4.601v-2.834h-10.326q-1.602 0-1.602-1.491 0-.258.056-.939.055-.7.055-1.104 0-.626.718-1.565l10.64-13.99q.496-.662 1.25-.662h2.43q.866 0 .866.957v15.02q.662 0 1.51-.036.864-.037 1.104-.037.994 0 1.233.497.24.478.24 2.393 0 .35-.056.534-.11.423-.847.423h-3.184v2.835q.68 0 1.546-.037.865-.037 1.086-.037 1.05 0 1.27.534.184.442.184 2.559zm-8.099-19.696q-1.012 1.546-7.473 10.068h7.4q0-.975-.037-3.35-.056-2.153-.037-3.368.018-1.841.147-3.35z" aria-label="4" font-size="37.699" style="line-height:1.25" transform="scale(-.93673 -1.06755)"/></g></g></svg>