<svg xmlns="http://www.w3.org/2000/svg" width="234" height="333"><g transform="translate(0 -719.362)"><rect width="233.244" height="332.244" x=".378" y="719.74" fill="#fff" stroke="gray" stroke-width=".756" rx="8.919" ry="8.946"/><g stroke-width="3.181"><path d="M56.218 797.319h4.816v16.757h-4.816z"/><path d="M85.091 789.304c3.793 6.847 1.334 15.48-5.492 19.284-6.826 3.804-15.433 1.337-19.226-5.51a14.177 14.177 0 0 1-1.744-5.926c-.528 7.817-7.273 13.72-15.064 13.189-7.79-.532-13.676-7.297-13.146-15.11.53-7.815 7.275-13.718 15.065-13.187 2.045.14 4.036.724 5.86 1.713-6.677-4.017-8.862-12.725-4.855-19.447 4.006-6.722 12.687-8.914 19.39-4.895 6.702 4.018 8.887 12.726 4.88 19.448a14.314 14.314 0 0 1-4.904 4.924c6.837-3.795 15.444-1.329 19.236 5.517z"/></g><g stroke-width="3.181"><path d="M16.402 775.116h1.605v5.586h-1.605z"/><path d="M26.026 772.445a4.735 4.735 0 0 1-1.83 6.428 4.705 4.705 0 0 1-6.41-1.837 4.726 4.726 0 0 1-.58-1.975 4.717 4.717 0 0 1-5.022 4.396 4.722 4.722 0 0 1-4.382-5.037 4.718 4.718 0 0 1 6.975-3.824 4.74 4.74 0 0 1-1.618-6.483 4.705 4.705 0 0 1 6.463-1.631 4.735 4.735 0 0 1 1.627 6.482 4.771 4.771 0 0 1-1.635 1.642 4.712 4.712 0 0 1 6.412 1.839z"/></g><g stroke-width="3.181"><path d="M216.56 996.608h1.605v-5.586h-1.606z"/><path d="M226.184 999.28a4.734 4.734 0 0 0-1.831-6.428 4.705 4.705 0 0 0-6.409 1.836 4.726 4.726 0 0 0-.581 1.976 4.717 4.717 0 0 0-5.021-4.397 4.722 4.722 0 0 0-4.382 5.037 4.718 4.718 0 0 0 6.974 3.825 4.74 4.74 0 0 0-1.618 6.482 4.705 4.705 0 0 0 6.464 1.632 4.735 4.735 0 0 0 1.626-6.483 4.771 4.771 0 0 0-1.634-1.641 4.712 4.712 0 0 0 6.412-1.84z"/></g><g stroke-width="3.181"><path d="M114.588 897.441h4.816V914.2h-4.816z"/><path d="M143.462 889.427c3.792 6.846 1.333 15.48-5.493 19.283-6.826 3.804-15.433 1.337-19.225-5.509a14.177 14.177 0 0 1-1.745-5.926c-.528 7.816-7.273 13.72-15.063 13.188-7.79-.531-13.676-7.296-13.147-15.11.53-7.814 7.275-13.718 15.066-13.186 2.045.14 4.035.723 5.859 1.712-6.677-4.017-8.862-12.724-4.855-19.447 4.007-6.722 12.688-8.914 19.39-4.895s8.887 12.726 4.88 19.448a14.314 14.314 0 0 1-4.903 4.924c6.836-3.795 15.443-1.329 19.236 5.518z"/></g><g stroke-width="3.181"><path d="M172.958 797.319h4.816v16.757h-4.816z"/><path d="M201.832 789.304c3.792 6.847 1.333 15.48-5.493 19.284-6.825 3.804-15.433 1.337-19.225-5.51a14.177 14.177 0 0 1-1.745-5.926c-.528 7.817-7.272 13.72-15.063 13.189-7.79-.532-13.676-7.297-13.146-15.11.53-7.815 7.274-13.718 15.065-13.187 2.045.14 4.036.724 5.86 1.713-6.677-4.017-8.862-12.725-4.856-19.447 4.007-6.722 12.688-8.914 19.39-4.895 6.702 4.018 8.887 12.726 4.88 19.448a14.314 14.314 0 0 1-4.903 4.924c6.836-3.795 15.444-1.329 19.236 5.517z"/></g><g stroke-width="3.181"><path d="M56.218 974.405h4.816v-16.757h-4.816z"/><path d="M85.091 982.42c3.793-6.846 1.334-15.48-5.492-19.284-6.826-3.803-15.433-1.337-19.226 5.51a14.177 14.177 0 0 0-1.744 5.926c-.528-7.816-7.273-13.72-15.064-13.189-7.79.532-13.676 7.297-13.146 15.111.53 7.814 7.275 13.718 15.065 13.186a14.314 14.314 0 0 0 5.86-1.713c-6.677 4.018-8.862 12.725-4.855 19.447 4.006 6.723 12.687 8.914 19.39 4.896 6.702-4.019 8.887-12.726 4.88-19.449a14.314 14.314 0 0 0-4.904-4.924c6.837 3.796 15.444 1.33 19.236-5.517z"/></g><g stroke-width="3.181"><path d="M172.958 974.405h4.816v-16.757h-4.816z"/><path d="M201.832 982.42c3.792-6.846 1.333-15.48-5.493-19.284-6.825-3.803-15.433-1.337-19.225 5.51a14.177 14.177 0 0 0-1.745 5.926c-.528-7.816-7.272-13.72-15.063-13.189-7.79.532-13.676 7.297-13.146 15.111.53 7.814 7.274 13.718 15.065 13.186a14.314 14.314 0 0 0 5.86-1.713c-6.677 4.018-8.862 12.725-4.856 19.447 4.007 6.723 12.688 8.914 19.39 4.896 6.702-4.019 8.887-12.726 4.88-19.449a14.314 14.314 0 0 0-4.903-4.924c6.836 3.796 15.444 1.33 19.236-5.517z"/></g><g font-family="Levenim MT" font-size="3.772" font-weight="700" letter-spacing="0" style="line-height:0%;-inkscape-font-specification:&quot;Sans Bold&quot;" word-spacing="0"><path d="M26.751 742.302q0 4.365-2.65 6.937-2.63 2.573-6.996 2.573-4.19 0-6.625-2.047-2.65-2.182-2.65-6.294 0-.662 1.052-.662h2.552q.41 0 .76.116.117.195.156.507.332 2.202 1.267 3.157 1.052 1.072 3.235 1.072 2.182 0 3.527-1.54 1.267-1.461 1.267-3.663 0-5.437-4.502-5.437-1.637 0-3.293 1.13h-3.216q-.448 0-.857-.117-.195-.195-.195-.448 0-2.767.292-6.976l.507-6.996h14.615q.507 0 .916.156.176.39.176 2.728 0 .39-.04.643-.136.624-1.13.624H14.338q.058 1.052-.175 3.215-.234 2.144-.176 3.196 2.007-1.247 4.19-1.247 4.014 0 6.353 2.728 2.221 2.572 2.221 6.645z" aria-label="5" font-size="39.909" style="line-height:1.25" transform="scale(.9951 1.00492)"/></g><g font-family="Levenim MT" font-size="3.772" font-weight="700" letter-spacing="0" style="line-height:0%;-inkscape-font-specification:&quot;Sans Bold&quot;" word-spacing="0"><path d="M-208.401-1020.74q0 4.365-2.65 6.938-2.631 2.572-6.996 2.572-4.19 0-6.626-2.046-2.65-2.183-2.65-6.294 0-.663 1.052-.663h2.553q.41 0 .76.117.117.195.156.507.331 2.202 1.267 3.156 1.052 1.072 3.234 1.072 2.183 0 3.528-1.54 1.266-1.46 1.266-3.663 0-5.437-4.501-5.437-1.637 0-3.294 1.13h-3.215q-.448 0-.857-.116-.195-.195-.195-.449 0-2.767.292-6.976.253-3.508.507-6.996h14.615q.507 0 .916.156.175.39.175 2.728 0 .39-.039.643-.136.624-1.13.624h-10.581q.058 1.052-.176 3.215-.234 2.144-.175 3.196 2.007-1.247 4.19-1.247 4.014 0 6.352 2.728 2.222 2.573 2.222 6.645z" aria-label="5" font-size="39.909" style="line-height:1.25" transform="scale(-.9951 -1.00492)"/></g></g></svg>