<svg xmlns="http://www.w3.org/2000/svg" width="234" height="333"><g transform="translate(0 -719.362)"><rect width="233.244" height="332.244" x=".378" y="719.74" fill="#fff" stroke="gray" stroke-width=".756" rx="8.919" ry="8.946"/><g stroke-width="3.181"><path d="M172.958 897.441h4.816V914.2h-4.816z"/><path d="M201.832 889.427c3.792 6.846 1.333 15.48-5.493 19.283-6.825 3.804-15.433 1.337-19.225-5.509a14.177 14.177 0 0 1-1.745-5.926c-.528 7.816-7.272 13.72-15.063 13.188-7.79-.531-13.676-7.296-13.146-15.11.53-7.814 7.274-13.718 15.065-13.186 2.045.14 4.036.723 5.86 1.712-6.677-4.017-8.862-12.724-4.856-19.447 4.007-6.722 12.688-8.914 19.39-4.895s8.887 12.726 4.88 19.448a14.314 14.314 0 0 1-4.903 4.924c6.836-3.795 15.444-1.329 19.236 5.518z"/></g><g stroke-width="3.181"><path d="M56.218 797.319h4.816v16.757h-4.816z"/><path d="M85.091 789.304c3.793 6.847 1.334 15.48-5.492 19.284-6.826 3.804-15.433 1.337-19.226-5.51a14.177 14.177 0 0 1-1.744-5.926c-.528 7.817-7.273 13.72-15.064 13.189-7.79-.532-13.676-7.297-13.146-15.11.53-7.815 7.275-13.718 15.065-13.187 2.045.14 4.036.724 5.86 1.713-6.677-4.017-8.862-12.725-4.855-19.447 4.006-6.722 12.687-8.914 19.39-4.895 6.702 4.018 8.887 12.726 4.88 19.448a14.314 14.314 0 0 1-4.904 4.924c6.837-3.795 15.444-1.329 19.236 5.517z"/></g><g stroke-width="3.181"><path d="M16.402 775.116h1.605v5.586h-1.605z"/><path d="M26.026 772.445a4.735 4.735 0 0 1-1.83 6.428 4.705 4.705 0 0 1-6.41-1.837 4.726 4.726 0 0 1-.58-1.975 4.717 4.717 0 0 1-5.022 4.396 4.722 4.722 0 0 1-4.382-5.037 4.718 4.718 0 0 1 6.975-3.824 4.74 4.74 0 0 1-1.618-6.483 4.705 4.705 0 0 1 6.463-1.631 4.735 4.735 0 0 1 1.627 6.482 4.771 4.771 0 0 1-1.635 1.642 4.712 4.712 0 0 1 6.412 1.839z"/></g><g stroke-width="3.181"><path d="M216.56 996.608h1.605v-5.586h-1.606z"/><path d="M226.184 999.28a4.734 4.734 0 0 0-1.831-6.428 4.705 4.705 0 0 0-6.409 1.836 4.726 4.726 0 0 0-.581 1.976 4.717 4.717 0 0 0-5.021-4.397 4.722 4.722 0 0 0-4.382 5.037 4.718 4.718 0 0 0 6.974 3.825 4.74 4.74 0 0 0-1.618 6.482 4.705 4.705 0 0 0 6.464 1.632 4.735 4.735 0 0 0 1.626-6.483 4.771 4.771 0 0 0-1.634-1.641 4.712 4.712 0 0 0 6.412-1.84z"/></g><g stroke-width="3.181"><path d="M172.958 797.319h4.816v16.757h-4.816z"/><path d="M201.832 789.304c3.792 6.847 1.333 15.48-5.493 19.284-6.825 3.804-15.433 1.337-19.225-5.51a14.177 14.177 0 0 1-1.745-5.926c-.528 7.817-7.272 13.72-15.063 13.189-7.79-.532-13.676-7.297-13.146-15.11.53-7.815 7.274-13.718 15.065-13.187 2.045.14 4.036.724 5.86 1.713-6.677-4.017-8.862-12.725-4.856-19.447 4.007-6.722 12.688-8.914 19.39-4.895 6.702 4.018 8.887 12.726 4.88 19.448a14.314 14.314 0 0 1-4.903 4.924c6.836-3.795 15.444-1.329 19.236 5.517z"/></g><g stroke-width="3.181"><path d="M56.218 897.441h4.816V914.2h-4.816z"/><path d="M85.091 889.427c3.793 6.846 1.334 15.48-5.492 19.283-6.826 3.804-15.433 1.337-19.226-5.509a14.177 14.177 0 0 1-1.744-5.926c-.528 7.816-7.273 13.72-15.064 13.188-7.79-.531-13.676-7.296-13.146-15.11.53-7.814 7.275-13.718 15.065-13.186 2.045.14 4.036.723 5.86 1.712-6.677-4.017-8.862-12.724-4.855-19.447 4.006-6.722 12.687-8.914 19.39-4.895 6.702 4.019 8.887 12.726 4.88 19.448a14.314 14.314 0 0 1-4.904 4.924c6.837-3.795 15.444-1.329 19.236 5.518z"/></g><g stroke-width="3.181"><path d="M56.218 974.405h4.816v-16.757h-4.816z"/><path d="M85.091 982.42c3.793-6.846 1.334-15.48-5.492-19.284-6.826-3.803-15.433-1.337-19.226 5.51a14.177 14.177 0 0 0-1.744 5.926c-.528-7.816-7.273-13.72-15.064-13.189-7.79.532-13.676 7.297-13.146 15.111.53 7.814 7.275 13.718 15.065 13.186a14.314 14.314 0 0 0 5.86-1.713c-6.677 4.018-8.862 12.725-4.855 19.447 4.006 6.723 12.687 8.914 19.39 4.896 6.702-4.019 8.887-12.726 4.88-19.449a14.314 14.314 0 0 0-4.904-4.924c6.837 3.796 15.444 1.33 19.236-5.517z"/></g><g stroke-width="3.181"><path d="M172.958 974.405h4.816v-16.757h-4.816z"/><path d="M201.832 982.42c3.792-6.846 1.333-15.48-5.493-19.284-6.825-3.803-15.433-1.337-19.225 5.51a14.177 14.177 0 0 0-1.745 5.926c-.528-7.816-7.272-13.72-15.063-13.189-7.79.532-13.676 7.297-13.146 15.111.53 7.814 7.274 13.718 15.065 13.186a14.314 14.314 0 0 0 5.86-1.713c-6.677 4.018-8.862 12.725-4.856 19.447 4.007 6.723 12.688 8.914 19.39 4.896 6.702-4.019 8.887-12.726 4.88-19.449a14.314 14.314 0 0 0-4.903-4.924c6.836 3.796 15.444 1.33 19.236-5.517z"/></g><g aria-label="6" font-family="Levenim MT" font-size="3.772" font-weight="700" letter-spacing="0" style="line-height:0%;-inkscape-font-specification:&quot;Sans Bold&quot;" word-spacing="0"><path d="M26.881 738.999q0 4.246-2.468 6.714-2.448 2.467-6.694 2.467-9.852 0-9.852-13.62 0-6.006 2.124-9.736 2.64-4.705 8.187-4.705 3.213 0 5.336 1.32 2.545 1.568 2.545 4.59 0 .67-.938.67h-2.83q-.555 0-.938-.631-.555-.938-.88-1.205-.784-.632-2.295-.632-2.544 0-3.96 2.372-1.11 1.913-1.243 4.706 2.238-1.779 5.356-1.779 3.96 0 6.312 2.793 2.238 2.64 2.238 6.676zm-4.992-.115q0-2.18-1.09-3.596-1.206-1.569-3.33-1.569-2.103 0-3.29 1.569-1.07 1.415-1.07 3.596 0 2.085 1.128 3.539 1.224 1.587 3.252 1.587 2.066 0 3.29-1.568 1.11-1.435 1.11-3.558z" font-size="39.175" style="line-height:1.25" transform="scale(.9903 1.0098)"/></g><g aria-label="6" font-family="Levenim MT" font-size="3.772" font-weight="700" letter-spacing="0" style="line-height:0%;-inkscape-font-specification:&quot;Sans Bold&quot;" word-spacing="0"><path d="M-209.413-1015.527q0 4.246-2.467 6.714-2.449 2.467-6.695 2.467-9.851 0-9.851-13.62 0-6.005 2.123-9.736 2.64-4.705 8.187-4.705 3.214 0 5.337 1.32 2.544 1.568 2.544 4.59 0 .67-.937.67h-2.831q-.555 0-.938-.631-.554-.937-.88-1.205-.784-.631-2.295-.631-2.544 0-3.96 2.371-1.11 1.913-1.243 4.706 2.238-1.779 5.356-1.779 3.96 0 6.312 2.793 2.238 2.64 2.238 6.676zm-4.992-.115q0-2.18-1.09-3.596-1.206-1.569-3.329-1.569-2.104 0-3.29 1.569-1.071 1.415-1.071 3.596 0 2.085 1.128 3.539 1.225 1.587 3.252 1.587 2.066 0 3.29-1.568 1.11-1.435 1.11-3.558z" font-size="39.175" style="line-height:1.25" transform="scale(-.9903 -1.0098)"/></g></g></svg>