<svg xmlns="http://www.w3.org/2000/svg" width="234" height="333"><g transform="translate(0 -719.362)"><rect width="233.244" height="332.244" x=".378" y="719.74" fill="#fff" stroke="gray" stroke-width=".756" rx="8.919" ry="8.946"/><g stroke-width="3.181"><path d="M114.588 924.344h4.816v-16.757h-4.816z"/><path d="M143.462 932.359c3.792-6.847 1.333-15.48-5.493-19.284-6.826-3.803-15.433-1.337-19.225 5.51a14.177 14.177 0 0 0-1.745 5.926c-.528-7.817-7.273-13.72-15.063-13.189-7.79.532-13.676 7.297-13.147 15.11.53 7.815 7.275 13.718 15.066 13.187a14.314 14.314 0 0 0 5.859-1.713c-6.677 4.018-8.862 12.725-4.855 19.447 4.007 6.723 12.688 8.914 19.39 4.896 6.702-4.02 8.887-12.727 4.88-19.449a14.314 14.314 0 0 0-4.903-4.924c6.836 3.796 15.444 1.33 19.236-5.517z"/></g><g stroke-width="3.181"><path d="M172.959 897.441h4.815V914.2h-4.815z"/><path d="M201.832 889.427c3.792 6.846 1.333 15.48-5.492 19.283-6.826 3.804-15.434 1.337-19.226-5.509a14.177 14.177 0 0 1-1.745-5.926c-.527 7.816-7.272 13.72-15.063 13.188-7.79-.531-13.676-7.296-13.146-15.11.53-7.814 7.275-13.718 15.065-13.186 2.045.139 4.036.723 5.86 1.712-6.677-4.017-8.862-12.724-4.856-19.447 4.007-6.722 12.688-8.914 19.39-4.895s8.887 12.726 4.88 19.448a14.314 14.314 0 0 1-4.903 4.924c6.836-3.795 15.444-1.329 19.236 5.518z"/></g><g stroke-width="3.181"><path d="M56.218 797.319h4.816v16.757h-4.816z"/><path d="M85.091 789.304c3.793 6.847 1.334 15.48-5.492 19.284-6.826 3.804-15.433 1.337-19.226-5.51a14.177 14.177 0 0 1-1.744-5.926c-.528 7.817-7.273 13.72-15.064 13.189-7.79-.532-13.676-7.297-13.146-15.11.53-7.815 7.275-13.718 15.065-13.187 2.045.14 4.036.723 5.86 1.713-6.677-4.017-8.862-12.725-4.855-19.447 4.006-6.723 12.687-8.914 19.39-4.895 6.702 4.018 8.887 12.726 4.88 19.448a14.314 14.314 0 0 1-4.904 4.924c6.837-3.796 15.444-1.329 19.236 5.517z"/></g><g stroke-width="3.181"><path d="M16.402 775.116h1.605v5.586h-1.605z"/><path d="M26.026 772.445a4.735 4.735 0 0 1-1.83 6.428 4.705 4.705 0 0 1-6.41-1.837 4.726 4.726 0 0 1-.58-1.975 4.717 4.717 0 0 1-5.022 4.396 4.722 4.722 0 0 1-4.382-5.037 4.718 4.718 0 0 1 6.975-3.824 4.74 4.74 0 0 1-1.618-6.483 4.705 4.705 0 0 1 6.463-1.631 4.735 4.735 0 0 1 1.627 6.482 4.771 4.771 0 0 1-1.635 1.642 4.712 4.712 0 0 1 6.412 1.839z"/></g><g stroke-width="3.181" aria-label="8" font-family="Levenim MT" font-weight="700" letter-spacing="0" style="line-height:0%;-inkscape-font-specification:&quot;Sans Bold&quot;" word-spacing="0"><path d="M85.916 82.169q0 13.016-9.237 19.794-8.098 5.938-21.533 5.938-13.316 0-21.414-6.358-8.877-7.018-8.877-19.974 0-13.616 14.336-20.034-11.037-7.018-11.037-20.033 0-11.457 8.997-17.035 7.378-4.559 19.434-4.559 10.977 0 18.055 5.339 7.797 5.998 7.797 16.674 0 12.237-10.976 19.554 14.455 6.118 14.455 20.694zM67.262 44.201q0-11.217-11.996-11.217-5.459 0-8.698 2.94-3.239 2.878-3.239 8.277 0 5.218 3.42 8.277 3.238 3 8.517 3 5.158 0 8.577-3.06 3.419-3.059 3.419-8.217zm2.819 37.428q0-6.238-4.259-9.837-4.018-3.419-10.376-3.419-6.239 0-10.257 3.48-4.319 3.658-4.319 9.776 0 6.418 4.199 9.957 3.898 3.299 10.436 3.299 6.478 0 10.377-3.359 4.199-3.539 4.199-9.897z" font-size="122.842" style="line-height:1.25" transform="matrix(.30682 0 0 .32203 .26 720.766)"/></g><g stroke-width="3.181"><path d="M216.56 996.608h1.605v-5.586h-1.606z"/><path d="M226.184 999.28a4.734 4.734 0 0 0-1.83-6.428 4.705 4.705 0 0 0-6.41 1.836 4.726 4.726 0 0 0-.581 1.976 4.717 4.717 0 0 0-5.021-4.397 4.722 4.722 0 0 0-4.382 5.037 4.718 4.718 0 0 0 6.975 3.825 4.74 4.74 0 0 0-1.619 6.482 4.705 4.705 0 0 0 6.464 1.632 4.735 4.735 0 0 0 1.626-6.483 4.771 4.771 0 0 0-1.634-1.641 4.712 4.712 0 0 0 6.412-1.84z"/></g><g stroke-width="3.181" aria-label="8" font-family="Levenim MT" font-weight="700" letter-spacing="0" style="line-height:0%;-inkscape-font-specification:&quot;Sans Bold&quot;" word-spacing="0"><path d="M-673.36-945.541q0 13.048-9.26 19.843-8.118 5.954-21.588 5.954-13.35 0-21.467-6.375-8.9-7.035-8.9-20.024 0-13.65 14.372-20.084-11.064-7.035-11.064-20.084 0-11.485 9.02-17.078 7.396-4.57 19.482-4.57 11.005 0 18.1 5.352 7.817 6.013 7.817 16.717 0 12.267-11.004 19.603 14.492 6.133 14.492 20.746zm-18.701-38.064q0-11.245-12.027-11.245-5.472 0-8.719 2.947-3.247 2.886-3.247 8.298 0 5.231 3.428 8.298 3.247 3.007 8.538 3.007 5.172 0 8.6-3.067 3.427-3.067 3.427-8.238zm2.826 37.522q0-6.253-4.27-9.861-4.028-3.428-10.402-3.428-6.254 0-10.283 3.488-4.33 3.668-4.33 9.801 0 6.435 4.21 9.982 3.909 3.308 10.463 3.308 6.494 0 10.403-3.368 4.21-3.547 4.21-9.922z" font-size="123.151" style="line-height:1.25" transform="matrix(-.3076 0 0 -.32122 .26 720.766)"/></g><g stroke-width="3.181"><path d="M114.588 847.38h4.816v16.757h-4.816z"/><path d="M143.462 839.366c3.792 6.846 1.333 15.48-5.493 19.283-6.826 3.804-15.433 1.337-19.225-5.51a14.177 14.177 0 0 1-1.745-5.925c-.528 7.816-7.273 13.72-15.063 13.188-7.79-.531-13.676-7.297-13.147-15.11.53-7.815 7.275-13.718 15.066-13.187 2.045.14 4.035.724 5.859 1.713-6.677-4.017-8.862-12.725-4.855-19.447 4.007-6.722 12.688-8.914 19.39-4.895s8.887 12.726 4.88 19.448a14.314 14.314 0 0 1-4.903 4.924c6.836-3.795 15.444-1.329 19.236 5.518z"/></g><g stroke-width="3.181"><path d="M172.959 797.319h4.815v16.757h-4.815z"/><path d="M201.832 789.304c3.792 6.847 1.333 15.48-5.492 19.284-6.826 3.804-15.434 1.337-19.226-5.51a14.177 14.177 0 0 1-1.745-5.926c-.527 7.817-7.272 13.72-15.063 13.189-7.79-.532-13.676-7.297-13.146-15.11.53-7.815 7.275-13.718 15.065-13.187 2.045.14 4.036.723 5.86 1.713-6.677-4.017-8.862-12.725-4.856-19.447 4.007-6.723 12.688-8.914 19.39-4.895 6.702 4.018 8.887 12.726 4.88 19.448a14.314 14.314 0 0 1-4.903 4.924c6.836-3.796 15.444-1.329 19.236 5.517z"/></g><g stroke-width="3.181"><path d="M56.218 897.441h4.816V914.2h-4.816z"/><path d="M85.091 889.427c3.793 6.846 1.334 15.48-5.492 19.283-6.826 3.804-15.433 1.337-19.226-5.509a14.177 14.177 0 0 1-1.744-5.926c-.528 7.816-7.273 13.72-15.064 13.188-7.79-.531-13.676-7.296-13.146-15.11.53-7.814 7.275-13.718 15.065-13.186 2.045.139 4.036.723 5.86 1.712-6.677-4.017-8.862-12.724-4.855-19.447 4.006-6.722 12.687-8.914 19.39-4.895 6.702 4.019 8.887 12.726 4.88 19.448a14.314 14.314 0 0 1-4.904 4.924c6.837-3.795 15.444-1.329 19.236 5.518z"/></g><g stroke-width="3.181"><path d="M56.218 974.405h4.816v-16.757h-4.816z"/><path d="M85.091 982.42c3.793-6.846 1.334-15.48-5.492-19.284-6.826-3.803-15.433-1.337-19.226 5.51a14.177 14.177 0 0 0-1.744 5.926c-.528-7.816-7.273-13.72-15.064-13.189-7.79.532-13.676 7.297-13.146 15.111.53 7.814 7.275 13.718 15.065 13.186a14.314 14.314 0 0 0 5.86-1.713c-6.677 4.018-8.862 12.725-4.855 19.447 4.006 6.723 12.687 8.914 19.39 4.896 6.702-4.019 8.887-12.726 4.88-19.449a14.314 14.314 0 0 0-4.904-4.924c6.837 3.796 15.444 1.33 19.236-5.517z"/></g><g stroke-width="3.181"><path d="M172.959 974.405h4.815v-16.757h-4.815z"/><path d="M201.832 982.42c3.792-6.846 1.333-15.48-5.492-19.284-6.826-3.803-15.434-1.337-19.226 5.51a14.177 14.177 0 0 0-1.745 5.926c-.527-7.816-7.272-13.72-15.063-13.189-7.79.532-13.676 7.297-13.146 15.111.53 7.814 7.275 13.718 15.065 13.186a14.314 14.314 0 0 0 5.86-1.713c-6.677 4.018-8.862 12.725-4.856 19.447 4.007 6.723 12.688 8.914 19.39 4.896 6.702-4.019 8.887-12.726 4.88-19.449a14.314 14.314 0 0 0-4.903-4.924c6.836 3.796 15.444 1.33 19.236-5.517z"/></g></g></svg>