<svg xmlns="http://www.w3.org/2000/svg" width="234" height="333"><g transform="translate(0 -719.362)"><rect width="233.244" height="332.244" x=".378" y="719.74" fill="#fff" stroke="gray" stroke-width=".756" rx="8.919" ry="8.946"/><g stroke-width="3.181"><path d="M56.218 864.067h4.816v16.758h-4.816z"/><path d="M85.091 856.053c3.793 6.846 1.334 15.48-5.492 19.283-6.826 3.804-15.433 1.337-19.226-5.509a14.177 14.177 0 0 1-1.744-5.926c-.528 7.816-7.273 13.72-15.064 13.188-7.79-.531-13.676-7.297-13.146-15.11.53-7.814 7.275-13.718 15.065-13.187 2.045.14 4.036.724 5.86 1.713-6.677-4.017-8.862-12.724-4.855-19.447 4.006-6.722 12.687-8.914 19.39-4.895 6.702 4.019 8.887 12.726 4.88 19.448a14.314 14.314 0 0 1-4.904 4.924c6.837-3.795 15.444-1.329 19.236 5.518z"/></g><g stroke-width="3.181"><path d="M16.402 775.116h1.605v5.586h-1.605z"/><path d="M26.026 772.445a4.735 4.735 0 0 1-1.83 6.428 4.705 4.705 0 0 1-6.41-1.837 4.726 4.726 0 0 1-.58-1.975 4.717 4.717 0 0 1-5.022 4.396 4.722 4.722 0 0 1-4.382-5.037 4.718 4.718 0 0 1 6.975-3.824 4.74 4.74 0 0 1-1.618-6.483 4.705 4.705 0 0 1 6.463-1.631 4.735 4.735 0 0 1 1.627 6.482 4.771 4.771 0 0 1-1.635 1.642 4.712 4.712 0 0 1 6.412 1.839z"/></g><g stroke-width="3.181"><path d="M215.99 996.608h1.606v-5.586h-1.606z"/><path d="M225.615 999.28a4.735 4.735 0 0 0-1.83-6.428 4.705 4.705 0 0 0-6.41 1.836 4.726 4.726 0 0 0-.581 1.976 4.717 4.717 0 0 0-5.021-4.397 4.722 4.722 0 0 0-4.382 5.037 4.718 4.718 0 0 0 6.975 3.825 4.74 4.74 0 0 0-1.619 6.482 4.705 4.705 0 0 0 6.464 1.632 4.735 4.735 0 0 0 1.626-6.483 4.771 4.771 0 0 0-1.634-1.641 4.712 4.712 0 0 0 6.412-1.84z"/></g><g stroke-width="3.181"><path d="M56.218 974.405h4.816v-16.757h-4.816z"/><path d="M85.091 982.42c3.793-6.846 1.334-15.48-5.492-19.284-6.826-3.803-15.433-1.337-19.226 5.51a14.177 14.177 0 0 0-1.744 5.926c-.528-7.816-7.273-13.72-15.064-13.189-7.79.532-13.676 7.297-13.146 15.111.53 7.814 7.275 13.718 15.065 13.186a14.314 14.314 0 0 0 5.86-1.713c-6.677 4.018-8.862 12.725-4.855 19.447 4.006 6.723 12.687 8.914 19.39 4.896 6.702-4.019 8.887-12.726 4.88-19.449a14.314 14.314 0 0 0-4.904-4.924c6.837 3.796 15.444 1.33 19.236-5.517z"/></g><g stroke-width="3.181"><path d="M56.218 797.319h4.816v16.757h-4.816z"/><path d="M85.091 789.304c3.793 6.847 1.334 15.48-5.492 19.284-6.826 3.804-15.433 1.337-19.226-5.51a14.177 14.177 0 0 1-1.744-5.926c-.528 7.817-7.273 13.72-15.064 13.189-7.79-.532-13.676-7.297-13.146-15.11.53-7.815 7.275-13.718 15.065-13.187 2.045.14 4.036.724 5.86 1.713-6.677-4.017-8.862-12.725-4.855-19.447 4.006-6.722 12.687-8.914 19.39-4.895 6.702 4.018 8.887 12.726 4.88 19.448a14.314 14.314 0 0 1-4.904 4.924c6.837-3.795 15.444-1.329 19.236 5.517z"/></g><g stroke-width="3.181"><path d="M114.588 897.441h4.816V914.2h-4.816z"/><path d="M143.462 889.427c3.792 6.846 1.333 15.48-5.493 19.283-6.826 3.804-15.433 1.337-19.225-5.509a14.177 14.177 0 0 1-1.745-5.926c-.528 7.816-7.273 13.72-15.063 13.188-7.79-.531-13.676-7.296-13.147-15.11.53-7.814 7.275-13.718 15.066-13.186 2.045.14 4.035.723 5.859 1.712-6.677-4.017-8.862-12.724-4.855-19.447 4.007-6.722 12.688-8.914 19.39-4.895s8.887 12.726 4.88 19.448a14.314 14.314 0 0 1-4.903 4.924c6.836-3.795 15.443-1.329 19.236 5.518z"/></g><g stroke-width="3.181"><path d="M172.958 797.319h4.816v16.757h-4.816z"/><path d="M201.832 789.304c3.792 6.847 1.333 15.48-5.493 19.284-6.825 3.804-15.433 1.337-19.225-5.51a14.177 14.177 0 0 1-1.745-5.926c-.528 7.817-7.272 13.72-15.063 13.189-7.79-.532-13.676-7.297-13.146-15.11.53-7.815 7.274-13.718 15.065-13.187 2.045.14 4.036.724 5.86 1.713-6.677-4.017-8.862-12.725-4.856-19.447 4.007-6.722 12.688-8.914 19.39-4.895 6.702 4.018 8.887 12.726 4.88 19.448a14.314 14.314 0 0 1-4.903 4.924c6.836-3.795 15.444-1.329 19.236 5.517z"/></g><g stroke-width="3.181"><path d="M172.958 864.067h4.816v16.758h-4.816z"/><path d="M201.832 856.053c3.792 6.846 1.333 15.48-5.493 19.283-6.825 3.804-15.433 1.337-19.225-5.509a14.177 14.177 0 0 1-1.745-5.926c-.528 7.816-7.272 13.72-15.063 13.188-7.79-.531-13.676-7.297-13.146-15.11.53-7.814 7.274-13.718 15.065-13.187 2.045.14 4.036.724 5.86 1.713-6.677-4.017-8.862-12.724-4.856-19.447 4.007-6.722 12.688-8.914 19.39-4.895s8.887 12.726 4.88 19.448a14.314 14.314 0 0 1-4.903 4.924c6.836-3.795 15.444-1.329 19.236 5.518z"/></g><g stroke-width="3.181"><path d="M56.218 907.657h4.816V890.9h-4.816z"/><path d="M85.091 915.672c3.793-6.847 1.334-15.48-5.492-19.284-6.826-3.803-15.433-1.337-19.226 5.51a14.177 14.177 0 0 0-1.744 5.926c-.528-7.817-7.273-13.72-15.064-13.189-7.79.532-13.676 7.297-13.146 15.11.53 7.815 7.275 13.718 15.065 13.187a14.314 14.314 0 0 0 5.86-1.713c-6.677 4.018-8.862 12.725-4.855 19.447 4.006 6.723 12.687 8.914 19.39 4.896 6.702-4.02 8.887-12.727 4.88-19.449a14.314 14.314 0 0 0-4.904-4.924c6.837 3.796 15.444 1.33 19.236-5.517z"/></g><g stroke-width="3.181"><path d="M172.958 974.405h4.816v-16.757h-4.816z"/><path d="M201.832 982.42c3.792-6.846 1.333-15.48-5.493-19.284-6.825-3.803-15.433-1.337-19.225 5.51a14.177 14.177 0 0 0-1.745 5.926c-.528-7.816-7.272-13.72-15.063-13.189-7.79.532-13.676 7.297-13.146 15.111.53 7.814 7.274 13.718 15.065 13.186a14.314 14.314 0 0 0 5.86-1.713c-6.677 4.018-8.862 12.725-4.856 19.447 4.007 6.723 12.688 8.914 19.39 4.896 6.702-4.019 8.887-12.726 4.88-19.449a14.314 14.314 0 0 0-4.903-4.924c6.836 3.796 15.444 1.33 19.236-5.517z"/></g><g stroke-width="3.181"><path d="M172.958 907.657h4.816V890.9h-4.816z"/><path d="M201.832 915.672c3.792-6.847 1.333-15.48-5.493-19.284-6.825-3.803-15.433-1.337-19.225 5.51a14.177 14.177 0 0 0-1.745 5.926c-.528-7.817-7.272-13.72-15.063-13.189-7.79.532-13.676 7.297-13.146 15.11.53 7.815 7.274 13.718 15.065 13.187a14.314 14.314 0 0 0 5.86-1.713c-6.677 4.018-8.862 12.725-4.856 19.447 4.007 6.723 12.688 8.914 19.39 4.896 6.702-4.02 8.887-12.727 4.88-19.449a14.314 14.314 0 0 0-4.903-4.924c6.836 3.796 15.444 1.33 19.236-5.517z"/></g><g aria-label="9" font-family="Levenim MT" font-size="3.772" font-weight="700" letter-spacing="0" style="line-height:0%;-inkscape-font-specification:&quot;Sans Bold&quot;" word-spacing="0"><path d="M26.868 734.108q0 5.99-2.125 9.74-2.66 4.709-8.19 4.709-3.235 0-5.34-1.282-2.546-1.57-2.546-4.632 0-.67.938-.67h2.832q.555 0 .938.632.574.938.88 1.206.785.631 2.297.631 2.545 0 3.962-2.373 1.11-1.914 1.244-4.708-2.24 1.78-5.359 1.78-3.962 0-6.316-2.794-2.22-2.622-2.22-6.66 0-4.249 2.43-6.718 2.431-2.488 6.661-2.488 9.914 0 9.914 13.627zm-5.225-4.306q0-2.087-1.13-3.541-1.243-1.608-3.253-1.608-2.067 0-3.292 1.57-1.11 1.435-1.11 3.579 0 2.181 1.091 3.598 1.187 1.55 3.311 1.55 2.105 0 3.292-1.57 1.09-1.416 1.09-3.578z" font-size="39.195" style="line-height:1.25" transform="scale(.9908 1.0093)"/></g><g aria-label="9" font-family="Levenim MT" font-size="3.772" font-weight="700" letter-spacing="0" style="line-height:0%;-inkscape-font-specification:&quot;Sans Bold&quot;" word-spacing="0"><path d="M-209.307-1021.302q0 5.99-2.125 9.742-2.66 4.708-8.19 4.708-3.235 0-5.34-1.283-2.546-1.569-2.546-4.631 0-.67.938-.67h2.833q.555 0 .937.632.575.938.88 1.205.785.632 2.297.632 2.546 0 3.962-2.373 1.11-1.914 1.244-4.708-2.24 1.78-5.359 1.78-3.961 0-6.315-2.794-2.22-2.622-2.22-6.66 0-4.25 2.43-6.718 2.43-2.488 6.66-2.488 9.914 0 9.914 13.626zm-5.225-4.306q0-2.086-1.13-3.54-1.243-1.608-3.253-1.608-2.066 0-3.291 1.57-1.11 1.435-1.11 3.578 0 2.182 1.09 3.598 1.187 1.55 3.311 1.55 2.106 0 3.292-1.569 1.091-1.416 1.091-3.579z" font-size="39.195" style="line-height:1.25" transform="scale(-.9908 -1.0093)"/></g></g></svg>