<svg xmlns="http://www.w3.org/2000/svg" width="234" height="333"><g transform="translate(0 -719.362)"><rect width="233.244" height="332.244" x=".378" y="719.74" fill="#fff" stroke="gray" stroke-width=".756" rx="8.919" ry="8.946"/><path fill="red" d="m117 914.199 28.244-28.337L117 857.526l-28.244 28.336ZM17.206 780.702l9.414-9.445-9.414-9.446-9.415 9.446zM216.794 991.022l9.415 9.446-9.415 9.445-9.414-9.445z"/><g fill="red" aria-label="A" font-family="Levenim MT" font-size="3.772" font-weight="700" letter-spacing="0" style="line-height:0%;-inkscape-font-specification:&quot;Sans Bold&quot;" word-spacing="0"><path d="M32.051 627.488h-4.655l-1.84-4.847h-9.6l-1.92 4.847H9.381l9.071-23.534h4.544zm-8.175-9.215-3.12-8.08-3.136 8.08z" font-size="32.766" style="line-height:1.25" transform="scale(.83055 1.20403)"/></g><g fill="red" aria-label="A" font-family="Levenim MT" font-size="3.772" font-weight="700" letter-spacing="0" style="line-height:0%;-inkscape-font-specification:&quot;Sans Bold&quot;" word-spacing="0"><path d="M-249.691-844.008h-4.656l-1.84-4.848h-9.6l-1.92 4.848h-4.655l9.071-23.535h4.544zm-8.176-9.216-3.12-8.08-3.136 8.08z" font-size="32.766" style="line-height:1.25" transform="scale(-.83055 -1.20403)"/></g></g></svg>