<svg xmlns="http://www.w3.org/2000/svg" xml:space="preserve" width="234" height="333" version="1.0" viewBox="0 0 187.182 266.908"><rect width="186.951" height="266.302" x=".115" y=".303" fill="#fff" stroke="gray" stroke-width=".606" rx="7.149" ry="7.17"/><path fill="#fff" stroke="#313390" stroke-width="1.286" d="M177.503 250.028c0 3.852-3.109 7.01-6.921 7.01H16.59c-3.804 0-6.913-3.158-6.913-7.01V16.88c0-3.857 3.11-7.012 6.913-7.012h153.99c3.813 0 6.922 3.155 6.922 7.012z"/><path fill="#313390" fill-rule="evenodd" stroke="#313390" stroke-miterlimit="10" stroke-width=".027" d="M37.268 42.9h104.219c.819 0 8.692-.38 8.692.3v178.478c0 .261.175 1.453-.143 1.453H37.952c-1.472 0-.684-4.146-.684-5.332V42.9"/><path fill="#fff" fill-rule="evenodd" stroke="#313390" stroke-miterlimit="10" stroke-width=".027" d="M71.544 107.689c4.505 0 44.358-.321 44.358.317v51.31c0 .514-44.358.062-44.358.191V107.69"/><path fill="#fff" fill-rule="evenodd" stroke="#fff" stroke-miterlimit="10" stroke-width=".027" d="M93.723 102.977 80.617 118.29l-8.837 10.326c-.684.799-4.269 3.877-4.269 4.987 0 1.02 3.298 3.853 3.926 4.587l9.18 10.727c4.37 5.104 8.738 10.209 13.106 15.314l13.106-15.314 8.837-10.326c.684-.8 4.27-3.878 4.27-4.988 0-1.02-3.298-3.853-3.926-4.586l-9.18-10.727-13.107-15.314"/><path fill="#313390" fill-rule="evenodd" stroke="#313390" stroke-miterlimit="10" stroke-width=".027" d="M73.733 109.958s4.102-.053 9.036-.112c5.02-.06 11.044-.124 15.06-.146 4.72-.025 13.816.086 13.816.086 2.323 0 2.24.459 2.24 2.82v42.782c0 2.142-1.226 1.684-3.251 1.69l-26.84.086H75.23c-1.589 0-1.67-1.041-1.67-2.56v-42.236"/><path fill="#313390" fill-rule="evenodd" stroke="#313390" stroke-miterlimit="10" stroke-width=".027" d="M93.723 105.333 81.856 119.2l-8.461 9.886c-.619.723-3.867 3.513-3.867 4.518 0 .917 2.962 3.46 3.525 4.12l8.343 9.748 12.327 14.404 11.868-13.867 8.461-9.886c.619-.723 3.867-3.513 3.867-4.519 0-.916-2.962-3.46-3.526-4.119l-8.342-9.748-12.328-14.404"/><path fill="#fff" fill-rule="evenodd" stroke="#313390" stroke-miterlimit="10" stroke-width=".027" d="M77.593 114.757h26.27c1.092 0 5.99-.748 5.99.604v11.99c0 1.758.021 25.101-.02 25.101h-26.8c-1.066 0-5.44.738-5.44-.605v-37.09"/><path fill="#fff" fill-rule="evenodd" stroke="#fff" stroke-miterlimit="10" stroke-width=".027" d="m93.723 110.045-10.08 11.78-6.758 7.895c-.533.622-3.324 3.02-3.324 3.884 0 .776 2.504 2.926 2.98 3.483l7.101 8.297 10.081 11.78 10.081-11.78c2.253-2.632 4.506-5.263 6.757-7.896.533-.622 3.325-3.02 3.325-3.884 0-.774-2.504-2.925-2.98-3.482l-7.102-8.297-10.08-11.78"/><path fill="#313390" fill-rule="evenodd" stroke="#313390" stroke-miterlimit="10" stroke-width=".027" d="M79.61 117.112h25.804c3.106 0 2.423.279 2.423 3.43V149.41c0 1.523-5.279.686-6.51.686H84.965c-1.903 0-5.356 1.125-5.356-1.194v-31.79"/><path fill="#313390" fill-rule="evenodd" stroke="#313390" stroke-miterlimit="10" stroke-width=".027" d="m93.723 112.4-8.842 10.333-6.382 7.457c-.467.546-2.922 2.655-2.922 3.414 0 .67 2.168 2.534 2.58 3.015l6.263 7.317 9.303 10.872 8.843-10.332 6.382-7.457c.467-.546 2.922-2.655 2.922-3.415 0-.67-2.169-2.534-2.58-3.015l-6.263-7.317-9.304-10.872"/><path fill="#fff" fill-rule="evenodd" stroke="#313390" stroke-miterlimit="10" stroke-width=".027" d="m93.723 114.757-7.837 9.157-5.511 6.44c-.445.52-2.782 2.527-2.782 3.25 0 .633 2.046 2.391 2.436 2.846l5.4 6.312c2.766 3.23 5.53 6.46 8.294 9.69l7.838-9.158 5.51-6.439c.446-.52 2.782-2.527 2.782-3.251 0-.632-2.047-2.391-2.434-2.845l-5.403-6.312c-2.763-3.23-5.528-6.46-8.293-9.69"/><path fill="#fff" fill-rule="evenodd" stroke="#fff" stroke-miterlimit="10" stroke-width=".027" d="M81.625 119.468h24.092c.21 0 .104 23.126.104 25.331 0 .447.315 2.592 0 2.94-.352.39-3.284 0-3.78 0H81.73c-.236 0-.105-2.24-.105-2.501v-25.77"/><path fill="#313390" fill-rule="evenodd" stroke="#313390" stroke-linecap="round" stroke-linejoin="round" stroke-width=".998" d="M93.593 119.468c-2.016 2.357-3.902 4.712-5.918 7.068l-4.16 4.86c-.3.351-1.89 1.719-1.89 2.208 0 .49 1.59 1.858 1.89 2.209l4.16 4.859 6.048 7.068c2.017-2.356 4.032-4.712 6.05-7.068l4.157-4.86c.301-.35 1.891-1.718 1.891-2.208 0-.49-1.59-1.857-1.891-2.208l-4.158-4.86c-2.017-2.356-4.162-4.711-6.179-7.068"/><path fill="#fff" fill-rule="evenodd" stroke="#313390" stroke-miterlimit="10" stroke-width=".027" d="M123.967 105.333h-4.032l4.032 4.712v-4.712M123.967 112.4l-4.032-4.711v4.58c0 .276 3.513.131 4.032.131M63.48 105.333h4.031l-4.032 4.712v-4.712M63.48 112.4l4.031-4.711v4.58c0 .276-3.512.131-4.032.131M67.511 154.808H63.48l4.032 4.711v-4.711M67.511 161.876l-4.032-4.712v4.58c0 .277 3.513.132 4.032.132M119.935 154.808h4.032l-4.032 4.711v-4.711M119.935 161.876l4.032-4.712v4.58c0 .277-3.512.132-4.032.132M67.511 138.317H63.48l4.032 4.711v-4.711M67.511 145.384l-4.032-4.712v4.58c0 .277 3.513.132 4.032.132M63.48 121.825h4.031l-4.032 4.711v-4.711M63.48 128.892l4.031-4.712v4.58c0 .277-3.512.132-4.032.132M123.967 121.825h-4.032l4.032 4.711v-4.711M123.967 128.892l-4.032-4.712v4.58c0 .277 3.513.132 4.032.132M119.935 138.317h4.032l-4.032 4.711v-4.711M119.935 145.384l4.032-4.712v4.58c0 .277-3.512.132-4.032.132"/><path fill="#313390" fill-rule="evenodd" stroke="#313390" stroke-width=".998" d="M79.66 34.948c-.824-2.066-1.696-4.17-2.261-6.33-.51-1.945-.916-6.695 1.64-7.629 2.45-.895 3.341 3.398 3.31 5.085-.049 2.535-1.238 5.124-2.133 7.453-.182.475-.368.95-.556 1.421"/><path fill="#313390" fill-rule="evenodd" stroke="#313390" stroke-width=".998" d="M79.647 34.995c-2.026-.864-4.282-1.71-6.076-3.023-1.592-1.165-4.127-4.618-2.648-6.73 1.493-2.132 4.608.311 5.615 1.751 1.444 2.065 2.122 4.89 2.88 7.272l.229.73M79.653 34.995c2.026-.864 4.282-1.71 6.076-3.023 1.592-1.165 4.127-4.619 2.648-6.73-1.493-2.133-4.609.311-5.615 1.751-1.472 2.106-2.161 5.001-2.931 7.433l-.178.57M74.461 35.278c-1.64-.493-3.67-.33-4.718 1.21-.558.82-.685 3.998 1.092 3.38.31-.107.564-1.5.941-1.822.72-.612 2.07-.593 2.944-.664 1.177-.094 2.399.033 3.555-.129a.074.074 0 0 1 .007-.02c-1.096-.86-2.493-1.538-3.82-1.955M84.758 35.278c1.64-.493 3.67-.33 4.718 1.21.558.82.685 3.999-1.093 3.38-.31-.107-.562-1.5-.94-1.822-.72-.612-2.07-.593-2.944-.664-1.177-.094-2.398.033-3.555-.129a.074.074 0 0 0-.007-.02c1.096-.86 2.493-1.538 3.82-1.955M78.265 39.856c.24 2.076 3.793 1.067 2.094-1.79-1.194-2.007-1.878-.129-2.094 1.79M107.887 34.948c-.824-2.065-1.696-4.17-2.26-6.33-.51-1.945-.916-6.694 1.638-7.629 2.452-.896 3.343 3.399 3.311 5.085-.048 2.535-1.237 5.124-2.132 7.453-.183.475-.368.95-.557 1.421"/><path fill="#313390" fill-rule="evenodd" stroke="#313390" stroke-width=".998" d="M107.874 34.995c-2.025-.864-4.282-1.71-6.075-3.023-1.592-1.165-4.127-4.619-2.649-6.73 1.494-2.132 4.609.31 5.616 1.751 1.444 2.065 2.121 4.89 2.879 7.272.078.243.154.489.23.73M107.881 34.995c2.026-.864 4.282-1.71 6.076-3.023 1.592-1.165 4.127-4.618 2.647-6.73-1.492-2.132-4.608.311-5.615 1.751-1.473 2.106-2.16 5.001-2.93 7.433l-.178.57M102.688 35.278c-1.639-.493-3.67-.33-4.716 1.21-.56.82-.687 3.999 1.092 3.38.309-.107.563-1.5.94-1.822.72-.612 2.07-.593 2.944-.664 1.177-.094 2.399.033 3.555-.129a.073.073 0 0 1 .007-.02c-1.097-.86-2.492-1.538-3.822-1.955M112.985 35.278c1.64-.493 3.671-.33 4.72 1.21.557.82.684 3.998-1.093 3.38-.31-.107-.564-1.5-.942-1.822-.719-.612-2.069-.593-2.943-.664-1.177-.094-2.399.033-3.556-.129a.05.05 0 0 0-.007-.02c1.097-.86 2.493-1.538 3.821-1.955M106.493 39.856c.24 2.076 3.793 1.067 2.094-1.79-1.194-2.008-1.879-.128-2.094 1.79M136.115 34.948c-.823-2.066-1.696-4.17-2.262-6.33-.508-1.945-.915-6.695 1.641-7.629 2.451-.896 3.341 3.399 3.31 5.085-.05 2.535-1.238 5.123-2.133 7.453-.181.475-.368.95-.556 1.421"/><path fill="#313390" fill-rule="evenodd" stroke="#313390" stroke-width=".998" d="M136.102 34.995c-2.026-.864-4.281-1.71-6.076-3.023-1.592-1.165-4.126-4.619-2.648-6.73 1.493-2.132 4.609.311 5.615 1.751 1.472 2.106 2.16 5 2.93 7.433l.18.57M136.108 34.995c2.027-.864 4.283-1.71 6.077-3.023 1.591-1.165 4.126-4.619 2.648-6.73-1.493-2.132-4.61.311-5.616 1.751-1.472 2.106-2.16 5.001-2.93 7.433l-.179.57M130.917 35.278c-1.64-.493-3.67-.33-4.718 1.21-.56.82-.686 3.998 1.092 3.38.31-.107.563-1.5.94-1.822.72-.612 2.07-.593 2.944-.664 1.178-.094 2.399.033 3.556-.129a.138.138 0 0 1 .007-.02c-1.097-.86-2.492-1.538-3.82-1.955M141.212 35.278c1.642-.493 3.672-.33 4.72 1.21.558.82.686 3.998-1.093 3.38-.309-.107-.563-1.5-.94-1.822-.72-.612-2.07-.593-2.944-.664-1.177-.094-2.399.033-3.556-.129a1.192 1.192 0 0 0-.006-.02c1.096-.86 2.492-1.538 3.82-1.955M134.72 39.856c.241 2.077 3.793 1.066 2.095-1.79-1.195-2.008-1.878-.128-2.094 1.79M51.432 34.948c-.824-2.065-1.696-4.17-2.261-6.33-.51-1.945-.915-6.695 1.64-7.629 2.451-.896 3.341 3.399 3.31 5.085-.049 2.535-1.238 5.123-2.133 7.453-.182.475-.368.95-.556 1.421"/><path fill="#313390" fill-rule="evenodd" stroke="#313390" stroke-width=".998" d="M51.419 34.995c-2.027-.864-4.282-1.71-6.076-3.023-1.592-1.165-4.127-4.618-2.648-6.73 1.493-2.132 4.609.311 5.615 1.751 1.444 2.065 2.122 4.89 2.88 7.272l.229.73M51.425 34.995c2.026-.864 4.282-1.71 6.076-3.023 1.592-1.165 4.127-4.618 2.648-6.73-1.493-2.132-4.608.311-5.615 1.751-1.444 2.065-2.122 4.89-2.88 7.272l-.229.73M46.233 35.278c-1.64-.493-3.67-.33-4.717 1.21-.559.82-.686 3.999 1.092 3.38.31-.107.563-1.5.94-1.822.72-.612 2.07-.593 2.944-.664 1.177-.094 2.4.033 3.556-.129a.06.06 0 0 1 .007-.02c-1.097-.86-2.493-1.539-3.822-1.955M56.53 35.278c1.64-.493 3.67-.33 4.718 1.21.558.82.686 3.998-1.092 3.38-.31-.107-.563-1.5-.941-1.822-.72-.612-2.07-.593-2.944-.664-1.176-.094-2.398.033-3.555-.129a.096.096 0 0 0-.007-.02c1.097-.86 2.493-1.538 3.82-1.955M50.037 39.856c.24 2.076 3.793 1.067 2.094-1.79-1.193-2.007-1.878-.128-2.094 1.79M79.408 231.083c-.824 2.066-1.696 4.17-2.262 6.329-.509 1.944-.915 6.697 1.64 7.63 2.452.895 3.342-3.399 3.31-5.086-.048-2.535-1.238-5.123-2.132-7.452-.182-.475-.368-.95-.556-1.421"/><path fill="#313390" fill-rule="evenodd" stroke="#313390" stroke-width=".998" d="M79.394 231.036c-2.026.863-4.281 1.71-6.075 3.023-1.592 1.165-4.127 4.618-2.648 6.73 1.493 2.132 4.608-.311 5.615-1.751 1.444-2.066 2.122-4.89 2.88-7.273.077-.242.153-.488.228-.73M79.401 231.036c2.027.863 4.282 1.71 6.076 3.023 1.592 1.165 4.126 4.618 2.648 6.73-1.493 2.132-4.609-.311-5.616-1.751-1.472-2.107-2.16-5.001-2.93-7.433l-.178-.57M74.209 230.753c-1.64.492-3.67.329-4.718-1.21-.558-.82-.685-4 1.092-3.381.31.107.564 1.5.941 1.822.72.612 2.07.594 2.944.663 1.177.095 2.4-.031 3.555.13a.049.049 0 0 0 .007.02c-1.096.86-2.493 1.539-3.821 1.956M84.506 230.753c1.64.492 3.67.329 4.718-1.21.558-.82.685-3.998-1.092-3.381-.31.107-.564 1.5-.941 1.822-.72.612-2.069.594-2.944.663-1.177.095-2.4-.031-3.555.13a.083.083 0 0 1-.007.02c1.095.86 2.493 1.539 3.82 1.956M78.013 226.175c.24-2.077 3.792-1.068 2.094 1.789-1.194 2.008-1.876.13-2.094-1.79M107.635 231.083c-.824 2.066-1.696 4.17-2.26 6.329-.51 1.944-.916 6.696 1.638 7.63 2.452.895 3.344-3.399 3.311-5.086-.048-2.533-1.237-5.125-2.132-7.452-.183-.475-.368-.95-.557-1.421"/><path fill="#313390" fill-rule="evenodd" stroke="#313390" stroke-width=".998" d="M107.622 231.036c-2.026.863-4.282 1.71-6.075 3.023-1.592 1.165-4.127 4.618-2.648 6.73 1.493 2.132 4.608-.311 5.615-1.751 1.472-2.107 2.16-5.001 2.93-7.433l.178-.57M107.63 231.036c2.026.863 4.281 1.71 6.075 3.023 1.593 1.165 4.127 4.618 2.647 6.73-1.493 2.132-4.608-.311-5.615-1.751-1.472-2.107-2.16-5.001-2.93-7.433l-.178-.57M102.436 230.753c-1.639.492-3.67.329-4.717-1.21-.558-.82-.686-4 1.092-3.381.31.107.564 1.5.942 1.822.72.612 2.068.594 2.943.663 1.176.095 2.4-.031 3.555.13a.066.066 0 0 0 .007.02c-1.096.86-2.493 1.539-3.821 1.956M112.734 230.753c1.639.492 3.67.329 4.718-1.21.557-.82.685-3.998-1.092-3.381-.31.107-.564 1.5-.941 1.822-.72.612-2.07.594-2.945.663-1.176.095-2.399-.031-3.555.13a.042.042 0 0 1-.007.02c1.096.86 2.493 1.539 3.821 1.956M106.24 226.175c.241-2.077 3.793-1.068 2.095 1.789-1.194 2.008-1.876.13-2.095-1.79M135.863 231.083c-.824 2.066-1.696 4.17-2.262 6.329-.508 1.944-.915 6.697 1.641 7.63 2.452.895 3.342-3.399 3.31-5.086-.048-2.533-1.236-5.125-2.133-7.452-.182-.475-.368-.95-.556-1.421"/><path fill="#313390" fill-rule="evenodd" stroke="#313390" stroke-width=".998" d="M135.85 231.036c-2.026.863-4.282 1.71-6.076 3.023-1.592 1.165-4.126 4.618-2.648 6.73 1.493 2.132 4.609-.311 5.615-1.751 1.445-2.066 2.123-4.89 2.881-7.273.077-.242.152-.488.228-.73M135.856 231.036c2.027.863 4.283 1.71 6.077 3.023 1.592 1.165 4.126 4.618 2.647 6.73-1.492 2.132-4.608-.311-5.615-1.751-1.444-2.066-2.12-4.89-2.88-7.273-.077-.242-.153-.488-.229-.73M130.664 230.753c-1.64.492-3.67.329-4.717-1.21-.559-.82-.687-3.998 1.092-3.381.309.107.563 1.5.94 1.822.72.612 2.07.594 2.944.663 1.177.095 2.4-.031 3.556.13a.057.057 0 0 0 .007.02c-1.097.86-2.492 1.539-3.821 1.956M140.96 230.753c1.64.492 3.672.329 4.72-1.21.558-.82.685-3.998-1.093-3.381-.309.107-.563 1.5-.94 1.822-.72.612-2.069.594-2.944.663-1.177.095-2.4-.031-3.556.13a.09.09 0 0 1-.007.02c1.095.86 2.493 1.539 3.82 1.956M134.47 226.175c.238-2.077 3.79-1.068 2.093 1.789-1.195 2.008-1.877.13-2.094-1.79M51.18 231.083c-.825 2.065-1.696 4.17-2.262 6.329-.509 1.944-.915 6.697 1.64 7.63 2.452.895 3.343-3.399 3.31-5.086-.048-2.535-1.237-5.123-2.132-7.452-.182-.475-.368-.95-.556-1.421"/><path fill="#313390" fill-rule="evenodd" stroke="#313390" stroke-width=".998" d="M51.167 231.036c-2.027.863-4.282 1.71-6.076 3.023-1.592 1.165-4.127 4.618-2.648 6.73 1.493 2.132 4.608-.312 5.615-1.751 1.444-2.066 2.122-4.89 2.88-7.273.077-.24.153-.488.229-.73M51.173 231.036c2.027.863 4.282 1.711 6.076 3.023 1.592 1.164 4.127 4.618 2.648 6.73-1.493 2.132-4.608-.311-5.615-1.751-1.472-2.107-2.16-5.001-2.93-7.433l-.179-.57M45.981 230.753c-1.64.492-3.67.329-4.718-1.21-.558-.82-.685-4 1.092-3.381.31.107.564 1.5.942 1.822.72.612 2.068.594 2.943.663 1.177.095 2.4-.031 3.555.13a.07.07 0 0 0 .007.02c-1.096.86-2.492 1.539-3.82 1.956M56.278 230.753c1.64.492 3.67.33 4.718-1.21.558-.82.685-4-1.092-3.381-.31.107-.564 1.5-.94 1.822-.721.612-2.07.594-2.945.663-1.176.095-2.4-.031-3.555.13a.049.049 0 0 1-.007.02c1.096.86 2.493 1.539 3.82 1.956M49.785 226.175c.24-2.077 3.792-1.068 2.094 1.789-1.194 2.01-1.875.13-2.094-1.79M157.048 232.485c1.92 1.042 3.997 2.324 6.122 2.88 1.935.507 5.596.018 5.949-2.571.34-2.499-3.15-3.621-5.032-3.4-2.347.276-4.809 1.877-6.865 2.992-.057.031-.117.067-.174.099"/><path fill="#313390" fill-rule="evenodd" stroke="#313390" stroke-width=".998" d="M157.011 232.5c.827 2.652 3.39 12.78 8.007 10.386 2.25-1.165.44-5.023-.738-6.334-1.662-1.848-4.417-2.82-6.645-3.784-.207-.09-.417-.18-.624-.268M157.007 232.492c.829-2.654 3.393-12.785 8.011-10.386 2.247 1.167.44 5.012-.738 6.326-1.663 1.85-4.418 2.825-6.647 3.794-.208.09-.419.177-.626.266M156.765 238.56c.374 1.705.452 4.265-1.035 5.511-.967.811-3.469.544-2.893-1.276.107-.337 1.27-.69 1.56-1.102.597-.855.51-2.452.567-3.437.078-1.375-.046-2.794.111-4.154a.05.05 0 0 0 .017-.008c.776 1.337 1.333 2.95 1.673 4.465M156.765 226.527c.375-1.708.455-4.267-1.035-5.513-.967-.809-3.472-.546-2.893 1.276.106.335 1.272.688 1.56 1.1.597.855.51 2.455.567 3.44.078 1.376-.046 2.793.111 4.154a.083.083 0 0 1 .017.008c.774-1.336 1.337-2.95 1.673-4.465M152.848 234.114c-1.842-.45-1.055-4.486 1.531-2.446 1.556 1.226.383 2.115-1.531 2.446M157.05 199.5c1.921 1.044 4 2.325 6.124 2.883 1.93.507 5.597.018 5.945-2.572.334-2.497-3.149-3.62-5.032-3.4-2.345.273-4.809 1.876-6.861 2.992-.058.03-.118.067-.175.098"/><path fill="#313390" fill-rule="evenodd" stroke="#313390" stroke-width=".998" d="M157.007 199.517c.83 2.653 3.393 12.78 8.011 10.386 2.248-1.166.44-5.02-.738-6.33-1.665-1.85-4.42-2.821-6.647-3.79-.208-.09-.419-.179-.626-.266M157.011 199.509c.827-2.656 3.389-12.78 8.007-10.386 2.25 1.166.44 5.018-.738 6.329-1.663 1.85-4.417 2.822-6.645 3.79-.207.09-.417.178-.624.267M156.765 205.57c.375 1.713.455 4.264-1.035 5.514-.965.81-3.473.555-2.893-1.272.106-.334 1.272-.688 1.56-1.1.597-.855.51-2.453.567-3.44.078-1.376-.046-2.793.111-4.154a.083.083 0 0 0 .017-.008c.774 1.334 1.336 2.948 1.673 4.46M156.765 193.544c.374-1.706.452-4.266-1.035-5.513-.966-.81-3.475-.545-2.893 1.276.107.334 1.27.687 1.56 1.1.597.856.51 2.453.567 3.44.078 1.376-.046 2.793.111 4.154a.083.083 0 0 1 .017.008c.776-1.337 1.333-2.95 1.673-4.465M152.848 201.13c-1.842-.45-1.053-4.49 1.531-2.45 1.558 1.23.383 2.118-1.531 2.45M157.048 166.517c1.918 1.045 4.001 2.327 6.126 2.882 1.934.506 5.592.018 5.945-2.572.34-2.497-3.149-3.625-5.032-3.404-2.348.276-4.81 1.88-6.865 2.996-.057.032-.116.067-.174.098"/><path fill="#313390" fill-rule="evenodd" stroke="#313390" stroke-width=".998" d="M157.007 166.532c.83 2.656 3.393 12.782 8.011 10.386 2.248-1.165.44-5.018-.738-6.329-1.665-1.85-4.42-2.822-6.647-3.79-.208-.09-.419-.178-.626-.267M157.007 166.524c.83-2.653 3.393-12.78 8.011-10.386 2.248 1.167.44 5.02-.738 6.33-1.665 1.85-4.42 2.823-6.647 3.79-.208.09-.419.179-.626.266M156.765 172.592c.374 1.707.452 4.266-1.035 5.513-.967.811-3.472.545-2.893-1.276.106-.335 1.272-.688 1.56-1.1.597-.856.51-2.455.567-3.44.078-1.369-.066-2.816.12-4.158.792 1.302 1.344 2.96 1.681 4.46M156.765 160.56c.374-1.706.452-4.266-1.035-5.512-.967-.812-3.472-.546-2.893 1.276.106.335 1.272.688 1.56 1.1.597.854.51 2.453.567 3.439.078 1.37-.066 2.817.12 4.158.792-1.301 1.344-2.96 1.681-4.461M152.848 168.147c-1.843-.45-1.053-4.482 1.531-2.45 1.56 1.226.38 2.114-1.531 2.45M157.048 100.55c1.92 1.043 4 2.327 6.122 2.882 1.935.506 5.596.018 5.949-2.572.34-2.499-3.15-3.622-5.032-3.4-2.348.276-4.809 1.877-6.865 2.992l-.174.098"/><path fill="#313390" fill-rule="evenodd" stroke="#313390" stroke-width=".998" d="M157.011 100.566c.827 2.653 3.39 12.779 8.007 10.386 2.25-1.166.44-5.023-.738-6.334-1.66-1.848-4.417-2.82-6.645-3.785-.207-.09-.417-.18-.624-.267M157.007 100.558c.829-2.655 3.394-12.786 8.011-10.386 2.247 1.167.44 5.013-.738 6.326-1.663 1.85-4.42 2.824-6.647 3.793-.208.09-.419.178-.626.267M156.765 106.624c.374 1.707.452 4.267-1.035 5.514-1.025.86-3.437.5-2.87-1.323.086-.274 1.332-.766 1.6-1.19.562-.89.464-2.492.515-3.495.065-1.302-.082-2.703.117-3.97.776 1.337 1.333 2.95 1.673 4.464M156.765 94.594c.375-1.709.455-4.267-1.035-5.513-.966-.81-3.473-.547-2.893 1.275.106.335 1.272.688 1.56 1.1.597.855.51 2.455.567 3.44.078 1.376-.046 2.793.111 4.154a.063.063 0 0 1 .017.008c.775-1.336 1.337-2.95 1.673-4.464M152.848 102.18c-1.842-.45-1.055-4.485 1.531-2.447 1.556 1.227.383 2.115-1.531 2.447M157.05 67.567c1.921 1.044 4 2.323 6.124 2.882 1.932.507 5.597.018 5.945-2.572.334-2.498-3.149-3.62-5.032-3.4-2.345.273-4.809 1.877-6.861 2.991l-.175.099"/><path fill="#313390" fill-rule="evenodd" stroke="#313390" stroke-width=".998" d="M157.007 67.582c.83 2.655 3.393 12.781 8.011 10.386 2.248-1.165.44-5.019-.738-6.33-1.665-1.849-4.42-2.82-6.647-3.789-.208-.09-.419-.178-.626-.267M157.011 67.574c.827-2.654 3.389-12.78 8.007-10.385 2.25 1.165.44 5.018-.738 6.33-1.663 1.849-4.416 2.82-6.645 3.789-.207.09-.417.178-.624.266M156.765 73.637c.375 1.712.455 4.264-1.035 5.513-.965.81-3.474.555-2.893-1.272.106-.335 1.272-.688 1.56-1.1.597-.854.51-2.454.567-3.439.078-1.377-.046-2.794.111-4.154a.063.063 0 0 0 .017-.008c.774 1.334 1.336 2.947 1.673 4.46M156.765 61.61c.375-1.707.452-4.266-1.035-5.513-.966-.81-3.469-.549-2.893 1.272.107.338 1.27.69 1.56 1.104.597.856.51 2.454.567 3.44.078 1.376-.046 2.793.111 4.154a.063.063 0 0 1 .017.008c.776-1.337 1.333-2.95 1.673-4.465M152.848 69.196c-1.842-.448-1.054-4.49 1.531-2.45 1.558 1.229.383 2.119-1.531 2.45M157.048 34.583c1.917 1.046 4.001 2.327 6.126 2.882 1.934.506 5.592.017 5.945-2.571.34-2.499-3.149-3.626-5.032-3.405-2.348.275-4.81 1.88-6.865 2.996-.057.032-.116.067-.174.098"/><path fill="#313390" fill-rule="evenodd" stroke="#313390" stroke-width=".998" d="M157.007 34.599c.83 2.654 3.393 12.78 8.011 10.386 2.248-1.166.44-5.02-.738-6.33-1.665-1.85-4.42-2.821-6.647-3.79l-.626-.266M157.007 34.591c.83-2.654 3.393-12.78 8.011-10.386 2.248 1.165.44 5.02-.738 6.33-1.665 1.85-4.42 2.82-6.647 3.789-.208.09-.419.179-.626.267M156.765 40.658c.374 1.706.452 4.266-1.035 5.513-.967.811-3.472.545-2.893-1.277.106-.334 1.272-.687 1.56-1.099.597-.855.51-2.454.567-3.44.078-1.37-.066-2.817.12-4.158.792 1.301 1.344 2.96 1.681 4.46M156.765 28.627c.374-1.707.452-4.266-1.035-5.513-.967-.812-3.472-.546-2.893 1.276.106.334 1.272.687 1.56 1.1.597.855.51 2.453.567 3.44.078 1.369-.066 2.816.12 4.157.792-1.302 1.344-2.96 1.681-4.46M152.848 36.213c-1.843-.45-1.053-4.482 1.531-2.45 1.56 1.225.38 2.114-1.531 2.45M157.048 133.533c1.917 1.046 4.001 2.328 6.126 2.883 1.934.505 5.592.017 5.945-2.573.34-2.499-3.149-3.62-5.032-3.4-2.348.277-4.809 1.877-6.865 2.993-.057.03-.116.066-.174.097"/><path fill="#313390" fill-rule="evenodd" stroke="#313390" stroke-width=".998" d="M157.007 133.55c.83 2.654 3.393 12.78 8.011 10.385 2.248-1.165.44-5.018-.738-6.33-1.665-1.849-4.42-2.82-6.647-3.789-.208-.09-.419-.178-.626-.267M157.007 133.541c.83-2.654 3.393-12.78 8.011-10.385 2.248 1.165.44 5.018-.738 6.329-1.665 1.85-4.42 2.822-6.647 3.79-.208.09-.419.178-.626.266M156.765 139.608c.374 1.707.452 4.266-1.035 5.512-.968.814-3.469.547-2.893-1.275.106-.335 1.27-.692 1.56-1.103.597-.856.51-2.455.567-3.44.078-1.375-.046-2.791.111-4.151a.05.05 0 0 0 .017-.008c.776 1.338 1.333 2.95 1.673 4.465M156.765 127.577c.374-1.708.453-4.265-1.035-5.513-.967-.812-3.472-.546-2.893 1.276.106.335 1.272.688 1.56 1.1.597.855.51 2.454.567 3.44.078 1.369-.066 2.816.12 4.158.79-1.303 1.344-2.96 1.681-4.461M152.848 135.159c-1.838-.438-1.056-4.486 1.531-2.442 1.552 1.226.38 2.117-1.531 2.442M30.4 232.485c-1.92 1.042-3.999 2.324-6.123 2.88-1.935.507-5.596.018-5.948-2.571-.34-2.499 3.148-3.621 5.03-3.4 2.349.276 4.81 1.877 6.865 2.992.058.031.119.067.175.099"/><path fill="#313390" fill-rule="evenodd" stroke="#313390" stroke-width=".998" d="M30.436 232.5c-.826 2.652-3.39 12.778-8.008 10.386-2.248-1.165-.439-5.023.74-6.334 1.66-1.848 4.416-2.82 6.643-3.784.208-.09.417-.18.625-.268M30.44 232.492c-.829-2.655-3.393-12.784-8.012-10.386-2.246 1.167-.44 5.012.74 6.326 1.662 1.85 4.417 2.825 6.646 3.794.207.09.418.177.625.266M30.681 238.56c-.374 1.705-.451 4.265 1.035 5.511.968.811 3.47.544 2.894-1.276-.107-.337-1.27-.689-1.56-1.102-.598-.855-.512-2.452-.568-3.437-.077-1.375.047-2.794-.11-4.154-.006-.002-.012-.004-.017-.008-.775 1.337-1.333 2.95-1.674 4.465M30.681 226.527c-.375-1.708-.454-4.267 1.035-5.513.968-.809 3.473-.546 2.894 1.276-.107.335-1.271.688-1.56 1.1-.598.855-.512 2.455-.568 3.44-.077 1.375.047 2.794-.11 4.154a.108.108 0 0 0-.017.008c-.775-1.336-1.337-2.95-1.674-4.465M34.6 234.114c1.842-.452 1.053-4.485-1.533-2.446-1.556 1.226-.382 2.115 1.533 2.446M30.396 199.5c-1.922 1.044-3.997 2.325-6.123 2.883-1.932.507-5.597.018-5.944-2.572-.335-2.497 3.147-3.62 5.03-3.4 2.347.273 4.81 1.877 6.862 2.992.059.03.118.067.175.098"/><path fill="#313390" fill-rule="evenodd" stroke="#313390" stroke-width=".998" d="M30.44 199.517c-.831 2.654-3.392 12.78-8.012 10.386-2.247-1.165-.44-5.02.74-6.33 1.663-1.85 4.417-2.821 6.646-3.79.207-.09.418-.179.625-.266M30.436 199.509c-.827-2.656-3.389-12.78-8.008-10.386-2.247 1.165-.44 5.017.74 6.329 1.661 1.849 4.415 2.823 6.643 3.79.207.09.418.178.625.267M30.681 205.57c-.375 1.713-.454 4.265 1.035 5.514.966.81 3.474.555 2.894-1.272-.107-.335-1.271-.688-1.56-1.1-.598-.855-.512-2.453-.568-3.44-.077-1.376.047-2.793-.11-4.154a.108.108 0 0 1-.017-.008c-.774 1.335-1.336 2.948-1.674 4.46M30.681 193.544c-.374-1.707-.451-4.266 1.035-5.513.967-.81 3.475-.545 2.894 1.276-.107.334-1.271.687-1.56 1.1-.598.856-.512 2.453-.568 3.44-.077 1.376.047 2.793-.11 4.154a.108.108 0 0 0-.017.008c-.775-1.338-1.333-2.95-1.674-4.465M34.6 201.13c1.842-.45 1.051-4.49-1.533-2.45-1.558 1.23-.382 2.118 1.533 2.45M30.4 166.517c-1.919 1.045-4.003 2.327-6.127 2.882-1.934.506-5.593.018-5.944-2.572-.34-2.497 3.146-3.625 5.03-3.404 2.349.276 4.81 1.88 6.865 2.996.058.032.118.068.175.098"/><path fill="#313390" fill-rule="evenodd" stroke="#313390" stroke-width=".998" d="M30.44 166.532c-.831 2.656-3.392 12.78-8.012 10.386-2.247-1.164-.44-5.018.74-6.329 1.663-1.849 4.418-2.82 6.646-3.79.207-.09.418-.178.625-.267M30.44 166.524c-.831-2.654-3.392-12.779-8.012-10.386-2.247 1.166-.44 5.02.74 6.33 1.663 1.85 4.418 2.822 6.646 3.79.207.09.418.179.625.266M30.681 172.592c-.374 1.707-.451 4.266 1.035 5.513.968.811 3.473.545 2.894-1.276-.107-.335-1.271-.688-1.56-1.1-.598-.856-.512-2.455-.568-3.44-.077-1.369.068-2.817-.12-4.158-.791 1.303-1.343 2.96-1.68 4.46M30.681 160.56c-.374-1.706-.451-4.266 1.035-5.512.968-.811 3.472-.546 2.894 1.276-.107.335-1.272.688-1.56 1.1-.598.854-.512 2.453-.568 3.439-.077 1.37.068 2.818-.12 4.158-.792-1.302-1.343-2.96-1.68-4.461M34.6 168.147c1.843-.45 1.05-4.481-1.533-2.45-1.56 1.226-.378 2.114 1.533 2.45M30.4 100.55c-1.92 1.043-4 2.326-6.123 2.882-1.935.506-5.596.018-5.948-2.572-.34-2.499 3.148-3.622 5.03-3.4 2.349.276 4.81 1.877 6.865 2.992.058.031.118.067.175.098"/><path fill="#313390" fill-rule="evenodd" stroke="#313390" stroke-width=".998" d="M30.436 100.566c-.827 2.653-3.39 12.778-8.008 10.386-2.248-1.166-.439-5.023.74-6.334 1.66-1.848 4.416-2.82 6.643-3.785.207-.09.418-.18.625-.267M30.44 100.558c-.829-2.655-3.394-12.785-8.012-10.386-2.246 1.167-.44 5.013.74 6.326 1.662 1.85 4.417 2.824 6.646 3.793.207.09.419.178.625.267M30.681 106.624c-.374 1.708-.451 4.267 1.035 5.514 1.027.86 3.439.5 2.87-1.323-.085-.274-1.331-.766-1.6-1.19-.562-.89-.463-2.492-.513-3.495-.066-1.302.081-2.704-.118-3.97-.776 1.337-1.333 2.95-1.674 4.464M30.681 94.594c-.375-1.709-.454-4.267 1.035-5.513.968-.81 3.473-.547 2.894 1.275-.107.335-1.271.688-1.56 1.1-.598.855-.512 2.455-.568 3.44-.077 1.376.047 2.794-.11 4.154a.077.077 0 0 0-.017.008c-.775-1.336-1.337-2.95-1.674-4.464M34.6 102.18c1.842-.452 1.053-4.485-1.533-2.447-1.556 1.227-.382 2.115 1.533 2.447M30.396 67.567c-1.92 1.043-3.998 2.323-6.123 2.882-1.932.507-5.597.018-5.944-2.572-.335-2.498 3.147-3.62 5.03-3.4 2.347.273 4.81 1.877 6.862 2.991.059.032.118.067.175.099"/><path fill="#313390" fill-rule="evenodd" stroke="#313390" stroke-width=".998" d="M30.44 67.582c-.831 2.655-3.392 12.78-8.012 10.386-2.247-1.164-.44-5.019.74-6.33 1.663-1.848 4.417-2.82 6.646-3.789.207-.09.419-.178.625-.267M30.436 67.574c-.827-2.654-3.389-12.78-8.008-10.385-2.248 1.164-.44 5.018.74 6.33 1.662 1.848 4.415 2.82 6.643 3.789.207.09.418.178.625.266M30.681 73.637c-.375 1.712-.454 4.264 1.035 5.513.966.81 3.474.555 2.894-1.272-.107-.335-1.271-.688-1.56-1.1-.598-.854-.512-2.454-.568-3.439-.077-1.377.047-2.794-.11-4.154a.077.077 0 0 1-.017-.008c-.774 1.334-1.336 2.947-1.674 4.46M30.681 61.61c-.374-1.708-.451-4.266 1.035-5.513.967-.81 3.47-.549 2.894 1.272-.107.338-1.27.69-1.56 1.104-.598.856-.512 2.454-.568 3.44-.077 1.375.047 2.793-.11 4.154a.07.07 0 0 0-.017.008c-.775-1.338-1.333-2.95-1.674-4.465M34.6 69.196c1.842-.449 1.052-4.49-1.533-2.45-1.557 1.229-.382 2.119 1.533 2.45M30.4 34.583c-1.919 1.046-4.003 2.327-6.127 2.882-1.934.506-5.593.017-5.944-2.571-.34-2.499 3.146-3.626 5.03-3.405 2.349.275 4.81 1.88 6.865 2.996l.175.098"/><path fill="#313390" fill-rule="evenodd" stroke="#313390" stroke-width=".998" d="M30.44 34.599c-.831 2.655-3.392 12.78-8.012 10.386-2.247-1.165-.44-5.02.74-6.33 1.663-1.85 4.418-2.82 6.646-3.79l.625-.266M30.44 34.591c-.83-2.655-3.392-12.78-8.012-10.386-2.247 1.165-.44 5.02.74 6.33 1.663 1.849 4.418 2.82 6.646 3.789.207.09.419.179.625.267M30.681 40.658c-.374 1.707-.451 4.266 1.035 5.513.968.811 3.473.545 2.894-1.277-.107-.334-1.271-.687-1.56-1.099-.598-.855-.512-2.454-.568-3.44-.077-1.369.068-2.818-.12-4.158-.792 1.302-1.343 2.96-1.68 4.46M30.681 28.627c-.374-1.708-.451-4.266 1.035-5.513.968-.812 3.473-.546 2.894 1.276-.107.334-1.271.687-1.56 1.1-.598.855-.512 2.453-.568 3.44-.077 1.368.068 2.816-.12 4.157-.791-1.303-1.343-2.96-1.68-4.46M34.6 36.213c1.842-.45 1.051-4.482-1.533-2.45-1.56 1.226-.378 2.115 1.533 2.45M30.4 133.533c-1.919 1.046-4.003 2.328-6.127 2.883-1.935.505-5.593.017-5.944-2.573-.34-2.499 3.147-3.62 5.03-3.4 2.349.277 4.81 1.877 6.865 2.993.058.03.118.066.175.097"/><path fill="#313390" fill-rule="evenodd" stroke="#313390" stroke-width=".998" d="M30.44 133.55c-.831 2.654-3.392 12.778-8.012 10.385-2.247-1.165-.44-5.018.74-6.33 1.663-1.848 4.418-2.82 6.646-3.789.207-.09.418-.178.625-.267M30.44 133.541c-.831-2.655-3.392-12.78-8.012-10.385-2.247 1.164-.44 5.018.74 6.329 1.663 1.849 4.417 2.821 6.646 3.79.207.09.418.178.625.266M30.681 139.608c-.374 1.708-.451 4.266 1.035 5.512.97.814 3.47.547 2.894-1.275-.107-.336-1.271-.691-1.56-1.103-.598-.855-.512-2.455-.568-3.44-.077-1.375.047-2.791-.11-4.151-.006-.002-.012-.004-.017-.008-.775 1.338-1.333 2.95-1.674 4.465M30.681 127.577c-.372-1.709-.452-4.265 1.035-5.513.968-.812 3.473-.545 2.894 1.276-.107.335-1.272.688-1.56 1.1-.598.855-.512 2.454-.568 3.44-.077 1.368.068 2.817-.12 4.158-.79-1.304-1.343-2.96-1.68-4.461M34.6 135.159c1.838-.439 1.054-4.486-1.533-2.442-1.551 1.226-.378 2.117 1.533 2.442"/><path fill="none" stroke="#313390" stroke-miterlimit="10" stroke-width=".027" d="M83.124 159.225h.027"/><path fill="#313390" fill-rule="evenodd" stroke="#313390" stroke-miterlimit="10" stroke-width=".027" d="M85.658 124.18c1.66 0 16.13-.139 16.13.137v19.142c-1.026.17-16.216-.486-16.216.035l.086-19.314"/><path fill="#fff" fill-rule="evenodd" stroke="#313390" stroke-width=".998" d="m86.666 127.714 2.017-2.355 1.008 3.533-3.025-1.178M98.765 125.359l2.015 2.355a4905.9 4905.9 0 0 1-3.025 1.178l1.01-3.533M98.828 141.783l2.017-2.356-3.025-1.178 1.008 3.534M88.683 141.85l-2.017-2.355 3.025-1.178-1.008 3.533"/><path fill="#fff" fill-rule="evenodd" stroke="#313390" stroke-width=".998" d="m93.723 124.18-1.993 6.989c-.248.867-5.108 2.06-6.072 2.435.964.376 5.824 1.568 6.072 2.436l1.993 6.988 1.994-6.988c.248-.868 5.108-2.06 6.071-2.436-.963-.375-5.823-1.568-6.071-2.435l-1.994-6.989"/><path fill="#fff" fill-rule="evenodd" stroke="#313390" stroke-miterlimit="10" stroke-width=".027" d="m143.122 127.714-.985 4.602c-.114.535-3.437 1.108-4.055 1.288.618.181 3.941.754 4.055 1.288l.985 4.603.985-4.603c.114-.534 3.438-1.107 4.055-1.288-.617-.18-3.94-.753-4.055-1.288l-.985-4.602M143.111 111.215l-.984 4.602c-.114.534-3.437 1.107-4.056 1.287.619.181 3.942.754 4.056 1.288l.984 4.603.986-4.603c.114-.534 3.438-1.107 4.056-1.288-.618-.18-3.942-.753-4.056-1.287l-.986-4.602M143.139 144.194l-.984 4.602c-.115.535-3.438 1.108-4.056 1.288.617.18 3.94.754 4.056 1.288l.984 4.603.985-4.603c.115-.534 3.438-1.107 4.056-1.288-.618-.18-3.941-.753-4.056-1.288l-.985-4.602M129.008 127.714l-.985 4.602c-.114.535-3.438 1.108-4.056 1.288.618.181 3.942.754 4.056 1.288l.985 4.603.984-4.603c.115-.534 3.438-1.107 4.056-1.288-.618-.18-3.941-.753-4.056-1.288l-.984-4.602M128.998 111.215l-.985 4.602c-.114.534-3.438 1.107-4.056 1.287.618.181 3.942.754 4.056 1.288l.985 4.603.985-4.603c.114-.534 3.437-1.107 4.055-1.288-.618-.18-3.941-.753-4.055-1.287l-.985-4.602M129.024 144.194l-.983 4.602c-.115.535-3.438 1.108-4.057 1.288.619.18 3.942.754 4.057 1.288l.983 4.603.986-4.603c.114-.534 3.438-1.107 4.056-1.288-.618-.18-3.942-.753-4.056-1.288l-.986-4.602M100.78 176.011l-.984 4.603c-.114.535-3.438 1.107-4.056 1.287.618.18 3.942.754 4.056 1.289l.984 4.601.985-4.601c.115-.535 3.438-1.108 4.056-1.289-.618-.18-3.941-.752-4.056-1.287l-.985-4.603M86.666 176.011l-.984 4.603c-.115.535-3.438 1.107-4.057 1.287.619.18 3.942.754 4.057 1.289l.984 4.601.985-4.601c.115-.535 3.438-1.108 4.056-1.289-.618-.18-3.941-.752-4.056-1.287l-.985-4.603M114.884 175.984l-.985 4.603c-.114.534-3.438 1.106-4.056 1.287.618.18 3.942.754 4.056 1.288l.985 4.602.984-4.602c.115-.534 3.438-1.107 4.057-1.288-.62-.181-3.942-.753-4.057-1.287l-.984-4.603M72.592 176.027l-.984 4.602c-.114.536-3.437 1.108-4.056 1.288.619.18 3.942.753 4.056 1.288l.984 4.602c.33-1.534.657-3.068.986-4.602.114-.535 3.437-1.107 4.055-1.288-.618-.18-3.941-.752-4.055-1.288l-.986-4.602M143.092 176.007c-.329 1.535-.657 3.068-.984 4.603-.115.535-3.439 1.107-4.058 1.288.62.18 3.943.753 4.058 1.288.327 1.533.655 3.068.984 4.601l.984-4.601c.115-.535 3.438-1.108 4.057-1.288-.619-.181-3.942-.753-4.057-1.288l-.984-4.603M128.977 176.007c-.327 1.535-.656 3.068-.984 4.603-.115.535-3.437 1.107-4.056 1.288.619.18 3.941.753 4.056 1.288l.984 4.601.986-4.601c.114-.535 3.438-1.108 4.055-1.288-.617-.181-3.94-.753-4.055-1.288l-.986-4.603M100.78 192.504a7616.32 7616.32 0 0 1-.984 4.602c-.114.534-3.438 1.107-4.056 1.287.618.18 3.942.753 4.056 1.288l.984 4.602.985-4.602c.115-.535 3.438-1.107 4.056-1.288-.618-.18-3.941-.753-4.056-1.287l-.985-4.602M86.666 192.504l-.984 4.602c-.115.534-3.438 1.107-4.057 1.287.619.18 3.942.753 4.057 1.288l.984 4.602.985-4.602c.115-.535 3.438-1.107 4.056-1.288-.618-.18-3.941-.753-4.056-1.287l-.985-4.602M114.884 192.476l-.985 4.603c-.114.534-3.438 1.106-4.056 1.287.618.18 3.942.753 4.056 1.288l.985 4.601c.329-1.533.657-3.068.984-4.6.115-.536 3.438-1.11 4.057-1.289-.62-.181-3.942-.753-4.057-1.287-.327-1.535-.655-3.07-.984-4.603M72.592 192.52l-.984 4.601c-.114.535-3.437 1.108-4.056 1.288.619.18 3.942.753 4.056 1.288l.984 4.602c.33-1.534.657-3.068.986-4.602.114-.535 3.437-1.107 4.055-1.288-.618-.18-3.941-.753-4.055-1.288l-.986-4.601M143.092 192.5l-.984 4.602c-.115.535-3.439 1.107-4.058 1.287.62.18 3.943.754 4.058 1.288l.984 4.602.984-4.602c.115-.534 3.438-1.107 4.057-1.288-.619-.18-3.942-.752-4.057-1.287l-.984-4.602M128.977 192.5l-.984 4.602c-.115.535-3.437 1.107-4.056 1.287.619.18 3.941.754 4.056 1.288l.984 4.602.986-4.602c.114-.534 3.438-1.107 4.055-1.288-.617-.18-3.94-.752-4.055-1.287l-.986-4.602M100.78 208.996l-.984 4.602c-.114.534-3.438 1.107-4.056 1.286.618.182 3.942.754 4.056 1.288l.984 4.603.985-4.603c.115-.534 3.438-1.106 4.056-1.288-.618-.179-3.941-.752-4.056-1.286l-.985-4.602M86.666 208.996l-.984 4.602c-.115.534-3.438 1.107-4.057 1.286.619.182 3.942.754 4.057 1.288l.984 4.603.985-4.603c.115-.534 3.438-1.106 4.056-1.288-.618-.179-3.941-.752-4.056-1.286-.328-1.534-.656-3.07-.985-4.602M114.884 208.968l-.985 4.603c-.114.534-3.438 1.106-4.056 1.287.618.18 3.942.752 4.056 1.287l.985 4.602.984-4.602c.115-.535 3.438-1.107 4.057-1.287-.62-.18-3.942-.753-4.057-1.287-.327-1.535-.655-3.07-.984-4.603M72.592 209.012l-.984 4.6c-.114.535-3.437 1.108-4.056 1.288.619.182 3.942.754 4.056 1.288l.984 4.603c.33-1.535.657-3.068.986-4.603.114-.534 3.437-1.106 4.055-1.288-.618-.18-3.941-.753-4.055-1.287l-.986-4.601M143.092 208.992c-.329 1.533-.657 3.068-.984 4.602-.115.534-3.439 1.107-4.058 1.287.62.18 3.943.753 4.058 1.287.327 1.535.655 3.068.984 4.603l.984-4.603c.115-.534 3.438-1.106 4.057-1.287-.619-.18-3.942-.753-4.057-1.287l-.984-4.602M128.977 208.992l-.984 4.602c-.115.534-3.437 1.107-4.056 1.287.619.18 3.941.753 4.056 1.287.328 1.535.657 3.068.984 4.603l.986-4.603c.114-.534 3.438-1.106 4.055-1.287-.617-.18-3.94-.753-4.055-1.287l-.986-4.602M100.78 160.698l-.984 4.602c-.114.535-3.438 1.107-4.056 1.288.618.18 3.942.753 4.056 1.288l.984 4.601.985-4.6c.115-.536 3.438-1.11 4.056-1.289-.618-.181-3.941-.753-4.056-1.288l-.985-4.602M86.666 160.698l-.984 4.602c-.115.535-3.438 1.107-4.057 1.288.619.18 3.942.753 4.057 1.288l.984 4.601.985-4.6c.115-.536 3.438-1.11 4.056-1.289-.618-.181-3.941-.753-4.056-1.288l-.985-4.602M114.884 160.67l-.985 4.603c-.114.534-3.438 1.107-4.056 1.287.618.18 3.942.754 4.056 1.288l.985 4.602.984-4.602c.115-.534 3.438-1.107 4.057-1.288-.62-.18-3.942-.753-4.057-1.287l-.984-4.602M72.592 160.713l-.984 4.603c-.114.535-3.437 1.107-4.056 1.287.619.18 3.942.754 4.056 1.289l.984 4.601c.33-1.533.657-3.068.986-4.601.114-.535 3.437-1.108 4.055-1.289-.618-.18-3.941-.752-4.055-1.287l-.986-4.603M143.092 160.694l-.984 4.602c-.115.535-3.439 1.107-4.058 1.288.62.18 3.943.753 4.058 1.288l.984 4.602.984-4.602c.115-.535 3.438-1.107 4.057-1.288-.619-.181-3.942-.753-4.057-1.288l-.984-4.602M128.977 160.694c-.327 1.535-.656 3.068-.984 4.602-.115.535-3.437 1.107-4.056 1.288.619.18 3.941.753 4.056 1.288l.984 4.602.986-4.602c.114-.535 3.438-1.107 4.055-1.288-.617-.181-3.94-.753-4.055-1.288l-.986-4.602M86.666 94.731l-.984 4.602c-.115.535-3.438 1.107-4.057 1.288.619.18 3.942.753 4.057 1.288l.984 4.602.985-4.602c.115-.535 3.438-1.108 4.056-1.288-.618-.18-3.941-.753-4.056-1.288l-.985-4.602M72.552 94.731l-.984 4.602c-.114.535-3.438 1.107-4.057 1.288.619.18 3.943.753 4.057 1.288l.984 4.602.985-4.602c.115-.535 3.438-1.108 4.056-1.288-.618-.18-3.941-.753-4.056-1.288l-.985-4.602M114.89 94.731l-.984 4.602c-.114.535-3.437 1.107-4.056 1.288.619.18 3.942.753 4.056 1.288l.984 4.602.986-4.602c.114-.535 3.438-1.108 4.056-1.288-.618-.18-3.942-.753-4.056-1.288l-.986-4.602M100.774 94.731l-.985 4.602c-.114.535-3.438 1.107-4.057 1.288.62.18 3.943.753 4.057 1.288l.985 4.602.985-4.602c.114-.535 3.437-1.108 4.055-1.288-.618-.18-3.941-.753-4.055-1.288l-.985-4.602M72.56 78.228l-.985 4.601c-.115.535-3.438 1.108-4.056 1.288.618.181 3.942.753 4.056 1.288l.985 4.603.984-4.603c.115-.535 3.438-1.107 4.056-1.288-.618-.18-3.941-.753-4.056-1.288l-.984-4.601M86.666 78.239l-.984 4.602c-.115.535-3.438 1.107-4.057 1.288.619.18 3.942.753 4.057 1.288l.984 4.602.985-4.602c.115-.535 3.438-1.107 4.056-1.288-.618-.18-3.941-.753-4.056-1.288l-.985-4.602M100.78 78.239l-.984 4.602c-.114.535-3.438 1.107-4.056 1.288.618.18 3.942.753 4.056 1.288l.984 4.602.985-4.602c.115-.535 3.438-1.107 4.056-1.288-.618-.18-3.941-.753-4.056-1.288l-.985-4.602M114.894 78.239l-.985 4.602c-.114.535-3.437 1.107-4.056 1.288.619.18 3.942.753 4.056 1.288l.985 4.602.985-4.602c.114-.535 3.438-1.107 4.056-1.288-.618-.18-3.942-.753-4.056-1.288l-.985-4.602M143.108 94.711c-.327 1.534-.656 3.068-.985 4.603-.114.534-3.437 1.106-4.055 1.287.618.18 3.941.753 4.056 1.288l.984 4.602.985-4.602c.114-.535 3.438-1.107 4.056-1.288-.618-.18-3.942-.753-4.056-1.287l-.985-4.603M143.122 78.239l-.985 4.602c-.114.535-3.437 1.107-4.055 1.288.618.18 3.941.753 4.055 1.288l.985 4.602.985-4.602c.114-.535 3.438-1.107 4.055-1.288-.617-.18-3.94-.753-4.055-1.288l-.985-4.602M128.995 94.711l-.985 4.603c-.114.534-3.438 1.106-4.056 1.287.618.18 3.942.753 4.056 1.288l.985 4.602.984-4.602c.115-.535 3.438-1.107 4.056-1.288-.618-.18-3.941-.753-4.056-1.287l-.984-4.603M129.008 78.239l-.985 4.602c-.114.535-3.438 1.107-4.056 1.288.618.18 3.942.753 4.056 1.288l.985 4.602.984-4.602c.115-.535 3.438-1.107 4.056-1.288-.618-.18-3.941-.753-4.056-1.288l-.984-4.602M86.666 61.747l-.984 4.603c-.115.534-3.438 1.107-4.057 1.288.619.18 3.942.752 4.057 1.287l.984 4.602.985-4.602c.115-.535 3.438-1.107 4.056-1.287-.618-.181-3.941-.754-4.056-1.288l-.985-4.603M72.552 61.747l-.984 4.603c-.114.534-3.438 1.107-4.057 1.288.619.18 3.943.752 4.057 1.287l.984 4.602.985-4.602c.115-.535 3.438-1.107 4.056-1.287-.618-.181-3.941-.754-4.056-1.288l-.985-4.603M114.89 61.747l-.984 4.603c-.114.534-3.437 1.107-4.056 1.288.619.18 3.942.752 4.056 1.287l.984 4.602.986-4.602c.114-.535 3.438-1.107 4.056-1.287-.618-.181-3.942-.754-4.056-1.288l-.986-4.603M100.774 61.747l-.985 4.603c-.114.534-3.438 1.107-4.057 1.288.62.18 3.943.752 4.057 1.287l.985 4.602.985-4.602c.114-.535 3.437-1.107 4.055-1.287-.618-.181-3.941-.754-4.055-1.288l-.985-4.603M72.56 45.244l-.985 4.602c-.114.535-3.438 1.107-4.056 1.288.618.18 3.941.753 4.056 1.287l.985 4.602.984-4.602c.115-.534 3.438-1.107 4.056-1.287-.618-.18-3.941-.753-4.056-1.288l-.984-4.602M86.666 45.256l-.984 4.602c-.115.534-3.438 1.107-4.057 1.288.619.18 3.942.753 4.057 1.287l.984 4.602.985-4.602c.115-.534 3.438-1.107 4.056-1.287-.618-.18-3.941-.754-4.056-1.288l-.985-4.602M100.78 45.256l-.984 4.602c-.114.534-3.438 1.107-4.056 1.288.618.18 3.942.753 4.056 1.287l.984 4.602.985-4.602c.115-.534 3.438-1.107 4.056-1.287-.618-.18-3.941-.754-4.056-1.288l-.985-4.602M114.894 45.256l-.985 4.602c-.114.534-3.437 1.107-4.056 1.288.619.18 3.942.753 4.056 1.287l.985 4.602.985-4.602c.114-.534 3.438-1.107 4.056-1.287-.618-.18-3.942-.754-4.056-1.288l-.985-4.602M143.108 61.728c-.327 1.534-.656 3.068-.985 4.602-.114.535-3.437 1.107-4.055 1.288.618.18 3.941.753 4.056 1.287l.984 4.602.985-4.602c.114-.534 3.438-1.107 4.056-1.287-.618-.18-3.942-.753-4.056-1.288l-.985-4.602M143.122 45.256l-.985 4.602c-.114.534-3.437 1.107-4.055 1.288.618.18 3.941.753 4.055 1.287l.985 4.602.985-4.602c.114-.534 3.438-1.107 4.055-1.287-.617-.18-3.94-.754-4.055-1.288l-.985-4.602M128.995 61.728l-.985 4.602c-.114.535-3.438 1.107-4.056 1.288.618.18 3.942.753 4.056 1.287l.985 4.602.984-4.602c.115-.534 3.438-1.107 4.056-1.287-.618-.18-3.941-.753-4.056-1.288l-.984-4.602M129.008 45.256l-.985 4.602c-.114.534-3.438 1.107-4.056 1.288.618.18 3.942.753 4.056 1.287l.985 4.602.984-4.602c.115-.534 3.438-1.107 4.056-1.287-.618-.18-3.941-.754-4.056-1.288l-.984-4.602M44.314 144.221l-.984 4.603c-.114.535-3.438 1.107-4.056 1.288.618.18 3.942.753 4.056 1.288l.984 4.602.985-4.602c.115-.535 3.438-1.107 4.056-1.288-.618-.181-3.941-.753-4.056-1.288l-.985-4.603M44.341 127.738l-.984 4.602c-.114.534-3.438 1.107-4.056 1.288.618.18 3.942.754 4.056 1.288l.984 4.602.986-4.602c.114-.534 3.437-1.108 4.055-1.288-.618-.181-3.941-.754-4.055-1.288l-.986-4.602M44.358 111.219l-.984 4.602c-.115.534-3.438 1.107-4.056 1.288.618.18 3.941.753 4.056 1.288l.984 4.602.985-4.602c.115-.535 3.438-1.108 4.056-1.288-.618-.181-3.941-.754-4.056-1.288l-.985-4.602M44.325 176.011l-.985 4.603c-.114.535-3.438 1.107-4.056 1.287.618.18 3.942.754 4.056 1.289l.985 4.601.985-4.601c.114-.535 3.437-1.108 4.055-1.289-.618-.18-3.941-.752-4.055-1.287-.33-1.535-.657-3.069-.985-4.603M44.325 192.504l-.985 4.602c-.114.534-3.438 1.107-4.056 1.287.618.18 3.942.753 4.056 1.288l.985 4.602.985-4.602c.114-.535 3.437-1.107 4.055-1.288-.618-.18-3.941-.753-4.055-1.287-.33-1.534-.657-3.068-.985-4.602M44.325 208.996l-.985 4.602c-.114.534-3.438 1.107-4.056 1.286.618.182 3.942.754 4.056 1.288l.985 4.603.985-4.603c.114-.534 3.437-1.106 4.055-1.288-.618-.179-3.941-.752-4.055-1.286-.33-1.534-.657-3.07-.985-4.602M44.325 160.698l-.985 4.602c-.114.535-3.438 1.107-4.056 1.288.618.18 3.942.753 4.056 1.288l.985 4.601.985-4.6c.114-.536 3.437-1.108 4.055-1.289-.618-.181-3.941-.753-4.055-1.288-.33-1.535-.657-3.068-.985-4.602M44.335 94.727l-.985 4.602c-.114.535-3.437 1.107-4.056 1.288.619.18 3.942.753 4.056 1.288l.985 4.602.985-4.602c.114-.535 3.437-1.108 4.056-1.288-.619-.18-3.942-.753-4.056-1.288l-.985-4.602M44.325 78.239l-.985 4.602c-.114.535-3.438 1.107-4.056 1.288.618.18 3.942.753 4.056 1.288l.985 4.602.985-4.602c.114-.535 3.437-1.107 4.055-1.288-.618-.18-3.941-.753-4.055-1.288-.33-1.534-.657-3.068-.985-4.602M44.335 61.743l-.985 4.603c-.114.534-3.437 1.107-4.056 1.288.619.18 3.942.753 4.056 1.287l.985 4.602.985-4.602c.114-.534 3.437-1.107 4.056-1.287-.619-.181-3.942-.754-4.056-1.288l-.985-4.603M44.325 45.256l-.985 4.602c-.114.534-3.438 1.107-4.056 1.288.618.18 3.942.753 4.056 1.287l.985 4.602.985-4.602c.114-.534 3.437-1.107 4.055-1.287-.618-.18-3.941-.754-4.055-1.288-.33-1.534-.657-3.068-.985-4.602M58.428 144.221l-.984 4.603c-.115.535-3.438 1.107-4.056 1.288.618.18 3.941.753 4.056 1.288l.984 4.602.985-4.602c.114-.535 3.438-1.107 4.056-1.288-.618-.181-3.942-.753-4.056-1.288l-.985-4.603M58.455 127.738l-.984 4.602c-.115.534-3.438 1.107-4.056 1.288.618.18 3.941.754 4.056 1.288l.984 4.602.985-4.602c.115-.534 3.438-1.108 4.056-1.288-.618-.181-3.941-.754-4.056-1.288l-.985-4.602M58.472 111.219l-.984 4.602c-.115.534-3.438 1.107-4.057 1.288.619.18 3.942.753 4.057 1.288l.984 4.602.985-4.602c.115-.535 3.438-1.108 4.056-1.288-.618-.181-3.941-.754-4.056-1.288l-.985-4.602M58.439 176.011l-.985 4.603c-.114.535-3.438 1.107-4.056 1.287.618.18 3.941.754 4.056 1.289l.985 4.601.984-4.601c.115-.535 3.438-1.108 4.056-1.289-.618-.18-3.941-.752-4.056-1.287l-.984-4.603M58.439 192.504l-.985 4.602c-.114.534-3.438 1.107-4.056 1.287.618.18 3.942.753 4.056 1.288l.985 4.602.984-4.602c.115-.535 3.438-1.107 4.056-1.288-.618-.18-3.941-.753-4.056-1.287l-.984-4.602M58.439 208.996l-.985 4.602c-.114.534-3.438 1.107-4.056 1.286.618.182 3.942.754 4.056 1.288l.985 4.603.984-4.603c.115-.534 3.438-1.106 4.056-1.288-.618-.179-3.941-.752-4.056-1.286l-.984-4.602M58.439 160.698l-.985 4.602c-.114.535-3.438 1.107-4.056 1.288.618.18 3.942.753 4.056 1.288l.985 4.601.984-4.6c.115-.536 3.438-1.11 4.056-1.289-.618-.181-3.941-.753-4.056-1.288l-.984-4.602M58.448 94.727l-.984 4.602c-.114.535-3.437 1.107-4.056 1.288.619.18 3.942.753 4.056 1.288l.984 4.602c.33-1.534.657-3.068.985-4.602.115-.535 3.438-1.108 4.056-1.288-.618-.18-3.941-.753-4.056-1.288l-.985-4.602M58.439 78.239l-.985 4.602c-.114.535-3.438 1.107-4.056 1.288.618.18 3.942.753 4.056 1.288l.985 4.602.984-4.602c.115-.535 3.438-1.107 4.056-1.288-.618-.18-3.941-.753-4.056-1.288l-.984-4.602M58.448 61.743l-.984 4.603c-.114.534-3.437 1.107-4.056 1.288.619.18 3.942.753 4.056 1.287l.984 4.602c.33-1.534.657-3.068.985-4.602.115-.534 3.438-1.107 4.056-1.287-.618-.181-3.941-.754-4.056-1.288l-.985-4.603M58.439 45.256l-.985 4.602c-.114.534-3.438 1.107-4.056 1.288.618.18 3.942.753 4.056 1.287l.985 4.602.984-4.602c.115-.534 3.438-1.107 4.056-1.287-.618-.18-3.941-.754-4.056-1.288l-.984-4.602"/><path fill="none" stroke="#313390" stroke-miterlimit="10" stroke-width="1.286" d="M17.861 16.395c-2.37 0-1.512 6.552-1.512 7.86v220.37c0 1.788-.671 5.6 1.939 5.6h150.329c2.769 0 2.228-2.997 2.228-5.018V25.027c0-2.085.472-4.815 0-6.865 0-3.04-8.52-1.767-10.2-1.767H17.862"/></svg>