<svg xmlns="http://www.w3.org/2000/svg" width="234" height="333"><g transform="translate(0 -719.362)"><rect width="233.244" height="332.244" x=".378" y="719.74" fill="#fff" stroke="gray" stroke-width=".756" rx="8.919" ry="8.946"/><g stroke-width="3.181"><path d="M16.402 775.116h1.605v5.586h-1.605z"/><path d="M26.026 772.445a4.735 4.735 0 0 1-1.83 6.428 4.705 4.705 0 0 1-6.41-1.837 4.726 4.726 0 0 1-.58-1.975 4.717 4.717 0 0 1-5.022 4.396 4.722 4.722 0 0 1-4.382-5.037 4.718 4.718 0 0 1 6.975-3.824 4.74 4.74 0 0 1-1.618-6.483 4.705 4.705 0 0 1 6.463-1.631 4.735 4.735 0 0 1 1.627 6.482 4.771 4.771 0 0 1-1.635 1.642 4.712 4.712 0 0 1 6.412 1.839z"/></g><g stroke-width="3.181"><path d="M215.99 996.608h1.606v-5.586h-1.605z"/><path d="M225.615 999.28a4.734 4.734 0 0 0-1.83-6.428 4.705 4.705 0 0 0-6.41 1.836 4.726 4.726 0 0 0-.58 1.976 4.717 4.717 0 0 0-5.022-4.397 4.722 4.722 0 0 0-4.382 5.037 4.718 4.718 0 0 0 6.975 3.825 4.74 4.74 0 0 0-1.619 6.482 4.705 4.705 0 0 0 6.464 1.632 4.735 4.735 0 0 0 1.627-6.483 4.771 4.771 0 0 0-1.635-1.641 4.712 4.712 0 0 0 6.412-1.84z"/></g><g stroke-width="3.181"><path d="M57.022 793.46h3.21v11.17h-3.21z"/><path d="M76.27 788.116c2.529 4.564.89 10.32-3.66 12.856-4.551 2.536-10.29.891-12.818-3.673a9.451 9.451 0 0 1-1.163-3.95c-.352 5.21-4.848 9.146-10.042 8.791-5.194-.354-9.118-4.864-8.764-10.073.353-5.21 4.85-9.145 10.043-8.791a9.543 9.543 0 0 1 3.906 1.142c-4.45-2.678-5.907-8.483-3.236-12.965 2.67-4.481 8.458-5.943 12.926-3.263 4.468 2.679 5.925 8.484 3.254 12.965a9.543 9.543 0 0 1-3.27 3.283 9.424 9.424 0 0 1 12.825 3.678z"/></g><g aria-label="J" font-family="Levenim MT" font-size="3.772" font-weight="700" letter-spacing="0" style="line-height:0%;-inkscape-font-specification:&quot;Sans Bold&quot;" word-spacing="0"><path d="M23.441 846.622q0 3.884-.405 5.634-.705 3.051-2.988 4.524-1.814 1.195-4.353 1.195-5.185 0-8.834-4.546l4.31-4.033q2.411 2.732 4.375 2.732 1.344 0 1.728-1.665.17-.725.17-2.71v-21.958h5.997z" font-size="43.703" style="line-height:1.25" transform="scale(1.13562 .88058)"/></g><g aria-label="J" font-family="Levenim MT" font-size="3.772" font-weight="700" letter-spacing="0" style="line-height:0%;-inkscape-font-specification:&quot;Sans Bold&quot;" word-spacing="0"><path d="M-182.614-1165.378q0 3.883-.406 5.633-.704 3.052-2.987 4.524-1.814 1.195-4.353 1.195-5.186 0-8.835-4.545l4.31-4.033q2.412 2.731 4.375 2.731 1.345 0 1.729-1.664.17-.726.17-2.71v-21.958h5.997z" font-size="43.703" style="line-height:1.25" transform="scale(-1.13562 -.88058)"/></g><g stroke-width="3.181"><path fill="#e2cf00" d="M63.857 1008.117c-.903 1.19-4.794-7.12-7.29-13.416-1.227-3.093-2.87-5.644-2.189-6.456 1.787-1.667 6.406-.168 9.762 2.219 3.588 2.551 6.117 6.3 6.117 6.3zm-31.488-6.193-.102-4.634c3.097-2.57 7.516-6.28 12.019-11.077l-11.666.054-.91-4.03.126-176.062s12.772 12.256 13.1 12.26c.192.003-.082 73.098-.08 121.977.105.23-6.74.078-7.194 3.276-.3 2.113 7.423 1.83 7.544 1.972-.047 21.97-.398 37.743-.233 37.744 5.863.007 7.094.224 7.094.224-6.623 6.31-13.503 11.47-19.698 18.296zm41.711-22.57c-1.029-1.897-2.66-9.19-3.917-9.018-5.77 1.76-7.618-6.105-1.649-6.502 2.261-.15 4.781 2.572 6.192 5.959.678 1.774-.035 10.272-.626 9.561zm1.316-10.933c-1.698-2.567-3.313-11.945-6.414-11.418-2.831.592-4.64-1.7-4.361-3.706 1.46-5.633 11.823-.267 14.543 1.034-1.352 2.828-3.268 9.88-3.768 14.09zm-21.715-25.743c-.74-.282 1.157-3.109 1.18-6.367.028-3.695-1.788-7.776-1.572-8.369 6.795-4.91 16.03-10.198 17.704-7.38 1.709 11.989.807 18.65-1.142 27.596l-1.28.616s-2.143-.375-3.734-1.135l-8.353-3.894Zm109.297-90.336c-1.244-9.234-.31-23.599 1.48-29.281.688-1.923 13.6 6.052 14.632 6.646.966.557 1.432.474.844 2.901-.68 2.804-.578 6.104.372 9.862.355 1.403.631 1.948-.322 2.562-.99.638-16.679 8.243-17.006 7.31zm-6.079-38.324c.269-.592 1.346-7.502 1.676-7.528 1.084-.085 2.662 6.772 5.42 9.037 5.214-.55 5.82 2.713 4.799 4.289.252.692-1.686 2.194-3.494 2.048-4.493-1.627-10.552-3.069-8.4-7.846zm-69.72-5.713c-1.468-.958 1.33-7.843 9.266-6.253 3.422-5.939 3.628-19.34 5.28-20.17 2.485-.844 27.82-7.311 27.058-1.648-.818 6.08-2.167 35.375-11.714 42.561-.96 1.05 15.076 11.104 15.076 11.104s16.941-9.721 15.974-9.578c-.418.104-.759 8.287-1.025 21.52-.257 12.772 1.752 21.918 5.941 35.432-.537 1.635 3.209 9.81 7.398 17.917 4.75 9.193 11.184 18.475 11.184 18.475-11.076-3.463-21.258-2.132-33.677-6.092l-.672 45.402s6.426 3.11 7.665 4.54c.605.698.672 1.67.74 2.55.263 3.428-2.878 7.502-8.839 6.151-1.878 6.044-4.58 20.263-4.682 20.257-9.105 1.121-18.332 2.328-27.552 1.861 0 0 1.385-4.565 1.923-11.431.197-2.502.337-5.195.658-8.06 1.182-10.552 4.557-22.074 9.981-22.807-1.07.39-13.747-9.742-15.477-10.468-7.14 3.433-16.524 9.195-16.524 9.195s1.248-8.36 1.316-17.124c.072-9.395-.632-19.78-.948-22.481-2.439-15.484-9.261-29.582-14.773-40.132-2.215-4.239-5.528-11.02-5.528-11.02 8.15-.858 17.379-.435 31.774 3.558 0 0-.745-45.823-.751-45.568.13.408-3.699-1.463-7.206-3.529-1.88-1.106-1.682-4.042-1.865-4.162zm71.888-10.185c.06-.466.299-5.641.299-5.641 2.251 2.445 4.058 9.61 4.507 9.49 0 0 2.896-.417 3.795.47 2.933 2.892.04 6.299-2.893 5.657-2.919-.696-6.122-5.315-5.708-9.976zm29.726 155.391s-.653-80.866-.58-121.596c3.141-.47 6.39 1.465 9.337-2.662-1.552-2.982-5.994-2.08-9.334-2.686l.023-37.553s-5.572-.096-5.577-.434c-.004-.31 2.876-2.81 8.326-8.063.656-.632 1.768-1.728 2.472-2.435 2.75-2.765 7.12-7.37 7.326-7.183 1.71 1.345 1.529 3.527-6.43 10.342-5.8 4.966-6.022 4.634.386 4.558 6.11-.096 6.888-.564 6.028 1.468.011.83.709 1.48.544 1.609-.178.14-.21 176.668-.21 176.668zm-18.4-188.367c.041.104.842.386 1.703 1.269 3.515 5.337 5.333 12.097 8.094 16.761-5.735 2.348-13.679-2.888-15.59-7.46-2.322-5.757 4.506-13.742 5.792-10.57z"/><path fill="#131f67" d="m30.386 757.488.186 256.833 173.042-.052-.382-256.866Zm57.33 53.962c.234.414.618 1.01.618 1.01s-.418.1-.71.275c-20.072 6.837-41.79 22.098-42.166 22.547l.407-16.92-13.435-12.944.117-45.853 52.172.063 15.267 23.673c-.928 6.196-3.328 18.188-3.328 18.188-1.404-.315-6.141-.733-8.705 2.658-1.224 1.617-1.879 3.822-.237 7.303zm97.737 52.891 1.985-2.318-3.494.143 2.403-2.402-3.866-.087 3.018-2.363-4.068-.049 3.027-2.324-4.454.18 3.194-2.527-4.402.012 3.287-2.544-4.307-.06 2.802-2.284-3.76-.046 4.253-2.753c1.814.735 4.249 1.154 6.697 1.205l.025 18.572zm3.093-32.2c9.935.043 12.066-4.861.06-5.657 0 0-.905-24.354-.62-34.434.004-1.23.13-2.614.13-2.614l-6.539-.162s17.558-17.478 19.212-18.899c1.415 58.822 1.155 195.39 1.155 195.39l-13.38-12.409-.093-38.615c-4.478-4.206-7.038-10.335-9.702-14.306l-7.321-3.3 1.73-5.44-.735-1.549-2.298 7.698 8.01 3.53.846 1.595-1.36 7.253 7.582 2.415 1.311 1.67-.485 7.085 1.569.446.013 1.404-1.574-.125-.574 7.954 2.141.584-.008 1.797c-.002-.032-1.247.005-1.86-.045-.845-.424-2.236-2.102-2.236-2.102l.77-8.833-9.613-1.793-.714-.937 1.78-8.827-10.09-2.867c1.032 2.358 2.403 4.564 3.543 6.886-1.387.37-2.835.451-4.239.727-.395 11.928.025 24.34-.393 35.558-8.126.533-4.312-.178-7.846-.132-1.383-.002-2.506 1.034-2.507 2.313-.001.817.455 1.535 1.147 1.949l-1.401.461-2.445-2.565 5.123-4.53-.029-1.305-6.362 5.867 2.746 2.939-1.637.782-2.506-2.446s-5.409 5.104-5.073 5.197c.168.047.467.305.67.568 3.835 7.682-1.419 11.343-7.759 9.211-1.623 7.064-3.17 13.438-4.448 20.754-4.743 1.65-27.038 2.58-27.284 2.199 0 0-.563-.5-.587-.747.101-.327-.64.68-.64.68 0 .436-19.433-.471-29.015-2.172 0 0-.195-.85-.114-1.97.16-2.25-.028-2.228 2.185-1.898 4.52.285 8.028-1.144 9.427-4.82.784-2.058.42-3.914-.763-9.425-1.15-5.352-1.164-4.776-1.025-5.499.162-.848 1.155-1.794 2.58-2.86 1.074-.805 1.184-2.325.319-1.485-.596.801-1.641 1.086-2.578 1.533-2.201 1.062-2.13 2.089-.838 6.484.607 2.063 1.241 4.285 1.262 4.544.064.808-.25.477-1.559-.356-.838-.569-1.805-1.038-2.666-1.506-2.63-1.301-1.466.121 1.066 1.683 1.99 1.368 2.319 1.957.601 1.301-1.77-.671-4.313-.385-6.303.304-.39.202-.678.178-.74-.152-.088-.515.254-1.807.405-4.792.383-7.55 2.317-15.596 7.756-20.24 7.785-6.648 20.557-2.115 27.638 4.061l.768-1.077c-4.754-3.7-12.997-8.317-21.033-7.432 3.363-2.586 10.78-6.869 10.78-6.869 5.077 3.414 8.82 6.819 14.394 10.515l.972-.594-15.329-11.268-16.544 10.058s.7-9.667.964-13.201l-7.18 5.852 5.52 7.58-5.87 5.57s.99-.128-.095 1.592c-1.655 3.093-2.659 8.078-3.428 13.14.143 3.783-.87 7.966-1.187 11.297-.538-3.121-1.176-4.761-2.422-7.595-1.143-2.73-1.591-2.71-2.886-2.313-7.014.536-3.822-11.97 4.454-3.778.364.348.963.773.99.692.174-.502-2.19-7.094-3.105-8.614-.967-1.606-.975-1.833-2.415-1.697-2.696.253-3.608-.635-3.877-3.26.366-4.959 6.168-2.856 9.884-1.327.336.239-1.742-1.754-2.486-2.456-1.01-.955-1.173-1.566-1.173-1.566l.223-2.633 5.696-4.795-4.668-6.391.198-2.283 5.006-5.538-5.318-5.353-.064-1.905 4.337-5.321-5.795-4.308-.28-1.717s3.734-6.366 3.634-6.598c-.084-.195-6.28-4.163-6.28-4.163l-.62-2.68 2.703-6.799-6.441-3.41-1.176-3.074 1.823-6.299-6.682-2.863-1.901-3.552 1.251-6.62-7.49-2.06-1.984-2.915.268-5.823-1.834-.177.027-1.436 2.045.016s-.159-.214.07-3.09c.391-4.892.427-4.704-.836-4.908-2.66-.431-2.048-1.942.672-1.658.418.043.77.076 1.068.128.716.126 1.267.985 1.267.985l-.611 9.032 9.582 1.491.908 1.136-1.617 8.368 8.993 2.417 1.208 2.03-2.563 8.703 9.063 3.697.595 1.618-3.86 7.723 8.327 3.754.519 1.853-4.637 7.964 9.595 6.472s-.256-.632-.637-1.688l-7.609-5.038 3.87-6.797s.306.497.632.393a37.929 37.929 0 0 1-.43-3.394l-3.917-9.477 12.728-7.892c-5.444-3.04-12.32-2.947-18.63-4.092 0 0-.275-.813-.749-1.542-1.833-2.726-3.48-6.191-5.524-9.766 1.511-.657 2.164-.571 3.786-.862 0 0 4.129-23.727 7.354-35.32 0 0 .494.138.736.145 1.56.001 2.823-1.168 2.825-2.61.001-.789-.378-1.494-.973-1.973.35-.091.719-.182 1.11-.268.515-.006 2.598 2.126 2.598 2.126l-5.369 4.88-.033 1.617c2.142-2.057 6.849-6.496 6.849-6.496l-2.828-2.754 1.401-.603 2.292 2.338 5.154-4.886 1.318.833c-1.737 2.104-2.867 2.788-5.467 5.273 1.354 1.485 6.6 6.172 6.6 6.172l-.013-1.617-5.17-4.648 5.04-4.64.292-.307s3.995 1.603 4.249 1.6c-1.697-1.295-4.747-2.406-6.403-3.526-7.506-4.105-.359-12.57 6.566-10.457.197.683 3.846-17.871 3.44-18.895.37-2.873.45-2.468-.625-4.115-3.215-6.877-12.608-19.896-12.608-19.896l84.682-.398c-.883 1.589-1.775 2.878-2.446 4.734 0 0 4.752 4.59 6.484 10.618.967 3.364 2.358 6.513 4.802 8.755.038.08-.087.18-.236.274-6.698 2.173-14.322-3.118-16.658-9.147l-3.85 5.787c1.735.183-25.569-2.897-32.27-2.135.594.109 1.294.565.896 2.303-.686 2.995-1.916 13.823-1.916 13.823-1.361 10.535-2.418 23.774-9.944 28.143 0 0 1.15 1.135 2.143 1.715.024-.015-.884-.866-.914-.965.006-.307.194-.5.415-.662 1.595-1.192 3.541-3.664 3.471-3.73 6.199 4.99 15.903 9.293 21.76 7.519 2.31-.445 3.337-2.503 4.56-.832-1.603 9.063-1.51 19.033-.902 26.866.933 17.456 5.087 27.464 9.199 39.835-2.125.69-13.034 7.434-13.034 7.434-.067.86 13.144 3.68 18.329 3.19 0 0 1.065.961 1.07.758a8.722 8.722 0 0 1-.103-.189c.77-.395 1.29-1.154 1.291-2.026.002-1.279-1.113-2.317-2.496-2.32-.26 0-.51.037-.746.104a344.796 344.796 0 0 1-1.203-2.771l7.336 2.963-2.403 7.422.8 1.65 2.933-9.666-9.364-3.722-.631-1.717 3.895-7.33-8.372-4.6-.35-1.461 4.52-7.87-8.104-5.77 5.944-7.084-7.296-5.68.083-.94 6.061-6.436-6.248-5.954-.17-2.406 6.826-5.597-5.877-7.915c2.456-1.521 3.83-3.259 5.44-4.99l1.436.584-5.234 3.656 5.576 7.47 5.9-4.913-3.187-4.82 1.946.82 1.78 2.583-.295 2.637-5.829 4.895 4.995 6.708.04 1.229s-3.117 3.303-5.386 5.76l6.334 6.478-5.197 6.115 6.52 5.146-.182-1.541-4.81-3.764 3.702-4.136c.268-2.495-.311-6.778 1.07-8.656-2.225-2.019-1.054-6.875.043-8.448-2.125-2.333-.901-7.446.457-7.66-1.622-1.885-.97-5.702.39-6.942.434-.214-5.799-2.301-9.728-4.804 3.28-5.628 2.525-10.928 3.56-12.836 1.41 3.78 3.217 7.802 4.779 10.697.165.3.513.233 1.032.242 6.504.544 5.877 5.5.998 6.765 0 0 9.91 6.842 14.935 7.605.052.121.014.282-.155.605-.715 1.363-1.13 3.722-1.24 5.798-.366 3.088 1.242 7.828 1.242 7.828l-2.062 1.175c-.412 1.63-2.714 1.661-2.938 2.823.48 4.99 10.991 24.114 13.213 26.276.863-13.635-.727-28.44.098-42.048zm-2.454 34.772 1.71-1.296-.044 2.064zm1.663 3.163-.86-.594.868-.889zm-106.018 24.21c.16.94.347 1.872.554 2.785-1.213.292-2.108 1.309-2.11 2.521-.001 1.442 1.264 2.616 2.823 2.617.223 0 .436-.03.644-.074.442 1.44.867 2.68 1.196 3.593l.572.38c-1.538-4.974 1.46-7.644-2.958-11.778-.065-.207-.39-.15-.72-.044zm91.508-134.718 27.56.2-.014 9.405-21.267 20.855 8.188.103-.138 35.813c-2.246.86-4.388 2.195-6.46 3.485l-12.907-6.623-.93-.44s.357-.094 1.115-.552c1.462-.884 2.023-3.06 1.361-4.697-1.081-2.676-3.323-2.196-5.19-2.204-1.55-1.11-2.87-4.816-3.956-7.289-.502-1.074-.981-1.897-1.106-2.52-.115-.576-.11-1.08-.11-1.08s.251.073.617.768c2.052 4.01 6.857 5.954 9.417 2.167 1.298-2.322.408-4.977-1.766-5.722-.665-.228-2.929.01-2.929.01-.132.074-1.638-1.968-3.76-8.677-.87-2.77-1.092-8.78-.257-9.642 1.414-1.583 1.78-3.807 2.978-5.404.543-1.003.514-.377 1.363.744 2.896 3.82 7.99 6.785 12.657 6.604 3.314-.128 4.338-1.172 3.556-2.056-1.816-1.72-3.002-4.132-3.595-6.244-1.382-4.915-2.847-9.3-6.575-13.124zm-14.024 23.315c.348.305.072.774.008 1.622-.163 2.153-.214 2.178-1.551 1.633-2.567-1.044-6.199-.138-8.391 2.056-2.765 2.766-2.857 5.617-1.14 11.248 1.96 6.333 1.911 7.168-.452 8.46-1.422 1.116-2.88 3.459-2.336 3.452.076 0 .273-.141.435-.311.162-.17 1.46-1.134 2.461-1.765 2.745-1.731 3.604-2.616 2.35-5.82-1.24-3.163-2.237-6.254-1.72-6.445.249-.091 1.193.939 1.778 1.25 1.198.638 3.725 1.817 4.035 1.815.428-.002-.029-.287-1.26-1.036-3.298-2.008-4.647-3.825-1.464-2.673 1.705.617 3.51.26 4.529-.046 1.187-.358 1.807-.719 1.932-.305.17 1.95.002 3.958-.13 5.917-.04.126-.202 1.46-.363 2.959-.61 5.695-1.668 10.492-4.379 13.579-9.07 10.33-19.37 7.303-30.933-.988 4.333-11.054 4.047-19.675 5.119-23.182 1-.277 2.17.267 2.897.646 1.611.85 3.445 1.362 5.207 1.453 1.64.084 1.925-.131 1.778.319-.114.346-2.759 1.06-4.377 1.37-2.946.563-2.731 1.193-.251.989 2.609-.215 5.129-1.17 7.803-2.81 1.852-1.135 1.92-1.136 1.424-2.564-.119-.344-.369-.859.513-1.158.915-.31.786-.655.267-1.04-.127-.093-.455-.116-.587-.213-.165-.12.013-.655.01-.727-3.364-2.64-9.305-2.71-14.19-.011-.244-.082-.498-.435-.258-.919.515-1.038 5.77-2.277 9.5-2.328 1.701-.023 2.033.177 4.594.904 1.053.298 1.642.377 1.738.229.218-.337-.16-1.34-.969-1.878-2.733-1.816-6.715-1.677-12.155.311-2.912 1.065-2.609 1.431-1.661-3.877.263-1.473.565-2.598.565-2.598s25.441.868 29.623 2.483zm-3.922 4.982c1.345.01 2.574.323 3.29.968 1.046 1.074-.054 1.407-1.719.82-2.129-.75-4.552-.327-6.431.75-1.206.69-1.464.319-.449-.672 1.23-1.2 3.344-1.88 5.309-1.866zm-19.35 1.825c2.346-.012 4.494.38 5.376 1.297.804.837.028.921-1.984.191-2.833-1.028-6.613-.708-9.733.721-1.604.735-2.096.884-1.881.045.942-1.358 4.794-2.237 8.222-2.254zm18.763.699c2.236.007 4.134.483 3.78 1.564-.126.385-.236.152-1.834-.305-1.596-.456-3.639-.287-5.69.263-1.913.513-2.28.63-1.42-.134 1.044-.929 3.192-1.395 5.164-1.388zm4.552 1.044c2.259 3.228 2.652 7.959 5.057 10.523 4.456-.76 6.558 3.116 2.806 5.69-1.907.977-4.23.237-5.934-2.351-1.625-2.466-2.072-3.958-2.122-5.522.152-3.283-.046-5.041.193-8.34zm-26.085 1.449.987.11c.713 2.246 2.316 2.383 3.281.032l.746.114c-1.137 2.882-3.981 2.998-5.014-.256zm-1.528.04c.411-.02.753.38.934.91.382 1.194-.054 1.043-.946.537-.904-.51-1.598-.847-1.077-1.05.39-.193.696-.322 1.089-.396zm8.474.777c.34.39.416.69-.022.973-.43.208-.746.339-1.161.476-.398.111-.642.023-.475-.506.105-.454.415-1.102.646-1.356.386-.064.8.19 1.012.413zm11.966-.26.782.053c.817 2.054 2.734 1.997 3.475.217l.7-.004c-1.324 3.177-4.008 2.6-4.957-.266zm-1.411.267c.75 0 1.478 1 1.066 1.51-.416.32-2.264-.047-2.427-.68-.064-.38.611-.83 1.36-.83zm7.237.203c.363.08.338.333.347.374.19.84-.897 1.133-1.14.812-.135-.177.438-.849.793-1.186zm-17.235 8.97c-1.832.471-2.685 1.932-2.572 3.565.091 1.32.832 2.397 1.916 2.625 2.185.46 3.698-.947 5.931-1.514.965-.232.741-1.383.125-1.883-.793-.643-2.01-.244-3.645.91-3.206 2.263-3.97-2.098-1.05-2.865.454-.118.247-1.084-.705-.839zM45.816 903.172l1.245.333-1.246 1.362s.007-1.178 0-1.695zm3.463 4.668-2.57 2.666 3.487-.239-2.368 2.269 3.627.14-2.67 2.546 3.566-.062-2.64 2.458 3.365.093-2.227 2.25 3.702-.258-2.706 2.692 3.966-.06-3.01 2.51 3.956-.021-1.19 1.25 1.053.49c1.077-.462 7.282-2.239 7.49-3.581-1.37-.342-5.406 1.551-5.672 1.236-1.609-6.598-8.562-21.195-13.157-25.455l-.372 41.26c-.109.094-.236.13-.362.186-.688.302-1.584.123-2.19.348-2.333-.115-6.235 3.485-4.2 4.202 1.065.219 6.96 1.16 6.975 1.431.706 11.95-.48 23.961.04 36.717 1.649.228 7.038.519 7.038.519s-19.794 19.049-20.18 18.664c.49-20.441.304-60.404-.084-60.553.005-1.198.463-3.723.463-3.723l-.247-127.133s-.114-.569-.351-.932c-.405-.62-.434-.78-.461-2.685-.156-1.178.027-1.484.027-1.484l13.505 13.223.108 36.934s12.629 17.511 15.563 25.585c6.442 12.023 5.718 29.533 9.625 36.24.082.001.16-.002.24-.008.094.977.105 1.37.259 1.523.29 2.185.606 5.171.606 5.171l-1.419 2.078 1.577 1.874.002 4.991-2.108 1.978 1.924 2.262-.544 4.66-1.504 1.236.852 1.065s.139 1.679-.205 3.601c-.233 1.306-1.625 1.128-4.518-.237-4.1-1.443-8.295-4.02-11.533-5.965.197-2.426 3.455-7.955-1.059-14.063-1.67-1.16-6.525-.74-6.95-.916l.065-18.794m-.004-2.17 2.19-.351-2.212 2.042zm104.35-93.696c-.179.02-.403.173-.69.472-.304.316-.79.229-2.02.159-1.317-.076-1.652-.043-2.52.247-.99.33-1.012.33-1.698.06-1.072-.424-1.743-.474-2.729-.217-1.21.316-1.974.229-2.719-.112-.755-.344-.994-.275-1.258.358-.11.266-.648 1.298-.897 1.649-.808 1.14-.613 1.33 1.078.852 1.162-.33 3.303-.536 4.896.076 1.211.466 2.655.32 4.381-.372 1.515-.607 3.008-.799 4.457.331.844.658.8.16.584-1.2-.24-1.52-.408-2.35-.865-2.303zm-57.393 4.729c-1.56-.002-2.828 1.163-2.83 2.605-.002 1.442 1.263 2.616 2.823 2.617.739-.567 1.128-5.116.007-5.222zm54.549.086c-1.72.539-4.083 1.259-6.743.534-2.09-.593-1.591.86.679 1.045 1.578.129 1.471.128.238 1.192-1.038.896.261.832.971.275.838-.657 3.11-.484 4.39.057.563.238.626-.747-.044-.964-1.687-.547-1.282-.588.56-1.14.682-.142.71-1.237-.052-.999zm-54.55.788c.892.311.33 3.339-.005 3.474-1.038-.002-1.88-.782-1.879-1.742.002-.959.846-1.733 1.883-1.732zm-15.069.09c.721-.226 1.226.881 1.224 1.628-.001.96-.841 1.738-1.878 1.737-1.266-1.146-1.496-2.422-.027-3.139.212-.074.439-.15.681-.226zm7.423 2.567-6.044 5.636 5.916 5.556 5.942-5.665zm71.496 2.322c.864 0 1.563.653 1.562 1.453-.001.8-.702 1.445-1.566 1.444-.865 0-1.569-.649-1.567-1.448 0-.8.706-1.45 1.57-1.45zm-71.553 1.809c.865 0 1.564.653 1.562 1.452 0 .8-.701 1.446-1.566 1.445-.864-.001-1.563-.649-1.562-1.448.001-.8.702-1.45 1.566-1.45zm64.162 1.462 4.317 5.389-5.307 4.39.275-2.732c1.169-.195 2.056-1.143 2.058-2.28.001-.989-.667-1.83-1.607-2.163zm-72.01.21-.063 1.466 5.441 4.998-5.4 5.169.044 1.432 6.721-6.6zm15.4.024-6.669 6.312 6.416 6.497.084-1.645-5.038-4.827 5.15-4.716zm96.11 1.128c1.356 0 2.517.412 2.87 1.232.278.461.426.86.832 1.032.791.336 1.865.106 1.917-.14.093 0-1.262-.121-1.492-.313-1.059-.884-.879-1.44.625-1.328.485.02 1.839.041 1.869.531.298 1.69-2.133 2.924-5.242 2.693-2.216-.341-2.227.45-2.384 1.543-.098.36-.44.94-.717 1.398-.786 1.3-1.045 1.117-.498 1.62.529.64 1.214 1.436 1.203 2.181l-.034 6.852s-4.651-.024-6.267-1.107c-1.689-2.859-2.831-9.02-.34-12.398.87-1.013 2.145-1.495 3.613-2.567 1.13-.827 2.688-1.229 4.044-1.23zm-26.3.739-.171 1.98c-1.182.184-2.087 1.13-2.09 2.276 0 1.015.71 1.876 1.695 2.19l-.15 1.72-3.445-4.584zm-13.547 1.32c.51.264.852.765.852 1.344-.001.68-.475 1.26-1.137 1.464zm-71.975.637c-2.39 1.144-1.574 5.59-.008 5.223 1.56.001 2.823-1.169 2.825-2.61.002-1.443-1.258-2.611-2.818-2.613zm15.59.085c-1.56-.002-2.829 1.164-2.83 2.606-.002 1.442 1.263 2.615 2.822 2.617 2.074-.601.907-5.137.008-5.223zm69.688.746-.25 2.85c-.548-.253-.924-.777-.923-1.381.001-.692.494-1.275 1.173-1.469zm-85.28.043c1.038.002 1.875.778 1.874 1.737-.002.96-.841 1.739-1.878 1.737-.619.112-1.007-3.175.005-3.474zm15.59.085c1.258.096.21 3.054-.005 3.474-1.037-.001-1.88-.782-1.878-1.741.001-.96.846-1.734 1.883-1.733zm63.323 1.727-6.238 5.735 6.145 6.28 5.13-5.751zm-70.86 1.006-5.984 5.683 5.64 5.405 5.969-5.811zm-39.271 3.067 2.18 2.144-2.255.016zm109.64.345c.864.001 1.563.654 1.562 1.453-.001.8-.702 1.446-1.566 1.445-.865-.001-1.564-.649-1.563-1.448.001-.8.702-1.45 1.567-1.45zm-70.406.7c.864 0 1.568.649 1.567 1.448-.001.8-.707 1.45-1.571 1.45-.865-.002-1.564-.654-1.562-1.454 0-.8.7-1.445 1.566-1.444zm7.72 1.701-6.612 6.302 6.37 6.29.089-1.489-5.105-4.761 5.19-4.9zm-15.528-.01.064 1.598 5.294 4.866-5.579 5.173.223 1.395 6.859-6.543zm71.282 1.817 4.773 4.401-4.771 4.9-.002-2.547c.982-.313 1.689-1.177 1.69-2.191.002-1.016-.705-1.873-1.689-2.186zm13.177.243.048 1.796c-1.074.26-1.872 1.158-1.874 2.233-.001 1.118.857 2.052 1.996 2.271l.038 1.423-3.777-3.861zm-110.49.674s1.593 1.575 2.133 2.22a2.48 2.48 0 0 0-.687 1.69c-.002 1.443 1.263 2.616 2.823 2.618.449 0 .87-.1 1.247-.273.29.399 1.562 2.03 1.562 2.03l-7.513-1.125zm41.518 1.095c-1.559-.002-2.828 1.164-2.83 2.606-.001 1.442 1.264 2.615 2.823 2.617 2.837-.53 2.284-5.095.008-5.223zm-15.733.08c-1.56-.001-2.828 1.164-2.83 2.606-.002 1.442 1.263 2.615 2.823 2.617 1.56.002 2.823-1.168 2.825-2.61.002-1.442-1.258-2.611-2.818-2.613zm84.773.75.082 2.898c-.662-.205-1.138-.786-1.137-1.467 0-.65.437-1.206 1.055-1.43zm-69.04.044c1.825.618 1.264 3.591-.006 3.474-1.037-.001-1.88-.782-1.878-1.741.001-.96.846-1.734 1.883-1.733zm-15.734.08c1.038.002 1.875.778 1.874 1.738-.002.959-.841 1.738-1.879 1.737-1.037-.002-1.88-.783-1.878-1.742.001-.96.846-1.734 1.883-1.732zm71.53.253c.508.263.852.764.851 1.343-.001.577-.343 1.082-.85 1.346zm-94.589.627 2.194 2.617c-.202.069-.42.108-.649.108-1.037-.002-1.88-.783-1.878-1.742 0-.366.123-.703.333-.983zm101.706 1.31-5.17 5.732 6.335 5.211 4.505-5.146zm-70.55.604-6.34 5.939 4.466 4.302-2.474-.254-3.573-3.379-.083 1.12 1.944 2.063-2.078-.068.362.893c5.13.14 10.008 1.542 14.983 2.46l.305-.619-1.844-.44 1.745-1.926-.018-1.465-3.02 2.984-1.022-.22 4.279-4.068-.285-1.244-5.261 4.966-1.528-.323 5.349-5.032zm70.805 3.508c.864.001 1.563.649 1.562 1.448-.001.8-.702 1.446-1.566 1.445-.865-.001-1.569-.649-1.568-1.448.001-.8.707-1.446 1.572-1.445zm-71.025.666c.865 0 1.563.649 1.562 1.448 0 .8-.701 1.446-1.566 1.444-.864 0-1.563-.648-1.562-1.448.001-.8.702-1.445 1.566-1.444zm-35.474.373s-.412 4.757-.644 7.046l8.181 2.033 1.028-7.599zm-3.568.355 1.14.039-.15 4.386-1.153-1.05zm15.137 1.942s.822 1.223 1.76 2.573a2.499 2.499 0 0 0-.82 1.833c-.002 1.442 1.262 2.615 2.823 2.617.286 0 .562-.039.823-.112.367.643 1.05 1.665 1.05 1.665l-7.01-1.909zm87.799.593 5.499 4.152-4.285 4.863-.284-2.09c.966-.32 1.658-1.173 1.66-2.176.001-1.204-.992-2.192-2.262-2.305zm-95.231-.045c.864.001 1.563.65 1.562 1.449-.001.8-.702 1.45-1.567 1.449-.864-.001-1.568-.654-1.567-1.453.001-.8.707-1.446 1.572-1.445zm110.033.592c-1.383-.001-2.512 1.03-2.513 2.308-.002 1.28 1.123 2.323 2.506 2.324.546.372.703-3.976.007-4.632zm-.001.775c.147.69.325 3.245-.005 3.082-.92 0-1.67-.697-1.669-1.548.001-.85.754-1.535 1.674-1.534zm-100.31 1.42a71.124 71.124 0 0 1 1.822 2.786c-.113.02-.229.028-.348.028-1.037-.002-1.88-.783-1.879-1.742.001-.406.152-.777.406-1.072zm85.944.5c.753.149 1.318.765 1.316 1.506 0 .603-.38 1.126-.927 1.379zm7.456 1.366-4.66 5.766 7.052 5.1 4.006-6.31zm-106.184 2.221 5.258 1.43-.999 4.975c-.083-.29-.376-.816-.77-1.443.227-.375.36-.805.36-1.266.002-1.442-1.258-2.61-2.818-2.612-.075 0-.15.004-.225.008-.468-.64-.806-1.092-.806-1.092zm7.794 1.22-1.724 7.933 7.908 2.955 1.94-8.383zm99.284.181c.864.001 1.563.649 1.562 1.448 0 .8-.702 1.446-1.566 1.445-.865-.001-1.568-.65-1.567-1.449 0-.799.706-1.445 1.571-1.444zm-105.608.605c.824.184 1.435.87 1.434 1.689 0 .108-.016.214-.036.317a81.046 81.046 0 0 0-1.398-2.006zm112.322.352-4.252 7.384 7.204 4.665-.492-1.58-5.152-3.504 3.006-5.079zm-102.492 2.548c.865 0 1.563.653 1.562 1.453 0 .8-.701 1.445-1.566 1.444-.864 0-1.563-.649-1.562-1.448 0-.8.702-1.45 1.566-1.45zm7.467.746 1.678 2.71c-.695.475-1.147 1.234-1.148 2.093-.002 1.442 1.263 2.615 2.823 2.617.233 0 .458-.03.675-.08l1.213 2.39-7.341-2.983zm96.657.14c-.658-.141-1.29.247-1.74.648a2.23 2.23 0 0 0-.768 1.666c-.001 1.279 1.118 2.317 2.501 2.319 1.892-.421.882-4.443.007-4.632zm-15.197.62 5.964 3.954-3.494 6.216s-.349-1.257-.789-2.945c.85-.37 1.438-1.167 1.44-2.092.001-1.28-1.118-2.318-2.502-2.32h-.03a61.655 61.655 0 0 1-.59-2.813zm15.196.156c1.037.294.682 2.983-.004 3.082-.91.13-1.666-.692-1.665-1.543.001-.851.749-1.54 1.669-1.54zm-94.565 2.608 1.524 3.003c-.085.011-.173.019-.261.019-1.037-.002-1.88-.783-1.879-1.742.001-.507.24-.963.616-1.28zm80.146.834c.847.074 1.507.731 1.505 1.534 0 .557-.325 1.042-.804 1.313-.23-.898-.47-1.876-.701-2.847zm7.875.8-4.1 7.467 7.55 4.268 3.485-7.223zm-101.167 1.314 4.654 1.962-1.32 4.442-.566-1.088a2.46 2.46 0 0 0 .441-1.39c.002-1.347-1.1-2.456-2.516-2.597zm7.352 2.117-2.295 7.47 7.253 3.501 3.323-7.516zm-6.113.262c.609.287 1.026.87 1.025 1.546 0 .119-.017.234-.042.345zm101.266.727c.865.001 1.569.654 1.568 1.453-.001.8-.706 1.446-1.572 1.445-.864-.001-1.563-.65-1.562-1.449.001-.8.702-1.45 1.566-1.449zm6.895.421-3.476 7.817 7.95 4.069-.596-1.427-5.877-3.146 2.53-5.657zm-99.14 2.488c.865 0 1.563.649 1.562 1.448 0 .8-.701 1.446-1.566 1.445-.865-.001-1.563-.65-1.562-1.449.001-.8.702-1.445 1.566-1.444zm101.634 1.28c-1.383 0-2.506 1.035-2.508 2.314-.001 1.279 1.12 2.365 2.502 2.319 2.514-.05 1.239-4.65.007-4.632zm-93.856.147c.475.797.831 1.63 1.157 2.483-.75.468-1.244 1.26-1.246 2.159-.001 1.39 1.174 2.53 2.655 2.612.056.003.317.038.317.038l.447 1.575-6.242-3.038c.879-2.174 1.63-3.68 2.912-5.829zm93.855.63c.73.283.923 2.995-.004 3.08-.92 0-1.665-.691-1.664-1.542 0-.85.748-1.54 1.668-1.539zm-15.397.879 6.135 3.259-3.091 6.145-.911-2.818c.663-.416 1.1-1.116 1.101-1.913.002-1.27-1.101-2.302-2.47-2.319zm-76.97 1.844.972 3.008c-.993-.048-1.604-.789-1.603-1.718 0-.514.246-.973.63-1.29zm77.993 1.314c.781.128 1.374.755 1.373 1.514 0 .442-.2.839-.523 1.12zm-91.607.088 4.745 2.572-2.15 5.121-.62-1.849a2.49 2.49 0 0 0 .687-1.7c.002-1.218-.9-2.237-2.117-2.527zm99.12.224-2.887 7.129 8.32 4.056 2.091-7.296zm-98.204 2.495c.483.314.801.835.8 1.423 0 .21-.044.41-.118.596zm6.22.362-3.389 7.232 7.022 4.29 3.67-7.538zm94.59 1.291c.865.001 1.564.649 1.563 1.448-.001.8-.702 1.446-1.566 1.445-.865-.001-1.564-.649-1.562-1.448 0-.8.701-1.446 1.566-1.445zm8.233 3.19c-.701.415-1.118 1.22-1.12 2.046-.001 1.28 1.119 2.326 2.502 2.32.308-.003.585-.031.832-.084.722-.893-.296-4.32-2.214-4.281zm-100.728-.329c.865.001 1.563.649 1.562 1.448 0 .8-.701 1.45-1.566 1.45-.864-.001-1.563-.654-1.562-1.453 0-.8.702-1.446 1.566-1.445zm102.482 3.85a.762.762 0 0 1-.371.07c-.919-.041-1.665-.693-1.664-1.544 0-.484.243-.916.622-1.198 1.44-.997 1.646 2.873 1.413 2.673zm-93.237 1.12c.286 1.187.6 2.315.91 3.366a2.02 2.02 0 0 1-.394.042c-1.037-.001-1.88-.782-1.878-1.741 0-.793.576-1.46 1.362-1.667zm87.261.956-2.189 8.019 8.328 2.817 1.605-7.589zm-101.57-.014 4.418 2.827s-1.434 3.185-2.644 4.884l-.34-1.475c.732-.472 1.212-1.251 1.214-2.14.001-1.278-.986-2.343-2.297-2.569zm93.488.496c.92 0 1.66.687 1.66 1.538-.002.558-.182.788-.662 1.058-.365-.762-.866-1.516-1.32-2.54.135-.032.175-.056.322-.056zm-92.913 2.005c.664.267 1.128.88 1.127 1.594 0 .452-.187.863-.492 1.172zm6.638 1.18-4.022 6.442 5.883 4.172 4.609-6.447zm97.152.335c.865.001 1.564.654 1.562 1.453 0 .8-.701 1.446-1.566 1.445-.865-.001-1.568-.65-1.567-1.449.001-.8.707-1.45 1.571-1.449zm7.205 2.013 1.02 1.467a2.19 2.19 0 0 0-.513 1.393c-.002 1.28 1.123 2.318 2.506 2.32.188 0 .371-.016.547-.052l.821 1.178-5.221-1.736zm-103.162 1.596c.865 0 1.563.648 1.562 1.448 0 .8-.701 1.445-1.566 1.444-.864 0-1.568-.648-1.567-1.448.001-.8.707-1.445 1.571-1.444zm104.682.59 1.54 2.218h-.046c-1.458-.027-2.074-1.138-1.494-2.218zm-97.174-.019-5.694 6.965 7.532 5.175-.115-1.54-5.505-3.647 4.199-5.156zm83.001 2.46 7.5 2.187-1.614 6.88-1.765-2.72c.482-.422.784-1.014.785-1.677.001-1.279-1.113-2.317-2.496-2.319-.28 0-.551.044-.803.122zm-81.743 1.096c-1.425.132-2.542 1.24-2.544 2.592-.002 1.442 1.263 2.615 2.823 2.617.718.08.823-.935 0-.874-1.037-.002-1.88-.783-1.878-1.742.002-.921.78-1.67 1.76-1.728l-.136-.865h-.026zm91.933.854-1.315 7.962 8.498 1.689.644-7.222zm-106.282.065 4.008 2.746-3.052 3.938-.162-1.13c.727-.472 1.203-1.255 1.204-2.14.002-1.13-.775-2.086-1.862-2.45zm98.5 1.111c.92.001 1.66.693 1.66 1.543-.001.38-.15.724-.395.992l-1.617-2.497c.113-.022.232-.038.353-.037zm-26.959 1.012c.181.062.695.1.613.252-.068.128-1.428 1.506-1.428 1.506l.152 1.286 2.416-2.526.97.332-3.393 3.181-.16 1.187 4.52-4.093 1.926.494-5.257 4.772 6.04 5.675 6.06-5.698-4.293-4.349 2.126.187c.895.946 1.88 2.451 3.527 3.256l-.162-1.134c-.084.053-1.998-1.67-1.694-1.95l1.692.116s2.443-.655-.618-.658c-4.017-.004-8.346-1.274-11.794-2.226-.384-.108-.971-.393-1.257-.404-.706.652-1.575.513.015.794zm-71.253-.105c.464.316.766.821.765 1.396 0 .408-.155.785-.41 1.081zm109.102 1.517c.864.001 1.563.649 1.562 1.448-.001.8-.702 1.446-1.566 1.445-.865-.001-1.564-.649-1.563-1.448.001-.8.702-1.446 1.567-1.445zm-102.858.017-4.895 5.737 5.53 4.918 5.676-6.138zm109.73 1.603.389.062.015 3.919-.629-.124zm-38.149 1.774c.865 0 1.563.649 1.562 1.448 0 .8-.701 1.446-1.566 1.445-.865-.001-1.568-.65-1.567-1.449 0-.8.707-1.445 1.571-1.444zm-70.83.325c.865.001 1.564.654 1.562 1.453 0 .8-.701 1.446-1.566 1.445-.864-.001-1.563-.649-1.562-1.448.001-.8.702-1.45 1.566-1.45zm7.543 1.149-6.322 6.95 6.768 6.479-.018-1.447L81 926.814l4.94-5.311zm70.583.723-6.505 6.061 6.467 6.214.156-1.394-4.993-4.671 4.689-4.466zm-14.282.611.008 1.65 4.068 3.838-4.177 3.933.024 1.673 5.922-5.632zm33.28.764 7.65 1.347-.48 6.683-1.838-2.059c.314-.387.502-.868.503-1.389.002-1.279-1.118-2.312-2.501-2.314-.395 0-.767.085-1.1.235zm-103.125 1.066 3.767 3.673-3.61 3.762-.028-1.28c1.004-.4 1.709-1.324 1.71-2.4.002-1.114-.75-2.06-1.81-2.436zm13.983.944c-1.254.264-2.195 1.3-2.196 2.54-.002 1.24.935 2.281 2.189 2.55l.001-.912c-.725-.242-1.246-.884-1.244-1.637 0-.753.524-1.39 1.25-1.63zm55.443.312c-1.161.706-.649 4.697-.006 4.633 1.383.001 2.5-1.035 2.502-2.313.002-1.28-1.113-2.318-2.496-2.32zm14.818.397c-1.383-.002-2.506 1.034-2.508 2.313-.002 1.279 1.118 2.317 2.501 2.319 1.1-.335.658-4.4.007-4.632zm22.214.324c.92.001 1.665.688 1.664 1.538 0 .278-.087.54-.226.766l-1.98-2.224c.17-.054.352-.08.542-.08zm-37.033.055c.92 0 1.66.692 1.66 1.543-.002.85-.744 1.54-1.664 1.538.085-.55-.309-3.146.004-3.081zm-69.378.27c.513.31.848.843.847 1.452-.001.583-.308 1.102-.784 1.417zm84.196.126c.207.624.464 3.19-.004 3.082-.92-.001-1.666-.693-1.665-1.543.001-.851.749-1.54 1.669-1.54zm-7.578 2.236-6.106 5.603 6.217 5.892 5.897-5.802zm-70.344.217-5.467 5.443 5.25 6.321 6.178-5.674zm-29.596.163c1.679.005 3.246.271 3.883 1.304 2.566 3.187 1.818 9.726.034 11.973-4.005 3.353-6.269 4.239-10.78 3.466.521-1.886-1.646-2.906-1.959-2.489-.04.006-.208.336-.006.36 1.555.177 1.43 1.893 1.246 1.9-1.719-.052-2.836-.026-3.01-.734-.108-.436.17-1.11 1.172-1.867 1.178-.87 6.595-.843 6.595-.843.02.008-.01-1.424.535-2.244.479-.72 1.142-1.52.687-1.852-.78-.336-1.308-1.147-1.418-2.082-.208-1.96.132-6.675.056-6.726.912-.078 1.958-.168 2.965-.166zm99.923 3.76c.865.001 1.569.649 1.568 1.448-.001.8-.706 1.446-1.572 1.445-.864-.001-1.563-.649-1.562-1.448.001-.8.702-1.446 1.566-1.445zm-70.293.478c.865 0 1.563.648 1.562 1.448 0 .8-.701 1.45-1.566 1.449-.864 0-1.568-.653-1.567-1.453 0-.8.707-1.445 1.571-1.444zm77.748 1.455-6.382 6.005 6.784 6.507-.212-1.763-4.886-4.662 4.791-4.607zm-14.399.096-.176 1.664 4.507 4.391-4.105 3.89-.064 1.89 6.04-5.872zm-69.79 2.184 3.598 4.68-4.294 3.473.114-1.328c1.246-.271 2.175-1.306 2.176-2.54.002-1.094-.724-2.028-1.754-2.418zm13.493.938c-.085.97-.143 1.753-.197 2.467-1.17.319-2.026 1.32-2.028 2.503-.001 1.05.67 1.954 1.638 2.37-.079.749-.181 1.577-.326 2.618l-4.3-5.833Zm101.876.398.146 16.35 12.756 12.309.073 45.888-52.75.232-13.541-21.31c-.296-.402-.66-.27-.955-.672l4.05-19.861c6.33 2.704 11.668-4.265 8.218-9.921 19.532-6.57 42.003-23.015 42.003-23.015zm-31.15.052c-1.382-.002-2.505 1.03-2.507 2.308-.002 1.28 1.118 2.322 2.501 2.324 1.383.002.86-.79.863-2.069.001-1.279.527-2.561-.856-2.563zm-14.582.12c-.697.73-1.1 4.662-.007 4.631 1.382-.038 2.506-1.038 2.508-2.317.001-1.28-1.118-2.313-2.502-2.315zm14.582.655c.92.001.499.834.498 1.685-.001.85.417 1.398-.503 1.397-.92-.001-1.665-.697-1.664-1.548.001-.85.749-1.535 1.669-1.534zm-14.583.12c.92 0 1.66.687 1.659 1.538-.001.85-.744 1.54-1.664 1.539.1-.256-.414-2.974.005-3.078zm-69.874.525c.532.306.888.852.887 1.475-.001.721-.476 1.339-1.153 1.601zm13.456 1.566c-.08 1.11-.137 2.022-.22 2.945-.474-.317-.785-.828-.784-1.41 0-.665.408-1.244 1.004-1.535zm63.432.611-5.953 5.49 6.182 5.954 5.891-5.75zm-70.714 1.342-6.232 4.615 4 5.686 1.394.777 5.705-4.502zm-24.994.353 14.643 7.25s-3.803 1.466-3.7 3.814c.146 2.625 1.845 4.773 5.222 3.972.776-.103 1.129.194 1.874 1.808 1.425 3.087 2.832 6.48 2.28 6.374-1.795-1.33-1.526-1.402-3.64-2.283-3.946-1.01-6.352 2.382-5.109 5.132 1.159 2.536 3.093 2.683 5.031 2.426.284.06.524.349.715.681.614 1.155 1.545 3.21 2.27 6.37 1.12 4.872 1.364 10.97.54 12.503-1.139 2.118-2.71 4.988-2.71 4.988-3.05-5.391-9.703-10.12-17.189-8.458-.252.145-.305.905.034 1.352 2.423 2.948 2.83 5.648 3.694 8.545 2.213 7.425 6.695 11.679 6.635 10.92l-2.357 3.936s-20.35.069-28.677-.034l.013-9.042 21.845-20.636-8.642-.349.35-35.62c3.16-.604 6.878-3.65 6.878-3.65zm95.81 2.399c.864 0 1.563.648 1.561 1.448 0 .8-.701 1.45-1.566 1.449-.864-.001-1.568-.654-1.567-1.453.001-.8.707-1.446 1.571-1.444zm-71.486 1.378c.865.001 1.568.65 1.567 1.449 0 .799-.706 1.45-1.571 1.449-.865-.001-1.563-.654-1.562-1.453 0-.8.701-1.446 1.566-1.445zm64.484 1.407.151 1.427 4.283 4.16-3.977 3.73c-.58.732-2.06.57-2.526.62-.002.047.098.542.449.686.37.152.814.125.991.219.413.218.68.251.68.251l5.778-5.452zm.062 3.228c-1.041.302-.863 4.395-.007 4.632 1.383.002 2.506-1.034 2.508-2.313.001-1.279-1.119-2.317-2.502-2.32zm14.704.646c.104.38.255 3.047-.004 3.082-.92 0-1.665-.692-1.664-1.543 0-.85.748-1.54 1.668-1.539zm-14.705.129c.92.001 1.665.692 1.664 1.543-.001.85-.749 1.54-1.669 1.539-.224-.356-.591-3.032.005-3.082zm-51.566.68c-.249.086-.592.031-.863.032-.87.001-1.95-.57-2.187-.466-.273.118-.182.645-.168.881.03.219.692.292.963.458.437.267.318.36-.18.467-.441.095-.797.122-1.078.491-.175.23-.192.63.107.627 1.735-.021 3.94-.68 6.016-.033 1.187.394 1.96.639 2.15.488.395-.313-.993-1.543-2.323-1.775-1.34-.233-1.821-.14-1.387-.508.225-.191.528-.117.55-.254.062-.384-.244-.781-.607-.836-.39-.059-.697.319-.993.428zm7.463 3.866c-.141.002-.345.093-.62.297-.791.485-2.032 1.134-5.02.372-1.641-.502-3.485-.067-4.56.21-.836.217-2.035.428-2.994.022-.937-.418-1.963-1.051-1.773-.4.048.166.103 1.121.115 1.688.029 1.333.126 2.445 1.168 1.4.452-.452.996-.455 2.015-.082.726.266 1.235.446 1.799.106.798-.482 1.487-.601 2.96-.138.698.22 1.43.24 2.315-.262 1.47-.834 2.401-.02 2.964.835.445.678.67-.287 1.495-2.295.425-.958.559-1.758.136-1.753zm-7.048 7.458c-.8.417-1.917.541-2.729 1.034-1.718 1.093-.11 2.006 1.082 1.78.487-.103 1.053-.327 1.679-.71 2.15-1.315 3.34-1.121 3.54.476.218 1.726-2.658 2.5-2.39 3.303.36.522 1.755-.194 2.62-1.276 2.567-3.208-.248-6.457-3.802-4.607zm11.115 9.068c-2.915.301-7.304 1.597-9.508 3.125-1.733 1.245-2.207 1.557-1.475 2.054.67.456 1.186.473.264 1.343-.329.31-.887.96-.886 1.086.009.625 4.118 2.485 6.477 2.778 1.82.226 4.764-.027 6.35-.616 2.09-.778 2.162-1.31.187-.777-1.542.417-3.404.73-5.237.605-1.65-.112-3.267-.579-4.287-.917-2.525-.838-2.083-1.811.466-.978 2.937 1.177 6.744 1.162 10.126-.243 1.365-.568 1.748-1.014 1.995-.82.06.048.198.358.234.444.086.207.095-.53.217-1.701.102-.972.203-2.273.203-2.273s-.204.55-.2.808c.024 1.7-.868 1.707-3.39.402-2.963-1.51-4.405-1.365-7.224-1.352-1.235.005-1.29-.325.448-.853.828-.251 2.098-.657 3.99-1.214 1.565-.461 1.988-.978 1.25-.901zm-22.359 3.403c1.074.001 2.034.846 2.307 2.484l-1.068-.072c-.353-2.443-2.271-1.892-3.025-.439l-.94.023c.74-1.343 1.779-1.998 2.726-1.996zm2.73.154c.435-.036 2.456.873 2.58 1.152.134.306-.636.634-1.31.816-.776.21-.618.24-.862-.185-.34-.594-.939-1.76-.408-1.783zm-5.158.112c.021.264-.595 1.222-1.04 1.346-.524.146-.935-.496-.504-.823.387-.185 1.464-.899 1.544-.523zm20.788.153c1.359-.05 2.621 1.22 2.726 2.721l-.685-.015c-.63-3.125-3.227-2.42-3.813-.194l-.807-.213c.675-1.613 1.65-2.265 2.58-2.3zm-2.668.219c.372-.022.323.257-.125 1.087-.21.391-.362.613-.731.6-.502-.07-.838-.22-1.093-.588-.175-.365.235-.648 1.105-.902.398-.116.675-.187.844-.197zm5.709.238c.238.003.672.144 1.354.423 1.743.713 1.949 1.006 1.035 1.41a9.506 9.506 0 0 1-1.012.395c-.819.25-.793-.172-1.011-.696-.125-.296-.275-.565-.434-.88-.22-.44-.23-.654.068-.652zm-25.566 2.616c.29-.002.918.354 2.181.773 1.814.602 3.643.384 6.053-.323.994-.292 1.333-.475.94.058-.31.422-2.004 1.193-3.386 1.508-2.588.59-6.004-.54-6.003-1.766.02-.177.083-.249.215-.25zm8.559 2.029c.263.005.006.37-.544.935-.85.876-2.15 1.478-3.473 1.693-2.784.452-5.089-.252-5.109-1.694-.015-1.038.182-1.052 1.555-.395 1.165.558 3.786.695 5.898.069.694-.17 1.406-.56 1.53-.59a.574.574 0 0 1 .143-.018zm21.394 1.42c-2.113.513-4.356 1.03-6.407 1.391-2.197.396-5.397.026-7.068-.736-1.233-.563-1.667-.233-1.125.859.352.713.888 1.46 2.47 1.974 2.3.745 7.695-.454 11.704-2.363 2.331-.955 1.885-1.535.426-1.125zm-34.804 14.634 3.613-5.658c24.404 4.4 50.82 1.258 58.904.233 0 0 8.807 13.514 11.974 18.258.299.505 1.117 2.214 1.117 2.214l-83.347-.162c1.17-2.17 2.281-4.972 2.281-4.972-2.545-.948-4.516-4.469-5.734-7.439-1.07-2.606-2.92-8.972-5.36-12.075 4.28-2.238 15.03 2.781 16.552 9.601z"/><path fill="#d40000" d="m145.5 1012.451-82.55-.097 10.784-19.868c20.063 2.834 39.846 2.507 59.406-.33l12.36 20.297zM32.716 996.468l-.23-9.597 10.715.033zm89.774-62.876-.077-30.954 15.093 9.208-.595 31.428zm-36.116-7.342c.558-11.07-2.292-21.403-4.484-31.879l15.655-9.482.805 34.946zm-41.142-29.14.48-39.913c14.046 18.731 22.572 37.377 24.988 63.04-3.828 1.423-7.562 2.993-11.487 4.26-4.506-9.596-9.05-18.888-13.98-27.388zm142.554 17.354c-12.982-15.292-20.797-36.25-24.855-61.33l11.912-5.33c3.939 8.858 7.77 17.87 12.757 25.224zm-51.304-27.27-1.218-33.502 11.925-6.68c.617 11.496 2.565 22.277 4.9 31.334zm-25.893-17.912-12.85-6.933.772-30.282 11.746 8.535zm80.4-83.875c.926-3.17 7.132-7.21 9.79-9.389l-.122 8.968s-9.197.59-9.668.42zm-90.131-4.959-13.313-21.07 83.632-.547-10.775 21.187c-22.142-3.772-41.094-2.103-59.544.43Z"/><path d="M138.919 969.864c.192.056 2.78-1.558 4.123-3.939 1.453-2.63.146-5.219.577-5.228 2.668.74 1.893 5.443.963 6.9-.79 1.267-2.298 2.119-3.857 2.36-1.54.24-1.806-.093-1.806-.093zm4.363-10.28c-.537.006-.77-.078-1.124-.417-.491-.473-1.08-.79-1.394-.749-.423.056-.615-.014-.618-.223-.003-.17.185-.198.879-.14.422.035 1.316-.581 1.316-.581l.071-44.468c3.779 1.455 9.43 2.296 13.772 2.778l.234 39.635s6.376-3.078 8.692-4.308l.133-35.478 4.514-.45-7.108-13.401c-1.002.71-15.028-.519-18.528-2.63l12.81-7.37c-1.295-3.669-2.472-7.174-3.554-10.889-.034-.114-.27-.103-.303-.216-.262-.907-.449-1.315-.694-2.227-.046-.17.029-.447-.024-.616-2.745-8.788-4.61-20.431-4.978-30.853.04-.098.448-.013.448-.013l-.073-6.366-.455.279.049-2.881.463-.422c.011-.558.055-1.612.055-1.612l-.592-.343.313-4.827.61-.082.346-7.642-16.224 9.684s-10.57-7.018-15.191-10.656c5.096-3.195 6.455-9.435 7.724-14.613 1.297-5.123 1.727-9.355 2.1-13.643.409-4.726 1.264-10.77 1.946-13.747.412-1.8.397-1.997-.176-2.028-.198-.011.007-.07.455-.132 10.395-.372 21.554 1.073 31.464 2.277 0 0 2.458-4.222 3.312-5.778 0 0 .496 1.43 1.026 2.424 1.201 2.11 3.949 4.35 6.3 5.557.877.535 3.402 1.32 5.109 1.59 1.004.154 2.621-.139 3.819-.578.411-.158.734-.357.737-.556.003-.202-.32-.407-.735-.772a5.641 5.641 0 0 1-1.051-1.339c-.718-1.352-1.814-3.622-2.425-5.745-1.722-4.225-2.997-9.322-6.964-11.572l2.747-5.066-86.266-.083 13.32 20.806s.402.62.534.84c.394.657.555.564.555.564a198.872 198.872 0 0 1-3.77 21.453s-.173-.561-2.708-.53c-7.419.089-10.028 7.71-3.829 11.093.585.322 1.579.939 2.56 1.416.281.135 3.835 2.07 3.835 2.07l-4.26-1.778-.373 45.748s-8.885-2.48-14.745-2.72l.115-39.667-8.19 4.075-.422 35.463-4.483.263s1.693 3.343 2.07 4.045c.756 1.407 2.658 4.536 3.957 6.514.46.699 1.535 2.256 1.535 2.256 5.974.153 12.085.99 17.637 3.28l-12.868 7.72c5.35 13.997 12.018 34.478 8.24 67.517l.901-.527.253-3.56 16.019-10.166 19.723 14.727s-1.433-.037-1.754-.05c-5.035-.17-8.589 4.587-9.81 8.562-2.155 7.007-2.44 8.736-3.442 19.849-.397 4.395-1.343 8.634-2.308 12.82-.509 2.105-.434 2.315-.434 2.315 10.042.308 20.531-.66 28.4-2.258 0 0 3.342-14.572 4.535-20.758 1.118.595 2.112.855 3.119.836 7.788-.773 7.135-10.649 3.12-10.93zM108.905 759.72l4.064 13.25-10 .842-8.28-14zm61.462-.11-10.306 20.148c-21.557-2.825-34.001-3.106-59.033.141l-12.98-20.117 3.423-.024 9.786 16.061 14.57-1.325-4.005-14.691 3.849-.106 3.963 14.418 22.549-.084c.737-4.827 2.166-14.27 2.166-14.27l4.163.048-2.794 14.589 13.316 1.56 7.719-16.303zm-28.918.151-1.331 12.257-18.652.11-2.966-12.403zm22.599-.208-6.353 14.542-9.225-1.15 2.538-13.205zm11.357 14.27c.407 1.244.822 2.462.92 2.71 1.501 3.775 2.118 5.021 3.1 6.276.162.208.212.184-.028.36-4.534 2.044-12.718-3.007-14.684-7.626.248-.446 1.347-2.32 1.347-2.32.57 1.034.14 2.053.514 2.98.092.395 1.034-2.669 1.034-2.669s.902 1.361 1.008 3.978c.017.403 1.18-1.753 1.18-1.753 1.455 1.817 1.369 4.965 1.369 4.965 1.646-1.843.623-2.9 3.155 1.803.294-.489.152-1.008.536-.87 1.115.4 2.682 1.125 3.252.98-.743-.863-2.186-1.319-2.581-2.464 0 0 1.145.091 1.22.04-1.297-.654-2.543-1.22-3.515-2.475.29-.098 1.463.09 1.413-.026-1.755-1.469-4.389-2.658-.577-2.322-2.476-1.615-5.236-2.731-.932-2.606-3.068-1.345-3.895-2.173-3.323-2.4.322-.128 1.24.384 2.705-.047-2.466-.933-3.482-1.36-3.58-1.667-.118-.371 1.053-.573 1.858-1.377 0 0-.993.207-1.427-.219 0 0 .485-1.284.857-2.025 3.137 2.64 4.368 6.373 5.179 8.775zm26.469-5.084s-13.899 13.81-20.78 20.663l6.714.1.254 37.441c2.339.293 6.397.014 7.93 1.456.952 1.305-2.741 3.866-4.818 3.325-1.385-.348-3.098-.075-3.098-.075l.081 41.72c-4.42-7.612-7.8-12.429-12.687-25.642 1.423-.912 2.885-1.615 3.13-1.77-1.88-4.206-3.175-10.82-.535-16.578l1.813 1.001c-1.335 3.515-1.832 8.715.336 13.523l.5-.483s-.537-.96-.882-2.019c-.307-.944-.75-2.162-.751-3.423-.084-2.234-.008-4.154.565-5.945.198-.585.48-1.457.626-1.725.147-.268.289-.516.287-.59-5.336-2.007-9.16-4.937-13.76-7.036a9.92 9.92 0 0 1-.436-.207c-.583-.3-.43-.403.484-.738 1.923-.705 2.707-1.562 2.667-3.287-.057-2.452-1.474-3.41-4.575-3.252-1.126.057-1.2.042-1.4-.314-.468-.833-2.083-4.144-2.085-4.275-.002-.078-.337-.823-.749-1.656-.635-1.328-1.369-2.697-1.667-4.083-.15-.689-.582-.96-.693-.25-.828 5.28-1.587 8.066-3.068 11.237-.44.944-.772 1.738-.738 1.767.142.116 2.61 1.18 3.765 1.621 4.506 1.721 6.555 2.783 5.858 3.037-.484.177-.66.487-.784 1.374-.326 2.325-.292 3.514.127 4.25.44.772.43.827-.293 1.261-.627.377-.492.38-.665 2.32-.205 2.305-.07 3.77-.07 3.77l1.121 1.335-1.145 1.313-.27 6.036 1.54 1.084-1.444 1.315.507 5.505s-.19.508-.439.76c2.41 23.286 11.812 46.76 25.925 62.769l.086 38.247 13.834 12.835zm-1.088 2.46-.004 3.015-11.78 11.7 11.763.204-.004 2.555-18.059-.054zm-.189 5.118.018 8.442h-8.793zm-80.68 4.156 1.833-.068c-.075 1.702-.815 9.559-1.697 16.438-.994 7.756-3.015 14.446-3.4 14.446l-1.77-.994c2.945-8.896 3.742-20.35 5.033-29.822zm8.318-.233c-.265 4.803-1.358 8.161-1.699 13.84-.422 6.936-1.723 15.57-5.108 22.729-1.14 2.41-3.243 4.673-6.19 5.738-5.17 1.867-9.546-4.059-6.048-8.41 2.765-3.438 7.086-3.389 8.393.096 1.08 2.88-2.408 6.488-5.186 5.363-1.93-.783-1.433-4 .738-4.754.9-.313 1.66.743 1.214 1.689-.35.744-.389 1.21.085.894 1.964-1.277.49-4.326-1.946-3.189-3.25 1.517-2.71 5.987.562 6.186 4.141.38 7.344-4.333 9.403-13.287 2.259-10.022 1.713-18.998 3.876-26.866zm-5.293.162 2.177-.058c-.174.744-.207 1.538-.357 2.448-.865 5.258-1.384 12.934-2.272 18.949-1.253 8.488-3.484 13.645-3.54 13.016-.247-1.03-.95-1.866-1.487-2.68 2.252-5.643 3.165-10.778 3.748-15.615.681-5.65.878-10.893 1.73-16.06zm-9.308.476 1.91-.09c-.76 11.254-2.557 21.456-3.618 25.834-.328 1.32-.437 1.892-.709 2.002-.3.121-.8-.326-2.017-.953 1.852.245 3.366-19.131 4.434-26.794zm2.98-.158 2.074-.186c-.314 4.068-1.066 10.464-1.906 16.23-1.016 6.972-2.341 13.15-2.998 13.057l-1.728-.556c1.157.336 4.036-20.463 4.557-28.545zm-3.937.193c-1.367 8.518-1.51 18.473-4.328 26.425l-1.941-.837c.531.16 1.92-5.174 2.396-11.212.414-5.257 1.449-10.974 1.757-14.143zm-3.203.309c-.777 3.007-.782 7.44-1.366 11.138-.723 4.578-1.5 13.877-2.646 13.663l-1.982-.932c1.04.29 2.88-17.327 3.994-23.583zm-5.223.74 2.014-.25c-.98 6.877-2.755 22.915-3.793 23.034l-1.886-.929c.74-2.817 2.618-12.395 3.665-21.856zm-1.252.266c-.845 7.56-1.638 15.217-3.39 21.095l-2.064-.863s1.443-6.466 2.129-11.008c.677-4.482.78-5.122.995-6.29.476-2.576.606-2.671.606-2.671zm88.443 7.857-.25 36.31-2.29-.083.145-36.286zm5.407.294c.865 0 1.563.649 1.562 1.448 0 .8-.701 1.45-1.566 1.45-.865-.002-1.563-.654-1.562-1.454 0-.8.701-1.445 1.566-1.444zm-36.898 13.28c1.617 2.743 2.859 3.75 4.286 4.276 2.576.95 6.132-1.377 4.844-4.64-.678-1.716-2.403-1.972-4.591-1.633 0 0-.942-.621-2.046-3.73-1.308-3.679-3.363-7.465-3.363-7.465-.137 4.613-1.317 9.415.87 13.192zm39.209-9.907c.864 0 1.568.649 1.567 1.448 0 .8-.707 1.446-1.571 1.444-.865 0-1.563-.648-1.562-1.448 0-.8.701-1.445 1.566-1.444zm-4.294.051c.865.001 1.563.65 1.562 1.449 0 .799-.701 1.45-1.566 1.449-.864-.001-1.568-.654-1.567-1.453 0-.8.707-1.446 1.571-1.445zm-35.088-.39c1.448 2.787 1.752 4.884 3.157 7.409a130.975 130.975 0 0 0 1.168 2.046c4.603-1.995 6.365 3.046 2.632 4.65-3.675 1.578-7.8-4.443-7.39-10.921.114-1.786.433-3.183.433-3.183zm37.143 3.805c.865.001 1.563.65 1.562 1.449 0 .8-.701 1.45-1.566 1.449-.865-.001-1.563-.654-1.562-1.453.001-.8.701-1.446 1.566-1.445zm4.14 2.724-.004 3.093-8.188 7.328.005-2.993zm-107.525 2.252c1.563.02 2.312.449 1.276.828-3.435 1.257-4.963 3.264-5.157 6.777-.01 1.775.219 2.008-.962 1.015-3.012-3.908 1.343-8.648 4.843-8.62zm2.868 1.273c.381-.013.758.033 1.135.143.92.269.583.288-.97 1.238-2.96 1.812-3.862 3.588-3.998 7.223-.038.547.083 1.001.033 1.231-.042.174-.27.118-.408.11-.565-.087-.91-.64-1.073-1.106-1.87-3.464 1.603-8.714 5.281-8.839zm3.202 1.206c.254-.003.477.035.659.12.722.334.456.382-.87 1.254-2.354 1.546-3.52 3.823-3.797 6.367-.177 1.631 1.182 3.574-1.226 1.972-1.693-1.303-1.35-4.681.451-6.998 1.11-1.429 3.409-2.701 4.783-2.715zm101.45-.584-.006 3.522-8.187 7.174.005-3.607zm-98.826 1.717c.929.01 1.345.561.259 1.191a8.28 8.28 0 0 0-4.095 7.534c.147 1.85.223 2.184-1.054.958-2.057-1.973-.598-7.32 3.397-9.317.542-.263 1.07-.371 1.493-.366zm2.707 1.028c1.525-.032 1.736.681.371 1.56-2.605 1.678-4.347 4.636-4.309 7.327.018 1.25-.088 1.405-.686.982-3.003-2.126.23-9.528 4.302-9.85.114-.009.22-.016.322-.019zm53.778.297c.373.025 1.038 1.25 2.08 3.812 1.004 2.471 2.626 5.587 2.971 5.704.107.037.565-.11 1.018-.33 3.434-1.66 5.842 3.067 2.457 4.82-2.408 1.247-4.677-.096-6.767-4.012-2.464-4.615-3.135-8.04-1.939-9.885.05-.077.11-.113.18-.109zm-50.989 1.196a2.48 2.48 0 0 1 1.19.238c.888.426.759.74-.604 1.478-1.406.76-1.96 1.236-2.769 2.365-1.262 1.76-1.474 2.437-1.479 4.706-.002 1.85-.596 1.95-1.79.305-2.054-2.836 2.084-8.959 5.452-9.092zm3.423 1.663c1.346-.026 2.234.483.944 1.112-4.105 1.999-5.832 4.875-5.052 8.417.245 1.11-1.125.168-1.956-1.345-1.213-2.21 1.037-6.476 4.1-7.775a5.426 5.426 0 0 1 1.964-.409zm46.279 3.313c.257.017.554.648 1.208 2.204.427 1.013.999 2.227 1.274 2.695.276.47.468.91.423.98-.232.355-2.131-.253-2.769-.888-.986-.98-1.296-3.172-.628-4.425.196-.365.338-.577.492-.566zm39.385 2.718c.864 0 1.563.649 1.562 1.448-.001.8-.702 1.45-1.566 1.45-.865-.002-1.563-.654-1.562-1.454 0-.8.7-1.445 1.566-1.444zm-160.538 2.14c.864.001 1.563.654 1.562 1.453-.001.8-.702 1.446-1.566 1.445-.865-.001-1.563-.649-1.562-1.448 0-.8.701-1.45 1.566-1.45zm64.674.514c1.71-.054 2.237.694 2.52 3.094.196 1.648.58 1.802 3.383 1.37 2.959-.456 3.948.287 4.156 3.12.164 2.247.143 2.229 3.508 2.254 3.313.025 3.667.335 4.044 3.474.28 2.333.184 2.267 3.442 2.23 3.608-.04 3.932.207 4.171 3.158.195 2.393.366 2.547 2.645 2.376 2.232-.167 6.35-.18 7.12-.024 1.92.39 1.999.317 2.415-2.077.548-3.152 1.223-3.545 5.413-3.15 2.06.193 2.298.155 2.592-1.52.393-2.235.878-2.89.877-.953-.005 4.89-.372 5.117-3.9 4.243-2.65-.657-2.693-.155-2.974 2.205-.247 2.08-.628 2.932-1.456 3.264-.643.258-2.807.034-3.675-.194-.33-.087-2.388-.136-4.825-.115-5.871.05-5.933.063-5.923-3.75.005-1.606-.376-1.951-3.449-1.87-3.855.103-3.653.2-4.303-4.082-.226-1.484-.354-1.541-3.545-1.503-3.477.043-4.268.088-4.06-2.622.19-2.463-.458-3.11-3.36-2.49-3.09.661-3.68-.552-3.979-2.755-.276-2.04-.463-1.53-1.939-1.638-1.634-.12-1.44-1.82.294-1.975.297-.027.564-.063.808-.07zm98.277.86c.864.002 1.563.65 1.562 1.449-.001.8-.702 1.445-1.567 1.444-.864 0-1.563-.648-1.562-1.448.001-.8.702-1.445 1.567-1.444zm-4.407.076c.865 0 1.564.653 1.562 1.453 0 .8-.701 1.445-1.566 1.444-.864 0-1.563-.649-1.562-1.448.001-.8.702-1.45 1.566-1.45zm-156.203 2.221c.864.001 1.568.649 1.567 1.448-.001.8-.707 1.446-1.571 1.445-.865-.001-1.564-.649-1.562-1.448 0-.8.701-1.446 1.566-1.445zm-4.396.028c.864 0 1.563.649 1.562 1.448-.001.8-.702 1.446-1.566 1.445-.865-.001-1.563-.65-1.562-1.449.001-.8.701-1.445 1.566-1.444zm81.795 1.33 16.258 11.25 15.417-9.514-.099 3.477-15.306 9.386s-13.002-9.335-19.287-13.843zm80.992.266c.864.001 1.563.654 1.562 1.453-.001.8-.702 1.445-1.566 1.444-.865 0-1.564-.648-1.562-1.448 0-.8.7-1.45 1.566-1.449zm-26.658 1.863 3.852 5.804-3.856 2.581 3.5 4.15-3.787 3.58 4.154 2.448-3.894 5-5.385 2.204 5.391-6.532-4.45-2.833 4.231-4.203-3.784-4.599 3.928-2.83-4.236-6.443.278-.31zm-71.345-1.367 28.566 19.815s2.638 1.841 3.395 2.286c1.604.943 1.924.567 3.528-.448 3.616-1.98 12.37-7.473 12.37-7.473l-.074 2.85s-8.806 6.076-13.679 8.594c-.691.352-1.432.018-1.95-.347-10.609-7.79-21.466-15.344-32.221-22.977zm65.704.395c.12.199.504.272.69.538 1.265 1.815 3.557 5.04 3.557 5.04l-4.025 2.945 3.685 4.487-4.619 4.328 4.708 2.972s-2.932 4.138-5.147 6.03l-.05-3.218 1.894-2.105-2.167-1.382v-4.425l2.207-2.145-2.017-1.89.367-4.837 1.928-1.407-1.586-2.015zm-128.389.831c.865.001 1.569.649 1.568 1.448-.001.8-.707 1.446-1.572 1.445-.864-.001-1.563-.649-1.562-1.448.002-.8.702-1.446 1.566-1.445zm164.388 5.475-7.965 6.789.005-3.088 7.965-7.21zM40.863 827.14l-.005 3.726-8.504 7.243.005-3.597zm159.842 4.467-.005 3.698-7.964 6.902.005-3.662zm-9.36.57-.005 120.228 9.223 9.048.002 2.998-11.673-11.212-.095-120.966zm-150.489-.54-.006 4.185-8.503 7.155.005-3.939zm58.112.837 11.223 8.101-.087 28.192c-4.545-3.169-8.194-5.059-11.644-6.666zm98.023 9.237c.865.001 1.563.65 1.562 1.449 0 .799-.7 1.445-1.566 1.444-.864-.001-1.568-.649-1.567-1.448 0-.8.707-1.446 1.571-1.445zm-83.421 1.277v28.768l-2.21-1.873-.088-28.53zm-76.722.184c.864 0 1.563.649 1.562 1.448-.001.8-.702 1.45-1.566 1.45-.865-.002-1.569-.654-1.568-1.454.002-.8.707-1.445 1.572-1.444zm162.228 2.247c.865.001 1.564.65 1.563 1.449-.001.8-.702 1.45-1.567 1.449-.864-.001-1.563-.654-1.562-1.453.001-.8.702-1.446 1.566-1.445zm-4.457.175c.865 0 1.563.648 1.562 1.448 0 .8-.701 1.445-1.566 1.444-.865 0-1.563-.648-1.562-1.448 0-.8.702-1.445 1.566-1.444zm-79.797-.237 6.844 5.933-7.068 6.184-.053-2.858 3.934-3.497-3.943-3.79zm2.608.527 5.708 3.907-.897 1.002zm-78.272.779c.865 0 1.563.649 1.562 1.448 0 .8-.701 1.446-1.566 1.444-.864 0-1.563-.648-1.562-1.448.001-.8.702-1.445 1.566-1.444zm-4.585.065c.865.001 1.563.654 1.562 1.453-.001.8-.701 1.446-1.566 1.445-.864-.001-1.563-.65-1.562-1.449.001-.8.701-1.45 1.566-1.449zm112.3.661c1.085 11.51 1.837 19.477 5.037 30.333l-14.794 8.722.182-33.334zm40.7 26.384-.114 39.526c-13.924-18.372-21.415-39.837-23.807-60.173 0 0 7.493-3.181 11.132-5.134 3.84 8.352 2.177 8.34 12.79 25.78zm9.597-24.65c.864 0 1.563.653 1.562 1.453-.001.8-.702 1.445-1.566 1.444-.865 0-1.563-.649-1.562-1.448 0-.8.701-1.45 1.566-1.45zm-160.271 1.36c.864.002 1.563.65 1.562 1.45-.001.799-.702 1.45-1.566 1.448-.865 0-1.564-.653-1.562-1.453 0-.8.701-1.445 1.566-1.444zm87.211-.027 5.424 3.838.009 2.905-6.486-5.783zm-1.862 1.532 6.779 6.213-7.126 6.557-7.01-6.16zm51.108.279-6.549 2.474c2.475 20.978 8.948 36.709 17.688 49.465l.24-29.42c-4.511-6.623-7.923-14.599-11.38-22.52zm27.511.467-.004 3.299-8.156 6.9.004-3.287zm-78.628 1.72-4.33 3.899 4.35 3.9 4.196-3.89zm-81.414-.531-.005 3.509-8.098 7.213.006-3.73zm91.063 2.076.019 33.573-1.8.784.175-35.072zm-9.734.496 1.96 1.827-2.057 1.907-1.93-1.826zm78.707.447-.005 3.805-8.156 7.024-.131-3.629zM110.704 871.1c8.398 6.737 14.842 16.956 21.927 22.672 2.865 2.302 9.874 5.9 13.658 7.007 4.301 1.26 7.65 1.777 11.968 1.853 3.41.06 3.425.079 3.425.079l1.44 2.375-2.386-.033-.169 8.378c2.528.117 5.004-.01 7.448-.287l.88 1.527c-17.392 2.159-34.382-3.955-44.593-11.754-4.657-3.55-8.44-7.882-13.042-14.188-8.858-12.812-24.484-19.012-39.043-19.174l-1.205-1.736 2.434.078s.248-1.61.284-4.346c.04-3.082.02-3.623-.24-3.712-1.763-.192-7.08-.097-6.925.111l-1.092-1.81c17.36-1.634 34.433 3.974 45.231 12.96zM40.82 858.38l-.006 3.442-8.097 7.045.005-3.447zm88.899.4-.218 3.077-3.86 3.521 4.096 3.688-.1 2.57-7.226-6.212zm-52.83 1.03c-.373 0-.597.03-.64.095-.095.148-.044 1.47-.366 6.253-.118 1.752-.25 1.759 1.34 1.938 1.334.044 4.318.754 6.304.973 1.674.207 1.324-.264 1.798-1.5.515-1.353.797-2.552 1.438-4.482.587-1.768.318-1.825-3.45-2.481-2.604-.454-5.308-.793-6.424-.795zm37.62-.247 6.538 6.049-6.454 6.045-.109-2.925c1.245-1.021 2.728-2.184 3.823-3.337l-3.794-3.59zm-32.83 1.919.7 1.07 1.686.258-.295 1.087.856 1.122-1.057.73.035 1.353-1.32-.044-1.149.758-.906-1.067-1.323-.042.074-1.516-.857-.67 1.026-.848-.13-1.345 1.628.255zm-10.633 1.808 1.039.631-1.058.674-.05 1.034-.647.508-2.369-4.3 1.544.58 1.181-.722zm19.057-.971c-.83.012-.941 1.432-1.844 4.117-1.261 3.747-1.35 3.4 1.057 4.184 1.072.35 3.121.992 4.206 1.465 2.642 1.152 2.656 1.148 3.645-.412.44-.691 1.272-2.39 1.855-3.27 1.453-2.199 1.492-2.092-1.171-3.282-1.567-.7-2.516-.987-5.811-2.228-.916-.344-1.502-.58-1.937-.574zm2.635 2.49 1.154.67 1.298-.499.258 1.291 1.42.51-.407 1.27.623.952-1.208.216-.881 1.758-1.326-.862-1.408.468-.39-.969-1.44-.645.525-1.066-.717-1.439 1.65-.114zm29.024 1.354 7.216 6.556-6.588 6.09-7.213-6.578zm75.378 1.284c.865 0 1.563.649 1.562 1.448-.001.8-.701 1.446-1.566 1.445-.865-.001-1.564-.65-1.562-1.449 0-.799.701-1.445 1.566-1.444zm-94.676.203c-.419.006-.66.362-1.024 1.048-.153.29-1.047 1.83-1.873 3.022-1.862 2.688-1.863 2.55-.01 3.606.785.448 2.594 1.828 4.148 3.13 1.438 1.206 1.282.92 4.388-1.944 2.026-1.868 3.274-2.392 2.488-3.38-1.916-1.521-3.486-2.633-5.563-4.089-1.372-.949-2.08-1.398-2.554-1.393zm19.633.755-4.268 3.857 4.798 4.03 3.988-3.778zM49.1 867.007l.004 30.204c4.676 7.415 9.476 14.897 11.968 23.239l6.879-3.107c-3.253-24.68-10.883-38.371-18.85-50.336Zm-12.242 1.881c.865.001 1.563.65 1.562 1.449 0 .8-.701 1.445-1.566 1.444-.864 0-1.563-.649-1.562-1.448.001-.8.702-1.446 1.566-1.445zm85.287 1.715 2.053 1.747-1.894 1.898-2.073-1.988zm76.907.377c.864.001 1.568.649 1.567 1.448-.001.8-.707 1.446-1.572 1.445-.864-.001-1.563-.649-1.562-1.448.001-.8.702-1.446 1.567-1.445zm-4.202.142c.864 0 1.568.648 1.567 1.448-.001.8-.707 1.445-1.571 1.444-.865 0-1.564-.649-1.562-1.448 0-.8.701-1.446 1.566-1.444zm-91.425-.205 1.187.815 1.397-.553.098 1.52 1.27.58-.802 1.076.481 1.417-1.374.04-1.07 1.294-.96-.853-1.87.114-.296-1.476-.809-.587.63-.976-.458-1.302 1.602-.099zm-68.872 1.528c.865 0 1.563.649 1.562 1.448-.001.8-.701 1.445-1.566 1.444-.865 0-1.563-.648-1.562-1.448.001-.8.702-1.445 1.566-1.444zm4.503.048c.865 0 1.563.653 1.562 1.453 0 .8-.701 1.445-1.566 1.444-.864 0-1.563-.649-1.562-1.448.001-.8.702-1.45 1.566-1.45zm90.59 3.561-3.737 3.217 3.673 3.55-.115 2.717-6.516-6.025 6.639-6.011zm-36.89-.744-14.015 8.572-.848-2.15 12.492-7.544zm104.169-.575c.865.001 1.563.654 1.562 1.453 0 .8-.7 1.446-1.566 1.445-.865-.001-1.563-.65-1.562-1.449 0-.799.701-1.45 1.566-1.449zm-83.954.772c-.648.041-1.31.749-2.569 1.982-1.234 1.21-2.69 2.631-3.002 2.833-.973.632-.926.785.764 2.544a58.548 58.548 0 0 1 2.153 2.428c.671.802 1.741 1.807 1.954 2.013.686.667 1.063.528 4.224-1.564 3.839-2.54 3.82-2.164.3-6.376-2.025-2.424-2.992-3.913-3.824-3.86zm-76.17.797c.865.001 1.564.65 1.563 1.449-.001.8-.702 1.445-1.566 1.444-.865 0-1.569-.649-1.567-1.448 0-.8.706-1.446 1.57-1.445zm82.13.625 2.527 2.512-.227.25zm81.806.657-.006 4.35-7.804 6.65.006-3.98zm-87.3 1.166.946 1.207 1.607-.094-.239 1.42.853.578-.834 1.074-.07 1.357-1.325-.293-1.089 1.207-1.067-1.16-1.26.134.045-1.41-1.285-.677.91-.916.03-1.58 1.87-.062zm38.566.137.775 2.195-19.505 11.702-1.7-1.81zm-51.023 1.407 1.55 1.082-20.473 12.138-.614-1.587zm-59.83-.539-.004 3.616-8.64 7.679.005-3.735zm81.002.966.25-.19 6.68 5.947-1.265 1.24zm-18.476 1.72.134 35.078-1.782-1.142.183-33.281zm1.098.811 1.45 1.184-1.392 1.255zm95.955-.182-.005 3.556-7.804 6.836.005-3.72zm-159.585 1.515-.005 3.343-8.64 7.616.005-3.378zm80.424.552c-.224-.003-.465.13-.819.387a31.34 31.34 0 0 1-1.744 1.118c-2.35 1.408-4.343 2.728-4.431 2.923-.182.404 2.17 3.249 5.436 6.66 1.283 1.341 1.247 1.6 2.539.41 1.027-1.076 4.79-4.02 4.682-4.808-.206-.904-1.496-1.932-4.698-5.946-.426-.506-.679-.739-.965-.744zm-14.493.35 5.12 6.794-.684.63-6.286-5.75zm-10.026.788-.036 32.727-9.64 6.314c.177.086-1.154-19.664-4.822-30.2zm23.948 1.182.941 1.63 1.428-.221-.19 1.496 1.208.88-1.192 1.52.156 1.082-1.4-.295-1.278 1.219-.874-1.554-1.84.025.26-1.492-1.283-.999 1.402-.763.197-1.36 1.207.097zm8.357.264.156 1.337-.857-.69zm-24.624 2.346-.011-1.913 6.132 5.487-6.278 5.427.047-2.581 3.574-3.14zm50.745-.997.868 2.441-12.624 7.167-2.54-1.225zm41.552 4.083c.864 0 1.568.649 1.567 1.448-.001.8-.707 1.45-1.571 1.45-.865-.002-1.564-.654-1.562-1.454 0-.799.701-1.445 1.566-1.444zm-80.292 4.61-4.427-4.107.558-.557zm11.424-3.673c-1.505 1.186-4.714 4.606-4.71 5.172.004.563 4.432 4.112 7.097 5.689.836.494 1.168.51 1.492.063 4.616-6.358 4.811-6.144 2.99-7.388-1.852-1.313-4.016-3.266-5.495-3.939-.623-.283-.731-.108-1.374.403zm-16.611.29 7.296 6.487-6.784 6.033-7.022-6.868zm-74.599.399c.865 0 1.564.649 1.562 1.448 0 .8-.701 1.446-1.566 1.445-.864-.001-1.563-.65-1.562-1.449.002-.799.702-1.445 1.566-1.444zm92.307 1.414 1.228 1.013 1.466-.352.328 1.34 1.413.482-.76 1.362.102 1.717-1.423-.248-.99 1.408-1.443-1.348-1.658.127.095-1.502-1.464-.656.93-.986-.58-1.351 1.754.257zm69.846.687c.864.001 1.563.649 1.562 1.448-.001.8-.702 1.446-1.566 1.445-.865-.001-1.569-.649-1.567-1.448 0-.8.706-1.446 1.57-1.445zm-91.401 3.304 4.32 4.098 3.985-3.525-4.214-4.125zm87.087-3.252c.864 0 1.563.648 1.562 1.448-.001.8-.702 1.45-1.566 1.449-.865 0-1.564-.654-1.563-1.453.001-.8.702-1.445 1.567-1.444zm-160 1.314c.864 0 1.563.653 1.562 1.453-.002.8-.702 1.445-1.567 1.444-.864 0-1.563-.649-1.562-1.448.002-.8.702-1.45 1.566-1.45zm4.584.02c.865 0 1.564.653 1.562 1.452 0 .8-.701 1.446-1.566 1.445-.864-.001-1.563-.649-1.562-1.448.001-.8.702-1.45 1.566-1.45zm72.437.41 1.965 1.879-1.824 1.773-2.032-1.938zm26.725 1.319c-1.008.667-3.752 5.458-4.223 6.512.003.254 1.32 1.028 2.967 1.743 1.405.608 5.962 2.306 6.382 2.4.916.207 1.074-.114 1.228-.666a98.76 98.76 0 0 1 .85-2.617c1.42-4.242 1.843-4.041-.258-4.688-.724-.223-2.998-.935-4.43-1.548-1.418-.607-2.06-1.144-2.516-1.136zm58.354.839c.865 0 1.568.648 1.567 1.448 0 .8-.707 1.45-1.571 1.449-.865 0-1.563-.653-1.562-1.453 0-.8.702-1.445 1.566-1.444zm-74.728 1.895.205 28.45-2.405-1.745-.025-28.544zm-10.774 4.835-6.655 6.247-.038-3.187 3.726-3.111-3.784-3.67.082-2.462c2.422 1.838 4.488 4.097 6.669 6.183zm-74.477-5.549c.864.001 1.563.65 1.562 1.449-.001.8-.702 1.45-1.567 1.449-.864-.001-1.568-.654-1.567-1.453.001-.8.707-1.446 1.572-1.445zm102.576.063 1.339 1.036 1.124-.623.644 1.065 1.612.21-.725 1.625.945 1.257-1.573.266-.393 1.734-1.54-.85-1.172.468-.85-1.47-1.824-.07.998-1.595-.936-1.262 1.323-.079zm-20.514.088-.015 2.509-2.896 2.707 2.899 2.925-.02 2.918-6.002-5.666zm30.834 1.685c-.605.016-.612.607-1.078 2.531a62.736 62.736 0 0 1-.714 2.486c-.88 2.88-.991 2.933 1.71 3.432 1.565.218 8.335 1.684 8.475.686.173-1.695.288-5.687.314-7.043.06-.455-.055-.884-.547-.939-3.087-.344-6.52-1.098-8.16-1.153zm-26.38.09c3.842 2.433 7.56 4.91 11.977 7.132l.07 29.258-12.114-8.366zm77.179.177-.005 3.587-8.093 7.127.005-3.426zm-47.354 1.188.698 1.389 1.473-.452-.011 1.658 1.311.767-1.583.673-.143 2.017-1.603-.459-1.321.755-1.167-1.137-1.432-.026.528-1.794-.923-.82 1.344-.608.111-1.6 1.436.796zm-111.965-.402-.005 3.457-8.81 7.48.004-3.024zm122.98 2.316 1.97 3.089-.715 1.247-1.322-.6-1.455.496.224-1.65-1.12-.827 1.136-.963-.05-1.212zm-52.122.955 6.738 6.473-6.883 6.555-6.737-6.565zm88.45 4.155-8.093 6.933.005-3.378 8.092-7.077zm-159.314-3.017-.005 3.373-8.81 7.614.004-3.126zm70.877 1.292-4.388 4.004 4.34 4.038 4.396-3.929zm.055 2.298 1.874 1.783-1.796 1.72-1.931-1.741zm-7.527 2.455 6.68 6.36-.769.836-5.922-4.264zm14.359.532.174 2.867-3.654 2.875 3.329 3.238.088 2.978-6.333-6.044zm77.942 3.004c.865.001 1.563.649 1.562 1.448 0 .8-.7 1.446-1.566 1.445-.865-.001-1.563-.649-1.562-1.448 0-.8.702-1.446 1.566-1.445zm-159.913 1.555c.864.001 1.563.65 1.562 1.449-.001.8-.702 1.45-1.567 1.449-.864-.001-1.563-.654-1.562-1.453.002-.8.702-1.446 1.567-1.445zm32.026.925-4.945 6.82 3.886 2.415-3.69 4.574 3.826 4.267-3.862 3.056 3.906 6.202c-1.556-.287-3.138-1.248-4.569-1.916l-2.945-5.196 3.399-2.696-3.44-3.702 3.619-3.954-3.62-2.356 3.96-5.615zm129.753 1.067c.864.001 1.563.65 1.562 1.449-.001.799-.702 1.445-1.566 1.444-.865 0-1.563-.649-1.562-1.448 0-.8.7-1.446 1.566-1.445zm-97.077-.23 34.034 24.323-.144 3.221-34.04-24.256-14.482 9.428.134-3.438zm92.906.42c.864 0 1.563.648 1.562 1.447-.001.8-.702 1.446-1.566 1.445-.866-.001-1.564-.649-1.562-1.448 0-.8.7-1.446 1.566-1.445zm-79.3 3.003-.359.062-3.713-2.513.811-.843s2.434 2.492 3.26 3.294zm-75.998-1.49c.864 0 1.568.653 1.567 1.453-.001.8-.707 1.445-1.571 1.444-.865 0-1.563-.649-1.562-1.448 0-.8.701-1.45 1.566-1.45zm-4.217.014c.864 0 1.568.648 1.567 1.448-.001.8-.707 1.445-1.571 1.444-.865 0-1.563-.649-1.562-1.448 0-.8.701-1.445 1.566-1.444zm161.81 2.105c.865 0 1.563.654 1.562 1.453-.001.8-.701 1.445-1.566 1.444-.865 0-1.564-.648-1.562-1.448 0-.8.701-1.45 1.566-1.449zm-159.929 1.409c.865 0 1.563.653 1.562 1.453 0 .8-.701 1.445-1.566 1.444-.865 0-1.563-.649-1.562-1.448.001-.8.701-1.45 1.566-1.45zm163.52 2.892-.004 3.195-7.65 6.838.004-3.084zm-103.123.835c1.136-.01 2.658.046 4.707.114 1.754.058 3.694.095 4.309.08 2.43-.057 3.221.708 3.262 3.134.036 2.157.027 2.15 3.079 2.272 3.68.148 4.65 1.022 4.696 4.236.018 1.252 1.11 1.744 3.254 1.465 3.379-.44 4.035-.01 4.422 2.893.323 2.423.148 2.298 3.243 2.282 3.328-.017 4.07.5 4.106 2.87.02 1.375.382 1.788 1.668 1.897 1.375.116 1.967.77 1.286 1.415-.123.117-.76.189-1.763.2-2.121.027-2.82-.59-3.211-2.839-.273-1.561-.444-1.642-3.264-1.573-3.597.088-3.878-.114-4.264-3.016-.33-2.493-.783-2.749-3.877-2.212-2.249.39-3.438-.528-3.727-2.87-.324-2.626-.45-2.722-3.64-2.83-3.197-.108-4.087-.63-4.112-2.406-.039-2.753-.414-3.003-4.345-2.898-1.908.05-3.861.017-4.984-.091-2.381-.23-2.368-.242-2.61 1.873-.36 3.16-.86 3.45-5.381 3.137-1.888-.131-2.023-.05-2.154 1.278-.164 1.663-.831 2.688-1.342 2.06-.267-.329-.269-.36.004-2.794.304-2.724.338-2.745 4.18-2.467 2.602.188 2.476.275 2.758-1.911.342-2.66.29-3.273 3.7-3.3zm-56.067-.318-.005 3.506-8.938 7.655.005-3.397zm27.731 4.154 1.94 2.456-.636 4.564-1.652 1.147 1.166 2.17-.378 2.665-.464.244-3.233-5.821 3.84-3.117-3.925-4.438 3.72-4.625-3.85-2.51 4.64-6.3c.804-.9.846 2.679.846 2.679l-1.923 2.684 2.143 1.715h.006l.001 4.25-2.24 2.237zm2.455-2.063.217-5.722-1.672-1.201 1.295-1.983-.081-5.07-.39-.246c-3.166-36.291-22.346-57.756-25.346-62.623 0 0-.667-.496-.543-1.743.054-.541.085-3.74.066-7.109-.097-17.2.077-28.983.077-28.983L31.08 804.557l.075 5.094.692.462-.035 23.19-.587.029s-.19 6.234-.15 10.517l.84.023-.073 15.934-.715.078.026 10.324.778-.002s.167 10.825-.119 16.089l-.58.031.026 10.262.656.047.022 14.678-.809.112.206 9.689.66.035c.23 5.986.102 16.335.102 16.335l-.755.031.171 9.62.542.034-.182 16.887-.493.054.175 9.975.532.046-.101 8.294-.367.058-.092 3.101.39.823.01 11.052-.298.12-.095 5.551 21.93-20.45-8.062-.234.015-6.617c.019-10.922.187-19.735-.151-30.388-.106-.095-.905-.214-1.779-.262-4.15-.23-5.275-.542-5.288-1.462-.016-1.14 1.867-2.549 3.428-2.568.353-.004.946-.328.946-.328l-.33-121.175-9.786-9.502.046-3.013 12.057 11.832.283 121.115.458-.2.091-40.673c6.177 8.565 9.635 17.05 13.065 25.535 0 0 1.218-.386 1.268-.41.01-.009-.434-.143-.434-.143-3.496-10.843-7.928-18.707-13.679-26.917l.139-39.418c14.727 19.29 21.836 36.632 24.765 61.617l-7.473 3.44-.725.894-5.644 2.6-.54-.833-3.422 2.186c2.635 4.266 2.529 10.39.371 13.632l.926.534c.063.235 3.552-6.628-.33-13.618l2.55-1.448c3.665 7.03 1.948 14.595.214 16.542 0 0 2.66 1.571 4.569 2.533 2.077 1.046 3.922 2.002 6.412 2.748 1.534.579 2.51-.099 2.505-.113l.751-3.92-1.183-1.497 1.383-1.027.637-6.004-1.481-1.387zm128.998 1.758-.005 3.869-7.65 6.684.005-3.806zm-159.195 3.951-8.938 7.566.005-3.151 8.938-7.74zm156.145 5.344c.865 0 1.568.653 1.567 1.453 0 .8-.706 1.445-1.571 1.444-.865 0-1.563-.649-1.562-1.448 0-.8.701-1.45 1.566-1.45zm-152.59 2.158-.043 35.697H42.52l.16-36.135zm-7.885-.334c.865 0 1.563.649 1.562 1.448 0 .8-.701 1.446-1.566 1.445-.864-.001-1.563-.65-1.562-1.449.001-.8.702-1.445 1.566-1.444zm158.243 1.572c.865 0 1.563.648 1.562 1.448 0 .8-.701 1.45-1.566 1.449-.865 0-1.568-.654-1.567-1.453 0-.8.706-1.445 1.571-1.444zm4.217.066c.865.001 1.563.649 1.562 1.448 0 .8-.702 1.446-1.566 1.445-.865-.001-1.568-.65-1.567-1.449 0-.799.706-1.445 1.571-1.444zm-160.022 1.98c.865.002 1.569.654 1.568 1.454-.001.799-.707 1.445-1.572 1.444-.864 0-1.563-.649-1.562-1.448.001-.8.702-1.45 1.566-1.45zm80.597.14c8.155.944 5.984 8.852 2.543 10.492-4.684 2.01-8.427-2.054-5.432-6.165 2.198-3.016 6.368-1.015 4.75 2.292-.91 1.862-2.792 1.642-2.772-.242.675-1.79.057-1.153-.47-.522-1.652 1.983 1.674 4.093 3.388 2.136 1.052-1.2 1.274-2.628.916-3.77-.61-1.948-3.041-3.09-5.796-1.29-3.292 3.64-5.056 8.356-6.035 13.631-2.082 11.227-2.203 23.042-3.982 26.036l-1.931-.045c2.826-12.849 2.855-23.849 5.867-33.977 1.49-5.021 5.28-8.59 8.954-8.575zm-84.875-.04c.865 0 1.563.653 1.562 1.452-.001.8-.701 1.446-1.566 1.445-.865-.001-1.563-.649-1.562-1.448.001-.8.702-1.45 1.566-1.45zm33.091.238c-2.15.037-4.336 1.681-4.171 3.786.2 2.554 1.836 3.695 4.529 3.441 1.44-.135 1.402-.157 2.37 1.45.87 1.445 3.164 7.615 3.177 8.55-1.104-1.36-3.683-3.882-6.067-3.78-2.56.17-4.717 2.41-2.787 5.588 1.026 1.56 2.856 1.866 4.718 1.354 2.778 4.009 3.298 8.021 4.176 12.678 0 0 1.114-9.963 1.453-13.938.642-6.091 1.547-10.035 4.103-14.863-2.124-1.136-4.399-2.03-6.687-2.848-.908-.325-1.864-.332-2.765-.877-.621-.387-1.332-.553-2.049-.541zm129.386.969c.864 0 1.563.649 1.562 1.448 0 .8-.702 1.45-1.566 1.45-.865-.002-1.563-.654-1.562-1.454 0-.8.7-1.445 1.566-1.444zM72.685 954.02c1.608 2.424 3.175 5.921 3.31 8.122.054 1.457-.26 3.245-.53 4.917-.133.827-.47.02-1.078-1.767-2.524-7.416-3.192-8.836-4.955-8.468-1.003.21-2.047.244-2.73-.105-2.232-1.142-2.431-4.961.83-5.687 2.579-.516 4.235 1.603 5.153 2.988zm-.055-1.842c3.248 1.187 5.32 2.974 4.724 5.877-.263 1.091-.438 1.991-.754 1.875-.366-.135-.867-1.446-1.873-3.7-.228-.73-2.54-4.038-2.097-4.052zm53.78.19c.172-.022.44.128.807.446 2.56 2.335 1.161 7.592-2.253 9.102-1.405.892-3.99.742-4.003-.122-.004-.336.077-.426.436-.43 2.871.023 5.928-3.662 5.088-7.592-.103-.59-.296-1.375-.075-1.403zm-89.32 1.17c.865 0 1.563.649 1.562 1.448 0 .8-.701 1.45-1.566 1.45-.864-.002-1.568-.654-1.567-1.454.001-.8.707-1.445 1.571-1.444zm92.01.555c.18-.024.802.224 1.213.684 2.41 2.693.444 7.272-3.352 8.838-1.45.723-2.67.222-2.362-.524 2.587-.988 5.029-3.55 4.778-7.06-.096-1.231-.54-1.901-.277-1.938zm-51.163.427.877.387-.364.702c-.168-.42-.165-.584-.513-1.089zm53.907.357c.192-.004.623-.063 1.03.303 1.558 1.404 1.8 5.336.298 7.278-.705.91-2.89 2.564-3.54 2.73-.76.085-1.286.188-2.547-.344-.423-.013.19-.382.987-.806 2.828-1.505 4.706-4.194 4.218-6.72-.301-1.564-.813-2.434-.446-2.441zm2.86 1.271c.75.06 1.328.67 1.683 1.186 1.852 2.465.303 7.647-3.495 8.717-2.529.712-3.47.034-1.421-1.068 2.942-1.583 4.472-4.681 3.626-7.145-.406-1.178-.791-1.665-.393-1.69zm3.06 1.808c.884.013 1.568.64 1.879 1.286.73 1.592.612 3.821-.344 5.388-.953 1.563-2.775 2.861-4.795 3.05a3.002 3.002 0 0 1-1.385-.188c-.887-.355-.582-.407 1.09-1.214 2.665-1.284 4.241-3.958 3.842-6.915-.15-1.109-.631-1.405-.287-1.407zm-96.426-.655-.005 3.82-8.7 7.574.005-3.73zm73.834.584c.166.158 1.145 2.327 1.267 2.774-2.04 2.704-2.62 7.146-2.94 10.512-1.163 9.537-2.372 21.054-2.894 21.16l-2.262.044c.861.532 1.99-15.816 3.758-26.172.136-.813 2.026-8.803 3.071-8.318zm26.288 1.723c2.982 1.871 1.38 7.698-2.773 9.135-1.507.534-2.06.602-2.742-.012-.43-.387-.84-.518.256-.875 3.07-.736 5.24-3.383 4.727-6.461-.06-.749-.82-2.727.532-1.787zm-24.146 1.585 1.356.808c-1.47 4.035-2.017 8.794-2.623 13.4-.732 5.573-1.378 11.31-2.264 16.782l-2.077.066c1.089-3.38 1.602-12.826 2.688-20.738.632-4.005 1.322-9.513 2.92-10.318zm2.354 1.321 1.74.935c-.619 2.251-1.35 4.719-1.713 7.08-.807 5.252-1.13 11.622-2.983 21.422l-1.882.145c.478-3.148 1.386-10.159 2.16-16.61.899-7.49 2.302-13.154 2.678-12.972zm-78.337-.347-.005 3.75-8.7 7.387.005-3.454zm81.28 1.536s1.496.782 1.685.873c-1.136 4.137-1.694 7.982-2.256 11.734-.758 5.059-1.323 9.98-2.368 15.541l-2.006.115c1.004-4.264 2.161-14.283 3.07-21.347.528-4.102 1.611-6.996 1.875-6.916zm-47.852 8.365c.022 2.827-.654 7.208-.654 7.208-.264.14-1.076-6.42-3.936-9.389-3.492 1.532-6.498-2.075-4.115-4.55 4.65-3.688 8.707 4.206 8.705 6.73zm50.467-7.234 2.427 1.039c-.299-.048-.874 1.498-1.436 3.91-1.712 7.351-3.42 21.84-3.696 21.835l-1.874.14c.613-3.891 1.455-10.04 2.335-15.479.997-6.162 1.925-11.414 2.244-11.445zm3.373 1.413 1.844 1.028c-.16-.108-.83 1.717-1.156 2.987-1.672 7.333-2.431 13.762-3.468 20.875l-2.013.24c-.152.206 1.756-13.999 3.324-21.172.536-2.45 1.32-4.04 1.469-3.958zm2.875 1.28 1.977.906c-2.159 5.625-2.366 11.009-4.443 22.303l-2.09.346c.851-7.23 2.056-14.996 3.78-22.072.238-.95.754-1.463.776-1.483zm2.826 1.325 2.224.828-4.688 20.734-1.879.233c1.179-5.978 1.794-12.89 3.378-18.338.336-1.155.525-2.453.965-3.457zm-96.904 3.167c.865.001 1.568.65 1.567 1.449 0 .799-.706 1.445-1.57 1.444-.865 0-1.564-.649-1.563-1.448.001-.8.702-1.446 1.566-1.445zm2.04 3.397c.865 0 1.568.653 1.567 1.452 0 .8-.707 1.446-1.571 1.445-.865-.001-1.563-.649-1.562-1.448 0-.8.701-1.45 1.566-1.45zm-4.074.084c.865.001 1.568.65 1.567 1.449-.001.8-.707 1.45-1.571 1.449-.865-.001-1.563-.654-1.562-1.453.001-.8.702-1.446 1.566-1.445zm1.948 3.34c.864 0 1.563.653 1.562 1.453-.001.8-.702 1.445-1.566 1.444-.865 0-1.569-.649-1.567-1.448 0-.8.706-1.45 1.57-1.45zm14.149 4.85-18.795 17.559-.053-3.514 12.882-11.666-12.964-.198.033-2.378zm-8.608 3.341-10.07 8.865-.072-9.027zm10.742.663s-.056.323.886 1.853c2.737 4.414 3.366 8.49 5.784 13.218 1.204 2.588 3.92 5.202 4.527 5.351l-3.029 5.108 85.243-.061-13.615-22.042c-21.662 3.68-41.119 3.006-59.406.022-1.05 1.3-2.203 3.95-3.307 5.866-2.722-6.8-11.452-11.198-17.083-9.315zm3.101.594c4.505-.054 8.256 1.931 11.584 6.135 1.06 1.34 1.47 1.944 1.466 2.506-.113.65-1.513 2.725-1.513 2.725s-.807-2.063-.998-3.062c-1.217 4.123-1.693-.657-2.157-1.918-1.483 3.983-2.272-1.495-2.195-2.972-2.015 2.552-1.88-1.644-2.859-2.425-.027 2.214-1.433.698-3.257.223.953 1.24 2.81 2.072.436 2.343 2.365 1.514 3.55 1.284 1.253 2.115 1.768.905 4.68 1.995 1.458 2.585 1.967 1.15 5.133 1.637 1.727 2.73 2.57 1.457 5.993 1.357 1.176 2.52 1.744.945 4.818 1.302 1.376 2.118.531.22 1.452.793 1.452.793l-1.49 2.17s-.536-.04-.9-.395c-1.578-1.526-3.11-4.334-4.48-8.267-1.007-2.893-2.207-5.95-3.532-8.489-.715-1.342-.649-1.41 1.453-1.435zm76.121 5.052 11.754 18.655-2.795.036-10.378-15.971-14.035 1.449 4.6 14.273-4.17.1-4.12-14.04c-7.835.282-15.309.354-21.823-.137l-2.229 14.235-3.979-.128 2.541-14.09-13.165-1.573-7.166 15.798-4.114.068c2.661-4.14 9.31-17.506 10.551-18.821 28.679 4.28 43.576 2.009 58.528.146zm-2.758 4.318 8.899 14.351-14.329.043-4.794-13.284zm-53.61.355c2.825.766 5.867.935 8.93 1.043l-2.623 12.827-12.696-.04zm35.735 1.554 3.351 12.463-23.9.085 1.99-12.418c6.272.355 12.4.042 18.56-.13z"/></g><g stroke-width="3.181"><path d="M173.762 978.265h3.211v-11.171h-3.21z"/><path d="M193.012 983.608c2.528-4.564.888-10.32-3.662-12.855-4.55-2.536-10.289-.892-12.817 3.672a9.451 9.451 0 0 0-1.163 3.951c-.352-5.21-4.849-9.146-10.042-8.792-5.194.354-9.118 4.864-8.765 10.074.354 5.209 4.85 9.145 10.044 8.79a9.543 9.543 0 0 0 3.906-1.141c-4.451 2.678-5.908 8.483-3.237 12.964 2.671 4.482 8.459 5.943 12.927 3.264 4.468-2.68 5.925-8.484 3.254-12.966a9.543 9.543 0 0 0-3.27-3.282 9.424 9.424 0 0 0 12.825-3.679z"/></g></g></svg>