<svg xmlns="http://www.w3.org/2000/svg" width="234" height="333"><g transform="translate(0 -719.362)"><rect width="233.244" height="332.244" x=".378" y="719.74" fill="#fff" stroke="gray" stroke-width=".756" rx="8.919" ry="8.946"/><path fill="red" d="m17.206 761.811 9.414 9.446-9.414 9.445-9.415-9.445z"/><g fill="red" aria-label="J" font-family="Levenim MT" font-size="3.772" font-weight="700" letter-spacing="0" style="line-height:0%;-inkscape-font-specification:&quot;Sans Bold&quot;" word-spacing="0"><path d="M23.441 846.622q0 3.884-.405 5.634-.705 3.051-2.988 4.524-1.814 1.195-4.353 1.195-5.185 0-8.834-4.546l4.31-4.033q2.411 2.732 4.375 2.732 1.344 0 1.728-1.665.17-.725.17-2.71v-21.958h5.997z" font-size="43.703" style="line-height:1.25" transform="scale(1.13562 .88058)"/></g><g fill="red" aria-label="J" font-family="Levenim MT" font-size="3.772" font-weight="700" letter-spacing="0" style="line-height:0%;-inkscape-font-specification:&quot;Sans Bold&quot;" word-spacing="0"><path d="M-182.614-1165.378q0 3.883-.406 5.633-.704 3.052-2.987 4.524-1.814 1.195-4.353 1.195-5.186 0-8.835-4.545l4.31-4.033q2.412 2.731 4.375 2.731 1.345 0 1.729-1.664.17-.726.17-2.71v-21.958h5.997z" font-size="43.703" style="line-height:1.25" transform="scale(-1.13562 -.88058)"/></g><path fill="red" d="m58.63 804.63 18.829-18.89-18.83-18.891-18.828 18.89ZM216.794 991.022l9.415 9.446-9.415 9.445-9.414-9.445zM175.37 1004.876l18.83-18.891-18.83-18.891-18.829 18.89z"/><g stroke-width="3.181"><path fill="#131f67" d="m30.562 1014.215-.176-256.812 173.228.509-.148 256.41zm62.405-213.917c-6.193-1.56-6.05 4.098-1.515 4.314 5.083.409 7.27-7.554 4.848-10.697 0 0-2.121 5.999-3.333 6.383zM52.722 832.24l-7.445 3.043-.037 5.107c3.106-2.265 5.535-5.03 7.482-8.15zm50.565 153.518c-1.464-.682-3.227-2.143-2.956-2.4.135-.126.928.105 1.647.404 5.811 2.259 10.325 2.119 17.262-.186.525-.175 1.307.746 1.014 1.251-3.076 4.172-13.01 2.676-16.967.93zm-3.057-6.27c-1.332-1.846.437-.446 1.03.077 4.297 3.684 10.123 4.938 15.132 1.477.233-.237.264-.457.195-.623-.14-.34-.144.022-2.284.702-4.805 1.647-8.85.285-12.793-2.498-1.624-1.154-2.378-1.722-2.378-2.024 0-.276.304-.448.851-.36.339.053 1.284.235 1.976.288 1.2.092 1.109.045 2.34-.476 2.634-1.114 5.058-1.519 7.807-1.063.637.106 1.437.3 1.545.268.617-.188-.29-.936-2.618-2.638-.459-.335-1.029-.622-1.218-.912-.293-.45.027-.57.36-.566.958.012 5.259 3.327 6.732 5.293.448.598.758.661.759 1.283-.087.645-.2 1.263.558 2.167.544.65 1.069 1.692 1.073 1.742.006.057-.108.383-.607.08-.227-.039-.337-.263-.753-.208-.363.048-.952.31-1.6.59-6.037 3.56-11.59 1.812-16.107-2.6zm13.216-.234c.12.011-.414-2.04-1.02-2.645-1.196-1.194-3.023-1.414-4.129-.195-.622.686-1.307 2.6-1.307 2.6s.967.263 1.237.263c.04-.43.044-1.628 1.005-2.33.474-.341 1.492-.33 1.888-.045.786.356 1.117 1.794 1.127 2.354.43.123 1.421.013 1.199-.002zm-7.29-2.963c-.85.348-1.956.581-2.21 1.104-.336.69.844.9 1.459 1.134.85.378.868.24 1.144-.362.172-.376.4-.866.617-1.317.637-1.129.003-.973-1.01-.56zm9.202 1.974c.49-.45.582-.747.146-1.258-.197-.232-.76-.468-1.374-.659-.788-.245-1.132-.541-.638.441l.704 1.403c.362.673.68.494 1.162.073zm-80.42-47.995c.3 0 3.27-.891 4.327-1.322 1.048-.366 1.173-.356.757-.89-.156-.2-.281-.763-.205-1.38l.08-.86c-1.829-.345-4.562.584-5.504 1.76-.67.75-.603 2.424.545 2.692zm-.379 4.198c.556.512.71.53 2.379-.037.584-.359 1.807-.806 2.664-.857 2.011-.489 2.012-.295 1.444-1.48-.261-.544-.346-.995-.264-1.498.098-.597.176-.678-.19-.784-.96-.278-5.436 1.255-6.24 2.45-.564.842-.49 1.563.207 2.206zm104.987 36.46c-.293.4-.8 1.113-1.014 1.594-.368.83-.146.99-.001 2.62.083.945.103 2.413.105 3.202.003 1.51-.021 1.979.48 2.068.443.08.647-.226.86-1.013.106-.393.361-.804.439-1.053.318-1.699.906-4.534 2.239-5.725.185-.14.727-.228 1.71-.238 1.203-.012 1.587-.043 1.96-.299 2.109-1.691.452-3.883-1.427-4.039-2.175-.176-5.177 2.583-5.351 2.883zm8.36-.7c.13 1.95-1.984 3.274-4.13 2.82-.87-.202-1.132-.02-1.717 1.122-1.27 3.132-1.776 6.273-2.115 8.329-.148 1.849-.893 6.662-.36 8.196 6.11 6.962 12.542 14.15 19.586 21.316l41.957.104.318-45.42-12.171-10.612.048-16.8c-13.053 5.635-26.066 11.35-39.094 17.035 2.826 8.37-6.797 10.113-8.898 4.503-1.828 1.537-3.337 9.842-2.664 10.253 0 0 .241.3.646-.36a6.913 6.913 0 0 1 2.47-2.416c2.715-1.541 5.941-.775 6.123 1.93zm-33.393-.888c-2.057-1.507-.951-3.8.76-4.487.907-.363 2.362-.312 3.963.21 1.406.595 2.246.513 3.687.351.957-.096.777 1.745-.223 2.22-.704.333-2.318.173-4.28-.858-3.385-1.777-4.877.52-2.782 2.598 1.162 1.145-.828.226-1.125-.034zM44.81 941.747c1.813-1.069 1.064-2.96-.623-3.278-2.272.041-2.853 2.438-1.229 3.269 0 .291-.808.052-1.244-.249-.677-.467-.056-2.29-.686-2.363-.48.007-5.174 1.527-5.68 1.831-2.11 1.098-.135 3.583 1.089 3.3 2.541-.586 5.995-1.107 8.373-2.51zm-10.48-3.56c.042 1.106.378 1.598 1.167 1.609 1.652-.262 3.189-.983 4.73-1.44 1.205-.361 1.694-.77.778-1.462-.278-.293-.524-.713-.388-1.51.316-.912.075-.958-.346-1.003-.419-.045-1.377.323-3.836 1.188-1.294.455-1.543.652-1.88 1.306-.15.5-.244.808-.225 1.312zm13.658 14.288c.285-.307.918-2.234.919-2.71-.127-.794-.769-.974-1.337-.462-.692.567-.507 1.426-.918 2.084-.143.229-.295.546-.253.674.221.693 1.148.821 1.59.414zm5.396-10.486c21.055-20.566 34.121-49.043 11.391-88.369-2.554-1.003-3.348 2.816-3.593 2.972l-2.915 2.329c15.39 24.476 12.671 52.606-6.216 72.588l.018 1.27c.04 2.794.916 2.674 2.196 1.368 1.355-1.311.448-.243-.106.297-.477.464-1.237 1.388-1.44 1.629.246 1.676 1.39 4.802.665 5.916zm-1.386-6.189c-.216-.556-.444-1.827-.56-2.805-.072-.637-.1-1.238-.135-1.86-.222-1.239-.767-4.08-1.212-4.706-.48-.675-1.654-1.17-2.966-1.249-1.12-.067-1.213-.049-1.453.286-.41.576-.134 3.484.281 4.55.468 1.252.191 1.931-.191 3.17-.134.449-.182.48.059.511 1.049-.066 1.4-1.249 1.814-.896.14.13-.225 1.1-.717 2.08-.518 1.035-.673 2.46-.062 4.216.343.982.196 1.293-.013 1.885-.14.396-.384 1.609-.393 2.816.487 1.515.24 2.192-.048 2.692-.628 1.284-1.114 3.024-.779 4.002.147.429.534.062.818-.672.443-1.45.959-1.773 2.254-1.771.944 0 1.032.305 1.345-.083.71-.88 2.444-4 2.479-4.87.672-2.218.708-4.125-.521-7.296zm10.034 14.588c.572-.199 1.452-1.309 1.453-1.692.003-.422-3.52-3.579-4.987-4.45-.664-.395-.98-.116-2.158 1.338-1.047 1.291-1.184 1.302-.99 1.552.233.3 3.822 2.452 5.014 3.063.412.21 1.111.383 1.668.19zm6.615-5.603c-.525-.372-4.738-4.678-5.99-4.893-.476-.082-2.005 1.514-2.005 1.876 0 .25 2.63 2.719 4.495 4.22.533.428 1.121.78 1.308.78.594-.28 2.116-1.407 2.192-1.983zm4.489-4.052c0-.255-.464-.78-1.6-1.808-2.889-2.616-4.499-3.814-5.007-3.81-.554.167-1.558 1.717-1.619 2.256.188.324 5.023 4.366 5.65 4.759.772.687 2.467-.911 2.576-1.397zm4.545-4.163c.125-.383-.117-.711-.729-1.252a533.348 533.348 0 0 1-3.425-3.091c-3.04-2.762-3.047-2.764-4.026-1.477-1.009 1.326-1.003 1.336 1.96 4.001 3.16 2.842 3.9 3.419 4.39 3.42.751-.318 1.57-.848 1.83-1.6zm-33.92-2.53c-.53-.147-1.018-.061-1.435.244-2.245 1.75.933 4.01 2.243 2.605.872-.79.839-2.487-.809-2.849zm38.584-1.789c0-.294-.652-.953-2.91-2.941-5.59-4.92-5.338-4.732-5.96-4.428-.387.19-1.14 1.51-1.14 2-.001.368.536.878 4.678 4.445 2.43 2.091 3.148 2.62 3.567 2.62.664-.3 1.736-.953 1.765-1.696zm-38.44.139c1.1-.439 1.306-1.532.684-2.397-1.194-.97-2.857-.172-2.886 1.077.205 1.17 1.284 1.665 2.202 1.32zm43.045-4.258c0-.587-9.57-8.838-10.252-8.84-.463 0-.795.345-1.232 1.277-.378.81-.34 1.288.134 1.709.692.613 2.536 2.18 4.29 3.645 1.038.866 2.231 1.9 2.651 2.298.984.932 2.068 1.653 2.484 1.654.594-.318 1.42-.748 1.925-1.743zm-43.54-1.115c.01-.331-.082-.669-.339-.921-.657-.645-1.88-.307-2.188.545-.283 2.006 2.436 2.098 2.527.376zM50.6 862.89l1.881-5.267 5.727-.128.81-5.237 5.894-.773.103-5.412 5.639-.701-.34-5.796 5.23-1.132-.253-5.366 4.753-1.334-.184-4.67.818-.588-2.052-1.923-1.77.526-.04 4.8-4.746 1.399.492 5.31-4.797 1-.068 5.776-5.511.562-.4 5.094-5.377.967-.808 4.99-5.217.32-1.598 4.385-3.446.032-.004 2.936zm62.17 94.348c-.18-.396.29-.336 1.108.14.856.499 2.103.915 2.99.918.37 0 1.69-.214 2.936-.478 1.488-.5 2.808-.529 4.353-.22 1.149.144 2.305.26 2.57.259.767.1 2.07-.77 2.42-1.318.946-1.485.718 1.215.721 1.523.015 1.383.201 2.973-.875 2.232-.637-.304-1.75-.574-2.639-.03-.895.548-1.635.664-2.682.083-.86-.313-1.314-.379-1.958.17-.718.612-2.457.391-3.389.109-1.601-.247-2.497-.462-3.572.318-.573.301-.72.076-1.15-1.092-.429-1.167-.768-2.469-.834-2.614zm4.078-.97c-.102-.152.759-.925 1.34-1.2 1.705-.809 5.09-.768 7.51.057 1.26.43 1.454 1.163.227 1.008-2.554-.496-5.758-.905-8.228.172-.193.096-.802.034-.85-.038zm2.166-3.667c-1.746-.598-2.603-1.234-2.602-1.436 0-.218.375-.177 1.748.17 1.87.64 4.081.978 5.928.387 1.328-.45 1.99-.735 1.99-.463 0 .287-.55 1.034-1.462 1.463-1.817.678-4.212.352-5.602-.121zm37.924-4.416 1.297-.162-.443-4.975 4.777-1.298-.328-4.947 5.091-1.605-.295-5.569 5.29-.951.696-4.873 4.993-.32 1.043-5.301 5.363-.164 1.111-4.405 3.569-.016-.012-2.475-5.56.009-1.183 4.768-5.247.133-1.12 5.238-5.501-.044-.712 5.646-5.174.774-.005 6.081-4.992 1.184.38 5.2-4.987 1.667.556 4.963zM190.442 831.5c-.714.466-.985 1.392-.765 2.146.7 1.707 3.174 1.178 3.468-.063.147-.538-.24-1.35-.915-1.528-.118-.031-.538.004-.756-.203-.158-.15.826-.612 1.406-.436.723.22 1.314 1.102 1.314 1.863 0 .296-.092.734.025.881 1.196-.026 2.567-.629 3.85-.954 2.167-.55 2.953-1.692 2.474-3.03-.399-1.117-1.64-1.56-3.272-.998-2.24.772-4.87 1.139-6.829 2.322zM97.747 953.518c7.346-4.732 11.671-7.437 21.09-7.893-3.358-1.275-3.905-2.945-4.847-4.544-11.67 1-17.87 4.419-23.418 7.61 2.29.995 4.68 2.151 7.175 4.827zm40.915-6.526c-3.556-2.317-7.788-3.72-12.18-4.806l-3.371 3.204c-.196-.115 9.749.104 15.551 1.602zm34.211-30.39c-22.905-32.458-7.447-60.976 8.538-79.14.514-.597.638-.627.523-1.102-.151-.626-.335-3.777-.215-5.598-29.539 26.848-30.344 61.87-11.88 89.689 1.324-1.086 3.993-2.53 3.034-3.849zm3.446-2.77c-3.76-5.774-23.782-37.037 6.917-71.85 0 0-.102-1.778-.33-2.446-.41-1.197-1.05-1.68-1.05-1.68-12.897 17.754-31.638 39.966-8.326 78.608zm-17.466-58.816c.46-.344 1.128-1.593 1.128-2.109 0-.46-.36-.845-3.813-4.075-4.603-4.306-5.397-4.964-5.987-4.965-.558 0-2.014 1.266-2.015 1.752 0 .233 1.354 1.578 4.551 4.52 5.933 5.46 5.653 5.238 6.136 4.877zm4.257-7.915c0-.26-.426-.773-1.434-1.73-2.661-2.526-6.457-5.727-6.79-5.727-.425 0-1.59.863-1.896 1.406-.215.382-.211.469.04.83.47.677 6.408 5.872 8.096 7.18 1.013.858 1.935-1.308 1.984-1.96zm2.302-3.215c.471-.231 1.367-1.765 1.26-2.158-.05-.183-1.556-1.677-3.347-3.32-3.542-3.25-3.748-3.367-4.633-2.641-.802.657-1.304 1.316-1.206 1.58.12.324 5.423 5.294 6.506 6.099.857.636.957.667 1.42.44zm27.065-.208c1.67-1.47-.218-3.085-1.591-2.342-.584.33-.933 1.054-.755 1.536.296.798 1.472 1.235 2.346.806zm3.301-.371c2.823-.678 4.175-1.132 4.766-1.94.41-.559.457-.903-.002-1.816-.423-.843-.918-1.101-2.687-.213-1.214.61-3.918.9-4.864 1.412-.378.3-.194.296.11.474.68.398 1.012.67.937 1.195-.163 1.143-.035 1.319 1.74.888zm-2.98-4.07c1.37-.644 1.096-2.2-.433-2.819-2.019-.491-3.323 1.742-1.671 2.833.442.286 1.566.237 2.104-.015zm4.553-.625c1.981-.622 2.744-1.11 3.317-2.116.454-.797.261-1.154.203-1.925-.09-1.17-.729-1.037-2.576-.427-.902.319-5.216 1.43-5.277 1.836 2.08 1.097 1.548 1.673 1.563 3.07.109.317 1.086.09 2.77-.438zm-27-1.895c.001-.528-5.526-5.519-6.113-5.52-.914 0-2.225 1.304-2.03 2.021.088.326 5.272 5.135 5.919 5.492.906.489 2.166-1.198 2.225-1.993zm3.186-3.103c.239-.173.663-.618.942-.99.598-.797.556-1.242-.157-1.663-.26-.155-1.42-1.121-2.575-2.15-1.157-1.027-2.252-1.918-2.434-1.98-.954-.118-2.68 1.285-2.503 2.004.103.377 4.34 4.223 5.285 4.798.611.372.905.368 1.442-.02zm7.505-7.416c0-.142-.962-.713-2.502-1.485-4.71-2.36-4.791-2.377-6.266-1.276-.505.378-.92.809-.92.957 0 .151 1.02 1.16 2.321 2.294 2.7 2.355 3.364 2.863 3.74 2.864.78-.525 3.506-2.702 3.627-3.354zm6.601-2.206c.583-.64 1.24-2.86.93-3.307-.286-.263-1.02-.224-1.373.07-.364.301-1.265 3.09-1.127 3.421.14.337 1.065.18 1.57-.184zm-51.625 94.46c.447-.054 1.32-.554 2.593-1.556 1.359-1.07 5.663-3.452 6.132-4.41.21-.546.059-1.329-.39-1.389-.34-.045-.414.194-3.276 2.086-1.931 1.277-5.324 3.558-5.834 4.042-.222.518.277 1.172.775 1.227zm-.422 15.275c2.947-1.875 5.335-3.817 9.176-5.988.297-.359.343-.894.163-1.332-.223-.54-.533-.327-1.695.413-2.832 1.75-5.745 3.81-8.184 5.337-.782.486-1.44.755-1.276 1.029.219.363 1.427.475 1.816.541zm2.861 1.156c1.938-1.454 4.257-2.842 6.327-4.248.29-.265.366-1.16.07-1.528-.234-.29-.04-.236-.613.062-.837.435-5.85 3.569-6.784 4.278-.544.412-.997.619-.863.763.626.371 1.29.6 1.863.673zm2.432 1.131c.401-.246 3.846-2.265 4.123-2.534.317-.307.227-1.684-.08-1.793-.871.635-5.465 3.2-5.474 3.615.467.386 1.083.743 1.431.712zm3.68.286c.53-.444.635-.52.647-1.02.021-.903-.222-.865-1.625.054-.98.581-1.577.99-1.402 1.34.695 1 1.683.213 2.38-.374zm.377 1.848c.275-.093.277-.224.238-.54-.043-.351-.1-.336-.515-.337-1.115.037-.111.967.277.877zm-13.394-5.077c.508-1.535 1.219-2.749 2.379-3.899 4.635-3.767 3.227-8.412.309-12.196a323.049 323.049 0 0 0 10.83-14.743v-7.685l.437.043c-.175 16.77.618 44.27.618 44.27l3.758 2.643-.507.23c.619-.088-10.94-6.762-17.824-8.663zm3.402-1.91c3.206-2.219 6.323-3.963 9.502-6.325.338-.256.538-.27.548-.85.02-1.108-.22-1.12-1.408-.34-.526.346-2.454 1.581-4.283 2.714-1.91 1.181-3.678 2.232-4.033 2.61-1.79 1.903-2.451 2.799-2.269 3.072.192.285.554-.023 1.943-.882zm3.5-5.382c1.647-.994 5.588-3.503 5.947-3.812.624-.539.735-1.398.172-1.497-.275-.049-3.325 1.816-5.903 3.608-1.255.872-1.534 1.074-1.535 1.897-.001.5.327.404 1.32-.196zm1.647-3.912c5.05-3.292 4.92-3.013 4.812-4.242-.036-.415-.135-.603-.336-.639-.157-.027-1.05.56-2.055 1.21-1.005.648-2.203 1.518-2.804 1.9-1.755 1.118-2.336 1.418-2.337 2.059 0 .632.184 1.03.489 1.031.114 0 1.118-.593 2.23-1.319zm-.72-2.555c2.326-1.507 4.889-3.206 5.238-3.61.425-.491.35-1.56-.19-1.56-2.335 1.43-5.144 3.31-7.12 4.795-.255.207-.58.404-.681.674-.02.35.456.81.646.825.385.003.976-.392 2.107-1.124zm-1.506-5.11c1.776-1.103 3.391-2.414 5.155-3.527 1.325-.832 1.7-1.09 1.623-2.137-.045-.604-.623-.257-2.867 1.113-1.645 1.006-2.401 1.403-2.985 2.09-.41.87-1.76 1.684-1.833 2.678-.002.369.265.194.907-.217zm5.457-6.637c1.364-.828 1.493-.847 1.347-1.95-.184-1.38-.338-1.299-1.643.529-.858 1.201-1.152 1.55-1.022 1.773.222.382.467.165 1.318-.352zm-4.95-10.16c-.143-.615-.348-.482-1.035.071-1.264 1.018-1.463 1.756-.678 2.143.417.206.74.183.99-.32.536-1.084.687-1.467.724-1.894zm-7.084 9.64c-.162-.562-.906-1.326-1.473-1.596-.562-.269-.903-.22-1.441.408-.496.578-.266.923.477 1.789.544.635.765.836 1.193.837.521-.187 1.352-.83 1.244-1.439zm-27.4 24.159c-.36-.64-1.125-1.317-1.475-1.205-.372.12-.735.609-.74.917.153.629.73 1.055 1.173 1.068.837-.108 1.345-.241 1.041-.78zm3.338-.971c-.72-.7-2.143-2.244-2.376-2.244-.365 0-1.236.838-1.236 1.183 0 .408 1.294 2.08 1.726 2.213 1.091-.091 3.095.023 1.886-1.152zm4.118.2c-.075-.337-4.126-4.307-4.425-4.308-.387 0-1.152.78-1.153 1.14 0 .289 1.307 1.862 2.517 3.026.601.58.655.663 1.393.558.806-.114 1.855.047 1.668-.415zm7.17-.876c0-.8-.454-1.24-2.283-3.065a161.511 161.511 0 0 1-2.492-2.557c-1.367-1.438-1.952-1.88-2.498-1.881-.431-.002-1.092.64-1.093 1.05 0 .262 3.366 3.82 6.416 6.842.676.67.98.866 1.63.548.374-.234.32-.63.32-.937zm-5.265-9.529c-.686.517-.942.729-.946 1.074-.005.527 5.806 6.414 6.325 6.414.305 0 .258-.038.439-.67.363-1.918-.204-2.482-1.71-3.75-1.01-.85-3.045-3.774-4.108-3.068zm10.268-3.921c-1.621-1.788-2.519-2.611-2.849-2.611-.225 0-.564.199-.929.57-.607.527-.55.508-.166 1.137.199.327.757.97 1.24 1.43.893.85 1.351 1.12 1.783.714.382-.36 1.326-.785.921-1.24zm-.841-4.458c-.396-.004-1.063.651-1.063 1.008 0 .302 1.315 1.823 2.233 2.581.743.614 1.093.779 1.61.375.389-.515.302-.988.06-1.382-.656-.69-2.092-2.55-2.84-2.582zm4.565.443c-.01-.52-1.669-2.51-2.195-2.709-.438 0-1.367.935-1.368 1.368 0 .231.355.748.957 1.393 1.184 1.267 1.488 1.546 1.747 1.349.423-.324.868-.89.859-1.4zm1.88-2.236c.11-.436-.184-.886-.847-1.654-.828-.96-1.236-1.024-2.019-.283-.29.274-.424.513-.424.646 0 .366 1.738 2.402 2.06 2.403.748-.084.977-.584 1.23-1.112zm-3.071 5.036c-.157.657-.458 1.085-1.148 1.39-5.321 3.516-5.158 9.256-6.3 14.554-8.609-.09-22.223 3.14-22.139 3.311l45.81-42.384s.568.13.22.502c-3.706 2.443-3.483 7.202-5.921 9.582-4.075 4.517-7.862 8.434-10.522 13.045zm-24.856 17.305c.074-.48-.405-.611-.825-.226-.412.378-.25.674.335.612.308-.032.452-.146.49-.386zm14.101-1.767c.17-.403-.231-.781-2.68-3.286-2.478-2.536-3.04-3.13-3.47-3.13-.364 0-1.255.828-1.255 1.167 0 .156.39.67.866 1.142.476.472 1.38 1.4 2.009 2.06 1.082 1.139 1.597 1.688 2.01 1.954.404.26.71.247 1.36.248.89 0 1.084.028 1.16-.155zm4.253-7.959c.169-.498.41-.938.412-1.125.003-.348-3.126-3.289-3.656-3.604-.634-.378-1.828.852-1.532 1.571.082.199 1.013 1.208 2.068 2.243 1.343 1.316 2.014 1.935 2.232 1.905.224-.031.255-.34.476-.99zm1.315-3.085c.23-.31.417-.718.417-.909 0-.215-.523-.8-1.272-1.576-1.396-1.447-1.754-1.614-2.52-.94-.763.67-.505.98.833 2.377 1.675 1.75 1.864 1.962 2.542 1.048zm12-13.78c.522-.57.534-.853.058-1.374-.203-.221-.497-.544-.654-.718-.43-.474-.999-.396-1.587.217-.28.294-.466.59-.466.69 0 .102.301.507.669.902.825.888 1.336.985 1.98.282zm1.839-2.176c.355-.497.196-1.044-.466-1.602-.627-.528-.94-.55-1.382-.1-.59.602-.495.803.137 1.45.716.73 1.291.84 1.711.252zm1.474-1.805c.49-.45.482-.836.043-1.35-.41-.481-.836-.613-1.27-.4-.754.37-.675 1.007.065 1.726.45.437.661.483 1.162.024zm-35.134 90.483c9.368.977 19.433 1.663 37.181-.85l.097-5.538c-5.54 3.962-12.802 1.233-13.214-3.336-.043-4.072 1.146-8.767 2.147-12.115.745-2.488.959-3.448.265-3.933-1.53-.795-4.246-.898-4.938-2.554-.331-.873-.362-1.807.124-1.14.223.305 1.989 1.063 3.368 1.348 2.403.496 2.789.661 3.06 1.569.171.573-.228 2.55-.863 4.334-.455 1.277-.987 3.328-.988 3.724 0 .432.368.503.78.384.179-.052 1.024-.828 1.557-1.264 2.311-1.891 2.981-1.834 1.007.017-.786.736-1.869 1.751-1.869 1.828 0 .392.4.348 1.287.055 1.366-.452 4.566-.393 5.989.266 1.77.82 1.844.784 1.807-1.695-.312-4.633-1.125-10.115-2.76-14.395-2.495-6.527-7.685-12.587-15.367-12.323-9.364.437-15.02 3.859-21.395 7.958 3.836 7.853-1.733 13.859-3.749 14.65-.194.076 2.51 7.98 3.665 11.997 1.048 3.648 2.809 11.013 2.809 11.013zM141.18 802.85c-.217-.517-5.403-16.131-6.851-22.66-14.08-.771-24.492-1.859-36.896 1.363 0 0-.275 4.397-.145 4.611.125.543.552.531.9.354 5.732-2.887 11.937-1.576 12.357 5.56.161 2.725-.838 4.645-1.023 7.23-.162 2.257-2.097 5.263-.929 6.98.15.21.974.627 2.1 1.072 2.102.83 2.925 1.592 3.077 2.856.228.873-.353 1.458-.527.562-.11-.569-.218-1.07-2.812-1.89-2.529-.8-3.21-1.724-3.462-2.211-.346-.671-.28-1.147.047-2.215.695-2.274 1.382-4.594 1.32-5.69-.022-.394-.497-.203-1.105.271-.772.603-4.074 2.596-4.167 2.51-.043-.04.546-.843 1.47-1.654 1.122-.984 2.518-2.176 2.519-2.394 0-.388-.164-.119-1.25.177-1.895.477-4.077.406-5.543-.192-1.243-.505-2.115-.798-2.3-.523-.471 6.95.641 14.117 3.805 19.71 2.834 5.083 8.73 11.45 17.612 10.033 9.177-1.463 18.113-8.238 17.792-8.247-3.414-7.133.495-12.437 4.01-15.613zM68.18 992.53c-4.06-3.749-14.302-7.834-21.343-9.711-.564-.113-1.118-.36-1.123.254l-.102 12.849-12.602 10.832.214 5.293 26.705-.086 17.762-23.88s.855-.139.95-.285c-3.237-12.695-8.122-22.837-11.228-27.921.052.063-4.48 3.358-8.457-.75-2.231-2.306-.854-6.35 1.268-7.829-1.787-1.212-5.49-3.41-7.918-4.046-.505-.114-1.26.825-1.508 1.675-.446 1.382-1.186 2.618-1.683 4.01-.547 1.165-1.072 1.34-1.884 1.012-1.266-.347-1.601-.468-1.601-.468l.02 15.105c9.71 3.112 19.7 11.066 22.53 23.946zm40.614-161.376 2.882-2.871c-4.553-.52-9.326-1.274-14.91-2.893 3.875 2.656 7.934 4.302 12.028 5.764zm-15.808-8.106c5.074 1.562 11.492 5.2 19.514 3.843-7.307-2.676-12.85-8.914-15.197-21.603-.521 2.462-1.598 7.58-3.282 8.133-2.354-8.422-11.873-3.537-8.069 3.334-9.65 6.079-21.245 9.502-31.765 14.187 0 0-1.589 4.464-9.473 10.572-1.476-7.175.31-17.814-.601-25.022l-12.33-10.736c.185 2.042.097 3.308-.005 5.7.338.417.806.635 1.281.896.74 41.32-.392 82.164-.435 119.694-.156 23 .472 46.964.075 68.679l-.463.785.012 5.19 12.622-11.023s-.575-7.833.095-13.816c7.953 1.482 15.368 4.929 22.015 8.707.838.215-4.06-15.042-21.942-21.837 0 0-.018-4.764-.002-15.118.014-9.99-.154-11.047-.395-11.21-.725.723-9.885 3.548-10.348 3.068.245.076-2.557-17.685-.109-20.38l8.758.18c2.503 1.863 1.5-.403 2.954-.774.873-.214 4.922 1.242 4.922 1.242 16.719-18.1 15.093-47.9 3.137-64.68-3.072 2.288-6.34 5.39-9.419 6.72-.036-.098-.042-9.245-.042-9.245 15.963-9.395 33.352-36.644 32.246-36.738 0 0 4.932 4.43 6.845 6.933L67.81 849.68c3.598 6.682 7.237 12.742 9.596 18.617.319.795 1.305.773 1.553 1.61.21.714-.739 1.705-.609 2.493 3.306 11.69 4.042 24.09.748 35.32-.695 2.527.568 4.578 2.258 6.482.14.166-1.575-1.369-1.729-1.454-.588-.325-1.571.814-1.78 2.253.134.882.655 1.038 1.343 1.753 1.214.93 6.035 5.307 8.159 7.307 1.885 1.775 2.374 1.855 3.648.6.36-.308.733-.728 1.081-.988.065.097.536-.353.697-.497l28.47-25.486c3.308-2.96-28.43 26.743-28.43 26.743s-15.39 13.857-19.165 17.273c-3.9 3.528-4.426 4.3-4.582 4.563-.279.468 1.255.457 1.953.363.055-.008-.586.135-1.235.13-4.002-.828-5.371 3.24-7.895 4.056-6.683 4.351-2.204 11.357 4.178 9.053l1.554-.685c3.857 6.607 9.416 18.641 12.018 29.098l-1.055.447-16.852 23.18 95.382.115c-6.843-6.28-12.66-13.987-18.587-19.758-9.515 2.605-38.278 2.037-37.822.9 0 0-4.332-16.218-6.783-24.185 7.828-6.15 7.04-15.864-4.305-20.239 8.273-5.99 16.594-8.013 24.705-8.49 2.625 6.155 8.81 6.55 11.737.92.02-.063 10.963 3.108 14.994 6.53-5.984-.577-11.893-1.68-17.882-1.95 5.27 1.921 10.63 6.927 12.34 12.646.84 2.042 2.118 8.784 2.458 8.81 0 0 2.009-7.784 3.557-7.353 3.94 7.585 10.759 1.89 7.898-4.151 10.067-4.404 21.395-9.322 30.656-13.404 2.706-3.742 9.358-10.848 9.795-10.878 0 0 12.308-64.34 12.336-85.855-.369-25.864.642-54.653-.536-78.847l-.002-6.953-25.802-.02-18.456 24.884s-.139.395-.136.567c2.5 10.052 5.713 18.609 10.76 27.9 6.991-4.843 12.866 3.152 7.621 7.783-.984.87-.721 1.09.262 1.697.969.599 7.593 3.673 7.901 3.673 1.201-1.636 1.552-4.054 2.363-5.9.205-.704.783-.79 1.938-.664 1.484.163 1.476.73 1.438-7.955l-.032-7.461c-8.949-3.803-20.79-13.46-21.33-23.488 5.173 3.47 17.062 8.52 20.239 8.975 1.394.36 1.183-1.876 1.228-2.774.377.233.51 3.688.51 3.688-5.254-1.467-8.009-1.172-21.117-8.178 2.237 9.866 12.967 17.658 20.75 21.215 0 0 .32 4.685.296 9.933-.073 16.003.1 16.708.1 16.708 0-.008 4.288-1 5.478-1.54 2.128-1.563 5.532-.36 6.001.794.683 6.04.01 11.64-.144 17.407-3.63.234-5.62.934-7.411.999-1.164-.145-1.871-.152-2.466-.762-1.728-3.445-1.62-1.262-1.834 1.324-.16.765-4.498-.572-4.93-.803-18.771 19.817-17.207 42.66-4.508 63.828 2.105-1.303 5.73-3.789 9.352-5.42.083 2.691.125 8.231.125 8.231-14.687 9.881-32.296 36.086-31.702 36.16l-5.952-6.552s3.76-5.481 5.085-6.93c.154-.166.255-1.867.255-1.867l9.127-12.101c-4.109-6.714-6.914-12.454-9.835-19.056-.165-.552-.878-2.925-.72-3.149-6.041-25.255.562-37.806.078-38.763 0 0-.08-.505-.209-.604-.199-.152.052-.298.276-.658.435-.699 1.127-2.133.892-2.558-.174-.314-5.095-4.852-9.315-8.588-2.22-1.965-2.132-2.19-3.282-1.12-.426.397-1.475 1.528-1.475 1.528-15.285 12.969-27.417 24.781-42.757 38.588l-.734-.615c22.315-20.342 44.836-40.481 66.936-61.022l-3.882.056c.11-.258.272-.5.497-.57 2.081.005 4.223-.573 5.77-1.378 3.152-2.147 7.675-5.02 8.033-7.856-.219-5.46-5.225-6.256-8.844-3.592-5.014-8.307-8.978-18.298-11.096-27.623-.1-.463-.808-1.262-.913-1.79 1.081-3.095 18.18-24.462 18.18-24.462l-95.851-.115 18.213 19.996c.002-.797 26.003-3.588 37.905-.24l7.218 23.694c-6.596 5.848-8.556 15.475 3.551 20.504.235.47-1.15 1.24-1.15 1.24.193-.288.528-.587.393-.852-3.263-1.316-6.755-4.644-6.755-4.644-7.296 5.227-14.112 8.133-20.786 8.384 0 0 3.52 2.2 4.197 4.614 0 0-.327-.037-.412-.133-.722-.814-2.38-3.445-3.781-4.222-2.375-.526-3.78-.147-5.657 1.04l-2.542 2.25c-5.82-1.635-12.284-4.307-15.841-8.355zm-1.058 57.968 2.661-2.408c.307-1.79.838-4.064 3.087-6.54 2.495-2.746 5.253-5.327 7.284-7.772 2.44-2.938 3.765-5.597 3.127-6.831 3.63-.597 6.967-3.538 7.08-8.885.047-2.808 1.527-6.903 1.638-6.846 0 0 25.336-.762 42.785-16.018 0 0 1.221.245.935.448-6.613 6.074-13.642 10.55-21.947 13.394l-45.84 41.996zm5.076-4.819c.685-.628.84-.834.453-1.13-.59-.451-1.727.477-1.729 1.411 0 .594.511.42 1.276-.28zm2.373-2.14c.545-.478.525-.827.076-1.241-.618-.57-1.518-.221-1.822.696-.306.924.89 1.298 1.746.546zm2.089-1.937c.28-.293.51-.594.51-.668.001-.325-.872-1.064-1.257-1.065-.491 0-1.37.757-1.37 1.182-.001.354.879 1.083 1.308 1.084.164 0 .528-.24.809-.533zm1.972-3.61c-.623-.483-1.033-.488-1.547-.016-.598.548-.537 1.152.175 1.728.54.52.773.47 1.506.056.615-.577.726-1.116-.134-1.769zm2.308-.32c.675-.52.58-.948-.154-1.625-.772-.711-1.369-.718-1.92.035a1.23 1.23 0 0 0-.245.646c0 .275 1.273 1.32 1.609 1.32.184.001.432-.161.71-.376zm2.223-2.013c.573-.549.5-.941-.32-1.72-.69-.654-1.17-.705-1.778-.187-.63.535-.5 1.101.208 1.754.718.662 1.25.765 1.89.153zm2.518-2.337c.42-.409.308-.376.01-.82-.46-.686-1.802-1.822-2.184-1.823-.481 0-.903.706-.9 1.403.003.693.37.975 1.325 1.668.634.46.44.501.929.239.27-.146.64-.446.82-.667zm1.997-1.675c.902-.941.731-1.124-1.44-3.232-.736-.715-.889-.797-1.416-.757-.5.038-.535.151-.793.636-.476.894-.125 1.349 1.24 2.688 1.406 1.378 1.614 1.496 2.41.665zm2.232-2.197c.348-.28.582-.607.582-.815 0-.368-1.758-2.165-2.386-2.497-.445-.234-.91-.102-1.488.353-.347.274-.339.34-.257.642.134.493 2.395 2.69 2.768 2.69.155 0 .461-.116.781-.373zm2.213-1.97c.374-.35.671-.774.671-.96 0-.395-1.894-2.416-2.48-2.7-.499-.24-.79-.14-1.283.494-.568.733-.347 1.068.777 2.261 1.066 1.133 1.408 1.476 1.607 1.476.066 0 .34-.225.708-.57zm2.09-2.061c.48-.268 1.107-.831.853-1.293-.269-.472-3.585-3.713-3.943-3.89-.7-.345-.681.152-.683 1.755l-.001.833 1.527 1.378c2.225 2.01 1.728 1.519 2.247 1.217zm2.705-2.277c.264-.242.514-.652.511-.803-1.376-1.546-5.38-6.433-6.104-6.253-.076.018-.106.022-.158.161-.18.49-.255 1.5-.131 2.32 1.264 1.12 4.243 4.766 4.918 4.992.403.143.582-.067.964-.417zm2.157-2.076c.254-.223.462-.525.462-.671 0-.147-.445-.66-.919-1.175-.473-.514-1.4-1.555-2.06-2.313-3.771-4.338-4.045-4.662-4.622-4.223-.38.289-.472 1.31-.283 1.692.327.659 4.447 5.24 5.776 6.421.844.752 1.011.827 1.646.269zm2.177-1.913c.323-.279.587-.65.587-.823 0-.174-.607-.88-1.244-1.57-.637-.69-1.698-1.866-2.358-2.614-1.692-1.92-1.706-1.99-2.971-2.11-1.917-.183-1.662.205.507 2.538.525.565 1.516 1.68 2.203 2.478 1.607 1.867 2.317 2.555 2.635 2.556.141 0 .318-.175.64-.455zm2.219-1.994c.983-.759.79-1.008-2.402-4.047-1.046-.996-1.12-1.154-1.934-1.155-.82-.001-1.084.154-1.084.519 0 .223 4.156 4.778 4.46 4.89.41.152.457.182.96-.207zm2.331-2.19c.263-.257.478-.59.478-.74 0-.327-.902-1.384-1.748-2.068-.396-.32-.895-.652-1.216-.652-.543 0-1.475.28-1.636.52-.104.154 1.13 1.56 2.344 2.739.803.781 1.118.85 1.778.202zm2.047-1.862c.515-.472.512-.906-.013-1.54-.381-.46-.496-.506-1.28-.507-1.487-.002-1.53.348-.382 1.48.855.842 1.09 1.104 1.675.567zm2.192-1.977c.579-.675.085-1.047-.865-.65-.225.093-.346.339-.393.452-.294.702.7.847 1.258.198zm-36.556 5.668c-2.115 1.226-5.67 3.55-8.087 5.101-.065.334-.112 1.184-.001 1.846 1.37-.855 5.774-3.434 7.774-4.888a40.2 40.2 0 0 0 .314-2.059zm3.885-5.633c-.07-.331-.307-.122-.934.364-.82.635-7.776 5.362-9.624 6.55-.702.453-1.363.834-1.438.993-.071.15-.141 1.436.124 1.76 1.507-1.055 8.659-5.452 8.766-5.605.74-1.082 2.39-2.971 3.106-4.062zm-.817 14.269s-8.537 9.412-11.285 14.102c0 0-.026 5.369-.11 8.46l-.465.12s-.028-8.287-.13-17.28c-.255-22.475-.488-27.932-.488-27.932l-2.765-1.868-.114-.884s12.271 7.923 18.263 9.191c-4.388 6.305-8.44 8.734-2.906 16.091zm-10.131 11.256c.171-.378.055-.36-.297-.346-.259.01-.406.23-.418.47-.014.274.013.34.246.299.167-.03.386-.24.469-.423zm2.054-2.79c1.228-1.387 2.244-2.287 2.427-3.308-.786.118-5.312 3.028-5.384 3.336.042 1.544-.342 1.729 1.04 1.05.606-.302 1.097-.674 1.917-1.078zm.391-3.441c1.32-1.006 6.13-3.378 6.683-4.548.214-.538-.471-1.044-.579-.995.087.071-6.888 3.903-9.434 5.915-.227.259-.17.702-.019 1.068.278.675.835.128 3.35-1.44zm-1.597-1.855a550.65 550.65 0 0 0 5.673-3.566c1.436-.915 1.721-1.222 1.205-1.901-.206-.271-.486-.432-.96-.241-4.155 2.653-4.513 3.102-7.667 4.96-.213.523-.162 1.304.167 1.581.239.013.64-.257 1.582-.833zm-.011-2.868c3.785-2.51 5.826-3.78 5.961-4.058.149-.306.194-1.502-.053-1.63-1.408.983-5.173 3.095-7.746 5.01-.067.393-.147 1.278.06 1.469.521.198.677-.061 1.778-.791zm-.438-9.08a197.014 197.014 0 0 1 8.17-5.263c2.43-1.48 2.836-1.809 1.904-2.253-.32-.153-.966-.394-1.38-.267-3.23 2.392-6.819 4.68-10.242 7.002-.085.348-.002 1.03-.023 1.337-.033.476.65.07 1.57-.557zm-.375-2.68c.226-.182 1.669-1.059 3.206-2.079 4.122-2.735 4.608-3.002 4.608-3.292.001-.796-1.187-.967-2.27-.158-1.987 1.484-6.73 4.187-6.742 4.572-.018.566-.122 1.123.057 1.372.228.315.561.052 1.141-.415zm1.194-3.71c4.194-2.683 4.028-2.558 4.028-3.04 0-.421-.407-.233-1.048-.277-.605-.04-.616.115-1.767.913-2.447 1.695-3.343 2.16-3.6 2.66-.08.158-.138.781.01.919.295.271.635-.061 2.377-1.176zm.28-2.673c.822-.627 1.48-1.087 1.535-1.219.12-.286-.499-.797-.965-.797-.506 0-.9.24-2.154 1.23-1.108.873-1.332.69-1.245 1.184.05.286.055.919.158 1.034.267.297.84-.035 2.672-1.432zm-1.694-1.738c.887-.684 1.074-.825.429-1.42-.584-.538-1.266-.672-1.626-.342-.2.241-.007 1.66-.03 1.943-.035.454.622.286 1.227-.18zm18.996-14.765c0-.294 1.543-1.329 2.7-1.564 1.475-.3 3.325-.141 4.62.455 1.115.514 2.324 1.747.532.995-1.646-.675-5.176-.688-6.455-.146-.95.441-1.397.554-1.397.26zm-1.138-5.193c.12-.11 1.66.257 2.508.463 2.275.555 4.144.233 6.53-.397.56-.148.838.208.492.469-1.212.77-2.784 1.217-4.139 1.331-2.98.252-6.186-1.151-5.391-1.866zm-14.61-4.064c1.272-.57 2.836-8.592 2.338-9.973-1.56 2.185-3.307 3.165-5.793 2.782-4.072-.625-4.216-5.234-1.07-5.694 1.257-.184 2.794.58 3.047.402 1.342-.577 2.398-4.718 2.728-6.058.242-1.314.602-4.957.657-6.116.116-2.466.014-6.103.014-6.103L76.417 759.77l-43.4-.223s-.181 30.533-.1 46.153L45.19 816.56l.13 17.529c13.74-5.494 27.038-11.265 40.058-17.508-1.507-1.66-1.457-5.837 1.296-7.414 4.053-2.322 7.413.762 7.605 3.186zm10.872 3.729c.094-.989.894-1.8.952-2.805 0-.224.197-.483.842-.167.842.412 1.101.123 2.054-.28 1.691-.713 2.175-.696 3.475-.216.842.416 1.1.413 1.89.038 1.08-.654 2.228-.866 3.178-.558 1.416.455 1.908.706 2.718.347.407-.18.918-.859 1.007-.808.58.796.461 2.047.832 2.75.656 1.196.398 2.051-.376 1.463-1.628-1.237-2.897-1.269-5.235-.74-1.368.31-2.056.552-3.572.385-4.695-.518-5.014-.389-5.969.197-.928.568-1.64.626-1.796.394zm12.618-7.812c-1.356-.313-2.904-1.448-4.027-1.146-1.384.085-2.171-1.417-1.46-2.239 1.217-1.085 3.102.013 3.834.525 1.59 1.113 1.816 1.201 2.46 1.202 2.64-.045 2.138-2.314.863-3.143-.757-.731-.83-1.204-.67-1.383.262-.289 1.015-.044 1.84.757 1.58 1.366 1.613 4.088-.328 4.907-.966.495-1.6.731-2.512.52zm5.523-7.858c-1.228-.82-3.413-2.66-3.984-3.315-.964-1.108-1.35-1.816-1.227-2.704.095-.69.21-1.102-.273-1.332-.513-.243-1.004-1.288-.904-1.836.028-.152.607-.06.956.342.444.067.352-.176.835-.468 5.026-3.094 9.055-2.491 13.816-.356 1.382.613 4.987 3.133 3.055 2.314-.115-.048-1.38-.554-2.657-1.148-4.13-1.824-8.731-2.931-12.482-.598-.646.415-1.036.733-.535.734 2.108-.374 4.192-1.178 6.356-1.05 3.227.043 5.176 1.51 7.595 2.524 2.625 1.082 3.131 1.452 2.173 2.341-.271.274-.488.266-1.756.175-1.363-.097-1.477-.061-2.244.39-2.014 1.182-4.627 1.825-6.947 1.643-2.733-.214-3.026-.416-3.082-.054-.037.231.55.633 1.359 1.315.613.518 1.438 1.28 1.51 1.398.228.37-.813.187-1.564-.315zm-.762-4.023c-.005-.298-.606-1.592-.965-1.926-.344-.322-.615-.197-1.35.278-.553.357-.613.64-.105 1.055 1.08.884 2.43 1.107 2.42.593zm4.117.183c1.104-.49 2.23-2.23 1.72-2.795-.303-.337-.567-.018-1.147.925-.278.452-.756 1.024-.96 1.155-.903.58-2.092.036-2.59-1.245-.302-.774-.62-1.266-.972-.973-.637.53.08 2.443 1.344 2.939.747.293 1.83.337 2.605-.006zm3.432-.282c1.12-.316 1.655-.779 1.561-1.227-.077-.372-.883-.812-1.43-.812-.245 0-.725-.01-.897.2-.381.465-.988 1.88-1.015 2.032.13.312.509.167 1.781-.193zm3.878-7.664c-5.577-1.97-9.984-2.762-15.294-.687-1.701.677-2.672.746-2.756.193-.071-.467 1.155-1.849 2.478-2.486 3.707-1.554 8.156-1.695 11.881-.046 1.392.629 5.298 3.189 5.298 3.421 0 .255-.354.057-1.607-.395zm65.235 57.576c1.33-.643 1.944-1.909 1.13-2.658-.238-.22-.571-.22-.848-.22-.465 0-3.957.856-4.635 1.188-.442.217-.282.597.139.948.195.162.338.51.368.889.038.487-.068.928.283.853.713-.15 1.837-.293 3.563-1zm-4.963 1.17c.38-.633.22-1.503-.775-2.037-.518-.248-.928-.116-1.346.43-.99 1.657 1.463 2.372 2.12 1.607zm-4.982.771c.216-2.118.121-8.376.121-8.376s-1.24.961-2.022.994c.288-.915.6-1.251 1.045-2.147.257-.95.4-2.63.33-3.591-.076-1.053-.883-1.082-.048-2.972.426-.965.504-1.982-.045-3.179-.237-.59-.313-.93.306-1.678.576-.695.35-1.043.34-2.493-.011-2.01.002-2.337-.662-.717-.99 1.342-1.444 1.085-2.95.921-1.46 3-3.169 6.145-3.24 8.732-.044 1.623-.067 1.875 1.029 5.288.408 1.27.548 1.693.57 3.229.02 1.466.138 1.981.38 2.791.429 1.44 2.18 3.824 4.846 3.198zm-50.861 134.943.01-3.018s-5.252 1.482-7.915.563c-2.742-.685-2.734-.81-2.68-.537.096.487 2.13 1.478 4.015 1.886 1.325.288 3.98.003 5.284-.35.74-.201.817-.012.521.196-3.222 2.31-7.303 1.24-9.865-.683-1.368-1.237-2.287-1.244-1.55.414 3.514 6.569 12.266 2.707 12.18 1.529zm-3.537-4.49 1.194.023s-.364-1.914-.982-2.473c-1.264-1.142-3.053-.97-4.19.15-.52.512-.92 2.328-.92 2.328l.96.02c.357-.848 1.877-4.823 3.938-.048zm-4.774-2.899c-.678-.171-2.168.45-2.893.881-.269.273-.271.312.048.7.694.843 1.757 1.246 1.833.931.31-.443 1.083-2.34 1.012-2.512zm7.886 2.137c.157-.588-.444-1.595-1.384-1.948-.406-.093-.808-.169-.69.243.132.461.412 1.218.674 1.724.19.38.312.571.713.428.315-.097.58-.186.687-.447zm51.29-39.947.02-5.112c-2.812 2.613-6.488 7-7.601 8.641zM103.71 796.904c1.19-.467 2.065-1.895 1.764-2.618-.186-.448-.68-.09-1.181.573-.805 1.068-1.008 1.183-1.715 1.182-.752 0-1.05-.179-1.564-1.11-.354-.879-.606-1.017-.938-.634-.156.173-.144.42.058 1.061.527 1.676 1.89 2.208 3.576 1.546zm3.241-.525c1.32-.416 1.59-.548 1.527-.952-.065-.423-1.113-.989-1.707-.885-.431.238-1.548 1.859-1.485 2.149.152.226.594.025 1.665-.312zm-7.607-.716c-.045-.374-.1-.742-.213-.866-.423-.47-1.317-.14-1.318.456 0 .453.7.967 1.268.968.4 0 .342.09.263-.558zm7.459-3.047c1.875.651 2.827.725 1.807-.158-1.401-1.433-7.83-3.075-11.286-.744-.246.322-.197 1.556.072 1.488 2.81-1.738 6.406-1.64 9.407-.586zm-6.417-4.944c-1.577.48-3.059 1.237-3.25 1.942-.306 1.137.247 1.15 2.31.556 2.657-.796 5.627-.43 7.889.775 1.717 1.151 2.227.771 1.938-.195-.957-3.197-6.329-3.78-8.887-3.078z"/><path fill="#e2cf00" d="m201.63 767.267-11.612 10.552.144 12.505c1.163 1.966-17.89-5.625-20.896-7.919.337 8.354 12.722 17.886 20.779 21.378l.183 26.525s3.246-1.154 5.032-1.722c1.323-.42 4.347-.377 5.344-.815 1.609-18.18 2.993-41.835 1.026-60.504zm-64.52 13.01c-1.13.016-1.808.297-1.793.965-.34-.052 4.263 15.618 6.359 22.162-4.103 3.802-8.39 10.41-2.277 16.54 1.304 1.307 3.695 2.416 5.969 3.674 1.013.906-12.459 8.868-24.439 8.857-3.829-7.747-9.2-3.472-12.163-.774-2.311-.19-10.932-4.925-15.34-7.636-.071-.043-.023-1.164-.014-1.369.304 1.846 17.281 5.85 18.05 4-.49 0-7.611-4.441-9.651-8.818-2.606-4.936-4.69-11.715-4.69-11.715-.954 2.505-.634 5.978-3.255 7.217-.772-8.157-13.442-4.012-7.15 3.97-3.543.951-6.574 2.633-10.014 4.033 7.18 9.008 17.073 15.007 27.525 18.548-1.382 2.7-9.535 8.772-2.856 15.95.302.22-6.402 6.926-9.702 12.174-2.484 3.95-1.74 6.983-1.458 7.082 9.084-9.546 14.192-17.625 14.192-17.625-.08 1.112 10.763.523 10.595-8.454.243-2.422.724-5.048 1.74-7.295 16.543.736 30.774-4.666 42.813-16.033 0 0 2.448.646 3.992.869.775.112 1.873-.351 2.054-.399.696-.032 1.7-.155 2.64-.639 1.284-.661 2.582-1.802 3.955-2.822 1.801-1.338 3.6-2.627 4.24-4.007.72-1.533.161-3.383-.45-5.022-3.853-4.183-6.42.307-8.129-.279-5.927-7.429-10.849-28.43-11.657-28.596-3.316-.618-14.655-4.622-19.086-4.558zm-40.774 14.28c-.442.026-2.043 6.552-3.453 6.499-5.966-3.544-6.105 3.776-.97 3.449 4.338-.276 6.772-6.71 4.444-9.944a.043.043 0 0 0-.02-.005zm-63.841 12.34c.141 39.687.862 79.361 1.817 119.036 3.902-.88 6.739-1.552 10.563-.01.375-11.279-.663-39.743-.366-67.303 14.594-10.409 24.85-21.896 32.064-36.916L54.3 831.262s-7.288 9.58-9.612 10.193c-.329-1.365-.677-17.597-.365-24.557zm49.428 24.606-4.381 5.814s.073 19.987.312 29.617c.177 1.917 2.07 3.678.551 5.395.925 0 4.93 25.934 1.072 36.441-.69 1.882-.048 3.213 1.027 3.645l8.324 7.788c2.628.806 5.19.496 7.396.01 7.9-6.629 19.125-18.243 19.125-18.243l-29.594-25.79c-2.532-6.25-3.832-44.677-3.832-44.677zm107.866 83.48c-21.474 14.72-30.725 35.694-30.867 35.553.075.245-.109 1.105 1.237.426 5.556-2.758 19.84-8.703 19.84-8.703 3.395-3.741 6.008-7.354 9.895-10.914 0 0 .397 16.262.042 24.42 3.499 2.398 11.801 9.887 11.801 9.887-.001-.001 2.46-115.532-2.49-118.47-4.812.851-7.23 2.464-9.017-2.669-1.302 23.522-.08 47.128-.441 70.47zm-46.496-65.08c-5.18 3.883-22.993 19.908-22.956 20.074 4.708 7.28 23.32 21.878 32.241 30.037l1.235 41.51c1.316-1.623 2.274-3.152 3.702-4.776 0 0-.203-21.018-.741-30.872-.16-2.914-.883-5.211-.655-5.476-2.496-11.962-3.52-25.175.056-37.994-8.428-6.692-11.103-11.139-12.882-12.503zm1.318 47.411a.102.102 0 0 0-.04.028c-4.377 5.715-12.746 18.123-13.346 18.093-.176-.371-8.63-.034-10.236 4.854-1.347 3.64-1.454 6.99-2.438 10.744-16.962-.53-29.386 4.386-42.479 15.453-3.719.13-6.976.406-9.266 1.183-1.918.65-2.95 1.825-4.13 2.61-3.322 2.207-4.224 4.094-4.064 6.404.29 4.186 8.332 4.791 8.748 1.841.408.001 7.85 15.688 8.571 18.36 1.755 4.322 3.629 12.405 3.853 12.418 3.004.181 19.867 4.552 19.93 2.974 1.59-.625-5.833-23.07-5.833-23.07 13.046-10.036-1.306-20.797-4.683-20.408 7.428-4.848 15.946-8.11 25.337-8.529 1.447 4.8 8.181 7.274 11.583.901 0 0 14.588 4.821 14.526 6.413-6.009-.841-10.949-1.282-16.966-1.819 11.522 5.769 11.865 13.353 14.208 20.907.323-1.337 3.372-7.175 3.372-7.175 3.9 7.98 11.344 2.454 8.285-3.988l9.26-3.934c1.066-.496-13.81-15.924-27.357-18.123.684-1.147.956-2.227 1.662-3.16 3.402-3.061 6.042-7.546.855-12.922 3.435-4.401 11.401-15.027 10.898-15.217 0 0 .162-4.97-.25-4.838zM33.13 946.195c-.131 0-.423 36.878-.168 55.185-.334.758-.556 4.809-.556 4.809l12.354-10.643.39-13.776c3.222-.704 23.29 8.693 21.683 8.64 1.533-.592-9.243-19.363-21.84-21.458-.219-10.627-.32-22.658-.646-25.893-4.377.763-11.217 3.16-11.217 3.136zm109.517 22.317c-3.457.944-4.907 7.62-3.793 10.86.206.6.074.729.626.143 1.349-1.816.929-5.436 3.31-7.345 6.28 1.75 5.667-5.762-.143-3.658z"/><path fill="#d40000" d="m62.647 1011.912 16.366-22.67c19.493 6.016 39.4 6.149 59.524 3.216l17.954 19.567-7.352-.009-11.296-14.874c-4.103.866-8.366 1.24-12.614 1.772l5.278 13.08-5.765-.007-4.142-12.936c-9.762.336-16.409-.471-23.185-1.21l-2.462 14.11-5.866-.007 3.98-14.567c-4.61-.8-9.261-1.487-13.123-2.63l-12.015 17.172zm18.725-13.33 6.778 1.696-3.328 11.661-12.406-.015zm17.494 13.374 1.931-10.302c4.553.831 10.495 1.005 16.76.953l2.934 9.375zm32.11-9.515 5.352-1.297 8.003 10.867-9.747-.012zm-77.942-65.665c26.131-27.872 22.702-57.17 8.322-80.815l3.068-2.894c16.633 25.207 20.13 61.022-10.628 88.739-.321-1.674-.762-5.03-.762-5.03zm104.09-31.17c3.74 5.872 6.023 11.814 9.976 17.718l-9.415 11.668zM44.841 923.954c-.217-18.412.14-55.717.14-55.717l8.812-6.182c10.517 11.77 16.221 42.767-2.724 63.37-1.375-.923-5.12-.544-6.228-1.47zm124.996-3.565c-24.091-37.477-11.774-64.77 11.53-88.991.065 1.869.215 3.73.397 5.592-20.009 21.01-28.042 52.11-8.494 80.276zm-43.714-5.492 11.015-13.765s2.092-5.477 3.85-7.094l2.02-1.638c.67.596 1.947 1.352 1.907 2.036-.042.647-1.085 4.065-1.085 4.065l-12.884 17.276s-3.902-.633-4.823-.88zm58.583-66.804c.348-.36 4.71 1.32 4.71 1.32l.199 56.617-8.746 5.152c-2.537 1.181-22.296-36 3.837-63.09zm-92.091 23.74c3.986-4.98 8.183-9.289 12.046-13.862.995.317 3.615.373 3.615.373.276.138-.887 3.797-3.743 6.317-2.871 2.684-9.71 10.039-9.915 13.748-.063 1.144-2.857 2.45-2.857 2.45l-1.984-1.927c.613-2.82 1.567-4.981 2.838-7.1zM67.83 850.083l8.77-10.435.834 27.754zM96.59 779.72l-17.308-19.946 8.394.01 10.305 14.113 12.367-1.284-4.333-12.807 5.123.006 3.6 12.601c7.585.175 14.998.726 22.194 1.398l3.72-13.963 5.217.006-4.756 14.61 13.96 3.388 12.467-17.972 6.182.008-17.667 23.201c-23.044-6.395-41.562-5.687-59.465-3.37zm49.993-8.28 3.966-11.593 11.815.027-9.062 13.236zm-28.59-2.855-2.485-8.768 20.83.025-2.704 9.796c-5.5-.861-10.523-1.03-15.642-1.053zm-24.959-8.795 8.315.01 3.225 9.074-4.797.493z"/><path d="m76.566 758.487 20.045 22.109c4.184-1.37 25.27-3.557 37.913-.889 2.192 7.941 4.512 15.961 6.968 23.192 0 0-.792.846-1.363 1.385-8.088 8.549-2.383 16.822 5.003 19.528-1.336 2.543-15.508 8.863-24.131 8.1.014-.08-2.641-5.82-8.041-3.887-1.847.66-2.61 1.936-4.04 3.18-5.15-1.434-11.949-4.558-15.48-7.987 6.614 3.038 13.127 4.677 19.672 3.882 0 0-.81-.623-1.73-1.012-.554-.235-1.885-.974-2.96-1.642-3.039-1.888-5.055-4.162-7.133-8.05-2.392-3.94-2.776-8.177-4.085-11.914-.698 1.914-1.005 6.97-2.823 8.016-.471.283-.557.197-.907-.874-1.381-3.89-6.456-3.404-8.134-.638-.852 2.379-.732 3.424.338 5.637l-3.08 1.567-.005.467-1.895.829-.395-.246c-8.81 3.9-17.445 7.958-26.434 11.693 0 0-4.78 7.272-9.15 10.163l-.135-24.717-12.914-10.753-.07 5.881s.62.598.928.898c.118 41.376-.088 82.08-.114 119.643l.01 34.58-.788.041-.047 4.033.89.185-.133 5.695-.462.028-.072 3.606.705.102-.042 20.353-.699.825.007 5.81L45.3 995.528l.32-13.414c10.645 1.862 21.765 8.91 21.765 8.91-1.858-11.237-14.796-20.511-22.232-22.369l.062-26.62s-5.532 2.113-8.265 2.436c-1.353.174-1.874-.015-2.519-.914-.47-.655-.48-1.253-.053-2.606.2-.632.193-.798-.054-1.435-.347-.893-.349-1.297-.006-2.874.358-.926.202-1.42-.171-2.28-.401-.919-.432-1.09-.26-1.619.454-1.393.481-1.619.245-2.241-.463-1.217-.477-2.096-.048-2.884 1.995-3.07 6.456-2.306 8.878-2.193 1.225 1.257 1.957 1.958 2.073.139.862-2.17 4.191.056 5.746.981 13.269-16.305 19.834-38.393 3.257-66.068l-9.254 6.79.034-8.514c12.267-7.228 26.082-23.68 32.071-36.658 1.983 2.142 4.26 4.248 6.406 6.408l-1.408 2.16-.414-.217c-3.812 6.666-14.156 19.271-14.323 19.143 3.814 6.518 7.208 13.1 10.092 19.758l.759-.312.675 2.006-1.338.366c4.503 13.647 4.633 26.279 1.214 37.923l.793 3.096s4.78 4.268 6.069 5.522c3.367 3.005 7.12 6.361 7.12 6.361l4.374-3.926-.254-.335 38.336-34.908 2.385 2.102c-23.48 21.688-64.263 59.132-64.263 59.132l-1.412.187c-.803.108-1.99.154-2.746.105-1.245-.081-1.398-.056-2.398.38-1.126.49-2.057 1.218-3.304 2.587-.57.625-.96.895-1.592 1.102-7.99 4.368-.785 13.19 6.011 8.56 4.964 8.747 9.164 18.936 11.473 29.01 0 .074-.893.353-.893.353l-17.927 24.375 6.883.008.72-1.122-5.158-.007 16.49-21.841c20.934 5.27 40.153 6.04 59.663 2.941l16.952 19.012-6.734-.008.958 1.125 8.715.138-19.926-21.68c-7.148 1.747-25.998 3.137-37.817 1.283-1.798-8.079-4.767-16.86-6.963-23.848 11.295-8.107 2.838-18.838-4.123-20.34-.337-.588 14.133-8.653 24.433-8.08 2.94 6.517 9.4 5.56 11.725.716 4.27 1.447 9.81 2.894 14.207 6.117-5.867-1.19-12.666-1.844-18.262-1.93 10.64 3.808 13.614 11.81 14.915 19.354.229 1.252.955 2.868.955 2.868.911-2.723 1.656-5.536 3.445-7.865.817 2.668 3.836 4.744 6.884 3.16 1.768-1.174 2.386-3.194 1.83-5.986a85.758 85.758 0 0 1-.232-1.202l2.367-1.175.308.242s2.593-1.014 3.88-1.588c.203-.09-.235-.461-.235-.461l23.93-10.342c-.091-.046 6.04-7.721 9.557-10.68.092 9.206.062 12.989.04 23.918l1.349 1.214c1.196 1.077 3.805 3.31 9.684 8.29 1.323 1.121 2.248 1.676 2.248 1.676l.048-160.983h-.196l.001-3.097.276-.013.016-8.055-.247-.133.001-2.538.33-.22.053-21.745-.38-.06-.015-5.216-13.348 12.948.083 12.225c-5.948-.715-13.303-4.224-18.365-7.054-1.636-.92-2.55-1.166-2.499-.64.702 7.279 12.144 18.425 20.947 21.348l-.024 27.382c0 .015 2.08-.953 3.351-1.442l.19.487 2.84-1.078.232-.562 2.461-.283c.026.462.111.399.111.399 2.192.566 3.16 1.942 2.275 3.485-.31.517-.37 1.251-.115 1.444.948 1.38 1.196 2.595.046 3.899-.443.666-.44 1.042.013 1.75 1.183 2.202.509 2.056-.385 3.365-.203.99.977 1.637.587 2.569-.183.614-.89 1.334-1.368 1.66-.561.372-1.02-.323-1.02-.323s-1.778.699-3.056.922c-1.257.373-3.42 1.04-4.167-.515-.428-.892-.082-1.705-.11-2.7l-1.841-.186-.074 4.521c-1.055.514-5.243-1.46-5.243-1.46-18.014 21.412-17.544 45.185-4.235 65.117.13.32 9.406-5.818 9.406-5.818s-.026 5.04.05 7.774c-11.794 8.945-23.192 20.987-31.349 35.84l-5.032-5.5c.868-.703.903-1.82.886-2.665l3.667-5.012.033-1.303 9.533-12.21c.148.73-9.795-16.42-11.114-22.002l.66-.164c-4.452-15.567-3.518-26.463-.27-39.15l-.92-.82-12.538-11.544c-1.02.865-2.039 1.733-3.054 2.604-.156.134-.92.053-1.076.187a565.381 565.381 0 0 0-19.27 17.332c-.163.153.11.787-.052.94-6.306 5.956-12.842 11.608-19.223 17.554l-2.324-2.043c22.595-20.717 65.16-59.196 65.16-59.196s.185-.306.478-.316c1.183-.04 2.24-.286 3.41-.595 1.401-.297 1.627-.392 2.218-.95.362-.343.954-.822 1.315-1.066.616-.414 2.026-1.501 4.23-3.26 1.346-1.076 2.178-2.643 2.15-4.043-.048-2.492-1.839-4.62-4.15-4.927-.96-.128-2.844.33-3.8.92-.727.45-1.07.656-1.382.454-4.594-8.593-9.06-19.4-10.947-28.315-.101-.562-.046-.728.453-1.434.311-.439.987-1.408 1.507-2.155 4.125-5.468 8.909-12.112 13.397-18.107.745-.996 2.19-2.914 2.19-2.914l1.095-1.648-7.1-.009-.878 1.283 5.844.007-17.42 22.99c-32.025-9.67-58.29-3.597-58.92-3.466l-17.293-19.637 7.921.01-.958-1.285zm15.594.019.88 1.284 8.31.01-.47-1.284zm13.855 1.3 5.123.006-.293-1.284-5.254-.006zm9.17-1.273.323 1.284 20.83.025.371-1.283zm25.466 1.315 5.218.006.395-1.283-5.25-.007zm10.33-1.272-.45 1.284 11.833.014.888-1.283zm50.587 8.94.18 3.568-8.543 8.257-.005 11.543-2.483-.533-.082-11.929zm-2.403 7.601c.067 3.536-.56 6.924.452 10.53.498 1.775 1.51 3.857 1.634 5.954l-2.814-.065c-.354-1.06-.492-2.227-.912-3.531-1.035-3.215-1.872-6.602-1.1-10.007zm-61.42 5.693c.102.175.437 1.67.745 3.055 1.467 7.607 3.439 13.253 5.45 18.999 2.556 7.239 6.343 16.354 10.03 20.58.49.527.729 1.127.553 1.388-.299.443-1.806-.178-2.816-1.16-.414-.402-1.209-1.527-1.793-2.536-1.287-2.223-3.017-5.458-3.19-5.97-.07-.207-.747-1.805-1.508-3.55-1.332-3.053-2.12-5.143-3.232-8.538-.882-2.692-1.693-5.51-2.678-8.347-1.609-4.64-2.538-8.33-3.43-12.596-.132-.627-.358-1.358-.274-1.507.51-.339 1.899-.201 2.143.182zm.903.29c-.159-.123 1.467-.144 1.986.257.154.142.429 1.035.664 2.181 1.46 6.999 3.664 14.232 6.227 21.086 2.048 5.475 4.286 10.747 7.077 15.017.876 1.422 2.06 2.943 3.571 4.587.846.92.915 1.05.686 1.303-.28.31-.77.27-1.714-.143-.88-.386-1.833-1.229-2.727-2.42a132.1 132.1 0 0 0-1.035-1.36c-4.117-6.565-6.612-12.799-8.873-19.13-2.318-6.493-4.4-13.058-5.811-20.623l-.05-.755zm5.182.992c.361.339.567.986.88 2.338 1.708 6.49 3.107 12.287 5.128 17.615 1.088 2.866 2.03 5.729 3.196 8.428 1.864 4.313 4.147 8.242 6.954 11.515.925 1.078 2.607 2.408 4.02 3.181.978.537 1.125.673 1.06.983-.086.278-1.041.394-1.355.371-1.546-.244-3.831-1.35-4.483-2.167-4.723-4.705-8.094-12.4-10.548-18.713-4.218-10.869-7.613-24.443-6.964-24.021-.043-.316 1.693.049 2.112.47zm2.033.395c.153.002.326.027.518.076.883.223.998.336 1.21 1.233 1.503 6.205 3.098 11.678 4.877 16.883 1.811 5.298 3.675 10.294 6.584 15.536 2.133 3.825 4.835 6.47 7.744 7.81.835.386 1.58.755 1.657.824.076.069.055.269-.047.444-.154.264-.33.317-1.043.305-1.32-.022-2.245-.401-3.662-1.279-3.714-2.361-6.957-7.703-8.387-10.733a115.448 115.448 0 0 1-4.793-11.724c-2.593-7.514-4.208-12.485-5.388-18.824 0-.364.27-.56.73-.551zm55.695 10.204-.03 2.2c-9.36.56-18.952-3.091-26.662-6.375 5.802 7.094 11.995 13.391 26.65 14.707l.023 2.271c-19.09-.271-32.51-18.065-31.797-22.494 7.845 4.673 22.023 10.084 31.816 9.691zm-52.673-9.375c.459.02 1.077.2 1.318.422 1.553 5.357 2.681 11.304 5.252 17.275 3.159 7.337 4.908 13.811 10.776 19.86 1.825 1.729 5.407 1.681 5.407 1.681s-.454.934-1.064 1.09c-1.26.173-2.172.224-3.09-.05-3.402-1.326-5.999-4.672-7.34-6.939-1.256-1.7-4.318-8.698-6.84-15.833-2.745-7.768-5.005-15.844-4.743-17.468a.754.754 0 0 1 .324-.038zm3.145.905c.225.001.523.08.882.237.383.169.55.273.748.936.13.432.107 1.1.336 2.185 1.319 5.594 3.142 10.136 4.953 14.562 1.72 4.205 3.566 8.332 5.844 12.066 1.15 1.88 2.291 3.638 3.012 4.303 1.964 1.81 5.3 1.904 6.287.111.546-1.02.437-2.635-.64-3.474-.836-.735-2.732-.427-2.784.459 0 .235.471.131 1.154.058 1.909-.2 2.502 2.906.047 3.422-3.108.652-5.258-3.213-2.512-5.577 4.652-2.893 8.195 1.072 7.091 4.879-1.064 2.25-2.845 3.395-5.194 3.472-3.032.086-4.286-.778-7.389-4.936-3.556-5.265-5.095-10.4-7.599-16.155-2.368-5.443-3.94-11.246-4.678-16.312.066-.157.217-.236.442-.236zm2.947.902c.274.01.851.143 1.106.288.152.087.371.28.371.28 4.16 14.03 7.634 22.436 11.173 28.37 0 0-.059 1.09-.295 1.4-.424.554-.63.417-1.18-.46-2.227-3.976-4.346-8.367-6.32-12.892-2.324-5.326-4.384-10.838-5.254-16.082.047-.675-.118-.865.399-.904zm28.185 8.051c.59.001 1.072.44 1.071.983 0 .544-.483.986-1.074.985-.591 0-1.072-.444-1.071-.987 0-.544.482-.981 1.074-.98zm-86.854-.284c-1.242 1.55-2.265 7.109-3.555 7.175-1.418-.022-3.143-.773-4.257.405-1.354 1.431-.527 3.016 1.139 3.89.765.35 2.396.435 3.387.175 4.058-1.246 5.607-7.296 3.286-11.645zm90.907 1.568c.854.001 1.544.642 1.542 1.427 0 .786-.692 1.42-1.546 1.42-.855-.002-1.544-.638-1.543-1.423 0-.786.692-1.425 1.547-1.424zm-90.838.566c1.382 3.207-.158 7.039-1.85 8.328-1.556 1.186-3.997 1.336-5.389.177-1.16-1.004-.64-3.413 1.524-3.23.729.022 1.594.632 2.082 1.276 1.41.135 3.042-6.436 3.633-6.551zm96.225.899c.964.001 1.744.72 1.743 1.607-.002.886-.784 1.604-1.748 1.602-.964 0-1.744-.72-1.743-1.606.002-.887.784-1.604 1.748-1.603zm6.178 1.14c.984.001 1.78.735 1.778 1.64 0 .905-.799 1.637-1.783 1.636-.984-.002-1.78-.735-1.779-1.64.002-.905.8-1.637 1.784-1.636zm-57.522 7.379c.266-.002.452.233.626.704.36.977.352 1.091-.213 1.746-5.488 6.965-.505 14.101 7.431 14.885.67.044 1.005.737 1.358 1.545-.049.38-.053.38-1.854.408-1.177.018-2.12-.05-2.71-.197-2.78-.692-6.183-3.006-7.573-5.148-1.601-2.47-1.866-5.02-.87-8.421.638-2.183 1.446-3.624 2.696-4.811.498-.474.844-.71 1.11-.711zm51.93.836.06 23.924-2.774.926.15-25.443zm5.244.93c3.44 7.886 3.583 15.11.457 21.68l-3.15.415c4.332-9.255 2.505-15.886.074-22.288zm-165.599 1.114 11.196 9.74.236 108.369-1.786-.583-.561-106.59-9.09-7.684zm109.468.443c.018 0 .037.003.056.005.3.034.574.381.825 1.04.296.775.29.798-.043 1.566-1.543 3.465-.293 6.766 3.504 7.81.902.264 1.051.4 1.58 1.428.342.669.496.91.362 1.058-.197.132-.68.193-2.11-.092-5.649-1.78-7.692-7.468-5.115-11.976.322-.515.615-.795.884-.834a.328.328 0 0 1 .057-.005zm-45.002-.483s1.175 3.837 1.06 4.707c-.301 1.68-2.903 4.363-5.176 5.34-2.108.74-5.29.363-6.62-.928-4.83-5.211 4.203-10.426 6.465-5.004 1.358 3.557-4.19 4.392-4.432 1.66 0-.704.248-.924.962-1.381.635-.407.562-.769.016-.77-2.095.7-2.146 2.476-1.205 3.596 1.884 1.817 4.221.763 5.832-.567 2.17-1.79 2.599-4.365 3.098-6.653zm46.796 4.013c.108 0 2.319 4.874 2.611 5.568-.074.489-.653.452-1.641-.184-1.004-.646-1.303-1.101-1.726-2.597-.127-.532-.34-2.467.756-2.787zm-45.003 2.002c.487 0 .992 1.65.76 2.493-.4 1.46-4.568 3.925-7.494 4.432-.587.101-1.216.21-1.396.239-.606.099-1.312-.214-2.047-.904-.518-.487-.765-.971-.64-1.086.102-.093 1.443.123 2.58.108 3.189.038 5.652-2.062 7.548-4.566.289-.394.599-.716.689-.716zm-63.364 1.143s2.156 1.799 3.291 2.83c-.129 4.777-2.054 9.955-2.058 14.226.04 3.716 2.651 6.814 2.911 10.047.155 2.092-.518 5.198-1.642 7.55-1.047 2.19-1.6 4.525-1.601 6.794.125 5.28 4.24 11.056 2.784 16.277-1.368 4.904-2.921 7.736-2.514 10.342.785 5.028 3.685 9.487 2.906 13.667-.726 3.893-2.643 7.78-2.444 11.291.23 4.055 1.875 7.447 2.335 11.146.3 2.41-.445 6.156-.445 6.156l-3.025.226c1.671-5.694-.8-10.847-1.74-16.323-.802-4.662 1.474-8.369 2.157-12.344.424-2.469-.048-4.821-1.374-7.968-2.622-5.811-1.671-9.595.23-14.65 2.351-5.383-.865-9.651-1.661-14.812-.408-4.447-.082-7.59 1.74-11.542 1.36-3.805 1.745-6.011-.268-9.666-1.273-2.31-1.604-3.674-1.602-6.714.668-6.03 2.442-9.409 2.02-16.533zm64.8 2.483c.47 0 .703.306.703.921-.002 1.126-1.828 2.549-5.056 3.94-1.675.722-2.646.828-3.625.401-.913-.398-.867-.746.135-1.014 2.523-.674 4.314-1.598 6.354-3.277.649-.534 1.32-.971 1.49-.97zm-14.598.759c8.31 8.2 16.465 12.426 22.701 14.404l-.984 2.14c-8.193-2.93-16.55-7.002-23.621-15.74zm16.033 1.357c.224 0 1.071.99 1.07 1.252 0 .154-.309.649-.689 1.094-.552.649-1.038.982-2.414 1.673-1.865.936-2.992 1.163-3.8.77-.802-.392-.532-.72 1.476-1.802 1.037-.558 2.42-1.46 3.072-2.002.653-.542 1.228-.985 1.285-.985zm-22.046 1.182c6.805 8.586 15.576 14.296 25.894 17.35l-1.626 2.015c-9.425-2.999-18.638-8.414-27.05-17.94zm23.808 1.086c.343 0 1.113.8 1.112 1.158 0 .17-.151.484-.334.698-.366.425-2.27 1.74-3.083 2.124-.635.301-1.111.296-1.801-.02-.82-.377-.68-.692.659-1.482a17.693 17.693 0 0 0 2.204-1.592c.557-.489 1.117-.886 1.243-.886zm-27.428.592c-.194.224-10.068 20.945-30.945 35.62l-.093-3.443c11.564-8.41 19.98-19.935 26.329-30zm29.406 1.525c.316-.008.538.19.76.576.264.463-.026.875-1.194 1.684-.73.505-1 .603-1.602.593-1.552-.028-1.513-.372.192-1.77.885-.726 1.439-1.074 1.844-1.083zm40.274 1.072 4.347.312c1.17.75-17.008 11.66-29.6 10.664l.338-2.619c11.055.303 25.217-7.884 24.915-8.357zm-37.292.979c.998.516 2.24 1.126 1.93 1.324-.462.266-3.411.09-4.09-.245-.508-.251-.479-.382.223-1.104.86-.886 1.007-.452 1.937.025zm-38.753-.697c-6.905 11.167-15.124 21.358-24.632 27.993l-.118-5.912c9.049-6.387 15.908-18.067 15.925-18.109zm86.285.816 2.105 1.134c-13.152 11.165-27.347 15.967-40.98 14.743l1.1-2.264c22.123 1.634 36.836-13.398 37.775-13.613zm3.193.4s.706-.08.63.052c-4.367 3.925-10.36 8.113-14.286 10.45-18.6 17.518-34.52 31.34-50.721 46.945l-2.583-2.492 2.345-2.276c.014-4.501 6.016-9.542 9.576-13.425 1.485-1.536 4.276-5.485 3.962-7.146-.107-.38-.122-.524-.122-.524 5.623-1.025 6.974-5.215 7.1-8.921.267-2.477.63-4.727 1.54-6.761 25.44 1.905 41.858-15.299 42.559-15.902zm-44.342 2.533c2.886-.005 5.064 2.097 5.054 5.075-.026 1.246-.504 2.19-2.345 5.482-1.782 2.813-2.017 4.526-2.72 7.777l-1.806-1.496-3.293 2.721.051-3.971s1.137-1.325 2.975-3.217c2.328-2.37 4.437-5.425 4.343-7.141-.06-1.718-2.03-3.119-4.05-1.998-1.754 1.124-2.566 3.162-3.607 9.255-.184 1.08-.358 2.35-.454 2.628-.26.75-2.8 2.952-2.8 2.952-.215 0-1.21-4.474-1.21-4.474l-2.562.386a30.78 30.78 0 0 0 6.783-10.271c1.38-2.307 3.132-3.686 5.641-3.708zm-55.746.882s-5.115 9.737-14.08 16.064l-.052-3.815c5.208-3.704 9.182-10.093 9.176-10.08zm122.774.395c-17.73 16.838-40.885 47.854-12.267 91.502l3.795-4.016c-23.038-39.471-6.642-59.896 8.588-80.391zm-95.748 1.275c5.179 3.396 10.586 6.768 17.58 8.915-.374 1.145-10.005 8.578-3.111 15.469.288.36-.448 1.236-1.573 2.477-3.304 4.14-6.6 7.088-9.364 11.75l-.125 8.764-2.753-2.24zm95.065.922.11 4.998c-26.35 29.37-23.426 55.848-8.589 80.25l-2.852 2.653c-24.32-38.607-9.072-67.67 11.33-87.901zm-64.91 2.878c-1.164 2.816-6.245 7.637-6.245 7.637s.679-4.7 1.104-6.182c.324-1.132 1.055-2.66 1.775-3.391 2.052-2.069 4.092.285 3.366 1.936zm-34.902-2.685.437 39.393-3.693-3.432-.502-30.124zm-5.006 7.703.697 26.748c-3.68-8.018-8.855-16.797-8.96-16.71 0 0 4.254-5.176 8.263-10.038zm29.195 8.404s.565-.435 1.45-1.367c1.921-1.78 2.095-1.792 1.914.611-.07.924-.013 2.11-.013 2.11 1.123-.598 3.774-3.47 4.521-2.95.578.5 1.043 1.542 1.053 3.16-.07 3.166-2.023 6.072-5.112 7.016-8.528 2.418-14.233-6.63-8.305-12.355.589-.569 2.267-1.622 3.072-1.412.995 1.677.957 3.535 1.42 5.187zm84.587-2.74c.494 1.248 1.127 2.483 2.853 3.043-.32 38.301-.218 106.11-.218 106.11l8.366 7.238-.06 3.158-11.087-9.358s-.482-79.968.146-110.19zm8.316 1.785c.293 3.705-.395 7.606.292 11.413.679 2.632 1.71 5.006 1.79 7.596.074 2.368-.095 3.715-1.2 7.021-.772 2.307-.85 2.675-1.029 4.983-.42 3.212.706 6.125 1.568 8.686 1.147 3.395.82 7.5-1.029 12.912-.666 1.947-.793 2.769-.7 4.534.25 3.707 1.685 7.233 2.413 10.872.394 2.086-.016 4.813-1.42 9.438-.522 1.72-1.074 4.718-1.076 5.851-.002 1.216.418 3.505.825 4.494 1.93 4.684 2.024 5.522 2.12 8.336.011 2.112-.655 4.249-1.473 6.107-1.362 2.97-.474 6.02-.013 9.36l-3.336-2.628c-.98-2.859-.63-5.53.286-7.66 1.304-3.336 1.63-3.645 1.614-5.565-.02-2.545-1.603-5.557-2.258-7.35-1.16-3.18-1.16-6.296.004-9.656.571-1.65 1.398-4.886 1.584-6.2.36-2.525.093-4.52-1.28-9.591-.669-2.474-.81-3.43-.853-5.891-.04-2.28.323-4.652 1.124-7.4 1.153-4.367 1.144-6.99-.343-11.044-1.203-3.35-1.538-5.622-1.226-8.289.181-1.547.643-2.997 1.418-4.444 1.435-3.283 1.659-6.425.599-9.562-1.821-6.42-1.786-9.68-1.598-15.474zm-9.386 2.09c-.328 26.247-.075 56.297-.075 56.297s-8.464 5.434-8.43 5.151c-10.872-16.534-14.99-40.876 4.073-62.804 0 0 3.061 1.206 4.432 1.355zm-128.615 6.1c15.383 26.496 17.351 53.246-8.185 80.656.818 2.427.68 4.687.268 6.9 4.976-3.553 44.892-40.116 11.392-91.135zm78.587-2.06 7.574.418.501 5.992-2.451 2.23s-.044-1.24-.074-2.346c-.037-1.354-.244-2.54-.382-2.498-.127.039-.267 1.619-.379 3.341l-.117 2.572-.848.778c-1.13 1.036-1.359.955-1.4-.506-.09-3.177-.082-3.395-.334-3.163-.143.13-.224 1.218-.26 2.86-.03 1.304-.132 2.553-.226 2.775-.192.455-1.634 1.635-1.998 1.635-.352 0-.331-.46-.33-2.436 0-1.667-.188-2.583-.48-1.968-.07.145-.193 1.801-.22 3.147-.028 1.346-.126 2.575-.215 2.728-.315.54-1.804 1.695-2.065 1.602-.376-.133-.468-1.122-.453-2.776.007-.81.146-1.493-.193-1.713-.338-.22-.4.717-.312 3.096l-.03 2.586-.95.952c-1.507 1.424-1.61 1.355-1.61-1.106.069-1.948-.005-2.802-.423-2.648-.418.154-.253 1.095-.173 3.015.07 1.716.046 2.576-.081 2.794-.102.174-.59.68-1.085 1.122-.494.443-1.104 1.056-1.177 1.056-.112-2.068-.298-6.518-.298-6.518l-7.899-.33s1.62-1.764 2.308-2.103c.357-.175.914-.196 2.894-.114 1.35.055 3.165-.048 3.327-.105.594-.209-.643-.397-2.386-.503-1.164-.078-1.465-.05-2.756-.225l1.151-1.089.863-.787 2.52.078c1.525.05 2.658.042 2.834-.048 1.492-.269.095-.583-1.606-.587-1.66-.005-2.597-.009-2.597-.343 0-.341 1.86-1.889 2.39-1.989.273-.052 1.624-.101 3.003-.11 2.368-.014 3.228-.045 3.095-.407-.132-.361-1.701-.257-2.745-.3-2.9-.007-3.034-.109-1.05-1.7l.96-.773 1.818.049c2.742.074 4.07-.025 4.07-.264 0-.216-1.784-.427-3.3-.429-.906-.001-1.642.012-1.642.012.678-.81 1.405-1.466 2.2-2.187l2.448-.04c1.788.027 2.885.091 2.916-.208.03-.3-.64-.298-1.463-.304-1.112-.008-2.432-.097-2.607-.258-.187-.173.164-.653.942-1.292l.801-.665zm-74.987-.012c21.142 31.851 13.445 66.233-10.21 87.61l-.687-4.178c22.338-24.912 26.27-50.658 8.27-80.978zm39.397 4.32c-3.812 5.256-9.635 10.437-11.836 14.73-.45.482-.598 1.571-1.296 1.788-.348 0-.462-.607-.372-2.011.067-1.057.175-1.412.732-2.444 3.009-5.036 6.493-8.653 10.34-13.434zm.89.511 3.516.21c-.785 2.286-1.841 3.917-3.088 5.4-1.598 1.901-3.52 3.818-5.759 6.156-3.243 3.387-4.87 6.838-4.721 8.357-.812.784-1.375 1.324-2.405 2.127l-2.048-1.736c1.53-7.17 8.904-13.75 14.505-20.514zm43.014 2.965 1.14.062c3.899.215 6.33.438 6.471.593.087.097.2.648.255 1.223.083.875.001 1.456-.503 3.54-.332 1.37-.703 2.584-.825 2.698-.45.418-.628 0-.834-1.946-.124-1.174-.173-2.03-.341-1.935-.08.045-.257 1.306-.209 2.246.128 2.448.11 3.047-.718 3.784-1.45 1.291-1.53 1.16-1.636-1.134-.044-.952-.288-2.34-.361-2.408-.313-.288-.42 1.03-.426 3.261l-.003 2.379-.689.688c-.898.894-1.19 1.03-1.52.725-.204-.188-.127-.595-.126-1.954.003-1.593-.299-2.51-.628-2.205-.062.057-.08 1.598-.086 2.94-.007 1.343-.027 2.53-.045 2.638-.054.323-1.698 1.84-1.994 1.839-.345 0-.618-1.754-.616-3.187.001-.957-.22-1.125-.441-.6-.055.132-.1 1.475-.101 2.68l-.003 2.19-.967.915c-1.292 1.227-1.502 1.155-1.503-.525 0-1.448-.105-2.214-.423-2.214-.182 0-.226.685-.229 2.312-.001 1.116-.082 2.22-.178 2.454-.096.234-.52.747-.94 1.141-.422.394-.854.716-.961.716-.178 0-.43-1.372-.362-1.964.014-.124.016-.988.003-1.92-.031-2.226.133-2.13-3.729-2.247-4.531-.136-4.597-.161-3.231-1.372 1.297-1.15 1.114-1.108 4.118-.92 2.411.15 2.703.14 2.946-.082.148-.136.23-.283.185-.325-.046-.043-.965-.121-2.043-.177-2.984-.156-3.243-.354-1.979-1.513l.715-.66 3.054.004c2.06.002 3.463-.08 3.54-.193.197-.294-.62-.369-2.58-.476-1.052-.058-2.043-.14-2.201-.182-.499-.136-.312-.599.53-1.321l.812-.698 2.695.004c2.502.003 3.726-.146 3.727-.45 0-.214-.497-.3-1.78-.317-1.818-.024-3.03-.187-3.11-.415.443-.788 1.057-1.228 1.773-1.886l2.74.093c2.759.094 3.624.003 3.625-.439 0-.23-1.18-.398-2.71-.315-.984.054-2.176-.164-2.175-.484 0-.137.396-.614.884-1.056l.89-.801 2.683.102c1.498.058 3.095.046 3.213-.029.447-.28-.586-.5-2.272-.593-2.6-.141-2.77-.328-1.394-1.52zm-93.6 1.208c13.874 22.917 11.76 44.487-3.076 62.83-1.7-.913-3.51-1.412-5.449-1.603l-.296-55.29zm99.452 9.069c.279-.04.273.381.193 1.27-.064.713-.18 1.46-.264 1.66-.16.386-.287.404-1.637.225-1.538-.204-1.515-.46.177-1.987.82-.74 1.285-1.134 1.531-1.168zm-74.665.939s1.832-.01 2.747.022c0 0 .136 4.285.507 6.757l5.96.27-2.317 2.21-4.52-.137s-1.365-6.084-2.377-9.122zm71.026 2.676c.84-.012 3.043.338 3.3.575.2.186.207.643.026 3.408-.066.996-.134 3.137-.15 4.757-.031 2.932-.032 2.944-.4 2.992-.486.063-.542-.094-.67-2.026-.072-1.087-.234-2.04-.372-2.082-.158-.048-.145.91-.147 2.893l-.004 2.563c-.475.362-.915.84-1.46 1.093-.333 0-.511-.482-.674-1.822-.162-1.332-.321-2.27-.516-1.974-.045.07-.029 1.52.063 2.71l.166 2.166-1.048.966c-1.075.995-1.21 1.076-1.382.82-.398-.987.174-5.506-.792-6.08-.155-.075-1.44-.11-2.93-.169-2.517-.1-3.945-.14-4.296-.42-.212-.17.978-1.435 1.589-1.688.44-.182.937-.193 3.012-.062 2.402.15 3.614.135 3.296-.148-.083-.073-1.306-.24-2.263-.328-1.931-.178-2.612-.358-2.612-.687.451-.733 1.003-1.165 1.666-1.792l.934.091c.513.048 1.728.169 2.7.272.97.104 2.93.123 2.14.06.257-.237-.745-.48-2.135-.64-2.62-.302-2.857-.575-1.537-1.767l.812-.73c1.376.097 2.766.13 4.131.325.999.147 1.54.096 1.54-.215 0-.218-.497-.21-1.703-.432-.438-.08-2.693-.052-2.73-.664.533-.677 1.488-1.911 2.446-1.965zm-61.085 5.123c.4-.02.419.876.457 3.243.042 2.592.087 3.039.33 3.262.23.212.808.286 3.283.405 3.79.181 3.888.232 2.55 1.414-.932.822-.971.718-1.736.635-2.003-.218-4.93-.172-5.046-.001-.198.294.016.353 1.847.483 2.229.159 2.838.232 2.838.58 0 .152-.38.602-.843.999l-.843.721-2.346-.088c-2.468-.095-3.736-.128-3.736.18 0 .186 1.408.394 3.643.599.58.053 1.174.063 1.206.152.08.224-1.051 1.509-1.748 1.985-.567.388-.758.171-3.234.119-2.527-.053-2.745.035-2.274.465.112.102.53.114 1.473.176 1.546.102 2.288.315 2.288.668 0 .337-1.397 1.663-2.05 1.947-.577.25-.825.262-2.1.096-1.006-.13-1.196-.323-1.169-1.19.013-.391.09-2.923.172-5.63.158-5.227.206-5.494.958-5.394.32.043.396.399.479 2.172.089 1.886.174 2.26.515 2.261.128 0 .148-.748.07-2.567-.12-2.823-.124-3.242.812-4.058.417-.364.749-.655.945-.391.395 1.114.28 2.33.396 3.446-.013 1.124.462 1.36.574.288a186.126 186.126 0 0 1-.075-5.036l1.141-1.036c.602-.548.983-.893 1.223-.905zm-7.389 2.105c.453-.068 2.99-.026 3.357.052-.64.927-2 2.131-2.93 2.663-.234.011-.472-2.25-.427-2.715zm71.834 5.217.534 3.489-4.142-.265zm-55.813.5a.18.18 0 0 1 .072.009c.299.106.383.779.497 4.017.054 1.524.166 2.718.268 2.832.12.133.636.199 1.596.2.78.001 2.248.048 3.264.103 2.216.12 2.275.206.953 1.403l-.894.81-2.777-.107c-2.847-.11-3.32-.066-3.321.294 0 .245.485.362 1.395.341.362-.008 1.267.037 2.012.102 1.663.144 1.696.26.455 1.487l-.894.882-.868-.11c-1.394-.178-5.059-.14-5.27.055-.343.314.101.45 1.77.545 2.586.148 3.037.219 3.037.49 0 .131-.367.577-.812.985l-.807.74-3.285-.16c-2.303-.038-3.09-.003-3.141.133-.09.238.288.313 2.663.542 2.28.22 2.611.436 1.743 1.427-.954 1.088-1.312 1.21-3.107 1.049-1.975-.178-3.993-.185-4.286-.015-.455.265.012.442 1.416.54 2.126.148 3.367.36 3.366.646 0 .324-.705 1.154-1.388 1.631l-.56.391-2.427-.238c-2.418-.24-3.655-.124-3.311.194.1.092 1 .223 1.996.29 1.824.123 2.73.342 2.73.688 0 .103-.466.61-1.034 1.126a6.936 6.936 0 0 1-1.222.87l-7.472-.625s-.38-1.227.376-4.559c.68-3.003.958-3.677 1.282-3.118.09.155.172.885.234 1.383.15 1.206.47 1.964.665 1.964.216 0 .216-.716-.064-2.402-.39-2.35-.435-2.443.539-3.388.835-.81 1.307-1 1.566-.63.073.103.172 1.168.27 2.062.17 1.572.272 1.932.495 1.728.143-.132.25-.581.096-2.912l-.197-2.265 1.095-1.023c1-.935 1.115-1 1.315-.759.137.166.29 1.14.361 2.3.106 1.714.254 2.279.526 2.03.129-.119.071-4.012-.065-4.914-.089-.589-.044-.675.767-1.51.966-.993 1.473-1.404 1.737-1.408.347-.006.535.971.535 2.27 0 1.387.118 1.936.26 2.11.36.448.405-1.118.321-2.666l-.093-2.822.997-.915c.943-.865 1.02-.903 1.284-.659.218.202.203.68.29 2.106.129 1.97.547 2.93.67 1.563.063-.31.055-.912-.02-1.34-.073-.43-.133-1.402-.13-2.158.005-1.153.066-1.46.373-1.916.443-.658 1.748-1.682 2.158-1.72zm43.167 2.199s1.666 1.313 1.666 1.687c0 .166-.662.886-1.558 1.692-1.651 1.486-1.807 1.742-2.001 3.34-.072.595-.4 1.384-1.164 2.792-.586 1.079-1.43 2.339-1.43 2.339-2.638 2.89-5.125 5.536-9.75 11.638-.264.56-.278 1.123-.548 1.588-.209.345-.675.629-.88.707-.304.117-.914.463-1.356.773-1.726 1.207-2.84 2.8-3.343 4.781-.273 1.071-.435 2.034-.911 5.337-.196 1.358-.847 3.723-.847 3.723-9.918-.142-19.204 1.427-27.487 5.712zm13.25 1.417 2.195 9.22-2.274-.045-.216-6.692-7.093-.632 2.539-2.253zm-10.764.832c.607.57 1.363 1.196 1.912 1.815-1.905 5.828-7.921 13.385-13.898 20.882l-4.372-.444c-.077-.165 6.068-8.023 9.008-11 1.12-1.244 1.882-2.424 2.882-4.257.362-.663.995-2.381 1.482-4.172 1.033-1.142 2.993-2.806 2.986-2.824zm2.353 2.047 3.301 3.086.745 43.64c-5.093-3.685-11.097-6.417-17.501-8.5l1.12-2.344 1.235-1.216c4.364-4.33 3.4-9 .09-12.304 4.046-5.41 7.71-9.44 10.794-14.721l-.036-3.625c-.031-3.341.252-4.016.252-4.016zm-39.549 1.774c.346-.032.389.775.473 3.063.079 2.14.175 3.153.329 3.375.206.299.405.325 3.15.405 2.898.085 3.5.163 3.5.448 0 .081-.373.491-.827.91l-.828.759-2.581-.04c-1.376.038-3.001.011-3.044.047-.228.195.63.462 1.888.465.783.003 2.028.132 2.171.182.489.173.259.617-.808 1.557l-1.064.942-2.345-.045c-1.288-.023-2.856.01-3.06.072-.713.217-.358.395.821.411 1.973.028 3.334.18 3.392.462.028.138-.338.64-.823 1.118l-.879.863-3.449-.137c-3.26.018-3.7.241-.98.495 1.038.096 2.677.334 2.735.343.058.008.15.121.205.25.114.275-1.201 1.634-1.902 1.966-.36.17-.612.182-1.237.05-.735-.154-3.895-.13-4.235.057-.286.156.334.338 1.211.355 1.32.026 2.894.38 2.894.669 0 .238-.67.999-1.383 1.57-.33.265-1.113.027-3.295.09-1.495.044-2.49.17-2.49.262 0 .083.74.353 1.693.417.944.063 2.238.272 2.325.352.221.205-1.46 2.026-1.46 2.026l-7.172-.101-.651-6.986.612-.646c1.374-1.456 1.673-1.244 1.943 1.371.198 1.916.346 2.501.649 2.224.11-.101.067-1.195-.043-2.804-.09-1.323-.165-2.53-.165-2.68 0-.365 1.634-1.938 1.953-1.881.313.055.487.708.653 2.497.137 1.47.211 1.871.527 1.582.147-.136.169-.905.024-2.766l-.191-2.43.694-.755c1.392-1.514 1.665-1.345 1.83 1.116.112 1.66.285 2.535.618 2.535.111 0 .116-1.24.05-3.115l-.098-2.813.868-.81c.479-.445.966-.806 1.08-.806.337 0 .53.706.74 2.375.236 1.869.315 2.19.51 2.01.084-.076.068-1.207-.042-2.661l-.237-2.785 1.059-.985c.583-.54 1.168-.961 1.3-.938.318.057.523.9.546 2.092.021 1.113.226 2.07.494 2.318.133.122.173-.563.143-2.549-.048-3.058-.133-3.291 1.366-4.723.4-.382.662-.629.843-.645zm38.717 1.296.026 4.268c-1.865 3.658-6.172 9.017-10.537 14.769l-2.273-1.135c5.461-6.565 10.028-12.684 12.784-17.902zm-62.249 1.267c.103-.002.217.003.344.01 1.177.064 1.208.437.111 1.378-.459.394-.981.706-1.181.706-.34 0-.355-.047-.25-.86.129-.998.261-1.23.976-1.234zm71.036 3.162 3.21 2.911.76 31.255-3.389 5.067zm4.019 4.124c2.887 6.271 5.889 12.152 9.214 16.921l-8.605 11.142zm-28.91 9.708c3.949-.046 7.58 2.832 8.034 5.753.858 3.355-1.025 6.965-4.11 8.07-1.074.354-1.703.377-1.703.377-.372-2.023-.207-3.97-.704-6.024 0 0-1.851 2.24-2.893 3.023-.54.274-.781.347-.71-.302.037-1.135.135-3.655.135-3.655l-4.57 4.337s-.37-.472-.808-1.554c-1.428-3.53.438-7.212 3.38-8.902a7.75 7.75 0 0 1 3.948-1.123zm60.708-.191.082 3.82c-7.169 5.097-17.4 15.843-26.172 29.853l-3.858 1.49c5.958-13.043 18.514-26.318 29.948-35.163zm.07 5.024.069 5.694c-6.328 5.579-11.826 11.343-16.615 18.765-2.79 1.228-7.961 3.562-7.961 3.562-.647-.145 14.106-21.203 24.508-28.021zm-63.747 4.8c.288-.004.273.51.181 1.252-.207 1.68-.422 2.29-1.093 3.109-2.318 2.51-6 5.923-6.505 9.1-.256 1.699 1.184 3.29 2.6 3.128 4.4-.5 4.883-7.688 5.26-11.234.155-.88.227-1.617.387-1.894.929-1.087 1.927-2.146 3.179-3.004l.531 5.496 2.48-.758c-7.003 8.728-4.995 9.278-8.687 12.852-3.432 3.322-10.074-.475-8.366-5.53 1.483-3.4 3.776-6.81 4.4-10.454.168-1.082.267-1.833.267-1.833l1.585 3.05c.81-.732 3.173-3.153 3.78-3.28zm63.999 1.961-.021 3.923c-3.264 3.37-6.081 5.96-9.417 10.62l-5.293 2.211c3.461-6.044 9.134-11.695 14.73-16.754zm-64.628 3.383s.348 1.832-.43 5.157c-.369 1.576-2.026 6.178-4.633 5.09-2.213-1.802.492-5.137 1.854-6.712 1.053-1.132 2.197-2.355 3.209-3.535zm-6.962.462-1.446 2.835c-12.959.028-25.55 4.275-36.763 12.963l-2.832-.857c11.882-10.307 26.6-15.307 41.04-14.94zm13.619 2.197c14.597 4.514 21.33 11.083 26.844 17.97l-2.31 1.086c-5.78-6.895-12.914-13.207-26.21-16.868zm-16.738 4.223-.624 2.43c-8.179.216-16.813 2.874-25.218 8.224l-3.028-.447c8.46-6.088 18.118-9.559 28.87-10.207zm37.352 16.465-2.595 1.122c-7.727-9.242-14.722-11.88-22.67-14.24l.86-2.048c10.681 2.62 18.515 7.618 24.405 15.166zM44.186 943.23l.19 24.639-1.866-.345-.232-23.829zm-4.323 1.33c-3.574 12.252-.82 15.429.455 22.582l-2.944-.437c-2.858-7.248-3.142-13.84-.713-21.53zm89.506 1.99c.222.195-.181.797-.73 1.094-.532.288-.414.244-1.263-.04-.826-.275-1.877-.994-1.877-1.266.603.01 3.342-.014 3.87.212zm2.51.178c.487.054 1.896.031 1.984.437.032.242-.521.633-1.653 1.342-1.72 1.077-2.305 1.29-2.809.776-.477-.486-.336-.99.47-1.67.785-.664 1.238-.89 2.008-.885zm-58.661.198c.984.001 2.744 1.122 3.805 2.421 1.074 1.552 2.31 3.145 3.309 4.714 2.268 3.567 4.018 7.186 5.481 10.89 3.836 8.809 6.08 17.347 7.945 25.831-.037.715-.71.7-1.264.532-.288-.086-.573-.263-.63-.397-.793-2.079-1.066-4.203-1.67-6.289-1.511-5.217-2.051-8.205-4.967-15.562-1.512-3.818-3.703-9.133-6.099-13.218-1.535-2.618-3.313-5.04-5.62-7.18-.61-.56-1.369-1.072-1.369-1.182 0-.361.385-.56 1.079-.56zm62.407.358c.912.207 3.113.447 2.277 1.117-3.097 1.09-4.101 2.275-5.743 3.48-.248 0-1.225-1.116-1.225-1.388 1.333-1.503 3.011-2.143 4.69-3.209zm-57.932-.06c1.294-.041 2.557 1.498 3.153 2.467 3.971 5.39 7.367 13.071 10.159 20.6 3.005 8.103 4.91 15.893 5.733 21.42-.071.17-.445.234-.873.23-.815-.006-.93-.18-1.138-.776-2.062-9.143-4.834-18.582-8.195-26.595-1.805-4.27-3.853-8.559-6.736-12.865-1.966-2.658-3.083-4.053-2.996-4.26.059-.141.384-.212.765-.212.041-.005.086-.008.128-.01zm-8.895.15c1.746-.003 4.632 1.905 6.59 4.354 4.15 5.247 6.521 11.374 8.982 17.318 2.826 6.812 4.86 14.382 6.074 20.34.207.854.546 1.228-.33 1.495-1.327-.35-1.297-.315-1.671-1.8-.515-1.596-.67-3.207-1.158-4.83-2.79-9.278-5.916-19.576-11.119-27.958-6.251-9.228-8.078-6.666-9.083-8.294.077-.367.776-.624 1.715-.625zm15.071 2.269c5.372 8.62 7.738 13.912 9.368 19.116 2.47 7.888 5.4 14.188 6.678 23.394 0 0-1.415.023-1.981-.19-.234-.216-.482-1.136-.629-1.89-1.283-6.501-3.377-14.195-5.606-20.258-2.402-6.749-5.262-13.169-9.494-19.372-1.109-1.67-1.32-2.328-.638-2.355 1.214.077 1.748.937 2.302 1.555zm56.09-.853c.25.002.35-.03.806.114.713.227.94.37.98.63.058.377-.384.5-1.762.795-1.083.231-3.198 1.265-4.669 2.387-.682.52-1.27 1.08-1.433 1.08-.338-.001-1.144-.819-1.143-1.159 1.127-1.579 4.711-3.744 7.222-3.847zm-74.181.123c4.557.134 8.116 5.005 9.981 8.29.727 1.286 1.67 2.684 2.381 4.152 3.688 7.608 6.813 17.15 8.338 23.245.734 2.932 1.583 5.083 1.28 5.656-.375.217-1.169.05-1.534-.234-.233-.18-.36-.852-.772-2.077-1.058-3.14-2.806-12.118-7.38-21.554-.103-.211-2.315-6.18-6.143-11.844-1.559-2.307-4.082-3.757-6.384-4.232-1.159-.175-1.504-.05-1.431-.625.046-.366.17-.466.791-.646.276-.08.566-.124.873-.13zm28.458 19.484c-.312 0-.587-.548-.793-1.445-.102-.442-.241-.756.658-1.273 5.662-5.522.812-13.645-6.292-14.36-.659-.093-1.508-.097-1.755-.182-.36-.188-1.02-1.364-1.308-1.837 9.824-2.177 20.227 10.762 9.49 19.097zm48.945-18.003c.585.136 1.856 1.224 1.696 1.46-.19.284-1.292.293-2.88.55-3.377.545-4.828 2.568-6.4 4.07-.35.096-.66-.126-.97-.615-.229-.361-.415-.794-.414-.964 1.758-2.348 6.463-4.719 8.968-4.5zm-79.716.598c2.872.003 5.738 1.287 7.35 3.374 5.883 8.118 12.478 26.156 14.045 35.05-.16.287-.58.317-1.397.098-.455-.122-.4-.256-.686-1.082-1.842-6.48-3.862-12.773-6.24-18.546-1.226-2.975-2.669-5.883-4.028-8.495-.86-1.652-2.59-4.594-3.246-5.493-1.545-2.68-4.676-3.468-6.651-2.605-2.044 1.013-2.304 3.44-.751 4.518 1.29.83 3.326.696 4.074-.586.257-.454.177-1.018.012-1.161-.159-.138-.448-.099-.508.051.104 1.577-2.083 1.675-3.036 1.053-1.524-1.05-.504-4.365 3.65-3.025 1.602.777 2.137 2.245 1.375 3.801-.78 1.593-1.986 2.316-3.848 2.303-2.26-.04-4.818-1.5-4.834-4.121.009-1.956.997-3.581 2.845-4.67.685-.402.953-.465 1.874-.464zm24.312 1.247c6.966.303 10.156 7.847 6.485 12.392-.936 1.086-1.527.887-1.924-.517-.195-.577-.413-.663.15-1.109 3.267-2.87.595-8.462-4.781-8.694 0 0-1.002-1.345-1.1-2.06.359-.119.842-.013 1.17-.012zm58.095.589c.528.12 1.646 1.108 1.645 1.456 0 .41-.22.331-1.458.135-2.929-.486-5.866 1.07-8.32 4.469-1.192 2.04-1.34 1.847-1.962.087-.319-.903-.325-.883.923-2.548 2.33-2.74 5.764-3.988 9.172-3.6zm2.72 3.463c2.448 2.05 1.298 6.559-2.015 7.021-2.922.307-5.513-2.6-3.67-4.574 1.198-1.192 2.695-1.311 3.614-.283.95 1.06.545 2.503-.81 2.651-.158.051-.287.164-.288.25 0 .264 1.202.193 1.612-.112.826-.835.842-2.112.107-3.025-.65-.808-2.04-1.452-3.155-1.037-1.966.644-3.971 3.092-5.12 6.176-.324.868-.514 1.682-.65 1.873-.28.393-.26.383-.519.231-.227-.133-.644-2.023-.643-2.743.001-.546.516-1.99 1.196-3.227 2.132-3.633 6.92-6.067 10.341-3.201zm-59.738-.988c2.852.162 5.105 3.88 3.86 6.466-.385.476-.938.798-1.195.499-.092-.108-.53-1.323-1.135-2.611-.606-1.289-1.164-2.548-1.336-2.862-.452-.894-.779-1.501-.194-1.492zm-19.388 2.134c3.243 5.297 5.952 11.37 8.198 17.298 1.75 4.618 3.183 9.149 4.005 13.153.078.405.187.617-.006.793-.32.293-1.87-.439-1.87-.439-2.706-8.614-4.888-17.25-11.344-28.224 0 0-.28-.435-.354-.72-.086-.687.133-1.555.589-2.041.183-.18.43-.192.782.18zm-36.481 9.954c15.368.968 27.248 6.937 33.576 22.675-2.255-1.173-13.689-9.262-33.42-10.356l-.029-2.181c14.147-.09 27.936 6.697 27.648 6.598-5.247-9.982-18.465-14.04-27.82-14.315zm106.625 3.307c-.97 1.395-.928 1.338-1.394 2.543.053.39.127 2.83.189 4.252.078 1.814.133 2.604.288 2.776.263.292.798.34 1.032.076.092-.103.252-.494.36-.868 1.275-4.405 1.874-6.054 2.386-6.6.338-.398.452-.361 1.843-.214 3.133.259 4.202-3.173 2.157-4.557-2.737-1.405-5.647.941-6.86 2.592zm3.305.94c-2.24 1.692-2.31 4.13-2.992 6.376-.366 1.511-.88 2.306-1.083.027-.377-3.162.106-5.522 1.6-7.377.924-1.365 2.441-2.282 3.803-2.369 2.932-.185 3.229 1.952 2.412 3.098-.593.832-2.236 1.193-3.74.246zm-105.872.89c1.105.002 2 .828 1.999 1.844-.002 1.016-.9 1.84-2.005 1.838-1.105-.001-2-.827-1.999-1.843.002-1.016.9-1.84 2.005-1.838zm6.378 1.269c.988 0 1.79.736 1.789 1.644-.002.909-.806 1.646-1.794 1.645-.988 0-1.785-.74-1.784-1.649.002-.908.8-1.641 1.789-1.64zm5.812 1.81c.805 0 1.452.602 1.451 1.342-.001.74-.65 1.34-1.454 1.338-.805 0-1.457-.602-1.456-1.342 0-.74.655-1.34 1.46-1.338zm4.124 2.407c.62 0 1.123.468 1.122 1.04 0 .57-.504 1.033-1.125 1.032-.622-.001-1.129-.464-1.128-1.035 0-.572.51-1.038 1.13-1.037zM38.893 981.3c-.43 1.995-.098 4.047.398 5.461 1.134 3.049.609 8.502.609 8.502l-3.34 3.068c.242-2.863.617-5.868.448-8.272-.116-1.596-.899-3.088-1.1-4.69-.187-1.481.102-4.448.102-4.448zm5.405.925.098 13.01-11.434 10.161-.012-2.685 9.75-8.866-.19-12.054zm28.119 29.699-.751 1.122 12.883.016.274-1.123zm16.676.02-.305 1.123 5.964.007.201-1.123s-3.135-.001-5.86-.007zm9.772.012-.191 1.123 22.142.026-.327-1.123zm25.879.03.352 1.125 5.898.007-.486-1.124zm9.86.013.43 1.123 10.136.013-.84-1.125z"/></g></g></svg>