<svg xmlns="http://www.w3.org/2000/svg" width="234" height="333"><g transform="translate(0 -719.362)"><rect width="233.244" height="332.244" x=".378" y="719.74" fill="#fff" stroke="gray" stroke-width=".756" rx="8.919" ry="8.946"/><g fill="red" aria-label="J" font-family="Levenim MT" font-size="3.772" font-weight="700" letter-spacing="0" style="line-height:0%;-inkscape-font-specification:&quot;Sans Bold&quot;" word-spacing="0"><path d="M23.441 846.622q0 3.884-.405 5.634-.705 3.051-2.988 4.524-1.814 1.195-4.353 1.195-5.185 0-8.834-4.546l4.31-4.033q2.411 2.732 4.375 2.732 1.344 0 1.728-1.665.17-.725.17-2.71v-21.958h5.997z" font-size="43.703" style="line-height:1.25" transform="scale(1.13562 .88058)"/></g><g fill="red" aria-label="J" font-family="Levenim MT" font-size="3.772" font-weight="700" letter-spacing="0" style="line-height:0%;-inkscape-font-specification:&quot;Sans Bold&quot;" word-spacing="0"><path d="M-182.614-1165.378q0 3.883-.406 5.633-.704 3.052-2.987 4.524-1.814 1.195-4.353 1.195-5.186 0-8.835-4.545l4.31-4.033q2.412 2.731 4.375 2.731 1.345 0 1.729-1.664.17-.726.17-2.71v-21.958h5.997z" font-size="43.703" style="line-height:1.25" transform="scale(-1.13562 -.88058)"/></g><g stroke-width="3.181"><path fill="#e2cf00" d="m201.311 769.656-12.145 7.324-.177 8.516c-7.195-3.175-10.32-8.39-11.447-14.503-2.038 2.374-1.645 14.338-1.645 14.338-1.851.889-2.529 2.047-3.712 3.089 1.16 1.767 4.444 4.773 4.444 4.773-.023-.053-1.519 12.46.275 12.956 1.646-5.336 3.834-9.992 11.88-14.885 0 0 .103 19.863-.43 39.054-3.4-2.155-10.59-6.024-15.234-9.987 6.034-7.183-.102-16.52-9.1-10.294-5.826-2.9-6.708-16.65-8.144-23.85-.275-1.444-1.628-5.677-1.628-5.677s-19.202-4.867-27.45-4.453c6.911 16.644 5.548 36.946-25.112 40.804-14.695 6.226-31.671 13.166-48.176 26.105-3.057 19.225-13.808 28.708-21.399 33.956.048 7.789-.07 15.499.27 23.36-.008.047 6.927-4.212 8.015-3.432 5.758 34.727 26.961 41.576 24.84 42.542-.342.156-6.957 6.436-6.957 6.436L32.41 930.14c-.91 24.02-.42 48.51-.07 72.568 4.573-2.392 12.98-8.11 12.98-8.11l.135-8.172c-.038-.776 11.765 6.786 11.785 15.82.919.575 2.947-13.006 1.113-14.472l4.845-4.618-5.21-4.623s1.331-7.69-1.367-12.115c-1.76 10.142-10.884 13.32-10.884 13.32s-.143-37.06-.379-37.091l16.261 9.475c-1.211.233-4.315 5.553-1.087 9.852 1.967 2.618 9.044 2.431 9.591-.588 9.998 8.586 6.136 18.88 10.501 31.079l28.389 4.754c-11.683-20.012 1.037-42.863 24.015-41.273 4.306-1.663 8.205-4.059 8.205-4.059s-2.853-4.304-6.457-8.296l-49.182-.66 22.964-39.71-15.079-.42s12.278-24.006 9.632-25.933c-.93-.677-.533-8.411-.533-8.411l13.468.437c.538-5.536-6.489-26.617-16.418-40.394l55.28.356-31.159 40.109 16.714.412-9.99 18.925 1.584 14.743-14.83.47c2.537 20.438 18.973 41.946 24.751 48.588 9.566-2.11 27.434-14.753 38.522-22.613 1.45-13.722 6.579-25.41 19.97-34.145l.062-22.584s-7.643 4.564-7.64 4.25c.036-4.889-2.716-15.059-7.8-24.12-5.457-9.721-14.42-18.52-16.484-19.068 4.752-6.635 6.778-7.232 6.71-7.337l25.834 15.25ZM70.978 818.048s-5.029 1.775-9.398 1.728c-7.829.387-13.8.98-16.981 6.911-.647 1.805.766 2.468 1.805 2.938 5.908-6.772 21.582 2.13 24.574-11.577zm-34.78 31.091c-.001.955 1.154 2.513 1.735.892.504-1.157.608-3.032.045-4.184-1.571-.814-1.76 2.357-1.78 3.292zm84.745 32.56-7.645.047-.053 8.28 7.787.325zm75.055 41.083c-.168.823-.996 4.523.87 3.877 2.203-1.568.335-8.756-.87-3.877zm-7.216 20.8c-.901-1.213-3.697 1.81-5.989 1.927-10.186.522-17.688-.722-18.966 9.113 5.877-3.471 14.105-1.909 19.408-3.037 3.834-1.181 8.234-4.392 5.547-8.004z"/><path fill="#131f67" d="M30.972 1013.954c-1.062-86.208-.434-171.305-.033-256.55l172.427.576c-.698 85.079-.896 170.416.248 256.341zm7.53-165.87c.15-2.467-.949-3.486-1.904-1.788-.226.402-.97 4.69.788 4.83 1.154.09 1.05-1.983 1.115-3.042zm-2.794 2.9c-.01-.583-.398-.835.466-5.905-1.642-.581-3.062-3.04-1.864-4.597.467-.608.331-.742.141-1.25-.47-1.26-.22-2.287 1.048-3.092.81-.515.846-.651.587-1.326-.667-1.74-.039-3.44 1.767-4.023 1.25-.403 1.009-.46 1.141-1.192.296-1.637 1.278-2.63 3.058-2.467 1.655.15 1.764.151 1.907-.595.395-2.066 3.11-4.326 6.652-5.865 1.759-.764 4.675-1.309 10.26-1.305 3.2-.057 7.189-.458 9.428-2.277.37-.319.883-1.155 1.062-1.042.417.264.313 2.32-.506 4.196-2.386 5.467-5.611 6.978-14.723 6.945-2.717-.115-6.72.232-8.417 1.83-.506.494-.843.961-.654 1.215 3.774.487 7.649 2.052 9.898 8.921 6.85-4.49 17.768-11.37 31.304-17.594-1.617-8.211 6.103-9.492 10.43-7.866 0 0 .111-.536-.055-1.157-.163-.606-.402-1.396-1.2-2.415-.2-.371-1.416-1.075-1.176-1.634.394-.916.22-1.167-.61-2.008-.537-.545-.179-1.716-.048-2.188.172-.88.8-2.136.246-2.609-.856-.73-3.775-1.964-5.278-2.946-1.662-1.113-1.693-2.117.747-5.79 1.112-2.136 2.163-4.43 3.049-5.964 1.34-2.32 1.48-3.848.67-5.176-1.058-1.733-.88-3.792-.856-3.74 0 0-9.987-13.11-14.102-18.264l-46.782-.056-.554 98.703 8.347-7.113-2.184-2.384c-.31 1.387-.032 2.743-1.885 2.825-.63.02-1.214-.222-1.314-.796zm27.676 131.551c.27-3.903-1.749-10.289-4.793-14.71.128 3.362.386 7.471-.348 10.759zm73.814 10.05c-.368-.108-3.438-.276-5.367-.367-6.394-.301-10.543-3.124-13.31-7.033-.68-.961-.399-.919 1.111.168 4.242 3.053 8.214 4.876 11.703 4.41 4.947-.66 7.614 1.009 6.927 2.96-.12.341-.16.13-1.064-.137zm-16.741-8.675c-.99-.79-1.063-1.146.111-.427 3.588 2.198 7.92 5.79 13.278 3.672 1.111-.66.09-.571-1.77-.385-2.843.284-6.304-1.041-10.562-3.748-2.08-1.321-1.162-2.441 1.18-1.408.722.32 1.455.554 1.923.581 2.306-1.417 7.152-1.41 7.04-1.401.552-.439-1.258-1.133-3.952-2.067-1.75-.606-2.172-.856-.87-.905 1.138-.043 2.929.477 4.22 1.246 2.153 1.274 3.238 1.98 3.88 2.062 1.058.075 2.136.214.32.993-.824.355-.751.445-.657 1.299.147 1.334.233 1.32.9 2.073 1.124 1.142 1.613 3.272.009 1.942-.346-.148-.382.136-1.328.49-5.553 1.456-9.686-.793-13.722-4.017zm10.246.362c.31-.377.776-1.34.84-1.607-.107-.623-.707-.427-1.011-.076-.519.588-1.244 1.453-.649 1.746.282.14.557.256.82-.063zm-1.895-.401 1.236-2.032c-.305-.13-4.485.674-3.83 1.226.579.489 2.594.806 2.594.806zm4.712-6.818c-1.903-.936-2.456-2.961-1.032-4.309 1.196-1.132 3.223-1.04 5.647.333.853.484 1.376.729 1.96.529.98-.334 1.353.171 1.271.879-.178 1.557-2.806 1.943-4.463.17-2.19-2.346-4.573-.703-3.876.995.355.864 1.045.998 1.837 1.32 0 .17-.79.355-1.344.083zm-8.67-10.451c3.156-.79 7.842 2.279 10.385 1.855 1.103-.22.946 1.246-.2 1.779-1.338.623-3.239.209-7.271-1.725-3.322-1.65-6.013 1.1-3.794 3.144.476.414 1.17.662 2.022.623 1.123-.05 1.453.232.004.578-.833.2-2.38-.11-3.13-.808-1.787-1.668-1.343-4.883 1.985-5.446zm-66.737-8.869c-.09-3.46 1.915-5.384 1.965-5.399l-14.167-8.848.178 35.443c7.027-4.127 9.338-9.317 9.747-16.012 13.853 14.307 9.508 31.761.838 41.713-.35-6.08-2.31-13.262-10.314-16.93l-.02 7.253-13.296 8.719.073 8.013 31.26.033 15.138-20.399c-2.726-9.234-2.308-16.923-4.154-21.147-1.384-3.473-4.017-7.958-5.72-7.258-5.766 4.218-11.42-.681-11.528-5.18Zm11.925 4.069c4.907 3.253 6.212 8.582 7.214 13.32.034.04 2.563 16.06 2.643 16.275.328.878.218 1.755-.625 2.424-4.54 5.747-13.415 18.072-13.415 18.072l86.878.312c-4.63-6.214-8.244-12.359-12.642-17.466.185-.274-.34-3.767-1.074-4.895-.755-1.162-.928-1.772-.415-2.837 1.273-2.624 2.58-5.469 3.756-7.877 2.252-4.614 2.51-4.653-.559-6.144-3.636-1.948-4.284-2.583-3.519-4.816.28-.812.315-1.137-.811-1.347a55.045 55.045 0 0 1-2.642-.591c-2.455-.71-1.745-.268-2.643.32-.685.313-1.273-.883-2.073-2.295-.92-1.624-1.154-1.662.37-.828 2.824 1.545 7.839.933 6.074-.858-.86-.873-1.659-1.321-1.566-3.303.092-1.966.125-2.543-1.322-2.814-2.894-.541-6.041-.307-8.737.319-8.201 1.903-14.787 8.48-17.286 13.362-.562.851.728.805 1.285.807 2.687-.226 4.59 3.723 2.83 5.498-.814.792-1.625.308-.756-.72.991-1.702-.482-3.945-2.646-3.37-2.725.725-2.805 3.974-3.144 6.239-.934 6.524 2.649 15.238 3.525 17.016 0 0 .192.265.126.264-.065 0-.497.369-.68.177-.63-.66-2.216-5.992-3.076-9.803-1.662-10.541 1.303-20.242 10.815-25.766 8.426-5.621 12.666-4.422 17.448-4.69 1.633-.545 3.9-1.371 5.615-2.15 8.426-4.261 15.253-7.893 22.413-11.501 6.948-3.503 11.61-8.493 17.964-11.618.289-.142.587-.472.884-.607 7.904-6.348 15.715-12.58 20.43-16.923.571-.53 1.044-1.248 1.044-1.248l-.764-36.543s-.793-.607-.789-1.19c.01-1.267-.5-1.024-3.327.815-3.553 2.312-3.795 2.197-3.795 2.197-1.863-16.763-11.672-33.233-23.573-42.852l.49-.618s3.981 2.42 5.969 3.571l.002-2.338-4.794-2.763s-.426-.32.041-.906c.257-.322.913-.085.913-.085l3.841 2.608.002-2.135-3.105-1.821.996-1.16 1.663.994c-.704-1.688.294-1.63 1.318-.512.426.512.975 1.169 1.207 1.79.089.238.354.82.354.82l2.723 1.865s-.104-.91-.007-1.19c.46-1.327 3.746 2.944 3.332 3.045l2.789 1.851c.661-.93 3.146.917 3.247 1.83.219.396 9.61 5.957 9.61 5.957l.106-3.081 1.014-1.219.524-71.184-12.485 7.383-.145 8.618c-5.892-1.748-10.99-9.618-11.733-14.531-.384-.193-2.1 9.697-1.201 14.022-1.56 1.073-4.186 3.58-4.165 3.593l4.722 4.764s-.951 7.31-.735 10.941c.19 1.723.228 1.897.786 1.9.453.001.86-.451.863-.846 1.115-4.349 4.768-11.139 11.08-13.46.418-.013-.07 38.78-.07 38.78l-15.65-9.83c-.78-.617 1.023-.58 2.126-3.866 2.846-8.472-6.995-11.446-10.8-6.537-.626-.002-3.237-2.977-3.626-4.22-2.891-5.38-3.44-11.483-3.998-16.378-.338-2.225-1.22-5.873-1.951-8.069-.391-1.172-.43-2.02.417-3.114 3.884-4.841 7.644-9.928 10.916-14.89 2.986-3.621 2.404-3.803 2.404-3.803l-87.106-.1 13.91 16.902 1.409.504c-2.41.29-1.593 2.233-.66 4.322 1.148 2.568 1.02 3.099-1.902 8.398-4.285 7.768-4.515 7.088-.25 9.482 2.634 1.552 3.113 1.891 2.723 4.006-.389 2.115-.496 1.461 1.68 1.63 1.163.09 2.09.283 2.614.5.594.248 1.037.594 1.803.36 1.289-.391 1.32-.104 1.37.768.022.371.63 1.136.818 1.42.495.75.263.876-.646.35-2.8-1.624-7.483-.92-5.762.847.71.727 1.42 3.15 1.48 4.356.108 2.156 1.624 2.917 4.812 2.467 6.121-.431 19.93-7.468 23.153-15.35-7.071 2.235-5.61-5.774-3.092-5.526 0 0-.678 1.42-.7 2.231-.08 2.864 2.519 3.08 4.31 1.05.78-1.067 1.73-5.026 1.269-9.492-.559-5.409-2.929-11.456-3.357-12.956 10.088 22.25.795 32.059-13.416 38.475-5.443 2.107-6.19 2.095-9.396 2.24-2.194.167-4.174 1.177-6.28 1.82-12.16 5.375-27.104 12.078-40.476 22.061-9.594 6.573-17.215 12.478-24.793 20.063l-.068 39.29c2.277-.33 5.975-2.383 8.165-3.565 2.493 14.671 10.655 31.65 24.192 41.79-.008-.005-.32.554-.328.55-1.928-1.18-3.855-2.352-5.724-3.255l-.099 1.87 4.556 2.884c.12.449-.782 1.078-.782 1.078l-3.761-2.392-.03 1.904 2.91 1.709c.787.726-.954 1.108-.954 1.108l-1.724-1.15s.122.924.07 1.088c-.452 1.407-2.942-1.694-3.39-3.241l-2.451-1.336c.347.916-.531 1.045-1.226.817-1.841-.859-1.738-2.307-2.121-3.165l-3.262-1.904c-.564 2.87-3.877-1.164-3.351-2.133l-4.183-2.62c.23.08-1.596.431-2.214.06-.712-.428-.96-2.178-.96-2.178l-2.508-1.43-.002 2.51 25.793 16.581-.373.647-26.905-16.948 1.021 73.766 13.133-8.402c-.25-2.76.305-5.227.06-8.372 6.74 3.86 9.008 6.491 11.974 14.62 1.93-4.634 1.595-9.076.735-13.185 1.725-1.305 3.405-2.573 4.273-4.538-1.62-2.057-3.206-2.632-4.912-4.54-.132-2.33 1.354-9.274-.628-11.56 0 0-3.636 10.09-11.449 13.135-.227-10.646.067-37.41.067-37.41s8.023 5.097 12.114 7.167c1.923.944 3.263 1.536 3.288 2.21.012.343-.76.782-1.1 1.266-.211.3-1.103 3.182-.76 5.433.156 1.66 1.003 2.708 1.814 3.502 2.573 2.518 7.291 1.32 9.16-.63zm15.554-18.87 30.914-39.911c3.659 14.66 9.847 28.08 17.925 40.24zm15.307-41.919s2.16-3.945 3.149-6.037l-3.782.006 2.264-2.345 5.63-.01-3.017 5.928 2.39-.004 3.31-5.929 8.773-.016-3.074 5.928 2.02-.003 3.288-5.93 8.158-.014-2.875 5.928 1.911-.004 1.679-2.992.404 5.44-8.104.014 3.21-6.038-2.613.005-3.624 6.038-7.591.014 3.298-6.038-2.886.006-3.621 6.038zm25.022-21.27 3.28-6.386-2.59.004-3.628 6.255-8.09.015 3.19-6.183-2.017.01c-1.368 1.95-3.552 5.91-3.552 5.91l-8.581.016s2.43-4.2 3.39-6.254l-2.117.004-1.726 2.538c-.606-.945-.203-3.46-.304-4.527l8.088-.014-3.255 6.13 2.58-.005 3.55-6.13 8.54-.016-3.485 6.13 2.022-.003 3.454-5.795 8.689-.016-3.05 5.794 2.682-.005-1.186 2.518zm-7.984-11.104-1.638.287c-2.08-16.533-11.981-33.373-16.172-40.327l49.341.55zm58.026-95.585s-4.71 5.591-5.034 14.96l4.485-3.312c-.276-9.504.549-11.648.549-11.648zm-4.984 15.662c-.082 6.97 1.894 11.41 4.395 14.884.047-4.49.54-9.035.83-10.227zM48.695 922.292 32.749 912.18l-.002 2.223 18.952 11.851zm-2.87-5.438c-4.272-1.972-13.073-8.085-13.073-8.085l-.002 2.028 14.011 9.063c.275.25.646.186.775-.094-.55-.859-1.214-2.027-1.71-2.912zm-3.907-8.797-9.16-5.885-.001 1.836c2.348 1.939 10.077 6.547 10.077 6.547zm-9.158-7.227 8.617 5.127-.534-2.276-6.12-3.827zm155.017-71.578.496-36.65c-8.988 3.937-10.78 15.374-10.48 15.73-8.936-8.49-12.29-26.822.266-39.177.94 3.954 1.25 9.69 10.12 14.918l.235-7.764 12.44-7.35-.096-8.82-29.82-.16c-4.63 5.415-9.26 11.578-13.84 17.324-1.72 2.154-2.15 3.167-1.822 4.29 2.999 9.972 2.385 22.258 8.695 28.055 8.478-7.366 16.404 3.686 9.812 10.522zM58.782 987.963c1.142 3.336.347 10.07.274 10.07 1.368-.689 5.097-10.445 4.17-14.106m43.328-179.061c-2.109-.548-3.695-1.382-5.923-1.182-1.754.171-2.349-.363-1.279-1.246 1.4-1.096 2.756-1.549 5.346-.303 7.793 3.75 8.038-1.747 4.528-2.13-.996-.108-.95-.695.044-.548 5.447.19 3.78 6.853-2.716 5.409zm-9.111-5.472c-1.031-.346-2.276-.924-2.735-.81-1.157.29-1.196-.298-1.058-.994.334-1.68 2.194-1.378 4.651.062 3.52 2.062 4.873-.915 1.67-2.514-1.078-.538-.745-.688-.115-.713 1.67-.067 3.24 2.027 2.795 3.743-1.125 2.754-3.85 1.68-5.208 1.226zm10.325-5.1c-2.279-.36-5.577-3.182-7.109-3.372-.86-.09-1.872.01-2.147-.31-.841-.974 1.543-.979 1.706-1.333.007-.824.063-1.34.027-1.62-.42-.526-2.076-2.627-2.017-3.646.04-.063.869.562 1.296.564 4.07-1.987 6.85-1.114 10.283.278 1.419.576 5.08 3.19 5.125 3.605.077.703-1.553-.613-2.827-1.4-3.14-2.01-5.963-3.436-9.908-2.234-.614.195-.508.3 1.512.182 1.974-.114 3.59.441 6.11 1.955.627.376 1.382 1.018 1.833 1.215 3.171 1.39 3.86 2.76 1.842 2.392-.432-.078-1.269-.492-2.092-.76-1.449-.47-.936-.328-2.332.274-.49.212-1.67.658-2.637.766-.743.115-3.148.1-2.085 1.037 1.128 1.041 3.001 1.808 4.288 2.281.927.38.214.298-.868.126zm.275-4.545c1.486-.51.325-1.657-1.568-1.908-.433-.057-1.361 1.833-1.382 2.23-.015.296 2.136-.042 2.95-.322zm-4.1.211c.34-.2 1.483-1.724 1.485-1.966.007-.977-1.349-.703-1.663.315-.382 1.238-.416 2 .178 1.651zm-4.739-7.865c-1.22-.496-2.879-2.673-.98-2.309.409.087 2.54.185 3.915.188 4.682.01 9.346 1.959 12.311 4.8 1.65 1.582 1.756 2.754.082 1.666-5.933-4.907-9.576-3.985-15.328-4.345zm46.083 169.433-1.658.816c.004.848.334.716 1.068 1.314 0 0-1.017.155-1.76.11-1.21-.071-1.488-.052-.954.733.247.363.585.898.585.898s-.656.132-1.644-.116c-1.497-.376-2.264-.184-1.699.583.156.212.456.61.456.61-1.092-.227-3.099-1.125-3.099-1.125l-1.416.4c2.82 5.086 12.868 1.856 10.12-4.223zm49-7.354c1.554-1.205.801-2.678-1.466-3.754-.944-.448-.85-.455-2.382.377-1.887 1.026-2.02 1.079-.678 2.391 1.62 1.585 3.384 1.872 4.526.986zm-5.76-3.388c1.429-.587.898-.487.803-1.864-.415-1.586.559-1.699 1.041-3.181.2-.81-.542-.51-1.986.731-1.19.924-1.544 1.15-1.54.701.134-.374-.817-1.335-1.67-1.464-.72-.11-.652-.262.053-1.104 1.224-1.462 1.729-3.303.91-4.924-1.034-2.048-1.376-2.348-3.669-.554-1.174.999-2.832 1.767-3.634 3.001-.574.909-.243 1.786.662 3.567 2.259 4.445 5.754 6.437 9.03 5.091zm8.024.024c2.52-.915 1.506-3.421-2.427-5.942-2.37-1.52-3.043-1.502-1.03.145 1.287 1.054 1.488 1.427.936 2.188-.461.634-.946 1.38-.49 1.96.72.91 1.95 2.035 3.011 1.649zm-141.756-3.912-2.743-1.594-.002 2.187 2.743 1.508zm137.159 1.726c.545-.354 1.014-1.347 1.017-1.786.124-1.018-1.671-.77-2.53.356-.965 1.267.174 2.3 1.513 1.43zm6.149-3.454c1.251-1.212.644-2.498-1.922-4.028-.991-.598-1.496-.988-1.375.2.037.362-.394.842-.672 1.129-.89.92-.495 1.085 2.04 2.564 1.29.752 1.223.818 1.929.135zm-143.305-2.064-2.743-1.524-.002 1.985 2.743 1.704zm-6.002 1.993.038-1.99-3.554-2.176-.052 2.22zm139.83-1.06c-.46 1.14 1.384.62 1.49.504.32-.577.038-.63-.12-.691-.323-.125-1.577.076-1.37.187zm.805-1.44c.632-.19.706-.117.62-1.168-.132-1.587.127-1.714 1.27-2.414.913-.56.92-.476.906-1.45-.017-1.174.071-1.68 1.746-1.922.686-.1 1.078-.255 1.135-.754.097-.84-1.363-2.253-3.18-3.067-.268-.001-4.332 3.267-5.468 4.396l-.693.69.827 1.43c1.29 2.233 1.078 3.056.315 6.02-.156.794.507.677.681-.278.23-.892.362-1.216 1.841-1.484zm6.197-7.917c-.314 1.8.695 2.905 1.65 2.01.52-.488.96-4.463.6-5.093-1.959-1.932-2.172 2.65-2.25 3.083zm-31.585 29.861c7.288-3.948 16.645-.748 21.922-3.986 2.462-2.506 4.936-4.105 3.544-5.828-1.085-1.341-1.79-1.545-1.79-1.545.077.095-3.847 3.15-9.533 2.454-9.48-.283-13.964 2.472-14.143 8.905zm12.456-9.392c4.639.14 8.41-.61 10.135-1.855 1.072-.773 1.234-.909-.444-1.03-3.603-.262-7.247-4.109-8.386-7.846a80.067 80.067 0 0 0-.505-1.603c-9.605 7.087-30.742 18.26-30.742 18.26 1.396 6.015-3.331 9.613-9.728 7.487-1.113-.09-.97 1.231-.76 1.773.348.89 1.12 1.635 1.271 1.754.952.751 1.13 1.248.985 1.97-.142.713-.128.689.412.955.961.473.911 1.15.385 2.547-.567 1.965-.606 2.46.923 3.392 1.967 1.163 5.83 2.433 5.259 4.19-1.297 3.981-3.423 7.41-5.293 11.136-.694 1.032-.547 2.734-.002 3.527.676 1.216.597 2.671 1.473 3.787 4.845 6.637 9.017 12.477 13.432 18.472l46.246.319-1.058-98.422s-7.135 6.492-7.113 6.95c.026.545 1.673 1.394 2.38 1.501.03-.295-.002-1.461.09-1.87.065-.593 2.123-.443 2.804.07.477.36.328 2.716-.157 4.635-.396 1.569-.341 1.59.387 2.495.887 1.103 1.194 2.04 1.076 3.288-.065.684-.06 1.224.15 1.676.493 1.063.347 2.562-.197 3.26-.79 1.013-.803 1.167-.632 1.707.645 1.873.402 3.469-1.863 4.284-.29.105-.608.568-.793.967-.99 3-2.842 3-5.375 2.14-1.798 6.453-9.094 8.087-14.347 7.906-5.473-.189-11.04.2-13.52 3.508.587-7.827 4.385-11.606 13.507-11.33zm16.53-13.025c.93-.322 1.047-1.217.266-1.79-1.199-.88-2.578.02-2.016 1.294.315.715.846.81 1.75.496zm-144.075-2.578-3.643-2.324.02 2.088 3.63 2.145zm6.875 1.702-2.577-2.85c-7.6-4.277-14.186-9.065-20.506-12.918l-.05 2.646 1.807.838s.153-.582.277-.919c.233-.63 2.322 1.14 2.987 2.561.165.354.525 1.144.525 1.144l2.436 1.237s.037-.638.038-.815c.01-1.354 2.615.504 3.801 2.715.288.536.665 1.105.665 1.105l2.292 1.281c.906-1.142 3.21.415 3.798 1.8.747 1.755 2.064 1.905 2.116 1.911zm-13.725-.36.007-2.027-3.799-2.299-.05 2.056zm156.457-.12c.1-.531-.467-2.6-1.32-2.715-.533-.071-1.368.675-1.372 1.196-.005.676 2.584 2.097 2.692 1.52zm-3.089-2.453c.831-.838-.215-1.927-1.484-1.546-1.508.453-.988 1.712.7 1.736.376.005.602-.006.784-.19zm-153.561-1.211.016-1.933-3.509-2.135-.074 1.89zm-6.904-.67.037-1.86-2.305-1.48-.002 2.229zm.089-5.574-2.354-1.412-.002 2.017 2.46 1.294zm9.575-6.15c-.244-.596-1.237-2.48-1.237-2.48l-10.679-6.863-.002 2.119 11.947 7.397zm-4.985-16.346-.125-.862-.952.47zm-2.265.219-1.495.749 4.513 2.7-.362-1.925zM194.21 875.47l1.165-.78-2.056-1.282-.155 1.304zm2.084-1.241 1.53-1.169-5.112-3.319.36 2.07zm3.628-1.75v-1.421l-8.29-5.155.57 2.598c1.462.777 3.248 1.913 5.115 3.122 1.184.768 1.188 1.065 2.605.857zm.002-2.633.002-2.256-9.592-5.863.777 2.646zm.003-3.388.007-2.365-11.611-7.063 1.268 3.127zm.006-5.941-14.637-9.018 1.87 3.463 12.765 7.853zm.003-3.455-18.37-11.25 2.061 3.155 16.307 10.15Zm.004-3.669h-.688c-.056 1.616-1.953.447-2.666-1.33-.538-1.19-.658-1.49-.658-1.49l-3.7-2.301c.077.47.29 1.809.29 1.809l-2.492-1.4s-.718-2.223-.741-2.238l-4.258-2.663c.09.454.161 1.205-.116 1.257 0 0-1.295-.508-1.887-1.303-.616-.826-.708-1.658-.708-1.658l-3.474-2.07-.865.087s-.469-.292-.909-.62c-.824-1.36-1.788-1.563-2.941-2.114 0 0 2.444 2.63 3.75 4.185 1.199 1.436 2.654 2.46 2.654 2.46l19.406 11.918zm.003-3.688-1.5-.828.108 2.182 1.39.87zM48.57 845.18c.092-.137-.292-.294-.713-1.15-1.043-2.117-1.145-2.856-.584-5.085.267-1.064-.778-1.518-1.26-.383-.375.882-.957 1.38-1.514 1.316-.525-.06-.637.144-.41.812.279.926-.328 2.134-1.17 2.464-.85.203-1.006.7-.768 1.42.396 1.194-1.002 2.207-2.1 2.152-1.696-.086-1.032 1.338 1.01 2.69.758.502 1.096.773 1.691.518 1.549-1.352 4.429-3.287 5.818-4.754zm147.208 4.106-.083-2.081-4.265-2.652.523 2.784Zm4.166-.88.002-2.098-1.755-1.037.088 2.228zM39.317 845.45c.409.381.815.415 1.465.053.749-.362.463-.907-.32-1.261-.731-.354-1.757.729-1.145 1.208zm-1.273-.917c-.057-.438.523-1.03.924-1.053.877-.05.722-.481-.28-1.04-.47-.262-1.303-.874-1.607-1.077-1.498-1.002-2.948.55-1.835 1.859.93 1.095 2.305 1.744 2.798 1.311zm157.315 1.013-.329-2.316-3.852-2.357.302 2.55zm-140.104-5.39c.21-.321.274-.628.254-1.016-.078-1.457-.89-3.168-2.03-4.6-.85-1.064-1.879-1.974-2.922-2.507-2.947-1.394-6.881-.784-6.31 1.016.405 1.217.31 2.237-.823 2.851-.77.418-.87.98-.055.979.591 0 2.16-.503 2.814-1.455.924-1.34 1.452-2.12 1.243.066-.088.914.036.846 1.572.77 2.084-.103 1.698.258.479 1.126-1.774 1.265-2.128 3.399-1.235 5.211.553 1.122.935 1.718 1.657 1.567 1.561-.948 4.108-2.853 5.356-4.007zm133.299 2.46-3.791-2.298.146 2.466 4.094 2.223zm-145.586-1.99c-1.39-1.616-3.023.455-1.969 1.358.765.619 2.698-.02 1.97-1.357zm-3.288.232c-.172-.504.834-1.316.992-1.639.461-.939-3.654-3.542-4.936-1.992-.883 1.067-.272 2.132 2.106 3.586 1.434.878 2.123.876 1.838.045zm148.508-1.834-3.505-2.008.06 2.128 3.721 2.065zm-6.183 1.917.002-2.175-3.53-2.266-.06 2.251zm-137.337-2.32c.642-.586.425-.775-.814-.714-.784.038-1.024-.081-1.077.25-.117.733 1.232 1.066 1.891.464zm-2.939-.817c.064-.15-.379-.447-1.102-1.005-1.378-1.066-1.534-1.73-.206-2.564 1.893-1.19-.09-2.874-2.286-2.184-1.775.558-1.782 2.206-.729 3.265 1.444.885 4.062 3.442 4.323 2.488zm140.28-2.43-3.471-2.19-.003 2.14 3.473 1.863zm-139.624.396c1.548-.73 1.633-2.556.082-1.885-.639.277-1.477 1.026-1.48 1.364-.004.658.608.894 1.398.521zm1.14-4.192c2.007-.998 1.7-1.921-.297-3.073-2.437-1.285-4.147 1.192-2.14 2.872 1.05.88 1.295.77 2.437.201zm2.603-1.798c3.264-3.239 5.425-3.077 9.73-2.999 11.103.072 14.511-4.831 14.163-8.264-5.398 2.482-10.213 1.164-15.35 1.889-8.864 1.841-9.906 5.69-10.527 7.891zm44.525-11.093c2.861.019 2.733.1 1.558-2.069 2.785.347 3.908 1.576 2.99-.98 1.478.483 2.362.855 3.888 1.316l.969-.52c-5.889-5.281-12.43-.785-10.712 4.55l2.19-.969z"/><path fill="#d40000" d="m104.853 1012.12 1.376-6.13 12.23.527s1.418 3.844 1.991 5.575zm-28.247-.096 6.499-9.902 9.213 2.29-2.128 7.736zm17.925.116 2.802-10.563c-5.27-1.061-10.243-1.756-16.06-3.195l-9.458 13.788-5.683-.13c4.902-6.027 13.855-18.2 13.855-18.2 20.503 6.474 41.179 7.536 62 4.058 0 0 7.66 9.323 10.405 14.381l-5.409-.235-6.71-10.373c-4.68.477-9.284 1.06-14.166 1.257l3.334 9.148-5.371.01-3.039-9.122c-5.856-.199-10.779.232-17.796-.768l-2.485 9.928zm38.704-.067-1.843-6.49 6.602-.722s3.057 4.944 4.73 7.19zm-59.18-60.214c8.22-11.53 37.25-48.711 37.25-48.711l4.222.364s-25.783 33.19-38.307 50.023zm-41.852-17.837 10.105 6.7.023 52.305-10.281 6.692zm42.055-85.649 6.11 11.042c-26.026 22.783-20.95 49.454-7.036 68.458 0 0-1.806 4.26-5.735 8.79-18.838-11.437-24.543-41.237-24.399-41.556 20.787-17.135 23.593-22.584 31.06-46.734Zm106.187 81.288c1.358-16.835 10.29-27.853 20.294-34.594l.495 17.12c-6.55 5.809-13.476 11.806-20.79 17.474zm-27.137-16.906c22.792-19.668 23.595-47.541 7.024-67.97l6.798-8.763c9.615 9.488 19.043 19.431 23.038 42.571-14.433 10.517-27.193 27.875-30.6 45.38Zm-31.36-22.778-.034-8.021 8.518-.055-.25 8.009zm-18.008-.03-.114-7.993 8.421.04-.138 8.104zm14.604-21.429s28.263-36.513 39.355-49.694l2.352 1.593-37.585 48.297zm-65.91-25.378c-.04 14.386-10.044 25.804-20.259 33.26l.155-16.379zm148.377-69.69-.001 63.852-9.535-5.283.86-53.55zm-45.473 3.864c-21.53-5.128-41.147-6.638-61.775-2.522-2.685-2.953-11.706-15.257-11.706-15.257l5.213.06 7.369 10.886 14.059-1.72-3.611-8.86 5.795.013 2.88 8.69c-.03-.07 11.436.083 17.808.767 1.016-3.23 2.906-9.649 2.906-9.649l6.385-.015c-.823 3.085-3.033 10.423-3.033 10.423 5.228.662 14.925 2.919 15.014 3.017 3.407-4.444 6.574-8.888 9.656-13.332l6.221-.039c-1.835 2.869-12.837 17.68-13.181 17.538zm-3.966-7.647-9.512-2.03 2.492-7.74 13.297-.032zm-54.629-2.699-4.416-7.173 8.511-.015 2.812 6.319zm19.323-1.498-1.284-5.716 15.458-.028-1.585 6.094z"/><path d="m80.93 759.336 13.73 18.283c.064-.06 7.705-1.418 15.215-1.771 7.466-.352 16.368.062 16.443.271 0 0 2.343 6.541 3.137 9.754 1.047 4.293.932 9.235-.18 12.517-1.631 4.808-2.492 6.251-6.128 9.558-2.696 2.415-6.505 5.044-10.434 6.452-5.443 2.107-5.997 2.097-9.203 2.24-2.12.096-2.337.172-3.497.73-.358.115-.59.46-.909.56-.27.083-.778-.01-.778-.01-17.69 7.184-31.538 15.184-42.002 22.324-.122.083-.2.452-.318.541-.856.648-1.645 1.139-2.48 1.73-.114.082-.371-.063-.485.018-12.31 8.77-19.287 15.874-21.852 17.926l.213 40.724s5.604-2.665 8.478-4.29c2.002 15.766 10.51 31.068 23.957 41.682l-5.844 7.437-26.886-17.043.302 75.14 14.313-9.192.007-7.926c4.26 2.64 8.42 3.666 11.434 15.724 2.424-4.242 2.218-10.553 1.138-14.767.017 0 3.634-2.762 4.743-4.876l-5.312-4.34s1.388-10.539-1.116-12.656c-1.988 4.786-3.574 9.856-10.987 13.559l-.058-36.602c3.691 2.152 7.182 4.577 10.83 6.785l.504-.094 3.774 2.381s-.401.747-.768 1.26c-4.595 6.432 3.045 14.296 9.27 9.545 2.438-1.861 7.002 5.848 7.857 13.27.874 4.794 1.34 10.747 2.749 14.91.435 1.215.264 1.897-.667 2.636-4.773 6.198-14.367 18.687-14.367 18.687l6.904-.012.5-.732-5.09.01c4.39-5.391 8.578-11.67 13.13-16.933 16.94 5.855 44.695 7.163 61.46 3.564 3.459 4.474 6.82 9.164 10.145 13.723l-4.82.009.662.955 6.522-.012-13.72-18.636c-9.47 2.616-32.553 1.646-32.132 1.43 0 0-.064-.145-.861-2.26-3.952-11.8-4.31-22.279 5.641-30.765 5.285-4.343 11.186-7.212 17.773-6.682 2.945-.058 3-.205 4.229-.719.676-.283 2.079-.579 2.079-.579l6.676-3.427.88-.163 1.92-.937.398-.434 3.102-1.46.348.026 4.195-2.234.056-.314 1.65-.941.393.381c.457.034 16.444-9.67 23.112-15.075l.414.14c7.786-5.824 18.375-15.004 21.516-18.488l-.152-17.432-.265-.211-.089-19.302h-.608l-.023-2.38c-3.441 1.181-7.23 4.138-7.485 4.015-2.176-16.338-10.316-31.377-23.63-42.407l5.68-7.24 26.33 16.31.077-4.779h.327c.34-18.325.562-65.821.562-65.821l-.26-.023v-3.792l-13.475 7.959-.197 8.016c-5.969-1.789-9.743-8.4-10.991-14.296-1.74.647-2.554 6.86-1.919 14.725-1.846 1.02-3.028 2.133-4.16 3.48 1.46 1.697 3.081 3.087 4.868 4.51-.374.742-1.173 11.24-.39 12.542.358.96 1.601.82 1.609-.19 1.824-8.19 10.244-13.579 10.715-13.084l-.24 37.748-14.941-9.641c3.142-3.277 3.807-8.794-.144-11.486-3.962-2.7-7.845-.397-8.765 1.326-4.85-2.91-6.473-13.723-7.178-17.956-.175-2.06-.744-4.855-1.402-7.377-.413-1.58-.904-3.092-.966-4.508-.028-.667.058-.956.716-1.793l14.552-19.055-7.42-.01-.072.118 5.837.003-13.125 17.201c-19.714-5.68-40.16-7.026-62.038-3.36L82.38 759.654l4.913-.028-.194-.301zm11.403.14.21.343 8.492-.04-.127-.291-8.575-.013zm12.594.019.163.414 5.795.008-.178-.405zm29.588.092-.06.188 6.387-.002.056-.188zm-19.57.04.062.24 15.406-.028.056-.226zm29.666.073-.062.198 13.298-.033.113-.19zm56.097 10.364.039 2.583-8.937 5.256c-.234 11.047-.618 53.54-.618 53.54l-2.138-1.292.47-53.21s7.906-4.7 11.184-6.877zm-23.442 2.121h.302l.091.598-.52.001zm.632 1.559.234.81-1.307-.002.22-.783zm22.546.378-.002 1.687-7.71 4.458.002-1.673zm-23.789 1.448 2.018.02.336.932-2.538.005zm-49.494.59 1.348.184c3.081 6.794 3.874 12.632 4.404 18.707 1.224 7.885 3.701 15.785 5.426 19.142l-1.976-.015c-.229-.027-4.39-11.437-5.253-18.176-.232-1.335-.138-2.575-.211-3.812-.435-5.212-1.204-9.128-3.738-16.03zm2.532.27 1.721.16c1.198 4.826 2.946 9.38 3.653 14.23 1.131 7.758 1.731 15.68 5.78 23.321l-1.61-.01c-2.455-5.167-3.973-10.557-4.947-16.387-.764-3.342-.769-5.853-1.172-8.876-.49-3.63-2-8.242-3.425-12.438zm2.615.22 1.72.233c1.128 4.793 3.067 10.066 3.577 14.4 1.04 8.824 2.533 17.046 5.545 22.878l-1.206-.031c-4.653-8.323-4.72-15.746-6.018-23.552-.765-4.596-2.391-9.192-3.618-13.928zm2.742.367 1.521.214c1.053 4.769 2.945 10.165 3.382 15.004.774 8.563 2.414 15.045 5.862 21.954l-1.424.026c-4.165-6.728-4.718-14.993-6.01-23.363-.712-4.623-2.325-9.274-3.331-13.835zm65.391-.11-.002 2.088-7.71 4.58.002-2.059zm-62.905.52 1.588.224c1.02 4.599 2.918 9.506 3.363 13.985.76 7.655 2.279 15.384 5.693 22.501l-1.466.088c-3.61-7.187-5.18-13.73-5.857-21.997-.38-4.635-2.308-10.282-3.32-14.8zm41.972-.053.55 1.239-3.692.172.048-1.39zm-39.357.506 1.889.336c1.994 7.335 2.512 14.283 3.869 21.257 1.695 8.664 3.486 13.018 4.952 14.631l-1.563.05c-3.807-7.497-5.151-14.956-6.03-22.684-.518-4.56-2.135-9.05-3.117-13.59zm2.88.49 1.44.265c1.71 5.996 2.48 11.605 3.23 17.033 1.364 10.309 5.08 18.146 5.871 18.507l-1.588-.063c-3.44-4.387-4.709-11.864-6.393-22.416-.74-4.638-1.476-9.002-2.56-13.327zm2.317.424 1.614.365s1.45 5.274 2.541 12.276c.91 5.835 1.381 17.319 8.25 23.91 3.43 3.29 9.473 6.143 13.602 3.024 1.764-1.39 2.902-3.614 1.844-5.988-1.778-3.976-7.81-3.283-5.807.887.224 1.001-1.194 1.046-2.18.07-1.037-1.042-.778-2.233-.04-3.33 1.553-2.31 5.706-2.554 8.142-.497 3.892 3.513 2.201 9.556-2.733 11.48-5.683 2.238-13-2.347-15.895-6.729-4.79-7.634-5.526-14.888-6.643-22.603-.568-4.166-1.665-8.54-2.695-12.865zm2.43.613 1.64.365c.005.02 1.788 7.435 2.378 11.828.73 5.43 1.534 11.829 4.05 16.765 1.563 3.07 3.841 5.65 6.146 7.152 1.981 1.29 3.76 2.106 6.397 1.571 3.046-.617 3.182-4.966.276-4.972-1.485-.003-.517-1.323.716-1.363 4.379-.141 4.5 6.228.376 7.657-4.723 1.636-9.825-1.422-12.982-5.268-5.523-7.916-5.298-15.145-6.506-21.534-.32-3.366-2.368-12.043-2.49-12.201zm33.138.16 1 1.234-5.562-.014.027-1.173zm-30.697.467 1.567.501c.044 0 1.568 5.756 2.511 12.56 1.122 6.559 1.484 12.02 5.162 16.752 1.53 1.97 4.42 4.594 6.241 4.904 1.128.223 2.297-.009 2.585-.801.471-1.298 1.675-.704 1.7.473-.006.823-.662 1.679-1.769 1.978-5.413.874-10.36-5.388-11.86-8.565-2.03-4.622-2.897-9.79-3.773-16.223-.371-2.724-2.15-11.406-2.364-11.579zm50.22.14-.028 2.077-7.685 4.482.002-2.022zm-47.861.492 1.756.44s1.46 5.061 2.328 11.315c.88 6.342 2.778 13.708 6.331 17.514.323.365.544.624.684.838.254.518-.05 1.394-.313 1.395-6.335-3.032-7.822-15.258-8.362-19.39-.797-6.393-2.424-12.112-2.424-12.112zm24.644.935 5.591.136 1.332 1.209-7.405-.048c-.78-.743-.293-.658.482-1.297zm23.213 1.645-.001 1.725-7.71 4.519.001-1.763zm-23.021.588 8.18.117 2.869 1.57-12.501-.072zm23.019 2.145-.002 2.069-7.71 4.472.001-1.942zm-26.05.439 13.9.111.035 1.39-15.075-.33zm-1.815 2.383 15.723.009.04 1.536-14.299-.101zm27.862.185-.002 2.158-7.71 4.42.002-2.045zm-24.908 2.307 12.052.03-1.309 1.289-9.09-.068zm24.905.713-.002 2.036-7.71 4.486.002-2.007zm-15.837 1.584-1.462 1.313-6.246-.069.216-1.192zm15.834 1.4-.002 2.181-7.71 4.36.002-1.89zm-23.63.839 5.153.094-.787 1-4.51.028zm-46.34 1.823c.772 5.488 5.079 16.545 5.076 16.542l-1.7.017c.084.105-3.08-6.965-4.216-13.63-.138-.637.336-2.783.84-2.929zm46.002.232 3.967.059-.864 1.415-3.232.001zm23.965.291-.002 1.909-7.71 4.387.002-1.74Zm-24.095 1.976 2.63.07-.625 1.312-2.037-.053zm24.092.983-.002 2.036-7.71 4.425.002-1.965zm-71.591.565c.77 3.996 4.049 12.02 4.298 12.546l-1.455.022c-.066.183-3.41-7.194-3.764-10.352-.172-.66.209-1.97.92-2.216zm47.471.761 1.558.063-.267.75-1.261.03zm.136 1.8.812.018-.195.712h-.505zm23.981-.006-.001 1.645-7.71 4.514.001-1.56zm-73.521.313c1.166 3.203 2.332 6.466 3.714 9.588l-1.726-.034c-1.142-2.251-1.943-4.782-2.833-7.266-.245-1.037.28-1.926.845-2.288zm-1.723 2.143 2.863 7.394-1.63.002c-.668-1.486-1.42-3.149-1.948-4.68-.539-1.587-.489-1.64.715-2.716zm75.242.325-.002 1.95-7.71 4.416.001-1.682zm-76.446 3.001 1.57 4.096-2.012-.044c-.589-1.289-.948-2.415-1.095-3.67-.054-.609-.174-1.216.287-1.473.91-.476.806-.085 1.25 1.091zm-2.14 1.682.835 2.4-1.88-.039c-.551-1.134-.762-1.95-.594-3.14 1.132-1.205 1.215-.576 1.64.779zm78.583-1.554-.002 2.04-7.71 4.289.002-1.895Zm-81.25 1.614.785 2.364-1.696-.035c-.28-.554-.101-1.23-.11-1.856zm-2.222 1.215c.025 0 .046.007.056.019.241 1.046.005 1.112.02 1.102l-2.37-.01s1.922-1.127 2.294-1.111zm83.469.46-.002 1.63-7.71 4.45.001-1.655Zm-91.633 2.75 46.308.038 1.54 2.01s-4.505.12-19.262.063c-12.423.17-37.386-.177-37.386-.177l2.432-1.06c3.362-.079 6.416-.89 6.368-.874Zm91.63.073-.002 1.795-7.71 4.322.002-1.74Zm-130.31 1.96c-3.724 1.53-7.2 1.911-9.796 1.722-5.591-.408-14.148 1.765-15.873 6.725-.542 1.752-.547 1.8.478 2.69.509.441 1.002.776 1.097.743.9-.738 2.094-2.108 3.373-2.509 1.68-.472 2.592-.538 5.347-.655 5.937-.254 7.277-.487 8.754-.85 3.25-.8 6.53-3.755 6.73-7.042.022-.377-.11-.823-.11-.823zm-.158.45c-.634 6.858-8.683 7.766-12.218 7.577-7.167-.383-9.992 1.597-11.128 2.825-.375.33-.592.252-.532-.047.835-3.797 7.482-3.953 10.829-3.917 8.2.33 10.282-3.323 10.05-3.358-.623.259-1.085.486-1.715.764-.272.104-.214-.048-.923-.426-.011.05-.823 1.748-1.868.14.026.08-.747 1.43-2.176.173.01.136-.865 1.294-2.262.113-1.316 1.042-1.941.471-2.506-.258-.414.23-1.634 1.75-2.648.118-1.083.638-1.535 1.327-2.466.913-2.174.363-4.057 2.425-4.825 4.311-.24.648-.724.75-.782.04-.255-1.967 3.256-5.38 6.778-6.328 2.738-.737 4.606-1.268 10.624-1.067 3.422.114 7.768-1.573 7.768-1.573zm87.85.358 2.169 1.354-37.82 48.132-3.334-.074zm-60.596.144 4.294-.008-.006 6.55-3.702.007-1.321-1.811c.342.185.739.295 1.164.294 1.27-.002 2.304-.957 2.305-2.13.001-1.172-1.03-2.118-2.301-2.116-1.27.003-2.304.953-2.305 2.125 0 .104.01.206.025.306l-1.382-1.891s.589-.325 1.992-.904c.364-.15 1.237-.422 1.237-.422zm13.236-.024 7.277-.013-.006 6.55-7.277.013zm15.943-.03 7.533-.013-.006 6.593-7.533-.029zm16.265-.029 7.528-.014-.007 6.55-7.527.015zm57.655.05.11 2.045-7.71 4.336.002-2.022Zm-54.168.778c-1.344.002-2.442 1.007-2.443 2.247 0 1.241 1.094 2.246 2.44 2.244 1.344-.003 2.436-1.011 2.437-2.252.001-1.241-1.089-2.242-2.434-2.24zm-32.04.176c-1.344.003-2.436 1.007-2.437 2.248-.001 1.24 1.089 2.246 2.433 2.243 1.345-.002 2.437-1.011 2.439-2.252 0-1.241-1.09-2.241-2.434-2.239zm15.872.014c-1.344.002-2.436 1.006-2.438 2.247 0 1.241 1.09 2.246 2.434 2.244 1.345-.003 2.437-1.012 2.438-2.253.001-1.24-1.089-2.24-2.434-2.238zm8.201.253c1.129-.002 2.042.84 2.041 1.882 0 1.04-.916 1.886-2.044 1.888-1.128.002-2.042-.84-2.041-1.881.001-1.041.916-1.887 2.044-1.889zm-32.29.087c1.13-.002 2.043.84 2.042 1.882-.001 1.04-.916 1.886-2.045 1.889-1.128.002-2.042-.84-2.04-1.882 0-1.04.915-1.886 2.044-1.889zm48.402-.022c.485 0 .927.169 1.261.445l-2.23 2.794c-.55-.303-.918-.856-.917-1.492.001-.962.843-1.745 1.886-1.747zm-31.978.068c1.129-.002 2.042.84 2.04 1.881 0 1.041-.915 1.887-2.044 1.889-1.128.002-2.042-.84-2.04-1.881 0-1.041.915-1.887 2.044-1.89zm-24.666.182c.842-.002 1.522.625 1.52 1.401 0 .776-.681 1.41-1.522 1.412-.842.002-1.527-.63-1.526-1.406 0-.776.687-1.406 1.528-1.407zm-4.672.084c12.963 15.227 19.845 30.676 22.863 47.521l-2.175-.09c-3.59-18.32-11.693-34.023-22.691-46.688Zm53.17-.083c.89-.002 1.614.66 1.613 1.481 0 .821-.725 1.49-1.615 1.492-.89.002-1.613-.665-1.612-1.486 0-.821.725-1.486 1.615-1.487zm-32.039.176c.89-.002 1.613.66 1.612 1.481 0 .822-.725 1.49-1.615 1.493-.89.001-1.613-.665-1.612-1.487 0-.821.725-1.485 1.615-1.487zm15.872.013c.89-.001 1.613.66 1.612 1.482 0 .821-.725 1.49-1.615 1.492-.89.002-1.613-.665-1.612-1.486 0-.822.725-1.486 1.615-1.488zm40.383.992c.85 6.034-.843 9.935-5.832 10.576-6.361.817-7.187 1.26-7.227 6.818-.049 6.587-1.106 8.491-6.163 9.021-5.688.597-7.012 1.22-6.508 7.746.368 4.76-1.668 6.79-6.048 7.683-3.426.697-6.392 1.76-7.665 4.948l-3.13.043c.817-5.017 6.284-7.423 9.786-7.596 3.776-.833 4.566-2.002 3.96-8.108-.456-4.596 1.374-5.997 7.228-7.058 4.68-.86 5.828-2.101 5.577-5.632-.54-7.572.001-8.712 4.666-9.641 2.377-.524 6.247-.764 7.724-2.441 1.68-1.908 1.253-3.53 1.103-5.87zm30.063.147-.002 1.98-7.71 4.401.001-1.927ZM87.136 823.4c-1.655 6.569 4.01 7.985 7.457 9.087 4.01 1.281 4.982 3.147 4.52 9.671-.349 4.935.24 6.024 3.7 7.712 5.295 2.512 6.714 6.094 4.356 11.345-1.453 3.237-.692 4.143.223 6.965l-2.568-.02c-.188.055-2.353-3.517-.499-7.369 2.197-4.564 2.137-6.853-2.749-8.897-3.78-1.58-4.94-3.076-5.172-6.343-.098-1.375-.087-2.06.265-5.052.444-3.771-1.011-5.39-7.05-7.452-2.691-.918-4.518-3.063-5.065-6.47-.154-.954-.014-2.055-.014-2.055zm90.347.547 22.962 14.063-.162 3.139-24.36-14.984Zm-14.805.338c1.112-.002 2.012.828 2.01 1.853 0 1.026-.902 1.859-2.013 1.86-1.112.003-2.011-.827-2.01-1.852 0-1.026.902-1.859 2.013-1.86zm-72.28.943c1.008-.002 1.822.748 1.82 1.679 0 .93-.815 1.688-1.824 1.69-1.01.002-1.827-.753-1.827-1.683.001-.931.821-1.684 1.83-1.686zm109.931-.003-.078 1.89-7.567 4.33.001-1.89Zm-119.897 1.538c6.94 8.344 13.761 16.941 19.012 33.156l-2.248.8c-4.335-13.05-11.012-23.886-18.889-32.844Zm18.147-.113 52.342-.095-1.345 1.67-50.005-.38zm101.814 1.384-.002 2.068-5.8 3.267-1.704-1.024zm-123.036.446 1.025 1.242s-1.112.807-2.371 1.64c-3.43 2.268-3.875 2.526-4.105 3.998-.545 3.499 3.35 5.216 7.264 3.187 1.404-.594 4.481-2.397 4.481-2.397l.882 1.2s-4.411 3.051-7 3.75c-5.677 1.532-9.908-5.098-5.71-9.048.641-.603 1.997-1.415 3.076-2.06a147.327 147.327 0 0 0 2.458-1.512zm23.362.782 48.228.176-30.836 38.901-1.368-.068c-2.374-14.525-8.283-27.208-16.024-39.01zm-21.03 1.683 2.815 3.628s-1.84 1.625-4.875 3.162c-2.434 1.232-5.064-.995-3.531-3.01 1.573-2 5.59-3.78 5.59-3.78zm120.701.152-.002 1.894-3.341 1.896-1.526-.897zm-121.056 1.677c-1.338.068-3.556 1.471-4.313 2.68-.325.52-.208.954.091 1.31.456.54.995.509 2.6-.283 3.276-1.617 3.89-2.574 2.45-3.515a1.3 1.3 0 0 0-.705-.192c-.042-.001-.08-.002-.123 0zm-.108.778c.212-.02.456.039.659.022.566.214.392.864-.2 1.018-.13-.19-1.113-.213-1.048.71-.24.522-.23.482-.95.557a.796.796 0 0 0-.89.393c-.496.246-1.106.17-1.22-.107-.11-.268.3-1.043.645-1.042.166.012.462-.217.766-.407-.01-.504.632-.578.818-.576.182.035.797.041 1.093-.422a.467.467 0 0 1 .327-.146zm121.161.23-.002 2.923-2.42-1.424zm-133.816.613c8.774 9.554 15.09 19.73 19.103 33.82l-1.763 1.124c-2.652-9.879-6.739-20.316-18.848-33.872Zm102.762-.028c3.973 3.11 20.257 17.234 23.338 42.351l-2.181 1.24c-1.739-13.258-7.377-28.45-22.568-41.896Zm-7.86.887c1.111-.003 2.011.827 2.01 1.853 0 1.025-.902 1.858-2.014 1.86-1.11.002-2.01-.828-2.01-1.853.001-1.025.903-1.858 2.014-1.86zm-97.35.903s1.845 1.747 1.841 2.164c-.006.826-.717 1.295-4.96 2.729-.717.242-3.851.914-3.851.914l-.113-1.403c1.6-.535 5.892-1.492 6.208-2.334.154-.33-.61-1.167-.448-1.168zm29.263.303c1.009-.002 1.822.753 1.821 1.684 0 .93-.815 1.688-1.824 1.69-1.009.002-1.828-.753-1.827-1.683.001-.931.821-1.69 1.83-1.69zm73.928.347c13.265 11.944 20.558 26.718 22.25 41.986-15.472 11.633-25.99 26.241-30.181 44.499-2.06-3.17-3.81-6.814-5.715-10.376 20.647-16.768 25.018-46.908 7.193-67.996zm-81.2 2.43.929 1.327s-.194.163-3.086 1.824c-4.23 2.43-4.93 4.01-3.52 6.487 1.44 2.531 3.05 2.663 7.593.627 1.605-.72 2.969-1.476 2.969-1.476l.723 1.389s-2.034 1.53-5.952 2.862c-3.684 1.252-7.163-.864-7.813-4.788-.474-2.853.877-4.385 6.252-7.208.605-.296 1.906-1.044 1.906-1.044zm63.262.515c1.112-.002 2.01.828 2.01 1.854 0 1.025-.902 1.858-2.013 1.86-1.112.002-2.012-.828-2.01-1.853 0-1.025.902-1.858 2.013-1.86zm-82.045.22 1.215 1.056s-.525.712-3.52 2.38c-2.694 1.5-2.97 1.258-1.631 2.3 2.496 1.943 5.958 6.25 5.938 7.364-.019 1.073-1.062 2.064-3.06 2.897-1.094.457-5.424 1.889-6.06 1.992-1.264.13-1.62.598-.357 1.656 2.145 2.27 3.973 7.131 3.235 8.616-.832 1.672-1.827 1.957-9.78 2.307-.907.04-1.34-.196-.85.874.357.777.73 1.844 1.436 5.143.629 2.942.52 4.265-.72 4.874-.712.35-6.243.237-8.528-.173-2.615-.47-2.9-.5-2.477 1.07.546 2.169.882 7.985-.898 9.11-.74.447-1.537.34-4.784-.664-2.071-.64-3.864-1.374-3.864-1.374l.037-1.805c1.688.638 6.316 2.475 7.633 1.89 1.563-2.067-.598-9.302-1.425-10.85-.998-1.85.048-2.256 2.35-1.112 1.209.784 11.62 4.555 11.031 1.165-.632-3.215-1.76-6.875-3.955-9.17-2.03-2.124-1.018-2.995 1.242-2.067 4 1.643 12.27 1.223 11.86-.486-.543-2.78-3.278-6.546-7.022-9.463-1.042-.81-1.08-1.159.149-1.361 3.5-.264 13.519-1.232 12.12-3.4-1.2-1.773-2.802-3.734-4.168-4.79-2.243-1.731-4.506-2.48-5.509-2.84l.066-1.331c4.562-.358 6.935-1.63 10.296-3.807zm-11.047 1.331c-1.65 15.829-8.837 28.88-23.654 38.003l-.08-1.772c13.027-9.048 19.29-21.885 20.995-34.298Zm31.549.937c.006 0 .009.002.01.005 0 0 2.379 3.948 2.376 4.307-1.416 1.212-5.129 2.989-6.647 2.576-2.34-.684-2.705-2.99-.455-4.354 1.943-1.308 4.364-2.449 4.69-2.53l.026-.004zm-18.977-.212 1.217 1.005s-.313.44-2.067 1.736c-1.364.97-.888.588.04 1.739.825.913 2.295 2.748 2.295 2.748l-.442 2.446c-1.539-2.022-2.816-3.494-5.101-5.655-1.16-1.103-1.096-1.133.564-1.933 1.243-.636 2.256-1.409 3.494-2.086zm33.244 1.516c1.008-.002 1.822.748 1.821 1.679 0 .93-.816 1.688-1.825 1.69-1.008.002-1.827-.753-1.826-1.684 0-.93.821-1.684 1.83-1.685zm-14.77.167c-1.739.427-3.445 1.863-4.403 2.496-.35.231-.076 1.385.258 1.781.43.51 1.222.423 2.17-.065a30.393 30.393 0 0 1 1.595-.743c1.337-.572 1.898-.998 1.85-1.473-.214-.64-.76-2.043-1.47-1.996zm.097.73c.489.018.84.598.684.942-.839.42-1.303.066-1.196.652 0 0 .083.912-1.145.935-.299-.12-.82-.097-1.072.139-.858.33-1.607-.362-.674-.757.253-.107.876-.289 1.048-.643.089-.44.483-.792.915-.549.23.015.742.047.909-.289-.063-.377.227-.41.434-.425a.61.61 0 0 1 .097-.005zm-35.1-.053c.374 1.776-.79 4.897-1.45 6.656-3.899 4.709-9.548 7.123-14.92 8.774-1.193.368-2.796.186-2.796.186 7.437-7.067 13.813-12.25 19.166-15.616zm-13.573 1.622c.053-.396-1.905-.871-2.093-.623-.362.314-.942 5.215-.567 5.567.52.489 1.961.62 2.099.037.452-1.924.344-3.36.56-4.981zm33.3-.207 1.271 1.454c-2.716 23.617-21.013 44.078-40.535 52.213l-.055-1.564c22.334-10.861 35.786-28.9 39.32-52.103zm88.321-.062 2.418 3.068-3.468.105Zm-122.267.793c-.021.808-.123 2.485-.461 3.422-.211.73-.822.565-1.052-.106-.239-.697-.037-2.68.416-3.492.484-.767.867-.64 1.097.176zm18.47.396c1.197-.003 7.552 3.596 6.7 5.397-.677 1.432-6 1.558-8.439 1.362l.37-1.38s.742.238 3.578-.044c2.977-.19 2.76-1.132-.651-3.119-1.468-.845-1.808-1.054-1.808-1.054zm17.619 1.904c1.967 3.06 3.828 6.51 5.577 10.376-24.06 20.977-22.22 49.482-7.081 68.166l-6.54 8.145c-13.048-11.474-20.145-25.607-22.533-40.628 19.074-12.69 28.05-31.593 30.577-46.059Zm89.27.765 1.432 2.528-3.447-.045zm-14.888 1.295c1.111-.002 2.011.828 2.01 1.853 0 1.026-.902 1.854-2.013 1.856-1.112.002-2.011-.823-2.01-1.848 0-1.026.902-1.859 2.013-1.86zm-55.934.602.683 1.436c.032.18-4.866 1.615-6.443 3.452-1.457 1.696-1.323 3.463-.505 4.68 1.394 1.736 2.383 1.977 4.738 1.307 1.92-.547 3.33-1.283 5.236-2.182l.3.725c.004-.039-2.734 1.488-4.822 2.577-.784.409-1.727.582-2.544.565-4.749-.097-7.26-5.747-3.341-9.094.574-.49 2.515-1.474 4.148-2.255 1.088-.52 2.55-1.211 2.55-1.211zm62.868.776c15.659 20.84 4.903 43.729-5.228 51.838l-.268-2.455c17.063-17.949 11.154-38.862 4.06-48.15zm10.09.92 1.228 2.575-3.64-.347zm-63.2.959c1.01-.002 1.828.753 1.827 1.684 0 .93-.82 1.684-1.83 1.685-1.008.002-1.821-.748-1.82-1.679 0-.93.815-1.688 1.824-1.69zm51.239.235c13.725 18.398 6.032 47.789-20.19 56.785l-.13-2.059c26.736-10.36 29.388-37.816 18.664-53.285zm-59.57.222 1.732 4.323c-2.186 1.355-3.044 1.586-5.492 2.14-1.93.41-3.43-2.665-1.947-3.846 1.692-1.35 3.514-1.934 5.707-2.617zm-44.572.096c.323-.015-.019.724-.85 2.58-1.831 4.087-1.953 4.174-6.556 4.856-2.396.354-4.181.446-5.884.298-2.568-.223-3.665-.891-2-1.217 4.826-.988 10.163-3.304 13.635-5.543.904-.6 1.434-.964 1.655-.974zm87.348.343c1.248-.002 2.26.932 2.26 2.084-.001 1.151-1.016 2.084-2.264 2.087-1.248.002-2.256-.928-2.255-2.08 0-1.15 1.011-2.089 2.259-2.09zm-68.316.703-.195 1.606s-2.789 1.364-4.109 1.88c-1.01.378-1.079.462-.756 1.324.65 1.721 1.906 3.856 1.906 3.856l-1.167 2.437c-.71-2.189-1.455-4.502-2.761-6.54-1.238-1.593-1.47-1.791.46-2.129 2.493-.778 4.433-1.342 6.622-2.434zm24.895.476c-1.364.057-4.213 1.121-4.496 2.133-.16.572.016 1.371.54 1.55 1.417.483 4.264-.599 5.016-1.583.234-.304-.121-.932-.372-1.324-.19-.3-.154-.799-.688-.776zm.07.862a.396.396 0 0 1 .072 0c.231-.019 1.071.962.127.881-.326-.028-.622.085-.89.341-.032.472-.765.652-1.118.492-.263-.119-.632.128-.67.275-.53.353-1.2.337-1.286.087-.18-.176.357-.9.823-.873.1.005.431-.202.74-.45.15-.493.713-.408 1.068-.383.403.149.772-.335 1.134-.37zm73.828-.06 1.004 2.581-3.6-.29zm-15.477 3.004c-.747.878-1.433.889-2.52.844.89.97 1.28 2.314.413 3.197-1.319 1.242-3.86-.653-3.67-.827l4.566-5.618c1.21.315 1.88 1.357 1.21 2.404zm-99.059-1.282s5.54 4.398 5.579 6.373c.014.753-.248.998-.9 1.198-2.179.67-8.24-1.032-8.24-1.032l.78-1.366c.955.241 5.65 1.355 6.055.802.42-.574-3.92-4.476-3.928-4.48zm27.52 1.793.661 2.129-2.266-.514zm88.545.22.59 2.944-3.631-.775zm-69.217.174.54 1.728c-24.095 10.35-31.15 34.03-18.609 53.54l-1.421 1.803c-16.789-25.11.263-50.655 19.49-57.071Zm-21.7 1.849.324 2.624-2.798-.146zm-33.146-.009c.476.006.567.242.565.502-.003.354-2.436 3.222-3.224 3.868-1.708.64-8.296-1.89-9.279-3.853-.193-.576.457-.324 1.917-.052 3.696.966 7.444-.377 10.02-.465zm64.167-.083c1.009-.002 1.827.748 1.826 1.679 0 .93-.82 1.689-1.83 1.69-1.008.002-1.822-.753-1.82-1.683 0-.931.815-1.684 1.824-1.686zm-75.87 2.212c1.832 1.517 4.525 2.77 6.913 3.204 1.487.3 1.055.442-.325 1.759-1.291 1.246-1.185 1.403-2.498.791-2.19-1.021-4.572-3.348-4.475-4.616.04-.527.141-1.14.385-1.138zm136.803.035.452 2.799-3.43-1.092zm-95.368 1.183 1.116 2.505-3.044-.075zm77.344 2.252c-.003.35-.093.943-.093.943 1.79-1.054 4.166-.195 4.094 1.503-.102 2.395-1.37 2.42-3.444 2.106 1.134 1.735-.215 3.41-2.349 2.774-1.945-.58-1.568-2.474-.658-3.598-4.59.699-5.823 6.726-.524 8.507-1.064-1.52-1.327-3.337.985-3.647 2.147-.287 3.055 1.213 2.126 3.023 2.017-.65 3.918.412 3.309 2.226-.736 2.191-2.845 2.043-4.088.712.891 1.983-1.178 3.417-2.737 2.65-2.459-1.207-1.241-3.372.408-3.95-6.333-.591-7.81 7.494-3.143 8.639-1.198-.692-1.33-3.875 1.406-3.444 2.686.494 2.045 2.8.32 3.85 2.081-.414 4.028 1.26 2.76 2.96-1.495 2.001-3.551.58-4.314-.78.238 1.824-1.021 2.988-2.64 2.307-2.776-1.17-.72-4.115 1.451-3.93-4.404-2.395-10.4 2.655-6.875 6.821-.135-1.895.89-3.452 2.3-3.24 1.243.127 2.328 1.43 1.978 2.458-.326.876-1.409 1.551-2.542 1.764 3.37.339 3.655 2.538 2.257 3.625-2.373 1.845-3.472-.278-4.021-1.52-.485 3.09-4.43 2.047-4.565-.185-.132-2.445 2.925-2.4 3.49-2.263.071-.085-2.364-2.306-4.964-2.618l.017-1.419c10.261-5.953 13.797-16.321 10.552-26.138l.618-.657c1.671 1.176 3.347 3.701 6.44 2.768 0 0-.719-.466-1.074-.789-1.591-1.445-.695-3.151 1.52-3.25 1.434-.063 1.991.958 2 1.792zm-69.57.123 1.062 1.435c-15.566 16.84-12.75 36.07-3.82 48.786l-1.304 1.454c-7.905-9.348-14.345-32.037 4.063-51.675zm13.25 2.299c-.02.374.008.676.008.676s.335-.385.607-.845c1.33-2.051 4.187-.878 3.715 1.476-.221 1.103-2.237 1.538-2.785 1.224.52 1.314 1.934 1.62 3.655 2.186.602.105 1.634.374 1.634.374l.04.89c-9.333 5.44-14.622 14.645-11.215 27.212l-1.033 1.289c-1.878-4.173-3.593-4.079-6.687-4.237 0 0 .769.5 1.21.98.938 1.022.52 2.807-.778 2.995-3.008.435-3.037-1.531-2.638-2.865 0 0-.538.418-.802.576-1.194.718-2.68-.023-2.817-1.442-.13-1.335.366-2.2 1.856-2.369.5-.056 1.271.06 1.271.06s-.296-.525-.459-.82c-.711-1.29.854-2.397 2.29-2.12 2.267.5 2.087 2.304.772 3.725 3.517.238 5.362-1.887 5.105-3.992-.314-2.57-1.594-3.956-4.36-4.399 0 0 .446.646.637.958.706 1.158-.312 2.582-1.8 2.576-1.526-.005-2.502-1.294-1.913-2.57.143-.31.716-.7.629-.735-.06-.025-.846.201-1.063.232-1.833.268-3.009-1.218-2.239-2.705.545-1.054 2.183-1.34 3.371-.826.19.063.419.307.455.253.034-.052-.12-.397-.168-.64-.376-1.36.334-2.089 1.932-1.997 2.237.128 3.069 1.809 1.564 3.329-.388.392-.985.972-.985.972.074.298 3.191.51 4.785-1.031 1.845-1.783 2.138-5.498.287-6.706-.305-.2-.919-.597-.919-.597.88 1.631-.745 3.513-2.176 3.164-2.864-.632-2.614-2.796-.73-3.483 0 0-1.91-.655-2.46-1.363-.777-1.002-.513-1.927.42-2.633 1.177-.874 2.847-.306 3.652.768.488-1.37 1.175-2.295 3.204-1.554 1.418.623 1.405 2.37-.159 3.324-.5.306-1.392.591-1.392.591s1.342.704 2.977.718c3.152.027 5.65-3.407 4.382-6.026-.258-.532-.901-1.217-.901-1.217s-.071.916-.268 1.268c-.73 1.309-2.404 1.335-3.394.513-.899-.748-.635-1.75.064-2.435.53-.52 1.008-.622 1.747-.94-.84-.261-1.774-.448-2.181-1.25-.379-.763-.112-1.704.895-2.288 1.818-.88 3.241.602 3.159 1.756zm-62.534-2.001c1.284.682 2.14 1.713 3.337 2.613.925.69.915.815.148 1.474-1.723 1.536-2.688-.68-3.244-1.587-.68-1.213-.75-2.453-.241-2.5zm137.681.172.212 2.964-3.578-1.262zm-98.651.354 1.284 2.694-3.324-.009zm69.466-.122c3.115 10.651-1.286 18.309-9.628 24.316l-.924-1.116c6.522-5.12 11.404-11.15 9.26-21.873zm-38.3.117 36.65.555-1.1 1.784-2.854.02-5.672 9.246-26.34.043Zm-53.633 7.806c-1.28 1.865-8.89-2.13-8.79-2.34l.955-.85c1.209.45 4.97 2.36 5.804 2.055.293-1.744-1.925-3.997-2.759-5.498l.933-1.08s4.822 5.76 3.857 7.713zm12.498-6.802-1.27 2.116c-1.186.338-4.767.404-5.055.624.43 1.083.903 4.265.903 4.265l-1.413 1.668c-.374-2.047-1-4.635-1.553-6.533-.473-1.61-.34-1.255 3.377-1.528a35.78 35.78 0 0 0 5.01-.612zm7.514 2.535 1.504 2.467-3.053.034zm-36.702.232c.167-.063 1.11.913 1.273 1.195-.07.642-1.15.995-1.316.766-.067-.092-.085-1.533.023-1.932.004-.016.009-.024.02-.029zm138.254-.219-.033 3.091-3.63-1.477zm28.827.645-.053 2.003c-13.172 5.958-32.826 21.926-38.455 50.513l-1.148-1.167c5.624-27.295 24.963-43.462 39.656-51.35Zm-132.445 2.998 1.637 2.274-2.957.302zm103.686.683-.294 2.738-3.573-1.821zm-68.783.696c.013.65.073 1.118.115 1.767-8.117 4.861-10.866 12.494-9.524 22.09l-1.125 1.534c-2.632-8.698.044-19.428 10.534-25.391zm94.065.394c.827.446 3.506 1.17 3.506 1.17l-.031 1.82-5.519-1.818zM37.87 886.32c-1.188.896-3.926-.586-5.17-1.19l-.034-1.536s.948.447 1.904.798c1.963.8 1.969-.157.896-2.838-.378-.942-.751-2.033-.751-2.033l1.293-1.133s3.084 6.417 1.862 7.932zm27.722-5.812 2.112 2.037-2.947.628zm128.867.01c1.871-.001 5.478 1.395 5.478 1.395l-.025 2.019c-1.832-.486-3.959-1.422-5.896-1.682-1.53-.192-1.44.598-1.45 2.593-.014 2.703.72 5.143 2.117 7.843 1.157 2.236.553 2.836-1.34 1.84-3.407-2.153-10.67-3.768-11.789-2.51-1.15 1.293 1.107 7.722 3.723 10.786 1.062 1.244 1.128 1.444.631 1.93-.403.395-1.053.42-2.2.085-3.776-1.102-9.242-1.342-10.817-.4-1.564.936 2.498 7.37 5.91 9.443 2.213 1.453 1.785 2.18-1.794 2.26-5.845.036-10.342 1.247-10.094 2.719.422 2.502 4.204 5.927 8.547 7.741 2.658.997 1.546 1.398-.223 1.98-2.956.927-5.799 2.407-8.582 3.79l-1.336-1.576s2.8-1.647 5.845-3.23c.714-.37.678-.505-.32-1.276-3.24-2.502-5.616-5.297-6.112-7.18-.481-1.83.51-2.988 3.456-4.026 1.82-.642 2.491-.832 4.097-1.167 2.314-.483 2.353-.55 1.366-2.19-.443-.734-1.169-1.948-1.612-2.696-3.442-5.435-1.622-7.402 6.38-7.528 1.966-.1 2.34-.106 2.233-.73-.423-2.563-1.648-5.504-1.472-7.677.37-3.276 4.02-4.074 10.434-2.608 1.485.34 1.588.27 1.328-.837-1.237-4.984.061-9.486 3.517-9.11zm-23.542.392-.565 3.177-3.414-2.09zm-127.766.983 9.422.553-1.498 1.623-5.694-.088-.219 4.487-1.824 1.445zm61.066.232 7.757-.014-.068 7.568-7.732.014zm9.243-.017 7.221-.013-.007 7.568-7.16.084zm8.646-.016 7.742-.014-.079 7.569-7.665.014Zm67.613.48c-.185 1.947.254 5.464.43 6.975-.125.45-.463.385-2.49-.034-1.405-.431-5.303-.552-5.303-.552l1.635-1.6c1.335.145 2.39.131 3.771.288-.018-1.274.042-3.707.042-3.707zM64.358 884.3l2.164 2.008-2.774.66zm105.806.461-.866 3.24-3.133-2.596zm29.696 1.667.01 1.652-3.082-1.275c-.037 1.884 1.767 5.284 1.767 5.284l-1.466.64c-1.267-1.912-2.149-3.63-2.22-5.786.018-.78-.097-2.1.665-2.138 1.568-.037 2.88.451 4.326 1.623zm-136.563 1.884 2.573 1.409-2.856 1.07zm105.877.532-1.264 3.334-2.75-2.879zm-136.493 1.31 6.943 2.16-1.237 1.213-5.769-1.672zm97.44.703.561 11.804-36.696-.211 1.278-1.67 2.385-.024 6.29-9.785zM62.804 891.9l2.725 1.772-2.835 1.16zm137.216.79.003 1.933c-8.865 6.057-18.454 16.485-20.102 34.895l-2.392 1.89c1.184-17.976 9.306-30.382 22.491-38.717zm-32.325.13-1.29 3-2.546-2.785zm24.963 4.03-.854.884c-.24.075-3.618-1.59-6.274-1.977.868 1.586 1.278 2.77 3.202 5.282l-1.242 1.133c-.374-.076-5.184-6.63-3.908-8.114 2.07-1.29 7.083 1.397 9.076 2.792zm-14.406-3.496c-.056 1.782 1.502 7.309 1.502 7.309-2.416.114-4.758-.137-7.366.543l1.23-2.024s1.135-.111 2.13-.295c2.053-.38 1.84-.152 1.365-1.8-.447-1.548-.472-1.87-.472-1.87s1.464-1.873 1.611-1.863zm-135.434 2.16c3.153 17.716 10.719 29.872 22.66 40.801l-1.216 1.468c-14.04-11.84-21.695-26.927-23.687-41.125zm19.772.708 2.583 1.296-2.657 1.432zm137.392-.2-.018 2.601-1.618-1.504c.437-.365.968-.73 1.636-1.096zm-34.063.595-1.765 2.987-2.297-2.822zm33.867 6.687c-.362-.525-3.586-2.37-5.05-3.144-.092-.228 2.27-2.178 2.739-2.313 2.343.296 3.091 4.615 2.31 5.457zm-137.164-2.992 2.92 1.31-2.652 1.73zm97.18-.179 3.749.32-1.994 2.86Zm34.7 1.206c.487.002 1.033.19 1.715.539 2.64 1.352 4.025 2.837 3.877 4.159-.067.606-.436.729-.863.289-.77-.794-3.366-1.824-5.605-2.224-1.696-.303-1.852-.436-1.342-1.161.772-1.1 1.408-1.605 2.218-1.602zm-45.17 1.336c4.047 14.181 11.175 25.087 20.129 34.058l-1.86 1.465c-6.798-7.192-14.275-15.61-20.37-33.827Zm8.106.744 3.75.516-2.198 2.587zm-52.908.247c.435.013-1.297 6.056-7.258 6.484-3.774.585-4.198 1.171-4.26 6.591-.084 7.347-1.37 9.068-7.878 9.534-4.31.308-4.878 1.118-4.154 6.826.69 5.433-1.54 8.208-7.029 8.213-4.755.372-6.722 2.422-6.721 6.487 0 1.647.028 2.045.028 2.045l-3.074.227s.01-2.676.244-3.977c.941-5.262 3.386-7.372 8.53-7.358 3.977-.286 4.596-.883 4.464-6.445-.149-5.659-.231-5.62 1.37-7.105 1.031-.956 2.208-1.387 4.296-1.572 6.505-.577 7.019-.979 7.008-7.134-.598-5.112.936-8.245 4.456-8.51 7.122-.533 6.957-4.1 6.643-4.248l3.314-.053c.009-.003.014-.005.02-.005zm14.564-.026c4.158 20.78 17.354 40.224 24.6 47.396l-1.415.695c-10.56-12.096-20.155-25.992-24.885-48.055Zm-7.542.023 3.304.027-38.108 49.499-2.005-1.391zm4.616.025c3.564 11.975 6.367 23.687 17.596 39.34l-47.696-.2Zm13.17.023c.278-.12 1.393 6.06-.28 8.916-1.506 3.866-.774 6.04 2.491 7.441 5.606 2.407 7.02 4.817 6.302 10.752-.502 4.156.859 6.161 5.084 7.489 5.04 1.583 7.244 4.081 7.213 8.182-.004.629-.261 1.348-.261 1.348l-2.816 1.532s.036-.558.145-1.226c.737-4.547-.195-5.778-6.009-7.91-5.49-2.015-6.849-4.353-5.909-10.192.308-1.905-.112-3.829-.965-5.277-1.435-2.36-4.613-2.33-6.895-4.483-1.885-1.844-2.093-4.423-.48-8.843.999-2.74 1.15-3.778.377-6.058-.509-1.5-.709-1.633-.709-1.633zm-66.245.78 3.237.82-2.438 2.336zm128.503.385c1.11-.03 3.258.324 5.016 1.13 4.032 1.846 4.763 3.365 1.228 2.551-1.993-.458-4.86-.349-7.625.287-2.922.673-2.86.703-1.852-.93 1.276-2.065 1.609-2.995 3.233-3.038zm-7.325 2.203-.735 1.165c-1.603-.242-3.287-.965-5.73-.782 1 1.766 2.186 2.679 3.776 4.235l-.594 1.17c-.142.158-4.648-3.305-5.55-5.635-.407-1.053-.036-1.512 1.605-1.554 2.447-.039 4.911.602 7.228 1.4zm-60.246-1.034c1.208-.003 2.185.898 2.184 2.012-.001 1.115-.98 2.024-2.188 2.026-1.208.002-2.184-.903-2.184-2.018.001-1.114.98-2.018 2.188-2.02zm30.802.49 3.693.605-2.464 2.55zm-69.056.151c.874-.066 2.221 1.494 2.217 1.497l-4.48 5.714c-2.13-.392-1.672-3.37.279-3.464.45.002 1.273.071 1.273.071s-.6-.301-.945-.724c-1.307-1.454-.068-2.964 1.656-3.094zm83.534-.663s3.556 6.497 3.33 6.746c-2.21.902-4.622 1.37-7.05 2.192l.469-1.892s.808-.055 3.522-1.013c1.3-.46-1.414-3.787-1.414-3.787zm-24.65 1.967c5.198.03 5.258 5.918 4.261 7.867-.725 1.337-1.827 2.08-5.156 3.473-2.885 1.207-3.208 1.127-3.208 1.127l-.688-1.417s1.68-.686 3.489-1.364c3.74-1.4 4.65-2.466 4.243-4.96-.576-3.532-3.533-4.077-9.257-1.699-.664.276-1.501.555-1.501.555l-.393-.711c.091-.07 4.584-2.25 7.101-2.794.393-.053.762-.08 1.108-.077zm-80.412.788 2.94.89-2.146 1.95zm131.033.52c2.6-.012 4.74.389 4.732 1.244-.003.406-.103.441-2.438.744-3.548.46-9.479 3.266-12.817 5.865-1.977 1.54-1.466 1.18-.632-1.048.83-2.216 2.069-4.862 2.738-5.267 1.672-1.01 5.47-1.526 8.417-1.539zm-42.504.383 2.502.5-1.63 1.459zm-8.386 1.269c.896-.014 1.338.375 1.69 1.165.759 1.709.006 2.714-2.895 3.865-1.315.546-2.489 1.312-3.929 1.558l-1.818-4.511s.575-.197 2.472-.924c2.162-.829 3.584-1.14 4.48-1.153zm-8.457.562c5.773 15.098 12.847 24.898 20.334 33.016l-1.814 1.05c-7.952-8.676-15.268-18.846-20.533-33.827Zm8.027.522c-.701.02-1.753.414-3.157.916-2.041.73-2.218 1.608-1.305 2.693.399.473.811.367 2.774-.354 2.003-.736 2.867-1.062 2.989-1.72.176-.96-.4-1.56-1.301-1.535zm56.267.104c-.005.634-10.422 9.757-16.379 14.403-2.714 2.117-2.62 2.1-2.852 1.84-.145-1.57 1.013-7.174 1.714-8.152 3.98-3.891 10.116-7.063 16.085-8.262.938-.175 1.52-.158 1.432.17zm-56.084.405c.374.01.697.308.694.692-.002.293-.463.578-.94.576-.17 0-.583.088-.843.336-.258.345-.425.676-.89.596-.27-.047-.77-.061-.964.096-.915.736-1.822.128-1.4-.61.108-.186.477-.28.777-.28.26.001.854-.055.94-.35.104-.352.687-.451 1.094-.44.442.053.8-.152.914-.323.165-.136.358-.274.542-.288.025-.002.051-.006.076-.005zm-78.71.304 3.314.409-2.09 2.473zm31.638-.1c1.208-.001 2.19.9 2.189 2.014-.001 1.114-.985 2.023-2.193 2.025-1.208.003-2.184-.903-2.183-2.017 0-1.115.98-2.019 2.187-2.021zm34.517 1.536c1.208-.002 2.185.899 2.184 2.013 0 1.115-.98 2.019-2.187 2.021-1.208.002-2.185-.898-2.184-2.013 0-1.114.98-2.019 2.187-2.02zm-64.677 2.397 3.595.206-2.06 2.544zm18.98.451c1.209-.002 2.185.898 2.185 2.013-.001 1.115-.98 2.019-2.188 2.021-1.208.002-2.185-.898-2.184-2.013.001-1.115.98-2.019 2.188-2.02zm89.816 1.094c1.5-.025 3.238.112 3.238.112l-.421 1.553c-1.828.164-4.176-.3-6.138.46.727 1.098 4.994 2.646 5.465 3.032.045.164-.352 1.645-.352 1.645.114.378-7.22-2.735-7.461-5.373.007-.894 3.17-1.387 5.67-1.429zm-25.233 1.658c4.169.028 6.22 5.396 4.599 7.777-.643 1.076-2.092 2.354-4.002 3.48-.92.542-3.352 1.646-3.352 1.646l-1.091-1.558s.97-.36 1.885-.823c2.298-1.201 6.959-3.76 4.71-7.228-1.263-1.877-3.155-2.241-7.088-.393-2.935 1.38-3.601 1.51-3.601 1.51l-.745-1.242c.195.102 5.862-3.054 8.685-3.169zm-81.392.71 3.274-.002-1.402 2.727zm94.822-.532c1.988 3.55 5.39 6.23 6.32 6.873 0 0-3.393 2.016-5.42 3.3l-1.19-1.29 2.912-2.308-3.273-4.213Zm31.939.798c-.37 1.756-.431 3.62-.59 5.67.718.604 1.363.906 1.927.87.635-1.846 1.093-3.94.793-6.097-.599-.43-1.387-.38-2.13-.443zm1.64 1.332c-.012 1.158.16 2.603-.377 3.72-.306.636-1.002.399-1.026-.465-.031-1.168.228-2.15.302-3.214.042-.607.327-.97.719-.83.407.181.373.45.382.789zm-47.263.883c2.15.144 2.977 1.8 2.183 2.993-1.944 2.293-3.93 2.712-6.479 4.041l-2.539-4.383s4.951-2.586 6.835-2.651zm-.06.98c-1.42.155-2.32.797-3.515 1.34-1.464.663-1.94 1.687-.949 2.613 1.094 1.124 4.918-1.566 5.55-2.216.388-.557.325-1.065-.22-1.465a1.453 1.453 0 0 0-.865-.272zm-78.395.327 3.202.027-1.734 2.26zm78.688.318c.545.356.497.996-.271 1.179-.389.092-1.059.096-1.075.574-.011.356-.601.491-.938.441-.344-.05-.926-.077-1.039.321-.295.542-.515.552-.928.174-.442-.411-.235-.934.63-1.023.368-.038.69-.287.822-.548-.02-.339.238-.536.644-.459.574-.006.95-.203 1.36-.698.286-.124.6-.088.795.04zm-18.734.093c1.208-.002 2.185.898 2.184 2.013-.001 1.114-.98 2.023-2.188 2.025-1.208.003-2.185-.903-2.184-2.017.001-1.115.98-2.019 2.188-2.021zm-46.686 3.797c1.208-.002 2.19.903 2.19 2.017-.002 1.115-.985 2.02-2.194 2.021-1.208.003-2.184-.898-2.183-2.013 0-1.114.98-2.023 2.187-2.025zm-52.31 1.886 25.024 15.755-1.713 2.308-23.242-14.552Zm125.712.284c1.63-.002 2.885.861 4.098 2.603 2.41 3.46 1.197 6.194-3.803 8.994-2.322 1.301-2.34 1.314-2.34 1.314l-1.178-1.34s1.692-.921 2.391-1.329c4.11-2.402 5.267-4.523 3.464-6.905-1.738-2.296-3.566-2.11-8.642.878-1.026.604-2.253 1.078-2.253 1.078l-1.112-1.393s2.874-1.367 3.853-1.943c2.249-1.329 4.084-1.955 5.522-1.957zm18.665-.629.015 1.518c.055.069-3.405 1.482-5.433 2.333-.656.332-.4.975-.361 1.638l-.977.61s-1.347-.905-1.523-1.487c-.493-1.838 5.856-4.052 8.28-4.612zm-36.15 1.698c1.207-.002 2.19.898 2.188 2.013 0 1.115-.985 2.023-2.192 2.026-1.208.002-2.185-.904-2.184-2.018.001-1.115.98-2.019 2.187-2.021zm-67.833.69c1.208-.002 2.185.899 2.184 2.013 0 1.115-.98 2.019-2.187 2.021-1.208.002-2.185-.898-2.184-2.013 0-1.114.98-2.019 2.187-2.02zm85.223 1.455c.83-.029 1.452.47 1.791 1.232.868 1.95-.316 3.396-4.596 5.616-.36.186-1.119.567-1.119.567l-3.147-4.009s1.11-.706 2.156-1.286c2.345-1.418 3.848-2.082 4.915-2.12zm-.42.962c-.201.006-.434.078-.705.223-1.098.586-2.934 1.224-3.801 2.283-.507.648-.277 1.291.682 2.12.813.495 5.014-2.366 5.12-3.195-.354-.877-.69-1.447-1.296-1.43zm-125.022.445.699.433-.7.51zm125.689.474c.31.349.123.941-.536 1.046-.332.053-.821.138-.98.591-.133.299-.587.554-1.033.544-.515-.109-.787.18-.815.389-.254.4-.882.466-1.264.09-.298-.292.237-1.135.589-1.123.062.027.45.107.918-.472.095-.42.625-.678 1.009-.664.39.122.62-.277.776-.497.358-.177 1.085-.177 1.336.096zm-124.026.532 1.006.625-2.673 1.753.002-1.409zm1.95 1.174 1.368.841-4.987 3.304.001-1.786zm2.552 1.5 1.444.878-7.618 4.76.002-1.83zm2.741 1.276-.001 1.527-8.917 5.756.001-1.546zm1.005 1.096 1.92 1.208.43 51.742-12.013 7.633.012-2.262 10.087-6.743zm144.83 1.134c-2.694 2.842-6.305 3.04-9.455 2.969-8.487.124-13.756.552-14.856 9.892 3.46-2.39 7.127-2.706 11.371-2.6 5.376-.017 7.794-.347 9.98-1.357 3.512-1.623 5.734-4.521 5.312-6.55-.416-.438-1.506-2.247-2.351-2.354zm-145.838.72-.001 1.79-8.917 5.526.002-1.82zm101.753-.02c1.208-.002 2.19.898 2.189 2.013-.001 1.115-.985 2.019-2.193 2.02-1.208.003-2.184-.897-2.183-2.012 0-1.115.98-2.019 2.187-2.021zm-58.172.313c15.744.423 49.182.188 49.182.188l1.78 2.367-52.573-.413zm102.168 1.368c-1.885 1.708-3.84 2.546-10.032 2.455-6.542-.096-9.093.862-10.788 3.554-.493.782-.484 1.086.229.494.598-.656 1.96-1.922 2.52-.727 1.112-.673 2.074-1.697 2.654-.406.322-.067 2.21-1.813 2.655-.27.901-.931 1.673-1.224 2.095.094 1.281-.563 1.962-1.625 2.689-.16 1.032-.683 1.816-1.536 2.416-.24.88-.24 1.777-1.732 2.284-.546.095.03 3.279-1.742 4.181-3.49.74-1.543 1.418-.521.576 1.054-2.16 3.858-5.849 5.272-14.314 5.3-5.138.014-7.264.482-8.878 1.354-2.593 1.4-1.194-2.114.624-4.247 2.29-2.689 4.901-3.487 12.05-3.26 3.907.014 6.405-.488 7.462-1.276.896-.67 1.545-1.122 2.027-1.153.482-.03.546.568-.45 1.47zm-115.684-.441c1.208-.003 2.19.903 2.189 2.017-.001 1.115-.985 2.02-2.193 2.021-1.208.003-2.185-.898-2.184-2.013.001-1.114.98-2.023 2.188-2.025zm-30.067 1.55-.002 1.82-8.917 5.629.002-1.862zm43.084.794 6.915-.013-.007 6.735-6.914.012zm15.494-.028 7.44-.014-.006 6.734-7.44.014zm16.56.186 7.18-.013-.005 6.518-7.18.013zm15.556.104 4.78.142s2.65 3.11 3.77 4.545l-3.536 1.68-5.02.018zm-44.286.538c-1.345.002-2.437 1.006-2.438 2.247-.001 1.241 1.089 2.246 2.434 2.244 1.344-.003 2.437-1.012 2.438-2.252 0-1.241-1.09-2.242-2.434-2.24zm15.899.192c-1.345.003-2.437 1.007-2.438 2.248-.002 1.24 1.088 2.246 2.433 2.243 1.346-.002 2.437-1.011 2.438-2.252.002-1.24-1.088-2.241-2.433-2.239zm16.26.029c-1.346.002-2.437 1.007-2.439 2.248 0 1.24 1.09 2.246 2.434 2.243 1.345-.002 2.437-1.011 2.438-2.252.001-1.241-1.088-2.241-2.434-2.239zm-38.809.526c.48.315.796.827.796 1.412-.001.963-.849 1.746-1.892 1.747-.367.001-.71-.095-1-.262zm6.65.012c.89-.002 1.612.66 1.612 1.481-.001.821-.726 1.49-1.616 1.492-.89.002-1.613-.665-1.612-1.486 0-.821.725-1.486 1.615-1.487zm48.344-.027c-1.345.002-2.436 1.006-2.438 2.247 0 1.241 1.09 2.246 2.434 2.244 1.345-.003 2.437-1.012 2.438-2.253.001-1.24-1.088-2.24-2.434-2.238zm-40.455.14c1.08-.003 1.955.804 1.954 1.8 0 .997-.877 1.807-1.957 1.81-1.08.001-1.95-.806-1.95-1.802.001-.997.873-1.807 1.953-1.809zm32.218-.13c1.08-.002 1.955.805 1.954 1.801 0 .997-.877 1.807-1.957 1.809-1.08.002-1.95-.805-1.95-1.802.002-.996.873-1.806 1.953-1.808zm-86.518.351-.002 1.81-8.916 5.76.001-1.78zm62.309-.142c.89-.002 1.613.66 1.612 1.482 0 .82-.724 1.49-1.615 1.492-.89.001-1.613-.665-1.612-1.486 0-.822.725-1.486 1.615-1.488zm16.26.029c.89-.002 1.613.66 1.612 1.481 0 .822-.725 1.49-1.615 1.492-.89.002-1.613-.665-1.612-1.486 0-.821.724-1.486 1.615-1.487zm-8.153.201c1.08-.002 1.956.805 1.955 1.802-.001.996-.878 1.806-1.958 1.808-1.08.002-1.955-.805-1.954-1.801 0-.997.877-1.807 1.957-1.809zm24.339.31c.89-.002 1.613.66 1.612 1.48 0 .822-.725 1.491-1.615 1.493-.89.001-1.613-.665-1.612-1.486 0-.822.724-1.486 1.615-1.488zm-69.31 1.686c4.15-.053 8.64 1.884 11.169 5.106 3.828 4.723 6.384 10.749 7.54 18.662.572 3.92 2.542 15.687 3.664 18.467l-1.547-.27c-.209.091-2.188-7.4-3.43-17.299-.46-3.666-1.301-8.397-3.604-12.712-2.63-4.928-7.097-10.147-13.063-10.551-3.48-.236-6.749 1.782-7.103 4.617-.503 2.24.918 4.323 2.784 5.018 1.832.683 4.023.167 4.27-2.138.044-.379.002-.76-.151-1.112.848-.128 1.494.223 1.837.883.18.02.005 3.343-2.827 4.001-3.418 1.039-7.357-2.075-7.66-5.254-.232-2.679 1.98-5.992 4.765-6.894 1.058-.343 2.194-.51 3.356-.524zm-25.448 1.078-.002 1.847-8.916 5.69.002-1.86zm25.64 1.127c4.985-.14 9.834 4.978 11.885 8.352 2.142 3.522 3.834 9.117 4.414 14.384.987 8.959 2.84 16.283 3.233 16.615l-1.359-.27c-.284.176-2.15-7.91-3.283-16.913-.635-5.049-2.66-10.052-5.073-13.906-2.226-3.557-5.23-6.212-8.787-6.591-2.23-.203-4.525.396-4.977 2.563-.24 1.273.481 2.52 2.117 2.626.386.025.754.053.822.064.866.141-.495 1.44-1.39 1.327-3.195-.405-4.664-4.342-2.144-6.443 1.475-1.229 3.016-1.765 4.542-1.808zm10.672 1.295 55.974.42s.046.926-3.438.78c-2.962-.124-4.874.262-6.838.847l-43.98-.01zm-36.315.665-.001 1.715-8.917 5.77.002-1.894zm26.013.678c1.076-.015 2.172.238 2.997.678 6.93 3.693 9.57 12.887 10.477 18.675 1.237 8.574 2.668 16.538 3.068 16.734l-1.51-.313c-.203.007-1.85-7.425-2.871-15.754-.827-6.733-3.316-13.491-8.263-16.328-3.175-1.989-3.798-2.19-5.269-1.022-1.27 1.007-2.558-.503-1.495-1.736.734-.634 1.79-.918 2.866-.934zm-26.016 2.37-.001 1.41-8.917 5.742.002-1.668zm40.742-.036c.114-.098 4.809 7.26 6.284 18.867.776 6.112 3.005 16.531 3.364 16.615l-1.628-.157c-1.66-6.145-2.577-11.961-3.462-17.204-1.001-5.931-1.805-11.2-5.804-18.071l1.24-.04c0-.006.004-.008.006-.01zm1.067.06 1.455.016c2.486 4.37 5.127 11.158 6.035 17.967.784 5.88 1.578 11.863 3.854 18.089l-1.563-.393c-1.954-5.054-2.643-11.164-3.69-17.496-1.16-6.999-2.981-13.092-6.091-18.184zm8.983-.008c2.54 6.082 4.195 8.982 5.351 16.47.898 5.812 2.167 13.081 5.062 20.777l-1.474-.055c-2.146-5.313-3.786-12.43-4.534-19.268-1.016-9.288-5.527-17.952-5.57-17.898zm-2.508.029c.138-.19 4.848 8.513 5.932 18.085.722 6.369 2.33 12.67 4.543 18.752l-1.506-.028c-1.739-1.853-3.033-10.648-4.461-18.858-1.458-8.38-3.517-13.532-5.805-17.935l1.292-.002c0-.008.003-.011.005-.014zm-3.804.016 1.338.002c3.493 7.052 4.942 11.248 6.014 18.071 1.355 8.629 2.657 16.412 4.103 18.437l-1.634-.095c-2.248-6.217-3.258-12.43-4.052-18.65-.86-6.735-2.953-12.502-5.77-17.765zm7.384.043 1.588.02c2.733 5.113 5.004 11.334 5.8 18.45.436 3.857 1.2 9.779 4.332 18.91l-1.271-.071c-2.567-6.124-4.106-13.335-5.022-19.623-.924-6.344-2.56-11.576-5.427-17.686zm9.784.025c1.498 3.546 2.731 7.069 3.54 10.695l-.9 1.618c-1.405-4.786-2.987-8.512-4.56-12.286zm-7.246.018 1.935.038c3.318 7.115 5.02 14.642 5.484 17.168 0 0 .458 2.234.487 2.968-.117 6.222 1.045 10.658 3.549 17.345l-1.15-.074c-2.905-7.77-3.685-13.293-4.425-18.568-.61-6.633-2.942-13.465-5.88-18.877zm4.468.048c1.977 4.56 3.484 8.959 4.854 13.36-.063 1-.169 2.095-.876 2.905-1.61-5.384-2.968-10.979-5.459-16.253zm3.657.031 1.532.02 3.046 8.068-1.196 1.222c-.895-2.67-1.81-5.607-3.382-9.31zm8.941.04 1.117 2.425-1.207.945s-1.227-2.27-1.549-3.339zm2.273-.004.56 1.399-1.011.713-.785-2.081zm-8.773.044 1.578.007c.635 1.694 2.328 5.844 2.328 5.844l-1.135 1.1s-2.132-5.246-2.771-6.95zm2.446-.004 1.399.011c.42 1.102 1.727 4.149 1.727 4.149l-.966.85zm7.318.043 1.383.059-.163.316-.864.397zm-45.39 1.878c5.793 2.81 7.383 11.252 8.007 15.895 1.09 8.101 2.314 14.692 2.575 14.868l-1.287-.186s-.947-4.161-1.6-8.121c-.545-3.295-.965-6.054-1.112-7.317-.092-.789-.234-1.708-.315-2.04-.806-3.327-1.066-4.089-2.108-6.113-1-1.943-1.354-2.43-3.02-4.16-.639-.665-1.261-1.15-1.479-1.576-.31-.61.338-1.25.338-1.25zm-29.344.488-.002 1.592-8.916 5.822.001-1.819zm-.003 2.794-.002 1.833-8.916 5.44.002-1.625zm-.003 3.124-.001 1.702-8.917 5.746.002-1.757zm14.88 1.693.786-.001.055 1.192-1.215-.068zm-14.883 1.498-.002 1.819-8.916 5.445.002-1.697zm13.961.667 1.885.015-.022 1.25-2.42-.072zm-1.094 2.005 3.094.046-.001 1.188-3.835-.05zm-12.87.283-.001 1.908-8.917 5.483.002-1.918zm11.29 1.963 4.53.039-.027.994-5.408-.023zm-11.293 1.128-.001 1.866-8.916 5.28.001-1.677zm9.401.869 6.22.069-.154.961-7.093-.015zm-9.403 2.048-.002 1.796-8.916 5.37.001-1.726Zm7.067-.013 8.186.16 1.725 1.443-12.741.094zm-2.479 2.653 14.074.135.98.837-15.1.08zm-4.591.418-.002 1.904-8.916 5.403.001-1.739zm4.604 1.665 15.596.038-1.13 1.156-14.487.064zm-4.607 1.45-.002 1.744-8.916 5.596.002-2.003zm4.217.902 13.482.018-1.584 1.148-9.315.215zm-4.22 2.162-.002 1.663-8.916 5.907.001-1.866zm8.16.197 7.916.018.147.98-6.807-.002zm2.19 2.017 6.076.046.285 1.267-5.408-.056zm-10.353.905-.001 1.546-8.917 5.756.002-1.71zm16.846 1.237.07 1.206-3.626.134-1.02-1.26zm-.033 2.14-.032 1.267-2.527.043-.566-1.22zm-2.249 2.261 1.992.01-.17.976-1.542.022zm.595 2.341.97-.002-.163.764-.496.001zm19.7 12.867-.465.552 13.931-.025.154-.552zm17.96-.033-.245.745 6.286-.011.174-.745zm10.27.128-.195.702 16.071-.03-.265-.7zm19.227-.036.326.853 5.408-.01-.357-.852zm18.656-.034-9.49.022.341.952 9.816-.018z"/></g><path fill="red" d="M58.608 804.63a46.124 46.124 0 0 0-6.765-10.512c-1.75-2.043-3.673-3.924-5.62-5.77-1.523-1.443-3.072-2.877-4.317-4.573-.841-1.145-1.543-2.42-1.877-3.809-.606-2.516.053-5.213 1.296-7.473.728-1.324 1.66-2.541 2.807-3.509 1.705-1.438 3.93-2.297 6.136-2.11 2.023.172 3.914 1.206 5.39 2.624a12.346 12.346 0 0 1 2.972 4.537 12.346 12.346 0 0 1 2.97-4.537c1.477-1.418 3.369-2.452 5.392-2.624 2.206-.187 4.43.672 6.135 2.11 1.148.968 2.08 2.185 2.807 3.509 1.244 2.26 1.903 4.957 1.297 7.473-.335 1.39-1.037 2.664-1.878 3.81-1.245 1.695-2.794 3.13-4.316 4.572-1.948 1.846-3.871 3.727-5.62 5.77a46.124 46.124 0 0 0-6.766 10.513M175.349 967.094a46.124 46.124 0 0 1-6.765 10.513c-1.75 2.042-3.673 3.923-5.621 5.77-1.522 1.442-3.07 2.877-4.316 4.572-.841 1.146-1.543 2.42-1.878 3.81-.606 2.515.053 5.212 1.297 7.473.728 1.323 1.66 2.54 2.807 3.508 1.705 1.438 3.93 2.298 6.135 2.11 2.023-.172 3.915-1.205 5.391-2.624a12.345 12.345 0 0 0 2.971-4.537 12.345 12.345 0 0 0 2.971 4.537c1.477 1.419 3.368 2.452 5.391 2.624 2.206.188 4.43-.672 6.136-2.11 1.147-.967 2.079-2.185 2.807-3.508 1.243-2.26 1.902-4.958 1.296-7.474-.334-1.389-1.036-2.663-1.877-3.809-1.245-1.695-2.794-3.13-4.316-4.572-1.948-1.847-3.872-3.728-5.621-5.77a46.124 46.124 0 0 1-6.765-10.513M216.784 991.022a23.063 23.063 0 0 1-3.383 5.257c-.875 1.021-1.836 1.961-2.81 2.885-.761.721-1.536 1.438-2.158 2.286-.42.573-.772 1.21-.94 1.904-.302 1.258.028 2.607.65 3.737.363.662.829 1.27 1.403 1.755.852.718 1.964 1.148 3.067 1.054 1.012-.086 1.958-.602 2.696-1.312a6.172 6.172 0 0 0 1.485-2.268c.324.858.833 1.64 1.486 2.268.738.71 1.684 1.226 2.695 1.312 1.103.094 2.216-.336 3.068-1.054.574-.484 1.04-1.093 1.404-1.755.621-1.13.95-2.479.648-3.737-.167-.694-.518-1.331-.939-1.904-.622-.848-1.397-1.565-2.158-2.286-.974-.924-1.936-1.864-2.81-2.885a23.062 23.062 0 0 1-3.383-5.257M17.195 780.702a23.062 23.062 0 0 0-3.383-5.256c-.874-1.022-1.836-1.962-2.81-2.885-.761-.722-1.536-1.439-2.158-2.287-.42-.572-.772-1.21-.939-1.904-.303-1.258.027-2.607.648-3.737.364-.662.83-1.27 1.404-1.754.852-.72 1.965-1.149 3.068-1.055 1.011.086 1.957.602 2.695 1.312a6.173 6.173 0 0 1 1.486 2.268 6.173 6.173 0 0 1 1.485-2.268c.738-.71 1.684-1.226 2.696-1.312 1.103-.094 2.215.336 3.067 1.055.574.484 1.04 1.092 1.404 1.754.622 1.13.951 2.479.648 3.737-.167.694-.518 1.332-.939 1.904-.622.848-1.397 1.565-2.158 2.287-.974.923-1.935 1.863-2.81 2.885a23.063 23.063 0 0 0-3.383 5.256"/></g></svg>