<svg xmlns="http://www.w3.org/2000/svg" width="234" height="333"><g transform="translate(0 -719.362)"><rect width="233.244" height="332.244" x=".378" y="719.74" fill="#fff" stroke="gray" stroke-width=".756" rx="8.919" ry="8.946"/><g aria-label="J" font-family="Levenim MT" font-size="3.772" font-weight="700" letter-spacing="0" style="line-height:0%;-inkscape-font-specification:&quot;Sans Bold&quot;" word-spacing="0"><path d="M23.441 846.622q0 3.884-.405 5.634-.705 3.051-2.988 4.524-1.814 1.195-4.353 1.195-5.185 0-8.834-4.546l4.31-4.033q2.411 2.732 4.375 2.732 1.344 0 1.728-1.665.17-.725.17-2.71v-21.958h5.997z" font-size="43.703" style="line-height:1.25" transform="scale(1.13562 .88058)"/></g><g aria-label="J" font-family="Levenim MT" font-size="3.772" font-weight="700" letter-spacing="0" style="line-height:0%;-inkscape-font-specification:&quot;Sans Bold&quot;" word-spacing="0"><path d="M-182.614-1165.378q0 3.883-.406 5.633-.704 3.052-2.987 4.524-1.814 1.195-4.353 1.195-5.186 0-8.835-4.545l4.31-4.033q2.412 2.731 4.375 2.731 1.345 0 1.729-1.664.17-.726.17-2.71v-21.958h5.997z" font-size="43.703" style="line-height:1.25" transform="scale(-1.13562 -.88058)"/></g><path d="M12.899 780.702c0-.556-.031-.958-.031-1.514h3.545v-2.737c-2.244.072-4.673.24-6.774-.687-1.627-.893-2.076-2.97-1.748-4.68.281-1.927 1.353-3.638 2.75-4.957 1.82-1.946 4.14-3.26 6.562-4.316 2.472 1.075 4.843 2.431 6.685 4.428 1.66 1.56 2.765 3.764 2.731 6.071.036 1.665-.995 3.425-2.697 3.789-1.904.527-3.83.434-5.785.352v2.737h3.353c0 .556.03.958.03 1.514a669.463 669.463 0 0 0-8.621 0zM212.488 991.022c0 .556-.031.958-.031 1.514h3.545v2.737c-2.244-.072-4.673-.239-6.774.687-1.627.893-2.076 2.971-1.748 4.68.28 1.927 1.352 3.639 2.75 4.957 1.82 1.946 4.14 3.26 6.562 4.316 2.472-1.075 4.843-2.431 6.685-4.428 1.66-1.56 2.765-3.763 2.731-6.07.036-1.666-.996-3.426-2.697-3.79-1.904-.527-3.83-.433-5.785-.352v-2.737h3.353c0-.556.03-.958.03-1.514-2.632.019-5.778.019-8.621 0zM50.016 804.63c0-1.111-.061-1.915-.061-3.027h7.089v-5.474c-4.488.145-9.345.478-13.548-1.374-3.253-1.786-4.15-5.942-3.495-9.359.562-3.855 2.705-7.278 5.5-9.915 3.639-3.892 8.279-6.519 13.123-8.632 4.945 2.15 9.687 4.862 13.371 8.856 3.319 3.119 5.53 7.527 5.462 12.141.072 3.331-1.991 6.851-5.395 7.578-3.807 1.055-7.66.868-11.57.705v5.474h6.706c0 1.112.062 1.916.062 3.028-5.265-.037-11.558-.037-17.244 0zM166.757 967.094c0 1.112-.062 1.915-.062 3.027h7.09v5.474c-4.488-.144-9.345-.478-13.548 1.374-3.253 1.786-4.151 5.942-3.495 9.36.561 3.854 2.704 7.278 5.5 9.914 3.638 3.892 8.278 6.519 13.123 8.633 4.944-2.15 9.686-4.863 13.37-8.857 3.32-3.119 5.53-7.526 5.463-12.141.072-3.331-1.992-6.851-5.395-7.578-3.808-1.054-7.661-.867-11.57-.705v-5.474h6.706c0-1.112.061-1.915.061-3.027-5.264.037-11.557.037-17.243 0z"/><g stroke-width="3.181"><path fill="#131f67" d="m30.427 757.403-.041 256.574 173.125.344.103-256.734zm54.987 1.5 78.44.265s-8.987 10.67-10.845 15.525c-1.444 1.7-2.098 1.392-4.48.949-6.375-1.53-17.12-1.501-22.455-1.59-10.075-.413-19.125 2.453-29.214 2.92-3.486-5.348-8.54-12.063-11.446-18.068zm-52.817.468 50.446.137 11.827 19.805c.429.551.02 1.687-.236 2.327-1.46 3.771-2.75 5.957-5.703 10.452-2.797 4.258-3.8 8.157-2.808 10.778.15.322.278.81.226 1.222-.163 1.307-1.36 2.82-2.987 3.856-1.106.163-3.405.293-4.736 1.5-1.141 1.035-2.076 2.55-1.929 5.319.069.99.206 1.618.206 1.618-15.041 5.743-25.822 12.471-25.465 12.718-.141-.06-13.221-5.584-18.666-6.951zm134.054.35 34.582.027.206 90.557-13.272-7.895c1.088-.696 1.76-1.108 2.905-1.821.204-.057.588-.062.838-.114 2.312-.473 3.924-2.06 3.122-3.704-.545-1.116.199-1.048.869-1.958.754-1.025.597-1.937.118-2.799-.238-.427-.107-.597.293-1.387 1.059-1.205.293-3.244-1.075-3.903-.143-.194.15-.494.216-.774.386-1.632-.322-3.066-1.861-3.43-.792-.188-1.056-.314-.777-.963.496-1.151-.157-1.58-1.188-1.953-1.733-.63-1.242-.73.9-1.614 4.386-1.81 5.419-7.19 2.402-12.071-.384-.621-1.409-2.078-2.103-3.054-.812-1.14-1.6-2.123-1.6-2.123l5.806-7.428s-4.042-4.394-5.482-6.823c.34-1.2 4.386-4.966 4.911-8.622.823-5.732-3.92-9.401-8.408-8.97-3.112.298-6.941 2.125-6.654 7.432.09 1.648.791 3.35 2.062 5.412.889 1.543 2.04 3.176 3.142 4.743l-5.841 7.328 5.903 6.862s-.078.11-.206.297c-.587.857-2.294 3.381-3.034 4.86-2.177 3.95-2.948 8.288 1.523 11.345.781.44 1.384.815 1.717 1.118.439.4.165.703-.54.854-.83.161-1.676.15-2.55.468-2.804.938-5.613 2.453-7.611 3.935-1.122.832-2.93 3.467-4.032 5.606-1.197 2.326-1.532 2.841-1.532 2.841l-20.533-12.061s-.522-.378-.663-.524c-.383-.393-.245-.621.02-1.057.225-.37.233-1.455.134-2.28-.028-1.58-.015-1.587.977-3.039.35-.511.494-1.022.293-1.812-.322-.886-.352-.604.262-1.212.24-.271.53-.405.576-.699.063-.393.023-1.079.031-2.36.015-2.566-.023-2.354 1.548-3.482 1.95-1.4 2.678-2.061 2.987-2.694.445-.908 0-1.594-1.095-3.407-.5-.829-1.275-1.947-1.65-2.572-.701-1.123-1.714-2.602-2.196-4.016-.73-1.086-.62-2.967.056-4.073.849-1.387 1.085-2.225 1.054-5.03-.027-2.6-.233-2.357.489-3.228 5.395-6.552 13.961-18.734 13.961-18.734zm21.978 9.583c.116 0 .234.005.35.01 1.699.074 3.386.575 4.952 1.968 2.13 1.96 1.986 4.785 1.286 7.724-.323.854-.563 1.722-1.219 2.615-.365.496-.663.957-.663 1.019 0 .062-.526.837-1.168 1.727-.627.87-1.347 2.081-1.347 2.081s1.004 1.652 2.782 3.719c1.342 1.83 2.212 3.425 2.314 3.331 0 0-.34.792-.807 1.355-1.411 1.7-4.01 5.249-4.114 5.62-.025.09-.293.18-.288.269.019.33.534.72 1.311 1.699 4.69 5.908 5.353 10.897 1.83 13.826-1.752 1.458-3.481 1.915-5.337 1.732-3.4-.335-6.537-2.997-6.17-6.88.165-1.784.064-2.316 1.208-4.389.516-1.167 1.686-3.167 2.463-4.176.68-.724 1.404-1.755 1.404-1.755s-1.668-2.359-4.736-5.673c-.553-.606-.895-1.425-.895-1.425l5.255-7.144s-.61-1.386-1.635-2.79c-2.101-2.875-3.457-5.934-3.444-7.655.032-4.289 3.088-6.801 6.668-6.808zm13.088 102.066c-3.104 1.515-6.125 6.688-.22 3.08l.148 2.975c-3.072 4-9.077 1.067-7.55-3.075-4.146.494-4.792-3.369-4.582-5.206-5.453-1.09-3.57-6.39-3.57-6.39-3.15-2.418-3.703-4.95-1.15-7.618-2.581-1.473-3.309-2.416-6.145-3.486 2.175 17.747 12.613 26.965 23.598 35.18 0 0 .243 5.715-1.013 4.662-15.686-10.756-25.77-23.055-27.505-42.949-.133.313-7.437-5.189-8.645-4.896-2.532 32.214 25.416 53.39 37.039 57.564 0 0 .164 4.488-.035 4.504-17.615-7.051-37.2-27.745-40.974-52.366l-10.392 14.77-3.893-1.529 16.805-24.298-11.365-6.536-18.501 26.903s-.491 2.243.848 2.209c25.971 2.55 64.596 31.183 51.654 77.787-1.122-.408-2.91-1.205-2.998-1.17 2.03-4.017 7.693-30.034-9.343-51.05-7.805-9.629-19.91-19.876-39.334-22.901 1.606 3.04.905 9.933.905 9.933l4.526.84c-1.527-1.481-2.804-2.701-3.41-4.308-.847-2.503.395-3.986 3.415-2.497 1.199.618 1.5.594 2.669-.203 2.431-1.658 5.206.05 4.566 2.808-.095.408.023.665 1.178.76 2.615.239 5.25 1.428 6.957 3.294.836.983 1.026.838 1.769.245 1.825-1.454 4.85.561 4.31 2.813-.31 1.287-.14 1.595.508 1.845 3.567 1.376 4.443 2.244 5.554 5.11.407 1.05.74 1.396.951 1.336a30.05 30.05 0 0 0 1.25-.401c2.663-.926 4.222 2.03 2.334 4.346-.386.475-.1.93.587 1.274 2.216 1.11 3.723 3.76 3.985 6.54.1 1.058.22 1.06 1.373 1.015 2.949-.113 4.353 3.54 1.954 4.884-.835.468-.68 1.073-.03 1.78 1.718 1.87 2.12 3.223 1.969 5.355-.202 2.84-.005 2.784.982 3.129 2.865 1.001 2.33 5.203-.479 5.189 2.024 4.326-.64 9.602-.554 9.699 5.399 2.788.524 5.75-1.045 5.229 0 0-.8 1.943.108 2.944-4.735 5.75-10.936 6.705-17.802 9.56l-.216-20.243c2.856 2.11 5.686 4.078 8.515 6.04 0 0 .718-.198.065-.751-1.259-1.068-4.424-2.946-5.31-3.694-1.911-1.331-8.915-7.477-10.16-8.933-.559-.97-1.401-.409-1.379-.35.838 1.327 1.462 2.875 2.547 4.255 2.343 2.98 4.616 6.292 4.38 9.567-.006 1.835-.8 3.728-1.245 4.648-.33 1.258-2.514-.214-1.964-1.274.971-2.903 1.776-5.282-1.697-9.947-1.694-2.275-3.888-6.404-3.888-6.404l-1.403.312.05 26.412c-1.177.044-4.162.754-3.547.773 9.305-1.706 12.152 10.513 3.167 10.91-1.706.056-3.47 2.752-3.65 4.215.076 3.547.643 7.29-2.186 10.697-.744.896-1.086 2.318-1.774 3.436-3.454 5.613-4.996 8.83-4.644 10.278.09.372.175.863.175.863-11 2.523-19.251 3.17-30.334 3.407-.109-.159 3.72-10.042 6.515-15.11 2.066-3.745 3.13-6.305 2.55-7.078-8.788.404-7.103-11.42 1.307-11.005 0 0 2.11-6.812 4.468-9.886 2.236-1.142 6.735.414 9.257-1.118 5.941-1.672 9.832 4.775 9.832 4.775l1.599-6.134-52.544-.232s-5.414 1.862-8.181.812c-1.769-.67-3.799-2.572-3.8-2.572 0 0 20.077-29.593 23.027-33.863.24-.347-.523-1.093-.525-1.1-.11-.969-23.373 32.307-23.279 33.774 0 0-.619.807-1.738.095-13.157-8.332-44.6-26.242-44.6-26.242l-.04-13.27c10.936-6.325 9.945-8.909-.175-2.015-.141.11-.216-4.983-.216-4.983 7.714-6.326 1.299-4.345-.224-2.153.036-1.577-.362-3.718.738-4.662 3.37-2.851 7.344-.233 7.544 3.983 4.397.79 3.852 4.337 4.985 5.762 4.484 2.323 2.123 5.847 3.235 7.045 4.723 2.733 1.429 7.127.43 7.027.595.368 6.464 3.978 6.967 3.846-.51-18.93-23.223-37.001-23.855-36.053l.483-4.082s28.388 16.663 28.139 43.4l9.05 4.936c-.804-27.432-14.153-45.947-36.978-57.726l-.483-5.168c19.16 8.184 36.929 24.747 41.066 51.895l10.609-15.11 3.738 1.66-17.033 25.08 10.636 6.42c8.25-9.968 15.131-22.192 19.325-28.007-.11-.532-.34-1.293-.34-1.293-40.557-6.14-63.402-41.016-52.513-77.457l2.818 1.137c-8.456 26.99 5.335 65.837 49.443 73.78-.087-2.87-.637-9.928-.637-9.928s-5.796-1.599-4.943-.958c1.42 1.114 4.61 5.915 3.261 7.621-.969.125-2.591-.373-4.366-1.566-.669-.45-.688-.355-1.44.382-2.084 2.042-5.114.872-5.142-1.935-.012-1.185-.06-1.436-1.892-1.449-2.779-.018-4.027-.455-5.693-2.5-1.181-1.451-1.073-1.458-2.463-1.02-2.664 1.163-4.79-1.28-3.954-3.294.412-.943-.027-1.245-1.24-1.43-2.359-.358-5.027-3.075-5.517-5.294-.1-.454-.347-.568-1.738-.524-2.728.087-4.239-1.432-3.163-3.558.582-1.15.746-1.614-.344-2.393-1.337-.954-2.091-1.617-2.685-2.774-.47-.918-.54-1.505-.863-3.46-.113-.679-.36-.79-1.327-.905-2.821-.338-3.934-2.987-1.862-4.705.633-.525.63-.512-.329-1.652-1.845-2.193-2.537-5.055-1.733-6.96.218-.516.005-1.148-.653-1.298-2.572-.588-2.617-3.206-.154-4.676.715-.427.751-.71.21-1.572-.946-1.509-.899-5.46.016-7.352.592-1.223.588-1.25-.329-1.788-1.955-1.147-1.396-4.3.915-4.818 1.123-.253 1.198-.387.895-1.638-.539-2.23-.631-2.81.802-3.69 3.944-2.35 14.044-6.843 14.044-6.843l3.337-1.458s.334 18.707.119 20.92c-.13.952.802 1.528 1.887 2.52 2.242 2.022 3.471 4.469 6.464 6.167 0 0 1.865-.952 3.018-1.633l.113-26.657c.236-.605.402-.672 1.168-.755.637-.113 2.236-.276 2.771-.42 1.289-.346 1.492-.824-.2-.666-.51.048-1.275.247-2.13.406-5.288 1.457-9.2-6.101-5.172-9.91.773-.635 3.66-1.74 4.972-1.816.38.003 1.508-1.273 2.278-2.45.775-1.182 1.096-2.061.653-3.246-.932-2.494-.043-6.323 2.747-10.504 3.02-3.947 5.353-8.35 6.576-13.039 10.703-1.184 19.782-3.626 29.455-3.086.378 3-10.576 20.69-8.289 21.726 8.619 1.894 5.676 11.273-.874 10.962-.982-.005-1.078.075-1.702 2.067-1.19 2.908-1.958 5.127-3.235 7.833-.004.696-.535.628-4.119.604-3.276-.445-5.536 1.194-7.919 1.289-3.038.127-5.63-1.21-6.685-3.426-.47-.988-.906-.338-.92 2.005-.011 1.865-.093 2.954-.093 2.954s12.558.034 26.869.057c28.927.046 26.045.453 28.339-.6 1.34-.614 2.223-1.28 4.54.11 3.713 2.225 3.591 1.921 2.51 3.354-7.271 9.895-23.341 33.703-23.341 33.703l1.126 1.01s16.23-23.535 23.624-34.562c.335-.358 1.882.095 1.882.095l44.275 26.426c-.373 3.993.062 12.943.062 12.943-12.445 6.065-8.643 9.155-.075 1.81zm-75.134-95.086s12.843.095 19.283 1.043c5.64.83 5.35.677 5.328 4.435-.016 2.67-.02 2.609-.767 3.889-1.375 2.36-1.14 4.685 1.034 7.942 2.111 3.161 3.657 5.496 3.656 5.946-.001.697-.13 1.55-1.959 2.722-2.158 1.384-2.57 2.351-2.54 3.757.024 1.137-.21 1.509-.952 1.505-.297-.001-1.346.446-2.473.934-1.983.859-1.986.859-3.836.845-.928-.007-1.377-.328-1.635-.236-.498.213-.951 1.744-.936 2.19.052.158.318.063.864-.109 3.067-.963 7.631-.53 7.76-.108.618.514.619 1.309-.314 2.133-.606.873-.88 1.324-.628 2.675.344 1.836.087 2.565-.936 3.2-3.12 1.936-7.285 2.18-13.946 1.005-7.019-1.238-11.82-3.695-15.812-8.093-1.784-1.965-2.224-2.653-1.342-2.79 1.088-.154 2.293-.36 3.41-.801 4.932-1.949 4.845-10.24-1.8-11.104-2.712-.088 5.597-11.818 8.54-20.98zm6.336 5.71c-2.386 1.227-3.632 2.722-3.637 3.534-.002.333.08.272 1.22-.415 3.307-1.996 12.018-4.878 15.128-3.214 2.242 1.235 3.112.833 1.813-.828-3.046-3.898-11.264-.706-14.524.924zm8.52 1.307c-.353.002-.72.04-1.085.108-2.3.471-4.83 2.21-6.927 3.742-1.034.756-2.497 2.252-2.725 2.643-.518.886.625 1.862 2.18 1.08.905-.454.985-.351 1.856-.24 2.008.555 4.297 1.415 7.837 1.142.33.07.305.14.19.425-.21.52-1.464 1.512-3.1 2.623-.844.573-1.583 1.043-1.64 1.128-.261.382.866.412 2.102-.231 1.754-.913 3.774-2.932 5.009-4.554.118-.154.28-.282.334-.448.121-.376-.617-.22-1.013-.321-.17-.043-.135-.437-.18-.618-.117-.476.086-1.263.18-1.94.076-.547.716-.981 1.137-1.382 1.849-1.765 1.704-2.565-.782-1.208-.419.228-.75.366-1.157.396-3.67.106-5.79-.024-8.85 2.34-1.36 1.007-2.178 1.105-.967.034 1.847-1.373 4.162-3.325 6.721-3.842 1.545-.353 3.016.733 3.693.453.004-.776-1.286-1.342-2.813-1.33zm-.532 4.878c.42.254.833 1.572.794 2.016-.045.516-1.013.302-1.147.057l-.524-1.463c-.229-.494.466-.774.877-.61zm-1.87.298c.45.407.553 1.288.808 2.015-.163.525-3.775-.184-4.228-.77.541-.646 2.403-1.42 3.42-1.245zm6.336 9.448c-.272-.017-.632.104-.957.41-1.626 1.528-1.102 4.131.854 4.974.953.41 2.396.109 4.52-.49 1.012-.286 1.744-.417 1.933-.416.83.004 1.282-1.177.7-1.718-.673-.625-2.269-.533-3.986.685-.868.615-1.489.914-2.19.906-1.717-.02-2.552-1.643-.797-3.346.584-.567.375-.978-.077-1.005zm-12.035 11.2c2.025 1.5 5.87.714 8.456-.856 2.31-1.403 3.268-1.818 5.121-1.525 2.272.36 2.187-.46 1.204-1.49-1.116-1.17-3.871-.809-6.176.594-5.111 3.11-6.96 3.63-8.443 1.947-1.593-1.807.303-4.126 2.18-2.86 1.538.96 1.515.237.88-.422-3.708-2.867-6.383 2.272-3.222 4.612zm-17.966 1.475c2.58 3.001 5.049 5.48 8.758 7.31l.04.566-11.99-.024c.836-1.342 3.217-7.763 3.192-7.852zm-40.603 7.819c-.254 4.524.63 7.181 3.517 10.344 3.069 3.362 2.84 8.602.867 11.839-.873 1.433-2.65-.33-1.813-1.245 1.191-1.375 1.262-4.731.7-6.828-1.264-3.467-4.13-5.165-5.292-8.83-.39-1.563-.267-4.374-.267-4.374zm3.754.382c.21-.03.544.17 1.039.562 1.696 1.347 1.407 5.203-.535 7.678-.595.75-1.088.536-1.656-.16-.767-.697-.502-.766.144-1.988.673-1.273.889-2.708.75-4.383-.092-1.129-.049-1.664.258-1.709zm109.998 1.322c1.497-.021 3.368.27 3.538.769.162.606-.193 1.092-1.028 1.415-2.19.85-5.086-.338-4.356-1.788.183-.26.948-.384 1.846-.396zm-3.795.33c.43-.009.765.088 1.029.198.718.34-.41 2.66 3.162 2.614.854.116 1.485-.064 1.368.288-.177.535-1.71 1.337-3.373 1.562-4.978.676-4.761.448-4.536 3.676.148 2.108-.002 2.818-.313 4.096-.54 2.216-.754 4.357-.391 3.653.485-.942 1.725-3.916 1.717-5.606-.01-2.494.96-2.987 1.348-1.18.166 1.196-.418 1.871.457 3.09.497.686.723.675.391 1.737-.293.938-.09 1.214.268 1.69.359.48.72.59.416 1.26-.656 1.446.373 2.814 1.867 2.93.69.054.881.33.673.571-.365.417-1.092.615-1.697.736l-15.812-9.272s1.173-2.16 1.522-2.737c2.272-4.571 4.073-6.654 10.717-9.047.459-.18.853-.252 1.187-.26zm8.403 3.001c.436-.015.759.195 1.126.628.97 1.145.124 2.576-2.263 3.808-2.04 1.065-2.633 1.192-3.075-.481a2.228 2.228 0 0 0-.55-.821c-.472-.397-.365-.727.237-1.02.287-.14 1.204-.485 1.938-.93 1.275-.772 2.026-1.164 2.587-1.184zm-6.731 3.322c.499.007 1.014.118 1.393.345.633.377.639 1.326 0 1.703-1.27.476-3.275-.161-3.106-1.231.086-.544.88-.829 1.713-.817zm8.135 1.17c.45-.01.788.183 1.07.581.744 1.055-.13 2.115-2.639 3.242-1.65.742-3.759 1.064-3.62.628.112-.351-.477-2.083-.74-2.36-.101-.293.03-.03 2.113-.632.755-.219 1.666-.579 2.088-.821.716-.412 1.277-.626 1.728-.637zm-118.628 2.738c-1.16 2.559-1.343 3.689-.791 6.38.459 2.24.992 3.363 3.496 6.672 1.907 2.519 2.517 3.499 2.057 4.294-.324.429-1.052.829-1.504.417-.931-1.117-1.49-2.475-2.399-3.72-3.5-4.711-3.743-5.91-4.19-9.631-.205-1.7.86-5.32 1.77-5.861 1.02-.367 1.876.86 1.561 1.449zm80.878-1.18a.467.467 0 0 0-.257.132c-.475.437-1.837 2.472-1.79 2.78.104.674.706.233 2.284-1.893.379-.51.121-1.06-.237-1.02zm30.129 1.156c1.4.039 1.897 1.192 1.27 1.793-.915.878-2.56.215-2.56-1.014 0-.522.264-.79 1.29-.779zm7.77 1.642c.803.032.91.764.483 1.826-.533.987-1.175 1.153-3.1 1.704-2.307.66-2.683.563-3.03-1.383-.132-.747-.067-.581 2.058-1.1.911-.221 1.977-.618 2.545-.834.429-.16.776-.223 1.044-.213zm-136.184.872.566 3.931.92-2.944zm128.692 1.322c1.134.005 1.743.937 1.167 1.496-.321.312-1.138.319-1.533.137-.9-.604-.738-1.637.366-1.633zm-34.66 2.053 2.212 1.25-17.962 26.026-2.165-.043-.206-.415zm40.758.25c1.326-.017 1.441 1.13-.164 2.185-.658.387-1.397.482-1.97.505-.798.033-1.337-.158-1.398-.665-.347-1.243-.545-1.551.689-1.477.246.014.917-.021 1.455-.232.55-.215 1.017-.31 1.388-.316zm-5.492 1.138c.917.004 1.5.917.885 1.363-.76.552-1.707.212-1.702-.623.003-.533.161-.744.817-.74zm-129.246 1.84-4.886 3.972c1.791 1.945 3.294 3.887 4.845 5.927zm98.814.255c2.121-.078 2.816.863 1.81 1.496-1.366.838-2.537.798-4.088.604-2.051-.35-.418-1.858 1.831-2.072.154-.015.306-.023.447-.028zm-2.252 2.831c.428-.01 1.06.1 1.877.354 1.387.431 3.115 1.766 3.034 2.506-.132 1.198-2.588.58-4.566-1.137-1.24-1.076-1.287-1.7-.345-1.723zm-1.877.019c1.203.104 2.403 3.84 1.47 4.988-.913 1.126-2.524-1.297-2.231-3.2.116-.753.323-1.747.643-1.783a.602.602 0 0 1 .118-.005zm-78.543.821c.677.149 1.545 1.009 1.357 1.661-.136.262-.421.186-.73.118-.557-.216-.987-.928-.88-1.52.053-.16.128-.25.253-.259zm91.142.642 3.532 2.199-3.532.127Zm-14.64 4.45c2.71.013 3.283.818 1.26 1.798-.842.407-2.89.484-3.95.146-1.682-.536.336-1.956 2.69-1.944zm21.926 1.675.185 2.256-6.803.547-.35-2.35zm-23.52 1.123c.47-.027 1.222.173 2.206.637 1.85.874 2.904 2.34 1.948 2.803-.865.42-2.407-.078-3.496-1.128-1.442-1.389-1.558-2.26-.658-2.312zm-2.315.005c1.236.068 2.306 3.177 1.492 4.714-.446.841-1.01.657-1.82-.727-.784-1.338-.827-3.7.077-3.959a.768.768 0 0 1 .251-.028zm-88.486.878-2.974 5.488 5.388 4.316zm115.16 4.228.478 2.17-6.531 1.478-.638-2.365zm-28.52.425c.797.012 1.545.186 1.975.533.596.48.466.696-.941 1.222-2.505.936-5.591.37-3.8-1.029.632-.494 1.742-.743 2.766-.726zm42.424-.128c-2.493 1.535-.092 2.379 1.69 1.219-.132-.395-1.166-1.212-1.69-1.219zm-44.254 3.077c1.784.053 5.284 2.3 4.535 3.374-.406.589-2.747.086-3.677-.732-1.222-1.074-1.868-2.511-1.193-2.623.102-.017.216-.023.335-.02zm-2.253.104c.921-.158 2.393 3.78 1.28 4.79-.415.377-.53.354-1.228-.213-1.394-1.133-1.155-3.221-.319-4.389a.424.424 0 0 1 .267-.188zm54.82 2.075c-.243-.417-.546-.61-.88-.84-8.67 3.058-6.448 5.97.88.84zm-20.546.27.864 2.199-6.577 2.393-.967-2.407zm-112.498 4.162-2.227 5.38c2.421.013 4.604 1.062 6.814 1.996zm114.683 1.58 1.394 2.162-6.186 3.072-1.235-2.279zM34.1 872.48l2.535 1.642-3.723 4.247-.34-.599.042-3.525zm147.095 1.336 1.496 1.982-5.955 3.798-1.46-2.156zm-140.709 2.548 2.736 1.935-4.325 4.79-2.617-1.836zm30.103 1.184-.128 5.762 6.438.227zm74.414 2.597 7.318 3.867-1.103-5.902c-1.912.342-4.364 1.485-6.215 2.035zm40.192-1.21 1.708 1.95-5.503 4.242-1.763-2.03zM46.07 880.644l2.55 2.175-4.494 4.455-2.36-2.043zm143.824 3.162 1.98 1.845-5.014 4.785-1.98-1.845zM51.865 886.15l1.975 2.114-5.132 3.742-1.903-2.123zm29.574.495 1.44 5.644c-.105-.41 6.389-1.683 7.235-1.255zm75.599.478 6.128 5.938.69-5.72zm37.901.933 2.216 1.59-4.113 5.38-2.51-1.807zm-138.656 3.587 1.825 2.42-5.379 2.94-1.527-2.137zm144.462.57.339.312-.005 3.842-1.707 2.302-2.33-1.26zm-34.672 4.315 5.421 9.046 1.53-6.746c-2.005-.027-5.179-1.206-6.951-2.3zM60.57 897.735l1.29 2.61-5.681 2.378-1.296-2.595zm3.07 6.229 1.039 2.619-6.042 1.84-.957-2.524zm-27.013 4.743 1.882 1.21c9.803-4.728 6.748-6.124-1.882-1.21zm55.404-3.006c.37-.036.797.434 1.141 1.472.52 1.569.245 3.514-.915 3.487-.781-.087-1.072-1.926-1.075-2.458-.009-1.574.373-2.456.849-2.501zm5.373.939 2.335.23-.01.605-18.595 27.091-2.252-1.312zm-10.012.627c.741.006 1.826.475 2.787 1.411.563.56 1.165 1.354 1.312 2.166-.017.268-.515.167-.998.104-1.234-.16-3.051-.945-3.63-1.911-.712-1.188-.31-1.777.53-1.77zm85.484.965 2.48 11.095c.768-2.777 2.39-4.378 3.59-6.56-3.16-1.335-4.457-2.917-6.07-4.535zm-106.834 2.244.58 2.87-6.263 1.33-.648-2.784zm23.36.996c.09-.002.178 0 .263.01 2.29.234 2.615.702 1.075 1.65-.933.576-3.46.657-3.877.043-.445-.654 1.21-1.691 2.54-1.703zm-45.447 1.685 1.944 1.042c3.33-2.208-.306-2.65-1.944-1.042zm42.152.967c.7.008 1.121 1.155 1.368 2.208.238 1.02.32 1.942-.108 2.454-.525.628-1.039.739-1.456.118-1.221-1.82-1.182-4.796.196-4.78zm-5.163 1.666c.327-.01.739.065 1.219.23 1.625.564 3.78 2.847 2.869 3.163-1.344.465-4.281-.888-4.834-2.256-.278-.69.027-1.114.746-1.137zm-13.4 1.84.148 2.836-6.587.246-.195-2.822zm16.136 2.388c.648-.017 1.297.061 1.82.269.943.374.256 1.051-1.363 1.567-1.069.34-2.592.427-3.126.037-1.25-.904.722-1.822 2.669-1.873zm-50.94.33c4.512 2.515 13.812 8.117 13.812 8.117-.441.08-.911.397-1.347.708-.336.253-.7.489-1.018.608-.5.188-.96.214-1.378.298-2.908.58-4.333 2.09-3.425 3.968.357.738.45.62-.17 1.241-1.734 1.519-1.522 1.973-.905 3.917.008.275-2.064 2.61-.231 4.37 1.014.81 1.062.303.694 2.147-.128 1.109.201 2.018 1.96 2.336.977.411.963.268.616 1.029-.237 1.09.103 1.542.936 1.939.757.435 1.065.553.53.934-5.855 2.751-7.656 7.538-2.134 14.591.65.832 2.29 3.178 2.29 3.178-1.862 2.536-3.64 4.624-5.538 6.889l5.526 7.093c-.895 1.287-2.987 3.904-4.273 6.487-1.932 3.879-.657 9.317 4.9 10.943 2.383.698 5.53.132 7.512-1.982 1.609-1.715 2.486-5.121 1.017-8.668-1.856-3.975-4.083-5.925-4.804-7.055l5.917-6.816s-4.077-5.382-5.703-7.336c11.096-12.464 2.032-15.95.293-17.017-.27-.166-.205-.963-.205-.963 9.965-1.047 13.369-6.073 16.3-12.434 5.945 3.513 14.457 8.238 20.42 11.934.575.49.952.792.865 1.062-.072.22-.303 1.232-.314 2.27.277 1.653.145 2.401-.581 3.034-.684.596-.547.866-.437 1.51.19 1.118.375 1.23-.17 1.793-.671.694-.896 1.02-.771 2.704.074 1 .213 1.75-.072 2.34-.371.77-1.387 1.159-2.72 2.12-2.334 1.682-2.02 2.196 1.203 8.3 2.745 5.203 3.059 6.392 2.005 8.24-.877 1.537-1.207 2.725-1.1 4.945.027.566.08 1.178.077 1.477-.007.718.004.636-.447 1.085-.352.35-.936 1.042-1.296 1.539-3.831 5.273-13.91 18.691-13.91 18.691l-33.893-.051zm47.53 2.454c.397-.026.877.626 1.42 1.944.313.761.28 2.083-.227 2.59-1.009 1.013-2.398-1.358-1.959-3.236.198-.848.457-1.278.766-1.298zm95.32-1.425c.005 4.805-.107 11.041-1.91 15.64l2.044.85c-.66-4.721.159-8.597 4.877-10.639-2.147-1.337-3.787-3.596-5.011-5.851zm-100.4 3.03c.163-.004.353.033.56.094.765.193 1.696.603 2.263 1.132.97.907 1.97 1.997 1.717 2.1-1.603.646-5.67-1.326-5.137-2.869.117-.326.324-.451.597-.458zm-7.128.202.042 2.355-3.94-2.312zm89.954 1.133c.638.051 1.624.817 1.471 1.35-.274.576-.61.522-1.05-.083-.549-.755-.771-1.226-.42-1.267zm-79.813 2.912c.957-.024 1.782.17 1.872.627-.003.433-.73.993-1.625 1.246-2.24.633-3.919.224-3.307-.783.384-.668 1.83-1.06 3.06-1.09zm77.998 2.67c-.947 1.558-1.064 6.538.607 8.57 2.595 2.63 4.992 6.055 4.715 10.613l-2.494 1.024c.138-3.748-.025-6.185-3.213-9.42-3.798-3.786-2.905-10.348-1.594-12.277 1.125-1.905 2.745.792 1.98 1.49zM46.94 929.253c.798-.043 1.773.39 3.538 1.458 4.514 2.932 6.96 4.063 11.436 6.965.655.563.623.482.51.925-1.712 6.01-6.68 10.777-14.044 11.651-.852.101-.413-.388-.926-1.33-.528-.97-1.503-1.393-2.586-1.402-3.041-.026-.441-1.591 3.27-2.039 1.227-.173 2.705-.326 3.487-1.005.17.073-.645-4.7.19-6.38.426-1.51.023-2.241-.437-1.312-.289.584-.693 2.116-.91 3.686-.184 1.326-.488 1.507-.828.863-.156-.294-.152-.99.092-1.538.277-1.25-1.44-2.192-1.095-3.336.46-.956-.018-2.01-.597-2.36-.315-.62-.277-1.067-.236-1.5.097-1.014-.638-1.988-1.8-2.412-.513-.238-.36-.496.175-.74.25-.115.495-.18.761-.194zm-3.692 1.713c.292-.005.582.024.859.09.597.333 1.078 2.232.411 2.307-.246.027-1.014.113-1.61.274-2.018.544-2.975.471-2.936-.595.04-1.087 1.697-2.051 3.276-2.076zm2.684.193c.795.004 1.436.858.936 1.312-.517.47-1.51.127-1.507-.552.002-.366.183-.762.571-.76zm.54 2.959c.228-.008.48.036.75.151.74.313 1.165 1.48.695 1.906-.357.325-1.38.21-1.928-.217-.979-.763-.504-1.805.483-1.84zm-2.504.17c.457.009.786.144.874.434.075.25-.05.48.072.835.193.56.58.988.242 1.213-1.549-.085-4.763 1.699-5.693 1.614-.774-.095-.862-.75-.19-1.812.776-1.228 3.323-2.31 4.695-2.284zm.936 3.45c.337-.02.394.151.257.603-.098.322-.017 1.088.22 1.581.256.53.72.845.48 1.053-.397.104-1.727.348-2.845.731-1.442.733-5.493 2.939-4.473-.59.324-1.179 1.815-1.997 4.417-2.831.987-.317 1.606-.528 1.944-.548zm2.123.042c.626-.042 1.341.235 1.661.948.94 1.717-1.756 1.963-2.617.534-.51-.847.152-1.428.956-1.482zm.515 3.997c1.4.007 2.487 1.6 1.47 2.204-.753.415-1.687.337-2.55.141-1.297-.523-.699-2.354 1.08-2.345zm134.09.033c5.328 2.56 12.575 4.92 19.602 6.672l-.236 63.432-47.808.029-13.154-20.957s-.436-.681-.576-.982c-.266-.57-.17-1.035.01-1.628.436-1.43 1.756-4.231 2.972-6.22 3.177-5.352 7.69-11.222 5.246-16.364-.28-.588 2.524-3.778 2.524-3.778 4.319.324 7.89-2.26 6.61-8.359 9.016-3.382 16.443-6.132 24.81-11.845zm-136.574.311c.122-.004-.245 1.388.52 2.242.476.672.399.65-1.22 1.236-.604.301-1.211.759-1.552 1.038-2.317 1.897-4.61-.583-2.371-2.576 1.808-1.49 3.697-1.817 4.592-1.92.013-.014.023-.02.03-.02zm110.15 1.311c.778.127 1.785 1.076 1.462 1.594-1.096 1.685-1.145 2.59-1.243 4.334-.11 1.946.253 2.233-.556 1.897-.527-.226-1.512-.614-1.733-1.109-.509-1.14.794-6.924 2.07-6.716zm-110.906 4.885c.86-.013 1.764.245 2.273.845.424.5.468.928.046 1.133-1.003.486-4.322.233-4.49-.392-.257-.964.913-1.566 2.171-1.586zm50.281 1.237c4.055.015 8.787.806 12.45 2.274 5.199 1.8 9.78 6.386 10.814 8.348.314.596-.329.596-.885.651-6.192.939-8.254 7.932-3.028 11.274 1.638.94 2.962.84 2.962.84 1.326-.104-5.89 12.601-8.763 20.518-8.887-.334-15.603.922-24.292-1.822-.934-1.423-.712-4.567-.03-6.191.623-1.474 1.445-2.612 1.048-4.308-.691-2.955-3.625-6.804-4.607-9.245-.862-1.863-.807-2.557.694-3.624 1.768-1.257 2.204-1.52 2.69-2.157.451-.592.259-.728.267-2.062.01-1.618-.033-1.366 1.424-1.604.508-.083 1.707-.435 2.623-.878 1.9-.919 3.224-.886 4.34-.316.485.12.439-.342.643-.953.088-.267.294-.703.277-.836-.034-.273-.676-.194-1.383-.103-2.835.364-5.068.444-6.217.052-.996-.34-.999-.956-.417-1.978.52-.91.886-.895.674-2.793-.266-2.383.095-2.885 1.306-3.667 1.512-.975 4.256-1.432 7.41-1.42zm14.656 2.1h13.18c-1.294 1.914-2.733 4.868-3.549 7.668-.119.218-.26.433-.565.15-1.778-2.335-3.802-4.833-9.066-7.818zM98.31 960.17c-1.575.042-3.545.736-6.021 2.039-1.683.885-3.057 1.435-4.844 1.132-1.021-.172-1.153-.039-1.286.265-.601 1.368 1.63 2.836 3.883 1.873.654-.251 5.677-2.641 5.954-2.845.302-.223 2.382-.785 2.931-.779 1.662.019 2.687 1.218 2.484 2.6-.271 1.847-3.125 1.94-3.311.297-.144-1.264-.719-.703-.772-.08-.003.531.434 1.742.91 2.015 2.412 1.382 5.59-1.308 4.068-4.077-.932-1.695-2.21-2.486-3.996-2.44zm-10.815 6.438c-1.635.286-2.7.87-4.462 1.004-1.455.295-1.347 1.358-.437 1.911.698.425 1.578.168 4.124-1.316 2.5-1.459 4.643 1.58 2.643 3.135-1.26.98-.395 1.237.467.646 2.215-1.516.944-5.953-2.335-5.38zm7.74 7.818c-.191-.012-.494.052-.9.222-1.873.787-3.314 1.617-4.211 2.723-.154.24-.07.645-.144.963-.058.25-.275.566-.237.736.034.147.563.305.643.443.326.563.116 1.994-.072 3.03-.09.496-.892.649-1.213.948-1.056.985-.79 1.286.334.902.785-.269.452-.766 2.396-.42 2.518.448 4.514-.18 6.495-1.19 2.2-1.12 2.996-1.743 3.085-1.609.147.221.031.338-1.537 1.534-3.932 2.999-6.856 3.695-9.061 2.572-.66-.412-1.189-.58-.69.302.065.096.6.477.973.632 2.265.939 5.106.145 8.721-2.477.794-.576 1.494-1.221 2.412-1.926 3-2.303 2.21-3.358-1.178-2.236-1.068.353-1.369-.028-2.813-.543-1.94-.692-2.576-.757-4.808-.793-1.942-.031-2.233.136-2.231-.165.002-.382 1.308-1.73 2.776-2.317 1.433-.573 1.835-1.294 1.26-1.33zm3.574 5.687c.362.335-.157.55-1.558 1.16-.794.346-1.523.63-1.625.628-.124.207-1.446-2.528-1.085-2.661.155-.058 3.39.194 4.268.873zm-5.086-.288c.325.62.573 1.269.7 1.868.03.185.172.451-.144.449-.25.033-.66.052-.808-.16-.316-.457-.668-2.011-.55-2.313.244-.303.672-.09.802.156zm11.53 4.917c-.118.001-.338.081-.684.269-5.576 3.021-12.264 4.596-16.564 3.105-1.45-.503-1.715-.326-1.188.585a3.569 3.569 0 0 0 2.196 1.652c3.513.886 9.171-.405 13.524-3.025 1.772-1.067 3.224-2.59 2.715-2.586zm32.817 8.098s9.855 18.64 11.771 19.517l-80.178-.132 13.508-17.72c.12.986 32.586 5.077 54.9-1.665z"/><path fill="#d40000" d="m70.17 1012.04 12.947-17.548c19.15 3.34 36.38 1.575 55.252-1.516l12.569 19.454zm101.534-65.397-.083-10.418 3.955 1.35c-1.373-4.846 2.093-9.91 5.248-10.11-10.084-6.982-1.707-14.449-1.88-14.609-11.03-5.224-5.496-13.245-6.261-13.964-13.44-3.197-8.192-12.987-9.208-11.977-7.823 2.16-12.132-3.857-12.264-8.75-6.77 3.522-17.23-1.467-13.952-7.073 0 0 3.586 1.562 4.22 1.246 5.527-3.687 5.094 1.606 6.243 2.755 4.122-.548 6.556 2.348 7.583 3.755 6.08.005 5.83-1.333 5.884 4.079 4.58 1.068 4.398 3.341 7.053 6.447 5.776.058 4.804 1.783 3.496 4.717 4.164 3.041 4.501 5.423 5.187 8.189 4.542 1.51 5.357 2.125 2.393 5.639 4.008 5.515 2.08 8.708 2.688 9.01 4.998 3.309 2.5 4.507.318 5.777.758 4.397 1.365 5.044-.397 9.52 5.745 3.742-.912 5.43-1.251 5.351l-.016 3.707zM32.597 919.48l-.116-12.908 48.702 28.88-6.154 8.864zm64.698 18.999 11.511-22.118-4.136-24.125 32.993.662c3.709 7.738 5.946 14.317 15.45 27.125l-10.041 2.871.349 15.505zm28.217-5.817c-.337-.64-.524-1.077-.461-1.362.123-.369.43-.352.823-.154 1.402.625 2.804 1.164 3.838-.019.517-.618.382-1.5-.057-2.01-.792-1.478-3.28-.408-4.116-.355-.777.016-1.077-.584-.438-1.437.38-.372.619-.782.681-1.265.437-3.381-5.842-2.178-3.664 1.1.99 1.215.413 1.944-1.042 1.177-1.6-.845-3.827-.057-3.753 1.72.055 1.346 1.898 2.178 3.449 1.366.358-.188.636-.391.89-.493.72-.287 1.238-.05.999.695-.645.93-1.402 2.267-.768 3.146.633 1.283 2.818 1.163 3.567.365.515-.55.66-1.442.052-2.474zm76.108-67.797-48.796-29.022 1.687-2.454c2.185-1.118 3.085-2.511 3.01-4.452l1.326-2.68 42.824 25.217zm-76.292-9.81 4.997 23.43-34.066.446c-1.872-7.867-13.572-25.674-13.541-25.362l9.083-20.486 45.207-.05zm-12.784-8.725c.862-.725.804-1.833-.147-3.079-.922-1.207-.511-2.078.966-1.26.818.503 2.116.608 2.994.352 1.113-.348 1.576-1.164 1.411-2.194-.199-1.246-1.704-1.588-3.312-1.044-.465.09-.748.438-1.149.604-.867.35-1.212-.607-.419-1.846.88-1.375-.033-2.849-1.65-2.978-1.727-.14-2.756 1.664-2.052 2.653 1.011 1.42.279 2.41-1.172 1.46-2.088-1.367-4.812.365-3.684 2.398.548.986 2.341 1.245 3.948.62 1.343-.522 1.742.079.928 1.341-1.673 2.595 1.075 4.876 3.338 2.973zm-49.427-23.006-.36 12.486c-5.096-2.86-4.339-2.896-4.527-2.853 1.5 3.753-.25 8.391-4.574 10.67 7.79 6.707 3.582 11.421 2.303 14.606 9.952 5.303 4.903 14.465 4.943 13.99 9.813.052 9.614 7.925 9.897 11.21 12.134-.699 10.507 8.198 12.107 8.963 5.882-2.416 12.752-1.587 14.574 5.668 1.18 4.116-3.146.15-5.03.323-6.707 3.832-5.417-2.017-5.794-2.831-5.555.483-6.302-1.947-8.735-3.671-6 1.06-5.505-.751-5.152-4.096-4.707-.874-5.73-3.57-7.605-6.208-6.498.192-3.848-4.02-3.823-4.847-.789-.648-4.52-4.017-4.704-7.875-6.67-1.73-2.482-4.818-2.241-5.878-2.523-2.885-3.186-5.013-2.342-8.648-5.922-2.541-.976-4.916-.556-6.36-1.931-4.736-.524-6.154.238-8.716-3.811-4.1-1.534-3.872 1.255-6.36.353-.448-.622-2.507-.567-3.719zm34.216-46.275-10.68-17.542h76.279s-8.301 10.556-11.52 15.868c-19.023-2.756-36.824-1.448-54.08 1.674z"/><path fill="#e2cf00" d="M44.09 1000.645c-6.69-1.395-7.827-9.112-1.546-15.53.507-.518.853-1.322.853-1.322s-1.118-1.687-4.049-5.411c-.545-.693-1.339-1.803-1.339-1.803 1.604-2.125 3.29-3.885 5.086-6.188.241-.312.687-.66.625-.947-.09-.408-.741-.815-1.52-1.869-4.53-6.124-5.03-8.551-2.73-12.193 2.16-3.424 7.325-3.82 10.468-.802 3.396 3.262 3.24 6.225-1.173 12.258-.969 1.324-1.668 2.519-1.668 2.519s-.04.42 1.557 2.312a91.72 91.72 0 0 1 3.842 4.879s-1.008 1.18-1.963 2.21c-2.557 2.757-3.708 4.658-3.708 4.658s.174.55.557.947c7.01 7.289 6.457 15.66-1.47 16.372-.407.037-1.398-.02-1.823-.09zm56.384-93.019c-.184-.276-25.226 36.915-25.226 36.915l2.858 1.682 23.956-34.379c.362.252.715.552.642.97 0 0-19.732 29.507-23.018 34.223-.089.127 4.892 2.835 5.059 2.842 7.338-3.318 37.944-.445 58.266-1.588.08.058-.312 6.552-.312 6.552s-4.634-4.919-5.57-4.949c-4.62-.148-9.48 1.658-12.961 1.455-2.223.625-4.761 8.06-5.26 9.923-4.045-.43-7.951 3.453-7.017 7.07 1.323 4.018 3.594 3.715 6.052 3.781-.228 4.55-8.981 16.54-9.018 22.448 9.256-.671 19.271-.826 28.82-3.468 0 0 3.585-9.465 8.11-15.703 1.493-2.386 2.21-5.969 1.604-8.226-.384-2.473.778-3.098 1.815-4.828.631-1.082 2.964-1.038 3.262-1.117 6.073-1.614 3.903-8.82 1.32-10.102-3.224-1.6-7.78.878-9.532-2.364-1.854-3.432-1.254-10.528-1.254-10.528l-45.85.2s12.955-22.59 12.625-22.757c-3.542-1.784-9.328-7.987-9.37-8.052zM69.806 928.19c.214-2.284.613-39.411-37.616-57.868l.204-4.88c.234-.252 34.775 14.307 40.7 52.125l10.658-15.33 3.92 1.413c-5.792 7.989-17.316 27.379-17.866 24.54zm-23.214-13.374c1.575-4.287-1.008-2.013-3.363-2.188-1.61-.804-3.191-1.843-4.686-2.745 11.171-5.433 4.519-5.17-1.99-1.356-1.688-.84-3.822-2.679-3.956-2.523 12.606-7.442 7.878-7.592-.19-2.204.278-5.053.082-3.157.19-4.856 6.878-6.762.472-3.088 0-3.007-1.693-6.747 6.405-5.334 7.147-.233 1.425.972 4.227 2.176 5.052 6.36 3.889 2.273 3.48 4.155 3.3 6.877 1.521 1.379 5.447 4.289.868 6.977zm-14.5-30.786.258-3.733c.528-1.521 30.01 17.781 27.885 42.585.347-.174-3.263-1.732-4.299-2.584.016-18.252-23.389-37.175-23.844-36.268zm169.096 20.938c-19.672-8.274-38.35-28.101-39.332-53.89l-11.11 17.079-3.945-1.533c.369.28 8.788-14.06 17.455-23.972 2.445 32.537 16.35 47.668 37.414 58.658zm-103.02-11.898c-19.061-2.171-46.623-25.987-38.386-58.271 1.168-3.279 19.552 14.885 19.553 14.884.116-.823 16.537 23.455 16.077 28.198 13.86 3.623 40.914.187 40.914.187 22.494 4.61 46.014 26.882 37.523 58.534 0 0-5.979-3.603-10.977-7.796-15.181-13.468-19.999-24.534-25.378-36.742-19.437-1.615-37.66 1.585-39.326 1.006zm103.204-26.887c.332 1.608.117 4.94.182 4.932-5.066 5.063-5.592 5.155.759 3.528-.787 4.855-4.698 5.652-7.021 4-.857-.609-.865-3.955-.865-3.955-3.851-.885-5.173-1.948-4.627-5.75-4.437-.486-4.262-2.468-3.897-6.605-4.04-2.085-3.033-5.404-.644-6.822l1.998 1.263c-.64.527-.328 3.822 3.212 1.37 0 0 2.831 2.158 4.192 2.995-10.243 6.044-4.034 4.715 2.276.745 1.184.741 2.8 1.953 3.641 2.476-8.312 5.47-11.039 10.044.794 1.823zm.497 20.551-.339 4.357c-20.223-11.355-25.697-26.33-27.2-42.28 0 0 2.714 1.835 3.956 2.597 1.804 20.575 22.335 34.468 23.583 35.326zM91.074 832.742l48.498.284-12.863 22.575 6.79 7.36s16.847-24.095 25.318-36.716l-2.93-1.608-24.18 34.874-.96-.978 23.837-34.845c-1.43-.86-4.135-2.238-4.135-2.238s-41.301.609-59.253.542c.583-2.274.708-6.304.708-6.304 2.647 3.488 5.484 6.603 11.656 3.175 0 0 7.3.226 7.57-.093.892-1.326 2.475-5.495 4.32-10.203 7.043-.433 6.341-3.558 7.142-4.582-.54-9.186-6.152-4.24-5.669-7.579 1.586-5.95 9.695-19.42 8.671-20.601-2.092-1.274-22.835 2.474-28.872 3.157-.559-.198-3.505 8.644-6.614 12.423-3.381 4.112-4.587 8.522-2.86 12.68-1.79 4.573-5.218 4.104-7.973 5.398-3.123 3.106-2.263 7.861.715 9.7 2.074 1.282 5.256 1.215 8.5-1.203zm96.373-31.932-5.675-6.995 5.501-7.356c-2.17-3.16-5.752-7.995-5.11-11.827 1.402-7.6 12.571-6.485 13.544.785.528 3.374-2.151 7.512-4.872 11.033 1.795 3.006 2.569 3.496 5.18 6.942-1.552 2.514-5.33 7.434-5.33 7.434 2.356 3.638 5.634 7.648 5.397 11.349-.25 3.178-4.023 6.399-7.545 5.722-10.952-2.105-4.836-12.854-1.09-17.087z"/><path d="M84.843 758.706c3.007 5.184 11.55 19.173 11.55 19.173 20.312-3.866 37.394-4.85 55.346-1.241l12.825-17.847zm2.648 1.052h3.672l7.204 13.605 12.429-2.28-2.119-11.297 3.518.02 1.779 10.862 18.26-.425 2.365-10.485 3.369.038-2.417 10.655 14.46 1.788 7.076-12.481h4.86l-10.759 15.412c-19.137-3.423-38.149-2.273-54.06 1.321zm6.927 0h10.721l2.571 9.183c-1.316.63-6.233 1.71-7.878 1.557-1.964-3.157-3.993-7.724-5.414-10.74zm20.677 0h16.316l-1.393 7.82-13.684.4zm25.865 0h12.573l-4.962 9.494-9.482-1.184zm47.87 9.504a10.518 10.518 0 0 0-2.036.174c-3.262.627-4.97 2.927-4.999 6.682-.012 1.722 1.37 4.764 3.471 7.64a24.641 24.641 0 0 1 1.708 2.695l-5.472 7.38 5.821 6.98s-.906.976-1.445 1.675c-2.67 3.465-3.904 6.705-3.733 9.362.185 2.87 2.008 5.06 5.425 6.111 1.875.577 4.548-.128 6.346-1.623 1.45-1.206 2.18-2.774 2.21-4.615.045-2.63-1.339-5.816-4.098-9.292-.748-.943-1.115-1.684-1.115-1.684s3.86-5.045 5.317-7.352l-5.276-6.956c4.195-5.785 5.04-7.067 5.157-10.623-.19-3.523-2.975-6.533-7.281-6.554zm-.525.425c.182-.003.364 0 .546.014 4.79.338 7.32 3.606 6.685 7.8-.651 4-4.58 7.727-5.21 9.013 1.89 2.818 5.451 6.824 5.451 6.824-1.511 2.521-5.415 7.409-5.415 7.409s.225.404.473.726c4.076 5.3 5.197 7.805 4.916 10.981-.22 2.506-2.376 4.742-5.065 5.196-4.258.72-7.752-2.055-8.181-5.8-.262-3.278 2.04-6.465 3.831-8.952.758-1.041 1.409-2.038 1.409-2.038l-5.8-6.989s.415-.6.683-.958c1.02-1.358 2.34-3.04 3.014-3.846 1.22-1.457 1.944-2.463 1.944-2.463s-.865-1.277-1.667-2.44c-3.18-4.611-4.068-6.974-3.579-9.523.602-3.134 3.249-4.913 5.965-4.954zm.432 2.364c-1.77.043-3.46 1.24-4.134 2.973-.973 3.247 2.752 8.165 4.448 9.485 3.177-3.352 5.2-7.112 4.026-9.745-.772-1.592-2.57-2.756-4.34-2.713zm.438 1.052c3.208.06 4.408 3.556 1.933 7.531-.855 1.357-2.113 2.775-2.113 2.775s-1.176-1.344-1.883-2.36c-2.867-4.118-2.128-7.334 1.394-7.908.231-.028.455-.042.669-.038zm-63.842 1.817c-8.397.04-19.618 1.324-29.48 3.379-.857 4.854-3.512 9.723-6.408 13.59-2.79 4.181-3.797 7.822-2.864 10.316.873 2.335-1.51 5.82-4.13 6.04-3.254.272-5.326 2.352-5.286 5.314-.092 4.744 3.476 7.653 8.32 6.04.487-.056.813.236.813.236l-.283 27.157c-2.726.393-4.547.938-6.865 2.067l-.977-.963c-.537-.529-1.216-1.207-1.512-1.51a6.847 6.847 0 0 0-1.187-.934 3.992 3.992 0 0 1-1.075-1.005c-.571-.84-2.996-2.979-4.32-3.808-.225-.142-.797-.586-1.27-.987l-.864-.726.005-9.018c.003-4.96-.052-9.07-.123-9.136-.071-.066-1.178.368-2.463.963-4.414 1.773-8.632 4.218-11.869 6.2-1.433.881-1.577 1.371-1.038 3.6.302 1.252.227 1.386-.895 1.638-2.312.52-3.035 3.899-1.08 5.045.917.537.92.566.33 1.788-.916 1.892-.881 5.508.066 7.017.54.862.504 1.14-.21 1.567-2.463 1.47-2.296 4.617.277 5.205.658.15.83.41.612.925-.805 1.905-.072 4.8 1.774 6.994.959 1.14.956 1.127.324 1.651-2.072 1.718-.95 4.797 1.872 5.134.968.116.972.118 1.085.798.323 1.954.47 2.499.94 3.416.594 1.157 1.307 1.939 2.644 2.893 1.09.778 1.09.79.509 1.94-1.076 2.126.635 4.234 3.363 4.148 1.39-.045 1.391-.048 1.491.405.49 2.22 3.364 4.824 5.724 5.182 1.212.184 1.403.448.992 1.392-.663 1.518-.234 2.497 1.44 3.284 1.122.528 1.45.548 2.679.16 1.39-.437 1.405-.43 2.587 1.02 1.665 2.045 2.77 2.558 5.548 2.576 1.832.013 1.901.056 1.913 1.242.028 2.807 3.263 3.977 5.348 1.934.752-.736.75-.733 1.42-.283 2.932 1.972 5.533 2.482 5.29.637-.566-4.317-3.97-6.95-3.97-6.95l4.253 1.019c.187 4.558.364 10.054 1.4 13.854l-18.955 27.705s-1.15-.644-2.36-1.41a167.335 167.335 0 0 0-5.302-3.224c-.685-.394-1.56-.874-2.247-1.406-.66-.505.407-1.17.632-1.704 4.365-7.15 11.195-15.748 16.167-24.104l-4.813-1.708c-3.682 5.32-6.394 9.601-9.822 14.506-3.414-22.986-20.895-43.165-42.043-51.663l.072 6.017c22.202 10.422 38.048 31.931 37.626 57.302-.087.095-1.859-.878-4.252-2.34-1.263-.772-3.804-2.297-4.12-2.445 1.028-28.096-29.336-44.71-29.388-43.924l-.277 5.313c12.938 7.956 23.103 22.428 24.132 35.307.012.106-6.073-3.482-6.073-3.482 3.622-1.654 2.624-5.941.016-7.102-.816-.336-.864-.499-.458-1.51.834-2.076-.696-5.2-2.802-5.724-.924-.23-1.077-.452-1.121-1.642-.083-2.177-1.394-3.6-3.76-4.078-.652-.132-.658-.137-.694-.887-.199-4.216-4.692-5.933-8.063-3.081-.376.318-.771.925-.771.925l-.026 4.572c1.151-.58 2.898-2.568 3.615-2.487.793.085.408.574-1.373 1.987-1.155.917-2.278 1.883-2.278 1.883l.072 6.021c1.92-1.143 3.842-2.437 5.641-3.586 1.55-.992 2.345-1.315 2.536-1.029.214.322-.132.743-1.014 1.227-2.363 1.445-5.113 3.14-7.101 4.568l-.005 4.148.38.514.114 3.634-.355.08.005 4.578 46.697 27.374 23.762-34.401.391.363-23.767 34.255s.977.772 1.902 1.218a52.15 52.15 0 0 1 3.132 1.746c.475.715 1.308 1.345 2.2 1.255.819-.82 4.389-1.687 4.732-2.064 13.294-.18 51.458.058 51.458.058l.216 5.602c-1.715-5.432-7.247-6.552-11.595-4.12l-7.143.01c-.055 0-4.227 6.976-4.839 10.617-3.002-.374-6.997 2.31-7.2 5.035-.485 3.877 2.29 6.704 5.92 6.154.066.024-.57 3.841-2.623 6.823-2.723 5.264-4.128 8.209-5.79 12.699-1.126 2.822-.741 3.323-.55 3.393 10.655-.142 20.458-1.089 30.57-4.082 0 0-.187-.661-.277-1.033-.365-1.503 1.01-4.578 4.9-10.93 3.004-4.905 3.865-6.777 4.166-9.093.152-1.172.124-1.475-.32-3.662-.027-.203-.2-.497-.153-.717.315-1.473 2.756-4.06 2.812-3.997 0 0 .887-.151 1.24-.18 5.509-.354 7.215-7.225 2.566-10.324-2.266-1.274-3.6-1.37-6.001-.793l-.041-26.648 3.348.115 3.681-1.668c5.914 4.635 9.77 9.372 16.137 12.94l-.103.236-4.731-2.978.01 17.46c5.476-2.616 10.581-5.028 15.504-8.687l-.992-.788.04-2.497c4.627.335 5.072-5.07 1.27-5.714 0 0 .088-.436.453-1.124 1.167-2.196 1.312-4.266.463-6.55-.518-1.393-.496-1.743.119-1.74 2.81.013 2.551-4.563-.314-5.564-.987-.345-.917-.059-.715-2.898.151-2.132-.415-3.579-2.134-5.45-.649-.706-.594-1.047.242-1.515 2.398-1.344.66-5.224-2.289-5.11-1.151.044-1.15.042-1.25-1.015-.261-2.78-1.953-5.43-4.17-6.54-.686-.344-.787-.626-.4-1.1 1.887-2.317.122-5.484-2.541-4.559-.516.18-1.061.36-1.208.402-.21.06-.38-.21-.787-1.26-1.108-2.859-2.09-3.755-5.616-5.116-.693-.267-.734-.456-.421-1.76.54-2.251-2.84-4.347-4.664-2.893-.743.593-.768.588-1.605-.396-1.667-1.76-4.38-2.987-6.793-3.218-1.154-.096-1.328-.178-1.234-.585.64-2.759-2.283-4.556-4.715-2.898-1.168.797-1.47.82-2.67.203-2.52-1.298-3.624-1.347-3.887-.175-.08.977.154 2.132.412 2.85.613 1.939 1.407 2.658 3.147 4.021 0 0-2.886-.734-3.615-.868.072-.07-.21-9.196-2.103-14.365l18.455-26.954 10.573 6.399-16.908 24.543 4.921 1.836s6.572-10.02 10.012-14.931c2.253 24.396 22.804 45.788 41.421 52.135-.063.029.06-3.508.14-5.22-19.643-7.936-38.325-30.113-37.149-56.73l7.888 4.633c2.29 21.334 12.417 33.836 29.296 44.406v-6.536c-11.624-7.895-21.283-18.207-23.845-34.708 0 0 3.942 2.285 5.708 3.37 0 0-.498.26-.756.457-2.109 1.611-1.475 4.915 1.306 6.786.452.304.456.305.031 1.345-.843 2.065.457 4.56 2.654 5.082 1.26.3 1.252.286 1.275 1.61.045 2.57 1.173 3.754 4.165 4.37.41.083.424.122.417 1.273-.017 2.841 2.957 4.752 5.548 3.563.811-.372 3.363-2.331 3.363-2.331v-4.573s-1.155.867-1.99 1.581c-1.461 1.25-1.922 1.405-1.918.642.004-.554.676-1.28 2.078-2.237.727-.496 1.83-1.557 1.83-1.557v-5.328s-.652-.949-.612-2.086c.022-.618.211-1.557.211-1.557l.7.014-.01-6.167-.849-.61.036-4.086-46.173-27.417-24.05 35.1-.602-.647 24.076-34.877-6.397-3.752-3.862 1.746s-26.725-.387-52.79-.08c0 0-.062-.66-.052-2.525.014-2.344.132-2.672.602-1.684 1.055 2.216 3.673 3.553 6.71 3.425 1.716-.071 1.955-.136 3.863-1.08.709-.351.837-.362 4.18-.34 3.584.024 4.228-.097 4.232-.793 1.248-2.604 2.476-5.626 3.189-7.9.343-1.1.495-1.586.776-1.811.218-.175.39-.135.91-.165 2.293-.136 2.931-.272 4.582-1.751 3.31-3.053 1.412-9.263-3.384-9.287-1.27-.006-.4-3.108 2.284-8.14 2.777-5.206 3.166-6.005 4.602-9.495.938-2.28 1.387-3.916 1.501-4.912a84.63 84.63 0 0 0-.807 0zm-.252 1.505c.664.512-.995 4.272-3.985 9.962-2.468 4.697-3.572 7.047-4.099 8.749l-.483 1.571c-.162.525-.374.784-.941 1.156-.403.265-.964.654-1.25.864-.808.595-1 .406-.802-.793.368-2.225 1.329-4.625 3.548-8.8 1.76-3.324 3.48-6.886 4.819-10.52.3-.848.44-1.71.94-2.024.72-.37 1.481-.297 2.253-.165zm-3.6.217c.458.29-1.712 5.44-5.47 12.59-4.69 8.922-4.94 15.172-.72 16.7 3.325 1.206 6.674-2.157 4.622-4.61-.987-1.179-3.114-1.279-3.851-.056-.403.667.156 1.435.869.5 1.037-1.361 3.114.21 2.612 1.821-.344 1.105-2.03 1.994-3.075 1.803-4.608-.844-3.74-6.807 1.039-7.135 4.572-.314 6.651 5.32 3.332 8.546-1.053 1.044-2.286 1.565-4.433 1.562-2.976-.004-5.758-2.26-5.476-4.35.393-1.915.453-3.462-.252-4.97-.227-.484-.504-.966-.489-1.576.042-1.696 1.564-4.328 4.957-10.83 1.216-2.33 2.708-6.369 3.446-8.919.26-.746.131-.955.437-1.058.759-.154 1.843-.363 2.453-.018zm-3.923.09c.696.028-.907 4.719-2.926 8.716-1.533 3.06-3.626 6.991-5.183 10.627-.499.77-.831.83-1.852.33-1.124-.551-.791-1.428 1.862-6.271 2-3.678 3.923-7.839 5.27-12.029.122-.503.307-.938.762-1.18.692-.277 1.367-.221 2.067-.193zm-3.733.528c.371.451-2.06 6.775-5.821 13.907-.804 1.514-1.347 2.898-2.155 4.445-.388.359-1.884.54-2.633.68-.772-.095-.04-1.424 2.16-5.507 1.793-3.328 2.303-4.27 3.245-6.295.686-1.483 1.685-4.03 2.622-6.408.076-.192.148-.62.35-.718.698-.27 1.548-.38 2.232-.104zm-3.672.397c.061.152-.078.466-.128.708-.592 2.545-1.944 4.914-2.932 7.347-.118.332-1.2 2.403-2.406 4.601-1.206 2.198-2.312 4.297-2.458 4.667-.146.37-.547 1.352-.89 2.18-2.164 4.26.163 7.619 3.03 7.854 4.47.34 4.892-5.412 1.738-5.966-1.19-.183-2.497.416-2.505 1.671-.083.657.796 1.418.784.476-.047-1.714 2.562-1.635 2.884-.18.626 2.837-2.887 4.224-4.98 1.997-.862-.918-.854-1.964-.694-2.902.435-2.539 3.623-4.375 6.577-2.459 4.043 2.622 2.648 8.419-2.576 9.362-1.786.427-4.037-.119-5.446-1.448-.897-.847-1.486-2.095-1.712-3.643-.126-.862-.175-1.877-.03-2.827.422-2.976 2.788-7.323 4.864-11.005 1.602-3.054 2.86-7.088 4.32-10.334.41-.277 2.622-.533 2.56-.1zm-3.944.406c.238.067-.983 3.594-2.725 7.404-1.918 3.865-4.406 8.286-5.816 12.09-.445.933-.768.905-2.032-.175-.666-.57-.291-1.42 2.047-5.8 3.597-6.738 4.932-9.612 5.471-11.216.254-.755.458-1.68.998-1.973.691-.3 1.37-.52 2.057-.33zm-3.595.844c-.38 1.135-1.627 4.497-3.759 8.48-1.337 2.515-2.643 5.3-3.964 7.895-.737 1.601-.759 1.6-2.016 1.84-2.12.406-2.12.385-.247-3.1a158.198 158.198 0 0 1 2.381-4.223c1.39-2.37 3.54-6.986 4.32-9.287.208-.616.499-1.195.838-1.51.217-.107 1.886-.564 2.447-.095zm-4.633.425c.38-.013.72.05.88.24.094.792-2.235 5.852-3.667 8.198-.437.719-.87 1.65-1.363 2.482-1.823 2.663-4.016 7.78-4.581 9.905-.898 3.374 3.305 5.925 5.484 3.472 1.384-1.485-.056-4.157-2.05-3.41-.695.26-.411.545.54.618 1.57.121 1.688 2.342.025 2.83-1.849.52-3.211-.953-3.204-2.46.014-3.089 3.697-4.224 6.002-2.536 2.3 1.757 2.667 5.935-.817 7.554-3.396 1.579-7.578-.56-8.418-4.303-.64-2.857.054-5.474 3.05-9.877 1.721-2.535 4.395-6.91 5.764-10.75.268-.65.505-1.19.75-1.463.23-.242.974-.479 1.605-.5zm91.044 8.99-4.56 5.323c1.315 1.744 4.442 5.176 4.442 5.176l4.325-5.124Zm.042 2.977 1.887 2.247-2.16 2.34-2.026-2.185zm.17 11.571s-5.515 5.545-4.248 9.66c1.132 3.665 7.14 4.556 8.603-.807.103-.427.021-1.005-.041-1.723-.126-2.184-4.315-7.13-4.315-7.13zm0 1.095s1.583 2.107 2.699 3.973c1.25 1.776 1.577 6.737-2.86 6.583-2.404.228-4.699-2.681-2.786-6.238.52-1.084 2.946-4.318 2.946-4.318zm-91.02.892c.307-.044.615.563.808 1.005.263.6-.488 2.33-1.28 3.19-.151.145-1.164.225-2.67.93-.003-.648.428-2.067.71-2.695 1.027-.93 1.898-2.04 2.304-2.369a.26.26 0 0 1 .129-.061zm-10.988.311c.677.704 1.343 1.315 1.316 1.751-.04.638-.857 1.426-1.476 1.987-.776.703-2.324.285-2.319-.628.002-.337 2.213-3.111 2.479-3.11zm23.34.916c.656.322 1.319 1.419 1.404 1.916-.96 4.742-4.51 10.537-4.391 10.32 0 0-2.177.356-3.1-.076 2.392-3.047 3.993-6.924 5.08-10.098.466-1.37.678-2.058 1.008-2.062zm-2.015.665c.366-.02.507.252.2.986-1.405 5.244-4.566 10.757-7.05 11.76-3.262 1.318-6.505.224-7.898-2.03-1.508-2.438-1.24-6.287 3.784-7.13 2.956-.278 5.985 1.86 4.407 5.3-1.755 2.55-6.474 1.13-5.09-2.161 1.045-1.206 3.234-.16 2.52 1.203-.363.691-.013 1.117.524.637 1.72-1.537-1.11-4.175-3.019-2.855-3.113 2.153.732 6.887 4.356 4.856 1.104-.62 3.102-4.091 3.851-6.62.323-1.09.614-2.124 1.378-2.785.728-.629 1.566-1.136 2.037-1.16zm-8.254.208c.178.006.387.087.674.217.363.164.79.463.74.85-.057.446-.334 1.416-.894 1.887-.338-.106-1.268-.448-1.903-.604-.398-.099.132-.886.376-1.322.392-.701.609-.996.93-1.024.024-.002.052-.005.077-.004zm-10.269.18c.47-.009 1.212.468 1.702.532.095.651-.808 2.045-2.278 3.69-1.205 1.35-1.2 1.353-2-.132-.522-.966-.536-.94.951-2.638.8-.912 1.185-1.33 1.533-1.444a.598.598 0 0 1 .092-.009zm4.664.476c.022.348-.171 1.115-.334 1.562-1.667 4.568-5.56 9.095-8.773 10.207-4.192 1.257-8.032-.77-8.13-5.441.107-5.505 7.248-7.03 9.406-2.01.974 2.266-1.68 5.674-3.975 5.105-2.316-.573-3.283-3.89-1.373-4.71 1.25-.536 2.545.364 2.273 1.582-.095.422-.069.48.2.434 1.19-.204.562-2.398-.843-2.945-2.655-1.033-4.661 2.248-2.87 4.696 2.145 2.93 5.519 2.368 7.462-1.246.33-.615.96-1.498 1.393-1.959 1.177-1.25 1.552-1.74 2.592-3.392.573-.91.88-1.486 1.173-1.784.465-.03.784.09 1.8-.1zm9.406.24c.503.004.89.304.879.944-.01.536-.845 2.792-1.234 3.332-.15.207-.499.932-.55.774-.49-1.502-1.367-1.966-1.492-2.36-.146-.462.297-.905.494-1.321.42-.884 1.256-1.373 1.903-1.369zm8.865.713c.608-.005 1.468.251 1.645.665.556.894-3.2 9.215-3.337 9.24l-2.802-.113c1.683-3.318 3.17-6.606 4.252-9.773.074-.012.155-.018.242-.02zm37.6 13.17 3.564 1.945-23.49 34.254-3.415-2.397zm-58.606.708c21.94.075 52.158.038 52.158.038l-1.275 2.223s-33.004-.296-50.883-.265zm-29.62 1.402-.046 11.26s-.165-.067-2.258-1.346c-2.51-1.534-5.268-3.115-6.155-3.53-1.308-.61-1.137-.904 1.378-2.373 2.47-1.364 7.081-4.011 7.081-4.011zm93.944 1.118 2.207 1.28-24.683 36.052-1.373-2.473zm-64.32.5H95.4v3.563h-3.435zm7.868 0h4.17v3.563h-4.17zm9.113.038h4.288v3.563h-4.288zm8.942.014h4.335v3.563h-4.335zm9.01.024h4.278v3.563h-4.279zm9.014.075h4.376v2.51l-.664 1.053h-3.712zm23.587 1.161 41.864 24.855-.026 3.43-43.58-25.845Zm-2.746 2.907.36.236-1.774 2.492-.365-.19Zm-64.669.368h46.99l-1.414 2.185-45.576-.061zm-38.577 1.114c.316-.019.933.237 1.892.731 2.31 1.19 3.765 3.7 2.767 4.606-.888.806-2.968-.921-4.258-3.388-.684-1.308-.864-1.922-.401-1.95Zm83.145 2.152-15.16 22.235c-3.426-4.31-7.268-8.033-15.657-5.511-4.374-3.104-8.999-3.583-13.92-.949l.056-15.7Zm-78.04.01 1.184.938c-.35.613-.51 1.499-.736 2.289-.017-1.084-.12-2.162-.447-3.228zm96.105.23 46.707 28.2v2.615l-48.337-28.578zm-102.3.642a2.139 2.139 0 0 1 1.64.717c.706.78.415 2.208-.576 2.818-1.974 1.214-4.343-1.137-2.777-2.756.491-.508 1.108-.768 1.713-.779zm7.733.335 2.551 1.874c-4.427 23.17 8.22 46.56 35.461 53.57l.309 2.967c.051.142-11.573-3.168-16.65-6.653-6.943-4.31-12.808-10.378-16.852-17.437-2.76-4.551-4.273-9.563-5.25-13.614-1.156-6.95-1.124-13.828.431-20.707zm-2.895 3.143c.978.037 1.084.683.299 1.925-1.01 1.598-2.524 2.71-4.978 3.658-1.352.522-1.705.285-1.548-1.039.235-1.99 1.744-3.446 4.356-4.214.627-.16 1.26-.333 1.871-.33zm7.508.25 1.013.788c-.837.263-1.44.988-1.44 1.845 0 1.08.953 1.954 2.13 1.954 1.053 0 1.922-.7 2.092-1.623.381.3.74.58 1.018.802-.49 1.136-1.698 1.94-3.11 1.94-1.848 0-3.348-1.377-3.348-3.073 0-1.124.663-2.099 1.645-2.633zm1.702 1.539c.116 0 .228.018.334.047.268.208.483.378.741.58.074.143.118.299.118.467 0 .605-.534 1.095-1.193 1.095-.658 0-1.193-.49-1.193-1.095 0-.604.535-1.094 1.193-1.094zm-8.037.707c-.277 2.988-.19 6.113-.088 9.24-.628-2.478-2.03-4.333-4.365-5.601 1.612-1.023 3.299-2.266 4.453-3.639zM70.7 842.52l2.268 1.798c-1.95 24.526 21.473 33.834 22.102 33.424l.987 2.775c-16.174-5.052-27.354-20.393-25.357-37.997zm130.465 58.8-.118 3.089c-18.353-6.536-39.27-30.647-39.004-53.75-4.712 6.63-7.36 11.055-11.406 17.027l-3.22-1.407c5.296-7.24 10.33-14.983 15.64-22.095.605-.803 1.101-1.172 1.128.585-.003 7.948 2.683 40.65 36.98 56.55zM51.937 844.435c.59-.035 1.435.227 2.5.882 1.678 1.033 3.561 4.224 2.91 4.936-.586.64-3.074-.121-4.31-1.321-2.447-2.378-2.608-4.409-1.1-4.497zm14.311.32c1.848 0 3.348 1.372 3.348 3.068 0 1.695-1.5 3.072-3.348 3.072-1.847 0-3.347-1.377-3.347-3.072 0-1.696 1.5-3.068 3.347-3.068zm7.493.293 2.185 2.35c.427 20.585 18.133 26.932 17.967 26.983l.535 2.213c-.987.127-21.906-8.612-20.687-31.546zm-7.493.821c-1.176 0-2.129.875-2.129 1.954s.953 1.953 2.13 1.953c1.175 0 2.128-.874 2.128-1.953 0-1.08-.953-1.954-2.129-1.954zm0 .859c.659 0 1.193.49 1.193 1.095 0 .604-.534 1.095-1.193 1.095-.658 0-1.193-.49-1.193-1.095s.535-1.095 1.193-1.095zm11.313 1.864c.27.001 1.533 1.685 1.533 1.685s-1.387.446-1.985-.109c-.594-.551-.274-1.58.452-1.576zm96.948.76 3.28 2.057c1.532 13.888 10.201 26.556 23.274 35.345l-.082 3.44c-15.923-9.874-24.764-23.289-26.472-40.842zm-122.921.236c.053-.003.107-.001.159 0 2.007.03 2.857 2.86.71 3.671-1.35.51-2.819-.227-2.962-1.486-.101-.888.617-1.837 1.594-2.1.172-.047.338-.076.499-.085zm27.377 1.854c.526.002 1.098.279 1.64.84 1.44 1.49 1.426 1.922-.092 2.487-2.135.795-3.91-.31-3.199-1.991.374-.884.975-1.337 1.651-1.336zm-21.86.071c.174-.003.335.018.484.07 1.574.564-1.838 6.3-4.094 6.881-1.433.37-1.733-.144-1.265-2.157.521-2.237 3.2-4.762 4.875-4.794zm10.038.132c1.848 0 3.348 1.372 3.348 3.067 0 1.696-1.5 3.072-3.348 3.072-1.847 0-3.348-1.376-3.348-3.072 0-1.695 1.5-3.067 3.348-3.067zm0 1.114c-1.175 0-2.129.874-2.129 1.953 0 1.08.954 1.954 2.129 1.954 1.176 0 2.129-.875 2.129-1.954s-.953-1.953-2.129-1.953zm-8.366.165c.297 2.84.8 5.469 2.175 8.966-1.29-1.892-3.128-2.831-4.89-3.903 1.235-1.687 2.665-3.375 2.715-5.063zm8.366.694c.659 0 1.193.49 1.193 1.094 0 .605-.534 1.095-1.193 1.095-.658 0-1.193-.49-1.193-1.095 0-.604.535-1.094 1.193-1.094zm18.944.335c3.49-.07 5.96 2.569 5.806 5.096.102 2.935.217 4.815-.046 8.461l-2.834-4.761c-.04-1.35.21-2.371.098-3.714-.322-3.61-4.178-3.11-4.36-2.751l-1.22-1.817a7.628 7.628 0 0 1 2.556-.514zm12.295.363c3.271-.003 5.166 1.687 5.266 4.695.191 5.76-.144 18.91-.144 18.91l-7.076.004-3.862-8.787s-.153-.845-.123-1.458c.246-2.818.092-5.954.195-8.499.408-2.698 2.824-4.862 5.744-4.865zm-16.373.91c.455-.005.878.123 1.198.42 1.642 1.524 1.633 2.522-.03 3.21-2.2.908-3.343.736-4.094-.614-.736-1.323 1.301-2.996 2.926-3.015zm103.155.416 1.794 1.062s-.377.541-.58.863c-1.02 1.61.712 2.553 3.11 1.7.433-.155.802-.374.802-.374l1.481.925s-1.067.53-2.231 1.053c-2.994 1.344-5.145.773-5.868-1.553-.287-.923 0-2.08.56-2.756.287-.346.932-.92.932-.92zm-75.9.194c2.738-.086 5.403 1.877 6.036 4.516.263 1.235-.077 17.573-.077 17.573l-10.865-.005.19-17.139c-.072-1.084 0-2.156.632-2.926 1.195-1.365 2.649-1.975 4.083-2.02zm-11.283.75c-2.194.093-3.44 3.355-1.182 4.893.943.643.962.764.457 2.936-.576 2.477.02 5.871 1.368 7.781 1.033 1.582.822.773.293-.637-.68-2.644-.347-4.587 1.317-7.659 1.486-2.588 2.926-6.567-1.8-7.286a2.363 2.363 0 0 0-.453-.028zm90.175.745.983.61s-.148.112-.36.301c-.393.35-1.175.405-1.415.137-.397-.444.792-1.048.792-1.048zm-78.275 1.265c-2.36-.073-3.912 3.942-.895 4.913.685.406.8.938.375 1.689-.571 1.009-1.143 3.406-1.054 4.407.128 1.437.528 3.313.843 3.964.792 1.794.634 1.078.427-.995-.08-2.317.43-3.988 1.898-6.201 1.744-2.654 4.145-6.97-1.363-7.758a2.092 2.092 0 0 0-.231-.019zm-40.583.014c1.847 0 3.347 1.372 3.347 3.068 0 1.695-1.5 3.072-3.347 3.072-1.848 0-3.348-1.377-3.348-3.072 0-1.696 1.5-3.068 3.348-3.068zm15.514.312c.577-.005 1.012.347 1.537 1.066 1.446 1.978 1.28 2.383-1.506 3.79-2.952 1.49-4.927-2.258-2.103-3.993.853-.524 1.458-.815 1.954-.859.04-.003.08-.004.118-.004zm-30.638.146c3.114.03 7.978 4.108 5.605 4.7-.339.085-.765.142-.946.132-3.911-.219-8.393-4.867-4.659-4.832zm15.124.656c-1.176 0-2.13.875-2.13 1.954s.954 1.953 2.13 1.953c1.175 0 2.129-.874 2.129-1.953 0-1.08-.954-1.954-2.13-1.954zm123.312.576 1.553.967s-.95.4-2.068.949c-3.037 1.488-3.918 2.58-2.87 3.553.376.347.819.498 1.616.222 2.105-.75 4.068-2.071 6.032-3.115l1.167.736c-.027-.049-4.643 3.012-7.163 4.3-3.958 1.864-6.218-1.948-4.017-4.493 1.699-1.55 3.518-2.058 5.75-3.12zm-123.312.283c.658 0 1.193.49 1.193 1.095 0 .604-.535 1.094-1.193 1.094-.66 0-1.193-.49-1.193-1.094 0-.605.534-1.095 1.193-1.095zm125.739 1.024.848.524s-.091.039-2.684 1.406c-2.821 1.487-2.945 1.513-3.1 1.279-.14-.07.053-.678.92-1.213 1.518-.937 4.203-2.075 4.016-1.996zm-73.396.075c1.922-.034 3.88.804 4.998 2.596.57 1.36.619 2.624.612 4.053l-.046 9.594h-10.943s-.508-6.54 0-11.982c.497-2.734 2.908-4.217 5.379-4.26zm-33.985 1.42c.695-.046 1.206.58 1.866 1.935.654 1.343.162 2.102-1.892 2.917-.26.103-.556.179-.658.17-2.078-.182-2.928-2.38-1.435-3.714.925-.827 1.578-1.271 2.119-1.307zm111.217.982.951.543s-.487.405-4.021 2.77c-2.854 1.91-3.265 2.43-2.669 3.501.481.866 1.525.753 2.967-.264 2-1.41 5.148-3.799 5.148-3.799l.102 1.633c-2.071 1.528-4.571 4.133-6.561 5.125-3.84 1.736-6.595-3.031-3.085-5.38 3.025-2.024 7.168-4.129 7.168-4.129Zm-76.816.005c-2.86-.022-3.924 3.874-.848 4.7.885.435.811.66.221 2.6-.357 1.175-.473 2.623-.278 3.544.23 1.174.514 1.146.396-.113.004-.69.777-2.528 1.548-3.681 2.853-3.649 2.105-7.015-1.039-7.05zm-66.644.047c1.887.012 2.944 2.424 1.307 3.464-1.16.737-3.586-.162-3.58-1.326.006-.992.857-1.937 1.888-2.105.132-.021.26-.034.385-.033zm5.43.203c.595-.001.936.797.931 2.378-.006 2.268-.884 4.244-2.396 5.399-2.189 1.672-2.678-2.885-.632-5.899.852-1.255 1.573-1.877 2.098-1.878zm140.035.6c.54-.008.455.37-.17.769-.484.309-1.308.928-3.856 2.902-.463.358-1.126.825-1.47 1.038-.85.522-1.569.386-1.158-.217.405-.594 6.17-4.486 6.654-4.493zm-128.238.103c1.848 0 3.348 1.372 3.348 3.067 0 1.696-1.5 3.073-3.348 3.073-1.847 0-3.348-1.377-3.348-3.073 0-1.695 1.5-3.067 3.348-3.067zm0 1.114c-1.176 0-2.129.875-2.129 1.953 0 1.08.953 1.954 2.13 1.954 1.175 0 2.128-.875 2.128-1.954 0-1.078-.953-1.953-2.129-1.953zm-40.033.056c22.641 10.505 36.755 30.158 40.239 52.546l11-16.012 2.971 1.03-16.028 23.971-.694-.198c-.067-23.42-12.787-45.574-37.539-57.731zm40.033.803c.659 0 1.193.49 1.193 1.094 0 .605-.534 1.095-1.193 1.095s-1.193-.49-1.193-1.095c0-.604.534-1.094 1.193-1.094zm-9.343.127a37.052 37.052 0 0 0 4.057 6.526c-1.888-1.627-3.952-1.557-5.996-1.802zm26.92.434c.35-.015.702.12.976.467.926 1.168 1.097 2.252.453 2.837-.882.8-2.287.484-2.92-.656-.66-1.187.436-2.6 1.49-2.648zm111.032 1.624.036 1.816s-.423.466-.87.85c-1.261 1.083-2.987 2.81-3.11 3.251-.401 1.433 1.142 1.959 2.663.906.525-.363 1.28-.915 1.28-.915v2.236c-1.283 1.002-2.562 1.986-4.314 1.662-1.02-.286-1.916-1.023-2.103-1.964-.731-2.818 2.243-4.39 4.55-6.276.745-.608 1.868-1.566 1.868-1.566zm-123.893 1.585c.056-.002.112 0 .17 0 1.847 0 3.347 1.372 3.347 3.067 0 1.696-1.5 3.072-3.348 3.072-1.847 0-3.347-1.376-3.347-3.072 0-1.642 1.41-2.985 3.178-3.067zm67.22.69c1.824-.008 2.79 2.247 1.321 3.524-.577.502-1.88.859-2.617.387-2.034-1.3-.537-3.826 1.295-3.912zm-3.641 1.788c1.056 1.027 1.855 4.013 1.234 4.577-1.376 1.303-5.374-3.032-5.135-5.865.424-1.7 3.51.908 3.9 1.288zm-48.924-1.628c.764.003.908.633.735 1.005-.164.354-.763.382-1.239.203-.81-.305-.43-1.213.504-1.208zm-14.486.264c-1.175 0-2.129.874-2.129 1.953 0 1.08.954 1.954 2.13 1.954 1.175 0 2.128-.875 2.128-1.954s-.953-1.953-2.129-1.953zm-15.936.859c4.038.004 8.297 2.922 4.592 3.501-2.75.43-4.533-.07-6.674-1.864-1.089-.912-.701-1.396 1.28-1.6a7.79 7.79 0 0 1 .802-.037zm15.936 0c.659 0 1.193.49 1.193 1.094 0 .605-.534 1.095-1.193 1.095-.658 0-1.193-.49-1.193-1.095 0-.604.535-1.094 1.193-1.094zm5.59 2.78c.057-.004.117 0 .175 0 1.847 0 3.347 1.371 3.347 3.066 0 1.696-1.5 3.072-3.347 3.072-1.848 0-3.348-1.376-3.348-3.072 0-1.642 1.405-2.985 3.173-3.067zm65.785.155c.955-.015 1.794.15 2.278.557.593.497-.298 1.452-2.113 2.265-2.122.949-5.822.817-5.816-.208.008-1.363 3.21-2.577 5.651-2.614zm-80.59.807c1.856.009 2.358 5.29.746 7.82-.836 1.312-1.962.434-2.767-2.158-.66-2.125.606-5.67 2.021-5.662zm14.98.15c-1.176 0-2.13.876-2.13 1.954 0 1.08.954 1.954 2.13 1.954s2.129-.875 2.129-1.954c0-1.078-.953-1.953-2.13-1.953zm69.364.345c.158.003.358.075.622.194 2.026.913 3.499 5.173 2.443 7.073-1.112 2.001-3.611-1.85-3.59-5.53.008-1.204.093-1.688.458-1.732.02-.002.045-.005.067-.005zm-89.604.274c.043-.002.086-.002.128 0 1.832.041 3.164 2.365 1.44 3.558-.754.522-1.915.605-2.628.189a1.972 1.972 0 0 1 .134-3.511c.313-.15.625-.225.926-.236zm20.24.24c.658 0 1.193.491 1.193 1.095 0 .605-.535 1.095-1.193 1.095-.659 0-1.193-.49-1.193-1.095 0-.604.534-1.094 1.193-1.094zm-12.506.369c1.003 1.369 5.063 4.982 5.625 5.294-1.794-.532-3.64-.307-5.486-.08.208-1.25.427-3.303-.14-5.214zm65.26.311c27.528 5.913 44.332 32.718 37.688 57.864 0 0-2.317-1.188-2.684-1.756.974-4.35 1.573-11.242.355-18.172-2.067-11.755-12.45-29.004-35.2-34.92-.25-.76-.159-3.016-.159-3.016zm14.833.184c.312 1.72.612 3.453 1.073 5-1.939-1.279-4.136-2.377-6.384-3.265 1.606-.31 3.072-.57 5.311-1.735zm7.937.552c1.096-.026 2.21.691 2.186 1.93-.01.546-.645 1.525-1.136 1.756-1.83.856-3.707-.775-2.9-2.52.361-.783 1.101-1.148 1.85-1.166zm-69.158.666c1.847 0 3.348 1.372 3.348 3.067s-1.5 3.072-3.348 3.072c-1.848 0-3.348-1.377-3.348-3.072s1.5-3.067 3.348-3.067zm0 1.113c-1.176 0-2.129.875-2.129 1.954s.953 1.954 2.129 1.954c1.175 0 2.129-.875 2.129-1.954s-.954-1.954-2.13-1.954zm-56.961.293c13.677 7.408 25.947 23.162 26.858 40.98l-3.312-1.987c-1.426-12-8.12-25.058-23.654-35.76 0 0 .04-1.153.108-3.233zm75.74 0h17.68v3.497l5.301-2.506v7.734l-5.301-2.944v3.374h-17.68v-3.549l-5.414 2.402.061-7.697 5.354 2.76zm-18.78.566c.66 0 1.194.49 1.194 1.095 0 .604-.535 1.095-1.193 1.095-.659 0-1.193-.49-1.193-1.095 0-.604.534-1.095 1.193-1.095zm6.953.614c.022-.002.045 0 .067 0l.211 1.113c-.035-.001-.068-.004-.103-.004-1.176 0-2.129.874-2.129 1.953 0 1.08.953 1.954 2.13 1.954.283 0 .553-.049.801-.142l.206 1.119a3.599 3.599 0 0 1-1.008.141c-1.847 0-3.348-1.376-3.348-3.072 0-1.642 1.406-2.98 3.173-3.062zm39.935.387c.059-.003.116 0 .175 0 1.848 0 3.348 1.371 3.348 3.067 0 1.456-1.11 2.671-2.592 2.987l-.2-1.104c.905-.225 1.573-.981 1.573-1.883 0-1.08-.953-1.954-2.129-1.954-.048 0-.097.002-.144.005l-.206-1.104c.057-.006.117-.012.175-.014zm23.475 1.038c4.128.02 5.841 2.195 2.458 3.119-1.568.428-3.62.201-5.646-.623-1.69-.687.637-2.509 3.188-2.496zm-86.293.207c.999-.003 1.966.138 2.68.449 1.725.75 1.685 1.26-.16 2.236-2.573 1.363-8.634-.016-6.803-1.547.86-.72 2.619-1.132 4.283-1.138zm23.058.335c.092 0 .182.01.268.029l.37 1.991c-.185.108-.403.17-.638.17-.659 0-1.193-.49-1.193-1.095 0-.604.534-1.095 1.193-1.095zm39.945.392c.654.005 1.183.494 1.183 1.095 0 .477-.333.878-.797 1.029zm7.282.783c1.847 0 3.347 1.372 3.347 3.068 0 1.695-1.5 3.072-3.347 3.072-1.848 0-3.348-1.377-3.348-3.072 0-1.696 1.5-3.068 3.348-3.068zm-65.168.774c.198-.01.423.075.663.255 2.006 1.505 3.006 4.69 2.216 7.06-.753 2.26-3.88-1.754-3.861-4.955.008-1.477.386-2.33.982-2.36zm86.673.27c.276.001.57.195.859.636 1.246 1.904 1.189 5.836-.103 7.06-.733.695-1.006.563-1.77-.854-1.304-2.423-.32-6.852 1.014-6.843zm-21.505.07c-1.176 0-2.13.875-2.13 1.954s.954 1.953 2.13 1.953 2.129-.874 2.129-1.953c0-1.08-.953-1.954-2.13-1.954zm-62.51.524c2.528 1.464 5.115 2.8 7.806 3.912-2.518-.547-4.38.23-6.3 1.274.37-1.932-.348-3.504-1.506-5.186zm75.952.413c1.884.245 3.749.528 5.934.15a15.601 15.601 0 0 0-.367 5.203c-1.626-1.93-3.439-3.742-5.567-5.353zm-13.442-.078c.659 0 1.193.49 1.193 1.095 0 .604-.534 1.095-1.193 1.095s-1.193-.49-1.193-1.095.534-1.095 1.193-1.095zm-69.02.755c.372.007.767.103 1.178.288 1.548.697 1.594 2.421.087 3.322-1.894 1.133-4.365-.855-3.183-2.562.454-.656 1.062-1.008 1.759-1.043.052-.003.106-.006.16-.005zm75.736 1.284c1.847 0 3.347 1.371 3.347 3.067 0 1.695-1.5 3.072-3.347 3.072-1.848 0-3.348-1.377-3.348-3.072 0-1.696 1.5-3.067 3.348-3.067zm19.581.514c.323-.006.659.061.993.222 1.19.572 1.44 2.022.494 2.869-1.048.938-2.478.776-3.183-.359-.805-1.295.299-2.708 1.696-2.732zm-32.288.453c16.477 5.147 27.511 21.968 24.853 38.162l-2.057-1.784c1.566-9.177-3.926-26.712-22.277-33.91zm12.707.146c-1.176 0-2.13.875-2.13 1.954s.954 1.954 2.13 1.954c1.175 0 2.129-.875 2.129-1.954 0-1.08-.954-1.954-2.13-1.954zm0 .86c.658 0 1.193.49 1.193 1.094 0 .604-.535 1.095-1.193 1.095-.659 0-1.193-.49-1.193-1.095s.534-1.095 1.193-1.095zm-62.649.193c.84.068 2.26-.071 2.592.655.374.92-1.681 2.51-4.289 2.822-1.061.058-3.336.306-3.815-.396-.45-.876 2.62-3.055 5.512-3.081zm-52.307.538c2.227-.09 4.738 2.644 2.484 4.874-1.805 1.714-5.497 4.049-5.497 4.049v-1.5s3.617-2.43 3.676-3.52c.008-1.27-1.13-1.986-2.401-1.223-.251.15-1.245.892-1.245.892l.083-2.515c.673-.677 1.862-1.015 2.9-1.057zm56.9.641c1.65.058 5.48 5.475 4.504 6.583-.773.878-3.882-1.069-5.05-3.161-.627-1.124-.438-3.126.319-3.389a.619.619 0 0 1 .226-.033zm25.464.656s.17 12.604-.602 13.794c-3.095 5.14-9.776 2.465-10.346-1.388-.41-2.323-.165-12.382-.165-12.382zm.977 0h10.675s-.047 17.74-.478 18.758c-.35.828-1.9 2.257-2.874 2.647-3.136 1.257-6.488-.526-7.318-3.893-.598-2.428-.005-17.512-.005-17.512zm11.57 0h7.086s.243.94.525 1.713c.49 1.348 2.162 5.214 2.355 5.45.865 1.06.908 12.657.051 13.978-3.125 4.3-8.327 3.05-10.228-1.713-.476-1.526.211-19.428.211-19.428zm8.264.44c12.708 5.539 22.435 17.284 21.217 32.357l-2.335-2.138c.852-10.403-7.778-23.406-17.849-27.27zm17.499.353c1.847 0 3.347 1.372 3.347 3.067 0 1.696-1.5 3.072-3.347 3.072-1.848 0-3.348-1.376-3.348-3.072 0-1.695 1.5-3.067 3.348-3.067zm12.537.311c1.243.017 2.762.411 3.898 1.27 1.357 1.027 1.546 1.84.493 2.138-2.034.575-4.477.018-6.011-1.369-1.425-1.288-.197-2.063 1.62-2.039zm-12.537.803c-1.176 0-2.129.874-2.129 1.953 0 1.08.953 1.954 2.129 1.954 1.175 0 2.129-.875 2.129-1.954s-.954-1.953-2.13-1.953zm-66.963.245c1.783.009 2.601 2.312 1.234 3.478-.56.478-2.09.58-2.756.184-1.831-1.09-.758-3.673 1.522-3.662zm23.567.585c-.59 1.558-1.539 3.315-2.324 4.516-2.105 3.22-1.831 5.38.39 6.47 3.263 1.601 5.633-2.698 2.418-4.384-1.128-.591-1.128-.599-.72-2.194.509-1.991.598-4.366.236-4.408zm43.396.029c.658 0 1.193.49 1.193 1.094 0 .605-.535 1.095-1.193 1.095-.659 0-1.193-.49-1.193-1.095 0-.604.534-1.094 1.193-1.094zm-31.954.632c-.15-.01-.035.792-.047 2.213-.018 2.294-.227 2.992-1.825 6.069-2.04 3.928-1.769 6.613.761 7.484 1.965.676 3.875-.703 3.888-2.808.005-1.002-.482-1.788-1.23-1.991-.676-.04-1.425-.33-1.372-.628.414-2.346 2.63-6.765-.175-10.34zm42.218.316c1.652.954 3.351 1.859 5.81 1.973-1.047 2.305-.94 3.99-1.115 5.827-1.052-2.475-2.676-5.214-4.695-7.8zm-126.048.359a2.83 2.83 0 0 1 .396.023c1.58.226 2.914 2.082 2.49 3.464-.372 1.207-.487 1.41-5.57 4.525-2.82 1.729-3.116 1.803-3.116 1.803l-1.512-.934s1.28-.784 3.306-2.034c3.9-2.406 4.474-2.979 4.073-4.054-.436-1.168-1.895-.922-4.201.708-3.414 2.413-3.77 2.572-3.77 2.572v-1.44s1.497-1.092 2.145-1.604c1.583-1.032 3.769-3.01 5.76-3.03zm101 .627c.383-.003.678.325.545.637-.064.15-.288.247-.586.246-.613-.003-.645-.801-.036-.878a.638.638 0 0 1 .077-.005zm34.273 1.675c.722 2.27-.83 6.056-1.78 6.54-1.013.92-1.647.043-1.866-2.335.006-1.929 2.413-7.957 3.646-4.205zm-40.64-1.274c.31 3.272.423 5.989-1.249 8.646-2.167 3.445-1.605 6.398.715 7.05 2.31.649 4.353-.869 3.944-2.93-.125-.632-1.07-1.663-1.645-1.799-.711-.167-.796-.572-.391-1.868.784-2.513.52-5.695-.664-7.994-.109-.344-.543-1.117-.71-1.105zm7.776 1.09c1.949.01 2.868 2.336 1.409 3.563-.813.684-1.33.374-2.18-1.302-.79-1.555-.546-2.267.77-2.26zm18.152.477c1.848 0 3.348 1.372 3.348 3.067 0 1.696-1.5 3.072-3.348 3.072-1.847 0-3.348-1.376-3.348-3.072 0-1.695 1.5-3.067 3.348-3.067zm0 1.114c-1.176 0-2.129.875-2.129 1.953 0 1.08.953 1.954 2.13 1.954 1.175 0 2.128-.875 2.128-1.954 0-1.078-.953-1.953-2.129-1.953zm0 .859c.659 0 1.193.49 1.193 1.094 0 .605-.534 1.095-1.193 1.095s-1.193-.49-1.193-1.095c0-.604.534-1.094 1.193-1.094zm-14.362.807c.273-.01.539.031.786.141 1.764.783 1.571 3.023-.375 4.36-1.232.847-1.752.554-2.9-1.632-.623-1.186 1.012-2.813 2.489-2.87zm-102.208.254c.18.005.347.03.509.071 1.818.46 2.969 2.405 2.514 3.884-1.002 2.28-4.396 3.047-6.973 4.002l-1.337-.897s1.89-.985 3.723-1.76c1.718-.726 1.995-1.015 1.867-1.93-.25-1.788-1.192-1.724-5.461.387-1.737.858-3.013 1.618-3.013 1.618l-.947-.712c1.413-.854 2.262-1.326 3.806-2.294 2.578-1.62 4.048-2.316 5.127-2.364.062-.003.125-.006.185-.005zm135.783 1.325c.622 1.733-.645 3.253-2.555 2.572-1.037-.37-1.772-1.586-1.128-2.712.858-1.236 3.266-1.022 3.683.14zm-38.317-.603 3.009 4.96s.04 1.38.067 2.147c.115 3.22.865 4.286 2.92 3.973.147-.022.88-.217.88-.217l1.306 2.02s-1.413.566-1.78.637c-2.42.466-5.768-1.201-6.288-3.43-.504-2.158-.114-10.09-.114-10.09zm-98.546 2.039c.908.06.522.697.103.906-1.767.826-3.437 1.724-5.282 2.7l-1.234-.704s.953-.488 1.61-.859c2.021-1.14 4.08-2.016 4.803-2.043zm120.895.637c1.847 0 3.347 1.372 3.347 3.067 0 1.696-1.5 3.072-3.347 3.072-1.848 0-3.348-1.376-3.348-3.072 0-1.695 1.5-3.067 3.348-3.067zm-14.162.42c.77-.02 1.413.283 1.83.92.894 1.362-.052 3.025-2.22 3.912-1.212.495-1.414.393-2.706-1.364-.873-1.187-.867-1.4.098-2.156 1.082-.847 2.125-1.29 2.998-1.312zm-117.486.269 47.942 28.488-1.368 2.133L32.91 909.82zm142.452.368c2.913.051 6.715 3.147 5.368 4.37a.976.976 0 0 1-.617.217c-4.159-.225-8.75-4.657-4.751-4.587zm-10.804.057c-1.176 0-2.13.874-2.13 1.953 0 1.08.954 1.954 2.13 1.954 1.175 0 2.129-.875 2.129-1.954s-.954-1.953-2.13-1.953zm-64.027.542 1.27 3.03-23.86 34.859-2.345-1.383zm64.027.317c.658 0 1.193.49 1.193 1.094 0 .605-.535 1.095-1.193 1.095-.659 0-1.193-.49-1.193-1.095 0-.604.534-1.094 1.193-1.094zm8.762.363c1.169 1.993 3.115 3.215 5.328 4.072-2.09 1.583-3.142 3.635-3.06 5.781-.53-3.221-.988-6.425-2.268-9.853zM47.093 909.82c.512.004.973.102 1.337.33 4.472 2.812.366 5.593-.015 5.375l-1.522-.882c.523-.796 1.711-1.876-.2-2.883-1.086-.434-2.295.087-3.349.76l-1.599-1.006s3.132-1.709 5.348-1.694zm105.448 1.59a2.42 2.42 0 0 1 .494.034c2.523.447 2.349 2.905-.288 4.044-1.5.648-1.766.516-3.076-1.548-.614-.969 1.242-2.48 2.87-2.53zm-106.255.902c.269.006.612.222.653.425.13.645-1.172 1.292-1.172 1.292l-1.497-.91c.64-.324 1.308-.762 2.016-.807zm134.465.59c.366-.026.634.132.74.533.512 1.91-1.8 5.45-3.933 6.026-1.246.336-1.606-.202-1.198-1.784.573-2.222 3.086-4.681 4.391-4.775zm-77.33.146 3.883 2.586-23.294 33.788-4.032-2.2zm63.39.274c1.847 0 3.347 1.372 3.347 3.067s-1.5 3.072-3.347 3.072c-1.848 0-3.348-1.377-3.348-3.072s1.5-3.067 3.348-3.067zm0 1.113c-1.176 0-2.13.875-2.13 1.954s.954 1.954 2.13 1.954c1.175 0 2.129-.875 2.129-1.954s-.954-1.954-2.13-1.954zm0 .86c.658 0 1.193.49 1.193 1.094 0 .604-.535 1.095-1.193 1.095-.659 0-1.193-.49-1.193-1.095 0-.604.534-1.095 1.193-1.095zm-53.526.112c2.527 2.616 5.367 8.465 15.283 5.706 3.377 2.525 8.042 3.963 13.791 1.16l.041 15.762-44.023.042zm-80.405.402 43.355 26.185-1.358 2.199-42.038-24.656zm121.713.023c.04 0 .077.003.108.01 2.216.497 2.466 2.53.406 3.307-1.103.417-1.328.313-2.381-1.108-.42-.568-.657-1.038-.596-1.18.147-.348 1.842-1.036 2.463-1.029zm27.82 2.152c.774.005 1.545.381 1.907 1.123.543 1.113.23 2.048-.89 2.666-1.852 1.024-3.923-.856-2.961-2.69.386-.737 1.169-1.104 1.943-1.099zm-27.147 2.138c1.023.004 1.88.9 1.384 1.444-.33.36-.754.257-1.296-.317-.637-.672-.674-1.13-.088-1.127zm12.43.391c1.847 0 3.347 1.372 3.347 3.068 0 1.695-1.5 3.072-3.348 3.072-1.847 0-3.347-1.377-3.347-3.072 0-1.696 1.5-3.068 3.347-3.068zm9.43.17c2.523.013 6.019 3.88 5.425 6.003-.193.692-1.609.318-3.29-.869-2.274-1.603-3.745-5.142-2.135-5.134zm-9.43.944c-1.177 0-2.13.875-2.13 1.954s.953 1.953 2.13 1.953c1.175 0 2.128-.874 2.128-1.953 0-1.08-.953-1.954-2.129-1.954zm8.109.396c.696 1.873 1.41 3.823 4.556 5.177-4.882 2.087-5.813 5.602-5.08 10.108l-1.143-.642c1.046-4.037 1.839-8.636 1.667-14.643zm-8.11.463c.659 0 1.193.49 1.193 1.095 0 .604-.534 1.094-1.193 1.094-.658 0-1.193-.49-1.193-1.094 0-.605.535-1.095 1.193-1.095zm-.622 4.931c1.848 0 3.348 1.372 3.348 3.067 0 1.072-.6 2.018-1.507 2.568l-1.08-.741c.8-.282 1.368-.994 1.368-1.827 0-1.079-.953-1.953-2.129-1.953-1.12 0-2.034.795-2.119 1.802l-1.085-.745c.42-1.256 1.697-2.17 3.204-2.17zm15.231.392c1.593.008-.883 4.062-3.157 5.167-1.731.841-3.316.907-3.312.137.012-2.016 4.037-5.316 6.47-5.304zm-15.231 1.58c.659 0 1.193.491 1.193 1.095 0 .605-.534 1.095-1.193 1.095-.654-.065-1.186-.537-1.193-1.095 0-.604.534-1.094 1.193-1.094zm14.717 3.696c.784.01 1.562.321 1.893.93.427.785.264 1.487-.52 2.198-1.925 1.748-4.544-.047-3.286-2.25.342-.6 1.129-.889 1.913-.878zm-6.155 1.647c2.681.076 4.71 3.138 4.227 4.87-.425.458-3.379-1.598-3.697-1.808-.378-.613-.4-1.606-.53-3.062zm-3.656 1.897 8.402 4.634-8.382 4.94zm-74.82 2.293 45.133.15.005 1.742-46.373.024 1.234-1.916zm-1.841 2.723h3.034v3.393h-4.166v-1.874zm43.37.08h3.65v3.393h-3.65zm-35.827.024h4.155v3.392h-4.155zm8.644.028h4.49v3.393h-4.49zm9.185 0h4.32v3.393h-4.32zm9.225.056h4.114v3.393h-4.114zm-37.58 4.181 50.06.109v2.034l-51.49-.109zm42.712 4.285c5.097-.051 8.066 5.169 4.083 8.834-3.662 3.37-9.77-.934-6.721-4.724 1.703-2.115 5.889-.41 4.844 1.846-.688 1.484-2.944.792-2.875-.817.004-.646-.516-.204-.576.482-.076.87.898 1.833 2.032 1.835 2.957.006 3.4-3.591.55-4.912-2.547-1.18-5.228.325-5.847 3.312-.067.327-.487 1.142-.807 1.718-.942 1.735-1.246 2.737-1.718 4.72-.217.247-.877.642-1.337.853-1.453.667-1.392.386-.848-1.784 1.566-6.247 4.126-10.271 7.256-11.089a8.096 8.096 0 0 1 1.964-.274zm15.072.326c3.147-.062 5.517 2.317 5.93 4.154 1.808 5.592-6.281 9.017-9.1 3.95-1.576-2.895 1.687-6.35 4.677-5.004 2.447 1.103 2.289 4.528-.211 4.516-1.358.059-2.184-1.06-1.435-1.958.389-.354.854-.077 1.05-.67.08-.249-.304-.446-1.23-.274-1.535.286-1.379 3.125.401 3.69 2.651.842 4.918-1.723 3.656-4.26-1.517-3.052-5.624-3.065-7.502.127-.273.463-.7 1.126-.936 1.42-2.802 3.49-3.023 4.011-3.857 5.955-.083.194-.23.338-.483.312a6.37 6.37 0 0 0-2.047.34c-.35-.085.115-1.31.15-1.402 1.908-5.408 6.81-10.765 10.937-10.896zm-24.385 1.52c-.664 1.062-2.663 4.513-4.047 9.612-.365-.208-1.347-.584-2.057-.812-.269-.086-.05-.371-.067-.802.505-2.3 2.124-6.32 3.909-8.367.379-.255 2.814-.336 2.262.368zm2.854 1.019c-1.71 2.002-3.494 7.324-3.867 10.07-.056.415-.138.874-.185 1.02-.266.82-1.941-.943-1.933-2.035.013-1.854 2.252-7.502 3.851-9.66.557-.751.624-.876 1.815-.915 1.914-.044 1.073.636.32 1.52zM45 951.842c-.422.01-.842.06-1.254.151-2.476.564-5.427 2.972-5.713 5.526-.136.077-.474 1.864-.258 2.77.819 3.429 2.999 5.754 5.667 9.155 0 0-3.351 4.768-5.651 6.97l5.44 7.225c-1.504 2.726-4.12 4.79-4.777 8.154-1.026 4.43 1.502 8.747 6.88 9.145 4.014.11 6.645-2.378 7.143-6.149.203-2.506-.92-5.65-4.962-10.617-.2-.246-.591-.755-.591-.755s.454-.489.694-.817c1.42-1.764 5.127-6.078 5.127-6.078l-5.539-7.187s.24-.483.669-1.019c4.52-5.657 5.362-8.533 4.561-11.344-.315-1.108-1.066-1.96-2.083-2.907-1.643-1.531-3.524-2.263-5.353-2.223zm-.128.694c1.766-.023 3.588.626 5.065 2.043 3.396 3.262 3.096 6.02-1.316 12.053-.969 1.323-1.919 2.779-1.919 2.779l5.57 7.06s-.903 1.239-1.841 2.25c-2.547 2.746-3.97 4.72-3.97 4.72.964 1.359 2.532 2.811 3.517 4.445 1.19 1.85 1.898 3.695 2.108 5.384.444 3.552-2.072 7.336-6.376 7.428-4.177.026-7.357-3.168-7.266-7.178.04-1.788.846-3.44 1.825-5.05 1.002-1.637 3.348-4.822 3.348-4.822l-5.39-7.21 5.709-6.994s-4.151-4.664-5.425-8.027c-1.035-3.818.904-5.995 1.162-6.328 1.265-1.634 3.197-2.526 5.199-2.553zm-3.532 10.13c.829 1.981 2.177 3.456 3.703 4.863 1.414-1.517 2.993-3.513 3.86-5.417 4.17-9.17-11.94-9.918-7.563.554zm3.642 3.962c-2.044-2.182-3.488-3.997-3.628-6.875-.224-5.701 7.897-5.061 7.493.036-.452 2.775-2.04 4.53-3.865 6.839zm100.653-8.962c.156.802 1.009 2.161.936 2.482-.395.842-.972 1.26-1.774 2.647-.169.296-.09.356-.54.283-.423-.055-1.167-.268-1.564-.373-.226-.06-.487-.173-.38-.438.77-1.626 1.633-3.564 3.322-4.601zm-13.463 2.453-.955 2.274c-.09.245-.1.285-.38.231-.545-.063-1.022-.102-1.565-.065-1.185-.133 1.047-4.197 1.382-4.812.485.075 1.202 1.81 1.518 2.372zm.9.524a.324.324 0 0 1 .062 0c.486.058 1.21.299 1.748.515.297.112.306.12.175.457-.274.501-.61 1.944-.972 2.449-.01.073-1.688-.915-2.166-1.106-.018-.274.531-2.238 1.153-2.315zm14.229.27c.555.017 1.24.48 1.615.745.176.32.015.64-.602 1.618-.546.865-1.116 1.799-1.255 1.7-.414-.3-1.183-.686-1.563-1.166-.283-.359.256-1.274.622-1.775.578-.79.857-1.075 1.183-1.123zm-9.05-.116c.513.105-.3 2.53-.453 2.833-.485.667-1.24 1.544-1.841 1.897-.307.18-1.25-.337-1.229-.943.015-.431.914-2.604 1.213-3.181.043-.085 1.734-.597 2.31-.606zm-20.935.927a4.16 4.16 0 0 1 .345.005c2.016-.054 4.088.858 5.394 2.897.617.964.625 1.006.483 1.906-.333 2.117-.217 3.54.391 4.837.693 1.478.589 1.985-1.105 5.271-1.7 3.31-3.764 7.34-5.333 11.076-.696 1.6-1.334 3.414-1.733 4.898-.262.933-1.504.653-2.74.609-.63.126.907-3.758 3.182-8.4 1.822-3.716 4.3-7.901 5.289-12.06.806-3.39.548-4.783.106-6.207-1.706-4.142-7.64-3.127-7.626.689.127 2.472 3.243 3.797 4.386 1.373.19-1.114-.409-.466-.91.076-1.075 1.16-2.918-.13-2.628-1.84.38-2.248 3.542-2.986 5.07-1.209 1.674 1.947 1.307 3.954-1.11 5.46-2.49 1.679-4.758.724-6.001-1.02-2.656-3.915.975-8.26 4.54-8.361zm12.316 1.642c2.472.047 5.156 1.948 5.59 3.453.233 1.021-.125 2.224.272 3.21.331.79.65 1.246.412 1.95-2.035 6.007-6.837 12.414-9.21 19.526-.274.495-.524.557-1.137.717-.948.248-1.319.223-1.419-.23-.095-.434.223-1.255.777-2.795.663-1.844 2.131-5.003 2.992-6.488 2.007-3.46 3.125-5.826 4.582-8.782.273-.552.35-.88.777-1.675 1.836-3.417-.239-6.786-4.042-6.805-3.014-.015-4.361 4.316-1.723 5.583 2.58 1.238 4.506-2.015 2.211-3.167-.553-.278-.696-.012-.252.477 1.022 1.126.105 2.641-1.316 2.038-2.201-.933-1.067-4.375 1.501-4.176 3.966.307 4.482 5.6.438 6.942-5.56 1.844-8.478-6.371-3.245-9.136.868-.459 1.834-.657 2.792-.642zm11.714.165c1.463-.033 3 .445 4.263 1.557 3.11 2.74 2.281 6.97-2.972 15.148-1.72 2.741-3.399 6.033-4.315 8.438-.227.6-.418.903-.935 1.165-.911.462-1.944.519-2.078.194-.342-.831 2.261-5.998 6.896-14.115 1.218-2.163 2.757-4.674 2.679-7.248-.306-2.044-2.158-3.514-4.638-2.845-1.67.45-2.352 2.61-1.121 3.7.513.454 1.145.693 1.553.655.769.023 1.643-.675.154-.75-1.574-.008-2.111-1.823-.782-2.643 1.91-1.177 4.104.21 3.95 2.501-.32 4.607-7.649 3.92-7.842-.826-.12-2.935 2.394-4.867 5.188-4.93zm-20.708 7.376c1.108-.078-.798 5.398-4.13 11.542-1.816 3.403-3.193 7.06-4.607 10.618-.383.476-2.678.563-2.674.07 4.073-11.973 6.95-14.035 8.341-18.597.243-.787.42-1.926.453-2.024 1.029-.271 1.896-1.402 2.617-1.61zm-75.386.807-4.314 5.162 4.211 5.484 4.377-5.243zm93.425 1.595c-.003.618-1.296 3.595-2.262 5.384-4.226 7.827-5.277 9.937-6.006 12.024-.132.376-.346.626-.612.717-.526.18-1.992.439-2.114.255.894-4.574 7.734-14.981 9.06-19.541.533-.022 1.89.72 1.934 1.16zm3.384-.477c.286-.019.4.089.319.44-.133.566-.87 1.901-2.155 4.218-3.56 6.42-5.427 10.224-6.021 12.18-.14.457-.225.817-.464.934-.49.239-2.2.872-2.282.189.534-2.903 2.618-4.791 8.006-16.894.252-.398.473-.592.71-.628.662-.1 1.236-.389 1.887-.439zm-14.604 1.988c-.136.747-1.07 2.313-2.612 5.204-2.567 4.81-4.229 8.395-5.235 11.575-.164.517-.388 1.06-.607 1.2-.417.264-2.288.183-2.288.183-.284-1.315 1.974-6.22 4.489-11.377 1.368-2.805 2.954-5.601 4.018-8.118.73.1 2.134.743 2.235 1.333zm3.808-1.24c.762-.006.17 1.168-1.654 4.476-1.479 2.684-3.839 6.448-5.363 10.773a62.943 62.943 0 0 0-1.039 2.634c-.223.641-.432.958-.72 1.09-.55.252-1.88.237-2.113-.024-.371-.415 1.598-5.284 3.517-9.023 1.694-3.142 2.887-5.665 4.35-8.57.401-.576.418-.616.825-.69.846-.063 1.722-.582 2.197-.665zm-85.94.625 2.22 2.728-2.606 2.978-2.17-2.898zm-.335 11.765s-.944.997-1.913 2.576c-2.838 4.337-2.916 7.537.432 9.438 1.413.66 3.255.516 4.417-.415 3.792-3.036.973-7.205-1.476-10.033-.65-.83-1.46-1.566-1.46-1.566zm.139 1.109c1.421 1.539 2.462 2.694 3.41 4.629 1.089 2.599.39 4.642-1.718 5.601-3.333 1.517-6.364-1.89-4.783-5.526 1.172-2.694 3.09-4.704 3.09-4.704zm93.317 5.134c.312.547-31.718 7.346-55.346 1.51l-14.378 19.093 83.006-.132zm-1.214 1.354s7.716 12.256 11.504 18.258h-5.323l-7.585-14.903a91.031 91.031 0 0 1-12.115 2.26l2.7 12.643h-3.985l-2.253-12.08c-5.814.411-11.735.568-17.782.41l-2.607 11.67h-4.17l2.674-11.59c-4.59-.568-9.16-1.104-13.823-1.807l-7.821 13.397h-5.888l12.275-16.814c18.324 3.375 35.222 2.58 54.2-1.444zm-2.9 6.578 6.017 11.68h-11.396l-2.098-10.42zm-48.785.85 9.96 1.184-2.57 9.646H79.484zm32.52 1.44 1.368 9.39H102.27l1.908-9.207z"/></g></g></svg>