<svg xmlns="http://www.w3.org/2000/svg" width="234" height="333"><g transform="translate(0 -719.362)"><rect width="233.244" height="332.244" x=".378" y="719.74" fill="#fff" stroke="gray" stroke-width=".756" rx="8.919" ry="8.946"/><g stroke-width="3.181"><path d="M16.402 775.116h1.605v5.586h-1.605z"/><path d="M26.026 772.445a4.735 4.735 0 0 1-1.83 6.428 4.705 4.705 0 0 1-6.41-1.837 4.726 4.726 0 0 1-.58-1.975 4.717 4.717 0 0 1-5.022 4.396 4.722 4.722 0 0 1-4.382-5.037 4.718 4.718 0 0 1 6.975-3.824 4.74 4.74 0 0 1-1.618-6.483 4.705 4.705 0 0 1 6.463-1.631 4.735 4.735 0 0 1 1.627 6.482 4.771 4.771 0 0 1-1.635 1.642 4.712 4.712 0 0 1 6.412 1.839z"/></g><g stroke-width="3.181"><path d="M216.56 996.608h1.605v-5.586h-1.606z"/><path d="M226.184 999.28a4.734 4.734 0 0 0-1.83-6.428 4.705 4.705 0 0 0-6.41 1.836 4.726 4.726 0 0 0-.581 1.976 4.717 4.717 0 0 0-5.021-4.397 4.722 4.722 0 0 0-4.382 5.037 4.718 4.718 0 0 0 6.975 3.825 4.74 4.74 0 0 0-1.619 6.482 4.705 4.705 0 0 0 6.464 1.632 4.735 4.735 0 0 0 1.626-6.483 4.771 4.771 0 0 0-1.634-1.641 4.712 4.712 0 0 0 6.412-1.84z"/></g><g stroke-width="3.181"><path d="M57.022 793.46h3.21v11.17h-3.21z"/><path d="M76.27 788.116c2.529 4.564.89 10.32-3.66 12.856-4.551 2.536-10.29.891-12.818-3.673a9.451 9.451 0 0 1-1.163-3.95c-.352 5.21-4.848 9.146-10.042 8.791-5.194-.354-9.118-4.864-8.764-10.073.353-5.21 4.85-9.145 10.043-8.791a9.543 9.543 0 0 1 3.906 1.142c-4.45-2.678-5.907-8.483-3.236-12.965 2.67-4.481 8.458-5.943 12.926-3.263 4.468 2.679 5.925 8.484 3.254 12.965a9.543 9.543 0 0 1-3.27 3.283 9.424 9.424 0 0 1 12.825 3.678z"/></g><g aria-label="K" font-family="Levenim MT" font-size="3.772" font-weight="700" letter-spacing="0" style="line-height:0%;-inkscape-font-specification:&quot;Sans Bold&quot;" word-spacing="0"><path d="M27.839 722.44h-6.116l-8.362-12.028v12.028H8.148v-27.096h5.213v9.32l7.35-9.32h6.207l-9.468 12.084z" font-size="37.724" style="line-height:1.25" transform="scale(.95622 1.04578)"/></g><g aria-label="K" font-family="Levenim MT" font-size="3.772" font-weight="700" letter-spacing="0" style="line-height:0%;-inkscape-font-specification:&quot;Sans Bold&quot;" word-spacing="0"><path d="M-216.874-971.724h-6.115l-8.363-12.028v12.028h-5.213v-27.096h5.213v9.32l7.35-9.32h6.207l-9.468 12.084z" font-size="37.724" style="line-height:1.25" transform="scale(-.95622 -1.04578)"/></g><g stroke-width="3.181"><path d="M173.762 978.265h3.211v-11.171h-3.21z"/><path d="M193.012 983.608c2.528-4.564.888-10.32-3.662-12.855-4.55-2.536-10.289-.892-12.817 3.672a9.451 9.451 0 0 0-1.163 3.951c-.352-5.21-4.849-9.146-10.042-8.792-5.194.354-9.118 4.864-8.765 10.074.354 5.209 4.85 9.145 10.044 8.79a9.543 9.543 0 0 0 3.906-1.141c-4.451 2.678-5.908 8.483-3.237 12.964 2.671 4.482 8.459 5.943 12.927 3.264 4.468-2.68 5.925-8.484 3.254-12.966a9.543 9.543 0 0 0-3.27-3.282 9.424 9.424 0 0 0 12.825-3.679z"/></g><g stroke-width="3.181"><path fill="#e2cf00" d="m169.846 759.719-86.768.088 10.951 19.396c22.558-1.803 42.314-.061 62.9.634zM110.35 827.57c-.09.112-3.613.943-3.257 1.684 9.125 18.273 13.177 33.13 16.949 51.89 1.945-1.453 5.082-1.383 5.082-1.383-1.523-6.968 7.945-7.803 7.98-.52 1.816.398 3.685.41 5.32 2.118.808-20.484 8.81-41.653 19.1-56.304-11.683 4.24-28.84 14.853-28.84 14.853s-14.227-5.505-22.334-12.338zm70.915 2.428c-15.577 13.614-21.787 51.533-20.675 52.06-20.015-.689-26.153 19.748-8.84 30.84-.694 2.138-2.394 3.873-3.714 5.758 1.786.957 3.74 1.166 5.69 1.372 1.476 1.633 2.926 3.516 4.534 3.676 1.749-1.013 2.995-2.5 4.453-3.786 1.815-.421 3.616-.888 5.34-1.611-1.518-1.977-3.318-3.978-3.358-5.825 15.12-9.807 13.097-23.222-.479-30.133 4.13-22.566 10.09-36.969 16.985-47.202zm-107.01 17.072c-1.977.885-3.06 2.765-4.496 4.238-1.966.076-3.86.692-5.736 1.46 0 0 4.48 5.778 4.2 6.087-14.622 8.808-14.548 21.758-.568 30.336 2.31 18.438-14.685 47.544-15.535 46.693l-.052 6.03c11.797-12.015 18.526-33.894 19.755-51.879 24.014-1.398 24.94-22.898 8.44-31.044-1.267-1.085 4.177-6.063 4.177-6.063-1.373-1.262-3.677-1.413-5.695-1.574-1.268-1.415-2.373-2.825-4.49-4.284zm101.492 15.236c3.37 7.012 15.801-1.474 17.94 2.258 1.739 2.118 5.542 2.348 5.348-1.211-.702-3.527-3.202-4.317-13.137-2.816-3.77.57-5.315.909-5.286-.683-2.596-2.925-4.845 1.034-4.865 2.452zm11.482 10.255c-2.784-.012-3.293 10.077-3.263 13.107-8.102 11.772 16.498 10.516 5.907-2.375.376-1.679-1.34-4.424-1.29-5.635-.87-.105-1.237-4.663-1.354-5.097zm-141.816 5.571c-4.362.087-9.17 3.783-2.196 9.146.466.15-.24 1.274-.005 3.006 1.957 3.95 1.404 9.786 2.874 8.895 1.7-1.03 3.133-5.382 2.789-11.466-.023-.4-.591-.824-.483-1.255 3.946-5.99.636-8.397-2.979-8.326zm44.593 11.462c-1.189 19.706-6.465 39.026-18.327 55.755 10.175-4.355 20.056-9.985 29.614-14.8l22.253 12.873c1.294-.516 2.189-.768 3.047-1.55-10.226-13.968-13.337-34.032-17.75-52.188-1.708 1.113-4.913 1.664-4.913 1.664-.251 6.292-7.377 8.306-8.803.095zm-53.871 15.19c-2.379.13-4.187 5.583 2.548 6.415 4.753.64 10.849-1.509 13.865-.493 3.494 5.204 6.673-2.428 1.984-3.692-5.036-1.357-15.315 2.102-16.44-.872-.581-1.016-1.29-1.396-1.957-1.359zm40.144 85.512-13.53 21.981 86.007-.18-11.168-21.05c.193-.233-37.578 4.03-61.31-.751z"/><path fill="#d40000" d="m95.674 781.092 1.387 3.096c18.481-2.007 37.816-4.084 57.15.546 0 0 1.43-2.852 1.408-3.06-18.015-4.314-58.337-3.352-59.945-.582zm18.542 43.467 17.543 10.605s8.438-5.486 12.035-7.807l-2.168-2.974c-7.488 15.171-20.515 3.107-25.39-4.061 0 0-1.34 2.765-2.02 4.237zm47.2 5.266c1.218-.02 1.892.418 2.5 1.57.687 1.3.952.981.513-.64-.692-2.554 2.238-4.205 4.986-2.491 1.985 1.237 1.888 4.215-.288 4.759-1.757.44-1.804.866-.262.802 2.768-.115 3.491 3.31 1.517 4.977-2.27 1.916-5.151.542-5.406-1.872-.119-.683-.274-.674-.519-.288-.702 1.11-.772 2.558-.64 3.87l-4.08-2.366c1.458-.663 2.346-1.063 3.402-2.073.138-.132.242-.228.24-.286-.001-.103-.455.034-1.288.111-2.47.23-4.366-1.26-3.852-3.415.438-1.832 1.465-2.628 3.177-2.658zm-18.234 59.418c4.463-4.701 9.996-7.71 17.669-7.26 1.044-19.759 8.497-37.307 20.39-53.098l-12.998-7.305-5.235 2.905c-12.622 16.48-20.414 37.42-19.826 64.758zM45.74 842.722s-8.837 6.091-12.943 9.034l.008 54.495 1.137.365c.081.117-.096-.808.427-1.229.428-.344 1.107-.733 1.509-.867 1.134-.379 1.187-1.08.132-1.688-.819-.473-1.129-1.2-1.03-2.407.07-.852.03-1.038-.35-1.617-.474-.72-.51-1.63-.103-2.572.19-.437.172-.555-.16-1.148-.425-.754-.473-1.566-.153-2.438.123-.334.213-1.064.204-1.628-.035-2.17 1.902-3.603 5.473-4.045 1.396-.172 1.44-.226.802-1.313-3.593-6.134 4.539-9.296 5.143-8.314zm111.203 3.427c3.299-.032 6.004 2.417 6.041 5.476.038 3.059-2.607 5.566-5.906 5.6-3.299.032-6.004-2.422-6.041-5.48-.037-3.06 2.608-5.563 5.906-5.596zm.053.99c-2.641.026-4.756 2.03-4.726 4.48.03 2.45 2.193 4.416 4.834 4.39 2.641-.027 4.76-2.036 4.731-4.486-.03-2.449-2.198-4.411-4.839-4.385zm.119 1.407c1.79-.018 3.262 1.312 3.282 2.973.02 1.66-1.418 3.025-3.21 3.042-1.79.018-3.256-1.316-3.277-2.977-.02-1.661 1.414-3.02 3.205-3.038zm-118.578 1.862c.243-.004.502.032.763.11 1.487.444 2.003 1.66 1.193 2.81-.636.903-.564.98.546.602.873-.297 1.316-.2 2.002.433 2.054 1.899-1.025 5.069-3.036 3.135-.996-.958-1.092-.677-.405.965.223.531.59 1.357.59 1.357l-2.957-.05s.463-1.092.677-1.606c.516-1.241.534-1.423-.536-.645-2.413 1.754-5.131-1.271-2.91-3.236.452-.4 1.175-.415 2.179-.045.731.27.82.084.273-.559-1.192-1.398-.08-3.25 1.621-3.271zm61.286 5.097c-1.229 7.299-.215 17.55-.26 23.027 3.205.578 3.234 2.604 3.718 5.124 1.56-.499 4.962 1.648 5.429 1.462.38-7.408-3.699-28.931-8.887-29.613zm53.187 7.505c4.551.354 3.668 3.612 2.307 4.946-.645.685-.527.994.18.602 1.926-1.071 3.45-.288 4.063 1.57 1.048 3.174-3.456 5.89-5.45 3.037-.675-.967-1.092-.75-.93.26.1.972 1.117 2.99 1.117 2.99l-4.466-.387s1.372-2.1 1.614-2.667c.502-1.174.24-1.489-.718-.544-2.801 2.36-6.662-.688-4.847-3.824.895-1.547 2.536-2.042 4.303-.802 1.191.727 1.45.415.386-.465-1.989-1.645-.24-4.925 2.44-4.716zM38.7 865.2c.05-.002.1-.003.152-.002.383.008.783.108 1.183.318 1.107.583 1.408 1.725.708 2.716-.402.57-.287.93.18.559.625-.498 1.999-.16 2.532.62 1.37 2.005-1.33 4.614-3.043 2.942-.756-.738-1.046-.769-.96-.285.244.907.882 2.455.882 2.455l-3.094.04s.674-1.625.825-2.45c.116-.652-.165-.558-.904.211-.72.748-1.372.823-2.283.259-2.25-1.394-.432-4.945 1.915-3.741.809.414.923.176.293-.602-1.126-1.39.033-2.975 1.614-3.04zm160.621-.711c-5.024 4.78-3.444 1.95-1.135 5.615 0 2.412 1.511 4.305.295 8.107-.388.742-.423 1.096-.215 1.845-.382 4.203-4.013 4.137-7.547 4.777.585-.034 5.565 8.567-3.784 9.206l-.016 34.895 14.692-9.969.126-54.468zm-110.048 18.04c-4.164 2.468-10.023 8.653-17.36 7.28-.964 21.767-8.728 38.595-19.769 53.041 3.788 2.094 7.956 4.605 11.83 6.22 3.287-1.559 5.132-2.206 8.36-4.652 13.279-18.88 17.541-39.556 16.94-61.89zm34.488 4.101c.702 11.184 2.627 21.78 8.87 30.296l.507-23.761c-2.233-.504-4.06-1.85-4.699-5.651zm-45.352 6.438 4.19.107s-.957 1.753-1.372 2.734c-.504 1.198-.267 1.444.691.613 1.248-1.082 3.23-1.175 4.27-.203 2.761 2.583-.15 6.766-3.42 4.915-1.4-.792-1.635-.529-.526.59 2.158 1.87-.112 4.545-2.642 4.547-1.83-.013-3.01-1.373-3.148-2.868a2.462 2.462 0 0 1 1.326-2.337c.92-.475.263-.788-.735-.294-3.259 1.612-5.421-2.564-2.958-4.928 1.42-1.363 2.918-1.23 4.352.08 1.002.915 1.362.836 1.082-.244-.281-1.214-1.11-2.712-1.11-2.712zm113.12 3.667 3.003.014c-.298.688-.682 1.389-.924 2.07-.261.74-.072.835.726.12 2.074-1.28 4.277.016 3.821 2.056-.314 1.407-1.588 2.093-3.055 1.477-1.294-.544-.879-.312-.145.513.872.98.646 2.12-.515 2.871-2.054 1.329-4.752-.9-3.39-2.832.804-1.15.437-1.026-.293-.471-1.095.737-2.743-.318-2.77-1.772-.119-2.093 2.163-3.262 3.763-1.776.763.6.953.527.611-.343-.314-.631-.414-1.307-.832-1.927zm.108 15.216 3.147-.022s-.045.223-.533 1.066c-.573.99-.49 2.018.108 1.323 1.008-1.173 3.139-.838 3.833.602.808 1.678-.785 3.523-2.43 2.814-1.069-.461-1.143-.363-.435.593.69.93.378 2.069-.749 2.73-2.215 1.301-4.855-1.32-3.008-2.985.494-.445.34-.664-.259-.365-2.444 1.222-4.233-1.842-2.117-3.625.901-.76 1.588-.704 3.062.247.459.297.548-.007.22-.756-.56-1.276-.84-1.622-.84-1.622zm-116.835 1.424c3.503-.035 6.372 2.567 6.411 5.815.04 3.249-2.765 5.912-6.267 5.947-3.503.035-6.377-2.572-6.417-5.82-.04-3.249 2.77-5.908 6.273-5.942zm.07 1.05c-2.878.028-5.186 2.211-5.154 4.88.033 2.668 2.393 4.81 5.27 4.781 2.878-.029 5.186-2.217 5.154-4.885-.033-2.669-2.393-4.805-5.27-4.777zm.052 1.855c1.772-.018 3.222 1.298 3.242 2.94.02 1.643-1.398 2.992-3.17 3.01-1.77.017-3.226-1.303-3.246-2.945-.02-1.643 1.403-2.987 3.174-3.005zm-8.022 14.223 3.655 1.672s-1.735 1.3-2.427 1.971c-.883.864-.824 1.27.367.86 2.27-.783 4.537.409 4.572 2.592.047 2.913-3.674 4.302-5.45 2.09-.528-.658-1.16-.933-.914-.396.6 1.306.224 2.946-.83 3.617-.844.537-2.385.69-3.161.314-2.668-1.294-2.797-4.15-.237-5.27 1.287-.562 1.331-1.093.066-.806-2.634.6-4.158-2.36-2.253-4.382 2.022-2.147 5.306-1.69 5.658 1.498.062.567.48.159.67-.71.225-.644.284-3.05.284-3.05zm34.112 4.91s-13.432 7.027-13.025 7.327c.079.044 2.958 3.829 2.958 3.829 6.7-13.954 22.59-2.324 25.117 4.821.552.318.647.228 1.248.48.058-.503 1.18-5.456 1.18-5.456zm-21.68 51.312c-.675.777-2.93 2.98-2.647 3.064 19.69 3.997 40.012 3.755 60.704 1.745l-1.563-4.612c-20.443 4.755-56.494-.197-56.494-.197z"/><path fill="#131f67" d="m30.386 757.403.31 256.882 172.918.036-.14-256.624Zm52.582 2.014 86.243-.026c-4.078 9.724-15.781 25.07-15.23 25.109-17.93-2.812-36.417-4.263-57.113-.24zm-50.594.45 48.397.11 15.87 26.588s.93 1.659.365 3.39c-.618 1.887-1.146 2.725-1.7 3.688.058-.55-4.595-1.113-4.218 2.584.254 2.502 3.664 3.929 6.212 1.992.407-.03.402.32.311.93-.24 1.432-1.896 5.974-3.023 6.272-5.715-4.378-7.787 3.573-3.93 5.173 2.234.926 5.677.179 7.293-2.31 1.237-1.902 1.1-1.588 1.479.729.14.86.341 1.86.444 2.308.324 1.405-.005 1.676-2.554 2.303-2.052.733-4.13 1.135-6.245 1.551-3.865.574-5.848 3.27-5.956 6.557-.023.71.003 1.04-.162 1.25-16.361 5.694-33.753 13.68-52.015 27.359zm109.506 63.38c-.616-.93-2.578-5.81-3.113-7.846-1.384-9.863-1.613-21.567-3.096-30.749l1.996.215s.741 2.66 1.524 9.84c.387 3.56.78 10.96 1.101 14.362.487 5.055 2.92 13.143 4.439 15.188 2.476 3.336 7.484 1.201 5.825-2.754-.86-2.053-4.221-1.732-3.763.396.007.379.32-.27.813-.668 1.454-.505 3.083.902 2.225 2.586-1.067 2.15-4.195 1.156-5.225-1.562-1.23-3.248 2.96-5.665 6.082-3.676 3.477 2.216 3.465 7.802.652 9.556-4.73 1.58-7.93-1.622-9.46-4.887zm11.663 4.15c-.19-.104.009-.443.245-1.248.884-3.012.342-5.367-1.754-7.591-1.167-1.24-1.608-1.459-.993-1.68 1.303-.47 4.17 1.475 4.954 3.381.773 1.872.962 3.805-.144 5.914-.765.45-1.955 1.355-2.308 1.225zm3.567-1.995c-.002-.352.258-1.464.319-2.008.235-2.103-.819-4.242-2.69-5.919-1.57-1.407-1.714-1.552-.224-1.57 3.846-.046 6.278 5.727 4.493 8.56-.458.449-1.854 1.365-1.898.937zm3.262-1.94c1.15-4.91-3.964-8.203-4.068-8.05.26-1.1 2.293-.46 2.984-.029 2.586 1.622 4.061 5.844 2.462 8.235-.174.294-.387.462-.667.62-.536.31-.852.559-.96.34-.082-.166.218-.88.25-1.115zm-45.037-16.1c.537-.485.697-.499 1.726-.135 3.22 1.14 5.803-.996 5.05-3.254-.272-.817-1.478-1.708-2.221-1.782-1.215-.121-1.241.474.067.932 1.607.563 1.764 2.147.345 2.856-1.667 1.037-4.383-1.617-6.383-1.401-.956.261-1.57 1.088-1.028 2.102.423.711 1.86 1.146 2.444.682zm-3.576-.335c-1.117-.485-1.543-.478-1.325-1.609.143-.744 1.306-5.752 1.857-7.688 1.651-5.797.13-9.018-4.483-10.331-3.126-.89-5.822-.454-9.016 1.107l-.568-1.642c13.378-3.197 36.188-2.398 36.106-2.272.445 1.67.61 3.339.78 5.008 0 0-4.267-1.96-6.494-2.615-3.432-.988-8.865.064-9.833 1.889-.55 1.035-.268 1.727 2.044.583 3.784-1.874 11.494-.41 14.206 1.6.625.463.593.564.603 1.104.015.824.067.872-1.168.255-6.472-3.097-12.013-2.76-13.939 1.27-.44-.126-2.12-.4-2.12-.4l1.797 2.482.334 2.592s2.944 1.527 4.568 2.175c1.598.635.68-.038-1.28-1.312-1.44-.936-.291-1.23.659-.87 1.955.423 4.814.961 8.132-.977 1.03-.602 3.383-.068 3.42.206 0 0 .305 2.267.6 6.995.139 2.237.425 5.16.59 6.36.497 3.624.642 3.83-1.407 2.086-.688-.585-1.834-1.556-1.848-1.498-.264 1.122 2.762 3.106 3.466 3.786 1.068 1.032 1.919 3.666 1.489 3.82-.272.098-3.145-2.178-5.406-4.224-.847-.766-2.109-1.794-2.145-1.76-.47.289 1.428 2.289 3.206 3.785 2.075 1.746 2.315 1.903 1.615 2.162-1.294.48-2.454-.126-5.582-2.542-.305-.235-1.49-1.02-1.546-.964-.288.353 2.597 2.903 3.253 3.124 1.22.41 1.567 1.504.603 1.93-.643.284-3.034-.94-4.948-2.49-.343-.277-1.296-.751-1.36-.688-.381.225 1.759 1.954 3.803 3.104 2 1.127 2.32 1.404 1.806 2.333-.48.957-4.871-1.278-7.064-3.571-.467-.488-.836-.699-.744-.535.95 2.467 4.098 4.244 6.442 4.955.419.129 1.025.287 1.298.49.667.495.517 1.006-.208 1.292-2.505.643-6.44-2.181-9.253-5.135-.327-.127-.133.259-.047.387 2.342 3.492 6.841 6.16 9.558 5.674 1.589-.284 2.862.164 2.873.658.01.404-.869 1.046-2.576 1.153-3.863.242-9.884-3.698-13.396-8.7-.11-.156-.24-.213-.249-.12-.1 1.058 2.086 3.66 3.765 5.15 4.986 4.426 9.709 5.932 13.405 3.461 2.085-1.487 4.106-4.747 1.012-5.85-1.638-.584-2.683 1.507-1.278.914 1.844-.2 2.26.709 2.017 1.56-.475 1.462-2.04 1.69-3.309 1.07-2.209-1.12-1.725-4.927 1.142-5.582 2.583-.57 4.828 1.468 5.117 3.394.45 2.992-3.2 6.215-6.12 7.01-9.96 2.71-17.687-10.138-17.73-10.429-.497-.892-1.095-1.366-1.478-.329-.412 1.503-2.674 5.905-3.875 5.874.38-1.554 1.963-4.164 1.59-6.456-.672 1.879-2.086 5.888-4.772 8.016-.697.584-2.737 1.268-1.33-.236 1.702-2.202 3.928-5.213 3.48-8.049-.452.636-.703 2.247-1.22 3.31-1.296 2.662-4.117 5.815-5.974 6.321-1.371.374-1.242-.055.166-1.42 1.508-1.463 4.186-5.765 4.017-7.625-.073-.82-2.787 7.091-7.844 9.242-1.365.458-2.137-.127-2.137-.127 1.988-1.053 7.488-6.045 6.99-11.74 0 0-.295.841-.731 2.104-1.878 5.428-5.884 8.987-8.998 9.272-2.485.227-4.217-.708-3.599-1.116 3.222.033 5.873-.99 7.951-3.895 2.113-2.952 2.913-7.705 1.657-12.742-1.133-4.543-1.371-8.625-1.757-12.99 3.525 1.13 7.074 1.887 10.516.653-.35 1.3-.924 1.459-1.834 2.437-.66.715-.436.887 2.137-.786.75-.487 1.02-.878 1.155-.746.218.213-.128 1.55-.884 4.216-1.13 3.985-.842 4.272 3.286 5.79.77.283 1.058.559 1.327.858.125.14.8 1.275.864 1.315.15.094.115-1.154.033-1.47-.219-.839-.705-1.47-1.132-1.719-.808-.696-1.979-.76-2.728-1.082zm77.85 52.311.056-4.142 4.33 2.87-.058 1.367zm-7.42.875.109-76.622s3.338-2.04 5.006-3.051c1.03 3.041 1 9.555.6 12.454-.659 1.887-.979 10.294-.254 14.574.577 3.412.449 9.052-.117 11.75-.22 1.053-.07 5.997.322 10.571.3 3.496.2 6.673-.262 8.49-.364 1.432-.257 6.567.145 8.539.591 2.9.662 12.21.39 12.715-.717.749-6.315.835-5.939.58zm6.88-80.161s3.347 2.066 4.961 3.1l.011 3.3-4.838-2.951zm-50.095 5.16 2.074.126c.813 3.993 1.155 8.53 1.468 13.078.081 7.011.989 14.41 2.747 19.262l-1.53 1.478c-2.578-5.563-2.752-14.325-3.31-20.257-.231-6.67-1.39-13.645-1.45-13.688zm50.48-.524 4.503 2.848.034 3.59-4.536-2.812zm-47.487.797 1.821.19c.538 4.74 1.377 7.957 1.682 13.176.394 6.751 1.637 12.298 2.403 17.572l-1.366.416c-.915.387-2.408-5.848-3.038-18.48-.19-3.822-.874-8.124-1.502-12.874zm2.755.188 2.175.37c.92 11.993 2.402 23.26 3.972 29.719l-1.893.11c-2.315-9.231-2.43-19.903-4.254-30.199zm3.142.436 1.999.329c2.31 27.43 3.795 27.082 4.255 28.161l-2.167.807c-2.312-7.888-2.746-19-4.087-29.297zm8.985 26.967c-.345.922-1.155.833-2.04.925-.982-2.524-1.55-5.53-1.956-8.472-.89-6.464-1.198-12.523-2.126-18.902l2.384.235c-.077.048 1.615 22.492 3.738 26.214zm-51.24-24.283c3.144.152 5.747 1.47 5.992 3.386.055.431-.313.22-.738-.084-2.697-1.93-5.772-2.54-9.492-1.314-.811.268-1.475.691-1.837.631-.324-.193-.423-.661-.173-1.045.871-1.34 4.692-1.649 6.248-1.574zm-7.305 3.821c.057 3.02-.741 4.683-2.453 5.375-2.065.835-4.704-.978-3.411-2.991.977-1.523 2.645-1.057 2.958.547l2.64-5.402s.262 1.715.266 2.471zm95.721-.15-.04 3.112-4.824-3.014.333-2.991zm-85.784-.705c2.38.883 3.25 1.955 3.337 2.43-.139.354-.376.111-2.113-.765-2.674-1.533-6.165-1.794-9.24.13-.765.137-.842-.265-.073-1.027 2.344-1.69 5.573-1.702 8.089-.768zm18.095-.52c2.096-.054 4.6.448 6.713 1.44.935.44 1.774.714 2.382 1.216.487.238.521 1.265.164 1.34-.319.041-.84-.191-1.619-.7-5.018-3.045-8.638-2.685-11.553-.83-.161.102-.661.206-.859.192-.554-.041-.582-.252-.35-.53 1.351-1.405 3.365-2.078 5.122-2.128zm62.836 2.399 4.835 3.157-.013 3.088-5.141-3.34zm-87.483.95.708.02c1.636 3.713 3.712 1.81 4.577.329l.86.133c-1.365 4.96-6.846 2.343-6.145-.483zm-1.206.49c.8.092.77.932 1.018 1.544.556 1.37-1.566.205-1.929-.13-.614-.603.265-1.355.911-1.415zm23.987-.061c2.079 2.955 3.29 1.214 4.485-.066l.567.17c-.156 2.116-4.006 4.359-5.815-.055zm6.424.355c.224.004.672.155 1.084.31 1.141.433 1.08.747-.188 1.264-2.026.828-2.73.934-2.12-.243.35-.538.584-1.252 1.224-1.33zm-7.94.422c.508.349.84.734.897 1.359.04.44-1.538-.072-1.533-.774.052-.446.313-.806.635-.585zm-14.003.12c1.037.36.91.818.186 1.231-1.301.667-1.857.533-1.013-.52.389-.485.473-.703.827-.712zm79.881 1.832 5.237 3.439-.058 3.14-5.232-3.332c-.24-1.347-.006-2.251.053-3.247zm-90.715 4.544c.249.007.344.77.399 1.886.09 1.854-1.954 4.43-4.015 5.312-2.482 1.062-5.13-.45-4.678-2.674.416-2.05 3.56-2.124 3.672-.228-.307.498.12.917.295.874.81-.199 2.722-1.783 3.503-3.56.305-.692.49-1.405.708-1.566a.188.188 0 0 1 .116-.044zm90.559-.263 5.232 3.567.013 3.12-5.19-3.335c-.2-1.391-.107-2.383-.055-3.352zm-63.653 4.72c-.399.617-.077 1.724.739.784 2.097-2.248 5.114.585 3.488 2.373-1.475 1.623-3.281 1.092-7.095-.273-2.778-.995-3.218-.66-3.906.048-.567.584-.284 1.765.448 1.753 2.252.483 4.203.951 6.535 1.41 4.93.955 7.958-4.926 3.46-7.106-1.076-.522-3.31.143-3.669 1.011zm-21.77.603c-1.93 1.592-.367 5.8 2.464 6.186.592.08 1.478.06 2.483-.205 1.984-.523 4.17-1.602 4.262-2.235.417-2.875-4.211-.312-4.824.027-1.459.815-3 .703-3.773-.273-1.741-2.2 1.403-4.708 3.298-2.016.479.679.313-.47-.208-1.252-.736-1.103-2.648-1.039-3.702-.232zm85.754-.607 4.918 3.248-.038 3.004-4.769-3.212zm.354 4.4 4.657 3.13.069 3.123-4.889-3.007c.1-1.124.127-2.18.163-3.246zm-26.18 1.703c4.104.077 6.4 5.708 4.228 8.04-.647.694-1.161.879-1.452.618-.062-.056.043-.684.087-1.395.142-2.266-.372-3.82-2.155-5.548-1.337-1.296-1.842-1.698-.708-1.715zm-50.544.72c-.777.253-1.598.77-2.233.64-.627-.13-.928.157-1.175.612-.946 1.742-.657 2.307 1.209 1.323.885-.467 1.194-.297 3.557.125 1.69.301 2.84.276 4.328-.076 1.85-.439 2.953-.47 3.886.008.934.478 1.572 1.133 1.598.601-.102-.623-.683-2.218-.816-2.747-.064-.255-.525-.033-.96-.005-1.533.098-3.357-1.187-4.543-.515-.95.537-1.075.679-2.373-.033-.966-.53-1.638-.207-2.478.067zm49.436.563c2.772 2.162 3.477 4.074 3.202 5.64-.142 1.14-.237 2.398-1.444 3.08-.223.097-.554.157-.862.198.946-3.234-.145-6.137-4.063-9.244 1.145-.521 2.31-.342 3.167.326zm-62.687-.224c.123 0 .26.02.397.062.482.15.554 1.32.173 1.685-.38.366-.686.062-1.123-.87-.325-.507.018-.877.553-.877zm-2.57.902c1.015-.015 1.397.848 1.568 1.535.147.585-.046 2.331-.583 1.72-.128-.37-.675-1.566-1.115-1.878-.98-.694-.88-1.36.13-1.377zm-2.86.858c.149-.003.339.014.57.051 1.583.251 2.788 2.594 2.415 3.92-.843 1.423-1.15.46-1.422-.835-.215-.537-.86-1.38-1.257-1.815-.822-.904-.948-1.306-.306-1.32zm95.254-.347 4.813 3.222-.004 3.432-5.038-3.164c.117-1.2.179-2.35.23-3.49zm-98.39 1.047c2.363.013 4.37 2.567 3.617 5.02-.932 2.557-5.529 1.995-4.756-.556.222-.734 1.069-1.268 1.875-.806 1.163.669 1.039-.413.3-.799-1.14-.596-2.713-.243-3.067.954-1.235 4.174 4.55 5.618 7.717 1.313 1.158-1.573 2.417-3.257 3.112-3.974.624-.645.757-.577.653.257-.415 3.88-3.35 8.72-8.823 8.436-5.318-.487-6.963-5.726-2.934-8.978.677-.547 1.389-.815 2.078-.86.076-.004.152-.007.228-.007zm28.187.31c-1.95.868-3.714 1.192-5.628.412-1.414-.577-1.394.044-.78.556 1.774 1.411 5.013.787 6.402 0 .45-.254.602-.997.007-.968zm75.015 6.466.005 3.121-5.374-3.364c-.082-.747.012-1.881.193-3.053zm-5.194 1.025 5.117 3.148.124 3.094-4.972-2.882zm.342 4.339 4.887 3.158.06 3.377-4.843-2.978zm-119.46 3.133-3.028 8.388 1.962.117 1.318 2.22 1.37-2.266 2.065-.138zm119.648 1.538 4.71 3.024.061 3.119-4.894-3.16zm-.205 3.817 4.828 3.258.085 3.313-5.473-3.407zm-108.29 1.497-3 8.981 1.674-.205 1.558 2.41 1.59-2.154 1.5.084zm-22.347.59-2.858 8.929h1.895l1.592 2.259 1.412-2.172 2.148-.045zm129.992 2.1 5.667 3.714.035 3.518-5.494-3.439zm5.586 8.374.052 3.08-4.768-3.17-.506-3.422zm-101.395.177-3.501 9.07 2.327.03 1.403 2.186 1.137-2.188 1.87.023zm96.988 1.244 4.424 2.833-.045 3.163-4.356-2.727zm-84.16 36.462-2.518-2.26c-.03-.184 2.07-1.118 3.358-.515 1.702.797 2.568 3.646.654 5.138-1.523 1.186-3.838.187-3.883.046zm-2.235-3.72c.057-3.478-1.915-4.377-3.546-5.088 0 0-.196-22.038-.158-22.696 0 .096-.41-2.388-.458-2.535 0 .002-.392-.098-.392-.095.061 2.235.139 25.134.1 25.283-3.058.316-3.919 2.232-4.204 4.807-2.385-.174-3.94 1.152-3.99 1.373-.876-1.125-.214-2.775-.905-3.948-2.137 6.845 1.958 10.96 5.546 10.59.553 6.581 8.363 7.798 8.125-.183 9.456-.482 6.281-8.553-.118-7.509zM58.97 855.894l-3.453 8.887 2.4-.245.868 1.645c3.854-3.127 5.777 1.728 3.837-2.437zm130.054 16.288c.442-.029 1.022.342 1.136.846.079 1.503-2.098 1.157-2.164.209-.046-.674.613-1.028 1.028-1.055zm1.389 9.775c.941-.711 2.435-.302 2.455.774.018.955-1.163 1.265-2.085.726-.714-.407-.756-1.162-.37-1.5zm.123 2.648c5.146.382 8.987-2.847 7.354-5.18 1.388-1.606.264-2.536.645-3.458 1.096-1.035.19-3.272-.083-3.281-.214-2.999-1.152-3.386-2.544-4.988-.418-.464.982-.912 1.522-1.706-1.424.502-2.817-.482-2.809-.705l-.603-.699c-9.533.379-18.093.966-17.812 12.95-1.389 5.083.919 9.621 7.576 8.245 1.46-1.201.507-2.953.331-3.794-.56-2.314.101-3.814.288-4.896.578-3.348 3.236-6.448 3.506-1.197.466-.657.247-.755 1.014-1.026 1.83-.604 1.82 1.108 1.444 1.797-.242.354-.604.323-.976.282-.53-.061-1.224-.246-1.235-.427-.145.545.96 1.563.843 2.074-.149.485-.242.445.244.125 2.298-1.512 3.722 1.89.406 1.49 1.631.815-.796 3.176.89 4.394zm-3.33-18.301c1.808-.08 2.241-.092 2.154.787.337 1.624.773 2.378 3.056 2.216 2.3-.27 3.03-.4.711.88-1.17.474-1.55.565-2.935.445-1.396-.122-1.29-.251-2.088.188-.446.245-.934.544-1.297.603-.537.089-1.484.277-1.484.277-.546 2.519-1.369 3.785-2.499 4.978-1.6 1.674-2.408 1.964-.454 1.846.722.044.35-.293.655 2.425.107.952.295 2.056.446 2.426.504 1.24.57 1.856-1.362 1.937-4.82.321-5.93-4.032-5.281-6.252.057-.35.28-1.506.331-2.424.028-.501-.08-.926-.065-1.44.125-4.143 1.188-5.232 5.165-7.912 1.2-.809 3.349-.968 4.947-.98zm4.233.238c2.225-.035 4.37.964 3.296 1.603-.694.414-3.196.232-3.89-.229-.894-.594-.555-1.356.594-1.374zm-99.223 3.173-.887 1.446-.944 6.742.159 1.369 1.813 2.219 1.448-2.29 2.265.045zm104.027-.31c1.44.273 1.492 1.493 1.124 2.242-.811 1.648-6.205 2.428-6.205 2.429-.04-.71.068-1.392-.49-2.192 0 0 3.593-.858 4.355-1.497.508-.427.817-.969 1.216-.982zm1.053 3.76c.522.009.799.36.938 1.074.065.383-.091.709-.429 1.126-1.374 1.374-5.223 2.315-6.61 1.96-.098-.12.143-1.571.246-2.217 1.85.058 4.97-1.452 5.855-1.943zm-54.86 8.3c-1.83-2.465-5.909-2.12-5.472-1.946.037-2.105-.342-4.998-3.787-5.318-3.474-.256-5.275 3.99-3.963 5.794-2.142-.833-5.366 1.225-5.367 1.42-.274.007-2.753 6.022 4.684 6.359.668 2.846 1.823 4.226 4.197 5.404l-.023 23.213.836 1.056.16-24.325c3.807-.143 4.29-4.182 4.012-5.114 1.69.074 3.228-.236 4.524-1.146l.431 3.967s.898-1.396.704-2.139c-1.577-22.803 7.402-47.433 19.134-63.378.626-.669.82-1.47 1.129-1.474 2.852-1.413 4.654-2.364 4.654-2.364 4.687 2.109 13.053 7.188 13.053 7.188l.023 32.485c-.13-.32 15.627-1.575 15.39-1.18 0 0-1.38-.506-1.397-1.361l-.145-76.019-6.877-4.198s-5.677 3.413-7.266 4.581l.017 44.755-12.183-6.673s.2-1.582.22-2.096c-.174-6.107-3.4-8.168-9.562-6.378-.826.24-1.4.45-1.803.137-2.567-7.035-3.669-25.503-3.665-25.502l17.467-27.23 29.47-.047.145 104.27.875 54.658-15.076 10.105-.097-35.011s-2.152-.963-2.716-1.03c-.212-.015-.487.424-.105.651.552.329 1.91.792 1.91.792l.198 34.7s-5.86 3.63-8.48 5.141c-1.953 1.116-8.128 3.974-11.785 5.62-1.42.637-2.852 1.148-2.984 1.248-4.981 1.964-9.47 3.337-13.624 5.368-2.864 1.075-2.732.012-3.338-.857-5.95-5.495-13.656-5.845-19.91-3.34-.968.33-2.168.615-2.978 1.132-.234.16-.642.338-.91.396-.548.119-1.148.342-1.652.709-.9.655-1.502 1.726-2.019 2.79-.32.659-1.285 3.733-1.415 4.645-.022.152.319.12.33.135.044.056.973-3.724 1.34-4.438.78-1.526 1.763-2.438 2.281-2.58.237-.036.442.305.12.842-.642 1.068-1.168 3.341-1.326 4.367-.142.946-.172 1.706.018 1.739.034.03.946-2.863 1.356-3.884 1.068-2.661 1.74-3.763 2.76-4.328 1.049-.58 1.297-.497 1.088.122-1.566 2.808-2.215 4.934-2.53 7.93-.049.597.277.615.538-.374.864-3.143 2.048-7.394 4.816-8.654 1.181-.49 1.705-.465 1.577-.112-3.304 3.843-4.142 8.12-4.108 9.502.012.461.213.37.639-.626 1.128-3.795 2.791-7.02 4.758-8.599.76-.61 1.68-.776 2.45-.862 2.325-.26 2.401.54.375 1.625-2.309 1.236-4.99 5.754-5.297 9.151-.107 1.176.341 1.305.664-.262 1.39-6.75 7.652-11.195 12.651-9.11 2.25.94 2.653 2.234.694 1.652-3.965-1.178-8.38 1.415-10.21 5.048-1.655 3.284-1.626 5.012-.487 9.422.774 4.073 2.291 9.279 1.77 13.263-.548.773-2.267-.327-4.302-.566-1.227-.218-2.727-.277-4.01.174-1.119.392-1.753.49-1.958-.069-.066-.18.865-1.054 1.28-1.538.665-.773.286-.898-.649-.06-.457.411-1.441 1.373-1.71 1.422-.589.108-.61-.507-.13-2.071 1.688-6.074 1.242-6.179-1.612-7.42-2.83-1.01-1.932-1.512-3.183-2.511-.886.637 1.142 3.583 3.447 4.233 1.885.532 1.652 1.426.817 3.83-.85 3.365-2.296 7.818-1.479 10.812 1.717 6.291 8.599 6.187 13.878 3.666l.638 1.604c-4.462 1.658-27.955 3.005-35.868 2.134-.605-1.985-.664-2.496-.904-4.832 0 0 4.883 2.065 7.323 2.429 3.045.454 7.739.49 8.95-2.107.37-.762-.005-1.408-1.059-.97-1.936.806-5.242 1.396-7.91 1.233-2.24-.136-5.431-.98-6.809-1.757-.655-.368-1.206-1.087-.689-1.985.456-.092 1.053.377 1.407.547 4.036 1.905 6.252 2.28 8.892 1.564 2.002-.543 4.703-2.535 4.04-3.104-.677.215-2.924 1.952-4.47 2.328-3.184.772-6.57-.44-9.868-2.436-1.017-.824-.55-1.42.697-.76 4.942 2.328 7 3.867 11.747.642 1.06-.724 1.65-.629 2.27-.186 2.452 2.05 2.449.904.655-1.224-.408-.483-.776-1.16-1.019-1.88-.18-.53-.218-1.063-.545-1.413-.556-.598-1.56-.89-2.709-1.363-1.658-.683-2.21-.359-.987.2 2.142.976 3.183 2.02.52 1.45-2.415-1.011-6.455-.464-8.744.998-1.797.805-2.59 1.67-3.007-.166-.873-3.832.01-9.023-1.156-15.709-.222-1.274-.497-2.083-.209-2.256.37-.223 1.288.605 2.424 2.095.518.68 1.547 1.987 1.542 1.715.045-1.414-2.32-4.078-4.274-5.13-1.074-.58-1.796-3.238-.567-2.65.949.433 5.88 4.481 6.816 5.921.435.67.806.245.346-.542-.276-.472-1.434-1.859-2.56-2.885-1.996-1.82-2.229-1.737-1.843-2.107.764-.733 2.39.22 5.285 2.667.742.875 1.724 1.665 1.605 1.232.3-.678-2.598-3.586-4.32-4.369-.322-.188-.365-.386-.334-.746.169-1.368 3.5.654 6.261 3.01 1.034.883.18-.774-1.018-1.902-.94-.886-2.46-1.99-3.49-2.37-1.025-.396-1.086-1.226-.28-1.57 2.776-.1 5.633 2.541 7.334 4.615.47.57.9 1.01.414-.068-1.571-3.244-4.856-5.08-7.134-5.457-1.851-.307-1.805-1.857-.065-1.676 1.914.2 5.044 1.813 7.693 4.302.77.725 2.065 2.367 1.8 1.405-.004-.262-.817-1.29-1.756-2.282-2.167-2.01-4.688-3.788-7.366-4.324-1.252-.333-4.973.319-4.993-.28-.008-.44.391-.704 1.577-1.065 4.601-1.402 11.316 2.283 14.976 7.925.262.404.76.577.79.486-1.76-4.606-7.265-8.796-11.653-9.525-2.984-.455-5.998.241-7.436 2.102-1.618 2.094-.997 4.905 1.422 4.688 1.27-.104 1.171-.772 1.148-.794-.086-.08-.825.24-1.281.155-1.653-.307-1.47-3.08.95-2.798 2.783.325 3.162 4.397.048 5.243-2.875.78-3.923-.44-4.703-1.885-1.144-2.117.104-5.52 2.137-6.82 5.69-3.635 12.86-.546 16.906 3.094 2.001 1.8 3.46 3.938 4.374 6.24.235.536.662.506.51-.067-5.658-13.52-22.684-15.04-25.25-4.69 0 0-.089.315-1.719-1.85-2.642-3.508-6.605-4.301-11.496-1.933-4.94 1.702-6.608 2.79-10.035 4.42-.499.162-3.669 2.174-4.175 1.751-4.834-2.996-9.056-4.026-11.349-6.218.081-.4-.307-6.456-.307-6.456l.205-26.104c.035-.255-2.566.164-6.895.778-11.514 2.09-10.488-3.518-12.01-3.918-.803-.152-.745.168-.894-19.958a9398.85 9398.85 0 0 0-.201-22.839c-.07-6.715-.074-12.31-.01-12.428.066-.118.714-.63 1.46-1.117 2.81-1.832 4.39-2.942 10.54-7.261 1.393-.979 1.744-1.144 1.744-1.144.662 12.094-.014 24.79.296 35.186l.518.003-.079-34.905c-1.057-.26 24.242-13.875 38.096-18.272.26-.083.906.187.906.187 7.911 9.054 28.82 6.394 30.543-4.59 3.439 6.712 18.605 19.781 25.611 4.116 0 0 2.503 4.516 4.663 4.82 4.856.615 5.397-.094 16.106-4.865-12.285 17.156-19.09 35.342-20.03 57.393zm-6.483-4.312c.264.76.352 1.743.12 2.517-.315.605-.78.595-.78.595l-2.361-1.885-2.323 1.984s-1.412-1.33-.628-3.162c1.49-2.559 4.88-2.084 5.972-.049zm61.173-.089c1.516-.083.728 1.531-1.519 2.619-1.41.682-2.577.872-3.08.622a2.183 2.183 0 0 1 .136-1.76c.958-.451 3.59-1.241 4.463-1.48zm-97.858 2.705c1.683-.032 3.137 1.085 3.185 3.054.019.802-.428 1.596-.428 1.596l-2.805-1.931-2.156 2.116c-.366.117-1.677-1.41-.766-3.062.661-1.201 1.818-1.75 2.97-1.773zm40.653 1.046c2.362 1.003 2.761 4.07.457 5.244-1.095.558-2.817.865-3.618-.274l2.333-2.343-2.662-2.09c-.104-.098 2.049-1.149 3.49-.537zm56.78-.608c.407 0 .51.146.626.499.328 1.003-.519 2.008-1.976 2.321-1.347.29-1.219.437-1.852-.68-.497-.876-.63-.84.152-1.113.946-.281 1.958-.61 3.05-1.027zm-67.28 1.27s-1.685 1.575-2.421 2.234l2.518 2.452c.12.298-2.92 1.561-4.51-.366-1.032-1.252-.44-3.623 1.035-4.432 1.506-.826 3.658-.128 3.378.112zm3.618-.264c1.491-.015 2.711 1.092 2.728 2.474.017 1.383-1.176 2.519-2.667 2.533-1.49.015-2.716-1.096-2.733-2.479-.017-1.382 1.181-2.513 2.672-2.528zm-36.92 4.084-2.43 2.343 2.61 2.652s-2.074.307-2.81.176c-3.562-.631-3.2-4.507-.44-5.522 1.166-.375 2.03-.245 3.07.351zm-47.538.633s.459 4.982.888 6.684c-.293 1.94-1.651 3.257-2.268 5.248-.327.885-1.552 2.073-1.783.823-.875-1.546-.027-3.451-.751-4.553-.365-1.026-.253-1.619-.496-2.694-.534-.876-.964-1.29-.889-2.083-.132-3.522-1.083-2.827-2.769-2.545-1.39.42-3.266.584-4.368 1.334-2.392 1.55-1.096 2.448-2.004 4.798.138 1.031.408 1.404.21 2.292-.935 4.2.766 3.857.714 3.922-.711.963.155 3.14.494 3.03 2.072.478 1.316 1.88 1.988 2.627.674.723.638 1.086 3.479 1.162 5.132.39 13.29-.29 15.074-6.086 1.128-8.18 2.76-15.383-7.52-13.96zm51.034-.624c1.44-.014 2.619 1.056 2.635 2.39.016 1.336-1.137 2.429-2.577 2.443-1.44.015-2.619-1.055-2.635-2.39-.016-1.335 1.137-2.429 2.577-2.443zm-48.789 1.1c.97-.008 2.113.185 3.05 1.024 2.01 1.798 2.09 3.422 1.173 10.311-.259 1.94-1.002 3.561-1.98 4.265-1.967 1.413-4.37 2.417-6.351 2.862-1.045.234-1.953.236-2.66.229-.763-.008-1.206-.337-1.26-.93.173-1.604-1.594-1.767-2.617-1.68-1.825.061-2.012.239-.871-.575 1.302-.928 4.296-.931 4.862-.383 1.171-1.08 2.39-1.202 3.88-1.358-.22-.301-.75-1.505-.393-2.276.776-1.255 2.082-3.47 3.448-4.298 1.354-1.63.206-.895-.63-.87-.478.014-.437-.132-.514-.429-.328-1.274-.8-3.657-.798-5.075 0-.683.691-.81 1.661-.818zm-8.595 1.734c.526.436.517 1.042-.038 1.492-.635.514-1.891.225-1.919-.747.088-.98 1.32-1.252 1.957-.745zm90.95 3.768c-2.189.093-3.982-2.083-3.15-4.243.454-.584.648-.499.648-.499l2.483 2.072 2.397-2.31c1.96 2.21.263 4.825-2.379 4.98zm-93.615-3.686c-.181.632.052 1.264.08 1.571-.434.285-2.282.78-3.273 1.228-.69.216-1.185-.385-1.088-.932.264-1.018 1.884-1.678 3.06-1.99.362-.081.96-.11 1.221.123zm.395 2.918c.666-.072.466 1.272.214 1.96-.25.49-.984.467-1.643.5-1.165.06-2.638 1.3-3.267 1.097-.209-.09-.356-.603-.377-.929.143-1.795 3.361-2.442 5.073-2.628zm3.513 1.883c-.223.3-.938.443-1.535.288-.978-.252-1.124-1.555-.264-2 1.518-.46 2.425.863 1.8 1.712zm96.678-2.628-1.334 1.87-2.017-.042 3.227 9.287 1.52-3.62c.21-1.665.453-3.327.646-4.995zm-42.914.632 2.573 1.96 2.219-2.09c1.634 3.409-.268 4.96-2.285 4.911-2.226-.053-4.592-2.017-2.507-4.78zm-56.638 3.32c.818-.141.46 1.906.347 1.965-.523.176-2.773.441-3.723 1.178-2.023 1.459-2.88.561-1.94-1.191.889-1.018 4.144-1.936 5.316-1.952zm2.567.106c.9-.074 1.526.85.974 1.727-.747.64-2.053.164-2.045-.745-.002-.572.509-.954 1.07-.982zm-1.344 5.191c.121.479-.059.33-1.004.585-.521.14-1.341.46-2.195.856-1.252.58-1.604.894-2.047.826-.353-.073-.758-.215-.866-.547-.431-1.325.736-2.67 3.447-3.587.564-.19 1.571-.343 1.916-.377.92.005-.068 1.31.749 2.244zm1.606-1.985c1.31-.013 1.549 1.599.568 1.879-2.294.542-2.092-1.886-.568-1.879zm-1.635 5.93c.368.328.418.866.004 1.144-.757.343-3.66.038-3.677-.717-.01-.499.962-.664 1.864-.677.903-.014 1.515-.014 1.809.25zm131.083 1.282-2.402 2.96 3.185 7.463 2.964-9.014-2.307.838zm-135.384 7.185c.473 22.954.196 75.55.196 75.55l7.028 4.464 7.434-4.916c-.018-16.555-.05-27.975-.067-43.302l10.848 5.573s.332.447.275 2.518c-.77 5.717 5.18 9.45 9.146 7.206 1.529-.59 1.654-.695 1.975-.246.886 1.233 1.87 6.506 2.026 9.868.235 5.066 1.636 15.397 1.983 15.468L60.55 1011.97l-27.575.028.046-103.364c1.428 1.57 2.078 2.6 4.47 3.422zm102.646-1.855-1.334 1.874-1.6-.007 2.774 9.616 3.431-9.381-1.872-.222zm-88.837 76.295s-3.45 2.28-4.551 2.934c-.579.199-.86.235-.994-.278-.167-.63.108-1.821.355-3.791.228-1.821.227-1.924-.09-4.522-.333-2.714-.373-2.827-.084-6.407.323-3.992.396-7.869.063-10.27-.316-2.284-.293-7.489-.035-10.393.317-3.556.228-6.678-.265-9.26-.88-4.605-1.022-6.19-.077-9.648.354-1.294.53-1.983.465-4.152-.072-2.412-.118-3.2-1.03-8.544-.526-3.076-.565-3.499-.046-8.362.104-.981.141-1.638.546-1.948.472-.362 5.382-.61 5.382-.61zm-12.65-74.35 5.348-.034c-.419 1.55-.515 2.732-.561 3.855l-4.74-2.911zm.072 1.985 4.692 2.863c0 1.202-.1 2.347.084 3.548l-4.756-2.95zm-.008 4.517 5.022 3.208c.192 1.243.597 2.5.75 3.618l-5.692-3.6zm162.728 1.825-.057 91.648-50.093.034-15.778-28.344s.17-2.601.568-3.927c.48-1.604.608-1.953 1.274-2.027 1.78.862 3.77-.269 4.382-1.52.754-1.54-.754-3.88-3.079-4.393-1.025-.23-2.148.194-3.284.991-.66.508-.807.565-.936.12-.293-.998.673-3.709 2.39-6.033.956-1.292 1.214-1.664 1.52-1.17 1.237 1.998 3.907 1.595 4.923.472 1.23-1.359.985-4.467-1.787-5.3-5.424-1.63-7.934 3.413-7.866 3.401l-1.141-6.06c6.54-1.463 10.315-1.975 12.398-3.805 1.638-1.44 2.426-3.938 2.232-6.163 0 0 18.18-6.776 26.691-10.992 14.656-7.261 27.643-16.932 27.643-16.932zm-27.648.567-1.35 2.186-1.906-.005 3.822 9.262 2.976-9.645-1.837.145zm-134.86 2.185 5.754 3.707c.122 1.197.283 2.264.106 3.62l-6.057-3.745Zm112.498-.741-1.441 1.762-1.654-.167 3.211 9.169c.995-2.644 1.905-6.234 2.89-8.881l-1.534.062zM38.82 927.934l5.953 3.685c.019 1.132.073 2.198-.355 2.996l-5.619-3.37zm123.773.96-1.457 2.577-1.928-.249 3.42 8.79 3.8-8.683-2.335.108zm-123.777 3.308 5.16 3.54c.074.051-.294 1.607-.215 2.488l-4.911-2.83zm.124 4.357 4.813 3.09c.007 1.164.089 2.26.284 3.252l-5.226-3.17Zm-.098 4.439 5.563 3.7.285 2.96-5.896-3.466zm45.902 1.393c5.345 1.869 10.33 11.324 10.134 23.541-.137 8.482 2.584 20.599 2.533 20.459 0 0-1.553.187-1.99-.134-1.995-6.235-2.643-12.819-2.943-18.248-.245-4.527-.51-8.97-.816-10.009-.866-3.653-1.804-7.915-4.31-10.698-1.954-2.1-4.187-2.471-5.531-.127-1.101 1.92 1.191 5.113 3.108 4.061.463-.239.74-.646.134-.636-1.986.266-3.31-2.285-2.05-3.494 2.22-2.13 6.074 2.645 4.27 5.26-.796 1.13-2.865 1.323-4.519.9-3.675-1.664-4.584-5.708-3.343-8.366.947-2.027 3.014-3.233 5.323-2.509zm-6.478 1.19c.435.021.136.764-.27 1.922-.957 2.777.804 7.102 3.26 7.97.737.47.697.646.203.9-1.608.832-4.514-1.688-5.273-4.485-.55-2.025-.404-4.411.648-5.42.575-.552 1.031-.842 1.34-.88a.584.584 0 0 1 .092-.006zm-39.497 1.502 5.943 3.63c.273 1.127.147 2.327-.044 3.538l-5.947-3.872Zm35.934.08c.442-.012.275.674.148 1.926-.295 2.9.667 5.012 2.87 6.77.93.742 1.184.975.782 1.36-.572.549-2.201-.194-3.477-1.436-2.336-2.274-3.098-6.554-1.266-8.097.402-.34.712-.517.943-.523zm66.233.734c2.545-.083 4.69.84 4.916 3.724.331 4.223-3.92 6.517-6.87 4.082-2.644-2.442.058-6.242 3.126-4.446 1.543.91-.31 2.964-1.556 1.894-.562-.483-.811-.185-.412.371 1.204 1.68 3.592.295 3.427-1.181-.326-2.902-4.17-2.878-5.622-1.747-1.986 1.547-3.739 3.83-5.046 5.494-1.071 1.444-1.3 1.404-1.136-.383.433-4.724 5.203-7.679 9.173-7.808zm-69.3.681c.406-.012.243.527.27 1.916.15 3.567 1.764 5.793 3.816 7.043.687.708-.197 1.205-1.493.86-2.951-.855-5.947-6.75-3.434-9.273.353-.354.63-.54.842-.546zm-2.876 1.16c.41-.023.176.764.21 2.252.07 3.132 1.109 4.64 3.613 6.56.816.625.918.555.594.9-.863.915-3.772-.395-5.008-2.275-1.47-2.237-1.676-5.605-.296-6.872.386-.355.673-.553.887-.565zm-2.862 1.498c.339.003.148.568.195 1.92.116 3.28.917 4.906 3.156 6.43 1.406.958 1.75.674 1.318 1.05-.758.657-2.822.082-4.367-1.136-2.316-1.826-2.952-6.312-1.059-7.842.338-.272.58-.423.757-.422zm-27.043.37 5.71 3.697-.173 3.105-5.681-3.593zm100.03 6.171c-2.328-.45-3.204-2.012-2.914-3.778.096-.59.47-.926.866-.153.339 1.225 1.213 2.926 2.417 3.26.484.134.077.758-.369.671zm-50.084-3.84c2.606 6.14 2.536 12.842 2.95 19.175.549 8.417 2.134 14.09 2.656 15.048 0 0-2.566.018-2.694-.326 0 0-2.382-11.17-1.998-16.687.047-6.176-1.23-11.61-2.014-14.052-.83-2.165-.871-.737 1.1-3.159zm-49.994 2.22 5.494 3.356a41.931 41.931 0 0 0-.086 3.426l-5.384-3.56zm74.027-.028c.004.186.795.345 2.037.071 1.38-.304 2.752-.244 3.81.03 1.125.29 1.25-.046.233-.462-.496-.203-1.284-.663-2.467-.647-1.183.015-3.62.604-3.613 1.008zm22.3-.05c.133.229.55.745.923 1.15.706.764.905.77.582 1.08-.745.714-2.3-.33-2.463-1.657-.142-.968.38-1.578.958-.574zm-49.294.088c2.559 3.407 2.91 11.377 2.943 17.041.03 5.102 1.859 14.454 2.009 14.414-.53.288-1.243.184-1.91-.058-.66-.8-1.057-3.04-1.803-9.105-.193-1.565-.564-6.542-.637-10.548-.065-3.534-2.167-11.19-2.167-11.19s.828-.542 1.565-.554zm-2.865.84c2.327 4.856 2.691 9.672 2.776 15.515.08 5.526 1.381 12.004 1.872 14.863-.791.073-1.626.131-1.957-.2-.21-.269-.376-.69-.477-1.23-1.05-4.784-1.286-9.981-1.577-14.378-.434-6.813-.546-8.5-1.576-11.9-.584-1.928-.791-1.888-.344-2.257.34-.28.988-.42 1.283-.413zm26.341 1.207c.057 2.257.373 1.338 1.233.982.648-.05 1.175.28 2.376.694 1.53.527 1.392.702 2.47.216.665-.3 1.195-.403 1.511-.162 1.256.952 2.882.424 3.799-.34.714-.344 1.493-.153 2.096-.1.871.078.646-.438.757-1.458.098-.906-.274-.986-1.286-.684-1.035.309-2.062.35-2.959.093-2.293-.658-3.975-.242-5.113-.08-2.69.383-2.832.13-3.44-.228-.453-.268-1.201-.762-1.46-.748-.26.014-.177.831.016 1.815zm23.846-.954c.257-.12.373.203.728.634.592.72.765 1.06.266 1.125-1.32.173-1.648.044-1.6-.717.04-.606.184-.843.606-1.042zm-52.953.886c1.932 1.817 2.388 11.973 2.6 14.16.658 11.847 1.864 13.553 1.238 14.44-.733-.014-.99.237-1.467-.36-1.643-4.344-1.531-8.803-1.784-13.33-.358-5.997-.988-9.247-1.887-12.22-.598-1.978-.59-2.011.502-2.55.194-.095.624-.146.798-.14zm-2.614 1.419c.677 1.441 2.025 7.985 2.191 13.631.132 4.484 1.256 13.252 1.47 13.3-.705.058-1.55-.078-1.891-.574-2.084-8.648-1.38-17.023-3.794-25.72.147-.42.923-1.113 2.024-.637zm-38.723.93 5.695 3.816.11 3.24-5.812-3.854zm84.857-.113c-3.227 1.15-4.065 2.098-3.561 2.937.425.706 1.708.463 5.146-.854 2.57-.984 3.373-.548 3.889.953-.033 2.213-2.35 2.463-3.655 2.154-.562-.022-.478.027.118.722 2.65 1.943 5.923-1.826 4.307-4.229-1.264-2.194-3.461-2.825-6.244-1.683zm-20.236.828c-2.666 1.926-1.729 5.416.483 5.947.615.293 1.533.159 1.894-.061.333-.203.33-.535-.348-.642-2.054-.324-3.216-1.726-2.218-3.14.969-1.371 2.753-1.1 6.181.283 2.964 1.196 4.267.835 4.621-.588.157-.628-.03-1.218-1.453-1.272-3.96-.15-6.578-2.393-9.16-.527zm35.576 5.462c-.173-1.004-1.936.02-3.108 1.793-1.153 1.746-1.273 1.996-1.5.178-.339-2.71 2.7-4.817 4.592-4.879 2.278-.235 3.77.951 3.823 2.313.106 2.68-3.343 2.695-3.807.595zm-100.34-1.95 6.034 3.871s.197 2.065.063 3.173l-6.06-3.623Zm72.592 1.547c-2.635 1.644-1.1 4.668.738 5.014 1.938.364 2.078-.89.152-1.267-1.03-.379-1.29-1.29-.885-1.99.924-1.392 2.62-.483 3.608-.045 2.19.975 3.326 1.333 4.021.666 1.236-1.185.145-3.309-1.484-2.567-.44.2-.77.391-1.703.173-1.415-.28-3.115-.579-4.447.016zM38.764 967.3l5.935 3.796-.194 3.338-5.57-3.818zm.107 4.59 5.58 3.715c-.087 1.41-.05 1.972.007 2.871l-5.645-3.406zm98.917 1.055c4.485.423 2.981 5.195-.146 3.895-.833-.586-1.085-.54-2.02 1.553-1.197 2.677-1.486 2.458-1.312-.639.13-3.032 1.639-4.791 3.478-4.809zm-35.344.605c.106.002.192.019.245.058.302.317-.612 1.56-1.386 2.29-.57.344-1.948-.595-1.611-1.05.393-.441 2.029-1.233 2.752-1.298zm5.977 2.481-.802.104c-1.202-2.505-3.72-1.941-4.504.378l-1.105-.12c1.126-2.843 5.115-4.576 6.41-.362zm22.583.65-1.357.07c-1.207-2.717-2.93-3.129-4.4-.453l-1.05-.285c1.82-3.42 4.845-3.684 6.807.668zm-6.772-3.119c.694-.036.604.26-.122 1.174-.631.794-.784.918-1.414.481-1.033-.716.69-1.605 1.536-1.655zm6.429.103c.132.007.287.02.463.061 1.397.326 2.036.942 1.348 1.728-.43.49-.847.681-1.127.35-.938-1.445-1.459-2.185-.684-2.14zm-21.13.78c.145.538-.315.918-.825.47-.207-.183-.387-.495-.36-.723.32-.278 1.085-.044 1.185.253zM38.8 976.043l5.737 3.85c.185 1.35.22 2.375.208 3.297l-5.908-3.659zm83.83 1.453c3.305 2.117 7.19 2.102 9.626.262.545-.411 1.019-.427 1.026-.03-.351 1.474-4.582 3.352-7.878 2.268-1.81-.596-3.298-1.185-4.482-2.76-.703-1.024.749-.36 1.708.26zm-1.406 1.021c4.828 3.89 8.682 2.828 11.606.885.43-.098.437.261.53.93.12.858-.648 1.278-2.748 1.853-4.06 1.112-8.814-.138-9.662-2.663-.098-.496-.302-1.14.274-1.005zm-82.461 2.033 5.818 3.73-.196 2.833-5.667-3.58zm.078 4.343 5.492 3.479-.026 2.346-5.342-3.556zm39.977 1.24c23.466 5.009 40.117 2.727 56.46.115l14.377 26.367-87.198-.196c5.724-8.533 10.494-17.868 16.361-26.286z"/><path d="m81.808 758.54 4.319 7.548.008.354 2.387 4.358.361.217.539.95.059.46 1.334 1.994-.01.427 5.654 9.833c4.698-1.608 43.25-4.399 57.505.436l2.09-3.26.497-.001 3.687-5.95-.057-.502 1.238-1.3.181-.593 4.065-5.856.018-.946 5.086-7.802zm87.265 1.43s-2.654 4.695-4.02 6.591c-1.098-.809-4.29-.273-4.11 2.845-5.194-1.844-6.468 3.903-2.452 5.212-2.069 1.663-4.034-.233-5.594-1.52-1.53.346-4.71 1.378-6.499-1.696 0 0 .75.379 1.5.79 4.249 1.214 4.61-4.106 1.45-4.988-.398-.099-1.148-.141-1.148-.141 1.078-4.089-5.744-5.541-5.89-.624 0 0-.812-.125-1.428-.024-3.621.6-2.81 5.551.89 5.327.51-.03.966.055.966.055-.064.793-4.546 2.291-7.761-.446-1.533 1.075-3.96 2.42-7.106-.284 2.076-.071 4.068-.612 4.053-2.794-.01-1.42-1.383-2.693-3.368-2.767-.107-1.588-1.377-3.106-3.032-3.228-2.021.102-3.06 1.61-3.08 3.206-1.719.159-3.331 1.558-2.967 3.17.496 2.2 2.321 2.476 4.407 2.065-2.548 3.77-6.67 1.784-7.937.575-1.52 1.306-4.168 3.072-7.414.634 1.735-.27 3.667-1.206 3.35-3.451-.25-1.77-2.39-2.302-3.32-2.212.002-1.168-.943-3.1-3.19-2.908-2.452.208-2.316 3.083-2.287 3.106-2.024-.162-3.5 2.04-2.928 3.452.697 1.718 2.166 2.256 4.87 1.803-3.163 2.733-5.162 1.66-6.882 1.078-1.529 1.475-3.565 1.946-5.646.626 4.665.222 3.95-7.428-1.594-4.675-.473-1.436-1.18-3.205-4.08-2.803l-3.28-5.923zm-43.506 7.386c.226-.008.466.037.7.149.73.346.864.948.416 1.834-.158.31-.385.668-.349.997 5.107 8.804 16.448 4.917 17.528.839.069-.259-.06-.543-.205-.82-.433-.674-.374-1.224.194-1.682 1.209-.976 2.934.187 2.23 1.506-.186.348-.382.729-.243 1.196 2.887 6.133 8.676 6.613 13.544 4.207-2.252 3.708-10.937 5.957-14.55-3.005-5.84 7.27-15.068 7.1-19.228-1.146-3.797 8.407-15.162 8.566-19.274 1.558-3.794 7.988-12.52 6.142-14.975 1.126 8.092 5.472 13.457-.192 14.426-2.612 0 0-.187-.283-.445-.52-1.035-.948-1.002-2.059.075-2.496 1.38-.56 2.665.671 1.954 1.872-.2.337-.375.41-.246.702 2.505 5.464 14.932 7.093 17.477-.552.087-.437.04-.841-.174-1.174-.587-.916.167-1.945 1.145-1.979zm-36.302 2.964c1.96.11 1.408 1.672 1.015 1.789zm72.813 1.229c.014.03-1.216 2.022-1.216 2.022-.644-.961-.472-2.154 1.216-2.022zm-6.664 10.063s-1.262 2.564-1.676 2.778c-23.209-5.598-55.635-.914-56.434-.385l-1.418-2.497c20.38-3.702 40.682-2.825 59.528.104zm-39.372 38.031c-2.27 8.013-7.702 8.81-14.263 9.763-8.126 1.18-13.41-1.582-15.87-5.783 0 0-11.63 4.03-15.878 6.38 8.8 3.774 20.416 12.106 27.002 21.543 2.348 2.878 2.231 2.229 2.205 8.525-.057 13.654-.04 18.73-.04 18.73 3.635.518 3.826 2.838 3.619 5.442 2.923-1.185 5.726.287 5.704 2.841-.039 4.694-5.008 3.402-6.04 2.88 1.604 4.144-.301 5.85-2.24 6.047-2.39.242-5.128-.833-4.313-5.566-2.608.93-5.901-.787-6.349-3.64l-.11-4.83c6.483-11.22-1.574-20.389-9.159-23.421 0 0 2.163-4.112 4.946-5.26.283-.077-1.675-2.76-4.986-2.188-1.523.023-1.168.015-2.595-1.715-2.82-3.42-4.152-3.658-6.924-.019-1.22 1.602-1.51 1.644-2.947 1.667-1.583.025-4.015 1.07-4.538 2.01-.12.215.5.437 1.32 1.333 1.183 1.29 3.007 3.06 2.712 4.857-6.263 2.338-16.675 12.656-5.811 25.951l-7.89.067-.21-47.195-5.497 2.812.115 36.967-1.563-.486c.161-11.79.01-23.575-.35-35.362l-14.501 9.725.451 55.431 1.539.307c1.115 7.556 17.267 2.33 18.206 2.99l.086 30.8-.712 1.524 12.815 6.55L75.77 943.7s1.59-.26 2.186-.548c4.891-2.37 8.528-1.821 11.17 1.687 1.63 2.165 1.907 2.485 1.907 2.485 1.014-6.225 6.979-8.5 12.75-6.852 4.244 1.212 10.036 5.158 11.796 9.957 0 0 .317.723.632 1.048l.243.1c-.015-.125-.278-.723-.377-1.014-5.914-12.71-22.698-14.715-25.325-4.356l-2.366-3.1 12.527-7.064 17.047 10.485s-.816 3.662-.912 5.244l.294.129c.084-.2.208-.96.284-1.436.278-1.73.778-3.183 1.453-4.292.407-.668.877-1.211 1.403-1.615 1.022-.546 1.968-.487 3.007-1.384l-2.488-1.738-.037-5.55 4.991 6.529c1.578-.333 7.724-2.01 11.36-.116.41.12 5.757-1.274 9.058 5.647l16.034-6.111s1.023-.53 1.034-.67c-15.948-5.52-32.001-24.92-30.449-25.225 0 0-.04-1.985.1-6.854.149-5.428.098-10.97.215-16.415-5.428-1.628-4.063-5.684-4.063-5.684-3.268.653-3.787.063-4.612-.473l-.546-5.142c1.964-1.538 3.14-1.678 5.561-1.177 0 0-1.167-2.237-.092-4.07.905-1.45 3.303-2.36 5.212-1.33 2.466 1.57 1.667 4.84 1.312 5.295 2.573-1.058 5.71.143 6.474 2.501.409-6.965 1.089-14.761 2.618-20.832 2.817-10.957 7.408-22.426 13.14-31.438.937-1.506 2.133-3.013 3.099-4.422.896-1.255 1.323-2.068 1.323-2.068s-1.221.618-2.513.947c-1.857.46-3.256.9-3.469 1.095-1.36 1.055-3.144 1.834-4.6 2.415-5.135 1.833-8.573-.94-10.687-5.162-1.204 5.35-6.51 9.86-14.303 7.018-4.4-2.184-5.782-3.577-9.885-9.252-.344-.58-1.235-1.248-1.235-1.248zm.167.876c2.899 5.358 7.253 9.163 11.493 10.693 7.571 2.33 12.587-2.152 14.011-6.282l1.455 2.302-11.503 7.516-17.281-10.27c.29-.244 1.851-3.836 1.825-3.96zm52.112.55-5.15 2.79s-3.433 5.097-4.587 7.018c-6.032 9.801-10.571 20.472-12.956 31.066-.962 3.879-1.994 10.966-2.341 14.374-.554 5.437-.537 7.67-.4 12.657l.4.407s-.634 1.023-1.089 1.885c-1.236 2.343-1.54 3.67-1.475 6.392.15 6.265 4.235 12.275 10.027 14.738.327.14.761.319.761.319s-1.003 2.49-2.814 4.24c-1.208 1.166-1.466 1.222-1.042 1.8.589.803 2.497 1.506 4.871 1.482.84-.008.835-.01 2.383 1.563 3.02 3.072 3.932 3.012 6.702-.448.823-1.028 1.29-1.274 2.488-1.296 1.762-.033 4.982-1.34 4.97-1.957-2.166-.898-4.662-5.498-4.263-5.545 11.882-5.779 14.438-17.833 5.805-26.734l8.275-.093.136 48.123c1.624-.992 5.294-3.124 5.294-3.124l.01-37.447c.569.102 1.147.482 2.253.653l.201 35.408s1.078-.4 2.015-.963c4.633-2.808 13.708-9.308 13.708-9.308l-.119-54.568-1.21-.004.003 54.539-14.079 9.462.027-33.895s1.11-.15 1.525-.202c4.113-.52 6.034-5.374 3.316-8.558-.964-1.13-.277-1.048 1.783-1.407 3.654-.286 5.685-2.839 4.63-4.667-.454-.784.14-.697.528-1.44.255-.583.21-1.309.103-1.883-.14-.755.194-1.087.401-1.568.326-.752.016-1.605-.52-2.315-.565-.749-.406-1.55-.41-2.046-.02-1.108-.452-1.268-1.713-2.342-.955-.813-.186-.987 1.225-1.654 2.219-1.05 2.385-4.791-.557-6.395-1.572-.857-4.438-.798-10.653.09-2.356.337-5.123.557-5.123.557s.054-21.334-.07-32.332zm-.002.754s12.588 6.886 12.487 7.077c-4.254 5.365-20.127 26.745-20.331 52.664-11.58-1.389-16.353 6.994-16.916 6.96-1.412-31.731 12.553-54.382 19.7-63.991zm-7.97 4.146-.043.777-2.512 3.454-.054-3.463zm-3.865 1.193.072 5.578-5.133 3.61-.28-5.82zm-47.467 1.11 2.625 1.696-.11 5.535-3.94-6.698zm72.028 2.118.006 4.004c-10.142 13.17-15.492 28.236-17.178 47.333l-2.459-.084c.717-18.993 7.674-36.3 19.631-51.253zm-68.378.17 6.214 3.796-.29 6.312-5.643-3.384-.524-1.292zm37.702.4-.046 5.87-4.822 3.296-.203-5.829zm-58.313 1.333c.713.01 1.282.495 1.412 1.41.515 3.902 3.72 2.787 4.477 3.963.287.4-.397.746-2.588.575-4.016-.293-6.934-3.316-4.873-5.294.529-.447 1.083-.66 1.572-.654zm27.753 2.613 5.308 3.16-.038 6.483-5.202-2.967zm24.267.103.392 5.735-5.834 3.57-.189-5.697zm11.08.062-3.366 6.589-19.548 12.943-16.15-9.775-2.98-6.38 18.842 11.49zm-52.603 2.436c5.183-.04 9.142 5.074 10.488 9.548.979 2.96 1.126 4.023 1.214 8.715.09 4.78.249 5.606 1.212 6.284.594.418.767.306.846-.539.174-1.877 2.59-.711 2.627 1.267.039 2.198-2.573 2.895-4.495 1.2-1.024-.902-1.038-.894-1.365.872-.218 1.182-1.73 8.585 2.062 10.442.715.065.888-.466.36-1.087-1.063-1.246 1.072-2.672 2.805-1.875 2.094.963 1.87 4.098-.374 5.204-2.568 1.267-5.878-.194-7.416-3.271-1.128-2.26-1.112-5.386.056-10.025.538-2.138.776-3.5.902-5.141.04-.54.112-1.126.157-1.305.125-.5-.141-.524-1.062-.098-2.512 1.164-5.245.321-5.912-1.825-.797-2.565 2.293-5.202 4.189-3.575.72.618.63 1.229-.235 1.62-1.497.678-.993 2.477.597 2.127 5.245-1.436.502-15.086-5.394-16.05-3.899-.638-6.976 3.471-4.16 5.685 1.102.867 2.226.408 1.989-.813-.331-1.702 2.106-1.51 3.001.237 1.457 2.843-2.338 5.14-5.87 3.555-6.335-3.518-1.97-11.065 3.778-11.152zm23.492 1.166 5.215 3.273.024 6.327-5.182-2.873zm11.514.586.005 5.809-5.056 3.384.021-6.181zm13.576 3.854-2.604 6.657-16.318 10.27-13.404-7.858-2.29-6.174 15.791 9.561zm-105.671.117-.124 33.744c-5.276.19-8.322 5.019-4.387 9.605 0 0-.689.083-1.494.183-3.57.441-5.967 2.187-5.502 4.315.143.652-.006 1.31-.208 1.634-.321.873-.24 1.54.185 2.295.333.593.276.83.087 1.267-.408.942-.314 1.67.159 2.39.586.535.421.965.339 1.82-.098 1.206.134 1.692.953 2.165 1.055.609 1.446 1.603.243 1.518-.597-.043-2.704 1.827-2.704 1.827l-.009-54.152zm28.59 4.429c.944.001 1.913 1.104 3.302 2.965.84 1.333.854 1.152 2.785 1.089 1.971.14 3.17.627 3.684 1.181.194.21-.323.262-1.575 1.431-1.297 1.213-1.478 1.696-2.342 3.054-.311.49-.986.534-1.3.085-.255-.363.403-1.54 1.635-2.924 1.736-1.543 1.373-1.7-1.143-1.465-1.768.166-1.956.084-2.623-.913-1.988-3.695-3.05-3.574-4.979.095-.526 1.027-.318.962-2.583.792-1.784-.133-2.227.283-1.224 1.155 1.568 1.202 2.17 4.027 2.084 3.993l-1.214.1s-.369-.638-.53-1.04c-.326-.811-1.207-2.033-2.164-2.998-1.355-1.368-.605-2.11 2.432-2.404 1.693-.163 1.731-.185 2.514-1.24 1.378-1.857 2.297-2.957 3.241-2.956zm73.842 3.616-1.773 5.751-13.92 8.983-11.274-7.03-1.48-5.419 12.953 7.668zm-47.9 4.394s3.989 7.266 5.429 11.97c1.253 4.093 2.973 15.936 2.507 16.662-.982-1.259-4.245-.987-4.29-.976.282-1.385-.917-4.184-3.696-4.747zm45.685 2.811-1.407 5.663-11.854 7.887-9.737-6.215-1.26-5.483 10.776 6.727zm-68.754.076 1.532.5.254 10.238 11.825 1.864.263 1.754-13.693-2.097c-.129-4.366-.181-12.259-.181-12.259zm-6.006.285.289 11.906c-.128-.04-9.867 1.213-13.597 2.106l.224-1.63s6.772-1.34 11.676-1.848c.011-3.329-.005-6.83 0-10.223zm110.066 2.575s1.61.144 5.056-.406c8.886-1.41 11.289-.818 12.415 1.725 1.227 3.94-3.428 4.02-4.248 1.518-.522-1.622-2.43-1.274-8.803.104-5.45 1.178-8.898.208-8.821-2.653.078-2.941 3.693-3.189 4.401-.288zm-72.972-2.408c1.099-.01 2.003.808 2.016 1.826.012 1.018-.87 1.852-1.968 1.863-1.098.011-1.998-.802-2.01-1.82-.012-1.019.864-1.858 1.962-1.869zm-28.85.225 1.4.396s.18 7.766.222 7.778c3.015.628 9.347 1.753 9.347 1.753l.33 1.536c-2.65-.586-11.099-1.9-11.099-1.9-.252-3.368-.2-9.563-.2-9.563zm-10.237.11s-.016 6.197-.14 9.525c.047-.029-7.177 1.041-10.847 1.734l.29-1.243c2.901-.597 6.06-1.195 9.256-1.805-.055-2.437-.034-7.783-.034-7.783zm5.152 1.351c.881-.008 1.61.654 1.62 1.471.01.818-.703 1.484-1.585 1.493-.882.009-1.6-.644-1.61-1.462-.01-.817.693-1.493 1.575-1.502zm120.139 4.287c.977 1.353 1.8 1.316 2.77 1.188-.245.065-1.39.688-1.325.895.033.103-.488 1.808.293 1.88 2.946.275 1.445 3.107 1.797 3.545.793.844 1.374 1.38.824 2.429-.488.93-1.184.898-.646 1.698 1.169 1.641-.455 1.975-.315 3.09.096.672.348 1.592.078 2.115-.812 1.575-3.664 2.465-6.831 2.577-.451.017-.107-.666-.316-1.1-.782-.46-.35-1.233-.086-1.738.262-.67.265-.671-.22-1.013-1.348-.784-1.278-1.143-1.167-1.705.302-1.663.024-1.827-.516-2.075-.692-.318-.595-1.02-.283-1.918.215-.622.065-.778-.26-1.344-.19-.332-.247-.513-.251-.726.1-.859-.73-.859-1.895-.02-.99 1.57-1.336 3.636-1.958 4.939-.48 1.001-.56 2.048 0 4.362 1.079 3.538.267 4.124-4.02 3.355-3.222-.747-4.164-3.942-3.254-7.846.147-.632.11-1.243.047-1.738-.342-2.691.417-5.272 2.448-7.03 3.389-2.935 5.061-3.378 12.045-2.94 2.733.189 2.94.35 2.94.35s.016-1.22.1-1.23zm-50.31.635-.833 5.476-6.573 4.269c-3.08-2.272-5.467-1.527-7.648.887-1.719-.815-5.151-3.033-5.151-3.033l-.857-6.217 9.513 6.167zM74.2 866.673c.882-.009 1.6.648 1.61 1.466.01.818-.693 1.489-1.575 1.497-.881.01-1.61-.643-1.62-1.46-.01-.819.703-1.494 1.585-1.503zm68.586 5.85-.38 5.275-2.337 1.617-2.346-.23-.542-3.27zm-68.646-.197c.881-.009 1.61.653 1.62 1.47.01.818-.703 1.485-1.585 1.493-.882.01-1.6-.643-1.61-1.461-.01-.818.693-1.493 1.575-1.502zm6.43.187c.882-.008 1.6.644 1.61 1.462.01.817-.693 1.488-1.574 1.497-.882.009-1.605-.648-1.616-1.466-.01-.818.699-1.484 1.58-1.493zm-12.787.238c.882-.008 1.605.649 1.615 1.466.01.818-.693 1.489-1.575 1.498-.881.009-1.61-.649-1.62-1.466-.01-.818.698-1.489 1.58-1.498zm118.765.655c.45-.032 1.114.589.787 1.515-.437 1.056-.134 1.417.586 2.277.61.728.501.828.407 1.293-.151 3.045 1.97 1.736 1.043 3.946-.201.481.061 1.17.152 1.74-.205-.523-4.098-.488-4.43.04-.554-.078-1.244-3.472-.683-3.917.072 0 .476.583.683.912.52.824.632.794.473-.159-.633-3.782-.233-7.628.982-7.647zm-99.534-.083c.882-.01 1.606.648 1.616 1.466.01.817-.699 1.483-1.58 1.492-.882.009-1.6-.643-1.61-1.461-.01-.818.692-1.489 1.574-1.497zm-25.868.183c.882-.01 1.6.648 1.61 1.466.01.817-.693 1.483-1.575 1.492-.881.009-1.61-.644-1.62-1.461-.01-.818.703-1.489 1.585-1.497zm62.625.647 4.775 2.895c.076.907-.055 2.206.265 2.648-3.122-.28-4.709 1.364-4.709 1.364zM74.65 876.36c5.239.054 10.31.846 15.019 2.276l-.377 1.563c-9.42-2.283-19.959-2.439-30.038-.001l-.777-1.647a56.99 56.99 0 0 1 16.173-2.19zm-29.624 2.022c1.373-.018 2.775.462 3.759 1.492 1.85 1.935.944 5.509-1.684 6.637-3.933 1.687-8.011-1.965-6.33-5.709.697-1.554 2.49-2.398 4.255-2.42zm97.184.796-.066 1.568-1.191-.927zm-24.989-.017c1.732-.017 3.15 1.275 3.17 2.88.02 1.606-1.367 2.921-3.099 2.938-1.73.018-3.15-1.27-3.17-2.875-.02-1.605 1.368-2.926 3.1-2.943zm-72.11-.157c-.423.004-1.125.161-1.445.433-.838.712 0 .735 1.104.927 1.959.34 2.493 1.908 2.31 3.598-.168 1.536.388 1.514.84.945 1.834-2.315.286-5.705-2.81-5.903zm90.964 1.09a1.35 1.35 0 0 0-.086.047c.022.017.052-.005.086-.047zm-61.949.698c2.346-.037 2.58 3.54.492 7.53-.627 1.199-.945 1.048-1.623-.77-1.67-4.48-1.296-6.722 1.131-6.76zm5.425.122c.453-.02.89.142 1.248.523 1.257 1.337.28 3.492-3.092 6.801-.82.805-1.243 1.111-1.543 1.116-.841.013-.837-.117.127-2.996.426-1.27.846-2.664.936-3.096.285-1.385 1.33-2.305 2.324-2.348zm-8.5 3.17c.226.99.623 2.37.879 3.064.255.696.424 1.357.38 1.467-.208.532-1.703-.198-2.768-1.352-2.145-2.326-2.996-4.345-2.548-5.426.656-.864 2.328-1.243 3.095-.483.792.786.904 2.463.963 2.73zm14.847-2.257c2.265 1.249-.359 4.073-5.453 6.406-2.179.999-2.022.546-.366-1.433.635-.757 1.484-1.99 1.9-2.745.919-1.666 1.838-3.333 3.92-2.228zm-22.657-.07c.721-.003 1.456.714 2.816 2.553.606.82 1.59 1.986 2.19 2.594.6.608 1.072 1.213 1.048 1.342-.24 1.285-7.305-2.814-7.808-4.531-.171-1.046.72-1.979 1.754-1.958zm101.313 4.084c1.268 2.44 1.373 3.953.315 4.5-1.504.777-3.43-.422-3.462-2.155-.011-.583-.65-2.616-1.236-3.938-.483-1.088-.547-1.759-.147-1.811 1.564.238 3.873 2.258 4.53 3.404zm-8.467-1.876c-.499 1.39-1.03 3.56-1.025 4.194.001.249-.164.757-.36 1.13-1.305 2.47-4.365.44-3.228-2.141 1.025-2.328 3.623-4.746 4.643-4.823.698-.052.041 1.436-.03 1.64zm2.071-1.329c.512-.045.937.993 1.592 2.74.885 2.362.841 4.2-.124 4.98-2.068 1.67-4.224-.773-3.38-3.833.675-2.445 1.333-3.836 1.912-3.887zm-69.205.19c2.445 35.052-17.02 61.945-18.403 62.676l-6.604 3.32-11.542-5.882c12.035-15.194 19.258-32.63 19.871-52.908 11.081 1.037 16.812-7.169 16.678-7.206zm63.521.333c.81-.203.243.45-.563 1.52-.86 1.141-1.982 4.249-2.864 4.744-1.98.875-4.211-.812-3.007-2.267 1.11-1.34 4.361-3.478 6.434-3.997zm11.759.278c.31 0 .889.192 1.73.576 4.109 1.879 6.13 4.344 4.365 5.514-1.24.821-2.56.176-3.788-2.002a19.599 19.599 0 0 0-1.688-2.446c-.923-1.102-1.136-1.641-.62-1.642zm23.135 1.33c2.645-.027 4.811 1.935 4.84 4.388.03 2.453-2.09 4.466-4.734 4.492-2.645.027-4.812-1.945-4.841-4.398-.03-2.453 2.09-4.456 4.735-4.483zm-1.462 1.147c-3.117 1.268-2.195 5.803.485 6.467 1.132.298 2.512-.135 1.945-.642-3.54-1.044-3.554-3.466-2.12-5.234.23-.284-.076-.686-.31-.59zm-129.665 5.781c-.13 2.56.458 5.533-.871 8.308-2.014 4.266-8.443 6.196-11.872 5.805-.714-.275-1.546-.535-2.251-.26-.427.166-.953.142-1.407-.055-.438-.191-.86.055-1.284-.088-.496-.314-1.306-1.024-1.209-1.55.158-.742.098-1.292-.838-1.539-1.296-.341-1.557-.993-1.168-2.896.084-.411.184-.597-.104-.778-.954-.597-1.313-1.697-.681-2.852.412-.666.73-1.136-.004-1.668-.288-.61-.237-.843.392-1.62.67-.736.786-.82.36-1.454-.956-1.423.137-2.467 1.434-3.047 1.736-.654 3.253-.99 5.084-1.18.68.039.65.594 1.058 1.13.6.872-.255 2.126.234 2.573.709.306 1.029.913.97 1.431-.028 1.207.05 1.62.4 2.126.388.561.532 1.59.165 2.286-.327.62-.292.579.133.947.421.364.623 2.184.473 2.149l1.78-.145c-.186.183.682-3.4 2.72-6.164-.104-2.172-.99-4.172-.9-7.04 4.403-1.444 7.566 2.034 7.386 5.581zm68.319-4.641c.633.464 3.781 1.289 3.897 1.196-.104 1.399.806 4.12 4.087 5.04.026 3.901-.071 21.911-.071 21.911-4.55-7.125-7.354-16.313-7.913-28.147zm-76.538.369s.173.52.33 1.523c.274 2.05-.03 2.328-.613.925-.682-1.642-.722-.364.04 3.393.183.91.176 1.12-.068 1.733-.152.384-.424 1.277-.637 1.976-.626 2.06-.99 2.65-1.619 1.008-.32-.838-.591-.97-.358-1.623.292-.82.225-1.434-.355-2.234-.094-.13-.302-.43-.336-1.277.186-1.903-.727-1.924-.905-2.417.033-.744-.336-2.55.217-2.5.454.042 2.1.09 2.88-.173.346-.117 1.424-.334 1.424-.334zm68.203.473c1.7-.017 3.09 1.248 3.11 2.823.019 1.576-1.344 2.865-3.043 2.882-1.7.017-3.095-1.242-3.114-2.818-.02-1.576 1.348-2.87 3.047-2.887zm-47.514 1.573 2.33.418c.52.162.037 29.974-18.701 51.426l-.145-4.985c8.922-11.888 15.367-26.482 16.516-46.86zm39.536.764.402 7.125c-1.31-1.04-4.638-2.99-4.613-3.031l.025-2.634c.003.005 2.865.214 4.186-1.46zm-17.974.036c.562.222 1.05.728 1.53 1.094l-1.527.946zm53.42.545c10.058 2.804 19.973 2.759 29.782.768l.665 1.745c-10.646 2.637-21.215 2.446-31.708-.7zm-48.762 1.163.528 3.073-5.694 3.39.293-4.662 2.968-1.77zm50.288 2.733c.918-.009 1.67.676 1.681 1.528.01.851-.728 1.55-1.646 1.558-.918.01-1.666-.676-1.676-1.527-.01-.852.723-1.55 1.641-1.559zm25.867.218c.918-.01 1.67.676 1.681 1.527.01.852-.728 1.55-1.646 1.559-.918.009-1.666-.676-1.676-1.528-.01-.851.723-1.549 1.641-1.558zm-48.465 4.623c.736 2.436.555 7.935-.416 11.662-.292 1.119-.48 5.094-.48 5.094-.18.208 5.718-4.492 7.587 1.705.642 2.13-2.007 4.14-3.773 3.543-.344-.117-.236-1.17.095-1.79.987-1.847-1.805-2.82-3.404-1.184-3.695 3.778.06 13.39 5.827 14.342 4.788.79 8.645-3.619 5.458-6.266-1.394-1.157-3.637.424-2.618 1.894 1.088 1.572-.928 2.19-2.446.731-2.648-2.542.348-6.345 4.357-5.45 6.41 1.376 5.057 10.67-1.67 11.17-5.143.382-8.599-1.708-10.76-5.4-2.031-3.546-2.173-6.368-1.216-12.572.568-3.684.122-6.79-.983-6.773-.605.01-1.078.278-1.176.938-.2 1.35-.369 1.6-1.28 1.107-1.155-.627-1.792-2.635.106-3.985 1.946-1.385 4.454.795 4.35 1.17.047-.07.243-.422.51-2.001.865-5.14-1-10.579-3.33-9.716-.511.189-.45.403.216.754 1.548.814.174 2.881-1.772 2.665-2.756-.306-3.37-3.875-.936-5.444 3.832-1.9 6.938 1.106 7.754 3.806zm-18.806-4.349s4.881 2.783 5.139 3.495c.165.456.35 4.424.35 4.424l-8.471-4.957-12.195 6.935c.205-1.531 1.095-5.47 1.095-5.47l6.485-3.775c.031.229 4.466 2.965 7.597-.652zm60.771.476c.918-.01 1.67.676 1.681 1.527.01.852-.723 1.55-1.641 1.559-.918.009-1.67-.672-1.681-1.523-.01-.852.723-1.554 1.641-1.563zm-12.954-.022c.918-.009 1.676.672 1.686 1.523.01.851-.733 1.554-1.651 1.563-.918.01-1.666-.676-1.676-1.528-.01-.851.723-1.549 1.64-1.558zm6.511.372c.918-.01 1.676.676 1.687 1.527.01.852-.729 1.55-1.647 1.558-.918.01-1.67-.676-1.681-1.527-.01-.852.723-1.55 1.641-1.558zm-16.314 2.129c4.404.865 8.82 1.755 13.043 2.198l.13 12.028-1.234-.07-.14-10.747c-4.08-.285-7.928-1.11-11.54-1.99zm32.77.505-.234 1.412s-7.63 1.198-11.614 1.66c-.072 2.421-.092 10.51-.092 10.51l-1.525.254.037-12.244c4.523-.44 9.041-.895 13.427-1.592zm-73.785.42 8.957 5.535 1.037 5.835-10.443-6.485s-9.507 5.888-13.063 8.071l1.1-5.494zm41.434 1.234c3.611.721 7.222 1.47 10.835 1.771l.118 9.677-1.66-.416-.104-7.853c-2.822-.237-5.718-.754-8.632-1.335zm31.967.398-.309 1.314s-5.787.788-8.773 1.274c-.264.055-.197 8.517-.197 8.517l-1.428.197-.133-9.879zm-16.203 1.027c.918-.009 1.665.676 1.676 1.528.01.851-.723 1.55-1.642 1.558-.918.01-1.67-.671-1.68-1.523-.011-.851.727-1.553 1.646-1.563zm-57.356 3.291 10.59 6.68s1.217 3.463 1.474 5.38l-12.187-7.354-15.313 9.34 1.788-5.797zm-64.324-.021c.63.01 1.257.402 1.58 1.3.457 1.265 1.315 1.64 3.577 1.61 4.44-.204 9.1-2.123 13.286-.656 2.035.703 2.75 3.492 1.042 4.211-1.854.78-2.64.283-3.278-1.067-.59-.575-1.328-.488-5.309.133a79.63 79.63 0 0 1-5.555.611c-4.436.317-6.881-.987-7.425-3.436-.347-1.566 1.033-2.723 2.082-2.706zm121.567 2.67c.919-.009 1.67.672 1.682 1.523.01.852-.729 1.554-1.647 1.563-.918.01-1.67-.676-1.681-1.527-.01-.852.728-1.55 1.646-1.558zm-32.518 1.767c1.194-.012 2.174.879 2.187 1.986.014 1.108-.946 2.016-2.14 2.028-1.195.012-2.17-.879-2.183-1.986-.013-1.108.941-2.016 2.136-2.028zm-24.73 1.318s8.715 5.441 12.749 7.954l2.214 5.963-14.843-9.022-18.238 10.918 2.204-6.117zm63.047 2.08c.785 1.982 2.217 3.495 3.731 5.031 0 0-.851 1.484-3.87 1.386-1.65-.054-1.739.186-2.306 1.221-.93 1.312-1.685 2.168-2.285 2.593-1.06.751-3.038-.384-4.664-2.683-.593-.838-.838-1.036-2.633-1.008-2.756.043-3.75-.669-2.315-1.812 1.253-1.406 2.155-2.953 3.277-4.431l1.239.136c.052.17-.975 3.014-2.408 4.165-.728.757.287 1.036 2.06.695 1.126-.31 1.413-.185 2.24 1.412 1.725 3.048 2.628 2.904 4.695-.172.724-1.374.697-1.51 2.671-1.107 2.12.205 2.762-.04 1.893-.728-1.757-1.393-2.717-4.664-2.717-4.664zm-62.991 3.856s15.76 9.648 15.72 9.44l3.14 6.926-18.496-11.498-22.695 13.578 3.413-6.833zm.587 6.3 5.495 3.379-.036 6.044-5.611-3.525zm-1.412.17.08 5.964-4.947 2.71-.255-5.597zm-6.278 3.822-.046.231.117.057.04.005.16 5.376-5.693 3.631.042-6.072zm14.544.117 5.166 3.222.19 6.398-5.606-3.43zm6.377 3.928 5.18 3.363.161 6.388-5.292-3.33zm-27.478-.073-.046 5.903-5.178 3.327-.222-6.03zm54.614 7.809c-1.028.987-1.406.863-2.278-.776-.905-1.701-2.268-2.5-4.248-2.474-2.498.031-.86-1.482 1.789-1.652 4.578-.171 6.892 2.685 4.737 4.902zm-61.227-3.677.116 5.923-5.15 2.46-.147-2.809 2.662-4.282zm-6.657 7.892.174 1.08-.951.335zm61.72 42.897c-21.65 4.217-42.386 2.628-57.262.021l-6.84 10.755-.467-.02-1.763 2.782.187.321s-5.687 10.038-8.078 13.2c27.806-.15 88.836-.062 88.836-.062l-3.695-6.947.204-.188-3.647-7.253-1.19-1.258s-.724-1.31-1.265-2.717c-.498-1.295-2.64-4.843-2.64-4.843l-.305.022zm-56.485 1.32c.286.211 27.695 5.1 56.14.275l1.545 2.418c-24.897 5.223-60.878.025-59.455-.462zm.456 4.745c2.508-.074 5.045 1.184 6.75 3.274.543.665 1.429 2.625 1.429 2.625s1.207-1.84 2.387-2.757c1.785-1.39 4.1-2.546 7.44-2.424 3.077.112 6.459 1.668 9.5 6.143.78-2.573 10.92-11.29 19.208-.348.963-2.896 5.44-8.673 12.64-4.6.49.98.994 2.057.994 2.057-4.249-2.78-11.276-.95-12.95 3.36-.152.526.036.8.254 1.311 2.184 2.917-3.526 2.827-1.826.48.319-.535.346-.975-.156-1.678-1.333-1.866-5.355-4.196-8.312-4.147-3.416.057-7.207 2.145-8.478 4.05-.469.703-.577 1.408-.17 2.025.296.622.192 1.142-.31 1.521-1.179.89-2.653-.146-2.082-1.468.374-.581.32-1.296-.44-2.29-1.523-1.998-5.086-4.11-8.195-4.062-4.448.08-8.951 3.035-8.675 5.482.121 1.075-.197 1.475-1.143 1.348-1.15-.155-1.277-1.163-.46-1.98.121-.263.318-.9-.051-1.367-4.676-5.907-11.715-4.214-13.33-2.901 1.574-2.483 3.763-3.588 5.976-3.654zm-4.195 4.075c1.763.02 3.657 1.262 4.255 2.229.437-.417 4.43-2.167 6.359.361-5.074-.372-5.154 4.622-1.405 5.116-1.727 4.812 5.939 5.13 5.469.603 5.726.805 5.043-5.932-.353-5.24 2.832-1.898 4.753-1.275 8.14.924 1.147-1.374 5.806-2.646 6.94-.235-5.333-.324-4.445 5.409-.46 5.472-1.198 3.967 6.635 5.455 5.447-.48 4.974.34 4.276-5.894-.494-5.396.357-1.133 5.198-1.606 7.328.568 1.971-1.657 4.144-2.788 8.054-.396-5.34-.845-5.428 5.586-.466 5.218-.477 4.257 6.537 4.353 5.382-.57 5.346-1.318 2.427-6.629-1.5-5.183 1.752-1.919 4.714-1 5.89-.606 3.648-3.845 6.804-.607 6.804-.607-6.324-.635-4.978 7.731 1.197 4.72-.012 1.72.78 3.212 3.295 3.464l2.972 5.753-84.79.223 4.704-7.614c.473.14 3.176.377 3.768-2.56 5.566 1.658 5.96-4.357 1.801-5.323.506-.32 1.076-.448 1.663-.441zm-3.315 2.165c.552.827.086 1.363-.868 1.382 0 0 .623-.834.868-1.382zm69.75 1.307.545 1.072c-.593-.225-.665-.462-.545-1.072z"/></g></g></svg>