<svg xmlns="http://www.w3.org/2000/svg" width="234" height="333"><g transform="translate(0 -719.362)"><rect width="233.244" height="332.244" x=".378" y="719.74" fill="#fff" stroke="gray" stroke-width=".756" rx="8.919" ry="8.946"/><g fill="red" aria-label="K" font-family="Levenim MT" font-size="3.772" font-weight="700" letter-spacing="0" style="line-height:0%;-inkscape-font-specification:&quot;Sans Bold&quot;" word-spacing="0"><path d="M27.839 722.44h-6.116l-8.362-12.028v12.028H8.148v-27.096h5.213v9.32l7.35-9.32h6.207l-9.468 12.084z" font-size="37.724" style="line-height:1.25" transform="scale(.95622 1.04578)"/></g><g fill="red" aria-label="K" font-family="Levenim MT" font-size="3.772" font-weight="700" letter-spacing="0" style="line-height:0%;-inkscape-font-specification:&quot;Sans Bold&quot;" word-spacing="0"><path d="M-216.874-971.724h-6.115l-8.363-12.028v12.028h-5.213v-27.096h5.213v9.32l7.35-9.32h6.207l-9.468 12.084z" font-size="37.724" style="line-height:1.25" transform="scale(-.95622 -1.04578)"/></g><path fill="red" d="m17.206 761.811 9.414 9.446-9.414 9.445-9.415-9.445zM216.794 991.022l9.415 9.446-9.415 9.445-9.414-9.445zM58.63 804.63l18.829-18.89-18.83-18.891-18.828 18.89ZM175.37 1004.876l18.83-18.891-18.83-18.891-18.829 18.89z"/><g stroke-width="3.181"><path fill="#131f67" d="M30.39 757.403c-.057 77.357.652 172.424.554 256.677l172.67.241-.668-256.266Zm51.036 1.725c29.79.798 59.766.036 89.776.3 0 0-10.937 17.588-14.252 23.124-.726 1.217-.8 2.08-.412 2.585.602.783.55 2.106-.127 2.87-.29.326-.422.539-.445.735-.022.195.167.41.32.765.53 1.688-.85 2.854-2.293 3.394-.967.361-3.12.598-4.71.525-9.958-.454-29.475-8.287-37.522-8.908-5.582-1.455-12.8-.961-18.749-.658-1.123.06-.922-2.366-.922-2.366-.922-8.016-7.033-15.004-10.664-22.366zm91.394.88 28.152.073.12 4.214-11.868 11.236c-1.117 1.05-2 1.922-2 1.922l-.09 10.155c-8.067-4.035-9.667-8.844-11.132-14.133-13.516 9.21-14.186 29.41.53 39.834.13-4.518 3.86-13.388 10.443-14.036l.025 35.189-8.08-7.342-17.6.184c2.91-4.36 2.982-7.825 1.112-11.918-3.151-6.688-8.005-21.95-7.63-21.899 0 0 .14-.328.54-.41 1.46-.299 2.39-1.602 1.976-3.172-.078-.506-.075-.387.297-1.043 1.437-2.262-.266-4.724-.266-4.724zm-93.37.06 10.53 17.718s-.14.812-.084 1.288c.081.686.327 1.296.75 1.936.279.424.484 1.001.546 1.535.103.878.103.88 1.488 2.04.29.245.347.395.238.648-.461 1.074-.196 3.273.707 5.9 1.14 3.317 1.436 3.274-.707 7.704-.447.926-.988 2.16-1.57 3.296-2.645 5.015-3.054 6.376 1.465 9.058 1.273.755 1.644 1.41 1.323 2.91-.252 1.18-.305 1.933.306 2.6.396.432.755.503.655.836-.068.226-.366 1.208-.268 2.034.262 2.224-2.516 5.496-5.048 6.64-.506.332-.65-.074-.935-.54-2.613-4.257-9.138-2.544-9.58 2.529-.118 1.341-.074 1.923-.448 2.208-.127.096-.51.296-.51.296s-9.772 5.869-15.986 8.883c-.405.197-.77.522-1.055.574-.33.061-.575.006-.779-.185-2.284-4.044-1.004-8.814-.805-10.505-.048-.6-.6-.71-1.434-.72-1.411-.018-3.445 1.306-3.889 2.542-.377 1.05-.62 1.73-.96 1.725-.342-.005-.508-.43-1.356-1.946-1.763-3.156-2.035-3.556-3.686-5.39-1.316-1.463-2.44-1.659-3.735-.572-.9.755-.87.097-1.634-.286-1.319-.836-3.305-.093-3.357 1.08-.043.983-.053 1.723-1.128 1.786-1.197.07-1.72 1.503-1.386 3.547.175 1.075.21 1.248-.146 1.642-1.16 1.283-1.313 2.171-.68 3.967 1.807 5.12 4.43 8.568 6.894 13.224 0 0-6.287 3.294-10.018 5.208l.082-95.195zm122.042 5.257-.008 82.694-13.458-12.305s-.233-15.847-.207-22.326c.025-6.478.139-12.956.113-14.161-.026-1.205.082-6.331.134-11.594.109-11.026-.982-9.665 1.234-11.777zm-26.364 9.871.74 1.998c-5.655 2.992-12.598 19.699.067 31.994l-.26 2.529c-13.277-11.203-10.786-27.233-.547-36.52zm.963 2.361c1.932 3.713 4.132 7 7.136 9.016-1.627 3.58-2.331 7.533.403 12.869-1.927.976-4.606 3.57-7.383 8.888-9.994-9.392-7.74-22.98-.156-30.773zm-74.497 6.887c5.553.018 11.343.867 16.648 2.359 3.319 15.694 9.18 26.252 9.143 32.395 0 0-.463-.072-1.45-.733-2.415-1.623-5.593-.725-7.297 1.333-1.616 1.95.003 4.67-.826 5.807-1.567 2.122-5.599 6.044-6.272 5.913-.49-.096-.411-.294 1.318-2.745 1.801-2.552 3.183-4.865 2.592-5.432-.252-.24-.386.267-1.73 2.423-3.157 5.06-5.93 8.188-7.026 7.78-.512-.192-.246-.611 2.09-3.46 2.637-3.219 3.37-5.233 3.111-6.126-.2-.685-.609.422-1.705 2.4-1.168 2.093-3.276 4.425-4.981 6.664-.54.81-1.234 1.28-2.12 1.648-.658.263-1.706.692-2.313.62-.312-.038-.097-.208.332-.595 3.362-3.199 6.255-6.767 7.9-10.194.253-.45-.108-1.09-.524-.619-2.519 4.093-6.025 9.198-9.826 11.446-.816.482-2.043.89-3.148.802-1.869-.052-1.207-.437.497-1.448 3.647-2.163 8.77-8.392 9.6-10.597.197-.521-.02-.82-.38-.784-3.006 4.44-6.975 9.325-11.582 11.363-2.483 1.1-5.612 1.312-7.149.612-1.126-.513-.843-.689 1.157-.805 4.815-.433 10.462-4.612 13.263-9.04 1.64-2.45.492-1.889-1.38.475-3.195 4.035-9.53 7.898-13.454 7.585-3.968-.224-6.247-3.078-5.732-5.52.311-1.478 1.446-2.983 3.667-3.411 3.802-.734 6.28 4.851 2.799 5.898-1.186.357-1.636.084-1.206-.356 2.582-1.042 1.44-3.918-.736-4.215-1.369-.187-2.958.666-3.028 2.633.036 1.467 1.336 2.903 3.95 2.942 3.098.045 7.855-2.014 10.747-5.815 2.053-2.906.165-1.927-1.364.011-1.35 1.71-5.704 4.1-6.035 4.011l.15-1.972c.067.34 6.704-3.856 6.322-6.988-.245-2.273.115-2.968 2.668-2.936 1.908.025 4.333.65 5.037 1.462.725.804 1.54 1.059 1.181-.295-.58-2.198.12-2.56-1.253-2.145-.948.286-1.788-.42-2.737-1.047-1.044-.69-2.366-.986-3.944-.936-1.178.037-1.71-.03-1.52-1.06.134-.726.286-1.387.06-1.863-.368-.776-1.842-1.578-3.508-2.72-1.966-1.347-1.601-1.425 2.611-10.382 1.769-3.76 1.778-4.532.727-7.313-1.661-4.393-1.92-6.152 1.209-6.76a50.879 50.879 0 0 1 5.447-.27zm17.757 2.573 1.623.432c.013.001 5.04 16.055 7.923 23.895.879 2.392 1.546 5.623 1.71 8.657-.088 4.178-2.632 7.171-5.727 7.494-2.191.229-4.566-.829-5.65-3.09-.914-2.151-.217-4.685 2.429-5.556 4.58-1.506 7.922 3.914 3.43 5.574-2.323.859-4.526-.699-3.477-2.506.736-1.267 2.798-1.127 3.283.184.395 1.395 1.054.739.775-.206-.846-3.01-5.017-2.308-5.357.463-.006 3.434 4.048 4.247 6.471 2.323 1.878-1.538 2.08-4.323 1.617-6.74-.635-5.022-3.688-11.537-5.85-18.97-1.08-3.713-2.645-8.138-3.2-11.954zm64.617.284 3.048 1.123-.09 9.315-2.587.821c-3.375-4.798-.548-11.255-.37-11.26zm-61.808.504 2.233.8c1.212 6.578 6.959 19.157 8.978 28.541.556 5.64.644 7.294-3.481 10.291v-.042l-2.23-.004s-.008-.126.969-.8c5.403-3.733 2.197-11.98.172-18.32-3.532-10.123-6.685-20.48-6.641-20.466zm-20.889.622c-.283.002-.57.013-.86.027-3.371.162-3.925.361-3.937 1.04-.023 1.28.542 1.85 3.677 1.54 2.714-.267 6.644.13 9.35 1.214 3.087 1.237 3.82 1.53 4.929 2.06 2.785 1.335 2.3.011-.216-1.528-5.14-3.146-8.696-4.394-12.943-4.353zm24.318.492 2.096.744s.552 1.517.749 2.385c2.025 8.397 7.559 17.846 8.19 27.666.14 3.218-.46 6.216-3.008 7.663l-1.92-.003c2.056-1.888 3.425-2.433 2.864-9.009-.893-8.445-6.882-19.006-8.97-29.446zm3.719 1.37 1.933.664c2.206 11.339 13.219 28.293 6.173 36.454l-1.757-.003c1.573-2.265 2.224-4.256 1.995-7.316-.665-10.3-6.314-20.306-8.344-29.8zm3.24 1.048 2.082.593c2.805 11.49 13.632 30.327 5.879 35.52l-1.527-.04c5.853-10.1-2.972-20.577-6.433-36.073Zm3.628 1.077c.64.33 1.553.49 2.25.678 2.174 8.688 6.163 17.235 7.97 25.326.605 4.429-.45 7.743-3.454 8.998l-.641-.001c2.7-3.765 2.201-8.52.774-13.66-1.92-6.913-5.66-14.52-6.899-21.341zm-32.805.098c-.967-.01-1.98.124-3.05.439-1.097.382-.964 1.183.054 1.019l1.36-.22c2.498-.4 5.575.44 9.3 2.54.9.507 1.879.996 2.121 1.164.685.475 1.416.475 1.167-.13-.1-.242-1.536-1.277-2.807-1.94-2.717-1.528-5.243-2.842-8.145-2.872zm36.342.814 2.097.3c3.913 16.813 12.554 27.27 5.134 33.494l-1.853-.003c2.03-1.916 2.952-4.919 2.287-8.471-.68-3.627-2.69-9.384-4.356-14.447-1.932-5.87-3.487-10.832-3.31-10.873zm3.008.477 1.776.31c2.068 6.834 5.586 15.308 7.7 22.365 1.301 4.34.765 9.682-2.157 10.661l-1.502.021c2.485-3.066 2.844-6.264 1.72-10.402-2.309-8.493-5.813-15.908-7.537-22.955zm10.965.027c1.782 7.085 6.07 17.896 7.61 21.63 2.053 3.812 1.425 9.453-1.676 11.68l-1.466.027c1.774-1.533 2.387-4.117 2.11-6.797-.782-7.574-6.546-18.086-8.625-26.157zm-7.794.322 1.832.159c1.821 7.41 5.378 14.617 7.681 22.03.429 1.674.801 3.717.647 5.22-.323 3.153-1.736 5.637-2.973 5.635l-1.263-.002c2.584-2.844 2.466-6.727 1.37-10.903-1.811-6.902-6.208-15.226-7.294-22.139Zm-47.717-.04c-.763.003-.778.651.44 1.644.745.607.688.405.645.789-.184 1.64.091 3.142.822 1.454.195-.45.48-.959.766-.895.537.155.262 1.07.521 1.535.437.818-.03 1.017-1.096.762-.767-.183-.812.202-1.29.692-.835.857-.7 1.37.584 1.105.212-.044.39.013.555.048.4.086.766.322 1.719.999 1.224.869 2.958 2.027 4.084 2.205 1.803.286 1.402-.516-.075-1.043-1.265-.451-2.833-1.702-2.826-2.048.003-.265.401-.107 2.684-.684.99-.25 2.383-.812 2.97-1.062.969-.412 1.014-.408 2.53-.364 2.582.076 2.977-.005 1.169-1.253-3.654-2.522-8.533-4.168-11.123-3.128-.785.315-.767.121-1.333-.181-.741-.396-1.346-.576-1.746-.574zm52.364.312c2.519 9.059 7.409 17.18 8.585 25.77.266 2.457-.183 4.856-2.39 6.928l-1.487.021c-.217.003 2.082-3.28 1.89-6.094.063-1.5-.113-3.11-.571-4.7-2.867-7.641-5.69-14.566-7.88-21.848zm-45.797 2.899a.157.157 0 0 1 .04 0c.692.102.715.357.513.69-.299.493-.827 1.442-.827 1.442s-.702.127-.845-.039c-.252-.34.676-2.044 1.119-2.093zm1.755.295c.077 0 .172.036.321.09.663.245 1.815.745 1.316 1.13-.59.456-2.876.658-2.765.468l.766-1.306c.163-.278.234-.38.362-.382zm-7.014 7.902a.342.342 0 0 0-.148.038c-.133.073.167.566.604 1.124 2.017 2.532-.784 3.278-2.763 1.92-1.88-1.358-4.785-1.235-4.368.187.146.502.002.746 1.052.762.933.014 1.174.063 2.015.598 3.214 2.045 7.378-.68 5.352-3.611-.382-.554-1.33-1.039-1.744-1.018zm7.934 3.963c-1.169-.002-1.908.805-.445 1.05 5.226.878 1.71 5.896-1.971 3.302-3.317-2.786-7.761-2.773-7.818-.801-.009.496.016.513.803.652 1.851.328 4.615 1.113 5.673 1.61.622.291 1.276.564 1.455.606 2.213.75 5.054-.216 5.62-1.943.517-1.581.107-4.47-3.317-4.476zm-65.605 16.06c.7.01 1.443.579 1.972 1.41 1.224 1.922 2.71 5.153 3.658 6.934.239.448.248.849.232 1.062.073 1.043.45 1.437 1.118.969.658-.461 1.57-1.233.502-1.358-1.074-.753-1.67-1.856-1.004-2.527.491-.493.3-.814-.095-.835-1.506-.023-3.743-4.18-2.683-5.072 1.43-1.205 3.007.292 6.356 6.48 1.476 2.732 1.54 5.72.272 4.237-.43-.373-.344-.18-.852.995-.382.883-.695 1.301-2.148 2.592-1.77 1.571-2.842 2.813-2.882 3.086-.077.521.954.036 1.707-.87 1.681-1.517 1.745-1.922 1.726.092-.017 1.822-.12 2.155.235 2.143.552-.018.85-1.46 1.11-3.198.311-1.566 1.19-2.354 2.654-3.223.402-.239.409-.404.333-1.094-.266-2.214 1.1-6.337 1.715-5.316.087.23.354.767.497 1.143.114.582.509 1.24 1.112 1.285.75.522.747.804 1.003 2.71.084.623.38 1.557.587 2.054.386.925.732 1.467.516 1.742-.137.136-.428.391-.428.391l-12.251 6.705s-.962.49-1.31.625c-.97.405-1.56.104-2.035-.57-2.587-3.583-4.36-7.608-6.174-11.32-1.09-2.204-.017-3.658 1.393-1.881.548.69.266 1.13-.01 2.463-.05.241.192.15.647.218.714-.07 1.058.522 1.03 1.526-.454 1.438.172.662.467.59.566.01.69.325 1.007.923.196.842.596.599 1.18.044.484-.458.485-.447-.485-1.525-1.677-1.69-4-5.502-4.598-7.822-.165-.64-.103-1.15.023-1.491.762-1.583 1.82-1.587 2.967.628.195.376.58.984.853 1.35.442.595.715 1.105.698 2.05-.342.79-.397.806-.103.915.73.269 2.026 1.495 2.082 2.59.057 1.112.26 1.703 1.205 1.044 1.078-.75.62-1.054-.44-2.02-1.109-1.229-1.174-2.292-.513-3.177.109-.297.063-.38-.345-.345-1.292.114-2.545-1.404-1.645-2.555.415-.675.367-.85-.217-.869-.304-.01-.806.043-1.054-.087-.38-.664-1.176-1.592-1.166-2.352.379-1.066.963-1.496 1.58-1.488zm76.703.182c2.12 1.21 4.218 2.468 6.602 3.044-5.542 9.215-14.436 14.143-21.875 16.061.25 1.181.428 2.358 1.659 3.084-.042-.178-.584-2.274-.463-2.704 10.247-2.408 19.28-11.694 21.595-16.486l45.014-.38c-33.425 29.617-34.834 71.375-7.674 106.422l-3.134 1.69c-20.924-29.164-20.658-57.228-14.33-76.013 4.487-13.318 12.512-23.485 18.606-29.293 0 0-24.404-.35-36.552.045-1.77 2.5-3.414 4.54-5.79 6.899 0 0 6.181-5.515 6.024-6.474 11.257.013 22.867-.572 34.108.173-13.184 14.573-19.696 29.629-20.848 43.8-.045 1.844-.164.814-.823 1.49l-2.082 2.984-1.66-3.108c-1.13-.34-3.357.202-4.3-.115-4.665 19.132-.031 42.24 6.031 57.325 0 0-1.53.792-3.412.655-2.059-.427-2.564.1-4.348.432-2.053.359-2.77.355-3.225.835-.253.267-.71.64-1.228.9-5.002 1.674-10.879 7.976-10.879 7.886l-5.499-2.298c5.088-9.222 11.046-12.534 21.515-16.613l-.965-4.126c-11.15 3.83-18.249 8.424-23.857 17.365-6.785-.1-34.268-.324-34.297-.245 11.233-11.798 20.105-29.607 21.097-43.502.242-2.706-.169-1.406 1.124-2.211l2.036-2.239 1.589 2.211s1.151 1.364 1.883.23c2.081-19.375-.04-41.475-10.085-56.893 1.788-.107 3.568-.15 5.278.791 3.924 8.277 6.227 18.499 7.22 26.16 1.258 9.696 1.057 20.63-.26 29.912l.672.086c1.987-12.063 1.345-24.898-.436-36.119-.914-5.853-3.875-15.01-5.915-19.239-.563-1.168-1.002-1.47-.465-1.643 12.278-.938 17.928-4.725 22.349-10.78zm-34.04.964c.94.001 1.7.708 1.698 1.579-.001.87-.764 1.574-1.703 1.573-.94-.002-1.7-.708-1.697-1.579.001-.87.764-1.575 1.703-1.573zm92.265.951c-3.6 3.01-6.493 6.13-9.533 9.456 8.956 11.457 18.909 23.878 27.28 33.803 0 0 2.906-1.59 2.894-1.789-.006-.104-.23-.632-.284-.514-.125.275-2.354 1.426-2.354 1.426l-26.488-32.34s1.442-1.594 1.888-2.096c2.064-.626 7.816-7.206 8.097-7.07 4.492 3.2 18.03 16.76 23.246 20.918l-.005 37.577c-.543 1.503-15.015 7.273-25.269 28.872-5.14 2.66-10.833 4.085-16.13 6.396 0 0 1.344 1.966 2.002 2.505-.806-1.62-.948-1.93.885-2.618l38.244-14.378-.077 2.916-.63 5.034c-10.412 5.929-19.194 8.406-33.525 17.35-1.023.218-1.848 1.127-2.925 1.174-36.472-49.977-13.026-87.55 8.32-106.412zM57.656 830c.998.017.742 2.162.372 2.903-.738.536-1.473.058-1.455-.946.006-.327-.062-.636-.151-.69-.552-.327.375-1.28 1.234-1.266zm22.331 1.377c.84.592 1.149 1.38 1.457 2.168-1.133-.167-4.166-.978-2.74-1.604zm-5.529 2.78c26.304 37.014 25.05 76.28-4.44 105.998l37.24.008c4.756-8.662 12.662-13.934 22.772-17.173l.876 2.725c-11.619 3.436-17.505 9.155-22.193 17.084l-44.412-.072c17.096-16.99 24.94-31.354 26.207-50.799 1.206-18.519-3.845-35.442-19.245-55.818zm7.432.436 6.216 2.733-.933 5.916-6.51-2.794zm-11.218 1.643c33.174 46.695 18.847 79.479-7.76 106.739l-4.893.068-11.385-9.839.096 59.67s-11.137 10.079-12.417 11.287c-1.265 1.125-2.208-.607-2.208-.607l.179-79.103.5-3.1.184-17.044 7.093-3.452 26.514 32.33s-1.07 1.456-1.567 1.715c-.322.168-.087.457.183.425.746-.09 2.88-2.293 2.433-2.649-9.619-11.085-27.5-32.789-27.5-32.789l-7.47 3.598s.243-14.15.119-19.583c.289-1.28 1.325-.936 2.024-1.507 8.603-5.106 14.671-11.346 18.42-17.402.276-.452 1.935-3.17 2.1-3.417.584-.88 2.035-3.632 2.88-5.39.473-.982.976-2.172 1.166-2.314 5.173-1.553 10.605-3.76 15.802-5.741l-7.459-10.418Zm-20.385.562c-.28-.004-.995.295-1.962 1.106-1.785 1.496-4.139 3.955-4.147 4.424.478.16.902-.093 1.284-.45 1.495-2.038 3.801-2.832 5.155-4.617.21-.33-.01-.467-.33-.463zm16.75 2.193s5.147 6.977 6.464 8.83c-13.608 4.969-27.85 11.538-40.461 15.78l.005-2.793 2-5.013zm20.222 4.638 5.081 2.444-1.445 5.315-5.127-2.67Zm4.178 8.855 4.175 2.829-1.918 4.508-4.205-2.692zm-34.11 3.253s-.647 2.09-1.732 3.961c-5.188 8.321-10.263 15.716-20.731 22.126-.398-.328-1.533-2.177-1.533-2.177l-.098-2.469c5.552-4.119 10.342-7.14 17.707-19.243l2.13-.799 1.81.73 1.23-2.027zm21.754.054c-4.837 9.468-9.597 19.234-17.288 26.606l20.959 27.219c6.949-19.183 4.416-37.177-3.671-53.825zm-26.44 2.024-1.012 1.617 1.745.937 1.01-1.617zm-2.852.17c-3.821 7.883-9.546 13.943-17.053 18.296l-.268-11.576Zm1.335 2.357-1.011 1.617 1.744.937 1.011-1.617zm42.94.41 3.781 3.337-2.257 3.672-3.879-2.984Zm58.022 1.73a.021.021 0 0 0-.01.01c-6.693 19.167-4.729 37.489 4.374 53.449 4.5-10.329 8.19-17.24 16.96-28.23-5.375-6.546-20.783-25.435-21.324-25.228Zm-102.453.141-1.062 1.589 1.714.984 1.062-1.588zm29.039 2.284c5.975 13.306 5.423 25.294 2.213 35.679l-14.954-17.574c5.503-6.309 9.16-12.285 12.74-18.105zm-30.591-.002-1.138 1.541 1.662 1.06 1.139-1.546zm-1.68 2.206-1.244 1.475 1.586 1.154 1.245-1.475zm49.374 1.65 3.39 2.993-2.151 3.871-3.441-2.926zm-51.337.645-1.306 1.418 1.53 1.21 1.306-1.418zm109.471.597 15.086 18.107c-5.068 5.571-9.283 12.138-13.053 19.218-4.19-12.243-6.069-24.268-2.033-37.325zm-111.598 1.65L40.913 873l1.454 1.296 1.397-1.348zm35.316 1.865-6.936 9.261 7.914 9.399c.863-5.08 1.066-10.977-.978-18.66zm-37.576.24-1.489 1.263 1.362 1.38 1.489-1.262zm-2.187 1.805-1.57 1.177 1.27 1.455 1.565-1.177zm59.087 1.053 2.835 3.081-2.887 3.162-2.693-2.817zm36.113.61 1.93.07c-3.22 28.927 2.972 43.575 8.451 56.315 0 0-.014.51-.2.66-.897.285-2.71.591-4.163-.597-7.37-17.65-8.944-39.378-6.018-56.447zm-97.744.215-1.636 1.092 1.178 1.517 1.636-1.092zm120.925 1.225c-.49-.001-.94 11.901.898 17.716l6.976-8.728zM138.25 880.6l2.321 2.9-2.475 3.116-2.519-2.958zm-104.826.618c.117-.017.308.285.681.525.348.338.297.312-.092.6-.61.448-.791.375-.779-.328.054-.578.1-.784.19-.797zm63.652 2.278 2.564 3.416-2.852 3.389-2.427-3.576zm40.957 4.39 2.703 3.061-2.333 3.352-2.952-3.21zm62.707.747.233 3.526-.934-1.29-1.723 1.22 1.198 1.478 1.504-1.083.089 1.42c-9.55 6.375-13.678 13.708-17.559 19.207l-1.722.672-1.959-.58-.96 1.57-1.665.361c-.05-.01 3.355-6.741 9.174-13.59 5.181-6.098 14.297-12.967 14.324-12.91zm1.095 5.518.057 12.534-17.08 6.084c4.443-6.99 9.679-13.474 17.023-18.618zm-4.238-1.53-1.56 1.181 1.341 1.432 1.555-1.182zm-2.402 1.883-1.504 1.239 1.398 1.385 1.504-1.249zm-57.002.601 3.21 3.181-2.363 3.748-3.344-2.983Zm54.575 1.424-1.412 1.333 1.54 1.376 1.412-1.333zm-2.223 2.106-1.357 1.385 1.637 1.32 1.357-1.386zm-2.234 2.36-1.26 1.461 1.703 1.225 1.26-1.465zm-49.029 2.167 4.017 2.428-1.973 4.432-4.011-2.842zm47.08.095-1.184 1.518 1.815 1.154 1.2-1.57zm-1.822 2.395-1.098 1.57 1.836 1.097 1.092-1.621zm-1.629 2.37-1.01 1.618 1.901 1.008 1.011-1.636zm-1.47 2.452-1.011 1.617 2.106.848.837-1.542zm-39.996.936 4.114 2.592-1.831 4.646-4.342-2.858zm59.712 4.669.023 95.643-45.344.073s-2.113-3.462-6.535-11.459c-1.872-3.385-3.458-4.825-3.616-7.504.173-1.573-.608-3.359-1.998-4.08-.466-.243-1.249.048-.986-.625.289-.74-.59-1.882-.831-2.125-.274-.429-.102-.533-.128-2.128-.026-1.542-.113-2.187-.467-3.351-.896-2.943-1.093-4.413-.575-5.938 1.347-3.866 2.749-6.831 4.56-10.435 1.055-2.11.896-2.935-2.322-4.473-2.41-1.152-2.73-1.14-2.423-2.816.144-.786.277-1.28.1-1.661-.109-.232-.508-.556-.742-.742-.315-.25-.219-.764.104-1.147.316-.375.32-.911.008-1.807-.655-1.884.84-4.376 3.662-6.096 1.247-.76 1.212-.602 2.508.665 3.79 3.702 9.435 1.39 9.456-3.821.006-1.624-.59-1.528 1.068-2.292 5.623-3.304 17.164-9.31 17.087-9.146.748 1.42.997 2.632 1.469 4.16.407 1.31.353 1.41.196 3.96-.143 2.303-.219 2.839.366 2.987 3.326.345 4.088-.744 4.73-2.734.276-.879.807-.7 1.135-.328 1.262 2.137 2.86 4.361 3.909 5.881 1.31 1.94 3.524 2.908 4.685 1.994.245-.753.446-.776 1.915-.464 1.78.379 2.798-.545 2.971-1.76.07-.484-.312-.465.643-.943 2.37-1.62 1.472-3.839 1.12-5.174.03.07 1.012-.552 1.037-1.801.125-6.49-5.926-15.847-5.79-15.606zm-57.258 3.645 4.812 2.164-1.146 5.33-4.944-2.07zm46.857 2.058c2.767 2.985 4.764 7.958 5.792 11.197.508 1.614.567 3.455.11 3.71-.45.252-.66-.02-.573-.983.072-.802.099-1.424-.272-1.416-1.077.256-1.116-1.256-1.005-1.61.074-.238.207-.405.266-.534.266-.585-.427-.507-1.145-.516-.635.013-.798-.345-.767-.902-.017-.62-.901-.5-1.405-.03-.46.428-.365.933.257 1.288.894.509 1.737 1.758 3.812 6.065 1.205 2.5.843 4.273-.598 4.25-1-.028-2.16-2.568-3.097-4.44-.243-.483.368-1.023.582-1.283.555-.671.471-.884-.35-.897-.767-.011-1.094.051-1.555-.828-.174-.331-.3-.836-.238-1.157.398-.968-.415-1.203-1.204-.832-.996.383-.99 1.205.524 2.554.974 1.487.72 1.383-.208 2.382-.194.353-.078.57.33.577 1.174-.33 2.448 1.63 2.098 2.301-.36.288-1.345 1.331-.394 1.132 1.933-.484 3.104 2.14 1.964 3.028-1.699.787-2.1.54-4.706-4.306-.809-1.505-1.783-3.122-1.902-3.288-.12-.166-.173-.61-.167-.968.116-.875-.287-1.075-1.108-.728-.617.136-1.174.605-.394 1.052.909 1.459 1.23 1.694.73 2.063-1.142.84-.648.806.628 1.044.625.175.942.474 1.114.832.657 1.374 1.822 3.313 1.937 3.708.385 1.007-.314 1.458-1.27 1.413-1 .02-1.457-.712-1.942-1.338-1.814-2.346-3.12-4.669-4.97-7.332l.254-2.487s.486.099.759-.022c.534-.237.853-1.013 1.16-2.046.489-.897 3.372-2.936 4.476-4.032.204-.124.375-.329.378-.453-.006-.402-1.25-.135-2.068.733-1.203.987-1.715.647-1.674-.616-.115-1.56-1.143-.78-1.198.744-.134 1.203-.586 1.935-1.496 2.607-1.717 1.268-1.43.947-1.354 2.711.133 3.077-1.153 5.606-1.988 3.928-.297-.596-.644-1.274-1.393-1.305-.53-.022-.791-.505-1.08-1.696-.431-1.927-1.035-3.168-1.585-4.943zm-42.699 6.56 5.545 2.057-1.049 5.378-5.494-1.957zm42.309.564a.428.428 0 0 0-.128.029c-1.565 1.092-3.01 2.318-4.715 3.257-.64.35-1.387 1.252-1.392 1.494-.005.236.758.231 1.502-.068.706-.285 4.737-3.78 4.742-4.103.278-.283.251-.624-.01-.609zm-50.966 6.449c1.312 0 .546.359-2.32 2.195-2.8 1.793-7.417 7.468-7.955 9.576-.245.957.41 1.033 1.15-.281 3.405-6.04 9.835-11.555 15.712-11.3 2.879.125 4.433.847 2.05 1.16-6.535.732-11.425 4.178-15.712 11.054-.003.154.388.147.836-.117 3.92-4.427 8.338-10.29 16.08-9.803 5.584.32 7.159 6.48 2.519 8.573-4.045 1.826-7.764-2.641-4.41-5.282 1.09-.858 1.77-.48.723.397-2.245 1.882.496 5.244 3.23 3.974 1.664-.643 2.341-2.847.88-4.515-3.253-3.709-10.278-.904-15.18 5.072-.515.63-.962 1.996-.529 1.85.76-.29 1.22-.84 1.668-1.46 1.75-2.242 3.094-3.367 5.46-4.57 1.829-.929 1.941-.754 1.256.861-.288.68-.519.907-1.23 1.33-2.981 1.88-4.836 4.403-4.913 6.013-.056 1.175.87 2.71-.138 3.024-1.707.744-6.36.128-7.613-1.362-.902-1.07-1.253-.452-.578 1.288.446 1.148.426 1.797 1.102 1.681.855-.418 1.442-.319 3.099.524.799.407 2.215.787 3.078.973 1.573.339 1.903.197 1.867.829-.011.193.06.738.013 1.08-.259 1.902 1.453 2.551 3.786 3.805 1.363.733.823 1.484-.763 5.1-.824 1.636-1.53 3.837-2.546 5.498-.95 1.866-1.035 3.91-.43 6.242 1.125 4.328 1.936 6.527-.083 6.914-5.198.72-16.676.672-22.937-1.571-1.582-11.151-10.043-27.706-8.945-31.98 2.168 3.04 11.283 2.252 8.554-6.244 0 0 .749-1.034 2.234-2.427 3.832-3.59 4.777-4.184 2.955-1.019-1.401 2.433-3.188 5.608-3.23 6.224-.032.49.38.605.703.213.239-.29.523-.996.772-1.532 2.288-4.943 6.194-9.397 8.882-10.466.693-.276.657.019.177.562-3.167 3.64-5.587 7.006-7.311 11.403-.077.453.617.644.84.213 2.975-5.753 3.864-7.059 7.514-11.11 1.435-1.592 2.769-2.395 3.833-2.306.92.077.647.217-.206 1.057-.652.641-1.614 1.534-3.173 3.345-2.748 3.194-5.516 8.394-4.5 8.123.174.434 1.042-.947 1.776-2.266 2.01-3.116 4.146-7.234 8.91-9.937.996-.38 2.083-.597 3.043-.605zm-92.054.856 8.461 7.866 17.05-.175c-2.82 4.045-1.33 10.325.213 13.996 3.024 7.197 7.453 19.078 7.126 19.25 0 0-2.48.588-2.707 2.045-.336 2.159.674 2-.786 3.948-.329.438-.12 1.267.23 1.926.23.483.45 1.21.017 1.774l-15.085 24.844-28.539.081.01-4.973 14.315-13.388-.155-9.868c7.79 2.16 10.453 9.619 11.11 15.142 14.102-11.886 13.787-29.817.505-41.086-2.615 11.884-11.908 14.34-11.705 14.104zm106.023 1.583c.912.062 2.143.2 2.977.618-.566.313-.969.686-1.346 1.069-.455-.752-1.07-1.163-1.63-1.687zm23.632.123c.759-.001 1.687 2.06 1.15 2.54-.302.271-1.28.373-1.629.168-.447-.309-.214-2.707.479-2.708zm-26.897 3.528c.979.002 1.77.739 1.769 1.646-.002.906-.796 1.64-1.775 1.639-.978-.002-1.77-.738-1.768-1.645.001-.907.796-1.641 1.774-1.64zm-74.986 2.22 1.277.03c-2.328 2.875-2.646 5.352-1.829 8.944.919 4.042 7.953 19.241 8.402 23.424.02.19.039.722.039.722l-1.736.106s-.129-.433-.182-.6c-2.415-7.576-4.822-13.355-6.503-17.772-1.675-4.763-4.239-11.825.532-14.854zm9.336.043a.062.062 0 0 1 .03.005l1.227.011c-.045.025-1.838 3.572-1.97 5.726-.15 2.44.481 5.101 1.35 7.727 2.05 5.681 5.056 12.01 6.719 19.179.02.083.202.779.202.779l-1.817-.23s-.177-.734-.197-.835c-1.243-6.306-4.73-12.858-6.806-19.066-1.064-2.822-1.801-6.29-1.414-8.94.274-1.87 2.302-4.32 2.676-4.356zm14.84.038c-1.303 1.863-2.49 4.199-2.577 6.032-.082 3.41.984 6.29 2.049 9.304 3.277 9.28 4.867 14.177 6.5 21.618l-1.749-.696s-.067-.418-.106-.538c-.927-4.66-.987-4.254-6.453-19.93-1.281-3.762-2.502-7.06-2.257-10.191.058-1.783 1.744-5.312 3.513-5.59zm2.102.004 1.634.002s-.901.882-1.163 1.211c-2.861 3.666-2.042 7.605-.634 12.301 1.939 6.463 5.531 13.692 7.399 23.54.034.183-.002 1.133-.002 1.133l-1.944-.73c-1.75-9.03-6.091-18.396-8.177-26.519-1.226-4.77-.869-7.782 1.99-10.373.716-.511.897-.565.897-.565zm-19.94.02 1.221.001s-2.049 3.107-2.05 4.938c-.348 3.277.925 6.9 2.387 10.697 2.248 5.835 5.22 12.892 6.129 16.606.036.146.156.812.156.812l-2.133-.107s-.11-.9-.236-1.313c-2.447-7.986-4.835-13.153-7.65-20.445-.425-1.104-1.1-5.466-.289-8.291.637-2.218 2.464-2.899 2.464-2.899zm-3.274-.001 1.318.035s-.198.332-.704 1.131c-2.414 4.034-1.342 7.722.14 11.83 1.98 5.484 5.089 12.18 7.027 18.515.109.357.256 1.435.256 1.435l-1.903-.027s-.385-1.29-.41-1.43c-1.06-5.871-6.829-15.664-8.32-23.113-.819-3.995-.105-6.468 2.596-8.376zm17.66.028s-2.087 3.34-2.28 5.202c-.38 3.65.864 6.675 2.286 10.795 2.452 7.11 5.916 15.452 6.22 19.264.01.125.06.59.06.59l-2.142-.712s-.095-.397-.136-.538c-1.856-6.899-4.051-13.77-7.006-21.515-.727-2.613-1.683-5.242-1.594-7.487.44-2.997.992-3.805 2.922-5.578zm9.428.02 1.726.036s-.516.256-1.749 1.47c-6.82 5.755 4.196 22.055 6.717 36.884.027.159.105.717.105.717l-1.898-.635c-.178-.739-.311-1.638-.53-2.445-2.05-7.582-4.789-15.378-7.303-22.45-1.409-5.153-1.918-9.69.634-12.221.8-.875 2.298-1.356 2.298-1.356zm-17.751-.02 1.837.051c-1.33 1.541-2.115 3.945-2.19 6.084-.076 2.53.65 4.991 1.543 7.595 1.833 5.341 4.454 11.147 6.248 18.353.101.477.186.783.232.991.074.33.279.855.279.855l-1.94-.362s-.199-.467-.329-.713c-.195-.37-.373-.84-.532-1.403-.932-3.759-4.373-12.29-6.466-18.272-1.662-3.77-2.105-10.357 1.318-13.178zm22.944.104c2.35-.076 4.472 1.776 4.972 3.514.484 1.846-.144 3.927-2.336 4.951-3.554 1.662-7.369-2.78-4.562-5.217 2.128-1.847 5.267-.472 4.578 1.895-.444 1.541-2.967 1.637-3.38.08-.113-.518-.393-1.036-.594-.752-1.311 2.841 3.076 4.18 4.904 1.537 1.086-2.118-.967-4.852-3.998-4.338-4.155.705-4.642 5.59-2.928 11.292 2.389 9.012 8.105 21.138 8.085 26.699 0 .073.02.302.02.302l-1.822-.508s-.012-.094-.025-.175c-1.078-7.769-7.278-20.638-9.045-30.527-.765-4.508 1.135-7.777 5.397-8.664.247-.052.49-.081.734-.089zm-18.022.042c-1.281 1.581-2.121 3.96-2.164 5.659-.043 2.489.916 4.913 1.707 7.506 2.001 6.402 6.684 18.226 6.508 20.438.048.238.176.973.176.973l-1.816-.503s-.072-.107-.208-.411c-.602-2.198-3.465-11.613-6.678-19.755-1.236-3.273-1.835-5.823-1.746-7.992.268-2.992 1.195-4.24 2.612-5.904zm34.587 10.664c-4.711.241-4.268 5.565-1.35 6.472 1.043.268 1.656.039 1.822-.172.19-.24-.021-.606-.706-.7-1.98-.605-2.683-2.767-.893-3.67.977-.474 2.536-.166 4.415 1.128 3.357 2.313 7.477 2.465 6.944.13-.13-.567-.393-.644-2.854-.958-2-.256-2.9-.843-3.77-1.28-1.373-.69-2.583-.977-3.608-.95zm-67.452 4.84c12.15 11.038 10.313 28.303-.1 36.93-.213-.697-.664-2.408-.713-2.36 7.833-7.528 11.539-19.885.244-32.574.059.048.254-.914.57-1.995zm76.275.417a1.087 1.087 0 0 0-.306.042c-3.153.794-3.812 3.68-1.77 4.872 1.251.73 2.215.285.658-.599-1.335-.757-.672-2.741.947-2.716.707.01 1.188.296 2.985 1.529 1.479 1.014 2.873 1.097 3.192-.273.19-.818-.104-1.182-1.046-.97-.417.095-.662-.132-1.226-.497-1.256-.811-2.63-1.403-3.434-1.388zM58.314 961.9c10.948 11.82 7.403 24.124-.008 31.324-2.02-5.56-6.993-9.034-6.993-9.034 1.883-3.855 3.01-7.883-.49-12.978 3.27-2.729 5.98-5.729 7.491-9.312zm71.268 4.423c-.515-.009-.348.451.863 1.238 2.888 1.828 3.135 2.157.332 2.11-.71-.04-1.824.425-2.455.619-3.66 1.125-3.836 1.035-5.585.652-.584-.127-1.175-.355-1.43-.14-.397.334-.84.554-.344 1.052.362.364 1.037.642 1.856 1.08 4.243 2.261 4.628 2.802 9.622 2.93.571.016.866-.258 1.201-.261.816-.008 1.243.177 2.066.876 1.506 1.279 1.579.351.684-1.325-.469-.879-.88-1.089-.648-1.756.53-1.523-.22-1.827-1.206-.479-.738 1.055-.822 1.03-1.516-.328-.92-1.697-.485-2.478.914-1.372 1.06.839 1.332.217 1.747-.445.545-.87.464-1.653-.506-1.587-.558.039-1.079-.2-1.516-.644-.857-.87-2.502-1.962-4.079-2.22zm1.193 4.59c.115.005.195.049.234.16.008.558-.407 1.698-.748 2.297-.109.266-.295.3-.555.348-.876.149-.937-.103-.778-.605.322-.776.59-1.88 1.72-2.196a.853.853 0 0 1 .127-.005zm-2.225.382c.354-.023.365.114.223.411-.254.503-.7.978-1.031 1.372-.703.42-1.843-.869-1.337-1.2.706-.258 1.236-.523 1.971-.564.066-.01.123-.015.174-.019zm-78.589.713c.19 0 .382.036.58.114 2.649 3.326 2.459 8.382.392 11.175-.154.21-.311.246-.57.165-.887-.489-2.014-.67-2.855-.953l.019-9.726c.867-.169 1.616-.778 2.434-.775zm69.957.906c-.203.008-.288.136-.032.382 3.867 2.603 9.188 5.621 14.104 4.464.45-.09.815-.318.73-.75-.054-.268-.553-.5-1.095-.37-1.127.274-3.288.307-4.175.173-3.378-.52-6.359-2.527-8.952-3.704a1.016 1.016 0 0 0-.58-.195zm-1.135 2.476c-.173-.008-.16.152-.052.453.542 1.505 6.014 5.018 10.338 6.184 3.713 1.001 9.051.031 8.744-1.604-.16-.854-.835-1.058-3.206-.784-5.22.932-10.241-1.055-14.05-3.26-1.026-.602-1.552-.98-1.774-.99zm-34.184 2.002c2.28-.022 4.54.154 6.984.535 4.754.76 10.264 2.134 14.923 4.144 7.92 2.77 17.88 4.913 26.337 4.639 2.064.056 5.794-.1 6.517-.32 1.885-.389 2.406-.017 2.851 2.152.079.471.236.608.89 1.02 1 .63.831 1.252.707 2.64-.104 1.167.655 1.824 3.698 7.05 3.463 5.95 6.838 12.861 6.838 12.861-30.452-.068-59.502-1.163-90.661-.316 2.813-6.154 10.475-17.248 15.28-26.155-1.153-2.745.278-3.209-.321-3.86-.967-1.526-.263-3.663 1.787-4.142a43.705 43.705 0 0 1 4.17-.248z"/><path fill="#e2cf00" d="M64.038 1011.989s10.014-18.684 14.229-24.28c6.063-7.098 33.348 3.144 46.922 5.714 5.517.995 18.312.553 18.312.553l10.66 17.884zm-20.682-21.28-.313-58.217 3.121 1.812.606 58.477-13.527 11.964-.068-3.511zm8.186-6.63c3.228-5.996-.349-13.33-.348-13.327 1.864.43 7.08-8.707 7.542-8.443 7.94 9.058 9.294 22.538-.444 30.874-2.443-5.81-6.718-9.104-6.75-9.104zm6.017-41.164c6.056-5.717 10.859-10.17 15.663-16.571.393-.52-25.449-31.057-25.045-31.59 4.003-4.087 9.364-7.086 13.54-12.021 0 0 21.192 25.807 21.681 25.581 2.167-8.062 3.757-15.361 3.362-23.793-1.27-21.571-11.189-34.792-11.266-34.532-3.4 19.812-36.504 49.775-43.006 47.626l-.01-13.85c.391.695 20.958-12.217 26.407-29.316.392-1.228 16.34-5.93 16.229-6.111-.671-1.607-7.627-10.763-7.627-10.763s2.819-1.211 3.132-1.206c9.02 10.432 15.814 24.168 18.11 37.241 2.79 14.081 4.56 40.547-25.945 69.398zm91.358-36.269c-4.74-13.716-4.583-27.91-2.373-37.816 3.377-17.951 15.644-30.79 25.483-40.578l4.26.009-6.96 6.652c-3.186 3.377-7.806 10.424-7.806 10.424l25.354 30.832 14.49-2.879s-.462 13.773-.013 13.774c-11.274 8.62-19.379 16.424-25.21 28.999-3.562 1.214-15.372 5.911-15.372 5.911-5.608-1.28 16.756-33.657 12.516-34.213-1.745-1.338-21.045-25.56-21.422-25.51-8.966 25.293-.316 51.885 15.338 70.473-1.783 1.067-3.396 1.897-3.248 1.646-6.704-8.653-12.573-18.98-15.037-27.724zm-46.402-12.764c1.003 1.444 5.585-30.878-6.249-56.775 1.132-.793 10.939-2.515 10.939-2.515l2.623 7.753-6.692 2.613 1.228 3.634c5.195-2.325 16.444-5.753 23.38-16.39 0 0 33.603-.213 34.318-.156.697.055-6.866 6.75-14.052 20.316-3.283 6.197-5.9 14.217-6.46 23.63-.11 1.861-7.672-8.758-7.672-8.758 1.907-8.96 6.977-17.773 12.03-26.588 0 0-7.727-.42-13.125-.282-8.412 8.49-13.684 12.963-26.349 17.004 4.59 13.714 32.813 20.347 26.537 19.084-1.283-.282-2.933 12.596-1.601 27.112.24 11.605 6.94 30.96 7.177 30.806 0 0-4.492.93-4.85.262.757-.168-6.684 1.565-6.684 1.565l-2.646-7.214 7.203-3.058-1.156-4.071c-.028.002-15.891 4.421-23.681 17.228l-34.729-.019c13.419-13.45 18.907-26.764 21.849-44.374 2.84.477 8.662-.807 8.662-.807zm85.63-116.163c4.372-3.38 13.153-12.186 13.153-12.186l.106 4.52-9.965 9.571-.01 59.198-3.36-2.994zm-4.638 21.66c-1.793.787-5.37 4.673-7.081 9.042-11.505-9.562-6.727-27.092-.412-30.732 1.823 3.832 7.114 8.917 6.992 8.81-1.226 4.008-2.167 8.074.5 12.88zM81.556 759.472l88.871.288c-5.087 9.244-9.752 16.715-15.157 25.815-2.81 3.13-63.474-10.226-63.762-8.906z"/><path fill="#d40000" d="m33.063 1000.155-.447-77.73 10.085 9.112.488 59.693zm46.382-14.988c-2.092.293-.905-1.5-.52-3.204.215-.95-.775-1.846-.77-2.136.03-1.687 1.395-2.397 7.574-2.32 14.567.96 22.09 5.295 30.444 7.318 7.999 1.938 15.932 1.912 24.763 1.738.646.346 3.003 6.002 2.562 6.567-19.984 3.616-45.45-10.02-64.053-7.963zm36.08-40.19c-2.101-1.418-4.076-1.683-6.028-1.993 3.436-5.58 7.595-10.664 14.53-13.839l3.211 7.4c-4.08 1.936-8.084 4.242-11.712 8.431zm-42.049-19.273s-2.998 4.526-5.824 6.726c-8.37-10.441-27.089-32.673-27.089-32.673l-7.968 3.724s-.023-4.298.158-4.599c21.52-10.235 36.31-29.622 42.841-47.788 0 0 3.456 3.28 2.998 4.664-5.84 14.329-15.81 28.691-30.449 39.45zm26.856-21.11 27.145.08 1.185 8.75c-10.4 3.21-18.99 9.792-27.026 17.407l-12.874-.228c4.237-8.566 10.118-17.253 11.57-26.008zM200.9 867.908c.873 2.468-.016 5.126.32 5.015-32.541 14.853-41.894 47.552-41.894 47.552s-3.078-4.535-2.936-5.236c16.894-34.644 28.156-35.658 30.326-39.42l-25.538-30.746 5.803-7.29 27.392 33.16c2.73-1.161 4.288-2.134 6.527-3.035zm-16.117 44.829c5.531-9.182 11.23-14.516 16.902-18.183l-.298 12.13zm-151.94-36.32.164-11.768 16.76-6.654c-4.648 9.35-10.943 14.353-16.924 18.422zm74.633-10.46-.975-8.279c10.175-4.094 19.168-9.577 26.433-17.09 7.79-.334 13.11.163 13.068.065.014-.014-7.43 10.066-12.374 25.948zm84.398-86.809 9.27-8.652.147 77.35-9.28-8.214zM110.423 842l-2.922-7.673c4.622-1.597 8.125-5.086 11.389-8.542 2.205 1.836 5.053 2.485 6.042 2.84 1.354.295-9.386 12.205-14.51 13.375zm-17.24-58.106s-1.154-.622-1.026-1.494c.385-1.13-1.227-3.693-1.227-3.693 19.718-5.51 48.386 10.132 65.424 6.88-.144 1.101.05 2.416-.435 3.455.532 2.21.911 2.282-1.419 3.627-11.972 3.119-24.57-3.593-36.252-6.812-9.53-2.799-17.276-2.102-25.066-1.963z"/><path fill="#100f08" d="m80.542 758.38 3.588 6.29-.624.39c.978 1.515 1.807 3.22 2.807 4.723l.723-.076c1.179 2.102 1.656 2.88 3.198 5.37l-.698-.004c.357 1.107 1.278 1.843 1.296 2.637.007.987-.269 1.99.385 2.659.773.793.866 1.013.706 1.476-.426 1.232.776 2.598 2 2.478 8.617-1.054 17.394-.134 26.166 2.339 6.308 1.855 11.906 3.93 17.208 5.392 1.671.465 5.05 1.2 7.96 1.403 8.069.56 12.6-.956 11.247-4.07-.107-.249-.35-.432-.37-.56-.039-.237.001-.493.46-.84 1.326-1.251.588-2.165-.216-3.554 0 0 10.396-17.145 15.589-25.688zm89.731 1.688-7.586 12.092c-4.043-.685-4.999 2.465-5.061 2.908-5.249-1.256-4.454 5.057-1.82 5.488.168.915-4.321 2.046-6.682-.103 3.633.457 4.929-3.997.492-4.994 5.859-4.023-5.108-10.077-5.254-1.737-5.16-.85-4.502 5.473-1.228 5.97-1.678 1.709-6.603 1.749-9.17-1.864 4.374 2.115 6.754-3.321 2.208-4.852 5.622-4.554-5.362-8.779-5.119-1.405-4.139-2.283-6.999 3.515-1.469 4.415-.317 1.043-7.561 1.04-9.394-1.662 5.134 1.094 5.38-4.701.85-5.18 4.559-5.345-6.984-8.07-5.06-.764-4.458-1.642-6.153 3.511-1.811 5.174.24.821-7.04 1.507-9.582-1.457 5.595-.769 3.648-5.797.024-5.4 0 0 .052-.145.257-.634 1.72-5.041-7.476-5.477-6.212-.127.203.493.427 1.15.427 1.15-2.534-.484-4.086.471-3.906 2.676.626 2.93 2.294 2.715 4.43 2.136.893.868-5.157 3.757-8.946 1.163 4.65-1.23 2.305-6.283-1.586-5.608-.158-1.611-2.043-3.874-4.508-2.776l-2.598-4.756zm7.475 67.261-5.46.066c-3.842 3.623-31.658 27.29-27.048 63.115 1.972 15.323 6.562 28.585 18.871 44.262l3.301-1.789.504.314 34.228-18.178.028-5.537-39.72 15.37c-.786-.777-1.247-1.644-1.909-2.601l15.918-6.241s.383-.895.507-1.307c5.252-12.255 15.892-21.116 25.153-27.96-.026-12.075-.04-37.353-.04-37.353l-23.873-22.115c-3.071 2.594-5.796 5.263-8.521 8.159l27.393 33.545-2.436 1.464-27.105-33.37c3.224-3.582 6.722-6.703 10.21-9.844zm24.353 21.821s-.024-57.517-.152-85.291l-14.276 13.528-.054 58.3zm-1.062-79.817-10.086 9.613.001 59.26-2.582-2.368.109-57.665 12.6-12.195zm-97.975-1.585c.3.493.168 1.174-.317 1.73-2.063 2.363 4.396 6.488 9.051 5.78 3.543-.538 6.566-2.505 5.267-4.007-1.059-1.223-.364-2.458.91-2.447 1.31.01 2.361.978 1.223 2.3-2.532 2.94 1.314 6.4 7.206 6.481 4.167.057 5.557-.892 5.337-3.644-.102-1.289.171-1.644 1.14-1.838 1.545-.31 2.321 1.332 1.038 2.583-2.772 2.699.365 6.68 5.597 6.945 1.914.097 2.293.004 4.43-1.11 1.672-.872 2.264-2.19 1.448-3.217-1.05-1.32.372-2.895 2.01-2.243 1.17.466 1.746 1.3.447 2.71-1.706 1.852-.902 3.383 2.375 4.42 2.552.809 4.321.712 5.519-.297.373-.314 1.202-.97 1.189-.77a158.152 158.152 0 0 0-1.52 2.479c-5.354 2.203-9.522-1.943-9.385-2.098-5.517 2.94-10.402 2.31-14.522-2.65-1.075.55-8.765 1.836-14.303-3.818-5.605 2.595-10.808 1.495-15.429-1.425-3.424 2.985-7.028 3.453-10.77 2.01l-1.104-2.07c.28-.096 1.482 2.076 7.344 1.074 1.968-.336 5.358-3.395 3.466-4.892-.866-1.14-.891-1.653-.123-2.341.755-.679 2.042-.327 2.476.355zm-14.359 2.688c.326.588.368 1.563.009.977-.19-.31-1.18-1.691-1.132-1.734.461-.035.918.408 1.123.757zm112.335.653-.078 76.474-8.559-7.898-.299-59.91zm-99.296 3.543 2.697 1.578-4.834-.035zm15.175 1.34 2.263 2.045-4.765-.934zm42.465 1.128-1.017 1.924c-.583-.606-.75-1.892 1.017-1.924zm17.072 31.82c1.727-3.578 4.038-8.134 7.767-9.579-2.764-5.114-2.394-10.22-.42-13.018-2.81-2.433-5.694-5.347-7.48-9.533-8.906 7.264-10.364 22.211.133 32.13zm-.209-30.732.61 1.399c-7.937 8.971-5.514 20.77.21 27.073l-.827 1.584c-6.997-6.866-10.04-21.358.007-30.056zm-47.355 5.006c9.172 2.51 16.515 6.413 27.131 2.964l.046 1.915c-6.76 4.007-20.206-.26-29.288-3.384-14.6-5.022-25.97-4.75-34.093-4.191-.715-.131-1.28-1.863-.135-1.873 15.19-.13 12.739-1.891 36.339 4.569zm2.08-3.384 3.008 2.969c-2.262-.662-4.461-1.397-6.507-2.309zm45.997.806.589.756c.255.327-1.668.494-1.344.11zm-51.792 5.34c10.948 3.83 23.003 7.655 30.925 4.255 0 0 .047 1.453-.859 1.863 0 0-.836.625-3.63.976-12.81.954-21.115-3.975-31.448-6.896-3.919-1.108-10.217-2.453-16.685-2.712-3.841-.168-9.72.333-9.72.333-1.28-.1-1.26-.801-1.27-1.488 11.14-1.359 21.378-.315 32.687 3.669zm52.98-3.57c.141-.006.285.004.427.024l1.118 1.328-1.332 1.956s-1.17-1.002-1.763-1.985c-.327-.636.56-1.282 1.55-1.323zm-32.276.32 3.464 2.433c-2.608.115-5.544.2-8.447-.874zm29.38 1.284c.273-.005.559.263.894.794.644 1.023.558 1.218-.696 1.59-1.646.487-1.775.38-1.24-.989.365-.931.69-1.388 1.041-1.395zm5.267.635 2.342 1.828c-1.301 3.121-2.156 7.085.434 12.78-.288.017-1.977 1.556-2.506 1.819-1.485-.58-4.734-11.862-.27-16.427zm-2.672 2.385-.602 3.453c-.05.283-2.591-1.64-2.352-2.6.456-1.138 2.005-.893 2.954-.853zm-4.21 1.206c.307.002.79.693 1.381 1.597.462.705.366.97-.66 1.825-1.512 1.412-1.807.95-1.469-1.456.168-1.188.399-1.97.747-1.966zm3.114 3.135c.205.004.384.05.514.147l.167 3.365c.015.304-2.833-.124-3.205-1.407-.471-.821 1.418-2.128 2.524-2.105zm-3.765 2.838c.204-.027.841.368 1.444.7 1.048.579 1.07.833.165 1.907-1.064 1.262-1.591 1.059-1.75-1.14-.058-.807-.122-1.433.14-1.467zm4.178 1.293a.38.38 0 0 1 .244.08c.504.402 1.27 3.775.945 4.127-.464.5-2.894-.17-3.435-.964-.515-.755 1.36-3.244 2.246-3.243zm-2.983 3.966c.279-.018.782.161 1.541.502.457.205 1.22.59 1.387.919.296.577-.199 1.431-.838 2.14-.423.469-.817.119-1.631-1.456-.655-1.267-.925-2.077-.46-2.105zm4.906 1.516a.313.313 0 0 1 .152.033c.828.427.686 1.69-.295 2.623-1.178 1.12-2.197.274-1.382-1.149.516-.9 1.133-1.5 1.525-1.507zm-68.377 31.264c-.717.029-1.835.628-2.324 1.21-.618.733-1.156.636-1.839.581-.813-.012-2.051.153-3.728.858-.95.4-1.384.49-2.776.552-.908.041-1.819.154-2.021.252-.202.098-.857.309-1.452.47-1.217.327-.784.648-.09 2.102 3.533 8.44 6.058 18.27 6.97 26.275 1.022 9.184.686 20.318-.715 28.82-3.397.015-5.53-.15-9.108-.1-2.474 18.386-9.124 32.977-22.381 46.088l35.772.142c4.118-10.125 22.836-17.824 23.45-17.253l.978 3.7s-13.458 1.76-22.549 17.572c.928-.519 4.302-.153 6.526 1.995 4.46-5.223 11.765-8.629 11.813-8.548l.245-.63s1.34-.42 2.516-.626c.378-.066 1.152-.2 1.666-.365.794-.256 1.188-.53 2.413-.43 2.55.23 5.111-.452 5.057-.465-7.557-19.424-9.318-36.951-6.313-57.303 2.797.025 8.931.133 8.931.133.628-5.719 1.42-11.44 3.326-16.838 2.446-6.929 5.393-13.37 10.13-19.255 2.674-3.697 5.01-6.327 7.774-9.791l-35.018.018c-4.648 7.212-13.588 13.228-20.769 15.728-2.444.847-2.788.72-3.191-.345-.72-1.903-.685-1.822 1.226-2.324.638-.168 2.682-1.16 5.87-2.539 6.765-3.17 11.425-8.986 14.166-12.912 1.09-1.55.36-1.2-1.5-1.22-1.702-.126-2.48-.615-4.007-1.94-.563-.49-.805-.837-1.063-.81-2.003 2.658-5.365 6.163-7.985 7.198zm8.23-6.133c1.57 1.565 3.436 2.481 5.894 2.783-3.94 5.708-8.746 10.168-14.267 12.876l-2.79-7.315c6.88-2.956 8.722-5.924 11.162-8.344zm57.072 2.418c-37.094 31.678-34.99 71.692-9.117 104.235l-2.72 1.51c-24.301-30.295-28.624-75.06 8.651-105.886zm-23.354 3.833 9.078-.002-6.194 7.415-8.293-.041zm-1.423.06-5.063 7.37-13.62.14c-8.167 9.3-16.93 13.83-25.846 16.915l-1.725-7.955s14.116-3.13 23.28-16.609zm-13.84.587-3.163 3.232 3.272 3.097 3-3.134zm7.147-.064-3.203 3.077 2.489 3.104 3.32-3.005zm-15.767.536-.554 4.846 4.11 1.257.61-4.142zm25.022.222-2.993 4.32 4.495.074 3.151-4.302zm-46.995 1.029 2.9 7.49-2.56 1.14-2.581-7.822zm-3.45 1.195 2.988 7.749-2.516.765-2.744-8.065zm3.541 30.58c.315 10.77.47 17.262-1.49 26.725-.103.495-2.189.053-2.189.053.264.082 1.196-10.695 1.136-17.466-.114-12.894-2.448-25.653-7.883-38.44 1.042-.588 3.609-.885 3.609-.885 3.427 9.695 6.461 20.124 6.817 30.013zm-36.304-29.919c11.928 14.723 20.435 34.685 18.969 54.364-1.413 22.884-10.798 36.06-27.268 51.881l-4.242.085c19.494-17.265 28.132-32.053 28.847-51.581.823-22.46-6.549-37.41-18.983-53.35zm-38.28 20.15.032 5.357 40.762-16.128-5.86-8.031zm95.497-17.388-4.434.2.14 4.149 4.622-.097zm39.527-.724 26.335 32.127-6.54 4.486-25.107-30.19zm-20.693 2.158 7.9.126-3.063 4.693-7.636-.069zm-1.459.113c-3.644 6.257-8.669 13.39-11.504 24.925l-26.01-.022c-.042-2.635-.406-5.27-.824-7.905 11.214-3.784 19.906-9.453 26.305-16.955zm4.809.339-3.394 1.806 2.068 2.212 3.739-1.32zm-30.963 2.257-1.128 4.085 4.213 1.512.788-4.854zm24.247 3.093 7.58.054-3.203 5.903-7.509-.116zm18.05-.745 24.92 30.053-2.344 1.714-24.356-29.376zm-15.175 1.226-3.42 2.632 2.565 2.756 3.156-2.326c.066-.05-2.3-3.062-2.3-3.062zm-33.151.163-1.057 3.972 4.382 1.088.792-4.26zm-6.068 2.633-.899 3.91 4.127 1.04.878-3.768zM72.85 849.4c.212-.04-.698 4.654-2.028 5.499-.635.403-.963.313-1.513-.238-.378-.38-2.09-2.98-2.09-2.98l1.468-.68c1.775 2.64 1.776 1.364 2.454-.883zm-6.85 2.693c.581-.003 1.284.668 2.078 1.966 1.148 1.878 1.11 2-.784 2.538-3.407.83-4.674 1.028-3.622-1.054 1.132-2.24 1.58-3.446 2.328-3.45zm10.139-.356 2.323 3.702c-9.387 22.042-24.49 37.84-45.258 47.382l-.04-3.665c24.487-12.868 34.547-28.098 42.975-47.419zm63.541 1.698 7.356.134-1.975 5.211-7.82-.064zm-75.892-.35c-6.013 13.216-14.216 24.742-30.592 34.458l-.059-3.514c18.39-10.232 26.367-29.441 26.365-29.447zm92.977.127c4.355.118 8.927 4.527 8.456 8.154-.332 2.556.193 4.454.945 3.409 1.664-2.31 6.55-.765 6.5 2.012-.026 1.478-1.092 1.72-1.7.384-.9-1.973-3.438-2.025-3.816.04-.355 1.936 1.414 3.362 6.145 4.955 5.545 1.216 8.876 5.83 6.898 8.477-.686.7-1.1.871-1.228.508a21.386 21.386 0 0 1-.298-1.214c-.624-2.778-2.057-3.947-3.803-2.996-.876.477-.766 1.11-.257 1.945.677 1.113.25 1.544-.964.975-1.918-.897-2.55-3.016-.686-3.99 2.215-.818 1.466-.995-1.36-1.886-6.017-1.916-8.594-5.417-8.897-12.08.121-3.037-.325-4.121-1.865-4.538-1.41-.382-3.01 1.276-2 2.153.55.476.998.91.706 1.171-.937.84-3.276-.53-3.25-1.996.018-.959.41-1.156 1.96-2.281.43-.312.065-.902-.564-.912-2.367.703-2.195-2.197-.922-2.29zm-13.638.747-3.681 1.953 1.91 2.484 4.076-1.766zm-71.555 1.81c.423 0 .768.317.768.709-.001.391-.348.712-.77.71-.423 0-.764-.321-.763-.713 0-.392.343-.707.765-.706zm7.538.319c7.732 15.714 9.544 33.672 4.109 51.606l-20.913-25.311c8.058-8.38 13.482-17.979 16.804-26.295zm-28.35 1.107-18.716 7.253-.128 13c10.462-6.594 14.907-13.354 18.845-20.253zm17.978-.08c1.843-.05.925 4.56-1.47 6.13-.88.624-1.471.546-1.758-.704-.149-.648-.882-2.02-1.807-3.125-1.076-1.286-1.064-1.317.512-1.406 1.739.027 3.166-.744 4.523-.894zm-1.825 1.957c-1.36-.02-1.768.569-.96 1.377.68.68 1.222.535 1.681-.446.28-.598.03-.92-.721-.93zM33.149 875.88l.067-11.033 16.006-6.216C46 865.07 40.05 871.453 33.149 875.88zm142.07 9.143-2.135 1.982-20.6-24.984 1.299-3.147zm-113.112-25.42c.693.01 2.259 2.238 2.696 3.836.325 1.185-.022 1.435-2.447 1.765-1.005.254-3.717.003-3.496-.666.396-.966 3.003-4.94 3.247-4.936zm74.802.375 7.534.088-1.736 5.726-7.89-.121zm3.329.355-3.512 2.245 2.77 2.539 3.72-2.123zm11.815 2.483 20.84 25.162c-6.246 7.338-12.477 15.768-16.584 26.918-7.407-16.136-10.1-31.834-4.256-52.08zm-84.838 2.001c.423 0 .768.318.768.71-.001.39-.348.711-.77.71-.423 0-.763-.322-.763-.713.001-.392.343-.707.765-.707zm-2.404.954c1.304.088.066 3.935-1.9 5.336-1.55 1.104-2.213.59-2.567-1.436-.128-.732-.956-1.977-1.684-2.96-.814-1.098-.478-1.272 1.59-.827 1.443.261 3.226-.053 4.56-.113zm69.805 1.054 7.9.057-1.233 8.697zm-76.97.278c1.243 1.078 2.808 4.854 2 5.125-.938.314-5.185-.15-5.66-.604-.326-.313-.327-.315.37-1.174a87.887 87.887 0 0 0 1.622-2.098c.46-.497.971-1.847 1.668-1.249zm4.398.136c-1.204.036-1.284.188-.716 1.391.464.981.787 1.07 1.588.427 1.115-.893.65-1.863-.872-1.818zm138.658.98.277 4.29c-30.393 13.912-41.827 46.857-41.99 46.856l-2.198-3.807c13.994-31.805 32.544-40.991 43.911-47.34zM57.6 873.059c1.809-.031 2.337-.145 2.326.477.018 1.67-1.67 4.038-3.73 4.93-1.387.6-1.418.613-1.572-.9-.118-1.164-.525-2.663-1.174-3.857-.203-.443-.986-1.458 0-1.168.986.29 3.023.539 4.15.519zm4.057-.38c.423 0 .763.317.763.709-.001.391-.343.707-.765.706-.423 0-.763-.317-.763-.709.001-.392.343-.707.765-.706zm-9.678.962c.328-.009.64.616 1.01 1.535.808 1.998 1.054 3.08.813 3.55-.37.723-5.354.248-6.2-.562-.16.111 3.675-4.123 4.377-4.523zm3.588.5c-.714.045-.337.444.19 1.6.366.802.862.931 1.43.371.761-.749.865-1.344.386-1.665-.703-.264-1.222-.3-2.006-.305zm145.328 4.575.024 1.437c-1.182-.329-1.914-.794-3.262-1.212-.826-.259-1.314-.443-.582-1.248 1.146-1.262 2.374-2.05 3.77-2.832l.004 1.628c-2.23.912-2.015 1.757.046 2.227zm-87.777-1.602 8.39.013-.01 5.134 6.562.01-.52 5.852-6.053-.01-.01 5.134-8.389-.014.01-5.134-5.992-.01.494-5.85 5.509.009zm18.948.048c-4.285 19.506-.427 40.228 6.096 57.116l-3.308.332c-5.084-13.505-9.109-32.727-4.932-57.44 0 0 1.48-.023 2.144-.008zm62.27.48c.423 0 .763.317.762.708 0 .392-.342.708-.764.707-.423 0-.764-.317-.763-.71 0-.39.343-.706.765-.706zm-147.59 1.398c.278-.007 1.13.335 1.888.532 1.138.295 2.036.423 3.074.443 2.085.041 2.358.024 1.458 1.612-.65 1.144-2.108 2.655-3.127 3.114-1.443.711-1.996.614-1.908-.701.012-.892-.403-2.444-.945-3.55-.422-.861-.904-1.438-.44-1.45zm8.822.641c.422 0 .768.317.767.709 0 .392-.348.712-.77.711-.423 0-.763-.322-.762-.713 0-.392.342-.708.765-.707zm141.162.135c.591-.01 1.605.327 2.529.745 2.45 1.108 2.384 1.362-.944 3.542-2.416 1.694-2.987 1.883-3.068-.793-.083-2.255.182-3.47 1.483-3.494zm-151.244.402c.974.014 2.042 4.714 1.166 5.131-1.363.65-5.58-.627-5.56-1.698.005-.349 3.965-3.44 4.394-3.433zm148.31.046c.583-.023.659.4.603 1.898-.03.793.115 2.087.173 2.69.121 1.252.005 1.339-1.06.777-.683-.36-2.07-.95-3.572-1.072-1.23-.1-1.32-.57-.937-1.322 1.09-1.665 3.061-2.832 4.794-2.97zm-144.696.474c-.85-.007-.64.412-.115 1.59.371.835 1.018.915 1.684.206.933-.994.751-1.521-.602-1.714a9.997 9.997 0 0 0-.967-.082zm143.568 1.35c-.353.03-.837.288-1.07.428-.799.463-1.124.796.034 1.166 1.03.329 1.577.472 1.497-.352-.048-.496-.005-1.216-.46-1.241zm-78.745.482-.01 5.115 6.68.011.009-5.115zm72.777.561c.422 0 .763.318.762.71 0 .39-.342.707-.765.706-.422 0-.763-.318-.762-.71 0-.39.342-.706.765-.706zm-125.032.595 21.024 25.103-1.406 3.266-21.652-26.498zm139.35.108.04 3.276c-2.383 1.61-17.519 11.74-25.372 28.819l-4.097 1.609c5.792-14.7 18.142-27.279 29.43-33.704zm-160.29 1.128c1.37.389 2.678 1.275 3.973 1.436 1.488.17 2.001.084 1.597.796-.906 1.594-2.612 3.262-4.411 3.805-1.286.389-1.893.242-1.69-.498.382-1.385.449-2.522.4-3.784.205-.687-.427-1.652.13-1.755zm-1.61.29c.873.694.692 5.075-.286 6.016-.511.492-1.99.04-4.208-1.13-1.45-.764-1.72-1.23-.995-1.696 1.23-.688 4.83-3.355 5.49-3.19zm150.535.338c.455-.008 1.017.065 1.695.21 2.625.551 3.209 1.108.967 2.753-.829.608-1.708 1.364-1.963 1.653-1.207 1.367-2.043.373-2.302-2.113-.182-1.74.103-2.73 1.603-2.503zm-3.29.23c.427.001.7.208.692.7-.011.629.47 3.348.74 4.097.471 1.274.128 1.561-1.01 1.004-.828-.416-3.021-.734-4.208-.649-1.351.096-1.312-.239-.914-1.29.704-1.862 3.421-3.863 4.7-3.862zm-144.355.673c-.514-.002-.536.639-.188 2.109.111.468.545.44 1.365-.092.97-.63.93-1.025-.16-1.633-.45-.25-.784-.383-1.017-.384zm5.97.17c.423 0 .764.317.763.71 0 .39-.342.706-.765.706-.422-.001-.763-.318-.762-.71 0-.391.342-.707.765-.706zm135.884 2.971c.366.332 1.721.32 1.955.121.358-.305.194-1.726-.104-1.897-.762-.242-2.307 1.251-1.85 1.776zm-126.47 2.5c.456 2.025 3.53 1.919 3.187-.194-.2-1.233-.248-1.207.42-1.179 3.172.15 2.613 4.785-1.042 4.42-.763.083-.865.373-.22.623.64.248 3.096.836 3.475.836 3.978-.006 9.706 5.672 9.556 10.704-.099 3.29 1.1 5.66 2.33 5.93.978.215 2.4-.607 2.279-1.615-.167-1.39 1.051-.954 1.751.046 1.068 1.38-.317 3.369-2.867 3.209-1.086.194.796.836 2.19 1.212 1.266.069.193 1.512-.042 1.769-.717.769-3.06.177-4.895-1.202-2.254-1.693-3.219-3.958-3.477-8.405-.166-2.86-.394-3.44-1.294-2.263-1.617 2.627-5.476 1.334-5.953-1.444-.267-1.47 1.131-2.53 1.58-1.196 1.192 2.772 4.123 2.111 3.652-.64-.311-1.816-2.269-2.82-6.138-3.838-4.65-1.222-6.032-2.7-6.932-6.24-.398-1.566-.333-2.386.561-3.203.442-.404 1.004-.815 1.004-.815s.617 2.381.875 3.484zm121.727-2.049c.422 0 .763.317.762.71 0 .39-.342.706-.765.706-.422-.001-.763-.318-.762-.71 0-.391.342-.707.765-.706zm-146.058.436c1.384.468 2.574 1.159 4.002 1.612.926.293.671.98-.29 1.956-1.074 1.17-2.127 1.744-3.612 2.394l.02-1.98c1.804-.58 2.955-1.972-.074-2.423zm149.66 1.348c.525.005 1.268.024 2.14.192 2.207.427 2.465.609 1.136 2.045-.493.533-1.226 1.336-1.627 1.786-1.31 1.684-2.011 1.104-2.615-1.075-.75-2.276-.92-3.15.966-2.948zm-142.74.58c.422.001.763.318.762.71 0 .391-.343.707-.765.706-.423 0-.763-.317-.762-.709 0-.392.342-.707.764-.706zm140.51 1.77c.21.718.527 1.634.77 2.283 1.193 2.451.437 1.503-1.71 1.283-1.443-.147-3.74.072-4.308-.298-.247-.3-.017-1.086.448-1.972.654-1.248 1.84-2.311 2.725-2.793 2.24-.955 1.716.263 2.075 1.496zm-129.004-1.08L75.5 922.673l-1.892 2.49-24.699-30.368zm150.833.353c-12.526 8.36-17.35 18.524-18.328 19.851l18.354-6.53zm-23.889.923c-.686.174-1.673 1.351-1.25 1.815.253.242 1.261.275 1.746.111.745-.252.24-1.928-.496-1.926zm-105.53 31.729-5.138 5.98-26.652-32.07 6.75-4.5zm128.082-30.921.168 11.008-15.7 6.038c5.27-8.218 10.425-13.295 15.532-17.046zm-107.274.76 6.269 7.593-7.678-.174zm79.451.749c.423 0 .763.317.763.71-.001.39-.343.706-.765.706-.423-.001-.763-.318-.763-.71.001-.391.343-.707.765-.706zm4.602 1.801c2.874.042 3.832.187 2.994 1.495-1.117 1.276-1.778 2.49-2.997 3.67-.703.66-1.578-.707-2.308-2.894-.589-1.766-.288-2.21.838-2.223 1.125-.012 1.316-.05 1.473-.048zm-3.324 2.383c.234.697.781 1.845 1.217 2.545.436.7.924 1.48.894 1.615-.075.328-.41.353-1.166.087-1.637-.687-5.487.03-5.588-.307-.57-.756.291-2.814 1.91-4.237.79-.696 1.514-1.147 1.932-1.154.418-.006.493.53.801 1.45zm-134.249-.76 27.118 32.763-1.885 2.119L38 901.644s-4.344 1.963-5.621 2.619l.14 16.922-.743-.034-.05 85.712 15.193-13.993-.088-58.159c3.212 2.811 5.96 5.809 9.638 8.565l6.308-.035c16.495-15.497 25.538-28.768 27.562-52.556 1.354-15.914-4.313-35.937-19.407-55.358l-3.699 2.074 7.281 10.209-15.475 6.327c-6.182 12.026-13.504 23.122-26.87 29.462l-.104 15.577-.234.322.167 4.892zm132.886 1.333c-.722.049-1.854 1.49-1.338 1.984.609.27 1.548.252 1.942-.23.27-.474.204-1.476-.604-1.754zm-81.086 3.238 7.982.056-2.1 6.343-7.773-.149zm75.824.095c.423 0 .764.317.763.709 0 .392-.343.707-.765.707-.423-.001-.763-.318-.762-.71 0-.391.342-.707.764-.706zm-40.666.127 1.016 8.245c-8.711 2.92-18.108 7.883-26.336 17.023-1.402-.088-12.598.069-12.598.069.28.038 10.407-17.6 11.583-25.261zm-31.615.717-3.665 2.325 2.856 2.832 3.792-2.373zm76.178.158a17.54 17.54 0 0 1 2.658.226c1.349.244 1.547.268 1.09 1.3-.609 1.368-1.982 3.835-2.328 4.031-1.238.709-3.976-4.39-3.037-5.269.248-.18.773-.286 1.617-.288zm-3.502 1.56c.353-.027.823.61.962 1.16.168.667 1.41 2.35 2.195 3.158.985 1.015.933 1.156-.481 1.259-1.685.122-3.33.426-4.28.744-1.47.493-1.67.383-1.478-1.21.288-2.397 2.02-5.027 3.082-5.11zm-1.3 4.958c.183.465 2.464-.384 2.592-.941-.021-.25-.913-1.698-1.451-1.764-.913.13-1.298 2.048-1.141 2.705zm-77.023-.45 7.544.078-2.485 5.758-7.458-.03zm3.376.778-3.619 2.113 2.81 2.529 3.466-2.208zm76.719 1.168c.64-.004 1.318.054 1.46.272.4.612-1.24 4.028-1.24 4.028l-2.66.973c-.57-1.091-1.546-2.227-1.78-3.409-.094-.516.188-.704.805-1.024.918-.476 2.347-.832 3.415-.84zm-7.124.268c.423 0 .763.318.762.71 0 .391-.342.707-.764.706-.423 0-.764-.318-.763-.71 0-.39.343-.706.765-.706zm-34.404.043s1.614 8.54 1.704 7.6c-12.59 4.372-19.962 10.842-23.461 17.16l-23.606-.055 5.283-7.57 13.975-.042c6.77-7.588 15.114-13.634 26.105-17.093zm-3.026 2.005-1.173 3.448 3.524 2.091 1.336-3.702zm38.67.13c.298-.026.593.442 1.198 1.44a60.423 60.423 0 0 1 1.034 1.812l-1.056.362c-.846-2.698-1.629-1.696-1.725.683l-1.447.532s.161-2.294.99-3.633c.476-.77.741-1.174 1.005-1.197zm-76.953 2.234 7.316.096-3.07 5.87-7.438-.2zm31.909.523-.589 4.36 3.939.78.547-4.143zm-28.8.006-3.618 2.16 2.367 2.896 3.481-2.16zm23.142 3.855-.756 4.014 3.694.785.848-4.038zm-80.323.106 9.233 8.513.398 59.294-9.214 8.536zm50.321 2.252c-.033.047 7.378.208 7.378.208l-2.975 4.958-2.534-.11 3.339-2.103-2.134-2.538-3.43 2.066 1.904 2.566-5.004-.107zm47.712 1.545 2.498 7.697-3.02.482-2.256-7.242c.926-.443 1.852-.66 2.778-.937zm-23.73.442.041 4.616 4.032.322.166-4.327zm20.04.77 2.285 7.312-1.918.503-2.732-6.943a8.194 8.194 0 0 1 2.366-.873zm-3.5 1.502 2.939 7.162c-4.082 1.526-8.319 4.8-11.509 8.071-2.357-1.611-3.746-1.782-5.201-2.148 4.029-6.928 8.778-10.562 13.77-13.085zm-44.572 1.722 7.758.23-5.41 7.461-8.777-.023zm23.095.316-.512 4.37 4.15 2.28.64-4.486zm-5.005.606-2.958 2.887 3.13 3.323 2.882-3.46zm-6.603.14-3.514 2.977 2.784 3.378 3.213-3.388zm-44.695 2.71.235 57.925-12.91 11.556-.09-3.115 10.264-9.9c.049-19.594.018-39.187-.016-58.78zm34.292-1.816-3.566 4.491 4.22.016 3.068-4.35zM58.427 961.19c-1.412 4.678-7.89 9.744-8.006 9.658 3.195 4.26 3.075 10.327.245 13.311.014-.067 5.142 3.892 5.859 5.946.405.818.566 1.813 1.08 2.625.135.215.568.75.568.75 12.567-11.771 6.62-25.6.254-32.29zm.186 1.224c12.154 14.027 4.1 26.836-.157 30.405l-.809-1.244c9.07-9.735 5.256-21.72-.007-27.4zm-1.323 2.724c.08.228.553.889.202.845l-.611-.114zm-.095 1.562c.265 0 .486.077.605.247.248.382-1.017 3.601-1.793 2.85-.234-.426-.51-.796-.724-1.237-.253-.525-.086-.779.496-1.3.4-.36.975-.56 1.416-.56zm1.75.876c.616.045 1.488 1.843 1.567 3.126.038.134-2.079-.305-2.64-.905.069-.526.602-1.862 1.073-2.221zm-4.768 1.458c3.655 6.841 3.415 12.18.177 17.082l-2.526-2.01c1.708-3.729 2.558-7.712-.297-12.789zm2.47 1.714c.255-.02 1.038.089 1.731.296 2.453.73 2.542 2.22.177 3.308-.98.45-1.284.25-1.844-2.028-.277-1.126-.486-1.542-.063-1.576zm4.735 2.627c.474-.002.69.828.745 2.257.052 1.357-.26 1.463-1.437.493-1.273-1.049-1.492-1.298-.322-2.157.343-.252.8-.593 1.014-.593zm-3.348 2.236c.233-.019.91.383 1.571.852 1.676 1.188 1.302 2-.606 2.57-1.321.396-1.256.446-1.218-1.672.019-1.047-.047-1.726.253-1.75zm22.212 1.964c-2.049.478-2.912 2.17-2.236 3.696.308.694.778.7.226 1.123-.616.657-.946 2.18-.27 2.735.797.425 1.004-.306.16 1.124l-15.479 26.247 92.618-.01-11.095-19.343c.025-.027.896-3.187-.884-3.57-.572-.124-.898-.617-1.014-1.089.148-1.344-.51-1.917-1.063-2.612-8.806 1.138-16.453.551-22.768-.776-9.097-1.912-15.595-5.208-19.822-6.246-5.83-1.433-12.867-2.063-18.373-1.28zm4.989.19c7.176-.029 15.205 2.02 20.823 4.285 5.83 2.242 12.006 3.917 18.247 4.781 5.152.61 10.292.316 15.22-.039.539-.074 1.097-.005 1.498.392 1.019 1.053.322 1.711-2.234 1.926-4.103.307-9.191.165-13.703-.47-7.146-.773-14.718-2.788-21.25-5.31-8.163-2.855-15.664-3.818-21.594-2.99-3.257.456-3.736.527-3.721-.284.028-1.581 1.441-2.302 6.714-2.292zm-23.523 4.547c-.317.67-2.545-1.527-2.52-2.146.047-.272 1.856-1.362 2.574-1.805.347-.247.324-.118.328.171.01.827-.064 2.961-.382 3.78zm-3.433-1.623c1.03.13 2.718 2.71 1.226 3.107-1.321.351-2.523.577-2.682-.245.684-2.015.94-2.812 1.333-2.858a.896.896 0 0 1 .123-.004zm59.875 8.898c6.572 1.065 15.2 1.71 20.84 1.31 3.234-.296 3.915-.198 3.893 1.051-.014.783.079.764-4.094.753-3.469.209-6.59-.14-9.947-.307-6.946-.331-13.255-1.445-19.085-3.33-6.467-1.567-12.068-4.566-18.398-5.193-5.806-.537-11.031.407-12.128.97-.365-.006-.555-.508-.533-.972.022-.453.205-.816.614-1.104 16.65-3.865 25.546 4.485 38.838 6.822zm-57.709-5.247c.555.007.377.767-.533 2.377-.775 1.37-1.079 1.362-1.512-.044-.464-1.503-.418-1.669.507-1.887.545-.12 1.006-.384 1.538-.446zm-3.885.758c.65.01 1.568 2.74 1.093 3.253-.375.405-1.728.128-2.122-.352-.633-.772.183-2.914 1.029-2.9zm29.096.785c2.582-.02 5.154.24 7.52.62-1.364.465-2.72.894-4.136 1.649a24.844 24.844 0 0 0-3.384-2.27zm3.349 3.317c9.132-4.7 12.972 1.816 14.289 2.868 7.98-1.624 9.54-.815 13.982 3.649 7.994-3.607 11.86-.524 15.19 1.428 3.918-3.381 8.878-3.467 11.46-1.762.482.75 1.151 1.703 1.206 1.986.042.222-.323-.036-1.22-.634-4.686-3.119-12.477.743-10.405 4.848.558 1.106.468 1.582-.37 2.024-1.192.744-2.65-.496-1.82-1.758 1.388-2.108.35-3.876-3.013-5.512-4.74-2.307-12.495.256-10.907 3.649 1.019 1.084.071 1.846-1.276 1.805-1.524-.046-2.04-.993-1.06-2.003 1.223-1.289.905-2.598-.514-4.091-4.249-5.631-12.872-3.415-11.74 1.515.498 1.225-.927 1.717-2.405 1.17-.94-.348-.797-1.696.233-2.17 1.186-.11 1.357-1.7 1.217-2.721-.203-1.486-2.564-2.954-4.9-3.734-1.692-.565-3.264-.688-4.505-.585-2.62.218-4.085 1.864-3.658 4.336.252 1.458-.19 2.968-2.035 2.164-1.01-.44-.754-1.5.28-2.474 3.632-3.277-3.663-7.284-8.076-4.539-.749.569-1.294.667-1.294.667 2.776-6.375 11.421-.387 11.34-.126zm12.018-.84 5.505 1.933c-1.27.23-2.166.56-3.067.89zm-14.393 2.051c-5.083-.9-5.37 4.365-2.058 5.23-4.569 5.797 7.364 8.07 5.187.903 6.047 1.02 4.965-5.362.467-5.31 1.056-2.376 9.356-.561 8.994 1.204-5.614.543-3.38 5.287-.951 5.296-5.88 5.141 5.857 9.909 5.56 2.144 4.71.925 5.276-4.872.747-5.26 1.663-2.161 7.585-.788 9.223 1.69-4.677.566-4.392 4.374-.733 4.995-4.649 5.466 6.762 7.508 5.588 1.142 4.087 1.31 6.342-3.744 1.045-5.199 5.434-2.988 11.32 1.49 10.681 1.58-6.194-.35-4.971 5.405-.488 5.1-2.863 5.97 8.438 6.321 5.583.12 5.083.095 4.648-5.366-.222-5.739 3.071-2.067 6.53-2.243 8.75-.3-4.637 1.122-2.72 6.119 1.945 4.744.423 4.179 4.09 3.299 4.172 3.172l3.269 5.677-88.866-.011 7.609-12.964c4.483.22 4.33-3.78 4.134-3.878 2.977 1.978 6.192-2.92 1.833-4.334 3.57-3.45 8.847-.25 8.53-.002zm-28.929-.408c-.186.176-.234.28-.54.018-.773-.823 1.335-.888.54-.018zm18.372 2.203c.39.298.12 1.11-.199 1.388-.802.794-1.072.73-.365-.641.209-.415.407-.752.564-.747zm38.932.431 4.619 1.043-2.196 1.143a26.94 26.94 0 0 0-2.423-2.186zm14.438 1.748 5.024.305c-.665.418-1.317.807-2.131 1.568-.632-.624-1.829-1.248-2.893-1.873zm16.731 4.777c.279.54 1.384 2.421 1.28 2.47-1.626.26-2.057-1.982-1.28-2.47z"/></g></g></svg>