<svg xmlns="http://www.w3.org/2000/svg" width="234" height="333"><g transform="translate(0 -719.362)"><rect width="233.244" height="332.244" x=".378" y="719.74" fill="#fff" stroke="gray" stroke-width=".756" rx="8.919" ry="8.946"/><path d="M12.899 780.702c0-.556-.031-.958-.031-1.514h3.545v-2.737c-2.244.072-4.673.24-6.774-.687-1.627-.893-2.076-2.97-1.748-4.68.281-1.927 1.353-3.638 2.75-4.957 1.82-1.946 4.14-3.26 6.562-4.316 2.472 1.075 4.843 2.431 6.685 4.428 1.66 1.56 2.765 3.764 2.731 6.071.036 1.665-.995 3.425-2.697 3.789-1.904.527-3.83.434-5.785.352v2.737h3.353c0 .556.03.958.03 1.514a669.463 669.463 0 0 0-8.621 0zM212.488 991.022c0 .556-.031.958-.031 1.514h3.545v2.737c-2.244-.072-4.673-.239-6.774.687-1.627.893-2.076 2.971-1.748 4.68.28 1.927 1.352 3.639 2.75 4.957 1.82 1.946 4.14 3.26 6.562 4.316 2.472-1.075 4.843-2.431 6.685-4.428 1.66-1.56 2.765-3.763 2.731-6.07.036-1.666-.996-3.426-2.697-3.79-1.904-.527-3.83-.433-5.785-.352v-2.737h3.353c0-.556.03-.958.03-1.514-2.632.019-5.778.019-8.621 0zM50.016 804.63c0-1.111-.061-1.915-.061-3.027h7.089v-5.474c-4.488.145-9.345.478-13.548-1.374-3.253-1.786-4.15-5.942-3.495-9.359.562-3.855 2.705-7.278 5.5-9.915 3.639-3.892 8.279-6.519 13.123-8.632 4.945 2.15 9.687 4.862 13.371 8.856 3.319 3.119 5.53 7.527 5.462 12.141.072 3.331-1.991 6.851-5.395 7.578-3.807 1.055-7.66.868-11.57.705v5.474h6.706c0 1.112.062 1.916.062 3.028-5.265-.037-11.558-.037-17.244 0zM166.757 967.094c0 1.112-.062 1.915-.062 3.027h7.09v5.474c-4.488-.144-9.345-.478-13.548 1.374-3.253 1.786-4.151 5.942-3.495 9.36.561 3.854 2.704 7.278 5.5 9.914 3.638 3.892 8.278 6.519 13.123 8.633 4.944-2.15 9.686-4.863 13.37-8.857 3.32-3.119 5.53-7.526 5.463-12.141.072-3.331-1.992-6.851-5.395-7.578-3.808-1.054-7.661-.867-11.57-.705v-5.474h6.706c0-1.112.061-1.915.061-3.027-5.264.037-11.557.037-17.243 0z"/><g stroke-width="3.181"><path fill="#131f67" d="M30.528 757.403h172.77l.316 256.918-173.228-.429s-.007-167.652.142-256.489zm122.72 255.069c-6.434-10.8-16.603-28.392-16.904-28.532-3.76 1.854-42.097 6.606-60.538 2.005-6.306 8.772-12.499 17.46-17.99 26.154zm-58.88-32.302c-.965.02-2.04.564-1.842.09.115-.273.387-3.043.506-4.033.289-.44.695.714.649 1.787-.027.616.292.176 2.476.282 2.361.115 4.296.525 5.097.685 2.793.56 8.197.158 10.512-1.401 1.253-.844 1.727.067.435.973-5.835 4.09-10.461 2.53-15.53 1.845-.756-.102-1.52-.244-2.303-.228zm2.48-3.88c-.362-.22-.6-.242-1.065-.041-1.79.773-1.322-.336-.032-1.453.59-.51.572-.77.125-1.307-.227-.271-.605-.305-.515-.711.388-1.753 3.048-4.405 6.022-5.59 1.237-.492 1.433.047-.131.897-2.406 1.308-3.184 2.423-1.823 1.97 2.638-.88 5.044-.26 8.42 1.298.964.445 1.406.532 2.226.45.607-.464 1.15.095 1.525.387.236.176.287.26.556.201 1.92-.417.77.715-1.856 2.487-4.702 3.073-9.832 4.523-13.451 1.411zm7.235.755c1.922-.535 4.266-1.654 5.703-2.82 1.748-1.419.76-1.203-1.248-.31-2.906 1.295-4.94 1.668-8.21 1.599-2.735-.058-2.65-.16-2.75.155-.35 1.106 3.416 2.237 6.505 1.376zm-5.308-4.32c.156-.477.275-1.112.135-1.319-.253-.374-.797-.098-1.488.71-.429.5-.37.568.05.963.21.132.371.23.498.299.584.23.678-.271.805-.654zm1.196.652c.841-2.647 2.725-2.596 4.07-.062l.947.005c-1.949-4.93-5.721-2.433-5.848.019.445.136.83.038.83.038zm7.038-.446c.89-.458.759-.77-.374-1.31-.805-.384-1.232-.461-1.378-.214.011.547.035 1.328.377 1.761.355.2.843.003 1.375-.237zm-12.468-7.54c-.163-.248-.134-.703.484-.968 3.816-1.632 1.036-5.077-1.91-2.493-.934.708-2.323 1.037-3.396.615-1.009-.406-1.028-1.546.313-1.789.44-.08 1.568-.301 1.985-.568 5.12-2.532 7.84 2.973 4.207 4.805-.747.403-1.54.627-1.683.399zm-14.345-4.998c-2.078-.87-2.363-3.89-.415-5.067 1.24-.783 2.507-.996 5.922.565 2.412 1.102 3.793-.085 3.73 1.198-.038.78-.088 1.567-1.49 1.755-2.28.305-3.836-2.552-6.763-2.283-2.112.195-1.845 2.529-.319 3.003 2.034.632.801 1.382-.665.829zm38.211.439c-.381.165-.56-.606-.395-1.017 1.039-2.276 1.994-4.085 2.935-6.217.751-1.698 1.255-2.429 1.592-2.427.344.002.504.251-.072 1.297-.87 2.11-4.055 8.544-4.06 8.364zm-17.062-.59c-.92-.605-.764-1.502.282-.822 1.344.873 3.548-.725 3.099-2.233-.543-1.822-3.164-2.264-5.358-.632-3.462 2.575-7.26 2.706-7.26.693.007-.575-.08-.706 1.36-.795 1.675-.105 3.564-.814 4.503-1.342 4.21-2.371 8.69-.734 7.762 3.221-.418 1.866-2.894 2.77-4.388 1.91zm-15.44-5.838c-.341-.01-.966.308-1.145.185-.35-.242-.3-.944-.588-1.695-.512-1.334-.013-.917.888-.557 1.222.437 2.381.352 3.412.022 1.064-.341 2.46-.263 4.694.006 1.797.217 2.806.154 4.437-.277 1.77-.512 1.302-.328 1.007.68-.192.663-.435 1.55-.66 1.763-1.223-.633-2.153-.388-2.957.043-1.321.538-2.258.63-3.34.331-1.019-.535-1.623-.491-2.44-.029-1.41.63-2.035-.412-3.307-.472zm26.398-2.773c.248-.402.609-.956.947-1.578 2.735-5.02 2.922-6.416.992-8.107-2.595-2.273-4.806-1.287-7.291 3.251-.604 1.102-.964 1.93-1.208 2.27-.281.392-.61.09-.771-.063-.307-.289 2.452-5.106 3.533-6.158 2.83-2.752 8.087-.55 7.752 3.193-.168 1.885-.556 2.919-2.422 6.375-.461.856-.862 1.58-1.107 1.93-.875.542-.675-.701-.425-1.113zm-25.779-.2c.432-1.787 6.634-2.615 8.268-.27.16.229.066.22-.635.042-3.153-.963-3.779-.91-6.8.193-.454.161-.777.228-.833.036zm23.663-.339c.001-.168.23-.829.581-1.468 2.068-3.777 2.638-4.688 2.007-5.395-1.229-1.376-2.88-.18-4.396 3.764-.567 1.475-.954 1.16-1.23.927-.53-.445 1.815-5.034 2.946-5.718 2.564-1.507 4.581.237 3.449 3.319-.884 1.391-1.614 3.532-2.44 4.658-.391.505-.92.356-.917-.087zm-9.273-6.135c-.125-.19.117-.446 1.005-2.205 1.221-2.418 1.6-3.315 1.104-4.695-.884-2.46-4.218-3.063-6.243-1.449-.662.521-1.112 1.243-1.424 1.89-.731 1.5-1.341 3.439-1.775 3.846-.379.353-.908.425-.873-.191.481-1.306.708-2.318 1.846-4.232 2.838-5.698 11.016-3.06 9.102 2.939-.712 2.177-1.53 3.826-2.015 4.362-.27.298-.716.039-.727-.265zm-1.898-1.046c.001-.188.308-.722.633-1.467 1.383-3.162 1.393-4.13-.623-4.171-1.206.143-1.385.6-2.444 3.094-.344.81-.533 1.388-.738 1.635-.219.265-.63.108-.8-.051-.431-.407 1.456-4.498 2.454-5.27 2.294-1.846 5.267.775 3.874 3.128-.652 1.645-1.215 2.761-1.598 3.27-.338.45-.762.386-.758-.168zm-48.84-36.865-6.97-.443c1.235 6.895 1.298 14.484.05 19.866-1.066 4.601-1.078 7.99-.76 11.98.37 4.641 2.495 8.577 3.03 13.504.387 3.57-.467 7.296-1.23 10.846-1.274 5.931-1.011 6.55-.824 13.51.174 6.454-.476 6.222-.876 5.845-.06-.057-.117-1.198-.108-2.555.01-1.357-.081-4.676-.165-6.98-.167-4.604.386-8.671.787-10.345.816-3.408 1.732-6.898 1.168-10.669-1.147-4.76-2.764-9.512-3.331-14.1-.7-5.656 1.02-11.332 1.588-15.44.549-3.967-.033-10.829-1.156-13.685-.193-.95-1.11-2.188-1.11-2.188-1.052-.14-2.107-.277-3.58-.268-.082 27.24-.001 54.491.022 81.735l6.499 5.582 6.677-5.877zm.468 31.248s9.916 5.285 20.849 10.479c-1.041-5.943 2.26-6.839 5.36-7.529-.742-11.48 10.618-9.125 12.359.85l1.12.004c1.968-4.973 3.915-8.405 8.396-9.224 3.474-.635 6.9 1.402 7.768 6.199-.153-.338 11.517-6.342 11.838 6.344 5.3-3.046 9.082-.415 10.61 3.453 2.238-3.157 7.838-3.296 9.629-3.526.623-.665 1.724-1.045 3.723-1.034 1.714-.08 4.017-1.269 5.201.179 1.802.263 3.175-.039 4.715 1.063 1.226.863 2.593 2.786 4.633 1.46 3.89-1.735 8.262-2.517 11.74-4.609 0 0-.922-1.1-.653-.941.099.058.532.577 1.184.82.234.086 2.371-1.1 2.371-1.1C157 925.728 145.08 895.556 152.95 867.64c.218-.475-.657-.658-1.087-.826.132-.214 2.26.073 1.356 1.848-.91 5.348-1.94 11.144-2.169 15.578-.003.54.05 1.024.05 1.024 32.486 13.874 28.502 43.925 20.157 54.385l1.315 1.623c.582.36 25.557-13.124 24.733-13.677l4.726-2.179-.766-58.927-18.69-1.323s.199-.495.435-.623c.171-3.598-.176-8.919.01-13.372.073-12.727.211-17.055.033-17.407-5.765-3.515-14.36-8.654-21.594-11.147.297.079-.118 5.274-.338 5.57-6.768 2-3.626 4.556-6.128 7.301-1.68 1.71-5.613 2.036-7.512-.016-2.269-2.033-3.333-6.697-3.333-6.697-3.58 3.545-2.845 7.828-7.64 9.44-7.706 3.54-10.153-7.042-9.705-6.797-2.953 2.636-11.24 4.78-12.135-6.351-3.726 3.176-7.902 1.599-9.674-2.31-2.274.075-4.825 1.725-7.127 2.617-2.136.876-4.869 1.39-6.897 1.35-2.537.285-4.627.274-6.913-.356-1.074.322-3.496-.643-4.243-2.027-1.143-1.244-2.14-1.316-3.227-1.092-3.702 1.806-7.672 2.242-12.042 4.132-.273.176.383.507.163.442-.094-.028-2.296 1-2.296 1 22.138 26.95 23.342 54.16 18.702 73.445-.182.669-.282 1.154.196 1.68-.702-.112-.713.078-.845-.339l2.302-16.187c.068-1.955.332-1.81-1.523-2.54-1.716-.674-3.338-1.324-4.754-2.13-5.398-3.704-11.5-8.263-14.473-13.95-8.483-12.227-5.684-26.815.67-38.373l-1.58-1.52c-18.556 8.608-29.511 17.89-29.511 17.89l.08 57.822 19.068 2.037zm-9.198-38.613c-.612-.625-2.169-.735-2.818-.26-.15.117-.47.73-.564.708-.864-.205-1.462-.371-1.577-1.046l.917-1.283c.726-1.016 1.772-1.376 3.535-1.758.625-.135 1.57-.26 1.903-.39 1.325-.53 1.786-1.678.444-1.164-.98.25-2.349.167-2.53-.662-.15-.682-.777-.95-1.476-.87-1.291.288-2.471.913-3.615 1.542-.507.283-1.47.924-1.47.924-.15.22-.71-1.386-.189-1.856.648.073 1.206.078 1.838-.155 1.576-.581 3.094-1.283 4.685-1.846 1.013-.369 1.106-.338.839-1.003-.132-.246-.249-1.062-.074-1.489.185-.454.165-.682-.15-.876-.716-.442-2.433-.03-4.847 1.044-.736.327-1.22.459-1.686.806.3-.708.126-.838.118-1.579.986.115 1.873-.248 2.66-.632.649-.314 1.377-.625 3.16-.836.488-.057.266-1.709-.289-2.187-.524-.453-1.628-.463-2.962-.097-1.192.253-2.673.51-3.493 1.695-1.034.907.025-1.502 1.91-2.464.827-.016 2.651-.379 3.08-.466.728-.15.844-1.73-.213-2.408-.662-.535 2.406-.55 2.347-.386-.04.093-.068.769.167.941 1.321.368 1.31 1.37 1.425 1.79 1.518 2.307 2.265.86 3.31.065-.22 5.024 1.676 5.595 1.927 5.913-2.606 4.5-.64 4.611 1.802 5.647 0 0-.928.349-1.546.313-.972-.055-2.833 1.012-3.647 1.641-.448.347-.462.058-2.257.01-1.69-.046-1.815.07-2.586.387-1.52.624-1.513 1.213-.027.981 1.583-.248 3.134.642 3.316 1.855.125.229.013.634-.012.62-.33-.057-1.075.058-1.063-.088.01-.146 0-.695-.292-1.08zm2.31-6.087c.429-.254.503-.976.129-1.269-.34-.266-1.785-.123-2.193.216-.923.673.764 1.798 2.064 1.053zm.925-3.024c.53-.384.596-1.306.135-1.841-.78-.908-2.819-.365-2.93.78-.117 1.22 1.684 1.864 2.795 1.061zm-.664-4.149c.096-1.001-.975-1.636-1.96-1.16-1.227.591-.482 1.838 1.055 1.765.85-.04.85-.04.905-.605zm-3.591-4.064c-.573.26-.602.884-.06 1.287 2.153 1.1 1.497-1.847.06-1.287zm150.317 5.987c-.945-3.224-3.55-.027-3.553.017-.092-3.304.583-4.775-2.092-5.904 2.684-3.767 2.125-4.287-.722-5.732.262.02 3.779-.71 4.38-2.57.134.087 5.52 1.316 6.192-1.407-1.625.686-4.822.789-4.858-2.139.302-.084 1.06.06.997.154-.425 1.877 3.267 2.342 3.871.859 0 0 1.24.77 1.786.888.06.038-1.68 2.274-3.266 2.611-2.861.877-3.848 1.114-3.852 1.64 0 .205.468.238 1.317.399 1.777.113 1.74.467 1.973 1.012.206.482.407.579 1 .53 2.028-.625 3.043-.953 4.458-2.263.172-.03.372 1.377.481 1.426.017-.225-1.436.167-3.667 1.376-1.82.987-2.533 1.13-2.765 1.397-.171.198.271.82.318 1.496.039.569-.374.844-.07 1.022.35.205.893.167 1.607-.004 1.574-.352 2.732-.925 4.147-1.735-.3.527.203 1.864.203 1.864s-.698-.455-1.273-.219c-1.107.45-2.897 1.064-3.38 1.17-.469.101-.672.158-.855.302-.225.176-.188.602-.192 1.227-.003.438-.138.843.16.975.66.198 1.995.135 3.353-.304.58-.234 1.808-.854 1.808-.854l-.385 1.85c-.515-.539-1.995-.142-2.985.22-.5.145-.65.436-.776.84-.221.69.252 1.165.798 1.392.363.15.923.089.923.089-2.566.905-2.055 1.238-3.553.552-.647-.65-1.281-1.335-1.528-2.177zm2.686.001c-.426-.455-1.168-.717-1.6-.537-.384.19-.246.585-.123.887.325.838 2.58.567 1.723-.35zm-1.498-2.305c.602-.73-.06-1.713-1.171-1.72-.773-.004-1.184.442-1.176 1.002.015 1.06 1.845 1.328 2.347.718zm-1.234-2.784c1.114-.28 1.456-1.281.685-2.007-.547-.515-2.266-.58-2.726-.113-1.173 1.191.142 2.6 2.04 2.12zm.926-3.66c.654-.31.78-.827.202-1.414-1.049-.828-2.88-.182-2.289 1.024.29.59 1.29.767 2.087.39zm-134.112-27.79c.984-.331 1.695-1.039 2.73-1.582.7-.353.489-.297-.405-.78-.703-.3-2.112-1.622-2.244-1.307-.32.564-.274 3.644-.08 3.67zm24.88 32.264c.041-.629.123-1.576.104-2.27.133-1.324-.124-.937-.897-.505-.572.342-1.49.861-1.85 1.028-1.418.655-1.249.69.749 1.58 1.676.695 1.865.627 1.894.167zm-1.946-3.098c1.355-.792 1.805-1.2 1.871-2.088.007-1.022-.122-1.394-1.089-.686-3.3 2.414-6.696-2.323-3.675-4.954.616-.536 1.398-1.376 1.405-1.589.05-1.526-1.805-.044-3.32 2.051-1.678 1.906-2.723 4.29-1.25 6.579 1.177 1.675 3.797 2.006 6.058.687zm-7.498-3.082c-.06-.747.167-1.582.273-1.83.37-.874.354-.983-1.327-.255-.67.205-1.471.37-1.78.37-1.372-.009-1.03.391.939 1.911 1.978 1.528 2.044 1.666 1.895-.196zm4.677-7.316c.21-.46-.226-.637-.643-.55-.033.006-.753.504-1.6 1.12-2.564 1.871-4.445 2.09-5.717.665-1.29-1.445-.75-3.158 2.133-5.12 1.272-.866 1.577-.924.965-1.302-.465-.288-.493-.244-2.322.902-3.685 2.311-4.788 3.89-4.419 6.189.076.944.61 1.439 1.127 1.806 3.513 2.884 8.388-1.092 10.476-3.71zm3.72 1.364-.223-3.182c-3.746-2.992-7.3-8.102-8.528-12.334-1.251-3.764-.254-11.615-.066-11.032l-2.024-3.551c-1.762 3.769-2.531 9.516-.615 15.372 1.627 4.97 4.885 10.991 11.455 14.727zm-15.78-1.854c1.19-2.117 1.226-1.888-1.073-1.906-2.625-.021-2.332-.317-.852 1.759 1.188 1.667.988 1.813 1.924.147zm1.576-2.901c1.512-.45 1.167-.346 3.173-1.555 2.303-1.387 2.4-2.146.087-1.077-2.968 1.373-5.575 1.022-6.543-.77-.862-1.596.938-3.587 3.902-4.366 1.013-.266 1.546-.49 1.549-.901.008-1.253-5.037.418-7.116 2.309-4.013 3.65-.501 7.98 4.948 6.36zm-6.488-5.682c.136-.19.496-.647.829-1.12 1.42-1.53.226-1.073-1.035-1.49-.667-.229-1.35-.455-1.741-.4-.755.106.254 1.456.497 2.327.679 1.941.6 1.882 1.45.683zm5.372-3.498c2.544-.23 2.803-.458 2.807-.946.003-.485-.312-.392-1.588-.228-3.382.435-5.621-.362-6.105-2.031-.499-1.724 1.792-3.355 4.844-3.26 1.653.053 2.754-.476 1.747-.985-.524-.265-5.077-.208-6.107.07-3.025.816-4.258 2.374-3.982 4.532.418 2.664 1.99 3.428 5.819 3.239.733-.037 1.668-.31 2.565-.391zm1.968-8.678c.003-.416-.723-.476-3.124-.806-3.197-.44-4.625-3.18-2.698-4.829.73-.625 2.471-.893 3.441-.73 2.108.357 3.397.758 3.417.096.004-.591-.608-.634-4.565-1.408-5.978-1.17-9.26 4.264-4.48 6.922 1.816 1.01 8.004 1.584 8.01.755zm1.482-7.776c.002-.208-.192-.368-.645-.532-.658-.239-1.1-.283-2.584-1.209-1.973-1.231-2.572-3.633-1.255-4.972 1.278-1.25-1.022-2.725-2.854-1.315-1.904 1.465-1.744 3.765.448 5.586 2.02 1.677 6.884 3.42 6.89 2.442zm-9.686-.325c2.078-.903 3.57-.383 1.98-1.63-.892-.765-1.654-2.943-2.274-1.096-.475 1.101-.824 3.043-.837 3.234.14.131.108-.094 1.131-.508zm73.494-4.687c-2.366-.545-3.983-3.09-3.38-5.537.34-1.382 1.744-4.639 2.02-4.841 1.045-.767.901.253-.057 2.026-.874 1.81-1.555 3.264-1.284 4.34.384 1.533 1.054 2.703 2.774 3.092 1.21.273 2.35-.194 3.122-.699 1.02-.667 1.986-2.38 3.14-4.753.369-.667.864-2.716 1.479-1.465.296.647-2.166 4.95-3.087 6.041-1.158 1.373-3.114 2.178-4.727 1.796zm14.267-1.44c1.153 1.023 3.102 1.538 4.374 1.171 3.121-1.018 4.54-3.75 3.358-8.14-.599-2.46-1.11-3.992-1.628-4.296-.251-.148-.526.128-.771.47-.218.306.115.736.47 1.894 1.491 4.879 1.101 7.085-.72 8.017-2.64 1.353-4.903-.205-5.67-3.686-.123-.538-.485-1.634-.485-1.634-.202-.484-1.838-.377-1.243 1.243.179 1.254 1.426 4.244 2.315 4.961zm13.39-12.778c-.041-1.716-3.94-9.164-4.205-8.373 0 0-.017 1.74.136 2.425.058.259.26.498.427.774 3.388 5.594 2.864 9.536-.073 10.4-1 .42-1.218.834-.77 1.268.904.912 3.175-.89 3.617-1.545 1.111-1.468.957-4.147.868-4.949zm-56.731-1.266c1.277-1.32 4.076-5.877 4.94-8.268 2.656-7.115 5.448-15.299 6.219-22.864.085-.954.14-2.407.19-2.531-.208-.21-1.525-.1-1.967.11-.212.255-.07.821-.146 1.56-1.188 8.504-3.383 16.252-6.636 24.14-1.423 3.425-2.745 5.681-4.46 8.064-.298.416-.68.844-.829 1.086-.433.58-.115.958.387.713.892-.467 1.661-1.365 2.302-2.01zm-4.354 2.07c4.073-5.192 6.969-11.424 9.219-18.78 1.422-4.761 2.674-9.579 3.424-14.488.154-1.048.278-1.75.058-2.063-.55-.137-1.577-.052-1.933.202-.218.306-.072.917-.274 2.33-.52 3.653-1.301 7.321-2.618 12.124-3.476 10.63-6.67 16.58-10.867 21.787-.339.438-.64.723-.61.909.044.272.451.25 1.118-.136.872-.635 1.868-1.188 2.483-1.885zm-6.205 2.758c1.993-1.047 5.501-5.606 7.98-10.515 2.78-5.796 5.109-12.343 6.632-18.012.662-2.485 1.602-8.69 1.468-9.098-.16-.485-2.107-.081-1.837.254 0 0-1.935 9.974-4.016 15.472-3.865 10.206-7.207 17.131-10.804 20.46-.472.437-1.4 1.29-1.4 1.29s.02.381.32.44c.717.122 1.195-.07 1.657-.29zm-3.05-.406c4.497-2.332 9.763-13.22 14.061-26.892.735-2.34 2.08-10.17 2.08-10.17s-1.792.061-2.138.41c-.347.474-.291 1.679-.793 4.54-1.933 8.648-4.849 16.536-9.23 24.332-1.896 3.455-5.045 6.708-7.033 7.635-1.112.518-1.437 1.089-.623 1.13 1.37.045 1.493.311 2.488-.185zm61.61 121.772c-3.372-.01-6.236 2.99-8.787 6.76-5.428 7.728-9.076 20.64-9.964 27.502l2.048-.358c-.308.13 3.827-18.265 10.127-26.142 3.406-4.97 3.262-5.045 5.174-5.501 2.417-.576 4.356 1.85 3.157 3.311-.434.495-.91.132-.776-.573.429-2.25-3.11-2.683-4.098-.472-1.137 2.542 1.886 4.81 4.84 3.81 2.64-.865 3.745-4.288 1.892-6.817-.953-.855-2.33-1.615-3.613-1.52zm-17.75-.315c-4.037 4.704-6.037 9.537-8.516 16.136-2.477 6.593-4.256 13.042-5.027 20.442l2.178-.26c-.08-4.757 5.54-27.409 13.437-35.894.44-.537.795-.984.761-1.108-.438-1.146-2.31.234-2.833.684zm8.92-1.756c-5.232 3.978-9.412 12.667-12.169 20.7-2.98 8.682-4.316 16.639-4.092 16.639l2.079-.284c-.155-.504 5.84-31.098 16.967-36.669.964-.446 1.167-.896.353-1.091-1.252-.163-2.26.219-3.138.705zm5.859.02c-11.426 1.396-18.892 33.918-19.142 36.619a7.06 7.06 0 0 1-.041.25l2.274-.434.03-.156c1.566-8.31 3.093-14.135 6.654-21.646 2.776-5.566 6.605-12.683 12.326-13.373.465-.056.906.117.743-.385-.348-.798-2.059-.9-2.844-.875zm-68.094-10.241c-4.13.985-4.264 5.578-1.514 11.448.208.443.17.686.381.856.47.382.84-.15.892-.502.079-.533-.167-1.251-.603-2.294-1.702-4.063-1.294-6.403.391-7.439 4.32-2.065 5.482 2.176 6.135 4.127.16.476.215 1.13.497 1.165.862.11 1.272-.174 1.26-.174 0 0-1.144-3.653-1.842-5.025-1.129-2.22-3.813-2.685-5.597-2.162zm-29.96 4.336-.043 48.417-7.904 6.893c-3.393-2.7-7.85-6.928-7.85-6.928l.14-81.85-2.543-.189c-.622 35.166-.179 70.857-.208 106.092l23.373.16 19.345-28.055s.245-.334.322-.51c.238-.543.21-1.35.094-4.333-.048-1.213.099-2.144-.093-2.428-.195-.288-.608-.082-.993.078-.393.164-.626.106-.415-.324.12-.243.507-.778.842-1.287 1.086-1.656 1.351-2.186.984-4.022-.09-.451-.536-.833-.924-1.365-3.255-4.463-4.581-11.08-2.965-15.925.515-2.142.33-2.576-.783-4.245zm102.32-52.06c-2.125-1.013-2.084-.99-2.097.928.012 1.434.041 1.781.62 1.588.839-.396 1.863-.758 2.636-1.063 1.477-.471-.398-1.075-1.159-1.452zm8.413 4.987c-1.649-1.222-1.04-1.082-1.507 1.676-.282 1.665-.646 1.708 1.21 1.157 1.052-.338 3.217-.125 2.246-1.273.006.02-1.625-1.305-1.949-1.56zm-66.27 42.331c-2.53 1.422-5.114 8.314-5.114 8.314-8.842.979-12.543 9.058-12.938 15.795-.312 5.318-.7 11.527-.123 12.071 5.797-2.422 8.03.374 8.58-.38.25-.329-1.286-1.42-3.216-2.398-.448-.228-1.142-.637-1.405-.84-.704-.541 1.405-.075 2.738.768 1.7 1.076 1.986.851 1.248-2.29-.803-3.417-.934-3.836 1.892-5.19 1.13-.541 1.773-1.001 2.582-1.844.648-.675.814-.84.575.152-.413 1.717-2.057 2.466-3.537 3.163-.736.351-1.04 1.057-1.045 1.663-.004.618.76 3.956 1.114 5.023.328 1.013.448 2.03.701 3.062.664 2.682.707 3.207.371 5.153-.196 1.142-.296 1.792-.228 2.482.062.626.156 1.479.156 1.479.003-.03-1.579-1.507-5.04-.24-2.497.912-4.469-.04-5.867-.715-.322 1.056-.25 2.203-.21 3.415 14.393 2.446 26.686 2.117 37.037 1.11.268-2.844 1.573-11.888 4.314-20.043 1.14-3.393 2.43-6.97 3.884-9.357.992-1.628 2.004-2.725 2.362-2.914.111-.063.121-.096.118-.14-.001-.091.003-.168-.002-.255-.037-.529-.174-1.347-.664-1.71-1.194-.886-3.1.255-3.726 2.23-.55 1.183-3.055 6.301-3.234 6.215-.147-.086-.495-.093-.369-.488.96-2.075 2.277-4.268 3.019-6.13 1.025-2.681 3.254-4.097 4.92-2.406.57.58.8 1.114 1.062 1.298.197.139.463.044.627-.185.628-.88-.828-2.877-2.39-3.278-2.255-.579-3.935.95-6.492 5.907-1.476 2.862-1.74 3.58-1.974 3.36-.052.02-.444.02-.302-.535.304-1.192 2.264-4.655 3.683-6.851 2.1-3.252 6-3.515 7.64-.693.25.385.263.888.541 1.23.504.606 1.332.485 1.537-.508-.223-.657-1.594-3.033-2.547-3.447-2.193-1.4-4.855-1.126-7.095.733-.508.422-1.038 1.28-2.524 4.083-2.188 4.495-2.246 4.513-2.844 3.788.88-2.187 3.195-5.74 4.13-7.921.177-.325.213-.674.2-1.01-.054-1.585.224-4.387-3.383-6.378-3.075-1.54-7.136.08-8.518 3.113-1.06 2.322-1.833 3.918-2.367 4.247-.75.463-.61-.182-.535-.416 1.066-2.101 2.565-4.225 2.802-6.34.155-5.725-6.086-7.84-10.144-4.952zm-32.22-107.262c4.87-2.105 8.205-3.164 13.167-4.525.67-.273.778-.336.066-1.646-3.144-5.788 5.483-10.402 8.415-4.72.391.757.482 1.176.867.814.72-.88 1.578-2.128 2.468-3.552 3.3-4.756 4.794-10.18 6.554-14.968.73-2.813 1.749-5.753 2.037-8.77-6.547-10.599-11.108-20.796-18.058-30.233l-45.833-.03-.172 85.201c12.815-9.943 21.54-13.54 30.49-17.57Zm51.592-3.13c.556-.546 1.037-1.452 3.03-5.256.356-.678.924-1.73 1.155-2.22.3-.895 1.42-1.455.874.148-.124.346-.338.812-.676 1.433-.663 1.108-1.293 2.466-1.765 3.352-2.548 4.75-2.427 7.518.42 9.58 2.127 1.89 6.595 2.104 8.972-.95a8.74 8.74 0 0 0 .776-1.356c1.033-2.332 1.796-3.498 1.991-3.729 1.058-1.248 1.227.299-.353 2.68-1.81 2.728-1.842 5.685-.277 7.766 2.32 3.083 6.726 3.171 9.492.697 1.437-1.567 2.58-3.56 3.5-6.108.204-.565.415-.985.564-1.316.23-.51.562-.7 1.42-.853 5.887-1.049 10.827-6.668 11.529-12.803.092-.83.346-2.298.438-3.17.185-1.738.189-10.744.005-11.28-.1-.29-.275-.444-.658-.44-.294.003-.71.1-1.309.298-1.94.644-2.844.807-4.708.187-.616-.205-1.042-.275-1.295-.254-.823.066.27 1.163 2.668 2.375 1.028.52 1.84 1.22 1.007 1.168-.242-.015-3.136-1.406-3.536-1.634-1.318-.751-.974.195-.295 2.686.912 3.344.387 4.283-2.453 5.593-.53.244-1.232.754-1.59 1.083-1.505 2.068-1.116.544-.358-.558 1.295-1.26.5-1.69-2.154-.817-3.029.997-4.398.27-5.245-1.296-.958-1.77.844-4.048 2.347-4.004.487.015.4.178-.318.633-.866.55-1.276 1.08-1.367 2.02-.183 1.914 1.29 2.727 3.348 1.443.972-.606 1.737-1.025 2.474-1.18.73-.155 1.825.097 1.821.64-.001.223-.034.772.017.894.193.606 1.236-.252 1.69-.557 1.55-1.077 1.5-1.29 1.076-3.038-.692-2.446-1.042-4.683-1.701-7.163-.353-1.3-.413-2.768-.198-4.092.108-.663.385-2.027.442-2.961.056-.934-.007-2.269.03-2.269 1.54 1.096 2.166 1.287 3.668.757 2.324-.886 3.793-.794 5.751.077.725.323 1.385.55 1.385.55l.09-2.808s-1.814-.348-5.164-.757c-10.087-1.232-30.784-1.492-31.555-.36-.196.288-.391 2.294-.94 5.084-1.221 5.796-2.59 11.572-4.42 17.228-.375 1.152-.734 1.616-.542 1.65.079.015.453-.432.627-.619.981-1.053.23 1.448-1.252 4.46-.134.272-.243.57-.244.662-.001.182-.932 2.28-1.574 3.55-.398.789-.729 1.026-.726.522.45-1.735 1.64-3.98 1.812-5.526-1.043 1.4-2.56 3.712-3.71 5.09-.211.372.013.487.198.946.69 1.715 2.363 1.868 3.33.316.538-.866 2.212-4.127 2.794-5.555.6-1.468 1.02-2.242 1.22-2.338.4-.193.478.642-.233 2.03-2.155 4.216-3.079 6.578-4.134 7.449-.82.676-2.236.633-3.023-.57-1.335-2.04-2.474-1.365-1.25.727 1.266 2.161 4.156 2.363 5.666.417.498-.643 2.844-4.806 3.581-6.499.412-.945.851-1.68.998-1.733.788-.282-.111 1.876-2.372 6.196-.733 1.668-1.91 3.419-3.503 3.96-3.871.789-4.395-1.115-5.741-3.284-.655-.54-1.248.323-.997 1.277.406 1.548 1.166 2.153 2.339 2.93 2.45 1.45 5.857.452 7.091-1.201zm17.27 9.04c-.351-.723-.3-1.457-.122-2.141.406-1.543 1.078-3.04 1.863-4.341 1.272-.56.3 1.665.142 1.995-1.534 2.973-1.679 4.123-.248 4.466 1.226.294 1.885-.404 3.044-3.069.595-1.367.833-1.973 1.043-2.052.447-.166.661.001.635.418-.766 1.75-1.366 3.59-2.625 5.043-1.232.96-3.088.964-3.732-.32zm-11.5-2.285c-.533-.097-1.448-.737-2.083-1.278-2.166-1.844-1.809-4.394.877-9.187.209-.372.99-1.822 1.241-2.298.45-.852.892-.518.889.046-.002.158-.673 1.482-1.35 2.71-2.967 5.392-2.865 7.59.018 8.873 2.813 1.252 4.073.532 6.317-3.584 1.297-3.09 1.937-3.14 1.866-1.966-.003.438-1.573 3.4-2.587 4.777-1.47 1.996-2.741 2.35-5.187 1.907zm.214-2.601c-1.105-.636-1.555-2.216-.902-3.51.593-1.067 2.114-5.157 2.83-5.387 1.149-.037.535.858-.889 3.373-1.684 3.332-1.624 4.223-.324 4.733 1.204.472 1.775-.496 3.55-4.392.278-.612.667-1.248.895-1.115.282-.02.773.178-.16 1.944-.222.422-.598 1.308-1.013 2.132-1.213 2.411-2.59 3.026-3.987 2.222zm19.937-7.072c-.486-.232-2.764-1.064-2.427-1.754.042-.065.174-.014.242.028 2.085 1.299 4.68 1.629 7.385-.174.455-.373.795-.12.541.347-.82 1.51-4.466 2.157-5.741 1.553zm-6.7-2.19c.063-.146.25-.577.417-1.158.25-.872.191-1.514.413-1.403.945.475 2.635.486 3.462.017.907-.515 2.746-.672 3.417-.266.958.579 1.445.31 2.117-.177.757-.549.771-.314 2.14.127 1.01.326 1.407.549 1.837.477.164-.028.498-.377.605-.359.329.055.366.922.668 1.911.268.876.116 1.087-.729.562-.627-.39-2.432-.574-4.309-.039-1.39.396-1.71.237-2.73.077-2.543-.4-4.378-.708-6.273.311-1.012.545-1.38.828-1.035-.08zm-6.325-4.324c-1.232-2.297 1.602-5.338 4.093-4.264.826.356 1.56 1.705.338 1.086-5.665-1.063-4.25 6.647 1.834 2.574 4.043-2.494 6.904-2.88 7.142-.466-.113.886-.96.745-1.603.826-1.675.217-2.295.47-4.237 1.243-2.954.865-5.842 1.572-7.567-1zm22.168 1.061c-1.382-.33-2.583-.837-4.024-1.08-1.428-.23-2.072-.923-1.814-1.855.268-.968 1.697-1.07 3.846.148 2.381 1.351 4.109 1.679 4.98 1.17 1.762-1.031.812-2.708-.87-3.137-1.263-.327-.334-.783 1.023-.407 2.19.771 2.237 4.449-.015 5.212-.754.256-2.081.186-3.126-.05zm-19.297-12.172c1.609-.924 3.163-1.75 3.716-2.3.29-.29 1.097-1.261.47-.965-3.28 1.83-7.088.31-9.847-.943-1.325-.576-1-.32-2.017-.257-.69.042-1.244.177-1.367-.281-.055-.203-.44-.118-.688-.14-1.02-.094-.375-1.348 1.767-2.73 2.525-1.63 4.729-2.694 6.916-3.133 2.272-.456 4.589-.198 6.288 1.322.653.584.596.973 1.192.615 1.362-.819 1.373.267.225 1.273-.789.69-.5.877.464 1.534.46.314.083.613-.174 1.07-.097.278-.02.585-.067.796-.215.982-5.025 4.45-6.766 5.043-1.198.207-.57-.631-.112-.904zm3.34-6.374-.799.01c-.908 2.578-2.586 3.457-3.983.366l-.636.06c-.028 2.618 4.82 4.262 5.418-.436zm-5.251 2.418c-.33-.513-.7-1.692-1.045-1.709-.937-.037-2.233.12-1.926.66.484.854 3.353 1.644 2.971 1.049zm6.426-.46c.864-.483 1.048-.817.485-1.348-.729-.686-1.109-.336-1.337.76-.197.942-.055 1.095.852.588zm-11.719-1.813c5.79-2.434 7.986-2.748 10.338-2.146.545.14 1.028.423 1.332.406 1.127-.063.408-1.235-1.614-1.906-2.309-.767-3.773-.419-8.212 1.73-2.599 1.26-4.71 3.121-1.844 1.916zm16.78-2.954c-.082-.145-.432-1.114-.532-1.467-.1-.354-.19-.718-.297-.72-2.687.399-5.049-.068-5.683-.209-4.063-.9-7.99-.717-10.92.349-.715.26-1.603.682-1.688.756-.232.201-.574-.028-.572-.279.002-.295 1.8-1.617 2.934-2.139 3.448-1.587 7.087-1.858 11.083-.86 2.603.928 4.28.778 5.945.101.817-.332.237.49-.021 1.58-.18.755.017 1.401.05 1.828.103 1.031-.023 1.548-.298 1.06zm60.526 217.668v-85.372c-15.233 10.438-44.043 21.326-44.043 21.326 3.627 6.868-4.365 12.744-8.95 5.77-4.717 4.92-11.215 22.153-11.446 27.876 0 0 12.549 20.353 18.672 30.4zm-83.902-28.111c.419-4.286 1.405-11.553 4.478-20.01 1.289-3.547 2.844-7.618 5.04-11.262.877-1.273.938-1.766.003-1.308-.588.289-3.273 3.1-3.638 3.811-4.119 8.072-6.025 17.77-7.532 25.175-.342 1.664-.442 3.734-.442 3.734zm3.013-.352c.98-10.413 5.105-24.47 11.301-33.634.583-.873 1.3-1.63 1.273-1.933-.08-.89-2.466.65-4.318 3.278-2.066 3.806-4.137 7.867-5.72 12.362-2.237 6.347-3.87 12.21-4.506 20.166zm5.955-.87c.621-6 2.626-11.505 4.307-17.019 2.056-6.743 4.8-11.706 7.996-16.175 1.026-1.433 2.236-2.775 3.386-4.142.147-.164.294-.46.26-.583-.738-.12-1.326.093-1.897.39-.797.415-1.919 1.461-2.574 2.238-4.554 5.394-7.004 11.692-9.278 18.055-2.183 6.111-3.756 11.988-4.064 17.522zm-40.9-4.599c.915-.066 1.505.094 1.771-.132.264-.225.178-.829.26-1.601.178-1.651-.006-1.56-1.117-.494-1.839 1.766-5.195 2.447-7.19 1.38-1.008-.54-1.708-.912-1.803-.464-.11.522.042.922.473 1.201 2.418 1.024 4.714.32 7.605.11zm-2.162-1.265c1.273-.392 2.568-1.024 3.296-1.988.695-.92.683-1.052.157-.877-2.588 1.182-4.29 1.783-6.603 1.457-3.133-.443-3.263-.072-1.192 1.133 1.355.788 2.48.81 4.342.275zm-4.6-3.69c.486-.332.61-1.685.219-1.762-.396-.078-.973.594-1.114 1.14-.158.727.421.912.895.623zm4.85-.058.833-.07c-.426-3.394-4.394-3.54-5.126.34l.629.087c.819-3.094 3.218-3.009 3.664-.357zm2.617-.547c1.214-.628.794-1.407-.843-1.705-1.075-.234-1.016.582-.459 1.689.277.55.47.447 1.302.016zm-9.345-4.16c-.011-.378-.178-.988-.371-1.355-1.399-2.662-2.171-5.806-2.013-9.713.114-2.8.152-3.667-.475-3.67-.876.39-1.393 5.602-.278 9.941.786 3.062 3.195 6.862 3.137 4.797zm-.034-4.241c-.086-1.463.26-4.743.088-5.458-.227-.94-.827-1.79-1.165-2.016-.526-.352-.657.322-.475 2.08.426 4.124 1.14 7.247 1.552 5.394zm.442-7.508c.346-.579.21-1.192-.55-2.572-3-5.433-3.39-9.146-.256-10.495.35-.151.572-.18.805-.3.989-.509.612-1.432-.865-1.05-4.082 1.052-4.887 4.6-1.446 11.164 1.752 3.276 2.024 3.734 2.312 3.253zm.743-3.081c.054-.228.16-1.116.2-1.297.04-.183-.37-.706-.812-1.753-1.154-2.736-1.178-3.871.077-4.664.407-.222.827-.233.89-.488.098-.397.091-1.05-.165-1.238-1.8.012-2.632.986-2.948 1.914-.475 1.466.02 3.615 1.434 6.277.685.83 1.043 2.348 1.324 1.249zm1.376-3.54c.963-1.804.05-4.142-1.275-3.345-.86.517-.903 1.065-.376 2.567.642 1.83 1.023 1.956 1.651.778zm3.377-4.827c.385-.354.043-.863-.67-2.856-.61-1.707-.33-2.874.832-3.21 1.667-.382 2.257 2.148 2.607 3.215.181.824.765 1.051 1.282.478.145-.16.187-.293-.06-1.192-1.076-3.923-2.483-5.171-4.748-4.194-2.1.906-1.825 2.932-.303 7.193.204.57.34.993.487 1.053.12.048.36-.29.573-.487zm1.86-1.332c.498-.458.469-.25-.101-1.888-.65-1.866-.991-2.255-1.69-1.614-.428.394-.212.828.278 2.355.568 1.774.72 1.875 1.513 1.147zm87.073-6.39c3.315-2.121 1.948-5.93-2.415-7.342a18.747 18.747 0 0 1-1.26-.447c-2.004-.895-3.564-1.172-3.568-.472-.003.41.599.618 2.52 1.487 2.843 1.286 3.486 2.77 2.082 4.643-1.01 1.35.884 2.895 2.641 2.131zm3.008-4.634c.288-1.09.716-2.023.92-2.658.282-.993-.08-.762-.79-.607-1.827.88-3.134.402-2.246 1.611.985 1.61 1.8 2.851 2.116 1.654zm-.227-3.807c2.277-1.265 2.782-4.561.663-6.132-.507-.376-1.383-.872-2.445-1.172-2.156-.61-5.269-.887-6.41-.567-.244.269-.255.69-.009.813.318.11.892.182 1.72.26 3.17.298 4.733 1.174 4.58 3.26-.156 2.15-2.008 2.977-5.353 2.297-1.799-.365-2.637-.189-1.915.202.858.463 2.704 1.073 4.522 1.405 1.555.253 3.328.35 4.647-.366zm-10.928-.542c2.563-5.337 3.912-19.335-10.732-29.453l.484 2.8c8.629 7.014 10.701 15.947 8.914 24.141zm13.074-9.568c-.916.552-1.683 1.124-2.86 1.612-.705.292-.723.364.235.849.463.234 1.226.665 1.518.957.506.507 1.104.702 1.328.517-.024-.794.269-3.42-.22-3.935zm-4.334 1.012c2.966-.87 4.554-2.193 4.216-4.408-.496-3.25-3.426-3.937-8.913-2.667-2.639.611-2.875 1.76-.37 1.168 3.164-.748 5.647.383 5.31 2.53-.195 1.854-1.802 2.933-4.622 2.933-1.49 0-1.95.124-1.748.622.137.338 4.905.18 6.127-.178zm-4.897-7.72c4.849-1.54 7.103-3.937 5.996-6.622-1.304-3.16-5.537-3.193-9.789-.25-1.986 1.349-1.682 1.848.243 1.161 2.495-1.063 4.1-1.227 5.122-.382 1.845 1.527.6 4.19-2.198 5.144-1.355.523-1.79.811-1.793 1.188-.004.597.243.453 2.419-.238zm8.18-.049c.124-.935-1.015-4.18-1.508-3.433-.13.198-.583 1.114-1.155 1.59-1.668 1.386-1.353.861.304 1.285.92.236 2.221.837 2.358.558zm-12.825-6.933c4.902-2.635 6.773-6.397 4.232-8.896-2.283-2.248-6.069-.94-9.585 3.147-1.612 1.873-.401 1.637 1.772-.144 2.532-2.076 5.752-1.074 5.735 1.517-.008 1.106-1.696 2.967-3.292 3.832-.496.269-.568.68-.393.948.19.29.587.103 1.53-.404zm8.593-2.75c-.256-.707-2.1-3.747-2.497-3.643-.418.78-.449 1.805-.95 2.631-.684 1.243-.597 1.048 1.58 1.042 1.62-.005 1.817.205 1.867-.03zm-14.408-3.436c4.118-3.964 4.482-8.606.623-9.674-2.137-.592-5.555.841-5.565 2.321-.006.922.18 1.089 1.046.758 3.64-1.256 6.524 1.99 3.18 5.72-.813 1.08-.922 1.352-.685 1.575.278.261.503.163 1.4-.7zm44.36-33.898V760.136h-24.103L157.6 787.874l-.029 6.865c0 .237.435.385.717.086 1.087-.78.668.04-.583 1.806-1.265 1.786-.878 3.258.505 5.165 2.932 4.041 4.46 11.461 3.213 15.384-.471 1.48-.576 2.079-.269 2.907.352.948.568 1.454 1.585 2.064.885.572 8.166 3.206 19.896 10.2l-.058-49.361 7.39-6.57 7.807 6.928.274 81.494c.003.862 1.818 1.254 2.799.361zm-4.228-81.622-6.537-5.647-6.462 5.563c-.034 26.545.164 81.025.164 81.025l6.422.429s.472-1.243-.13-4.456c-.902-4.821-.846-10.71.604-19.665.903-5.495.006-10.26-1.364-15.276-1.19-3.343-1.232-6.436-1.016-9.427.457-4.768 1.872-8.369 2.045-15.23.1-3.91-.102-7.74.052-12.563.063-.647.358-.567.41.1.196 4.366.38 8.514.422 12.777-.141 5.545-1.603 11.25-1.763 16.325-.121 3.516-.182 4.733 1.418 9.013 2.516 6.728.86 17.063.83 17.246-1.065 6.621-1.842 15.092 1.757 21.429l3.488.289zm-44.972 50.076c1.929-.822 2.31-2.274 1.272-5.77a65.08 65.08 0 0 1-.47-1.647c-.222-.863-.64-.957-1.198-.271-.334.41-.026.505.486 2.427.774 2.905.324 3.866-.84 3.859-1.032-.006-1.836-.795-2.13-2.68-.102-.644-.249-1.083-.416-1.34-.28-.432-.619-.354-.891.123-.353.617.31 3.159 1.19 4.391.955 1.243 1.612 1.498 2.997.908zm-.526-2.609c.411-.715-.098-2.476-.363-3.63-.245-.643-.524-.8-.983-.695-.683.155-.65.849-.403 1.99.504 2.326.777 2.62 1.75 2.335zm5.863-4.196c2.207-1.166 2.418-3.179.935-6.84-.608-1.5-1.365-2.556-1.782-2.568-.164.955-.315 1.464-.132 1.838.172.348.462.88.669 1.326 1.255 2.7.917 4.256-.295 5.1-1.132.787-.416 1.45.605 1.144zm-72.22-1.407c5.175-1.027 9.843-8.742 12.783-15.622 2.678-6.931 5.525-14.547 5.976-20.898 0 0-1.957.084-2.198.459-.221.37-.318 1.166-.526 2.3-1.35 5.844-2.422 10.28-4.776 15.772-1.634 3.812-3.417 8.127-7.843 13.923-1.454 1.62-3.117 2.624-5.207 2.894-.532.069-1.427-.023-1.653.124-.396.26-.039.849.984 1.086.916.213 1.847.074 2.46-.038zm71.312-.902c.79-.779.867-1.704-.019-3.66-.248-.548-.362-.86-.656-.783-.625.162-1.353 1.684-.922 2.971.562 1.679.89 2.17 1.597 1.472zm-73.118-1.225c1.516-.188 3.436-1.306 4.824-3.058 2.852-3.46 4.82-7.397 6.279-10.457 1.168-2.466 3.278-7.789 3.851-9.716 1.218-4.095 1.884-6.738 2.439-9.669.05-.27.099-.7.013-.839-.6-.152-1.917-.061-2.321.314-.727 4.702-2.416 9.418-3.65 13.338-2.083 6.669-8.019 17.337-11.255 17.84-1.74.27-3.734-1.133-3.414-2.572.197-.884.328-1.221.795-1.442 1.128-.368 1.785.344.547.808-1.434 1.156 1.147 2.924 2.732 1.69 2.687-2.094-1.26-6.104-4.492-4.261-3.58 2.041-2.66 5.577-.409 7.258 1.135.847 2.45.966 4.06.766zm25.349-4.788c2.211-2.105 3.872-4.83 5.08-8.237 2.62-7.651 4.79-16.422 5.577-23.293 0 0-1.89-.181-2.31.19-.296.26-.013.51-.816 5.53-1.35 7.32-3.316 14.59-6.162 20.884-1.166 2.544-1.497 2.856-2.32 4.178-1.15 1.866-.724 2.342.95.748zm49.068-15.95c-.205-.099-.188-.034-.275.021-.301.194-.104 1.172.58 2.68 1.803 2.699 2.014 7.936 1.896 9.905-.036.591-.102.93.092 1.456.191.515.527 1.114 1.067.11.593-3.878.127-7.938-1.476-11.225-.565-1.17-1.118-2.312-1.884-2.947zm1.388 11.435c.316-1.043-.268-5.181-.992-6.635-.291-.586-.819-.632-.756.034.006 1.434-.16 4.16.006 4.968.787 1.686 1.4 2.759 1.742 1.633zm-4.082-16.716-.851.001c.029 2.706-2.559 3.458-3.513.208l-.766.165c1.018 4.586 5.62 2.483 5.13-.374zm-5.174 2.04c-.442-1.2-.259-1.64-1.38-1.1-.858.413-1.371.852-.165 1.39 1.074.422 1.825.47 1.545-.29zm6.482-.691c.355-.666.313-1.267-.222-1.27-.413-.003-.528.302-.645.949-.21 1.154.31 1.367.867.32zm.45-4.497c.328-.096.235-.525.147-1.07-1.402-1.808-4.872-1.254-6.118-.895-1.44.433-1.8.272-2.78-.144-.809-.14-.923.043-1.12.401-.173.316-.204.916-.26 1.961-.047.883-.013 1.294.318 1.018 1.284-1.07 2.771-2.406 4.94-2.49 2.63-.1 4.875 1.26 4.873 1.22zm-9.551 2.448c-.003.364.333.137 1.188-.361 3.114-1.715 4.918-1.473 7.583-.655.594.182.961-.394.318-.884-3.166-2.413-7.066-.875-9.09 1.9Zm11.282-11.114 16.891-25.909-94.103-.064 15.978 27.508c13.03-2.797 34.478-6.369 61.234-1.535Z"/><path fill="#e2cf00" d="M74.714 988.16c1.993-2.758 11.864 2.156 12.386 4.103 5.842-4.266 12.935-4.576 18.643.763 5.87-5.951 12.153-5.544 18.69-2.097-.73-1.345 8.357-7.284 13.88-3.51l14.938 24.68-95.696.286c5.653-7.872 10.66-17.273 17.159-24.225zm-41.8-128.722c-.52-1.336-2.62-15.046 2.707-15.388 8.61 3.541 19.602 16.209 24.695 23.95 6.312 9.592 12.689 31.65 9.167 30.687-.508-.14 10.869 10.428 11.653 11.46 1.29 1.697-19.18 33.321-22.56 32.187-1.023-.343-7.839-4.118-7.839-4.118l.195-10.552s10.712-19.62 11.306-26.175c.224-2.477-7.37-6.717-7.718-7.573-.866-2.133-.763-10.057-5.188-13.516-2.44-1.377-4.743-.938-7.218-.645-10.044-1.556-4.84-17.259-9.2-20.317zm167.973 7.043.06 3.892c-6.612 1.337-18.3-3.859-21.838 4.512.439 9.042 2.622 13.096 4.147 15.826 1.146 2.453 9.187-.345 12.02 2.128 8.125 9.28 6.207 21.636 6.279 32.77l-3.526 1.651c-24.362-13.33-43.069-54.742-45.66-66.532-.166-7.569 22.35-31.893 22.35-31.893.05-.053 8.203 4.605 8.203 4.605.197.073-.173 31.923-.172 31.776 6.438.307 12.68.89 18.137 1.265zm-49.494-29.111c-12.499 16.629-16.727 41.482-15.923 58.817 1.62 25.883 21.498 48.958 20.169 51.138-.226-.151-.75.106-.95-.059-4.579-3.778-7.777-3.116-10.118-3.15-4.476-.066-5.713 1.172-8.28 1.408-6.557.604-6.025.758-11.586-1.186-7.019-5.31-16.42-9.382-23.9-11.523-5.997.5-15.141 3.13-18.6 1 24.056-41.192 20.453-67.562-4.45-110.738 2.064.565 2.385 2.354 3.931 2.795 5.12 1.835 12.173 1.139 16.4-.573 4.59-1.918 8.923.89 8.864.798 9.038 5.92 19.974 9.74 25.666 12.38 1.683.806 3.809-.466 5.666-.815 3.806-.715 7.067-2.226 9.906-1.341.911.284 2.27.631 3.205 1.049zm-56.159-53.906c-1.224-2.115-13.75-24.226-13.75-24.226l93.172.521-13.978 21.332c-1.32 1.158-7.886 4.385-14.583-2.923-.126 1.05-9.94 7.545-18.374-.276-5.077 4.28-10.254 6.76-18.795 1.942-.19 1.343-6.85 7.37-13.692 3.63z"/><path fill="#d40000" d="M105.428 992.532c-9.027-7.854-18.425-.764-18.21-.316-3.572-3.37-7.066-6.13-11.776-4.775 0 0 0-1.183.035-1.21 14.042 2.387 35.549 3.006 60.689-1.88l1.29 2.506c-6.742-2.225-10.216.777-13.205 4.282-10.82-6.27-13.46-.77-18.823 1.393zm21.055-91.344 6.387-.116c1.203 17.26 16.72 43.67 17.094 43.67-1.081-1.394-11.326-.295-11.25-.119-5.633-13.964-11.818-27.916-12.23-43.435zm-37.248 40.945s-2.054-4.948-3.284-7.065c6.705-10.64 12.205-21.652 15.026-33.899l4.567.038c-1.353 16.907-15.915 42.583-16.309 40.926zm82.16-2.264c10.059-16.866 8.323-41.176-20.215-54.611 0 0 .744-17.82 2.866-17.86.48.138 12.917-.149 12.917-.149 3.259-7.431 8.503-16.418 15.83-22.487l.183 19.919c-5.423.497-8.73 2.104-10.372 6.046l-7.514 1.554c.552 20.01 8.655 38.497 32.685 55.102-5.743 4.586-25.37 13.896-25.295 13.732zM50.987 927.297l.214-20.741c3.644-.732 6.516.25 9.525-5.82 0 0 5.049 2.228 6.726 3.049-4.719 7.847-8.793 16.233-16.465 23.512zm47.842-36.722.247-10.53 10.759.288c-.913 3.57-1.199 7.141.021 10.712zm24.545-.128c.734-3.445 1.26-6.91-.265-10.566l11.65.184-.275 10.487zm-22.155-20.59c-1.938-20.654-17.167-44.03-17.38-43.533 1.794.267 4.953 1.093 6.693.328 2.105.325 3.929.103 4.029-.078.14-.722 14.156 29.987 12.285 43.235-.223.448-5.17.478-5.627.047zm26.926.18c1.644-9.54 5.888-26.993 15.91-41.147 1.14 2.513 2.095 5.097 3.658 7.446-7.556 10.217-12.213 21.895-15.038 33.815zm-69.66-5.143c-4.585-8.693-23.661-22.38-22.685-20.996 7.896-6.579 16.704-10.757 25.495-14.977 0 0 1.562 1.378 1.325 1.725-5.404 7.916-8.024 24.689-2.792 34.301 5.029 10.268 13.95 16.337 23.044 21.103-.704 6.42-1.047 11.06-2.746 17.442 0 0-5.715-2.793-10.399-4.591-.745-12.123-3.444-22.966-11.241-34.007Zm50.525-85.188c6.723 3.81 12.745 3.408 18.583-1.762 7.329 6.18 15.254 3.302 18.604.516 3.099 3.245 7.137 5.045 13.042 3.973l-1.463 2.853c.35-1.516-40.725-3.99-60.598 1.18 0 0-1.162-2.152-1.033-2.17 1.73-.098 7.487 1.884 12.865-4.59z"/><path d="m80.116 758.553 16.603 28.746s.486-.083.73-.127c23.012-4.18 41.238-4.752 60.814-1.552l17.402-26.763c-31.671-.335-95.549-.304-95.549-.304zm1.85 1.224 92.327.095-5.193 7.917c-3.11-.892-4.844.434-5.28 3.204 0 0-.384-.154-1.105-.227-4.55-.457-5.124 5.117-.877 5.79 1.085.171 1.268-.029 1.268-.029-3.789 2.96-5.94.963-7.724-.014-.048.346-3.395 2.683-6.552-.113 4.52.42 5.224-3.791 3.063-5.393-.452-.413-.912-.736-.912-.736 1.063-.861 1.295-2.006.613-3.317-1.37-2.636-5.667-2.482-6.324.396-.255 1.12-.263 1.317-.263 1.317-3.47.21-4.174 3.255-2.982 4.944.678.96 2.168 1.17 3.545 1.105-1.855 2.443-6.101 1.611-7.993-.402-3.005 3.283-6.43 2.884-8.139 1.123 1.161-.011 1.962-.027 3.028-.943 1.823-1.567.927-4.347-1.648-5.124-.5-.151-.86-.182-.888-.184.018-.024.067-.178.178-1.015.64-4.847-7.17-4.368-6.415.401.087.553.248.85.248.85s-.829-.043-1.303.16c-4.338 1.86-1.35 6.979 2.003 5.662.318-.125 1.183-.52 1.308-.514-4.152 4.786-7.637 1.393-8.555.873-2.804 3.866-7.674 1.228-7.774.957.303.079 1.216-.096 2.084-.51 2.744-1.329 1.968-4.751-.172-5.496-.656-.213-1.448-.235-2.338-.17 0 0 .068-.862-.02-1.165-1.35-4.66-7.583-2.334-6.05 1.604.134.345.497.693.497.693s-.845.478-1.222.793c-2.977 2.49.052 6.596 3.53 4.888.448-.22.883-.683 1.008-.655-1.635 2.778-4.117 3.749-7.657 1.448-2.183 3.218-5.746 1.881-6.75.269 3.328.283 5.49-5.648-.908-5.841-.497-1.611-.472-4.065-4.528-3.643zm45.089 10.178c.733 0 1.323.554 1.323 1.236 0 .682-.59 1.236-1.323 1.236s-1.329-.554-1.329-1.236c0-.682.596-1.236 1.329-1.236zm20.63.146c.776 0 1.404.59 1.404 1.312 0 .722-.628 1.307-1.405 1.307-.776 0-1.404-.585-1.404-1.307 0-.723.628-1.312 1.404-1.312zm-40.438 1.43c.748 0 1.354.563 1.354 1.26 0 .696-.606 1.264-1.354 1.264-.749 0-1.36-.568-1.36-1.265 0-.696.611-1.26 1.36-1.26zm57.928 1.552-1.177 1.944c-1.297-1.058-.403-2.446 1.177-1.944zm-74.08 2.68-1.17-2.01c2.094.131 1.477 1.526 1.17 2.01zm35.787-1.095c7.924 8.4 15.03 5.915 19.677.33 1.992 4.76 6.434 8.052 14.077 4.851-.462.761-1.623 2.104-1.623 2.104-6.754 1.693-10.107-1.264-12.713-4.08-6.872 5.307-13.343 4.02-18.682-.661-4.558 5.338-11.938 6.485-18.769 2.127-3.123 4.289-7.603 6.02-13.236 3.874 0 0-1.195-1.748-1.298-1.859.816.637 11.19 4.644 13.723-4.992 3.611 5.702 15.451 6.005 18.844-1.694Zm.797 3.454c8.912 7.754 18.266 1.05 18.504.576.14.43 5.227 6.082 12.562 3.958l-1.192 1.902c-13.801-2.172-26.496-3.568-55.57.41 0 0 4.64-1.278 6.988-4.723 1.307.79 11.393 6.028 18.708-2.123zM96.44 784.55s3.88.423 4.184.495c.34.246-3.267 1.167-3.281 1.1zm7.865 36.996c-.234.007-.527.253-1.014.698-1.052.964-1.291 1.09-2.312 1.227-.77.103-2.396.974-3.383 1.812-.266.227-.776.416-1.384.514l-1.618.26c-.36.057-.753.163-.872.231-.518.294-1.362.339-2.308.127-.912-.203-1.058-.198-2.064.09-1.464.42-2.423.42-3.144 0-.72-.42-1.865-.577-2.591-.359-1.074.323-3.855-1.226-3.85-2.142.003-.207-1.58-1.31-1.977-1.311-1.41-.195-13.796 4.355-13.733 4.619 15.21 17.478 28.013 44.106 18.368 76.692l-1.704-.76c1.432-5.923 1.999-11.884 2.44-17.939-28.548-11.467-31.006-38.134-19.925-54.969l-1.882-1.863c-6.714 3.333-13.537 5.226-30.133 18.18l.046 20.968c.04 18.955.03 37.426.03 37.426 6.006.618 12.62 1.124 19.144 1.646 0 0-.084 18.747-.233 26.079-.126 6.201.122 5.813.122 5.813L71.93 949.18c-1.518-5.582 2.229-7.799 5.365-7.567-1.386-5.382 2.055-7.845 5.984-7.154 2.654.466 3.583 1.828 5.102 6.327.247.731.586 1.71.586 1.71l1.514-.053c1.895-3.786 3.161-8.605 7.62-9.23 5.837-.817 8.01 2.914 8.007 6.644 5.655-4.636 12.429-1.048 11.989 5.878 2.845-1.702 7.666-3.24 10.703 3.322 1.142-.224 1.724-1.408 3.33-1.779.6-.116 1.963-.797 1.963-.797l.016-.227s1.263-.407 2.955-.665c1.453.505 1.029.487 1.812-.41.871-.416 2.285-.69 3.376-.6 1.144.096 1.652.173 2.323-.099 1.043-.424 2.019-.532 2.637.109.444.46 1.086.238 1.775.212 1.378-.051 3.215.476 3.788 1.628.845.801 2.693 1.614 2.693 1.614l1.496-.321.172-.514 12.237-4.346c-24.952-25.42-24.302-59.144-18.424-76.215l2.257 1.01c-1.197 5.059-2.555 10.255-2.378 17.797 22.47 9.321 33.648 33.415 20.026 54.445l1.44 1.732c5.667-2.214 19.922-9.66 24.849-13.707l1.05.08s2.987-1.8 4.305-2.76l.177-55.809-1.044.255-.188-3.26-18.525-1.369c.236-.164.413-.23.467-.556l-.107-30.896c-.688-.98-16.204-9.435-21.973-11.414-.231-.001-.073.362.01 1.246.283 3.03-1.916 5.728-4.463 5.733-.917.001-1.075.364-1.03 2.104.065 2.474-.896 4.137-3.696 5.077-3.32 1.114-5.567-.502-7.414-6.856-.486-1.669-1.434-1.251-2.343 1.029-.451 1.132-1.912 3.879-2.784 5.327-.672 1.113-1.735 1.607-3.18 2.199-1.126.518-3.565.428-4.97-.236-2.547-1.205-3.536-2.65-4.27-6.233-.096-.468-.426-.428-1.252.15-4.498 3.154-10.824-.106-10.787-5.558.011-1.6-.06-1.664-1.07-.896-3.05 2.317-7.195 1.142-8.854-2.51-.388-.855-.596-1.236-.898-1.227zm-25.853 1.935c.318-.013 1.309 1.212 1.309 1.212.913.94 2.14 1.416 3.418 2.114.119-.166 14.892 18.281 17.404 43.715l6.872.033c-1.282-24.714-8.608-36.592-11.968-44.215l2.464-.727c5.527 9.852 12.263 29.848 12.04 47.354H98.64c-1.602-17.534-8.93-34.63-19.18-47.6-.713-.995-1.272-1.69-1.064-1.868a.09.09 0 0 1 .055-.018zm-4.346 2.609 1.152 3.36s.138-.785.492-1.081c2.242-1.88 4.388.595 3.377 3.954-.23 1.034-.68 3.071-.68 3.071s-2.253-1.075-3.387-1.42c-3.127-1.236-4.17-3.672-1.78-3.95.4-.045 1.222-.08 1.222-.08-.993-.725-3.185-2.387-3.185-2.387zm10.498.377c.944.499 3.382 1.037 4.782.548 1.131-.396 1.993-.179 3.17-.085.674.053 2.018-.222 2.018-.222 6.719 13.151 11.34 28.756 12.11 43.026l-5.284.029c-1.995-15.16-8.302-30.56-16.304-41.984-.354-.498-.825-1.293-.492-1.312zm22.075.227c2.046.023 4.186 1.92 5.35 5.025.648 1.729.9 1.624 1.77 1.345 2.232-.712 4.608 1.568 1.617 1.948-2.936.452-1.26 5.796-1.51 6.266-1.19.194-3.426-4.348-3.368-5.7.143-3.312-3.201-6.081-5.28-4.69-.984.66-.877 1.125-1.18.887-.936-.73-1.125-2.745-.031-3.887.79-.826 1.702-1.205 2.632-1.194zm60.783 1.142s.116 4.356-.06 5.317c-.35 2.904-4.426 3.21-4.585.887-.666.928-1.124 2.082-1.39 3.12l-2.89-1.85c1.097-.734 2.144-1.377 2.956-2.284-2.143.15-3.34-1.575-1.907-3.044 1.593-1.682 5.997-1.863 7.876-2.146zM61.18 829.212l1.278 1.34c-11.39 18.785-7.374 42.797 20.117 55.413-.182 5.763-.975 11.592-2.454 17l-10.142-4.577c.068-21.238-12.857-41.485-33.49-54.794 7.486-5.597 15.77-10.514 24.691-14.382zm83.046.16c.483 2.48 3.007 6.972 3.19 6.715-.027-.147-10.503 12.485-15.057 33.613l-3.89.015c2.55-14.079 7.639-27.363 15.757-40.342zm32.288.59 2.07 1.166c-10.857 8.457-18.006 19.179-23.257 30.74l-2.744-1.208c8.142-16.772 16.186-24.22 23.931-30.697zm2.896 1.874c.568.033 1.242.703 2.287 1.236 1.022.521.767.799-1.156 2.17-2.275 1.623-2.49 1.551-2.47-.764.013-1.536.43-2.56 1.227-2.638a.705.705 0 0 1 .112-.004zm-2.5 2.387c.12-.006.216.031.279.123.166.612.149 2.016-.117 3.402-.215.912-3.133 3.203-4.174 4.11-.417.254-.608.161-.684-.293.033-.72.107-1.677.121-2.652.004-.3-.063-.614.229-.844 1.43-1.57 3.51-3.804 4.346-3.846zm5.42.746c.018 0 .03.003.041.01.27.15.225 3.297.036 3.505-.847.203-3.123-.13-3.707-.42-.128-.366 3.085-3.116 3.63-3.095zm-101.692 1.019.791 3.086s.227-.414.284-.496c1.572-2.237 3.485-.925 3.454 2.18-.01.981-.969 4.903-.969 4.903s-5.9-2.637-6.364-3.794c-.457-1.138.192-2.14 1.278-2.232.406-.043.832-.074 1.298 0l-2.536-2.41Zm67.559.41 2.677.92c-5.584 8.452-11.346 16.799-15.543 35.836h-11.223c1.57-11.634 4.75-23.071 10.427-34.203 0 0 2.204-.63 3.448-1.005 0 0-9.275 19.747-10.355 32.443l5.42.109c2.893-12.372 8.308-25.195 15.149-34.1zm-21.249.307c1.508-.052 2.62.934 2.536 2.685-.02 1.6-.177 1.833-1.395 1.194-1.598-.84-2.863-.858-4.295.094-.788.524-1.562.958-1.562.958s.691-2.78 1.75-3.657c1.014-.84 2.062-1.243 2.966-1.274zm-5.756 4.114c-.108.941-.407 1.373-.674 2.176 0 0 .878-.318 1.298-.5 1.994-.866 4.073.737 4.042 2.613.09 1.253-1.373 2.752-3.114 2.765-.607.005-1.25-.173-1.871-.604.45 2.294.54 3.355-1.263 4.506-1.508.934-4.687-.133-4.508-2.698l.112-1.581-1.527.184c-4.263.162-4.338-4.72-.897-5.487 1.373-.303 2.865.745 2.865.745-.654-1.197-.667-3.257.213-4.209 2.165-2.342 5.59-.213 5.324 2.09zm37.228-3.048c.233 1.828 1.013 3.82.791 5.526-.332 2.18-2.324 3.47-3.89 2.057-.193-.175-.542-.538-.542-.538-.706.832-1.146 3.185-1.146 3.185l-2.764-1.586s1.92-1.253 2.45-1.967c.147-.199.218-.576.218-.576-1.539.448-2.844-1.016-2.425-2.307.833-2.115 4.97-2.899 7.308-3.794zm19.316 1.322c1.035-.03 2.636.242 3.9.368.973.157.433.668-1.745 2.642-2 1.813-1.937 1.642-3.478 1.618-3.6-.056-4.231.02-2.135-2.085 1.098-1.103 2.057-2.099 2.845-2.468.167-.045.375-.069.613-.075zm-6.49.382a.182.182 0 0 1 .116.047c.238.207.158 1.151.132 2.548-.028 1.486-.01 1.487-.68 2.265-.852.993-1.56 2.007-2.45 2.963-.77.777-.745.694-1.206-1.175-.447-1.813-.198-2.378 2.312-5.006.85-1.014 1.455-1.656 1.775-1.642zm11.242 1.033.03 3.676c-7.428 6.758-12.476 14.36-15.908 22.737l-2.586-.957c4.48-10.704 11.188-19.052 18.464-25.456zm-64.394 2.222c-1.228 0-2.221.925-2.221 2.067 0 1.142.993 2.071 2.221 2.071 1.228 0 2.226-.929 2.226-2.071 0-1.142-.998-2.067-2.226-2.067zm-.015.652c.847 0 1.536.64 1.536 1.43 0 .788-.689 1.429-1.536 1.429-.848 0-1.532-.641-1.532-1.43 0-.788.684-1.43 1.532-1.43zm-82.529.872c23.172 13.832 33.562 35.275 33.516 53.695l-1.309-.547c-1.356-26.029-16.562-42.032-32.998-52.388Zm137.186.199c.525.001 1.238.077 2.272.188 1.918.096 2.153.208.832 1.619a39.461 39.461 0 0 0-1.547 1.802c-.49.608-1.086 1.243-1.36 1.33-.402.13-3.77-.018-4.73-.14-.315-.041.098-.34 1.739-2.52 1.257-1.672 1.39-2.225 2.581-2.275.068-.002.138-.005.213-.004zm9.65.707s.46 11.864.127 19.43c-5.286-.181-8.39 1.685-9.68 5.219l-5.554-2.557c4.075-9.737 9.524-16.512 15.107-22.092zm-16.36.274c.301.004.473.582.559 1.722.35 2.04.31 2.277-.604 3.586a76.045 76.045 0 0 0-1.384 2.048c-.53.83-.908 1.077-1.04.675-.723-2.2-.952-3.563-.695-4.006.423-.73 2.395-3.337 2.673-3.676.193-.235.355-.35.492-.349zm-132.18.222c18.627 10.73 32.253 29.055 32.816 51.194 0 0-3.97-1.734-6.42-3.001l-.127-2.152 1.293-.037.416 2.425 2.845-.085-.756-6.054-4.452.392-.898-3.43 1.35-.27.745 2.214 2.895-.713-1.541-5.393-4.473 1.137-1.43-3.642 1.486-.496 1.202 2.18 2.723-.882-2.571-5.407-4.113 1.807-2.09-3.53 1.608-.797 1.293 2.1 2.546-1.227-3.15-4.973-3.904 2.029-1.963-2.737 1.212-.788 1.34 1.44 2.236-1.473-3.428-4.289-3.738 2.722-2.764-2.977 1.273-1.005 1.902 1.586 2.125-1.727-4.073-4.134-3.56 3.02-2.652-2.142 1.299-1.335L42 856.38l1.76-1.94-4.433-3.397-3.321 3.058-3.185-1.958v-1.458c1.034.37 2.128.803 3.109 1.288l1.648-2.322-4.757-2.986zm51.873.915.705 3.784c.669-1.029 1.201-1.738 2.648-1.34 1.737.659 1.76 3.092.289 6.818-.273.69-.609 1.288-.609 1.288s-.761-.294-1.268-.618c-1.063-.676-2.853-1.441-3.768-2.784-.958-1.405-.979-3.371.781-3.203.35.002 1.04.155 1.04.155l-2.642-3.133zM32.822 847.7l3.225 1.934-.67 1.133-2.555-1.071zm80.86.892c.934 1.215-2.354 4.797 1.947 6.228 0 0 .106.824-.79 1.326-2.105 1.423-5.127-1.176-4.19-3.85.6-1.711 2.333-3.695 3.033-3.704zm8.925.113s1.297.881 1.557 1.113c2.395 2.137 2.418 5.2.249 6.271-1.443.713-3.075.138-3.641-.896-.263-.48.169-.98.72-.977 1.033.006 1.822-1.836 1.516-3.775-.121-.768-.4-1.736-.4-1.736zm28.257.712s.285 2.619.695 3.78c1.257 3.255-.35 5.237-2.698 4.147-.336-.156-.928-.863-.928-.863l-.233 3.741-3.342-.906c.723-1.08 1.763-1.85 2.54-3.067 0 0-.5-.016-.938-.018-1.996.064-2.732-1.995-.639-3.69 1.56-1.252 5.543-3.124 5.543-3.124zm17.47.868c.405-.002.909.028 1.603.029 2.12.002 2.664-.266 1.729.962a35.248 35.248 0 0 0-1.516 2.265c-.535.92-.642 1.21-1.532 1.392-1.289.238-2.75.073-4.224.137-.32-.015.338-1.036.705-1.67.9-1.555 1.448-2.623 2.221-2.95.304-.128.61-.162 1.014-.165zm-6.552 1.204c.257-.013.446.414.69 1.297.569 2.06.716 2.112-.203 3.803-.463.853-1.252 2.3-1.577 2.897-.833 1.534-.88 1.52-1.405.147-1.006-2.635-1.094-2.364.568-5.323 1.038-1.848 1.553-2.803 1.927-2.821zm-122.226.722 2.997 2.236-.851.77-1.659-1.138-2.45 2.44 4.027 3.415 3.408-3.123 2.921 2.84-.892.703-1.714-1.538-2.566 2.039 3.828 4.208 3.86-2.736 2.419 2.949-.99.575-1.577-1.425-2.51 1.619 3.124 4.095 3.935-2.1 2.237 3.421-1.243.557-1.268-1.878-2.824 1.515 2.667 4.789 4.25-1.651 1.709 3.656-1.298.491-1.09-2.199-2.86 1.052 1.916 5.03 4.31-1.151 1.045 3.737-1.328.344-.655-2.071-2.743.613 1.146 5.049 4.387-.26.522 4.082-1.364.056-.34-2.434-2.794.033c.015.858.122 2.609.122 2.609l-1.69-.727c-2.508-15.52-11.456-28.453-24.787-37.459l-.071-1.854 3.245 1.916s2.977-2.467 3.49-3.095zm128.043 3.619c.93-.007.519.664-.614 2.67-1.263 2.238-1.488 2.285-3.854 2.822-2.878.653-2.794.799-1.237-2.289.6-1.19 1.038-2.232 1.587-2.628.721-.52 2.119-.32 3.636-.533.19-.027.35-.042.482-.042zm-134.62.66c13.845 8.31 22.596 25.5 23.683 35.92 0 0-.375-.233-1.131-.556-1.05-.448-1.307-.741-1.613-2.16-2.742-12.744-10.474-23.56-20.878-31.194zm124.848 2.128c.586-.113 1.652 3.799 1.333 4.62-.229.59-2.288-.804-3.037-1.1-.375-.148 1.308-3.443 1.704-3.52zm-66.762.18-.066 4.057s.525-.58.796-.764c1.03-.7 2.603.27 2.662 1.467.083 1.661-.187 2.336-1.618 4.643a30.692 30.692 0 0 1-1.11 1.623s-1.689-1.12-3.535-2.83c-1.995-1.85-1.614-4.32.132-4.328.523-.004.988.162 1.445.298-.377-1.196-1.78-3.515-1.78-3.515Zm54.114 3.038s.904 1.107 1.942 4.02c.992 2.781-.534 4.875-2.606 3.827-.371-.188-.76-.595-.76-.595-.146 1.348.112 3.774.146 3.794l-3.342-.543s1.836-2.712 1.968-3.383c0 0-.207.151-1.126.15-3.358 0-2.661-3.717 1.217-5.779.583-.31 2.561-1.491 2.561-1.491zm19.25.047c.727-.03.384.624-.42 2.152-.89 1.689-.667 1.542-2.546.65-2.628-1.194-2.473-1.38.857-2.217 1.052-.362 1.729-.569 2.11-.585zm-47.659.496c2.632.014 4.573 2.43 4.184 5.864-.669 5.896-.284 5.532.406 6.12 1.257 1.072-.445 1.715-1.942.694-1.043-.711-1.383-1.414-1.334-4.667.056-3.739-.161-4.69-1.598-4.364-.896.204-1.179.913-1.08 3.435.14 3.539-.112 4.43-1.557 5.563-1.557 1.121-3.238.121-1.815-.618.65-.681.773-1.547.522-3.685-.274-1.822-1.416-8.374 4.214-8.342zm65.069 2.972c.33-.006.663-.002.999.01 5.064.176 17.87 1.146 17.87 1.146l.112 3.52c-.572.328-10.13-1.028-17.16-.906-1.644.029-2.808.704-3.997.137 1.142.44 1.037 5.75-3.99 4.463-4.264-1.426-2.187-6.79 3.265-8.143a26.966 26.966 0 0 1 2.9-.227zm-28.18 2.36 10.943 5.02c1.532 19.115 8.624 39.31 32.78 54.62-3.913 2.604-13.73 9.003-24.95 13.385l-.918-.915c13.322-21.079 3.257-44.28-20.072-54.78.063-5.85.853-11.623 2.216-17.33zm38.495 3.203c2.098-.076 2.644.148 2.824 1.033.17.836.837 1.033 1.628.765 1.926-.653 3.102 2.525 1.506 3.935-.99.875-.817 1.212-.005 1.217 2.012.012 1.953 2.461-.091 3.85-.848.577-.837.838.05 1.246 1.487.683 1.188 2.032-.7 3.142-1.026.605-1.06.753-.212.968 2.134.54-.044 3.37-2.379 2.868-.957-.205-1.869-.013-2.784.543-2.5.97-2.92 1.162-5.618.85-2.371-.405-3.43-1.131-4.042-3.068-1.39-3.937-2.89-8.299-2.906-12.598-.21-2.639 4.545-5.025 6.797-5.128 1.834-.257 3.938.36 5.932.377zm-149.687.066c2.515 0 4.554 1.897 4.554 4.237s-2.039 4.237-4.554 4.237-4.554-1.897-4.554-4.237 2.04-4.237 4.554-4.237zm50.61 1.246-.41 3.704s.67-.487.827-.609c1.184-.921 3.057.109 2.632 1.543-.139 1.264-2.484 5.02-3.418 5.808 0 0-3.762-3.812-4.164-4.558-.894-1.657.328-3.384 1.953-2.651.231.104.902.566.902.566l-1.192-3.515Zm-50.305.297c-1.61.05-3.138.97-2.932 2.194.138.523.996-.232 1.841-.727a2.433 2.433 0 0 1 2.166-.141c.654.217.934.778 1.313 1.212.322.367.673.667.872.486.17-.194.101-.437.056-.655-.347-1.669-1.83-2.41-3.316-2.369zm122.636.576 1.628.773c2.191 27.014 16.872 42.896 32.298 52.355l-1.227.69c-18.93-11.285-32.074-31.502-32.699-53.818zm2.465 1.108s4.087 1.947 6.227 2.846l.081 2.444-1.43.047-.487-2.298-2.971.198.928 5.653 4.792-.547.67 3.416-1.623.316-.832-2.1-2.749.623 1.78 5.492 4.321-1.298 1.354 3.591-1.45.49-.928-2.104-2.845.925 2.2 5.36 4.499-1.344 1.815 3.354-1.364.562-1.303-2.081-2.698 1.283 3.164 5.007 4.062-1.982 1.897 2.675-1.49.93-1.355-1.638-2.186 1.34 3.5 4.445 3.499-2.44 2.616 2.808-1.156.953-1.785-1.684-2.115 1.755 4.169 4.256 3.62-2.925 2.572 2.227-.76.745-1.73-1.005-2.292 2.265 4.376 3.543 3.474-3.543 2.946 2.02v1.49l-2.632-1.24-1.764 2.472 4.396 3.095-.03 1.217c-25.1-13.932-31.704-35.54-32.983-51.614zm-51.387.27c1.085-.031 2.23.918 4.123 2.958 5.29 5.7 3.877 14.52-3.037 19.119-1.008.67-1.413.61-2.642-.373-7.093-5.67-7.502-13.252-1.187-19.912 1.091-1.15 1.9-1.769 2.743-1.793zm25.351.783c1.305 1.86 2.951 3.774 3.14 6.034-.094 2.234-1.713 2.646-3.388 1.345-.212 1.173.507 3.459.507 3.459l-3.033-.302s1.19-1.934 1.238-3.143c-2.106 1.365-3.714-.415-3.428-1.85.602-2.44 2.758-4.086 4.964-5.543zm-25.26 1.458c-.248.018-.506.176-.902.471-1.847 1.379-3.299 3.094-4.052 4.875-1.59 3.758-.552 7.994 3.033 11.281 1.821 1.67 2.462 1.555 5.253-1.897 2.339-2.891 2.825-6.626 1.385-9.87-.703-1.584-1.977-3.127-3.504-4.247-.587-.43-.893-.637-1.212-.613zm58.34.693 2.353 1.076c3.001 18.422 12.732 29.662 23.637 37.412l-.02 1.708-2.927-2.11-3.504 3.412-2.84-2.166 1.065-.962 1.618.958 2.069-2.157-4.072-3.378-3.55 2.864-2.957-2.831.898-.698 2.044 1.66 2.287-1.887-3.956-4.128-3.54 2.496-2.47-3.048 1.076-.595 1.293 1.652 2.728-1.581-2.885-4.129-4.113 1.963-2.104-3.53 1.196-.532 1.365 1.981 2.56-1.146-2.576-4.87-4.204 1.293-1.546-3.831 1.201-.41 1.06 2.264 2.845-.849-1.932-5.242-4.346 1.142-1.075-3.855 1.344-.269.705 2.08 2.987-.556-1.096-4.992-4.447.524c-.148-.848-.804-3.133-.791-3.997l1.369-.104.431 2.2 2.992-.095zm-58.182.401c1.63.208 3.622 3.13 4.072 4.19.86 2.098.931 4.528.147 6.412-.642 1.541-2.56 4.274-3.778 5.044-.983.496-1.806.128-3.21-1.646-2.774-3.508-3.31-7.727-1.12-10.617 1.672-2.207 2.912-3.385 3.889-3.383zm61.336.91 1.182.52c1.45 10.675 8.25 25.326 21.633 34.09v1.34c-10.408-6.95-19.963-18.938-22.815-35.95zm-61.544.728c-4.66 3.268-3.915 8.385-.385 11.833 3.804-2.342 5.149-8.667.385-11.833zm-71.123.217c2.629-.057 4.295.795 5.096 2.49 1.244 2.634 1.413 3.135 1.669 4.516.145.79.371 1.982.496 2.647 1.365 7.157.36 9.854-4.31 10.97-1.394.334-3.338.441-4.696.137-.357-.08-1.661-.087-2.688-.118-2.036-.061-2.659-.261-3.681-1.033-.369-.278-.724-.5-1.167-.566-2.33-.344-3.026-2.33-1.257-3.798 1.007-.837 1.107-.948 1.014-1.09-.053-.08-.483-.149-.959-.151-2.349-.014-2.325-2.263.04-3.87 1.125-.763 1.632-1.483.888-1.306-2.142.47-2.898-2.443-.659-3.347 1.193-.62 2.048-1.139.898-1.197-.966.078-1.752-.585-1.457-1.367.358-.948 2.319-1.81 3.45-1.488.883.252 1.745.483 2.297.113 1.34-.896 1.94-1.3 3.093-1.443.67-.084 1.37-.102 1.933-.1zm78.131.547 10.802.193-.32 9.857-10.172-.18s2.23-4.403-.31-9.87zm-24.204.226 10.345.118c-1.705 3.715-1.068 7.532-.441 9.682l-10.128-.146zm17.277.015c2.78 1.507 3.545 6.994-.317 9.815-3.675-3.514-2.939-7.792.317-9.815zm-25.523 4.284 2.774.24-.99 3.695s.448-.439.594-.481c3.564-1.557 3.82 1.97.193 5.157-.802.702-2.09 1.665-2.09 1.665s-1.008-1.42-1.81-2.703c-.91-1.291-1.53-2.673-1.374-3.407.226-1.065 1.602-1.769 2.48-1.118.432.32.933.807.933.807zm49.525 2.708s1.164 1.11 1.871 1.83c2.45 2.494 2.87 4.826 1.628 5.535-1.066.455-1.728.143-2.586-.504.178 1.545 1.497 3.826 1.465 3.83l-3.656.548s.903-3.096.827-4.265c0 0-.751.537-1.086.67-2.386.81-3.57-1.712-1.607-4.228 1.646-2.11 3.144-3.416 3.144-3.416zm49.946 4.671c2.454 0 4.443 1.85 4.443 4.134 0 2.282-1.99 4.133-4.443 4.133-2.453 0-4.442-1.85-4.442-4.133s1.989-4.134 4.442-4.134zm2.191 1.892c-.192.04-.348.45-.37 1.355-.221 1.854-1.88 2.6-3.692 1.74-.733-.347-1.357-.862-1.36-.467 0 .212.588 1.317 1.005 1.694 1.536 1.286 5.278.981 5.193-2.014-.04-1.41-.457-2.374-.776-2.308zm-80.657 1.553c.482-.03 1.094.155 1.486.533 1.214.772 1.444 1.758 1.52 5.478.069 3.282-.004 3.362.579 3.76 1.425.975 2.284-.51 1.876-3.836-.392-3.2.848-5.528 2.926-5.515 1.023.006 1.213.565.437 1.278-.82.753-1.018 1.674-.761 3.525.659 4.744.09 7.072-2.054 8.035-2.235 1.005-5.11-.149-5.614-2.774-.323-1.751-.32-3.828-.096-5.785.04-2.058-.01-2.293-.781-3.473-.545-.792-.139-1.187.482-1.226zM55.88 897.1c1.236-.003 2.52.664 3.287 2.137 1.85 3.556-2.16 6.48-5.837 6.71-6.385.088-13.973-.768-20.381-1.562l.101-3.36c5.881.317 12.512.76 19.656 1.072-.814-3.124 1.115-4.993 3.175-4.997zm33.582.689 3.555.731-2.262 3.44c.671-.27 1.135-.46 1.806-.231 1.448.486 1.467 2.193.405 3.788-.84 1.159-3.201 2.543-4.812 3.393-.906-1.809-2.906-4.975-2.11-6.705.422-.918 1.593-1.365 2.683-.863.36.2 1.05.528 1.05.528zm8.403.094 10.832.118c-1.574 10.19-4.655 23.796-10.725 34.887l-2.551.614c5.353-11.02 8.914-21.356 10.578-32.91h-5.416c-3.115 12.4-7.725 23.893-14.813 33.877l-3.149-.953c7.573-11.171 13.575-23.64 15.244-35.633zm24.707.18h12.074c2.221 20.747 9.756 34.907 20.97 48.914 0 0-.708.148-1.126-.018-1.163-1.35-2.228-2.176-3.97-2.59-9.425-12.626-15.749-30.276-17.273-43.778h-7.181c.817 16.959 5.867 30.863 12.587 44.33l-3.647.622c-5.396-12.051-11.312-22.539-12.434-47.48zm18.789 2.561c.993.716 2.067 1.418 3.078 2.1 2.719 1.775 2.683 5.13.04 5.115-.28-.002-.933-.038-.933-.038s1.08 2.2 1.76 3.312c-1.101.274-3.403.675-3.403.675s.33-2.16.264-3.95c0 0-.442.46-.806.619-1.754.682-3.237-.742-3.018-2.425.296-2.272 3.018-5.408 3.018-5.408zm-80.668.406 5.944 2.746c-4.05 8.578-8.689 16.61-15.397 22.714l.173-19.821c3.662-.1 7.418-.13 9.28-5.639zm40.64.312h3.657c-1.622 15.825-12.86 37.232-14.97 39.813l-.695.486c.042-.021-1.44-4.853-3.124-6.591 6.34-7.957 12.983-23.247 15.133-33.708zm25.712 0h5.522c1.72 12.61 5.91 26.231 16.527 42.776 0 0-1.064.1-1.886-.358-1.81-1.044-3.067.338-4.148.284-1.69-.085-1.969-.179-3.713.206-8.761-17.193-11.247-30.727-12.302-42.908zm-59.653 2.83 1.973.864c-4.242 9.128-8.04 16.381-18.089 25.286l-.036-2.652c7.06-6.36 11.816-14.744 16.152-23.497zm2.87 1.275c.934.327 1.994.864 2.876 1.307.295.11.215.355.218.613-.373.867-2.02 1.247-2.642 1.415-.752.2-1.494.34-1.628.369-.86.187-.588-.614.345-2.37.42-.79.585-1.317.832-1.334zm3.94 1.934c.591-.034 2.976 1.192 3.485 1.633.18.52-.333 1.34-1.086 2.854-1.157 2.33-1.387 2.382-1.734.467-.06-.33-.405-1.418-.613-2.142-.484-1.677-.53-2.642-.051-2.812zm4.316 1.883s1.386.626 1.836.901c-6.187 17.242-22.665 31.493-22.577 31.165l-2.57-1.406c10.965-9.219 19.002-20.105 23.311-30.66zm-6.541.245c.598.012.077.697-.73 2.355-.767 1.623-1.018 2.2-1.735 2.458-1.028.346-2.504.357-3.814.57-.56.091-.325-.307.538-1.938 1.013-1.914 1.07-2.312 2.657-2.709.918-.133 2.154-.743 3.084-.736zm2.17 3.426c.638 2.135.624 2.556.198 3.298a81.954 81.954 0 0 1-2.135 3.454c-.721 1.099-.926.87-1.354-1.803-.266-1.658-.498-2.403-.302-3.125.36-.816 1.433-2.741 2.04-3.868.868-2.402 1.333 1.831 1.553 2.044zm11.39-1.864 3.246.99-2.546 2.86s1.068-.179 1.191-.132c2.554.158 2.13 2.52.153 3.95-.82.697-4.859 2.406-4.859 2.406-.432-2.114-1.323-3.465-1.11-5.634.15-1.168.262-2.223 1.8-2.256.81-.04 1.137.73 1.663 1.35zm58.836 2.562s1.955.938 3.768 2.236c2.364 1.693 2.768 3.683.405 4.45-.273.089-1.05.052-1.05.052.652 1.054 2.197 2.623 2.197 2.623-.775.504-1.867.899-3.079 1.25 0 0-.3-2.624-.588-3.637 0 0-.312.573-.7.797-2.276 1.318-4.063-1.166-2.84-4.308a17.028 17.028 0 0 1 1.887-3.463zm-25.026.439c5.684-.129 2.354 8.533-.487 7.974-.049-.079 2.346-5.124-.878-5.926-1.478-.369-.204-2.066 1.365-2.048zm-9.321.613c1.766-.01 3.051 1.149 1.364 1.878-2.656 1.148-1.075 3.897-1.014 5.454.037.953-2.365-.83-2.876-2.765-.66-2.5-.354-4.353 2.526-4.567zm-42.046.91c.392 0 .687.029.787.1.166.408-.628 1.686-1.786 3.322-.616.87-.88 1.115-1.257 1.32-.896.469-2.153.347-3.2.416-1.562.018-1.287-.01.441-2.515.772-1.119 1.26-2.034 1.72-2.326.091-.055 2.12-.313 3.295-.316zm2.05 1.808c0 3.133 1.143 4.16.303 5.148-1.026 1.539-2.338 3.223-2.814 3.755-.802.897-.713.728-.923-1.618-.152-1.701-.319-2.838-.081-3.369.687-1.535 1.503-2.27 2.353-3.902.666-1.315 1.161-1.096 1.161-.014zm44.87 1.571c1.65.021 2.67 1.654 2.596 3.152l-.071 1.434c2.133-.76 4.781-.02 4.898 1.925.2 3.301-2.414 2.918-4.625 2.78.223.077.55 2.983-.765 4.095-2.064 2.149-5.911-.047-4.945-3.199.201-.655.244-1.066.244-1.066s-1.38.463-1.867.443c-4.185-.166-3.865-5.673.34-5.025.86.132 1.44.326 1.44.326s-.09-.348-.233-.84c-.611-2.12.673-4.054 2.987-4.025zm83.73.982 2.256 1.207v2.34l-3.21-2.207zm-135.274 1.566c.889-.008 1.588.057 1.45.255-.003.417-1.948 2.936-3.099 4.086-.98.98-1.12.84-3.519.731-.941-.043-1.557-.05-1.531-.283 1.105-1.348 2.628-3.084 3.681-4.534.414-.118 1.874-.245 3.018-.255zm2.195 1.1c.166-.003.217.332.213 1.061-.003.55.082 2.253.168 2.991.156 1.343.156 1.341-.462 2.143-.754.753-1.523 1.863-2.495 2.727-1.46 1.505-1.31 1.59-1.288-1.628.017-2.515-.186-2.514.36-3.105.3-.324 1.23-1.38 1.841-2.208.929-1.255 1.42-1.978 1.663-1.982zm13.916.443 3.002 1.49-3.007 2.837s.752-.003 1.004.042c1.932.35 1.787 2.254-.157 3.676-1.194.701-5.295 2.09-5.295 2.09-.14-1.602-.505-3.075-.436-4.794.03-.793.107-1.655.76-2.34.453-.465 1.208-.736 2.268-.1.556.461.846.982.846.982zm35.427.967c-1.176 0-2.13.887-2.13 1.982 0 1.094.954 1.982 2.13 1.982s2.13-.888 2.13-1.982c0-1.095-.954-1.982-2.13-1.982zm33.561.467s3.93 1.374 5.7 2.883c1.653 1.283.876 3.396-.766 3.44-.119 0-.816-.094-.816-.094.556.786 2.419 2.717 2.419 2.717l-3.038 1.147s-.486-2.176-.862-3.397c-1.058 2.274-3.67.794-3.844-.623-.421-2.078.528-4.107 1.207-6.073zm-33.56.175c.817 0 1.48.617 1.48 1.378 0 .76-.663 1.377-1.48 1.377-.819 0-1.482-.616-1.482-1.377s.663-1.378 1.481-1.378zM56.9 927.49c1.059-.01 2.38.036 2.972.07.45.322-.492 1.322-2.313 3.1-1.46 1.427-1.675 1.228-3.443 1.241-2.967.022-3.041.04-1.679-1.401 1.492-1.58 2.363-2.596 3.053-2.925.232-.056.775-.08 1.41-.085zm3.616 1.387c.314-.058.228.687.177 2.373l-.086 2.86-2.307 2.066c-2.671 2.224-2.352 2.363-2.333.283.015-1.653-.004-2.814.38-3.548 1.166-1.308 2.381-2.465 3.707-3.713.21-.192.357-.302.462-.321zm58.658.712c.643-.05 2.282 2.56 2.693 4.747.937 4.994 4.152 7.36 6.415 5.355.92-1.178 1.024.108.979.722-.475 6.327-8.18 3.693-9.057-2.59-2.705 1.633-5.228-1.666-3.616-1.614 3.812-1.127 2.77-4.383 2.586-6.62zm-8.925.048c.377 2.188-3.863 5.936-6.248 3.307-1.213-1.337-.108-4.095 1.435-2.397 1.706 1.174 3.36-.188 4.813-.91zm-58.258 3c.872-.017 2.133.137 2.683.066.778.074.222.422-1.46 1.85-1.45 1.23-1.864 1.777-2.03 1.241-.08-.831-.045-1.82-.04-2.991.133-.116.45-.158.847-.166zm19.768 1.454 2.586 1.755-2.566 2.199c2.3-.106 2.506 1.901 1.633 3.02-.566.784-2.748 1.61-4.93 1.939-1.313.198-2.383.344-2.383.344s-.05-.941-.086-2.505c-.075-3.2.159-4.458 1.48-5.082.947-.446 2.549.254 2.942 1.071.13.27.472.74.472.74zm-16.644.174c.01-.002.017 0 .02.005.146.183-.38 5.388-.38 5.388l-3.748-1.963s3.793-3.368 4.108-3.43zm99.182.614c2.67 1.17 4.67.942 6.466 2.392 1.564.761 1.1 2.858-.04 3.326-.517.147-1.37.066-1.37.066.944 1.085 3.012 2.454 3.012 2.454l-3.286 1.279s-.449-2.062-.867-3.185c-.598 1.67-2.624 1.63-3.778.844-.818-.582-1.155-2.535-.766-4.227.103-.447.63-2.95.63-2.95zm-17.551 48.452c-32.404 7.145-58.725 2.727-61.336 1.883l-2.064 2.864c-.252.487-.406 1.941-1.806 2.336l-2.099 2.915.41.406-1.86 1.51.451.505-1.354 1.83-.533-.051-3.134 4.43.477.496-7.196 10.48 97.352.027c-5.659-9.93-11.713-19.669-17.308-29.63zm-.588 1.288.578 1.496c-1.61-.184-3.49-.275-5.401-.354a54.759 54.759 0 0 0 4.823-1.142zm-5.655 1.303c-3.096 1.322-4.951 2.91-6.374 4.586-1.772-1.28-4.025-2.187-6.715-2.756zm-54.708.726 1.38.147s-.463.333-.792.264c-.252-.054-.588-.41-.588-.41zm62.016.746.877 1.614c-2.109-1.04-11.128-3.421-13.687 4.92-2.693-3.386-13.797-8.297-19.428 2.143-1.601-2.828-10.924-10.966-19.428-.595-3.35-6.445-6.15-6.985-12.302-6.105 4.371-3.91 10.523.16 13.13 3.487 7.335-5.661 13.47-3.96 18.828.646 6.915-7.005 13.812-5.317 18.662-1.802 3.408-4.666 6.737-6.073 13.348-4.308zm-56.64.042c4.36.548 8.719.796 13.078.996-2.523.861-5.11 1.603-7.165 3.336-1.557-2.023-3.72-3.197-5.913-4.332zm31.451.647c-2.38 1.042-4.943 2.61-6.998 4.256-2.218-1.681-4.501-3.134-6.988-3.865 4.562.209 9.617.022 13.986-.391zm27.912 3.312s-.88.138-1.161.208c-3.85.951-3.012 5.997.948 5.997.376 0 1.313-.137 1.313-.137-.074 3.416 1.041 4.25 4.793 4.057l6.359 10.579-94.07-.377 5.973-8.89c3.005.328 4.894-1.227 4.225-3.6 0 0 1.85.525 2.368.529 3.4.02 4.28-4.836 1.02-5.677-.363-.093-1.274-.187-1.385-.217 1.49-3.465 5.586-1.42 6.76.02 2.64-2.02 5.559-1.117 6.81 1.5 0 0-.492-.256-.644-.359-3.092-2.105-5.97 2.255-2.941 4.265.298.198.928.368.928.368s-.368.28-.705.807c-1.572 2.46.96 5.457 4.016 4.686 2.347-.855 2.38-2.497 2.379-4.304 0 0 .81.058 1.536.067 2.817.03 3.623-3.325 1.9-4.885-.931-.843-2.149-.777-2.752-.886 3.247-2.966 5.448-.919 7.739.448.347-.007 3.976-4.063 8.291-.08-2.094-.51-4.239.753-4.267 2.782.041 1.305 1.044 2.46 3.214 2.551-.234.655-.39 1.145-.402 1.782-.042 2.13 1.737 3.456 3.996 3.129 1.888-.225 3.284-2.233 2.612-3.903-.304-.753-.72-1.028-.72-1.028 5.084.592 4.995-5.4 1.042-5.764-.937-.086-1.66.292-2.604 1.097 2.325-4.423 6.577-3.536 8.17-1.726 2.184-1.477 5.195-3.493 8.798.099-.594-.117-1.43-.144-2.156.035-2.851.704-2.864 4.078-.603 5.105a5.072 5.072 0 0 0 2.257.427c-.752 2.836 2.631 4.86 5.026 3.503 1.716-.973 2.166-3.27.309-5.366 3.125-.13 3.433-3.755 1.628-5.026-1.416-.996-3.082-.522-4.29.793-.39-1.04 2.7-4.658 7.064-2.052 2.31-1.803 4.603-2.358 7.226-.557zm1.364 2.83 1.222 2.068c-.814.075-1.978-.736-1.222-2.067zm-15.771 2.1c.764 0 1.384.577 1.384 1.289 0 .711-.62 1.288-1.384 1.288-.765 0-1.385-.577-1.385-1.288 0-.712.62-1.288 1.385-1.288zm-57.097.076c.185.691.266 1.381-1.085 1.515zm15.903 1.246c.7 0 1.268.528 1.268 1.18 0 .65-.567 1.179-1.268 1.179-.7 0-1.267-.528-1.267-1.18 0-.651.567-1.18 1.267-1.18zm21.102.368c.742 0 1.344.56 1.344 1.25s-.602 1.25-1.344 1.25c-.743 0-1.344-.56-1.344-1.25s.601-1.25 1.344-1.25z"/></g><g aria-label="K" font-family="Levenim MT" font-size="3.772" font-weight="700" letter-spacing="0" style="line-height:0%;-inkscape-font-specification:&quot;Sans Bold&quot;" word-spacing="0"><path d="M27.839 722.44h-6.116l-8.362-12.028v12.028H8.148v-27.096h5.213v9.32l7.35-9.32h6.207l-9.468 12.084z" font-size="37.724" style="line-height:1.25" transform="scale(.95622 1.04578)"/></g><g aria-label="K" font-family="Levenim MT" font-size="3.772" font-weight="700" letter-spacing="0" style="line-height:0%;-inkscape-font-specification:&quot;Sans Bold&quot;" word-spacing="0"><path d="M-216.874-971.724h-6.115l-8.363-12.028v12.028h-5.213v-27.096h5.213v9.32l7.35-9.32h6.207l-9.468 12.084z" font-size="37.724" style="line-height:1.25" transform="scale(-.95622 -1.04578)"/></g></g></svg>