<svg xmlns="http://www.w3.org/2000/svg" width="234" height="333"><g transform="translate(0 -719.362)"><rect width="233.244" height="332.244" x=".378" y="719.74" fill="#fff" stroke="gray" stroke-width=".756" rx="8.919" ry="8.946"/><g stroke-width="3.181"><path d="M16.402 775.116h1.605v5.586h-1.605z"/><path d="M26.026 772.445a4.735 4.735 0 0 1-1.83 6.428 4.705 4.705 0 0 1-6.41-1.837 4.726 4.726 0 0 1-.58-1.975 4.717 4.717 0 0 1-5.022 4.396 4.722 4.722 0 0 1-4.382-5.037 4.718 4.718 0 0 1 6.975-3.824 4.74 4.74 0 0 1-1.618-6.483 4.705 4.705 0 0 1 6.463-1.631 4.735 4.735 0 0 1 1.627 6.482 4.771 4.771 0 0 1-1.635 1.642 4.712 4.712 0 0 1 6.412 1.839z"/></g><g stroke-width="3.181"><path d="M216.56 996.608h1.605v-5.586h-1.606z"/><path d="M226.184 999.28a4.734 4.734 0 0 0-1.83-6.428 4.705 4.705 0 0 0-6.41 1.836 4.726 4.726 0 0 0-.581 1.976 4.717 4.717 0 0 0-5.021-4.397 4.722 4.722 0 0 0-4.382 5.037 4.718 4.718 0 0 0 6.975 3.825 4.74 4.74 0 0 0-1.619 6.482 4.705 4.705 0 0 0 6.464 1.632 4.735 4.735 0 0 0 1.626-6.483 4.771 4.771 0 0 0-1.634-1.641 4.712 4.712 0 0 0 6.412-1.84z"/></g><g stroke-width="3.181"><path d="M57.022 793.46h3.21v11.17h-3.21z"/><path d="M76.27 788.116c2.529 4.564.89 10.32-3.66 12.856-4.551 2.536-10.29.891-12.818-3.673a9.451 9.451 0 0 1-1.163-3.95c-.352 5.21-4.848 9.146-10.042 8.791-5.194-.354-9.118-4.864-8.764-10.073.353-5.21 4.85-9.145 10.043-8.791a9.543 9.543 0 0 1 3.906 1.142c-4.45-2.678-5.907-8.483-3.236-12.965 2.67-4.481 8.458-5.943 12.926-3.263 4.468 2.679 5.925 8.484 3.254 12.965a9.543 9.543 0 0 1-3.27 3.283 9.424 9.424 0 0 1 12.825 3.678z"/></g><g stroke-width="3.181" aria-label="Q" font-family="Levenim MT" font-weight="700" letter-spacing="0" style="line-height:0%;-inkscape-font-specification:&quot;Sans Bold&quot;" word-spacing="0"><path d="M101.796 91.069H86.613l-5.945-7.637q-7.362 4.024-16.417 4.024-14.908 0-25.06-10.198-10.106-10.244-10.106-25.152 0-9.557 4.618-17.652 4.62-8.094 12.896-12.896 8.14-4.756 17.515-4.756 14.634 0 24.74 10.427 10.107 10.427 10.107 25.106 0 13.673-8.872 23.597zm-15.64-38.825q0-9.42-6.265-16.098-6.402-6.813-15.777-6.813-9.74 0-15.96 6.63-6.173 6.586-6.173 16.372 0 11.158 8.002 17.652 6.265 5.076 14.223 5.076 4.573 0 8.597-1.783L60.776 57.777H76.05l6.036 7.82q4.07-6.037 4.07-13.353z" font-size="93.656" style="line-height:1.25" transform="matrix(.25896 0 0 .38155 .26 720.766)"/></g><g stroke-width="3.181" aria-label="Q" font-family="Levenim MT" font-weight="700" letter-spacing="0" style="line-height:0%;-inkscape-font-specification:&quot;Sans Bold&quot;" word-spacing="0"><path d="M-799.825-774.318h-15.183l-5.945-7.637q-7.362 4.024-16.417 4.024-14.908 0-25.06-10.198-10.107-10.243-10.107-25.151 0-9.558 4.62-17.652 4.618-8.095 12.895-12.896 8.14-4.756 17.515-4.756 14.634 0 24.74 10.426 10.106 10.427 10.106 25.106 0 13.674-8.871 23.597zm-15.64-38.825q0-9.42-6.265-16.097-6.402-6.814-15.777-6.814-9.74 0-15.96 6.63-6.174 6.586-6.174 16.372 0 11.159 8.003 17.652 6.265 5.076 14.222 5.076 4.573 0 8.598-1.783l-12.027-15.503h15.274l6.036 7.82q4.07-6.036 4.07-13.353z" font-size="93.656" style="line-height:1.25" transform="matrix(-.25896 0 0 -.38155 .26 720.766)"/></g><g stroke-width="3.181"><path d="M173.762 978.265h3.211v-11.171h-3.21z"/><path d="M193.012 983.608c2.528-4.564.888-10.32-3.662-12.855-4.55-2.536-10.289-.892-12.817 3.672a9.451 9.451 0 0 0-1.163 3.951c-.352-5.21-4.849-9.146-10.042-8.792-5.194.354-9.118 4.864-8.765 10.074.354 5.209 4.85 9.145 10.044 8.79a9.543 9.543 0 0 0 3.906-1.141c-4.451 2.678-5.908 8.483-3.237 12.964 2.671 4.482 8.459 5.943 12.927 3.264 4.468-2.68 5.925-8.484 3.254-12.966a9.543 9.543 0 0 0-3.27-3.282 9.424 9.424 0 0 0 12.825-3.679z"/></g><g stroke-width="3.181"><path fill="#d40000" d="M125.091 1012.295c.597-7.931.114-16.448.517-22.902-.265-.456.694-1.707.744-1.707-.566-.96-.753-3.418-.031-5.596 5.65-19.772 15.842-35.15 26.338-49.489 8.469 23.739-18.294 40.34-23.955 61.061-1.888 7.176-1.617 12.189-2.348 18.672zm-44.444.23L48.93 967.03l6.912-3.098 32.596 48.447Zm41.292-84.119c.279 1.305 1.386 2.007 2.565 1.412 1.155-.582 1.288-.621.569.406-1.59 2.269 1.616 4.472 3.68 2.527.734-.692.858-1.819.194-2.392-.75-.648-.912-.983.195-.489 2.78 1.047 4.32-2.674 1.626-3.93-.694-.325-2.048-.04-2.559.45-.617.593-.703.384-.538-.076.098-.272.167-.714.4-1.241.183-.413.314-.976.314-.976l-2.843.023s.229.603.46 1.11c.219.478.3.835.407 1.033.382.715-.078.45-.845-.08-1.084-.748-2.445-.54-3.221.44-.287.578-.527 1.179-.404 1.783zm4.175-36.965 6.114-.158 6.69 17.172c-5.396 8.254-6.865 17.572-.622 27.028l-19.386-.003c4.574-14.226 5.305-29.323 7.204-44.039zm6.35 22.34a1.88 1.88 0 0 0 .183-2.73c-.938-1.033-.722-1.086.537-.41 1.818.975 3.562-1.125 2.492-2.986-.68-1.183-2.884-1.448-3.73-.4-.704.875-.624.074-.081-1.089.2-.427.486-1.23.486-1.23l-2.962.051s.38.777.583 1.276c.539 1.322.56 1.741-.272.89-1.805-1.41-3.928-.394-3.951 1.625.015 1.551 1.534 2.55 2.866 1.827.81-.44 1.173-.545.26.466-.63.964-.407 2.193.422 2.772 1.135.637 2.352.603 3.167-.063zm-40.962 5.28c.238-.16.326-.054.18.164-.125.186-.445.45-.718.731-1.385 1.42.4 3.231 2.63 2.955 1.517-.188 2.411-2.393 1.292-3.267-.363-.225-.647-.268-.922-.576-.022-.122.04-.205.175-.156.197.076.6.38.805.43 1.409.357 2.474-.18 2.834-1.1.228-1.065.012-2.209-.927-2.808-.873-.544-2.166-.39-2.922.534-.773.946-.877.044-.244-1.262.237-.49.401-1.186.401-1.186l-2.723.129s.143.542.382 1.166c.602 1.424 1.035 1.833.264 1.096-3.324-1.818-4.433.645-4.49 1.625-.106 1.846 2.796 2.897 3.983 1.526zm13.37-27.81 4.915.024c-3.74 18.219-11.362 33.473-24.158 43.959l-24.042-.108-11.572-7.511 4.485-5.369c30.517 2.959 43.542-11.02 50.373-30.995Zm-22.2 42.214c1.44-.585 2.042-2.09 1.092-3.103-.858-.916-.946-1.202.375-.487 1.766.956 3.48-.944 2.616-2.807-.538-1.16-2.238-1.52-3.464-.735-1.077.741-1.056.41-.491-.762.28-.58.495-1.51.495-1.51l-3.013.034s.217.663.435 1.118c.501 1.044.682 1.523.449 1.525-.113 0-.485-.318-.702-.503-.6-.511-2.239-.61-2.848-.073-1.807 1.588-.797 4.373 1.498 3.863 1.482-.33 1.822-.85.592.437-1.515 1.586.823 3.874 2.967 3.003zm-19-.583c1.247-.542 1.666-1.87.97-2.729-.7-.864-1.046-1.422.201-.642 1.658.775 3.11-.248 3.093-1.994-.019-1.829-2.237-2.686-3.872-1.587-.276.186-.616.353-.677.353-.2.002.165-.987.563-1.634.173-.28.478-.852.478-.852l-3.013-.112s.167.76.402 1.344c.478 1.187.595 1.583-.245.908-2.262-1.962-4.683.528-3.734 2.683.503 1.213 2.049 1.215 2.962.61.83-.591.405.195-.164.82-1.551 1.706.714 3.831 3.036 2.832zm137.659-45.473.152 3.371-38.986 29.948-1.628-2.316zm-144.804 6.077c5.612-3.68 11.86-10.294 18.02-13.736 4.477 9.565-6.086 18.919-18.02 13.736Zm102.871-2.252c-5.603-17.913 21.022-16.678 17.672-12.881Zm-126.523-11.9 38.592-29 1.746 2.445L32.5 883.523Zm105.622-29.146c.108.303 1.272 1.463 1.274 1.569-.333-.23-2.31-1.26-3.279-.264-.338.364-.769 1.237-.725 2.14.402 1.62 2.393 2.195 3.81 1.089.408-.319.759-.705.841-.569.072.119-.151.675-.334 1.115-.21.452-.988 1.402-.424 1.402h2.736s-.1-.594-.426-1.25c-.61-1.227-.583-1.893.154-1.009 1.434 1.723 4.224.293 3.936-1.77-.207-1.489-1.835-2.343-3.035-1.635-.131.077-.516.43-.571.431-.147.006.256-.561.522-1.032.887-1.564-.429-3.016-2.446-2.863-.652.049-1.366.428-1.37.481-.758.564-.885 1.54-.663 2.165zm33.3-14.526c3.849 3.287 7.7 5.698 11.552 7.804l-3.649 5.308c-24.655-2.151-42.604 6.838-50.132 31.276l-4.067.717c1.558-15.25 7.112-30.365 23.474-45.118Zm-23.64 3.61c.006.724 1.44 1.586 1.12 1.785-.147.072-1-.618-1.393-.657-2.847-.284-3.445 3.81-.624 4.274.554.091 1.7-.226 2.041-.484.452-.342.766-.624.859-.593.173.059-.223.789-.533 1.329-.289.502-.692 1.486-.692 1.486 1.128.19 2.218.235 3.237.018 0 0-.292-.855-.582-1.508-.37-.834-.449-1.362-.198-1.306.107.024.228.285.455.465 1.4 1.116 3.458.644 4.002-1.095.511-1.634-1.601-3.32-3.077-2.408-.515.318-.515.078 0-.638.47-.654.357-1.646-.067-2.237-1.544-1.52-4.614-.44-4.548 1.57zm23.232 4.888c-.077-.365.023-.26.437.14 1.295 1.251 3.53 1.06 4.103-.595.57-1.652-1.16-3.546-2.673-2.899-.788.337-.801.217-.35-.323 1.162-1.394-.113-3.235-2.102-3.218-1.818.016-2.892 1.633-2.01 3.025.361.57.243.69-.394.404-1.857-.837-3.597 1.882-2.238 3.498.799.95 2.652 1.053 3.714.113.565-.5.56-.26.148.776a16.804 16.804 0 0 1-.756 1.633l3.217.032s-.856-1.512-1.096-2.586zm-68.967 36.46s-4.753-12.304-6.377-18.201c3.554-7.836 8.412-15.427.29-26.731l19.79-.02c-6.137 12.815-6.329 45.179-7.765 45.255Zm1.763-14.389s-.974-1.245-1.032-2.252c-.117-.646.063-.685.426-.026 1.759 1.805 4.148.069 4.162-1.528.206-1.46-1.639-2.714-2.826-1.987-.832.51-1.058.362-.315-.588 1.046-1.338-.088-3.083-1.955-3.067-2.429.021-3.363 2.12-1.625 3.62 1.284 1.109.087.453-.934.056-1.987-.774-3.294 1.097-2.406 2.99.613 1.305 2.42 1.648 3.483.593.581-.578 1.119-.916.802-.041-.166.707-1.057 2.205-1.057 2.205zm3.101-19.704s-1.17-1.361-1.37-2.384c-.067-.376.22-.28.885.25 2.126 1.694 5.057-1.333 3.077-3.188-.681-.638-1.374-.824-2.171-.44-.995.478-.915.246-.418-.25.729-.727.677-2.056-.105-2.703-2.161-1.788-5.592.866-3.584 2.777.875.831.46.723-.503.188-1.822-1.012-3.845 1.75-2.479 3.375 1.621 1.272 2.839.65 3.963-.147.244-.118.455-.172.456-.074.002.184-1.126 2.628-1.126 2.628zm-25.942-7.703c-1.207-.077-2.05-10.515-.568-13.818 3.173-13.935 12.796-24.073 18.79-32.602 9.614-12.7 8.461-33.824 8.867-32.981l1.36.148s-1.076 12.38-.491 17.976c.61 4.92.473 5.225.092 5.712-.102.459.044 1.8-.064 2.26-4.303 18.206-14.524 36.916-25.068 51.037zm98.664-31.657-32.297-47.291 7.784-.635c2.88 4.237 30.938 44.646 30.938 44.646z"/><path fill="#e2cf00" d="M46.268 1013.313c3.707-12.483-6.216-41.547-12.444-45.352 7.313-.273 16.108-.137 15.832-.77 0 0 31.01 45.294 30.757 45.533-.24.226-34.145.589-34.145.589zm126.168-70.653c-7.534-1.003-4.551-6.785.295-7.378-.63.096.525-2.876 4.435-4.072.89-1.488 1.591-4.03 2.406-5.208-2.344.7-5.194 2.526-15.833 1.066.935-4.663 11.116-5.442 14.786-4.715 2.119.459 4.206 3.384 4.85 3.446 6.536-.996 14.838 4.485 12.313 10.032-.391.79-1.382-.942-3.58-1.684-7.105-2.396-7.596-5.955-9.228-7.552-.594-.104-3.749 5.646-3.749 5.646l.975 3.91c1.705-.14 9.275 4.203-.164 7.122-2.624 8.312-7.526 2.435-7.506-.613zm17.928-37.108c-.402-.38.323-2.967 1.282-4.455.519-.804 1.714-1.342 2.414-1.227 1.247.205 1.05 1.882-.613 6.791-.07.709-1.757.78-3.083-1.11zM40.355 870.914c-2.068-.01-.203-5.21 1.072-6.859.418-.512 2.067.584 2.15 1.337.15 1.35-2.1 6.06-3.222 5.522zm-1.4-35.374c2.523.567 6.502 2.924 8.404 4.217 2.364 1.638 1.712 4.846 3.605 5.133 1.28-.583 3.636-5.833 3.636-5.833s.594-2.7-1.073-3.533c-4.147-2.075-4.07-4.31-3.805-4.508 1.237-2.95 3.687-2.42 5.012-2.583.031-1.616-.02-5.028 3.595-4.67 3.162.281 3.466 4.461 2.136 4.498-.025-.07 5.982-.788 5.917 2.878-.036 1.987-3.603 4.523-4.71 3.598 0 0 .586 3.962-4.799 5.31-1.259 1.183-2.295 6.216-2.294 5.77 3.25-2.705 8.334-3.332 16.351-2.346-4.984 8.51-18.712 4.502-19.783 2.851-6.907-1.94-13.385-4.461-12.192-10.782Zm59.204-20.324c7.309.626 15.31-1.483 21.387-.35.692.089 1.443 1.038 1.86 1.25 3.14 1.59 6.429 1.102 11.49-.66 1.25-.435 24.426-.23 24.426-.23 5.266 7.222 14.627 20.808 14.832 20.349 0 0-12.848-.156-18.768.159-4.162.221-1.716.75-4.606.86-20.28 14.04-24.194 44.44-24.194 44.44s6.44-1.556 8.119.09c8.003-21.533 23.138-31.346 44.214-29.386 9.74.906 21.347 9.787 21.347 9.787l-20.877 15.659c-16.135-7.563-23.096 14.638-18.196 14.702l42.039-31.676s.713 2.593.641 2.68c-2.999 3.624-53.117 41.122-53.117 41.122l-2.193-2.249s-1.382 1.132-2.11 1.885c-.074 1.23.392 2.275 1.4 3.24-9.928 7.344-10.281 20.847-2.987 28.23 0 0-3.241.207-3.582.26-4.12.646-8.344-18.147-.163-26.876-4.105-7.478-6.624-17.648-7.139-18.12.108 1.197-6.503.789-6.503.789-.533 15.183-2.274 30.07-6.245 44.409l30.371.654-12.968 20.736s-14.508-.36-20.758-.774c-6.52-3.523-10.287-.859-16.415.432-8.716.223-21.546-.173-21.546-.063-4.336-8.002-9.002-13.888-15.345-20.75-.805-1.247 25.801-.435 25.801-.435s13.335-18.59 15.768-23.842c1.898-4.1 6.168-19.028 6.168-19.028.194.778-2.408-3.888-8.49-3.792-5.089 30.919-44.837 41.273-68.706 21.329l-.216-3.597 52.757-39.444 2.336 2.507c-.503-.374-32.387 24.083-31.858 23.93 9.428 4.583 20.353.903 19.111-14.097 7.486-4.987 14.117-10.8 20.637-16.735.14-.233 7.235 14.794 7.054 17.684 4.1-1.267 6.52 1.406 6.444.95-1.457-8.686 6.825-41.596 6.99-45.381-4.566-.348-10.62-.202-20.114-.566 7.6 13.668 4.933 22.914-5.742 31.308l-2.225-2.595c.904.468 15.592-11.249 3.817-28.809-.541.041-6.223-.485-6.223-.485s11.684-17.082 12.277-19.5zm56.712-56.343s33.25-.685 33.26.216c-1.093 16.523 3.042 31.603 13.064 45.56 0 0-14.726-.507-14.457-.335z"/><path fill="#131f67" d="m203.238 757.878-172.852-.475.588 256.639 172.64.279zm-15.813.992c-.013-.014-2.28 27.145 13.009 44.96-9.357-1.326-14.718-.008-20.174 3.545l.744.712c7.514-4.254 13.869-3.122 20.384-2.447l-.244 34.947c-.05 1.697-7.616.927-12.395-2.41-2.27-1.244-5.196-3.855-6.506-5.812-.399-.595-.818-1.183-.934-1.307-.438-.47-3.16-5.178-8.153-14.092-2.539-4.532-5.895-10.715-8.62-15.506-1.765-3.103-5.046-8.964-5.278-9.43-.482-.975-4.054-7.449-5.444-9.805-3.674-6.223-9.603-17.08-11.718-20.972-.467-1.01-1.18-1.476.098-1.44.284.006.567.023.73.06.225.103.5-.357.5-.357zM33.234 905.573l-.104-2.748 50.305-38.244 1.599 1.91zm48.662-67.052c-.202.069-.423.139-.665.21-1.28-5.324-.531-12.433 1-17.776 2.23-7.417 6.379-13.362 10.996-19.335 10.557-13.641 15.24-23.93 15.085-42.276l1.505.15c-.069 2.898-.487 5.078-.615 8.933-.197 4.132-.128 7.274.34 11.309.229 1.982.367 3.268.005 3.525-.172.129-.328.815-.171 1.067-.027.55-.11 1.65-.11 1.65-2.432 10.918-15.418 38.906-27.37 52.543zm6.234 24.842-2.655-3.025s-2.045-1.53-.202-3.253c5.328-4.98 5.375-11.321.245-17.032-.344-.725 1.606-4.38 1.606-4.38l4.047.069c6.3 7.116 7.998 19.672-3.04 27.621zm3.773-28.19c.127-.487-5.997-.309-5.997-.309 3.813-5.239 7.059-10.629 10.248-16.034 4.947-8.18 11.813-22.514 13.976-32.909 1.573 12.164 3.86 30.219 15.11 30.95 3.688.239 7.964-2.093 8.66-1.705l23.373-.134c4.776 8.998 9.915 14.799 16 20.958 4.378 2.318 9.719 4.156 14.882 5.352 2.933.68 3.215.23 9.001 1.004 1.527.204 3.856-.39 3.832-.39-4.63 3.367-9.962 2.402-15.835.948a14.144 14.144 0 0 1-1.016-.289l-4.448 6.166c-9.87-2.18-41.572-.699-49.99 31.17 0 0 .86.406.66.186 6.689-27.662 34.734-33.133 48.094-30.355l-1.152 1.62c-22.172-2.544-40.253 10.257-44.588 28.446l.428.36c8.373-27.496 43.376-37.618 65.029-18.515l3.983-2.6-.135 3.527-53.402 41.242-2.129-2.043s-.376.262-.802.589c-1.377 1.057-1.92 1.315-1.536 1.907.384.592 1.878 1.926 1.943 2.076-8.857 6.652-11.688 19.504-3.301 28.522.936.956.765 1.212.595.137-7.524-7.601-6.543-21.022 2.868-27.367l1.89 2.299c-4.154 8.399-6.386 21.505 4.493 22.658 3.88 9.67-.626 21.115-5.647 28.782-5.323 8.835-11.767 16.175-15.8 25.8-1.957 4.016-5.084 15.931-4.938 25.04l-1.17-.012c.006-3.717.283-8.125.321-10.942.19-13.738.167-12.923.502-13.27.11-.116.422-.238.452-.334.044-.145-.243-.43-.355-.766-.115-.344-.31-.95-.29-1.458.02-.509.538-1.25.44-1.416-2.327-7.585-2.493-21.21-10.037-27.48-3.7-2.95-8.62-3.076-14.999-.672-14.065 0-11.981.673-23.338.055-4.684-7.966-10.369-15.726-16.523-21.484-2.877-2.977-6.88-4.612-10.644-6.773 1.516-2.65 3.234-4.585 5.11-5.841.39-.512.655-1.065 1.159-1.498 38.293 3.465 46.664-30.833 44.914-29.964l-.34.272c-10.538 35.335-47.799 33.988-66.502 18.673 0 0-2.65 2.123-2.655-.211-.004-2.121.835-2.734.835-2.734l52.649-39.574c.96.568 1.992 2.454 2.423 2.243.97-.474 2.398-1.428 2.355-1.998-.033-.438-1.916-3.193-1.916-3.193 14.09-13.448 7.757-19.475 3.26-28.713zm20.073-75.673c.253-.001.492.11.67.37.32.47-.962 3.2-1.752 3.68-.747.454-.8-.076-.256-2.717.16-.775.78-1.33 1.338-1.333zm77.142.172 12.18.02.007 43.264c-9.078-11.847-13.661-25.481-12.187-43.284zm-73.873-.015c.304-.012.572.066.659.27.311.73-1.48 3.878-3.695 6.487-1.15 1.353-1.728 1.745-2.085 1.421-.3-.617-.29-1.334.767-2.46.872-.927 2.358-3.096 2.97-4.311.265-.713.529-1.357 1.384-1.407zm12.503.175c.355.003.72-.001.822.154 2.118 4.014 6.115 7.64 10.208 9.58.596.315.313 1.101.513 1.654-4.6-.64-10.629-6.68-12.236-11.085-.008-.319.338-.307.693-.303zm7.196.008c.914.862 2.353 1.904 2.675 2.886.198.603.342 1.294.202 1.62-.8.46-4.766-3.81-4.612-4.308.506-.306 1.14-.37 1.735-.198zm-17.229-.09c.39.016.987-.004 1.074.268.493 1.86-4.112 9.098-7.464 11.146-1.191.728-1.268.536-1.17-.688.065-.823.15-.757 1.374-1.834 1.747-1.538 3.656-3.911 4.708-6.016 1.348-2.7 1.02-2.87 1.478-2.875zm3.115.034c.437.002.844.14.956.319.153.243-.053.638-.196 1.126-1.52 3.957-5.29 9.65-9.713 12.88-1.72 1.221-2.01 1.213-2.133-.052-.071-.735.294-.949 1.103-1.465 3.75-2.397 7.125-6.561 8.558-10.818.279-.829.175-1.574.663-1.825.226-.117.5-.165.762-.165zm23.237 6.9c.179.284 1.46 2.145.412 1.443-.43-.327-1.212-1.153-2.456-2.464-2.943-3.102-3.032-2.91-2.972-3.68.03-1.004-.742-2.652.934-2.222 1.645 1.794 2.676 4.685 4.082 6.922zm-13.41-6.822a5.65 5.65 0 0 1 1.059.115c1.935 3.38 6.668 6.351 6.65 6.336 0 0 .117 1.47-.056 1.729-.1.452-7.518-4.78-8.339-7.907.08-.201.352-.268.686-.273zm-5.287.053c1.739 2.966 5.325 9.699 13.776 12.43.608.123 1.252 1.725.786 2.165-4.635-1.251-13.037-5.464-15.876-14.556.279-.242 1.018-.203 1.314-.04zm-2.271.572c-.29.004 3.97 11.443 16.164 14.872 1.054.308 1.672.731 1.604 1.309-.086.728-.06.818-1.234.272-3.325-1.613-8.067-2.374-12.033-.518-.618.29-1.247 1.081-.75 1.582.284.254.983.066 1.876-.253 4.614-1.653 11.67-.665 12.912 1.947.882 1.853 1.03 3.219.546 3.445-.369.173-.994-.45-2.094-1.347-3.504-2.853-7.697-3.652-11.038-.922-.723.591-1.437.488-1.69.731-.244.236.045.768.249 1.288.213.543.222.691.008 1.15-.293.627-.306 1.431-.275 2.03.076 1.458 1.117 2.715 4.114 4.643 2.335 1.502 4.161 2.347 1.32.21-4.905-3.687-5.793-5.188-2.612-3.908 3.176 1.187 7.586.01 10.71-2.187 1.063-.015 1.696-.186 2.255.193 2.318 5.058 4.208 11.788 7.29 18.314-3.702 3.857-16.587 13.295-25.76 12.943-7.92-.304-10.695-12.302-12.434-18.933-.584-2.805-1.252-5.66-1.164-9.622 0 0 .144-.107.348-.07 1.328.234 3.612.398 4.773.15 2.109-.453 2.533-.8 2.656-.512.144.339-.735 1.1-2.27 2.069-.668.421-2.612 1.284-2.407 1.41.463.289 2.815-.864 3.21-1.173.615-.48 1.036-.51 1.33-.243.344.311.415-.02-.726 2.587-1.258 2.873-1.139 3.134 1.3 4.91.848.617 1.623 1.233 1.808 1.502.234.354.391.77.5.905.412.511.16-.312-.084-1.619-.283-.967-1.306-1.93-2.032-2.397-1.33-.86-1.123-1.7-.014-4.619 3.272-8.607 2.449-12.45-1.132-14.326-1.614-.846-6.14-.628-7.568.472-.704.542-.606-.524-.493-.595 8.608-5.453 10.634-10.664 12.837-15.69zm16.587 4.246c2.436 2.245 5.467 5.292 7.292 7.459 1.002 1.155 1.529 2.34 2.326 3.552.151.22.301.471.193.573-.04.044-.39-.145-.583-.28-1.786-1.25-9.155-9.04-9.155-9.04-.338-1.277-.574-1.712-.073-2.264zm1.449 5.282s6.385 6.471 10.044 9.655c.718 1.402 2.095 3.421 2.06 3.76-.016.151-.782-.398-.782-.398-4.044-3.458-7.778-7.343-11.658-11.026.036.02-.305-1.522-.308-2.144.089-.304.477.033.644.153zm13.847 16.585c.858 1.297 1.484 2.458 1.897 3.22.68 1.208.452 1.242-.15.795-4.57-3.473-8.396-7.698-12.7-11.571-.56-.534-1.675-1.72-1.675-1.72.04.042-1.4-2.79-.493-2.731.709.256 1.174.97 1.631 1.424 2.257 2.244 6.557 6.1 11.49 10.583zm-39.914-9.3c1.888-.05 3.747.405 4.683 1.477.852.976 1.194 2.518.72 2.965-.297.28-1.344-.51-1.344-.51-4.44-2.314-5.974-1.205-8.388-.532-.344.096-.708-.763-.266-1.61.888-1.41 3.132-1.752 4.595-1.79zm27.972 2.23c4.748 4.418 9.57 9.325 14.708 13.126.72.57 1.215.936 1.543 1.243a506.64 506.64 0 0 1 2.234 4.214c-5.508-3.575-17.908-15.892-17.77-15.81.124.058-1.036-2.251-.715-2.774zm-9.31.715c.87-.007 1.82.247 2.57.524 2.395.883 3.902 1.822 1.42 1.506-3.452-.44-4.632-.465-5.897-.28-2.35.346-2.533.588-2.738.242-.537-.906 2.04-1.974 4.646-1.992zm-19.604.227a7.231 7.231 0 0 1 2.726.548c2.927 1.19 3.441 1.962.948 1.587-1.294-.195-3.667-.179-5.367.223-.538.128-1.135.416-1.274.457-.603.177-.769-.24-.51-.937.447-1.207 1.824-1.871 3.477-1.878zm21.2 3.491.605.042c-.763 3.956-5.035 3.563-6.18.163l.605-.012c2.245 3.254 3.932 1.345 4.97-.193zm2.38.21c1.975-.018 1.845 1.079-.213 1.812-1.577.561-1.755.459-1.175-.632.557-1.048.5-1.173 1.388-1.18zm-20.344.11c.186 3.565-5.186 4.21-5.509.32l.511-.021c1.754 3.06 3.79 1.217 4.428-.3zm2.388.49c.607.385.229.912-1.093 1.654-1.192.684-1.497-.145-.513-1.293.413-.37 1.09-.675 1.606-.361zm9.315.01c.235-.068.79.897.315 1.127-.282.136-.699-.259-.746-.55-.036-.23.122-.487.431-.577zm16.083.249c3.577 3.658 7.179 7.331 17.717 15.299 0 0 1.486 2.455 1.81 3.414-.258.292-.392.259-1.131-.082-6.873-4.926-13.26-10.914-18.262-16.478-.237-.785-.766-1.542-.134-2.153zm-34.172.309c.407-.012.98.83.662 1.335-.262.19-.667-.106-.843-.337-.175-.23-.169-.652-.06-.838.064-.109.147-.157.24-.16zm35.66 5.116c-.027-.127 16.64 15.554 18.781 15.258.997.545 3.47 4.998 3.47 4.998.07.141.059.402-.344.217-2.82-1.296-14.604-10.373-20.624-17.125-.44-.983-.971-2.232-1.283-3.348zm-19.85 2.267c2.909 1.306 1.651 3.972-1.418 2.27-2.419-1.365-4.34-1.492-4.327-.315.005.498.663 1.139 1.302 1.133 1.197.073 2.28.48 3.457.72 1.834.368 3.207-.08 3.669-1.11.783-1.747-1.067-3.658-2.29-3.559-1.22.1-.914.641-.393.86zm23.045 4.316c-.203-.166 8.287 8.47 19.87 15.61.45.481 1.565 2.97 1.743 3.306-.046.234-.301.004-.301.004-5.851-3.142-13.57-9.365-20.881-16.426 0 0-.702-1.563-.916-2.58.159-.068.332.021.485.086zm-19.327 3.073c-.264.033-.618.401-1.054.623-.893.452-1.176.573-3.366-.039-1.189-.332-1.382-.309-2.093.177-.621.424-.966.493-1.658.205-1.245-.519-1.823-.144-2.977.227-1.1.366-1.477-.082-2.465-.292-.131 0-.194 3.69-.064 3.809.045.04 1.03-.555 1.587-.816.96-.45.822-.379 2.221-.323 2.065.333 4.11.225 5.495-.275 1.722-.448 3.067-.362 4.255.541.72.549 1.679.46 1.121-.547-.193-.348-.628-1.63-.574-2.107.08-.712-.09-1.168-.376-1.183-.017-.001-.034-.002-.052 0zm22.053 2.912c3.908 3.48 8.726 8.788 20.07 14.948.59.96 1.388 2.236 1.892 3.23.046.276-.028.522-.318.426-7.01-4.126-10.907-6.131-20.618-15.015-.602-.9-1.244-2.431-1.742-3.68.106-.351.555.002.716.091zm-1.655 1.323 4.329 7.55-14.625-.052c3.72-2.043 7.273-4.769 10.296-7.498zm-24.242.131c-2.403.88-2.767 1.062-5.147.522-1.388-.315-1.008.43-.299.738 1.796.782 4.4.237 5.366-.378.637-.378 1.075-1.246.08-.882zm-2.47 2.324c-2.515.029-4.89.836-5.068 1.78-.035.183.17.39.562.172 1.706-.946 5.938-1.25 9.137-.174.518.174.608-.124.072-.535-1.195-.917-2.983-1.262-4.703-1.243zm31.914 3.274c4.726 4.05 9.288 7.775 19.467 13.202.73 1.481 1.788 3.254 1.974 3.408-9.54-4.303-19.93-12.78-19.93-12.78s-1.634-2.702-2.007-3.859c-.034-.39.363-.068.496.03zm3.248 6.302s8.704 6.834 18.633 11.479c.402.358 1.398 2.554 1.724 2.79.329.238-.395.236-1.11-.106-5.197-2.224-16.337-9.334-16.337-9.334-1.067-1.624-2.595-3.314-2.91-4.829zM54.98 844.709c.8-1.577 1.616-3.33 2.146-4.76 2.373.026 3.542-.795 4.385-1.784 1.203-.029 2.123-.023 3.76-.064-.05-1.498.028-3.618.028-3.618 1.664-1.579 2.793-3.403.225-6.202 0 0-.101-1.303-.135-3.524-1.186-.177-3.846-.068-3.846-.068-2.144-2.803-5.96-2.103-7.12-.013 0 0-1.714.084-2.89.087-.025.592-.233 3.215-.233 3.215s-5.018 3.154.175 6.89l-.076 3.13c.973.074 1.67.015 2.94.242 0 0-1.998 4.27-3.31 6.296-.447.108-.34-.13-.878-1.548-.648-1.671-2.116-3.5-3.362-4.401-1.69-1.21-4.004-1.589-5.617-2.64-1.555-1.014-2.652-2.32-3.147-2.078-.162.508-.347 3.425.235 5.3.82 3.086 5.612 5.06 9.615 6.541.308.185.581.464.582.565.005.51-.527.352-1.842.228-1.986-.186-2.808.315-3.507 1.883-.21.386-.705 1.052-1.108 1.493-.403.442-.823.871-.882 1.059-.059.188-.473 1.14-.883 1.934-.253.49-.673 1.002-.705 1.726-.097 2.21-.138 5.18.217 7.051.262 1.375 2.138 2.168 2.784 2.28.992.174 1.171 1.105 1.014 1.867-.772 3.756-3.114 6.051-3.86 4.816-.197-.325-.402-1.86-.458-1.842-.035.013-.394 1.305-.259 1.831.145.566.926.984 1.697.727 1.144-.381 2.045-1.428 2.76-3.81.292-.974.568-1.518 1.061-1.588.904.059 2.31 1.783 2.31 1.783-4.699 3.608-13.74 10.158-13.74 10.158l-.114-118.45 74.326.253c.396 9.39-.851 17.289-4.513 25.649-4.337 9.004-11.053 15.69-16.198 23.976-6.213 10.004-8.215 20.387-6.125 30.838-6.343 7.652-11.68 11.321-16.749 14.873 0 0-3.787-3.696-5.891-5.765 0 0 .89-.066 1.93-.104 4.808-.49 10.013-1.113 12.031-5.74.288-.513.168-.742-.172-.813-3.765.476-7.035-.019-9.17.117-5.222.333-7.431 2.003-7.431 2.003zm.567 3.409s-6.036-2.666-6.484-2.742c-2.633-.445-8.978-3.517-10.047-5.6-.14-.271-.483-4.069-.594-4.846.039-.248.146-.24.409-.061.677.433 3.306 2.024 4.277 2.463 4.01 1.81 5.56 3.096 6.537 5.812.245.68.501 1.388.647 1.534.32.322.456.295.859.01 1.723-2.054 2.53-3.767 3.331-5.975.104-.246.328-.498.197-.854-.312-.976-1.08-2.24-.29-3.194-2.515.102-4.917-1.6-4.608-3.303.676-3.153 2.122-2.582 4.834-3.037-.3-7.295 7.078-5.512 7.05-.43 8.107.644 4.262 7.574-.446 6.505 1.86 3.945-3.754 5.414-4.541 4.742-.32 1.273-2.464 5.371-2.921 6.59 6.015-3.93 15.679-2.166 17.08-2.416-3.504 6.747-14.912 5.085-15.29 4.802zm108.23-24.688c1.524 1.089 14.447 8.594 16.834 8.767 0 0 1.141 1.189 2.083 2.27.878 1.007 1.201 1.166 1.302 1.37.1.202-.332.191-.404.184-5.816-2.35-11.732-4.822-16.758-8.72-.678-.535-.83-.778-1.164-1.185-.442-.544-1.755-2.484-1.892-2.686zm4.277 6.044c5.91 3.085 10.935 6.076 16.323 7.688.769.268 1.161.287 1.544.537.383.251 2.024 1.194 2.412 1.405 2.457 1.339 2.71 1.276 2.1 1.499-.676.247-4.994-.927-8.641-2.182-6.47-2.224-8.758-3.484-11.096-5.44-.526-.506-2.981-3.231-2.642-3.507zM50.058 846.438c.5-.01 1.296.279 2.127.87.887.631 3.069 1.956 3.97 2.315.46.184.605.231.605.231l5.807 6.12-15.003 11.241s-1.214-1.153-1.6-1.538c-.365-.364-.26-.667.198-1.079.366-.33.396-1.048.335-1.4-.09-.522-.075-1.112.642-1.598.578-.393.67-1.081.642-1.272-.022-.153.314-.656.815-.993 1.053-.707 1.371-1.57 1.018-2.587-.148-.425-.228-.537.375-.907 1.071-.659 1.339-1.282 1.421-2.246.014-.153-.03-.315-.055-.435-.21-1.026.768-.765 1.57.523.436.702.559 1.853.776 3.162.256 1.544.432 1.965.524 1.747.522-1.245-.083-5.924-1.62-6.561-2.247-.932-4.123-2.827-3.558-3.57.195-.257.23-.168 1.6.42.802.344 1.545.624 1.656.627 1.587.049.625-.581.109-.648-.621-.08-2.476-1.128-2.693-1.495-.361-.61-.16-.917.34-.927zm-3.833.798c1.464-.013 1.744.351 1.757 1.517.008.688.284 1.219 1.448 2.591.474.56.791.989.76 1.208-.052.362-.193-.014-1.806-.192-.572-.064-.863-.073-1.064.202-.557.76-1.732-.035-2.453-1.159-1.72-2.68-1.11-4.145 1.358-4.167zm27.89 1.66 15.893 18.056-1.8 1.288-15.953-17.813zm-2.666 1.102 1.701 2.667s-4.942 3.893-6.242 4.992c-10.5 7.837-34.203 25.63-34.203 25.63l-.312-3.587zm-28.75.436c.312.008.667.373 1.17 1.086.436.618 1.37 1.857 2.369 2.71 1.937 1.657 2.125 1.508.549 1.662-.626.062-.83-.008-1.214.874-1.159 1.331-4.564-3.451-3.76-5.278.314-.713.576-1.062.887-1.054zm5.551 2.588c.288-.012.667.089 1.11.338.844.322.9.509.76 1.255-.135.714-.723.898-1.878-.046-.877-.766-.728-1.515.008-1.547zm25.421.483 1.867 2.237-42.537 31.707.017-3.657c1.035.125 28.314-21.725 40.653-30.287zm-32.942.31c.113-.022.29.338.76.994.957 1.337 1.836 2.218 2.839 2.92.948.664 1.054 1.034.402 1.037-.278.001-.66.272-.86.59-.403.639-.438.487-1.06.15-.887-.482-1.776-1.21-2.129-2.161-.332-.898-.367-2.262-.09-3.256.047-.174.086-.265.138-.275zm6.702 2.547c1.082-.033 1.859 1.133 1.141 2.074-.398.358-.758.53-1.55.097-1.045-.572-1.233-1.45-.375-1.94.268-.154.534-.224.784-.231zm-6.972 2.51c.227-.009.636.296 1.323.95.526.5 1.442.929 1.808 1.119.822.426.86.574.413.914-.19.145-.817.153-.988.613-.49 1.317-2.55-.217-2.743-2.1-.099-.956-.107-1.483.187-1.495zm5.186.165c1.355.055 1.992 1.518.912 2.235-.59.391-2.071-.303-2.218-1.02-.095-.463.791-1.236 1.306-1.215zm31.672 1.138c.786.001 1.421.591 1.42 1.318-.002.727-.639 1.314-1.425 1.313-.786-.001-1.42-.59-1.42-1.318.002-.727.64-1.314 1.425-1.313zm-4.252.537c.786.002 1.421.591 1.42 1.318-.002.727-.639 1.315-1.425 1.314-.786-.002-1.42-.591-1.42-1.318.002-.727.64-1.315 1.425-1.314zm-28.49 1.712a2.81 2.81 0 0 1 .271 0c1.305.061 1.372 1.21.595 1.828-.464.368-.884.484-1.484.04-1.07-.795-.671-1.803.618-1.868zm31.65 1.975c.785.001 1.42.591 1.42 1.318-.002.727-.64 1.314-1.425 1.313-.786-.001-1.426-.59-1.425-1.318.001-.727.644-1.314 1.43-1.313zm124.854.279.06 3.327-50.297 38.566-1.695-2.056zm-127.742.077-3.727 7.708-1.111-1.99-2.777-.006.856-2.3-1.631-1.842zm78.976 32.209 6.618-4.891c-2.82-13.283 8.547-18.548 19.324-14.673l6.72-5.28c-12.433-9.719-41.724-3.187-32.662 24.844zm-89.36-26.098c.786.001 1.421.591 1.42 1.318-.001.727-.639 1.315-1.425 1.313-.785-.001-1.42-.59-1.42-1.318.002-.726.64-1.314 1.425-1.313zm-4.318.315c.786.001 1.376.55 1.375 1.276a1.37 1.37 0 0 1-1.38 1.36c-.785-.001-1.42-.596-1.42-1.323.002-.727.64-1.314 1.425-1.313zm22.974 2.708-6.561 4.842c1.669 12.717-5.03 19.18-19.395 14.798l-6.961 5.09c18.759 11.98 43.365-3.383 32.917-24.73zm-20.167 1.115c.785.002 1.42.591 1.42 1.318-.002.727-.64 1.315-1.425 1.313-.786 0-1.421-.59-1.42-1.317.001-.727.639-1.315 1.425-1.314zm137.83.556c.786.002 1.427.591 1.425 1.318-.001.727-.644 1.315-1.43 1.313-.785 0-1.42-.59-1.419-1.317.001-.727.639-1.315 1.425-1.314zm-140.774.087-4.204 7.66-1.039-2.31-2.812.03.913-2.674-1.756-1.377zm135.146 1.026 1.299 2.03 2.75.066-1.039 1.929 1.983 1.896-8.964 2.022zm-145.153 5.332c.785.001 1.426.591 1.424 1.318-.001.727-.644 1.314-1.43 1.313-.785-.001-1.42-.59-1.419-1.318.001-.727.639-1.314 1.425-1.313zm-4.093.14c.786.001 1.426.591 1.425 1.318-.002.727-.644 1.315-1.43 1.313-.786-.001-1.421-.59-1.42-1.318.002-.726.64-1.314 1.425-1.313zm142.306 1.012c.786.001 1.421.591 1.42 1.318-.002.727-.64 1.314-1.425 1.313-.786-.001-1.421-.59-1.42-1.318.002-.727.64-1.314 1.425-1.313zm14.385.227.057 2.921c-13.124 10.679-40.72 31.284-40.72 31.284l-1.71-2.04s28.075-21.146 42.373-32.165zM47.24 885.985c.786.001 1.42.591 1.42 1.318-.002.727-.64 1.32-1.425 1.318-.786-.001-1.421-.596-1.42-1.323.002-.727.64-1.314 1.425-1.313zm142.368.546c.786.001 1.421.59 1.42 1.318-.001.727-.639 1.319-1.425 1.318-.786-.002-1.42-.596-1.42-1.323.002-.727.64-1.314 1.425-1.313zm-4.026.23c.786.001 1.421.591 1.42 1.318-.002.727-.64 1.32-1.425 1.318-.786-.001-1.426-.596-1.425-1.323.002-.727.644-1.314 1.43-1.313zm15.896.492-.126 3.718c-12.717 9.994-38.729 29.844-38.638 29.856l-1.958-2.509s28.515-22.641 40.722-31.065zm-156.849-.8-3.933 8.17-1.687-2.205-2.472-.16.593-2.21-2.268-1.432zm135.835 3.449 2.502-.436-.44 2.368 1.754 1.71-9.217 1.858 4.468-7.634zm13.691 39.852c1.863 2.588 1.74 5.411.957 5.843-.824-.43-1.538-1.177-2.39-1.52-4.29-1.719-7.715-3.13-8.323-5.65-2.327-5.703 8.203-.825 9.756 1.327zm-22.533-15.175 14.463-10.853s2.212 1.059 2.63 1.54c.148.527-.251.688-.84 1.179-.272.32-.442.627-.458 1.32-.018.747.248 1.082-.079 1.41-.544-.026-.98.63-.958 1.163.017.406-.559.856-.896 1.161-.598.542-.774.655-1.16 2.495-.04.185-.027.664-.308.911-.835.068-1.444 1.958-1.825 2.078-.61-.038-1.577-.728-1.812-1.747-.152-.662-.108-1.947.063-2.774.203-.985.296-1.878.229-2.115-.155-.549-.548-.213-.543.558.001.313-.13 1.25-.347 2.133-.217.886-.803 2.061-.542 2.76.39 1.042 1.83 1.485 2.48 2.037 1.707 1.453 2.078 2.161 2.272 2.483 1.363 2.315 1.366 2.709 1.02 4.448-.199 1-1.254.829-1.888.42 0 0-4.056-2.74-5.82-4.1-2.674-2.062-4.55-4.167-5.68-6.507zm5.466 7.484c1.548.583 5.576 3.297 5.576 3.297l-3.686 7.063c.667 1.108.93 3.858.93 3.858 4.647-.322 7.15 6.926-.085 6.245.818 4.48-6.987 7.976-6.758-.048-8.123.57-5.38-7.937-.378-6.332-.143-3.606 2.457-4.07 4.292-4.952 1.507-1.571 2.435-5.13 2.435-5.13l-.364-1.087c-1.545 2.486-8.105 3.19-15.309 1.858 1.96-4.273 7.878-4.142 13.347-4.772zm-14.34 5.358c-.248.852-.254.842.857.74.562-.052 2.821-.044 4.398.017 2.899.213 7.463.24 9.756-1.37.443-.39.687-.364.77-.15.193 1.043-2.037 4.467-2.037 4.467l-3.673 1.87s-1.502.063-3.363.019l-.038 3.054c-1.46.795-3.968 4.208.048 6.835l-.139 3.325 3.545.066c2.348 2.087 4.263 2.08 6.427.122l4.087.01-.01-3.593c2.018-1.494 2.31-4.036.254-6.07l-.044-3.646-3.145.014s-.65-.467-.667-.838c-.002-.239 2.304-4.332 2.745-4.916.573-.76.417-.325 1.328 1.432 1.304 2.514 2.597 3.54 5.91 5.03 2.958 1.328 4.014 1.947 4.871 2.707.683.604 1.086.415 1.352-.486.574-2.002.403-4.007-.787-5.843-2.51-3.875-6.894-4.06-7.59-4.957-.09-.213.802-.459 1.763-.854 1.661-.93 4.096-3.748 4.41-4.88-.055-.546.338-2.265.626-2.645.332-.675.37-.99.358-2.805-.295-1.036-.022-2.384.118-2.849.152-.941-.387-2.052-1.153-3.415-.285-1.265-.219-.936.671-3.785.145-.46 1.147-4.428-.125-4.702.016.035.133.157.168.223.214.398.328 2.112.134 2.598-.077.192-.223.689-.325 1.107-.777 3.188-1.234 3.987-1.93 3.289-.166-.167-.803-.405-1.292-.706-.925-.57-.845-.849-.616-1.913.057-.162.426-1.624.387-1.58-.201.503-.338 1.8-.97 2.104-.34.073-.807-.207-1.687-.911a18.662 18.662 0 0 0-1.057-.738s10.454-8.11 14.339-10.798l-.261 120.361-73.777-.09c-.91-7.456 1.533-17.316 5.565-27.19 2.492-6.101 6.063-10.625 10.09-16.084 7.722-10.41 13.569-20.983 11.348-34.402-.29-1.991-.584-2.945-.482-3.48.94-1.624 4.662-6.545 7.38-8.592 3.99-3.003 9.54-7.491 9.985-7.224 1.318 2.363 2.88 4.277 4.952 5.721.364.367.373.69-.47.851-5.498-.054-11.16 1.054-13.005 5.55zM34.697 893.02c.787 0 1.422.59 1.42 1.317 0 .727-.638 1.315-1.424 1.314-.786-.002-1.421-.591-1.42-1.318.002-.727.64-1.315 1.425-1.313zm137.922.52c.786.002 1.421.591 1.42 1.318-.002.727-.639 1.315-1.425 1.313-.786 0-1.42-.59-1.42-1.317.002-.727.64-1.315 1.425-1.314zm3.092 3.614c.786.002 1.42.591 1.42 1.318-.002.727-.64 1.315-1.425 1.313-.786 0-1.421-.59-1.42-1.317.002-.727.639-1.315 1.425-1.314zm-4.604.553c.786.001 1.421.59 1.42 1.318-.001.727-.639 1.314-1.425 1.313-.785-.001-1.42-.59-1.42-1.318.002-.727.64-1.314 1.425-1.313zm-5.087 2.99 2.572-.113c-.324.853-.499 1.736-.683 2.62l2.091 1.427-9.064 1.411 3.919-7.42zm-6.222 21.652-15.225-18.252 1.843-1.374 15.348 18.053zm-1.83-17.712c.785.001 1.42.591 1.419 1.318-.002.727-.639 1.315-1.425 1.313-.786-.001-1.42-.59-1.42-1.318.002-.726.64-1.314 1.425-1.313zm32.045 2.094c1.236.891-.004 2.137-1.185 1.643-1.025-.402-.946-1.365-.137-1.749.505-.22.89-.165 1.322.106zm1.645.85c1.27.021 2.666 2.806 2.407 3.624-.38.95-.728.984-2.515-.42-1.767-1.387-1.792-1.445-1.075-2.193.398-.424.589-.985 1.183-1.01zm-30.183.46c.786 0 1.42.59 1.42 1.317-.002.727-.639 1.32-1.425 1.318-.786 0-1.42-.595-1.42-1.322.002-.727.64-1.315 1.425-1.313zm-4.41.499c.785.001 1.42.59 1.42 1.318-.002.726-.64 1.314-1.425 1.313-.786-.001-1.421-.591-1.42-1.318.001-.727.639-1.314 1.425-1.313zm31.235.989c1.403.194 1.768 1.175 1.122 1.904-.88.985-2.846.086-2.377-1.088.213-.533.726-.807 1.255-.816zm2.515 1.485c.55-.043 1.376.661 2.28 1.828 1.015 1.312 1.097 1.735.807 2.533-.423 1.164-.686 1.377-1.598.24-.344-.428-1.142-1.433-1.712-1.987-1.216-1.183-1.407-.883-.679-1.783.338-.418.572-.806.902-.831zm-3.302 1.371c1.26.604 1.379 1.388.633 1.942-.878.442-2.424-.087-2.722-.89-.437-1.175.91-1.769 2.089-1.052zm2.133 1.738c.713-.04 1.3.641 2.17 1.945 1.48 2.221 1.56 2.968.291 4.429-.913 1.05-1.005 1.107-1.894-.572-.725-1.371-2.108-2.978-3.389-3.942-.535-.403-.722-.966-.336-1.004a30.9 30.9 0 0 1 1.054-.046c.686-.022.934-.107 1.31-.447.25-.225.515-.347.794-.363zm-5.123 1.723c.664-.03 1.52.305 2.157.992.722.705.635 1.348-.785 1.475-.64.23-2.38-.828-2.386-1.537-.006-.595.429-.905 1.014-.93zm3.343 2.578c.034-.002.068-.002.102 0 .596.027.903.56 1.571 1.805 1.025 1.912.726 2.951-1.054 3.794-1.207.571-2.128.742-2.282.086-.045-.19-.045-.741-.144-1.276-.131-.712-.306-1.454-.986-2.405-1.084-1.517-1.275-2.055-.083-1.607.63.237 1.318.21 2.041-.138.32-.155.59-.247.835-.26zm-6.038 3.062c-.414-.009-.68.225-.57.85.376.172.97.014 1.417.164.604.202.975 1.11 1.62.963.07-.765-1.557-1.958-2.467-1.977zM58.683 934.604c-3.321-1.47-11.551-4.874-15.518-4.93-7.354-1.922-7.85-1.055-10.428-1.67 13.662-3.254 23.048 3.059 26.484 6.124 1.56 1.443.71 1.028-.538.476zm8.64 29.792c7.789 12.55 15.045 26.705 27.224 47.666l-1.175.338-46.594.002c2.351-23.132-11.122-45.196-12.038-44.333 10.555.196 19.32-1.673 21.176-5.267l-1.503-.402c-6.152 4.894-15.051 5.105-21.187 3.58.162-12.055-.547-24.788-.119-36.838 7.258-.488 12.927 1.983 16.94 6.895 6.746 8.257 11.312 18.75 17.275 28.359zM46.016 930.96c1.869-.13 12.06 3.769 16.617 6.675 1.265 1.215 3.112 3.325 3.114 3.53.006.561-.893-.132-5.295-2.464-3.332-1.74-6.789-3.13-10.155-4.466l-.462-.184s-.25-.266-.677-.573c-1.198-.86-3.526-2.387-3.142-2.518zm4.95 4.404c-.102-.018 10.108 3.422 18.226 9.423 1.079.798 2.4 3.77 2.4 3.77-.723-1.264-13.549-8.39-18.053-10.025l-2.574-3.168zm3.593 4.55c.557-.308 15.483 7.874 17.668 9.984.992.703 3.31 4.117 3.316 4.803.007.61-.719.082-2.054-1.063-6.87-5.955-16.801-10.45-16.882-10.351zm2.763 4.745c7.01 2.757 15.81 9.374 20.251 13.31 1.11 1.02 1.902 2.497 2.05 3.184.093.426-.14.397-.23.624-5.753-6.129-18.408-13.135-20.087-13.684.012.387-1.39-2.375-1.984-3.434zm23.258 19.108c.806.762 2.08 3.434 1.794 3.76-.141.16-.127.075-.465-.143-1.841-1.7-11.301-9.491-19.198-13.866-.742-.345-3.224-3.98-2.696-4.049 4.13 1.254 15.932 10.002 20.565 14.298zm-17.08-8.707c.137.01.385.173.808.39 7.263 3.72 17.783 13.079 19.777 15.327.453.692 1.166 1.963 1.112 2.74-.092.612-.356.092-3.29-2.588-4.715-4.287-10.14-8.436-15.892-11.923-1.105-.705-.893-.795-1.694-2.09-.803-1.298-1.121-1.877-.82-1.856zm46.494.217c5.19.146 7.214 3.784 10.398 10.49 2.604 6.606 3.678 12.656 3.788 17.472.008.323-.626.047-.915-.025-1.39-.348-3.12-.673-5.125-.207-1.474.341-2.874.3-1.36-.613.488-.295 1.811-1.424 2.515-1.827 1.425-.817.56-.809-.854-.167-1.07.485-1.786 1.1-2.227 1.198-.273.06-.102-.769.16-1.363 1.517-3.431 1.978-5.464-.269-6.104-.608-.174-1.428-.696-1.814-1.044-.309-.279-.57-1.39-.667-1.435-.104-.048-.178 1.012-.177 1.173.006.552.77 1.671 1.69 2.284 1.561 1.04 1.87 1.327 1.015 3.782-1.197 3.44-1.452 4.281-1.672 5.08-.126.459-.37 1.24-.494 1.745-.476 1.95-.422 3.654-.338 5.276.508 3.623 4.725 5.417 10.395 3.414.536-.192.759-.018.759-.018-4.521 4.24-9.592 6.944-12.56 15.518-3.783-7.083-9.15-12.637-18.085-14.874l-.13-1.478c3.116 1.388 9.158 3.279 13 1.17 2.056-1.294 1.433-2.132-1.062-1.241-2.971 1.06-8.333.928-11.008-.472-.544-.285-1.1-.04-1.257.007-.139-.832-1.421-3.97-1.23-5.147-.11-.166.816-.172.993.048.739.916 4.495 3.645 8.404 3.44 1.943-.103 3.541-.647 5.232-2.291.141-.116.829-.198.922-.295.151-.156.043-.39.037-.473-.042-.126-.294-.47-.459-.858a1.436 1.436 0 0 1-.224-.963c.006-.227.168-.346.295-.504.147-.303.107-.688.027-.894a.522.522 0 0 1-.117-.809c.529-.552-4.542-4.85-5.536-4.84-.36.003-.149.615.58 1.065 2.58 1.59 4.457 3.664 4.03 3.934-.33.208-1.485-.25-2.662-.509-2.361-.516-5.196-.847-8.277 1.202-1.152.872-4.195.998-4.195.998-.036-1.533-7.007-18.662-7.021-17.918 2.552-2.744 10.57-9.237 18.597-12.028 2.47-.744 5.12-1.122 6.898-.898zm-30.42 3.783 14.562.231c-3.665 1.699-10.328 7.803-10.328 7.803-1.896-3.545-2.474-5.313-4.233-8.034zm-12.59 1.756c1.085.007 12.627 8.738 14.267 10.798.198.248 1.366 1.393 2.599 2.54 2.984 2.777 4.214 4.381 4.225 5.525.006.54-.527.187-1.324-.627-5.974-6.163-9.863-9.509-17.253-14.238-.839-.418-3.44-3.633-2.555-3.99.012-.003.024-.009.04-.008zm39.532 1.668c-.325-.011-.272.278-.096.544 1.832 1.503 6.674 1.444 8.346.235 1.516-1.097-.47-.52-1.09-.276-1.448.572-2.999.505-5.013.006-1.174-.29-1.822-.498-2.147-.51zm4.461 2.449c-1.693.011-3.465.478-3.071 1.055.143.21.605.604 1.713.05 1.6-.729 4.88.235 4.977.258.335.083-1.09-.87-1.568-1.067-.527-.216-1.281-.302-2.051-.296zm-40.807 1.561c6.205 3.526 13.758 10.572 18.29 15.603.754.867 1.298 1.932 1.304 2.558.01.902-.199.402-4.316-3.471-3.23-3.067-8.104-7.242-11.333-9.492-1.94-1.312-2.286-1.483-3.197-3.038-.855-1.46-1.163-2.183-.748-2.16zm38.694 1.237c-1.169.51-2.718.399-4.225-.083-1.365-.437-1.046-.065-.53 1.315.235.627.38 1.516.381 1.647.004.306.003.328.967-.169.84-.433 1.018-.582 2.809-.194 1.82.395 1.85.25 2.706-.161.747-.358.902-.574 1.411-.383.998.374 2.127.534 3.408-.087.982-.476 1.302-.153 1.756.06.616.287.855.105.614-.464-.095-.226-.274-1.198-.278-1.505-.009-.582-.163-1.108-.428-.985-.98.454-1.776.937-2.71.92-1.712-.032-3.212-.986-5.88.089zm-75.692 1.076c15.446 17.866 12.662 43.58 12.147 43.371l-12.133.03zm40.273 3.67c6.175 4.022 13.521 11.025 17.591 15.866.692.836.127 1.099.472 2.107.126.374-.558-.179-2.518-2.134-2.443-2.436-6.46-6.098-9.106-8.225-2.898-2.33-3.735-2.915-4.351-3.702-.486-.658-2.468-3.82-2.088-3.911zm34.797 1.698c-.065-.002-.13.001-.194.004-2.201.092-3.323 2.372-1.44 3.987.708.607 1.834.968 1.83.642-.001-.078-.354-.407-.602-.583-1.57-1.12-1.405-2.861.384-2.877.62-.005.658.2 2.09 1.153 1.684 1.122 3.674 1.127 3.652.002-.016-.827-.348-1.675-1.854-1.541-.396.035-.923.073-1.386-.036-.443-.104-.822-.355-.997-.427a4.066 4.066 0 0 0-1.483-.324zm-30.791 5.203c4.725 2.945 11.214 9.6 14.53 13.523.76.92.808 1.935.5 2.481-.074.108-.655-.228-.655-.228-3.834-4.192-8.184-8.003-12.454-11.874 0 0-2.533-3.785-1.921-3.902zm45.849 6.429-1.023.468c-1.544-2.15-2.961-2.182-4.152.325l-.76-.178c-.566-.58 2.05-6.03 5.935-.615zm-.226-1.832c.426.015 1.172.23 1.344.632.194.37-.025.79-.61.77-.089-.003-.653-.646-.934-1.04-.207-.24-.118-.37.2-.362zm-17.379 2.6-1.144.046c-2.173-2.652-3.805-.877-4.784.227l-1.224-.156c.2-2.908 5.76-3.912 7.152-.118zm11.133-2.244c.172.003.341.033.5.09-.451.632-.529 1.16-.632 1.732-.445.17-1.08.523-1.55.068-.875-.738.476-1.914 1.682-1.89zm-17.869.268c.54.003.379-.03.144.248a4.946 4.946 0 0 0-.736 1.234c-.074.313-.13.426-.447.436-.605.016-1.83-.185-1.82-.177-.466-.408 1.462-1.7 2.86-1.741zm6.92.381c.36-.04.274.437.158.624-.228.248-.319.33-.446.019a1.305 1.305 0 0 0-.232-.357c-.178-.212-.158-.223.063-.258.099-.016.33-.026.456-.028zm18.688 2.144c1.332-.03.438 2.06-1.417 2.563-2.048.956-4.395.723-6.782-.541-1.361-.72-1.772-1.479-.586-1.175 4.471 1.147 5.559.938 8.26-.672.16-.127.332-.157.525-.175zm-43.037-.522c4.447 3.497 7.791 7.456 11.345 11.104.709.813 1.04 1.596.902 2.126-.172.66-1.63-.916-1.63-.916.036.015-8.677-8.618-8.677-8.618s-2.209-3.678-1.94-3.696zm13.305 1.227c.31.01.923.143 1.913.381 4.281 1.209 5.578 1.166 8.042.125 1.57-.664 2.218-.567 1.545.434-1.24 1.842-5.605 2.039-8.88 1.004-.866-.274-1.628-.753-2.462-1.334-.447-.432-.555-.623-.158-.61zm19.754 1.253c.256-.015.734.259 1.315.565 3.585 1.888 6.234 1.547 8.448.288.4-.337.617-.175.67.152.186 1.147.24 1.971-.327 2.522-.33.32-.89.465-1.736.726-3.476 1.075-7.704.296-8.509-2.116-.26-1.24-.426-2.104.139-2.137zm-28.485 5.126a.154.154 0 0 1 .04 0c.252.035.83.505 1.742 1.465 4.767 5.02 7.405 7.903 6.92 9.352-.045 0-.076.313-.277.151-2.623-2.102-4.764-4.4-6.356-6.8-1.746-2.632-2.462-4.137-2.07-4.168zm38.5 3.588c-4.036 2.844-8.939 9.622-9.383 12.964-.086.639-.013 1.118-.269 1.349-.203.183-.659.2-1.269.087-.374-.064-.284-.102-.372-.492-.344-1.53 1.248-5.378 4.535-9.911 1.725-2.379 5.639-5.588 6.73-5.607.729.278.019 1.64.028 1.61zm-29.843-1.596c.284-.007.724.13 1.34.376 3.615 1.441 4.963 1.966 7.302 3.736 4.358 3.298 9.194 11.123 7.769 11.852-.626.32-1.07.117-1.322-.61a17.444 17.444 0 0 0-1.047-2.157c-2.916-4.978-6.714-8.405-12.072-10.833-1.98-.896-2.181-.798-2.33-1.546-.112-.562-.006-.81.36-.818zm29.781 2.92c.363-.027.449.585.323 1.816-.102 1.004-.166.983-1.379 2.157-1.936 1.446-4.23 4.844-5.295 8.306.002.12-.099.384-.282.53-.498.394-1.126.2-1.555.191-.309-.152-.223-.779-.167-1.131.89-3.144 3.076-7.003 6.496-10.39.962-.953 1.54-1.454 1.86-1.479zm-29.035.043c1.916-.038 8.715 4.679 11.462 8.802 1.796 2.694 2.28 3.8 1.865 4.19-.22.207-1.188.239-1.693.055-.46-.168-.636-.817-1.495-2.317-2.242-3.913-5.477-6.751-8.982-8.253-.653-.28-1.002-.456-1.212-.673-.234-.448-.534-1.711.055-1.804zm1.027 3.499c.594.105 2.238 1.095 3.612 2.031 2.43 1.656 6.124 6.711 5.358 7.433-.246.232-1.096.24-1.533.08-2.597-4.294-5.975-6.341-7.346-7.536-.416-.648-1.386-2.177-.091-2.008zm-5.414.748c.113-.026.568.39 1.394 1.195 2.44 2.379 3.987 5.013 3.626 6.342-.306 1.124-.661.508-3.45-4.435-1.174-2.08-1.735-3.063-1.57-3.102zm33.45.12c.053 1.367-.067 1.703-.225 2.428-.107.493-.46.722-.795 1.106-.833.956-1.78 2.61-2.258 3.947-.402 1.08-.214 1.338-1.65 1.19-.669-.082-.507-.248-.243-.96.908-2.34 3.085-6.127 5.171-7.71zm-27.794 2.53c.032-.7 6.55 5.39 5.652 6.073-.85.136-1.356.164-1.711-.117-.695-1.448-3.8-4.195-3.8-4.195zm27.422 1.96a.096.096 0 0 1 .041 0c.292.056.124 3.795-.12 4.103-.465.217-1.346.235-1.816-.003-.287-.144-.374-.41-.265-.7.272-.724 1.692-3.31 2.16-3.4zm-24.652 4.073c-.206.297-1.477.347-1.956.011-.153-.108-.3-1.962-.12-2.298.488-.293 2.238 1.887 2.076 2.287z"/><path d="m146.473 758.147.817.995-4.783.016c.781.612 18.44 33.63 41.029 71.781 3.739 6.695 10.889 9.118 19.196 9.424l-21.945-32.82c2.346-1.176 7.006-4.33 9.82-3.739.172.8 1.009.483 1.022-.227l1.018.02.357.517 4.277.007.35-.466 3.686.496c-9.83-11.25-14.995-28.569-13.276-45.464l-32.673.014-.434-.531zm-3.966 1.01c-.018-.013-.031-.02-.03 0zm-37.604 21.93c-3.735 11.09-12.939 20.206-18.41 29.39-5.866 10.021-7.257 18.749-5.63 28.298l1.07.087c12.495-15.709 22.184-34.486 27.62-52.958.12-.402-.081-1.113.02-1.52-.23-.49-.028-1.017.119-1.16.314-.305.2-1.504-.03-3.487-.576-5.89-.452-10.512.09-15.85.417-4.097.395-4.742.395-4.742l-2.133-.033c.38 6.976-.632 15.57-3.111 21.975zm51.354-21.424 3.506.072c.521 9.914 9.544 11.218 10.94 11.075-2.317 6.7 1.484 14.062 10.668 15.121-2.119 6.211 1.596 14.41 8.945 14.199l.776.455c-.475.895-.58 2.735-.552 2.763-1.634.108-2.52.327-3.582.52-9.473-13.263-30.701-44.205-30.701-44.205zm31.163.05c-1.083 11.072 1.29 26.284 6.895 35.28 0 0-.18.602-.298.766-.537.746-.8.099-1.124-.504-1.194-2.048-3.455-2.37-4.448-1.233-2.194 2.756.177 3.848 2.016 5.409-7.526-.438-10.02-8.104-8.274-11.892-.04.723.377 1.815.927 2.59 2.11 2.97 5.204.472 4.323-1.877-.365-.972-1.711-2.594-1.711-2.594s1.833-.247 2.583-.665c.7-.4 1.143-1.111.965-2.085-.143-.781-.18-1.123-.63-1.827-.555-.643-1.549-1.088-2.345-1.04-1.554.093-1.745 1.082-2.763 1.758-.25-1.782-1.48-3.139-3.494-2.805-1.532.253-2.638 1.758-1.704 3.646.472.964 1.138 1.258 1.807 2.094-10.813-1.138-9.612-13.015-8.416-12.8 0 0 .326-.056.229.398-.622 2.906 3.278 4.65 4.993 2.54 1.093-1.712-1.244-4.42-1.244-4.42s1.56-.308 2.27-.684c2.826-1.502-.175-5.835-2.805-4.777-.923.387-1.159 1.177-2.06 1.597-.6-.62-.635-1.297-1.715-1.856-2.962-1.532-4.823 2.079-3.185 3.671.673.646 1.86 1.235 1.627 1.313-9.193-1.089-9.087-9.99-8.876-9.927zm-79.031-.053 1.266.002c-.385 5.28-1.209 12.245-.688 17.395.61 4.92.636 5.618.254 6.105-.523.542-.247.798-.145 1.24.136.808.148.817.023 1.277a101.75 101.75 0 0 1-4.372 12.728c-5.945 15.081-15.629 31.52-23.216 40.137-.004-.031-.346.027-.35-.004-2.05-12.045 2.396-22.074 4.715-26.19 4.7-8.344 12.073-15.461 16.46-24.204 3.732-7.44 6.493-16.383 6.053-28.486zm46.578.024 30.753 44.409-5.632 2.541-31.47-46.799Zm18.057 8.694c.798.001 1.441.603 1.44 1.341-.001.739-.647 1.339-1.445 1.337-.798 0-1.447-.603-1.445-1.341.001-.739.652-1.338 1.45-1.337zm10.198 14.809c.808.001 1.462.609 1.46 1.356-.001.747-.657 1.352-1.465 1.35-.808 0-1.462-.608-1.46-1.355 0-.747.657-1.352 1.465-1.351zm-73.477 2.523c.522 1.934-9.846 30.93-24.536 49.367l6.399.134.196.653c8.943 12.26 3.315 23.082-3.934 28.102l2.501 3.094-2.259 1.686-2.251-2.488c-18.37 12.7-54.224 40.822-54.224 40.822l.19 4.519 2.797-2.03c18.13 16.29 56.64 15.463 66.802-18.087l2.706.06c-6.155 24.594-31.028 34.183-49.78 30.073l-4.405 5.833 1.176.584c-.217-.312-.415-.42-.096-.706l3.743-4.437c28.06 3.37 45.033-11.297 50.569-31.193l3.58.063c-3.103 16.715-11.604 31.422-23.709 42.924-8.72-.047-24.052-.256-24.052-.256 5.573 5.013 16.207 20.301 16.63 21.851 0 0 10.967.34 22.733.094 4.315-1.789 10.088-2.5 12.78-1.239 4.732 2.216 9.167 10.415 11.144 23.56.509 3.387.973 4.823 1.115 5.506.025.123.346.213.393.19.18-.088-.288.598-.309 1.107-.02.508-.004 1.276.258 1.543.331.338.29.56.244.705-.03.096-.671.643-.671.643-.11 7.656-.077 14.607-.547 24.024l1.627.012c.017-15.154 4.986-29.167 12.621-38.807 4.643-6.327 9.556-13.146 12.279-19.642 3.064-7.312 3.499-15 1.877-21.49l-1.115.055c-6.692-4.259-9.404-13.331-1.14-19.796l-2.914-3.52c-8.252 5.88-10.165 16.75-1.645 25.763l-3.34-.015c-8.312-9.631-6.447-20.672 3.195-28.539l-2.15-2.535 2.346-1.905 2.108 2.142 53.819-41.45-.03-4.545-4.124 3.083c-24.068-20.655-59.843-6.246-65.131 18.578l-3.277.027c6.92-26.712 32.25-34.223 50.555-30.64l4.531-6.317c-3.323-.869-6.561-2.915-9.617-5.332-1.287-1.019-2.1-1.642-3.036-2.661-8.657-8.493-14.523-20.277-14.799-20.297l-23.583-.092c-3.463 1.577-9.391 3.368-12.638.934-6.971-5.227-9.294-15.751-10.24-22.523-.288-2.107-.528-5.774-.74-6.99-.132-.223-.39-.237-.622-.199zm83.589 11.836c.789.002 1.426.598 1.424 1.328-.001.73-.64 1.319-1.43 1.318-.788-.002-1.425-.593-1.424-1.323.001-.73.64-1.324 1.43-1.323zm3.066 1.562c1.16 1.395 2.19 2.834 2.764 4.353-.542-.016-1.051.14-1.653-.297-.137-1.534-.818-2.456-1.675-3.48zm-4.316 1.948c.476.216.851 1.883.518 2.168-.575.112-.966.073-1.16-.112-.287-.44.262-1.972.642-2.056zm-93.82 14.319 21.895.059c3.804 2.707 7.528 2.356 12.936.199l24.345.039 1.372 2.313-61.739-.1c.346-.857 1.192-2.51 1.192-2.51zm-1.812 3.608 63.007.101 1.587 2.374-66.159-.107zm6.076 3.454 7.07.012-2.627 4.108-7.295-.012zm15.694.026 6.747.01-3.01 4.103-6.686-.01zm21.823.035-2.847 4.103-6.86-.011 2.954-4.065zm8.46.014 6.758.01-2.535 4.104-6.998-.011Zm-90.767.492c-4.382-.054-3.58 5.323-3.167 5.155-2.749-.587-4.784.619-5.126 2.786-.272 1.72 1.54 4.175 4.718 3.838-.423.45.003 3.051.426 3.289 0 0 .053.377-1.63 3.611-1.998 3.839-2.405 4.02-3.303 1.495-.965-2.716-2.463-4.093-6.368-5.855-1.04-.469-2.511-1.286-3.27-1.817-1.743-1.219-1.763-1.2-1.686 1.27.101 3.207 1.15 4.615 4.848 6.514 1.81.93 5.276 2.244 5.904 2.239.442-.004 2.063.672 4.467 1.862.47.232 2.077 1.054 4.136 1.242 2.186.146 7.112-.323 9.969-1.844 1.603-.853 2.223-1.618 3.409-3.804 0 0-4.046.187-5.893-.265-3.84-.214-5.749-.012-8.663 1.382-2.438 1.166-2.575 1.375-1.554-.556.467-.887.901-1.93 1.295-2.97.426-1.033.538-1.12 1.603-1.218 2.337-.216 3.67-1.46 3.89-3.623.059-.58-.034-1.192-.034-1.192 1.59.22 4.847-.504 4.75-3.552-.086-2.74-2.196-3.373-4.795-3.566.337-1.403-.766-4.383-3.926-4.421zm.05.85c3.84.031 3.744 3.29 2.068 5.138l-2.04-1.558-1.65 1.403c-1.79-1.062-1.775-5.01 1.623-4.983zm105.038.21 1.883 2.581-3.898-.006zm-71.68 3.589 7.229.011-2.908 3.767-6.834-.011s1.534-2.405 2.513-3.767zm22.785.036-2.74 3.914-6.317-.01 2.54-3.834zm8.466.014 6.532.01-2.591 4.175-6.456-.01zm15.372.025 6.614.01-2.699 4.175-6.522-.01Zm14.983.024 6.814.011-2.822 4.174-6.568-.01zm-94.878.623 3.243 3.034-3.172 2.929-3.259-2.892zm8.23 2.963c-.581 3.517-4.245 3.32-5.283 1.598l1.496-1.574-1.828-1.665c1.782-2.635 6.055-1.015 5.616 1.641zm-10.903-1.701-1.76 1.827 1.924 1.716c-1.244 1.594-6.015 1.46-5.051-2.379.612-2.437 3.295-2.881 4.887-1.164zm111.34-.268 2.005 2.559-3.77.022zm-78.406 3.01 80.829.373 2.159 2.45c-28.223.404-55.855-.51-84.686-.577zm-28.421 1.545c3.2 1.822.826 5.648-2.61 4.991-2.56-1.044-3.08-3.504-.772-4.927l1.803 1.38zm27.714 1.512-2.205.006-2.153 2.32c8.107 7.927 7.796 14.792.217 20.764l3.038 3.157c8.5-6.704 10.402-17.255 1.103-26.247zm8.343.316c4.54 6.587 8.454 19.057-5.132 30.452l-1.634-1.838c11.83-10.651 9.072-19.628 3.799-28.538zm1.263.163 18.354.096c-3.955 13.845-6.727 21.997-7.182 43.666l-5.305.02c.578-.5-2.722-13.089-6.592-17.459 8.157-12.76 3.788-19.97.725-26.323zm-57.733-.074c.317-.002.966.379 2.239 1.087 1.141.635 2.624 1.44 3.296 1.79 2.518 1.31 3.769 2.547 4.483 4.431.534 1.41.2 1.438-1.34.107-1.146-.99-2.368-1.844-5.421-3.785-1.076-.684-1.417-.573-.794.259.45.599 1.417 1.28 3.377 2.39 1.422.805 3.378 2.414 3.223 2.65-.14.216-.384.197-1.069-.082-.316-.128-1.34-.518-2.27-.87-3.994-1.506-5.698-3.352-5.932-6.416-.081-1.067-.151-1.56.208-1.561zm83.76.201s.552.676.623.957c.152.608-.493 1.165-2.526 1.998-.698.285-1.278.44-1.26.816.091.884 1.918 2.235 1.692 3.438-.422.92-2.965 1.82-3.602 2.905.003.747 1.649 1.893 1.412 2.908-.13.302-.662.611-1.45 1.242-1.614 1.291-1.715 1.489-1.125 2.497 1.369 2.341 1.42 2.169-.458 3.827-1.892 1.671-1.857 1.65-.957 3.108.97 1.57.925 1.5-.383 2.502-1.283.983-1.23 1.184-.547 2.408.661 1.184.812 1.201-.306 2.115-1.306 1.067-1.551 1.179-.634 2.526.949 1.393 1.02 1.334-.056 2.47-1.018 1.076-1.136 1.125-.586 1.859.69.92.82 1.165.093 2.176-.786 1.093-.783 1.015-.066 2.035.604.859.498 1.813.498 1.813l-2.27-.008s-.015-1.208-.28-1.652c-.64-1.078-.623-1.412.143-2.366.787-.979.657-1.063-.072-2.044-.738-.993-.632-.983.331-2.11.883-1.034.929-1.523.429-2.115-1.186-1.404-1.182-1.994.015-2.92.913-.705.999-1.02.214-2.233-.768-1.186-.865-1.295.552-2.474 1.448-1.205 1.433-1.18.465-2.55-.938-1.328-.887-1.417.624-2.71 1.53-1.308 1.55-1.311.553-2.966-.933-1.55-.94-1.523.891-3.027 1.823-1.4 2.444-1.578.631-3.596-1.01-1.599-.288-1.755 1.376-2.548 2.919-1.643 1.59-1.542.37-3.989-1.02-1.64-.435-1.65 1.35-2.468.443-.175.935-.377 1.44-.636 1.193-.614.549-1.177.549-1.177zm3.811.044 8.763.118c-10.18 11.982-15.096 27.319-16.881 43.504l-3.31-.053c-.183-12.642 4.146-28.43 11.428-43.569zm44.994.354c5.004 3.91 8.715 6.15 11.355 7.036 0 0-3.545 5.42-3.816 5.22-20.323-3.655-44.518 7.271-50.031 30.901l-3.203.014c1.2-9.274 3.854-17.017 8.728-25.09 4.837-7.839 9.287-12.417 15.997-18.185zm-34.973-.257 4.318.078s.809.902 1.174 1.227c1.86 1.958 2.02 1.57-2.09 3.707-2.595 1.35-3.744 1.977-3.897 2.544-.117.572 1.13 1.708 1.274 2.472.002.086-3.529 2.264-4.168 2.573-.89.397-.936.74-.056 2.162 1.013 1.634.931 1.577-1.264 2.989-2.14 1.377-2.56 1.24-1.652 2.614 1.262 1.91.666 2.338-2.314 3.82-.753.374-.772.75-.25 2.053.727 1.81.916 1.63-.623 2.606-1.819 1.154-2.14 1.186-1.738 1.895 1.166 2.061 1.629 2.563.065 3.232-1.192.511-1.217.801-.561 2.162.66 1.368.83 1.313-.347 2.082-1.091.712-1.732.552-.673 1.721.837.925.761 1.654.077 2.22-.588.229-.864 1.263-.693 1.285l-1.514.036c-1.183-1.48.218-2.325.43-2.47.193-.34-.043-.581-.52-1.382-.656-1.104-.633-1.235.316-1.878.958-.65.986-.481.351-1.921-.739-1.675-.704-1.866.466-2.64 1.15-.762 1.166-.931.388-2.398-.821-1.548-.822-1.549 1.223-2.8 1.438-.88 1.457-.827.7-2.464-.523-1.13-.151-1.521 1.806-2.756 1.118-.705 1.202-.845.678-1.688-1.445-2.325-1.43-2.395 1.072-3.888 2.045-1.222 2.028-1.327 1.243-2.96-.85-1.77-.927-1.633 1.878-3.182 2.31-1.276 2.435-1.201 1.489-2.742-1.177-1.918-1.103-1.604 3.517-4.036 1.665-1.051 3.166-.684 1.514-2.482-.727-.862-1.619-1.791-1.619-1.791Zm-81.505 3.02c.32-.01.568.354.55 1.027-.058.95-.545 1.89-1.013 2.833-.98 1.921-1.954 3.342-2.467 3.347-1.206.01-1.173-.24.436-3.137.735-1.322 1.493-2.833 1.612-3.125.26-.634.6-.936.882-.945zm14.827 4.377c.014 4.07-13.791 6.1-14.504 4.044 2.409-1.739 9.52-.954 11.03-2.51-1.816-.1-4.278.173-5.964.198-2.104.032-5.504.858-5.54 1.202-.217-1.072 3.619-3.077 6.655-3.198 2.839-.11 5.92.207 8.323.264zm1.17 6.215s-26.95 20.555-40.27 30.5l.073 4.444 42.631-32.171Zm-.09 1.018 1.716 1.933-40.019 30.055-.137-3.156zm126.295 10.772-1.439 1.416c-38.98-26.928-75 13.804-55.236 43.015-.18.376-1.56 1.305-1.56 1.305-22.025-33.91 20.315-73.48 58.235-45.736zm-21.467-5.918c2.216.019 6.29 1.433 8.01 3.353 2 2.237 1.416 3.23-1.128 1.12-2.735-1.845-4.995-2.275-1.197-.096.838.48 1.59 1.417 1.63 1.521.137.374-.563-.019-3.748-1.099-1.894-.642-4.293-2.374-4.915-3.552-.465-.882.187-1.258 1.348-1.247zm-8.216.048c.692-.004 1.307.047 1.744.164 2.79.746 3.67 1.136 4.708 1.886.711.513.482.882-.344.553-.962-.384-4.01-1.227-4.555-1.176-.793.074.001.555 1.139.82 2.522.588 3.773 1.193 1.972 1.215-.94.127-5.05.133-6.169.009-1.87-.207-4.667-1.79-4.021-2.354.697-.609 3.453-1.105 5.526-1.117zm-8.01 2.415c3.31.04 5.1 1.187 1.481 1.412-6.222.901-7.42 2.15-.523.671 1.604-.344 1.574.191.464.692-.907.406-2.04.605-2.984 1.027-1.702.651-5.598.79-7.116.253-2.241-.792 4.804-4.104 8.678-4.055zm26.635.563c1.673.043 5.237 2.292 6.821 4.398 1.036 1.377.517 2.363-1.05 1.257-.314-.221-2.565-1.998-2.688-2.04-.21-.071 1.867 1.76 2.17 2.276.26.436.859 1.438-.264 1.457-1.753-.203-5.864-4.467-5.885-6.569-.006-.562.339-.793.896-.779zm-20.755 1.164c.697-.02.34.322-.985 1.181-2.39 1.551-1.145 1.242 1.648-.082.848-.403 1.872-.717 2.231-.778.36-.06.788-.15.952-.197.75-.211.17.643-1.051 1.546-2.571 1.9-5.474 3.39-7.476 3.845-2.552.58-3.093.654-2.147-.818 1.503-2.338 3.689-4.206 5.774-4.566a8.163 8.163 0 0 1 1.054-.131zm8.583.051c1.063-.017 2.376.188 4.445.604 1.453.422 1.072.512-.672.685-3.28.326-1.916.682 1.273.636 4.35-.023-2.182 1.447-4.3 1.74-1.652.065-2.137.01-5.739-.62-1.372-.24-.547-1.17 2.056-2.316 1.064-.468 1.875-.71 2.937-.729zm26.881.588.113 2.593-52.74 40.65-1.788-1.835zm-17.924 2.2c2.1-.023 5.132 1.33 4.805 2.142-.122.303-.357.29-1.96-.107-1.05-.261-2.934-.538-2.684-.322.086.075 1.556.597 2.116.723 1.855.415 4.075 1.39 3.583 1.676-.86.483-1.647.103-2.665 0-2.546-.33-6.726-1.527-7.414-2.122-.779-.675 1.96-1.966 4.22-1.99zm-24.564.112c.378.019.52.345.157.79-.55.669-.804 1.23-1.298 2.052-1.766 2.512-2.878 3.506-4.572 4.479-1.694.972-1.935.804-1.783-1.224.194-2.106 1.828-4.318 4.133-5.355 1.064-.138 1.674-.396.556.838-1.983 2.19-.628 1.968 1.224-.518.589-.79 1.204-1.081 1.583-1.062zm-6.84.282c1.141-.003 1.523.371.06 1.003-1.395.602-4.168 2.39-4.236 2.587-.116.333.922-.189 2.647-1.056 2.305-1.16 2.507-1.132 1.39.196-1.261 1.502-4.294 3.38-6.673 4.073-3.327.838-3.245.249-1.382-2.032 1.777-2.48 3.283-3.661 5.553-4.335.995-.295 1.956-.434 2.64-.436zm-56.414.288c12.032 19.272 5.295 38.823-8.725 48.776-14.657 10.406-37.43 9.75-50.845-2.789l1.868-1.625c-.01.008 21.146 20.008 47.872 2.329 13.564-8.973 19.199-30.204 8.052-45.029zm-54.06-.045c-.04 0-.07.005-.093.019-.406.243-1.946 4.399-2.257 6.124-.09.505.041 1 .489 1.406.314.286.824.102.982.044 1.021-.425 1.585-1.079 2.482-3.152.6-1.134.685-2.492.568-2.966-.048-.192-.377-.64-.791-.896-.459-.282-1.106-.58-1.38-.58zm.233.866c.483-.003 1.437.725 1.553 1.243.007.902-.554 2.403-.971 2.18-.695-.803-1.498-.299-1.63-.59-.089-.888.53-2.05.956-2.823a.397.397 0 0 1 .092-.01zm130.34.93c5.367.01 10.7 1.472 14.612 4.69l-2.096 1.77c-9.177-6.074-19.879-4.318-26.226-.24-6.284 4.036-11.856 12.984-6.438 25.609l-1.967 1.643c-6.078-10.157-2.781-23.562 8.02-29.889 3.81-2.23 8.686-3.503 13.574-3.58.173-.002.349-.003.522-.003zm-79.358 1.353c.163 0 .409.494.381 1.098-.033.726-.367 1.673-.898 1.873-.6.225-.975-1.426-.975-1.426a6.572 6.572 0 0 1 1.492-1.545zm96.077.723c.219-.01.431-.001.614.02.6.07.604.566.039 1.041-.61.513-.927.54-1.54.125-.547-.37-.575-.642-.1-.956.248-.145.623-.214.987-.23zm-103.066-.053 1.776 2.033-6.178 4.58-.736.051-47.295 36.1-.004-3.212zm98.665 5.058-6.441 4.898c-12.844-6.199-23.174 4.794-19.556 14.8l-5.57 4.457c-9.902-25.272 19.211-33.868 31.567-24.155Zm-33.67-3.912a.146.146 0 0 1 .056 0 .295.295 0 0 1 .128.076c.224.204-.23 3.552-.566 4.173-.122.226-.217.517-.216.648.003.275-1.189 2.57-2.12 4.085-.351.57-.727 1.32-.832 1.67-.752 3.314-2.349-2.02-1.776-5.114.27-1.455 2.507-4.454 3.154-4.23.33.113.306.342-.274 1.504-1.617 3.24-2.025 4.912-.325 1.778 1.959-3.61 2.468-4.54 2.77-4.59zm-109.261-.11c.238.013.428.136.53.394.072.22.148.676.015.899-.331.686-1.015 1.137-1.706 1.095-.303-.019-.634-.266-.674-.57-.037-.273.037-.739.411-1.092.493-.464 1.026-.748 1.424-.726zm48.964.287c.762.036 1.562 1.933 1.049 2.799-.42.708-.497.575-1.226-.797-.384-.722-.678-1.497-.678-1.497l.625-.453a.484.484 0 0 1 .159-.047c.024-.003.047-.006.071-.005zm-1.285.798s.8 1.344.993 2.415c.118.653.099.531-.676.259-.61-.354-.744-.559-1.123-1-.25-.409-.5-.71-.5-.71zm4.818.296c.405-.012.84.367 1.236 1.294 1.488 3.48 1.343 7.383-.34 9.222-.279.305-.347.318-.68.127-.273-.156-.297-1.808-.032-2.276.083-.147.331-1.144.351-1.708.047-1.335-.35-1.504-.542-.266-.222 1.431-.462 2.43-.883 1.57-.21-.437-.318-.874-.478-1.34-.835-3.008.153-6.586 1.368-6.623zm-6.513.88s1.435 1.72 2.026 2.336c.208.332.2.417-.134.534-.57.2-2.471-.975-3.225-1.34-.407-.3-.23-.53-.23-.53.521-.361 1.042-.717 1.563-1zm56.74.153c.768-.007.768.24-.054 1.33-4.587 6.081-3.661 5.178-.745 1.853 1.622-1.85 1.903-2.025 2.08-1.61.133.31-1.8 3.91-2.798 5.215-.515.673-2.275 1.799-3.165 2.214-2.178 1.016-1.936.606-1.127-1.918 1.033-3.918 3.615-7.065 5.81-7.084zm-59.43 2.01c12.489 28.874-21.883 41.484-37.355 28.114l1.808-1.327c21.533 13.56 42.851-8.073 33.144-25.045 0 0 .884-.678 2.403-1.743zm2.904.704c2.064.2 5.108 3.698 5.258 5.645.324 1.383-.099 1.62-.83.647-1.232-2.116-1.086-.776-.038 1.325.557 1.061.684 2.332.103 2.4-.794-.151-2.508-2.689-3.032-3.735-1.248-2.292-1.34-1.903-2.02-5.298-.128-.636.052-.98.56-.984zm-6.243.937c9.523 16.965-11.07 37.298-31.95 24.1l6.275-4.589c10.902 4.86 23.086-1.126 19.626-15.05zm95.312 3.314-17.262 13.258c-3.526-11.018 9.51-17.287 17.262-13.258zm-32.014-.08c.564-.107 1.036 3.229 1.131 7.91.094 4.579.22 5.031-1.316 3.343-.643-.688-1.435-1.345-1.786-1.962-1.019-1.788-.69-3.66-.403-6.275.268-2.44 1.211-2.057 1.053.498-.102 1.645-.087 3.69.193 3.687.1 0 .13-.159.067-.383-.132-.468.486-5.767.738-6.392.109-.27.219-.405.323-.425zm-47.506 1.94c1.245.453 1.591 4.297.236 8.012-.583 1.596-1.476 2.637-2.804 3.28-.949.457-1.17.311-.741-.49.789-1.304 1.21-2.657 1.532-4.341.13-1.644-.81-.325-.732.377-.74 3.067-1.707 3.527-1.576.296.096-2.381.436-3.402 1.652-5.037.61-.819 1.265-1.946 2.433-2.097zm43.23.458c.513.005.637.64.176 1.879-.32.858-1.408 3.637-1.28 3.627.079-.006 1.245-2.505 1.483-2.913.39-.669.535-.796.876-.765.331 1.236-.015 2.777-.181 4.055-.71 3.331-3.17 6.769-4.109 5.743-1.528-1.671-.798-8.428 1.238-10.48.766-.772 1.399-1.15 1.797-1.146zm-65.647.405c1.829 11.79-8.694 16.805-17.77 13.235.192-.044 17.77-13.235 17.77-13.235zm42.98.287 1.827 2.227 3.355.166-1.723 2.34 1.703 3.003-3.745.06-2.158 2.287-1.868-2.071-3.274-.166 1.914-2.813-1.535-2.695 3.535-.15zm-28.163.967c.42.014 2.485 2.534 2.69 3.463.62 2.251.381 6.507-.494 6.36-.943-3.068-.571-4.65-.912-4.299-.591.563.356 5.264.039 6.422-.15.295-.658-.061-1.226-.82-1.519-2.028-1.3-9.95-.133-11.117a.076.076 0 0 1 .036-.009zm112.055 4.957-41.474 31.67 2.383 2.848 39.157-29.8zm-59.816.45c.181-.033.594.236 1.37 1.025 1.351 1.695 2.783 4.023 3.303 5.812.197.696.515 1.618.707 2.05.29.648.313.827.141 1.022-.718.817-3.715-1.247-4.68-3.22-1.354-2.772-1.383-5.267-.025-2.835.495.885 1.107 2.174 1.102 1.663-.001-.146-.6-2.003-1.058-2.832-.285-.52-1.323-2.597-.86-2.684zm59.374.868.082 2.627-38.627 29.778-1.511-1.706s36.382-27.893 40.056-30.699zm-60.222 1.526c.18.017.273.257.218.79-.18 1.735-.649 5.51-.553 5.844.057.2.615-2.5.742-2.98.663-2.502 1.66 3.483 1.047 6.163-.096.421-.29 1.1-.391 1.518-.101.417-.425 1.13-.555 1.32-1.096 1.587-3.652-4.746-3.213-7.97.273-2.007 2.057-4.746 2.705-4.685zm-44.625 1.314c.504-.024.6.434.514 1.397-.298 3.301-2.677 6.764-5.278 7.681-2.591.914-2.831.73-1.293-.981 1.166-1.297 1.874-2.66 1.678-2.837-.108-.098-.368.447-1.312 1.564-1.185 1.401-1.377.213-.299-1.846.932-1.778 1.8-2.708 3.547-3.794 1.233-.766 1.997-1.162 2.443-1.184zm23.452 1.042c-.548 14.214-4.408 29.652-11.831 43.066l-6.911.003c8.484-11.517 13.912-25.785 15.448-43.013zm3.039.019s1.034.996 1.455 1.668c.463.74.592 1.387-.255 1.94-.982.765-1.39.48.206 2.385.84 1.004.566 1.167-.48 2.01-1.08.87-1.142.917-.142 2.096 1.07 1.262 1.263 1.456-.138 2.428-1.262.874-1.278 1.08-.296 2.507.904 1.314 1.179 1.302-.563 2.659-1.487 1.159-1.521.837-.092 2.976.526.787.489.838-.479 1.627-2.378 1.94-2.254 1.818-1.918 2.33 2.596 3.453 1.42 3.353-1.13 4.995-.514.406-.382.864.763 2.59.974 1.467.831 1.783-1.459 3.234-2.384 1.512-2.462 1.716-1.275 3.263 1.17 1.525 1.197 1.421-.711 2.99a40.802 40.802 0 0 0-1.568 1.36l-4.22-.007s.892-.75 1.5-1.166c3.47-2.367 3.456-2.116 1.998-3.83-1.29-1.516-1.165-1.615.148-2.48.944-.62 2.216-1.26 3.17-1.896.514-.337.135-.62-.717-2.117-.955-1.678-1.008-1.484.777-2.838 1.955-1.482 1.987-1.427.933-3.31-1.058-1.89-1.076-1.726.266-2.736 1.994-1.5 2.089-1.42 1.044-3.164-.833-1.39-.842-1.351.573-2.653 1.426-1.313 1.25-1.231.409-2.437-.855-1.225-.81-1.39.321-2.318 1.218-1 1.046-.939.04-2.22-.991-1.261-.976-1.167.234-2.143.637-.512 1.277-1.034 1.24-1.275-.092-.623-.733-1.508-1.35-2.359-.236-.325.237-.423.994-1.148.77-.738.735-.552.156-1.533-.313-.531-.907-1.426-.907-1.426zm-11.31.014 1.202.03s.206.253.485.517c.77.73.804 1.158.027 1.548-.745.374-.46.9.16 1.746.66.898.653.795-.294 1.675-.978.733-1.483.94-.409 2.332.611.646.534 1.311-.417 1.888-.732.443-1.946.81-.67 2.502.622 1.206.671 1.129-.633 1.982-1.736 1.135-2.061.936-1.269 2.595.882 1.846.97 1.874-.85 3.108-2.114 1.434-2.186 1.55-1.31 3.273.883 1.737.907 1.297-1.33 2.903-1.64 1.177-2.012 1.24-1.529 2.217.905 1.828 1.289 2.319-1.362 3.57-3.062 1.445-3.216 1.553-1.752 3.712 1.191 1.757.927 1.507-1.048 2.554-2.855 1.513-4.115 2.172-4.205 2.643-.059.533 2.221 2.124 2.221 2.124l-3.98.093s-1.67-1.26-2.319-1.845c-1.797-1.624-1.817-1.093 4.171-3.77 3.306-1.477 3.028-1.14 2.49-2.007-1.587-2.556-1.642-2.822 1.349-4.209 2.598-1.205 2.152-1.292 1.525-3.12-.547-1.594-.46-1.448.91-2.384 3.31-2.264 3.22-2.03 2.707-3.143-.506-1.095-.895-1.605-.513-2.144 1.195-1.58 3.73-1.911 2.698-3.796-.482-1.215-.653-1.487.808-2.535 1.318-1.011 1.325-.888.485-2.228-1.024-1.23-.876-1.432.628-2.393 1.073-.904 1.058-.88.459-1.765-.826-1.219-.786-1.257.398-2.214.965-.78 1.132-.821.52-1.683-.813-1.144-.677-1.395.398-1.954.659-.343.655-.483.6-1.064-.01-.112-.351-.758-.351-.758zm14.926.09 5.54.024c1.752 9.505 4.834 13.41 6.614 16.422-7.024 10.391-5.448 19.034-1.186 26.687l-17.546-.09c4.526-14.228 6.872-28.548 6.578-43.042zm-38.028-.023c.204-.013.346.292.689.834 1.107 1.752.317 4.233-1.312 6.831-1.22 1.944-1.437.458-.876-2.344.354-1.766-.613.88-1.075 3.013-.25 1.157-.85 2.09-1.502 2.032-.613-.093-.42-1.714-.4-2.073.143-2.554 1.176-4.361 3.179-6.894.759-.96 1.066-1.384 1.297-1.399zm56.547 5.089c.263-.01.63.091 1.084.333.353.188.986.544 1.426.769 1.535.785 1.659 1.023.927 1.809-.905.971-1.482.6-3.042-1.023-1.051-1.094-1.068-1.861-.395-1.888zm-.516 2.138c.249.006.76.254 1.257.783 1.01 1.073.887 1.977-.233 1.717-.456-.62-.69-1.562-1.126-2.26-.1-.157-.047-.244.102-.24zm49.487.217c-.981 0-2.626 1.195-2.94 2.413-.961 3.716-.96 3.555-.106 4.098.25.16.439.276.562.346.5.367 1.182.934 1.273.821.814.006 2.06-4.755 2.02-5.737.054-1.036.093-1.161-.185-1.633-.127-.214-.35-.308-.624-.308zm-50.239 0c.065-.012.147.02.245.094.642.593.899 1.652 1.224 2.41.001.165-.074.435-.165.597-.558.985-1.42.027-1.506-1.673-.048-.956.006-1.394.202-1.429zm50.084.814c.043-.003.085-.002.123 0 .658.028.555.658-.361 1.57-.482.48-1.474.706-1.802.409-.476-.432.511-1.615 1.585-1.9.174-.046.326-.072.455-.08zm-111.277.34c.037 0 .071-.002.107 0 .344.021.633.165.859.409.437.503.251 1.278.042 1.926-.524 1.698-3.972 4.983-5.207 4.993-.735-.12 2.346-3.727 2.443-4.335-.228-.207-2.137 1.824-3.034 3.237-.406.64-.868 1.428-1.113 1.564-.642.068-1.383.445-1.386.045.11-1.805 3.937-5.732 5.24-6.824.8-.695 1.493-1.006 2.049-1.015zm9.212.186c2.952-.026-2.87 5.939-6.632 6.794-1.172.266-3.33.333-3.484.108-.154-.226.02-.408.502-.525.777-.187 4.622-2.442 4.62-2.709-.004-.334-1.592.218-2.949 1.027-.879.524-1.29.415-.813-.219 2.213-2.932 5.169-4.445 8.756-4.476zm51.088.092c.168.013.335.32.438 1.008.534 1.281.56 1.631.053 2.007-.867.643-1.08.462-1.067-1.02.01-1.22.297-2.017.576-1.995zm-97.232 1.542s1.076.375.627.848c-.311.328-1.636.046-1.637-.05zm148.271.277c.351-.02.36.279.172 1.036-.098.398-.527 2.49-1.28 3.07-.09.055-1.18-.549-1.476-.826-.136-.129-.562-.423-.618-.616-.185-.633.016-1.455.535-1.864.203-.16.61-.248.83-.25.171-.001.68-.154 1.13-.338.316-.13.547-.203.707-.212zM45.92 903.7c.709-.003 1.58.068 2.317.302 2.175.589 6.165 2.25 6.778 2.794.893.792-1.443 1.63-4.25 1.654-1.487.013-1.767-.274-3.823-1.417-.264-.161-1.462-.891-1.113-1.156.382-.36 1.53.106 2.96.78.467.22 1.604.16 1.602-.035-.003-.228-2.859-1.216-5-1.848-1.405-.416-1.372-.833-.51-1.01a8.303 8.303 0 0 1 1.04-.064zm-2.815.9s.592.486 1.359 1.02c.833.578 1.8 1.292 2.471 2.241.973 1.101 2.508 3.84 2.335 4.334-.396 1.135-4.507-.864-7.865-3.983-1.092-1.014-1.73-1.768-1.73-1.768l1.285-1.072s1.126.874 2.426 1.94c2.44 1.998 2.425 1.313-.029-.79a149.301 149.301 0 0 0-1.333-1.13c.033-.38.423-.716 1.081-.792zm100.503.256s1.31 1.263 1.797 1.844c-8.02 7.227-11.095 17.337-3.388 28.122l-3.709-.02c-6.922-12.657-3.61-22.172 5.3-29.946zm-67.714.19c.498-.02.044.52-.842 1.91-1.654 2.594-1.983 3.249-4.663 3.891-.69.164-1.672.031-2.077.077-1.152.132-.64-.002 1.128-1.058 2.448-1.463.37-.712-1.894.362-1.31.621-2.684.588-2.803.265-.066-.178.531-.646.917-.964 3.449-2.843 4.505-2.721 7.711-3.745 1.4-.447 2.183-.725 2.523-.739zm-14.4 2.574c1.247.009 2.41.126 3.443.341.684.144 1.798.273.857 1.057-1.066.925-3.943 2.185-6.071 2.266-.299.01-4.68-.283-3.743-1.15.187-.097.782-.07 1.295-.16 2.428-.42 1.772-.783-1.216-.64-3.742.178-3.913-.18-1.078-.892 2.073-.52 4.11-.786 5.976-.818.182-.003.36-.005.538-.004zm19.991.297c1.666-.012 2.96.265 2.966.852.01.952-3.149 3.036-5.22 3.446-.487.097-1.18.235-1.54.31-.722.15-4.72.014-5.11-.117-1.871-.632-.568-.877 2.867-1.24 1.495-.158 2.209-.52 2.206-.782-.001-.128-1.102-.165-2.742.024-1.831.211-1.47-.287.811-1.376 1.508-.72 3.875-1.103 5.762-1.117zm-30.823 1.27c.233.007.795.186 1.728.548 1.993.54 4.732 1.151 6.604 3.048 1.512 1.36 1.88 1.798 1.56 2.274-.386.578-5.086.13-7.063-.655-1.305-.518-2.86-1.63-3.57-2.59-1.72-2.324-.993-2.935 1.194-1.308 2.636 1.96 3.027 2.162 3.495 2.074.188-.036-.275-.439-1.16-1.048-2.22-1.531-3.3-2.355-2.788-2.342zm16.258 2.52c2.21.007 2.687.16 4.832 1.073 2.684.88 2.031 1.658-2.737 2.75-2.388.514-4.79.147-6.531-.848-3.838-2.193-3.583-2.63.704-1.646 1.409.324 2.813.386 2.9.142.067-.187-1.637-.59-3.021-1.017-1.5-.462-.21-.421 2.788-.445.397-.004.749-.01 1.065-.008zm110.523 9.626s-.491.214-.708.324c-.171.087-1.5.238-2.952.336-2.865.192-4.792.614-6.531 1.257-2.625.972-4.385 3.978-4.385 3.978 1.96-.12 13.057 1.754 16.144-1.94.647-.774-1.666 5.843-2.847 6.135-2.925-.33-4.164 3.915-3.87 3.736-2.953 1.053-5.242 1.67-4.498 4.84.324 1.381 1.835 3.025 5.042 2.618-.883 5.492 6.38 6.924 7.194.304 0 0 1.418-.248 1.963-.307 3.315-.72 4.126-5.197-.734-6.626-1.349-.372-1.425-.606-1.425-.606.254-1.01.196-2.071-.592-3.25 1.077-2.363 3.756-6.919 3.756-6.919zm.511 1.367c.667.828-2.822 2.19-6.535 2.478-.833.065-2.665.218-2.712.294-.401.647 7.178.189 9.542-1.03.81-.418.882-.05.53.596-2.748 3.256-9.363 2.442-14.536 1.86-.294-.274-.042-.61 1.118-1.479 2.13-1.592 3.661-2.122 7.018-2.435.937-.026 5.154-.753 5.575-.284zm4.093 3.38c-.48 1.402-2.978 5.679-2.978 5.679-.306.282-1.398.48-1.313-.603.015-1.163 2.378-5.952 3.014-6.043.759-.053 1.316.465 1.277.967zm1.579.33c.72 4.913 4.748 6.087 8.611 7.642 1.017.433 1.878 1.201 2.897 1.698 1.916-2.407-.228-7.092-3.59-8.623-2.497-1.083-4.773-1.945-6.18-1.85-.816.054-1.726.537-1.738 1.132zm2.068-.29c.433-.004 1.052.113 3.309.672 3.406.844 5.806 3.174 6.428 6.238.025.124.196 2.498-.391 2.413-.888-.238-1.364-1.065-2.787-1.618-1.777-.691-4.268-1.6-5.796-2.887-1.233-1.04-1.906-2.16-2.055-3.117-.151-.994.209-1.095 1.11-.292 2.02 1.492 4.013 2.004 6.01 3.446.554.4 2.546 1.425 1.187.15-.92-.864-3.634-2.371-5.075-3.015-2.003-.894-3.09-1.98-1.94-1.99zM32.17 930.774l22.788 33.081c-5.629 2.735-8.404 3.932-17.741 3.241l.035.436-3.968-.22c6.836 9.908 15.27 22.832 12.828 45.353l27.835.018s.433.382.476.409c.406.255 1.018-.445 1.018-.445l12.557-.042.339.375 5.854-.028S67.51 966.57 54.107 943.539c-5.507-9.24-11.251-13.35-21.937-12.765zm144.09 1.326c1.5-.032 2.99.924 2.998 2.778.003.965-.88 2.31-.88 2.31l-2.035-1.8-1.953 1.8c-.958-.735-1.524-2.133-1.208-2.927.602-1.358 1.91-2.136 3.078-2.161zm-23.635.62c1.921 6.975 3.992 16.592-12.82 38.782-9.945 13.125-13.214 25.517-13.638 40.646l-1.003.003c.49-8.303.581-23.357.581-23.357l.938-.77s-.425-.64-.611-1.392c-.314-1.267-.049-.844.775-4.243 3.459-16.418 25.778-49.67 25.778-49.67zm-89.557 3.054 84.993.497-1.135 2.061-82.245-.677zm113.291.779 3.151 2.849-3.09 3.199-3.243-3.148zm-2.59 1.205-1.726 1.69 1.49 1.455c-1.542 2.982-5.627.647-5.486-1.586.165-2.612 3.467-3.677 5.721-1.56zm5.447 3.375 1.375-1.611-1.547-1.574c2.542-2.314 4.938-.269 5.167 1.666.243 2.063-3.238 4.385-4.995 1.519zm-100.66-2.135 6.963.072-2.597 4.478-7.06-.04zm15.51.058 6.395.01-2.71 4.539-6.47-.01zm15.102.024 6.783.011-2.76 4.539-6.968-.012Zm15.182.025 6.942.01-2.536 4.54-7.202-.012zm15.464.025 6.691.01-2.72 4.539-6.885-.011zm-73.887-.096 4.496.007-1.842 2.988zm112.113 3.047c2.57 1.915.776 5.052-1.906 5.104-1.846.035-4.521-2.859-1.616-5.209l1.928 1.637zm-94.587 2.262 6.537.011-2.468 4.085-6.405-.01zm14.532.057 7.172.012-2.534 4.084-6.824-.011zm15.357.025 7.136.011-2.335 4.085-7.208-.012zm15.3.024 7.08.012-2.212 4.085-7.484-.012zm-58.388.062 4.512.008-1.93 3.271zm3.393 4.747 66.25.652-1.13 1.985-63.442-.093zm2.32 3.563 62.082.242-1.433 2.747-21.448-.125c-4.18-2.896-8.966-1.568-14.426.067 0 0-16.42.132-22.877-.037zM55.3 964.438l32.654 47.86-7.238-.087-31.007-45.023zm-6.569 3.103 30.828 44.733c-1.418-.033-2.735.045-4.154.023.59-8.344-6.661-12.268-10.926-12.474 2.577-9.755-5.107-13.874-10.237-14.657 2.105-12.68-9.242-14.497-9.407-14.37.057-1.04-.153-1.792-.303-2.66l4.199-.595zm-5.01.7c-.066.268.578 2.796-.643 2.329l-.083-2.325zm-6.507.054c.438 1.681 1.37 2.016 2.636 3.145 0 0-1.621.252-1.997.011-.673-.432-2.076-3.172-2.076-3.172zm4.83 2.85c.783.002 1.415.593 1.414 1.318-.001.725-.636 1.31-1.42 1.309-.783-.001-1.415-.588-1.414-1.313.001-.725.636-1.315 1.42-1.314zm2.806 1.015c4.067-.24 9.956 3.804 8.387 11.351-.27-.527-.588-1.688-1.246-2.512-2.797-3.502-6.106 1.285-3.885 3.244 1.088.961 1.598 1.34 1.48 1.426-2.505-.444-4.407 1.606-3.368 3.887 1.733 2.951 4.151 1.393 5.552-.354 0 0 .855 2.64 1.71 2.977 1.31.516 3.119-.132 3.737-1.595.92-2.177-1.306-2.739-1.793-3.952 4.703.149 10.683 6.518 7.947 12.029.36-1.257-1.092-4.074-3.925-3.353-1.416.455-1.913 2.36-.775 4.323.364.628.561.862.561.862s-1.225.148-1.547.33c-3.678 2.088 1.048 7.806 3.79 4.24.28-.423.737-.908.737-.908.45.796.586 1.916 1.41 2.3 3.382 1.583 4.898-1.743 3.478-3.376-.8-.92-1.702-1.982-1.702-1.982-.14-.587 10.144 1.925 8.873 11.181l-27.275-.078c2.556-14.219-3.535-30.5-6.65-35.464l1.356-1.65c.338.615.899 2.162 1.893 2.46 3.162.948 4.13-1.096 3.71-3.2-.223-1.12-1.916-2.024-2.455-2.186zm7.198 13.397c.743 0 1.344.563 1.343 1.251-.002.688-.604 1.244-1.348 1.243-.744-.002-1.35-.56-1.348-1.247.001-.688.609-1.248 1.353-1.247zm10.208 14.832c.751.002 1.36.566 1.358 1.261-.001.695-.612 1.258-1.363 1.257-.751-.001-1.36-.566-1.358-1.261 0-.695.611-1.258 1.363-1.257z"/></g></g></svg>