<svg xmlns="http://www.w3.org/2000/svg" width="234" height="333"><g transform="translate(0 -719.362)"><rect width="233.244" height="332.244" x=".378" y="719.74" fill="#fff" stroke="gray" stroke-width=".756" rx="8.919" ry="8.946"/><g fill="red" aria-label="Q" font-family="Levenim MT" font-size="3.772" font-weight="700" letter-spacing="0" style="line-height:0%;-inkscape-font-specification:&quot;Sans Bold&quot;" word-spacing="0"><path d="M32.313 622.413H27.54l-1.868-2.4q-2.315 1.265-5.16 1.265-4.687 0-7.878-3.206-3.177-3.22-3.177-7.906 0-3.004 1.452-5.549 1.452-2.544 4.054-4.053 2.558-1.495 5.505-1.495 4.6 0 7.777 3.277 3.177 3.278 3.177 7.892 0 4.298-2.79 7.417zm-4.916-12.204q0-2.961-1.97-5.06-2.012-2.142-4.959-2.142-3.062 0-5.017 2.085-1.94 2.07-1.94 5.146 0 3.507 2.515 5.548 1.97 1.596 4.47 1.596 1.438 0 2.703-.56l-3.78-4.874h4.8l1.898 2.459q1.28-1.898 1.28-4.198z" font-size="29.439" style="line-height:1.25" transform="scale(.82383 1.21385)"/></g><g fill="red" aria-label="Q" font-family="Levenim MT" font-size="3.772" font-weight="700" letter-spacing="0" style="line-height:0%;-inkscape-font-specification:&quot;Sans Bold&quot;" word-spacing="0"><path d="M-251.727-837.182h-4.773l-1.868-2.4q-2.315 1.264-5.16 1.264-4.687 0-7.878-3.205-3.177-3.22-3.177-7.906 0-3.004 1.452-5.549 1.452-2.544 4.053-4.053 2.56-1.495 5.506-1.495 4.6 0 7.777 3.277 3.176 3.278 3.176 7.892 0 4.298-2.788 7.417zm-4.916-12.204q0-2.961-1.97-5.06-2.012-2.142-4.959-2.142-3.062 0-5.017 2.085-1.94 2.07-1.94 5.146 0 3.507 2.515 5.548 1.97 1.596 4.47 1.596 1.438 0 2.703-.56l-3.78-4.874h4.8l1.898 2.458q1.28-1.897 1.28-4.197z" font-size="29.439" style="line-height:1.25" transform="scale(-.82383 -1.21385)"/></g><path fill="red" d="m17.206 761.811 9.414 9.446-9.414 9.445-9.415-9.445zM216.794 991.022l9.415 9.446-9.415 9.445-9.414-9.445zM58.63 804.63l18.829-18.89-18.83-18.891-18.828 18.89ZM175.37 1004.876l18.83-18.891-18.83-18.891-18.829 18.89z"/><g stroke-width="3.181"><path fill="#e2cf00" d="M147.628 759.527s26.87 35.836 35.983 42.196c.67.29 11.905-1.69 11.905-1.69-5.758-12.72-9.463-25.88-5.726-40.633zm14.931 56.676c-18.524 4.824-37.013 9.36-57.095 1.497l-21.93 19.55c-.183.504 28.419 11.873 28.868 10.628l-7.04 20.735 16.231 3.297 7.45-22.057s22.409-1.983 32.808-5.275c7.907-2.504 16.085-4.32 23.145-9.758-14.584-8.087-22.452-18.713-22.437-18.617zm-111.416 5.78c-7.021-3.974-12.509 4.207-7.368 8.292-.604 2.387-.81 5.939 1.693 7.5 2.3 1.34 6.589-.05 7.208-.036.044.001.11 4.296-.247 4.285-.665-.02-3.175-1.994-4.724-2.422-5.233-1.448-12.593-2.162-12.463-1.913.219.418-1.303 1.408 4.536 4.791 2.169 1.257 9.022-.158 14.48 1.43 3.324.968 6.593 2.577 8.399 1.775 2.282-.88 4.944-3.658 5.802-5.922.242-2.472-13.693 2.877-12.845 2.963l-.044-4.982c5.615.57 10.684-3.185 5.165-9.623 4.11-3.77-1.64-12.753-9.592-6.137zm23.394 22.79c-13.81 12.846-42.04 36.953-42.04 36.953l.302 17.992 27.579 22.77c2.185-24.172 17.072-46.731 31.247-58.017 1.302-3.432-14.086-18.493-17.088-19.697zm98.397 4.444c-2.081 14.863-3.972 35.132-31.3 57.663 4.735 7.44 10.763 15.014 19.437 18.63.616 1.278 25.073-23.352 40.118-34.996l-.08-15.774zm-123.166 3.191c-.057.324-1.066 4.228-1.326 4.124.02.213 2.798-.952 3.112-2.022.276-.939.913-2.21.954-2.39-.626-4.02-1.81-1.165-2.74.288zm-10.23 10.39c-.993 2.213-1.922 6.276-1.58 8.92 4.893 2.26 6.223-7.14 4.907-8.038-.788-.307-2.656-.903-3.328-.881zm151.099 43.098c-.454 1.875-.358 2.431.546 2.797 1.583.64 2.295-.133 3.567-3.186.757-1.817 1.432-4.551.821-5.638-3-1.932-4.587 4.612-4.934 6.027zm-73.994-4.404c-.96.008-1.884.08-2.74.26-8.076 1.705-7.464 14.726-8.835 19.918-25.369 3.34-32.079 4.93-39.03 7.565-10.808 4.097-14.231 6.597-17.091 8.659 1.797-.194 21.19 16.491 22.19 18.847-1.233-3.23 37.52-11.09 58.159-3.196 2.531.837 21.815-17.267 21.206-19.287 2.503-4.043-24.306-8.586-27.686-11.111-2.774-13.776 18.728-21.322 3.838-20.92-2.71.072-6.582-.76-10.01-.735zm67.47 15.477c-.476.52-.958.796-1.58 1.406l-1.415 1.723 1.03 1.538 2.643-2.689zm-18.915 17.324c2.783-1.159 12.663-5.578 13.087-4.556l-.209 4.424c-1.512-.457-11.267 1.031-5.625 10.322-3.553 7.381 4.365 11.188 9.911 6.307 11.625 3.68 10.068-7.052 7.67-8.786 1.89-2.709-.486-8.478-1.668-8.497 0 0 10.144 2.11 9.152.443-.453-.76-1.02-2.072-3.274-3.46-2.598-1.601-7.162-1.02-10.857-1.733-3.949-.763-6.492-2.066-9.81-2.25-5.01.421-9.686 4.48-8.377 7.786zM52.154 969.125l-13.977 3.447s4.521 9.68 6.085 18.312c1.914 10.558.385 22.038.385 22.038l40.565.19z"/><path fill="#d40000" d="M88.578 1012.98c-17.799-23.44-34.29-45.736-56.186-70.31 0 0 .018-9.498.095-18.918l67.266 88.997Zm36.032-37.846c-.574-4.451-1.556-9.779-2.97-14.364l12.283-10.685c-1.326 9.548-3.36 16.873-9.313 25.05zm58.698-33.677c2.748 3.369-1.89 5.239-3.642 3.74-3.55-3.04 1.65-6.18 3.642-3.74zM61.53 920.244c-2.038 1.205 3.662-29.374 19.31-45.178 9.516 25.154-7.276 39.257-19.31 45.178zm77.194-.113-10.392-2.588 5.174-13.41s9.757 2.11 8.925 4.894c-2.709 9.065-3.707 11.104-3.707 11.104zm-48.108-5.155c2.814-4.269 4.95-8.975 6.918-13.79l14.776-1.89-8.565 15.326zm62.632-18.818c-8.043-14.776 1.433-38.163 18.932-44.6-.63 14.984-5.669 30.162-18.932 44.6zm-54.056-4.198c.354-5.249-.298-10.748-1.085-15.623l36.579 4.5 1.278 14.146zm26.768-22.476c1.24-4.5 2.34-8.245 4.734-11.892 2.664.079 13.466-1.56 12.089.376-2.937 3.466-4.342 9.093-6.265 12.632-2.018-.197-11.163 1.256-10.558-1.116zm-24.23-2.578c-3.699-1.204-8.757-1.54-10.724-4.18l3.848-11.251 11.397 3.225zm31.984-107.352 8.932-.08s42.916 50.668 59 70.384c-.536 2.007.18 19.015.18 19.015-22.783-29.583-68.112-89.32-68.112-89.32zm-82.296 70.694c-2.4-2.377 1.416-4.483 3.003-2.36 1.398 1.871-1.738 3.613-3.003 2.36Zm48.153-8.307c.139-11.742 9.162-25.676 9.069-25.32-.105-.023 1.286 11.478 3.02 15.097-.468.638-11.662 10.959-12.089 10.223z"/><path fill="#131f67" d="m30.722 757.403-.336 256.889 173.228.03-.059-256.503zm158.307 2.01c-1.407 14.215-1.653 25.353 6.34 40.095-1.444 1.397-12.32 1.793-15.748 3.447-.063.397.88 1.084.88 1.084 3.586-1.535 17.568-2.936 17.568-2.936-5.856-9.417-10.673-27.532-7.046-41.424l10.092.03-.064 68.445s.794 13.212 1.093 20.656c-5.374-6.407-12.5-15.357-17.153-22-5.645-7.328-11.93-15.924-18.384-23.988-1.902-2.541-4.615-5.838-6.829-8.806-3.475-4.584-6.349-8.141-9.954-13.076-3.848-5.11-7.538-9.747-12.113-15.68-3.879-5.05-4.059-5.647-4.059-5.647Zm-66.28.266c6.542 10.49 18.252 14.043 21.199 14.75l1.713 2.31c-13.807-2.497-21.2-10.675-24.672-15.733-.27-.393-.24-1.297-.24-1.297zm-6.475 0c-1.81 3.961-4.342 6.237-6.743 8.636l.083-2.547c.074.16 3.594-3.444 4.806-6.089zm3.167 0s.053.677-.165 1.233c-1.387 4.13-9.994 11.97-9.747 10.795l-.087-2.022c-.038.087 6.465-5.714 8.169-10.006zm-6.26 0c-.67 1.153-3.173 4.635-3.399 3.67l.222-3.67zm19.666 0c1.085 1.449 2.07 2.508 3.21 3.99.213.282.342.616.288.743-.173.411-.688.106-2.113-1.06-2.337-1.91-3.927-3.673-3.927-3.673zm-8.705 0 2.114.005c4.379 6.71 12.234 10.28 14.953 11.06.726.738 1.508 2.087 1.812 2.386-7.333-1.833-15.547-7.553-18.879-13.45zm5.141-.028c2.332 3.104 5.986 5.281 8.044 6.767 1.107.8 2.568 2.435 2.432 2.76-4.584-1.337-9.945-6.025-12.405-9.499zm-8.987 1.92 1.274 1.872c-3.086 4.696-6.957 8.927-12.12 12.262l-.028-2.453c5.859-3.892 8.39-7.804 10.874-11.68zm2.067 2.713c3.68 4.574 11.611 11.654 24.331 13.77 0 0 .722.601 1.776 1.925 1.337 1.68 1.358 1.746 1.534 4.498.118 5.036 1.892 11.871 3.653 16.172-.218 1.069-.421 1.613-2.606 4.336-9.105 11.347-28.5 22.078-38.056 7.43-3.187-4.692-3.497-13.688-3.7-19.298 0 0 .061-.395.085-.502.23-1.018.546-.858 2.27-.422 1.75.693 3.57.134 5.42-.331 2.108-.785 2.283-.18.251 1.57-.703.605-1.563 1.53-1.472 1.486.09-.045 1.272-.49 1.795-.857 1.624-1.14 2.007-.704 1.406.552-2.553 5.324-3.006 5.537.585 7.016.748.308 1.26.652 1.679.99 2.455 2.133 1.574.984.887.005-1.056-1.532-.101-2.342 1.682-1.393 1.191.634 2.757 1.146 3.608.903 1.652-.496 2.157-2.166 1.666-4.004-.392-1.016-2.65-2.811-2.129-.933 1.357-.056 2.529 1.72 1.35 2.922-.89 1.107-2.477.509-4.91-.976-1.345-.932-2.978-.456-2.915.691.043.77-1.14.594-1.907-.388-.427-.545-.138-2.114.664-3.6 5.045-9.36.791-18.435-7.946-15.876-.961.281-1.828.51-1.828.51l-.047-3.581c5.017-3.226 10.338-8.37 12.874-12.615zm5.101 16.803c-1.317 1.467-.85 2.773 2.042 1.458 2.356-1.071 2.682-1.197 5.25-1.283 3.643-.121 6.912.948 10.959 3.238 2.682 1.518 3.072 1.633 2.344.682-2.166-3.825-14.97-9.633-20.595-4.095zm-12.372.438c2.528.588 4.955 2.129 4.532 2.767-.152.23-.299.273-.62.118-1.85-.843-4.799-2.221-9.062-.54-.47.186-.73-.101-.728-.624.004-1.015 1.856-1.826 3.811-1.89.696-.002 1.455.031 2.067.169zm14.689 2.967c-1.508.723-2.025 1.108-2.666.785-1.53-.772-1.206-.166-.256 1.387.67 1.096.664 1.321.564 1.993-.108.73-.092.758.677 1.539 1.439 1.744 2.87 3.426 5.024 4.75.671.412 1.569.881 1.636.883.215.006.133-.151-.251-.497-2.758-2.448-4.934-4.642-2.125-3.71 3.27.984 6.381-.242 8.932-1.042 1.04-.296 2.132-.546 2.403-.545 2.355.002 2.912-.903 1.406-2.282-5.096-5.273-9.325-6.514-15.344-3.26zm12.09.988c1.054.898 1.61 1.386 1.504 1.62-.113.25-.924-.175-2.283-.843-2.734-1.345-5.834-1.662-9.708-.63-3.007.801-2.12-.47 1.232-1.666 2.683-1.142 6.384-.8 9.256 1.52zm-28.08-1.816c2.298-.034 4.69.662 6.29 1.935 1.116.888.3 1.094-1.514.402-2.743-1.047-5.055-1.214-7.306-.241-.707.305-1.522.668-1.744.648-.377-.235-.537-.918-.21-1.401.904-.82 2.698-1.316 4.485-1.343zm37.86.727c.169.007.423.254.8.744.688.89.714 1.33.144 2.888-.695 1.902-.974 1.594-1.15-1.06-.113-1.723-.116-2.584.206-2.572zm2.278 2.87c.262-.035.568.391 1.057 1.273.342.615.26.799-.805 3.678a34.051 34.051 0 0 1-.878 2.173c-.328.239-.285.218-.426.052-.76-.896-.705-2.644-.051-4.739.496-1.587.766-2.394 1.103-2.438zm-20.698.217c.083-.006.593.096.593.096-.053 4.265 3.521 3.407 3.994.378 0 0 .882-.084 1.017.118.424.634-.56 2.458-2.031 3.055-1.074.443-2.533.335-3.405-.406-.244-.417-.983-2.001-.845-2.659.172-.383.429-.562.677-.582zm-2.13.498a1.14 1.14 0 0 1 .108 0c.351.017.606.104.745.496l.765 2.167c-.563.621-2.704-.638-2.7-1.583.003-.653.534-1.055 1.083-1.08zm-14.533-.004c.54-.048.73.007.793.472.183 1.408-1.343 2.938-3.323 3.021-1.915.198-2.949-1.173-2.89-2.51.005-1.016.952-1.143 1.057-.34.304 2.32 2.452 2.453 3.433 1.172.37-.502.286-1.738.93-1.815zm23.518.472c.153-.006.356.047.657.142 1.975.582 2.028.863.339 1.425-2.016.67-2.146.757-1.673-.54.264-.723.342-1.014.677-1.027zm-20.94.204c1.464.084 1.587 1.227.299 1.61-1.918.78-2.564.73-1.821-.423.403-.816.763-1.171 1.521-1.187zm-9.163.411c.175-.001.376.061.59.209.22.613.594 1.084.888 1.718-.3.276-1.018.271-1.475-.063-.917-.671-.76-1.857-.002-1.864zm46.045 1.321c.568.003 1.147.835 1.335 1.454-1.987 2.355-1.674 6.753-2.136 8.08-.4 1.08-.53.148-1.635-2.65-.446-1.13 1.803-6.745 2.323-6.87a.473.473 0 0 1 .113-.014zm2.031 2.415c.443.233 1.044.768 1.15 1.61.061.488-.2 1.137-.37 1.78-.4 1.526-.944 4.411-1.139 7.077-.083 1.134-.078 2.155-.133 2.254-.598 1.08-1.858-1.828-1.75-4.143.391-1.849.61-8.324 2.242-8.578zm2.807 3.323c.28.36.459.636.545.946.15.54.025 1.184-.32 2.557-.91 3.641-.779 7.566-.184 11.595.125.847-.513.423-1.478-1.037-.535-.81-.877-1.92-1.041-3.229-.336-2.864.312-6.746.863-9.809.244-1.355.414-2.55 1.615-1.023zm1.514 2.216 1.595 1.775s-.681 4.082-.677 6.259c-.111.815.793 9.684 1.088 10.4-.98-1.013-1.44-1.609-2.514-2.882-.122.018-1.053-8.738-.41-12.087.388-2.025.918-3.465.918-3.465zm2.504 3.527c.267-.01.608.27 1.036.823.386.5.574.911.595 1.534.015.454-.228.805-.236 1.615-.045 4.824.662 9.376 1.55 13.766.314 1.57-.296.93-1.305-.064-.926-.91-.942-1.256-1.436-2.549-.1-.258-1.084-9.154-1.076-9.826.035-2.765.12-4.305.466-4.968.113-.217.245-.326.406-.331zm-5.8 9.693s-1.857.882-2.344.573c-.784-1.974-3.615-7.259-3.663-8.194.05-.308 1.16-1.698 1.16-1.698 1.564 3.13 2.97 6.333 4.847 9.319zm-34.962-6.346c-.56.607-1.227.353-2.578-.194-.693-.196-.586.067-1.73.615-.887.426-1.199.437-1.787.432-.775-.006-1.054-.257-1.057.246-.001.279-.046 1.536-.23 2.186-.249.885-.466 1.276-.33 1.43.395.333.726.13 1.558-.612 1.379-1.23 2.31-.877 3.846-.42 1.747.52 2.109.712 3.707.196 2.264-.73 3.628-.73 4.53-.2 1.553.912 2.022.858 1.382-1.638-.207-.804-.221-2.052-.348-2.268-.144-.245-.54.453-.953.71-.79.49-1.199.481-2.98-.057-1.056-.32-2.24-1.363-3.03-.426zm28.66.325c.689 1.5 3.433 6.51 3.35 7.07-.535.442-1.25.765-1.674.369-1.373-2.31-1.784-3.556-2.899-6.149-.333-.62.663-2.199 1.222-1.29zm14.74-.184c.194-.025.6.348.902.72.94 1.16.996 1.304 1.026 2.547.108 4.508.722 9.814 2.098 13.905.271.805.785 1.784.73 1.917-.462.621-2.603-1.041-3.249-3.57-.89-3.21-1.412-6.56-1.695-8.74-.36-3.835-.357-6.579.187-6.779zm-16.466 2.486c.79 1.407 1.787 3.835 2.457 5.291.306.632-1.258 1.13-1.617.916-.625-.43-.92-1.641-1.33-2.367-1.305-2.633-1.54-2.688-.816-3.508.445-.57.976-1.268 1.306-.332zm19.564 1.615c.115 0 .263.103.451.326.825.9 1.386 1.587 1.601 2.254.157.484.031.846.087 1.723.148 2.296.801 5.43 2.653 11.845.18.626.426 1.366.395 1.567-.179 1.178-2.051-.731-2.596-2.703-.632-2.239-1.784-5.097-2.124-7.74-.7-4.196-1.087-7.273-.467-7.272zm-21.213 1.696c1.557 3.351 1.68 3.345.7 3.61-1.036.281-1.099.19-2.316-2.093-.888-1.666-1.063-1.875-.316-2.475 1.14-1.24 1.439-.057 1.932.958zm-21.681-.8c-.177.003-.699.368-1.223.56-1.286.47-3.57.502-4.962.115-2.467-.914-1.772.273.41.995 1.693.525 5.048.118 5.567-.856.32-.312.436-.818.208-.814zm18.756 1.763c1.39 1.981 1.807 2.773 1.572 2.927-.222.205-1.323.588-1.775.384-.568-.257-1.063-1.48-1.312-2.44.174-.469 1.087-1.31 1.515-.871zm-34.81.835c.62.002 2.236 2.005 1.908 2.367-.09.185-.696.008-2.111-.353-.473-.16-1.54-.29-1.203-.922.168-.287 1.158-1.093 1.406-1.092zm33.32 2.745c-.14.343-1.188.423-1.632.398-.383-.735-.484-1.085-.59-1.572.144-.292.862-1.048 1.216-.9.212.175.897 1.712 1.005 2.074zm28.912-1.931c.221.007.605.365 1.175 1.117 1.076 1.42.93 1.317 1.703 4.71.877 3.849 1.926 6.59 2.986 10.52.015.652-.272.48-1.057.038-1.283-.72-1.705-1.522-2.109-3.608-.689-3.445-2.145-6.633-2.704-10.704-.295-1.346-.318-2.084.006-2.073zm-32.32 1.375c.757-.024.655 1.053.438 1.227-.553.445-2.079.312-2.34.337-.587-.848 1.408-1.536 1.901-1.564zm36.168 3.662c.223.028.82.807 1.94 2.258 1.074 1.394.839 1.167 1.482 3.46.91 3.171 2.417 5.458 3.3 8.376-.003.333-.44.29-.858.132-.814-.315-1.542-.847-2.232-1.368-.472-.47-.468-1.068-1.862-5.492-.503-1.596-.634-2.01-1.262-4.436-.526-2.027-.76-2.962-.508-2.93zm-116.554 9.472c3.655 6.206 2.302 8.958-5.56 9.818-.568-.073-.032 3.18-.048 4.634 3.94-2.08 8.703-2.565 13.093-3.87-1.195 3.53-3.294 7.533-9.649 6.917-6.642-4.736-14.46-1.89-19.765-3.813-2.886-.992-3.987-3.949-4.022-4.456 3.46.32 7.367 1.004 10.72.78-3.663-2.603-2.591-6.206-2.075-7.853-4.286-4.986-.708-10.594 5.517-9.29.643.134 1.913.712 1.913.712 6.004-4.96 12.964-.3 9.876 6.421zm121.484-3.02c.249-.021.798.578 1.899 1.999 3.265 4.214 6.092 8.135 6.05 8.355-.142.726-3.545-.546-4.403-1.585-.978-1.185-3.73-7.283-3.725-8.252.001-.324.05-.505.18-.516zM49.712 843.3c1.698.23 2.172.363 2.154.976.146.52-4.121.59-4.7.203-.461-.308.134-.984.59-1.146.662-.183 1.316-.12 1.955-.033zm117.619.559c-23.838 10.389-33.59 38.02-21.558 59.194l-1.656 1.104c-11.797-22.388-3.021-46.378 16.146-58.493.776-.51 2.493-.902 3.29-1.39 0 0-7.818 1.645-10.465 2.6-.537-.016-2.114.497-3.809 2.192-1.481 1.267-6.113 7.159-5.965 7.364l-12.307.457.01.42 12.08-.258c-12.438 18.896-9.383 36.876-1.702 49.459l.19.117c.446.278 1.62-.516 4.058-2.646a248.194 248.194 0 0 1 2.812-2.424c1.506-1.273 3.651-3.47 5.125-5.056-8.363-15.73-.113-36.445 19.459-45.78.033-.498-.209-2.015-.209-2.015s-.74-.613-1.176-.55c-21.805 8.862-30.54 30.87-21.676 50.882l-1.462 1.468c-11.14-20.724.818-46.628 21.668-53.966-.01-.468-.462-1.066-1.022-.706-22.51 9.642-32.318 34.265-21.293 55.254l-1.388 1.132c-12.544-22.98.673-48.731 21.394-57.53.611-.131-.544-.829-.544-.829zm-121.327.214s-.158 1.224.31 1.642c.216.873-.128.778-.933.601-1.982-.436-.436.604 1.185 1.444 1.597.827 1.383.8-.01 1.614-.936.548-.839.754-.713 1.17.187.617.315.206.703-.123.815-.692 1.466-.865 2.19-.862 1.089.004 1.199.808 1.006 1.434-.432 1.316-1.9 1.246-3.104.919-1.969-.535-5.185-3.687-5.135-5.541-.137-1.662 2.327-2.374 4.501-2.298zm8.854.406c.763.259 1.724.605 2.78 1.013 1.46.428 2.94 1.125 3.893 1.711 2.904 1.787 2.727 5.36 2.517 5.715l-15.005 13.121s-.847-.382-1.646-.758c-2.522-1.187-3.129-1.813-1.729-2.47.68-.32.898-1.006.996-1.677.13-.899.079-.745.662-1.155 1.013-.713 1.062-1.007 1.067-2.192.003-.784.09-1.145.4-1.638.245-.391.504-1.207.677-2.145.029-.153.037-.538.07-.674.177-.733.429-.949.597-1.115.168-.166.438-.731.626-1.222.419-1.092.34-.93 1.016-.81.982.177.841.705.734 1.544-.052.407-.346.693-.246.601.134-.122.737-.385.862-.411.314-.066.627.033.708.487.045.253-.075.72-.067 1.08.02.933.061 2.052.292 2.788 1.114 3.548.893 3.057.513.104-.09-.706-.197-1.744-.087-2.608.078-.61.267-1.364.524-1.776.658-1.059.694-1.268-.734-1.79-.53-.193-1.435-.532-1.622-.87-.228-.414-.909-.977-1.795-1.17-2.156-.467-3.41-2.39-3.1-2.674.205-.187 1.073.057 1.622.075 1.968.065 2.386-.028 3.258-.72.464-.367.673-.694 1.042-.718.39-.007.887.26 1.175.354zm102.136 2.126c-20.158 15.048-23.691 39.39-13.635 58.174l-1.74 1.262c-12.638-22.033-4.15-45.802 11.377-58.8zm-116.38 1.794c.356-.03.745.45 2.16 1.846.954.94 1.946 1.757 2.468 2.031 1.184.524.926.306-.061 1.17-1.009 1.067-.452 1.945-1.657 1.41-3.137-1.358-5.34-5.36-3.3-6.324.154-.073.272-.123.39-.133zm-1.56 4.209a.846.846 0 0 1 .242.023c.387.088.856.759 1.36 1.227 1.394 1.295 2.04 1.87 3.155 2.324 1.095.447 1.125.556.354 1.345-.28.287-.447.631-.513.823-.066.192-.083.437-.318.479-1.221.216-5.28-2.055-5.439-3.622.131-1.466.532-2.555 1.16-2.6zm8.6.435c.704-.016 1.117.563 1.113 1.501-.002.65-.4.915-1.205 1.193-1.724.596-2.786-.542-1.58-1.799.506-.528 1.19-.883 1.672-.895zm-1.052 3.82c1.3.006 1.677 1.017.724 1.89-.896.82-2.703.824-2.7-.076.004-.706 1.149-1.816 1.976-1.813zm-8.061 1.211c.88.24 3.02 1.663 3.962 1.83.05.48-.576.612.313 1.514.403.41.438.69.087.862-1.074.528-4.795-1.141-5.044-2.86-.12-.839.181-1.316.682-1.346zm4.854 2.056c1.28.05 2.728.085 2.576.65-.11.408-.568 1.489-1.154 1.287-.285-.099-.562-.36-.76-.535-.683-.605-.864-1.41-.662-1.402zm48.407 4.89c3.73 3.115 17.276 35.653-10.954 59.359l-5.991 1.656c27.104-19.637 22.595-47.515 15.281-59.542.002-.353-.106-.312-.78.251-.591.494-.654.6-.416.691 8.266 11.736 11.355 44.883-21.211 60.878-.546.523.56.444.56.444.057-.431 14.663-3.706 13.632-3.788 13.614-11.103 25.466-37.582 10.712-60.663-.357-.216-.833.714-.833.714zm-4.702 3.684-.19.734c11.816 21.404.537 47.626-21.426 57.331.361.245.762.414 1.166.588 24.916-12.379 32.1-38.579 21.231-58.872zm-1.975 1.518-.138.777c9.781 18.216 2.016 43.494-21.33 53.749-.22 1.102.004.78 1.096.728 27.012-13.366 29.552-38.784 21.1-55.29zm-1.678 2.184c-.763.93-2.16 1.413-2.624 2.61 7.847 19.137-2.295 37.559-19.464 45.324-.014.963-.763 3.346 1.055 2.965 21.212-8.867 30.441-32.434 21.166-50.984 0 0-.12.081-.133.085zm106.548 37c.781.051 1.481.27 2.206.357 2.635.315 4.344 2.087 3.167 3.165-.387.355-.928.15-2.64-.622-.786-.355-.912-.687-1.075-1.488-.195-.96-.402-1.057-.667-.312-.267.752-.554 1.219-1.454 1.029-2.526-.542-1.571-2.146.463-2.128zm-28.185 16.293c-6.327-3.312-14.14-9.287-18.607-16.074-2.22 3.844-4.83 10.84-4.83 10.84l-9.93-2.559-.117.191 9.815 2.61-.957 3.022c-.103.327-1.623 3.766-1.623 3.766l15.33 6.601c-.949 1.372-1.985 2.259-3.302 3.538-.744.721-.765 1.656-.765 1.656l21.256-18.708s2.742 3.752 3.762 4.603c.956.798 1.254.991.138 1.23-4.995.675-8.87 4.164-7.52 8.844.22.521.66.33 1.606-.22 3.316-2.77 11.421-5.336 11.698-4.685l.032 2.98c-8.726.117-7.832 6.036-7.193 9.21 0 .07-2.523 2.105-2.523 2.105.892.431 1.766.878 2.59 1.41-.766 3.948 2.88 9.672 10.042 6.742.62.586 1.204 1.175 1.887 1.91.733-.782 1.578-2.627 1.578-2.627 3.558 1.485 10.94-1.84 7.164-9.455l2.081-1.832-2-1.163c-.051-1.936-.376-3.666-1.629-5.353 0 0 3.359.79 5.844.923 1.535.128 2.829.164 2.7-.692-.038-.252-.268-1.484-.418-1.888-.74-1.995-4.586-3.46-8.32-3.653-.61-.032-1.265-.014-1.396-.16-.244-.274.194-.662.596-.598 2.045.329 4.012-1.066 4.366-2.84.07-.311.488-.88 1.088-1.487 1.064-1.075 1.147-1.046 1.127-2.6-.014-1.077.191-1.317.73-2.04a4.665 4.665 0 0 0 .669-3.765c-.11-.44-.563-1.064-.178-2.162.627-1.787-.75-3.42-2.557-4.351-.145-.038-.101.092-.22.224-1.64.471-3.636-.613-3.636-.613-.412-.186 1.396-9.877 5.141-9.011.623.348.886 2.032.839 2.062.172-.004.266-.991.023-1.65-.253-.69-.835-1.35-1.952-1.155-.866.151-1.866 1.212-2.318 1.744-1.75 2.057-1.77 3.37-2.354 5.559-.281 1.034-.312.975-1.863-.144-1.114-.803-1.654-1.06-1.266-1.53.174-.212.895-.881.895-.881l13.558-12.037v120.54h-76.665l.536-15.491c1.439-10.892-1.092-33.765-3.007-35.916 1.477-1.53 6.06-5.222 5.807-5.389l-.607-.331-2.423 2.056-5.984-1.672c-2.553-1.626-5.158-3.13-7.86-3.77-4.412-1.045-12.91 2.284-12.918 2.319-13.577.927-24.449 6.014-24.297 5.975-.59-.5-1.373-2.1-1.394-2.09-6.998-8.986-13.878-14.02-23.278-20.162l11.906-6.068-28.212-27.198-.249-22.085L73.115 846.2c.241-.622 13.039 8.34 17.804 15.634.914-3.565 2.615-6.803 4.033-10.303.148-.32 8.131 2.723 10.5 2.852.353.02.639-.325.639-.325l-10.536-3.162 2.155-5.693s.75-1.547-.096-1.804c-4.803-1.433-9.31-3.96-13.903-6.112 0 0 2.146-2.201 2.178-2.298.03-.092.9-1.273.693-1.68-2.337 2.092-21.404 18.408-21.404 18.408-.543-2.8-1.396-3.78-3.25-5.507 1.01-.045 2.591-.966 3.505-1.58 2.794-1.879 4.316-5.23 3.95-7.189-2.683.788-5.105 1.711-8.465 2.274-1.888.316-3.68 1.103-4.765 1.947l-.167-3.125c.006.036 4.52.73 6.611-2.065 1.802-2.409 1.063-5.166.65-6.572.046-.312-.054-.277.723-.937.574-.487 1.467-1.117 1.467-1.117.039-.177-2.33-.988-2.731-1.728.63-5.79-4.384-8.026-8.628-6.997-.793.22-1.172.358-2.115-.612a222.69 222.69 0 0 0-1.273-1.248s-.5 1.064-.755 1.53c-.833 1.514-1.061 1.058-2.856 1.14-4.546.205-6.574 3.592-5.53 7.75.244.975.134.825-.56 2.059-.355.63-.934 1.434-.934 1.434s.834.426 1.396.658c.832.343.875.745.872 1.51.116 1.687.517 2.817 1.569 4.266-3.561.076-6.293-.231-9.518-1.22.494 4.576 4.149 6.28 8.625 6.95 0 0-.47.405-.963.585-1.048.28-1.703 1.129-1.694 1.89-.15.725-.66 1.454-1.128 1.842-.697.557-1.27 1.341-.996 2.858-.07 1.1-.358 1.417-.708 1.837-.702.843-.94 1.68-.764 2.789.081.515.254 1.619.138 2.76-.192 1.901.546 2.614 1.483 3.953.607.867.48.89.339 1.52-.337 1.51-.688 2.287-1.052 3.436-.815 2.572-.846 4.522-.18 5.023 1.004.757 2.14.53 2.669.379 3.96-1.129 3.275-4.717 3.483-7.125.113-.62.342-.917.565-.888 1.12 1.21 2.304 1.909 3.828 2.671-5.27 4.95-8.714 7.979-15.377 13.378l.181-120.568h76.015s.08.892-.101 5.255c-.33 8.866-.734 18.154-.103 27.193.106 3.128.036 6.217.523 9.312.475 3.016.685 6.267 2.212 9.076.613 1.522.633 1.405-1.705 3.399-1.147.978-2.122 2.02-2.08 2.203.015.06-.05.29.126.16.117-.086.964-.86 1.058-.962.634-.69 1.694.195 5.31 1.137.71.184 1.708.8 2.473 1.31 5.405 4.204 13.011 2.893 18.697.601 1.613-.65 2.009-.718 4.602-1.001 9.603-1.05 19.863-4.922 19.842-4.91l1.253 1.895s.472-.08.808.396c5.523 9.625 23.555 20.623 23.235 20.114l-11.787 6.02c8.581 9.783 28.204 26.38 28.204 26.38l-.452 23.853c-5.267 3.888-9.901 8.345-14.534 12.696-1.331 1.217-2.272 1.911-1.766 1.935 1.202-.17 2.24.924 3.22 1.683.62.638.47.58-.246 1.45-.502.613-.686.79-.688 1.232.018.856.011 1.43-.814 2.071-.513.594-.806.974-.899 1.678-.092.703-.085 1.154-.61 1.776-.887.174-.97 1.366-.815 1.9.93.85.505 1.771.592 1.578-1.775 1.778-3.64 3.319-2.45.833.537-.926.724-1.693.724-1.693s-.855.817-1.302 1.203c-.685.585-.935.24-.955-1.574-.088-1.374-.716-3.29-.965-3.657-.14-.204-.163.15-.098 1.473.086 1.74.31 2.244-.353 3.981-.897 2.346-1.535 2.679-.078 2.598 1.38-.077 2.546-.09 3.15.67.203.255.465.694 1.023.953 1.135.572 2.038 1.207 2.67 1.84 2.04 2.048 1.454 3.879-2.492 2.637-2.077-.653-.716-1.476 1.517-1.286 1.371.119 1.602-.35.415-.684-2.208-.377-2.564-.607-4.02.991-6.116-.558-9.55-3.713-11.2-6.283-.69-1.075-.902-1.28-.421-1.889.19-.24.074-.166-.252.166-.325.332-1.214.61-1.508.85-2.054 1.89-4.137 3.922-5.988 5.46zm26.619-13.246c1.038.118 1.018.923.091 1.696-.87.608-1.467.726-1.959.269-.86-.8.251-1.97 1.868-1.965zm3.023.557c.836-.003 1.904.353 3.172 1.325 1.513 1.16 1.859 3.97.47 4.456-.583.204-.673.005-1.914-1.083-.836-.733-1.744-1.397-2.637-1.79-1.824-.8-2.058-1.103-.826-1.649a2.21 2.21 0 0 0 .75-.639c.316-.468.412-.617.985-.62zm-1.97 3.742c.241.006.565.142 1.072.393 3.074 1.55 4.578 3.978 3.537 5.35-.683.898-1.793.555-2.64-.72-.477-.719-1.744-1.638-3.181-2.31-1.646-.77-1.682-.88-.493-1.407.488-.215.855-.52 1.093-.909.277-.45.3-.406.611-.397zm.985 5.788c2.323 2.137 2.057 3.294.548 4.164-1.03.594-2.683.742-3.225.25-.875-.706-.852-1.515.116-1.775.902-.178.564-.512-.28-.71-3.012-.788-4.863-2.263-1.589-1.944.94.092 1.85-.581 2.34-1.12.711-.795 1.67.75 2.09 1.135zm-158.41.823 67.795 89.553-54.809-.099s-.206-.657.24-6.025c.66-7.283-.353-13.599-2.221-20.708.236-.024-2.624-8.63-4.849-12.834-.405-.88-.338-.966.975-1.122 3.88-.575 8.058-1.442 11.934-2.954 1.802-.147 4.447.502 4.305.298-.065-.097-2.345-2.025-2.345-2.025-6.328 2.333-12.168 3.186-17.665 3.766 7.297 11.459 9.901 27.057 7.713 41.07l-10.501-.03-.032-68.959zm12.116 13.263c.958-.034 3.344 1.52 3.635 2.688.06.24.68 1.676 1.375 3.012.014.247 2.364 4.162 1.331 3.821-2.054-2.576-5.725-6.962-6.648-9.1.001-.284.04-.411.307-.42zm7.324 3.917c.129.647.84 2.34 1.4 3.454 1.464 2.906 3.73 7.462 3.269 8.759-.31.874.008.828-.821-.251a260.044 260.044 0 0 0-1.975-2.533c-.742-.918-.243-.076-.666-1.57-1.01-4.226-2.64-6.446-3.7-8.915-.377-1.16 2.008.59 2.493 1.056zm1.303.645c.197.127 2.884 1.87 3.156 2.12.952 3.126 4.76 13.137 3.774 14.926-.343-.248-1.794-1.863-1.996-2.695-.439-4.787-2.085-8.23-3.851-11.797-.497-1.076-.888-2.151-1.083-2.554zm5.054 3.515c.85.383 1.731 1.26 2.23 2.043.333.531.504 1.157.818 2.473.974 4.085 2.831 8.225 1.996 12.584-.521.652-1.655-.826-1.817-2.282-.537-4.827-.997-7.14-2.837-12.816-.357-1.101-.627-1.964-.39-2.002zm4.315 3.744c.182.008.554.32 1.175.857 1.208 1.047 1.378 1.432 1.385 3.167.04 2.551.96 5.464 1.103 8.04.083 1.485.378 5.33.129 5.557-.352.448-1.911-1.181-1.79-3.678.198-3.002.036-5.26-1.35-10.453-.641-2.4-.966-3.426-.688-3.485a.15.15 0 0 1 .036-.005zm125.167-15.16c4.844 2.87 3.136 8.164 2.099 8.815 6.689 7.798-3.709 11.791-7.008 8.988-4.885 4.478-13.267.725-10.039-6.656-.004 0-6.135-10.812 5.964-10.09 0 0 .208-4.369-.133-4.568-4.32-.268-10.19 3.568-11.853 4.63-.922.514-1.124.269-1.124.269-.23-2.268-.236-3.306.762-4.57 1.743-2.207 4.624-2.953 8.409-3.72 4.683 1.33 9.143 3.42 13.482 3.095 2.39.012 4.834.369 7.15 1.516 1.563.68 2.377 3.232 2.377 3.232-2.452 1.183-10.086-.941-10.086-.941zm-2.304-16.033c.02-.775.968-1.638 1.901-1.537 1.282.085 1.45 1.486.31 2.002-.329.246-1.393-.117-1.451.155.078.477-.443.276-.544.104-.176-.202-.216-.492-.216-.724zm-.777 3.053c.47-.305.864-.332 1.338-.389.727-.082 1.657.02 1.864.723.203.69-1.233 1.097-2.394 1.115-.59.01-1.275.116-1.452-.267-.167-.359.406-1.02.644-1.182zM37.644 870.995c.934-2.998.35-4.676 1.908-8.37l3.792 1.164s.16 3.624-.604 5.643c-.765 2.017-3.28 3.626-5.096 1.563zm28.245 81.064c.448.05 1.546 1.493 2.042 2.812.455 1.223.305 2.777.636 4.095.745 4.517.7 9.042.503 10.41-.098.682-.575.404-1.226-.246-.948-.945-.817-.965-.806-3.588.01-2.249-.53-7.805-.78-8.934-.46-2.088-.652-4.08-.544-4.422.03-.096.092-.137.175-.127zm44.348.54c4.883.718 8.787 3.793 11.024 8.857 2.16 5.149 2.691 12.174 3.026 18.633-.023 1.545-.713 1.155-2.522.195-1.976-.891-2.396-.633-5.28-.024-1.8.38-1.638-.749 1.323-2.622 1.008-.607 2.181-1.418 1.796-1.539-.196-.062-1.098.162-1.75.649-2.905 2.166-3.693 2.693-2.855.587.212-.533.885-2.01 1.166-2.717 1.052-2.647-.16-3.78-3.734-5.455-.895-.419-1.483-1.118-.59.346.73 1.197-.78 2.163-2.648.762-1.298-.974-3.908-.325-4.75.89-.816 1.177-.38 3.373 1.229 4.084 1.417.564 1.945.158.575-.719-1.763-1.128-1.42-3.03.56-3.024.488.002 1.352.505 3.536 1.6 1.562.78 2.674.45 2.676-.714.001-.78.484-.716 1.512-.247 1.383.63 1.232 1.203.5 2.967-.492 1.231-.738 2.632-1.19 3.92-1.165 4.334-1.32 9.243-.031 10.773 3.428 4.07 7.069 3.638 10.186.949l-.134 4.456c-3.178 2.354-6.891 3.959-12.624 12.684-2-2.317-10.578-11.79-24.333-13.93l-3.096-3.907c.053-.242-2.312-14.533-3.86-19.398 0 0 1.702-2.385 3.248-4.142 6.176-7.02 16.615-15.056 27.04-13.914zm-17.94 4.056c-.528.155-.7-.818-.412-1.004.636-.049.86-.03 1.498.013.481.028.47.536-1.085.991zm-23.212-.729c.687.452 1.525 1.667 2.345 2.775.454.612.197 1.629.267 2.632.1 1.422.271 3.767.38 5.208.212 2.81-.074 5.16-.518 6.007-.455 1.015-1.378.314-1.606-1.074-.055-.334.245-3.78.246-5.672 0-3.255-.902-7.271-1.114-9.876zm20.821-.02c.243-.012.428-.004.588.186.74.875 1.042 1.405.367 1.884-.894.69-1.708.516-2.205-.793-.319-.932.435-1.226 1.25-1.277zm-2.757.772c.798.494 1.59 1.793 1.673 2.731-.05.258-.296.476-.832.876-.531.449-.7.42-1.292-.443-.93-1.341-1.366-2.224-1.184-2.687.465-.446 1.07-.623 1.635-.477zm32.515.17c1.333.104 2.65.666 3.946.949l-1.979 1.765a38.42 38.42 0 0 0-1.967-2.714zm-35.473.92c.73.878 2.005 3.174 1.937 4.028-.186.29-.475.55-.782.712-.243.06-.462-.332-1.287-1.678-1.434-2.34-1.853-3-1.109-3.282.391-.04.987-.023 1.24.22zm-2.892.544c.798.655 2.711 4.143 2.767 5.124-.022.276-.111.515-.289.7-1.203 1.195-.898 1.002-2.69-2.4-1.512-2.798-1.911-3.074-.911-3.389.221-.07.775-.161 1.123-.035zm-2.875.91c.525-.007.672.804 1.696 2.649 1.713 3.488 2.356 3.973 1.968 4.346-.478.556-.757.947-1.211.271-1.034-1.55-2.059-3.528-3.021-5.264-.77-1.297-.84-1.454-.344-1.77.283-.183.706-.229.912-.232zm30.585.991c-.644.167-3.233.924-1.647 1.06.32.028 1.132-.159 1.703-.195 1.603-.102 4.937.176 4.818-.107-.304-1.063-4-.964-4.874-.758zm-32.827.327c0 .059.416.739.83 1.405 2.435 4.341 3.789 5.922 3.356 6.608-.356.415-.906.936-1.231.812-.524-.199-1.222-1.62-2.965-4.836-1.801-3.325-1.989-3.574-1.063-4.005.38-.162.84-.282 1.073.016zm-2.433 1.531c1.12 1.679.973 1.458.96 6.922-.008 3.4-.482 5.569-1.098 6.405-.323.438-.893.18-1.175-.677-.13-.392.239-.974.308-1.595.435-4.091.131-8.18.141-12.052.338-.032.684.724.864.997zm28.872 1.34c.521.687.394 1.24.39 2.164-.006 1.306.096 1.402 1.074.743.866-.585.936-.623 2.481.345.917.574 2.074.64 2.822.005.527-.447.71-.246 1.416-.076.77.394.988.455 2.638-.284 1.114-.454 1.159-.52 1.821-.198 1.166.948 1.338.605 1.18-.635.003-.432.14-1.24.277-1.766.58-2.204-.359-2.228-1.6-.823-.481.544-1.553.78-2.566.34-1.45-.628-3.715-.374-5.389-.114-1.98.307-2.897-.196-3.693-.823-.45-.355-1.48-.671-1.595-.4-.114.272.12.7.744 1.522zm-26.558 3.092c.248-.05.629.628 1.186 2.064.718 1.853-.538 8.295-1.293 9.35-.4.553-.657.893-1.478-.133-.327-.45-.072-.594.251-1.86.493-1.927.908-5.045.934-6.496.007-1.882.12-2.87.4-2.925zm2.525 6.249c.178.011.387.383.672 1.117.404 1.009.208 2.953-.323 4.44-.308.868-.6 1.791-1.124 2.567-.178.435-1.092.283-1.344-.682-.16-.61.39-1.367.656-2.339.268-.975.573-2.216.724-2.84.279-1.525.478-2.28.739-2.263zm19.538 2.855a.133.133 0 0 0-.056.004l-.016.015c-.042.038 1.905 1.995 2.427 2.542.273.213 2.618 2.843 1.16 2.24-3.68-1.408-7.985-.717-10.637 1.642-.332.295-.606-.007-1.61-.076-2.06-.141-2.808.612-1.555 1.548.191.144.592.208.772.438.166.21.117.59.203.695 3.982 4.877 11.357 5.826 15.987 2.64.583-.4.91-.542 1.452-.393 1.077.296 1.172-.536.22-1.7-.414-.506-.925-1.091-.627-1.26.588-.466.879-1.229-.144-1.515-.705-.196-1.495-.92-1.891-1.93-.463-1.18-4.998-4.804-5.685-4.89zm-18.076 2.135c.865-.019.905 4.699-.051 6.13-.492.543-1.616-.465-1.447-1.5.128-.787 1.047-4.333 1.257-4.517a.395.395 0 0 1 .241-.113zm17.645 2.944c.727-.006 1.72.294 2.511.953.428.356 1.176 1.899.865 2.503-.087.308-.984.29-1.066.065-.493-3.114-3.229-3.566-4.097-.66 0 0-.563.442-.635-.409.195-1.65 1.035-2.439 2.422-2.452zm22.027.27c.87-.015 1.698.389 2.124 1.245.297.598.33 1.1.211 1.363-.088.196-.38.11-.38.11-1.389-3.513-3.278-1.888-3.963.054 0 0-.714.204-.803-.005-.09-.21-.034-.605.25-1.152a2.966 2.966 0 0 1 2.56-1.615zm-18.574.218c.492-.024 1.333.344 1.963.93.64.594.702.95.185 1.39-.31.265-1.413.527-1.627.067l-.929-2.003c-.088-.19.185-.373.408-.384zm-6.69.095c.55.001.666.117-.198 1.972-.185.396-2.402-.18-1.98-.945.634-.609 1.627-1.028 2.178-1.027zm22.21.147c.222-.01.402.02.478.113-.198.066-1.036 2.022-1.036 2.022-.792-.089-1.738.015-1.909-.583-.162-.564.158-.907 1.272-1.302.338-.113.827-.235 1.196-.25zm6.49.501c.84.284 1.037.94.93 1.279-.082.256-.479.258-.76.061-.268-.287-.662-.775-.631-1.103.087-.327.194-.33.461-.237zm-41.83 1.807c.258.449.724 2.988.18 2.923-.53-.126-.775-.892-.868-1.581-.019-.142.452-1.325.688-1.342zm9.24 1.356c.245-.032.86.167 1.776.644 3.01 1.342 6.097 1.532 9.375.856 1.891-.452 2.373-.718 2.64-.418.454.508-.262 1.017-2.932 1.845-2.928.908-5.966.755-9.96-1.846-1.074-.699-1.213-1.04-.899-1.081zm33.412.7c.495.853-1.192 1.663-2.047 1.89-1.816.485-4.568.26-6.123-.603a4.607 4.607 0 0 1-.374-.23c-1.264-.869-.74-1.49.667-.82 1.514.72 4.594.853 6.228.126.82-.365 1.382-.822 1.649-.363zm-37.388 1.591c-.168.035.116.426.703 1.013 4.119 4.266 13.945 6.58 19.469 2.184 1.73-1.498 1.466-2.172-1.263-.976-3.017.916-7.305 1.036-11.013.53-1.823-.228-4.793-.872-6.3-1.89-.95-.64-1.448-.891-1.596-.86zm28.4.128c.25.019.691.105 1.648.564 1.395.67 4.564.44 5.602.086 2.186-.744 2.635.202.563 1.258-2.307 1.289-5.493.785-7.352-.876-.576-.476-.887-1.068-.634-1.116.024-.005.136.081.172.084zm-27.306 7.544c8.111.684 20.351 8.11 25.124 17.032h-2.747c-4.795-7.02-12.173-12.671-20.928-14.78-.346-.245-1.635-1.94-1.449-2.252zm36.002 1.635-.375 2.466c-1.359 1.028-6.341 4.837-10.036 10.8-.77-.033-1.143-.89-1.015-1.472 2.959-5.382 6.496-8.354 11.426-11.794zm-32.78 1.93c1.86-.118 13.967 5.881 18.044 13.467h-2.232c-4.586-5.511-9.683-9.106-14.207-10.548-1.1-1.071-2.305-2.872-1.606-2.919zm32.405 1.716-.02 3.333c-2.897 2.602-5.014 5.22-6.671 8.418h-2.25s-.5-.915-.325-1.484c2.556-4.245 5.004-7.336 9.266-10.267zm-18.392 11.75h-2.176c-1.837-2.396-4.566-4.702-7.071-6.074-1.027-1.174-2.177-2.622-1.714-2.857.027-.867 9.66 5.14 10.961 8.932zm18.44-6.78-.048 1.928c-1.473 1.738-2.707 3.196-3.887 4.853h-1.855c1.692-3.37 5.94-7.69 5.79-6.78zm-24.982 3.732c.671.164 3.124 2.325 3.046 3.049l-1.104-.03c-.62-.722-1.354-1.472-1.79-2.21-.272-.468-.447-.9-.152-.809zm24.555.596c.007-.002.01-.002.015 0 .004.002-.021 2.453-.021 2.453h-1.862c-.2-.034.901-1.852 1.868-2.453z"/><path d="M161.672 759.087a2863.85 2863.85 0 0 0-28.62.147l69.314 90.743.056-20.159-22.243-26.485c5.062-1.44 11.243-2.436 16.11-2.836-6.25-12.786-9.378-24.795-6.623-41.254-9.847-.104-18.87-.155-27.994-.156zm26.84.578c-.544 5.81-1.256 12.29-.114 19.486-3.607-1.216-4.453.86-5.051 1.079-.679-1.396-3.193-3.812-6.04-.973-1.48 1.476-.76 4.253 2.675 5.505-3.934.278-5.978-2.824-6.668-6.023-2.127-1.256-4.362-2.497-4.575-6.9l1.09.168c-.362 3.072 3.098 4.636 5.122 3.17 1.31-.925 1.45-2.353.933-4.572 1.051-.198 3.514-1.15 2.863-4.069-.899-4.03-5.385-3.557-7.435-.906-1.703-1.946-4.827-2.307-6.08.715-.697 1.683.893 3.573 2.7 3.938-4.013.71-6.036-4.394-6.26-7.849l-1.663-2.722c10.847-.058 15.59-.047 28.502-.047zm-54.331.099 8.05.005 58.753 70.151.123 17.465zm20.354.005 1.282.014c1.006 6.174 4.854 10.645 11.437 12.82.342 5.045 2.978 11.897 12.981 14.212-.295 5.696 3.671 11.14 7.917 13.749 0 0-1.146.261-2.042.34-5.708-4.176-7.115-10.325-7.681-12.862-.193-.367-.737-.456-1.17-.545-4.885-1.592-8.997-5.295-10.677-9.814l-1.057-4.436c.002-.57-.123-.302-1.575-.795-3.769-1.28-7.252-5.042-8.815-9.535-.822-2.362-.6-3.148-.6-3.148zm-5.177.014 4.51.005s.026.734.092 1.212c.607 4.423 4.912 9.975 9.302 11.816.621.26 1.486.627 1.688.8 1.227 7.252 4.79 11.62 12.31 14.61.119.115.458.187.558.332 1.025 4.484 3.266 9.682 7.527 12.54l-1.842.176zm22.03 7.61c1.02 0 1.848.764 1.848 1.705 0 .94-.828 1.7-1.847 1.7-1.02 0-1.848-.76-1.848-1.7s.828-1.704 1.848-1.704zm-62.246 9.3c.107.247-25.226 20.018-22.76 57.218l-.734.758.2.265c-.837.876-1.642 1.58-2.555 2.433 5.253 3.09 14.41 6.461 14.438 6.373l-1.75 3.74 10.944 3.262-1.467 3.555s-7.614-2.33-10.77-3.3c-1.556 3.185-2.499 6.549-3.632 9.862-.107.267-.356.138-.744-.38-5.685-8.945-17.362-15.4-16.968-14.76l-41.406 36.25-.282 22.402 28.656 27.25s-8.293 3.765-12.217 6.235c3.052 2.298 6.505 4.067 9.538 6.24 6.275 4.083 10.51 10.085 14.577 14.15 19.18-8.774 38.495-8.285 55.177-2.959-1.943 1.887-4.112 3.522-6.116 5.568 4.85 11.739 3.297 35.052 3.053 35.686 10.095-9.515 25.113-29.919 23.11-58.647l4.248-3.93c-.078-.201-10.627-5.412-15.023-6.546l1.216-3.57-10.529-3.035 1.175-2.836 10.488 2.803c1.985-4.499 4.089-10.8 4.089-10.8 4.188 5.782 8.804 11.04 18.307 16.39l41.17-36.344-.267-23.368-28.03-25.863 11.668-5.61c-1.121-.834-2.747-1.626-3.9-2.462-.082-.06.232-.24.149-.298-.293-.208-.507-.377-.806-.568-.067-.043-.277.237-.343.194-3.96-2.562-7.92-5.083-11.037-8.148-.078-.077.038-.396-.04-.473-1.62-1.597-3.233-3.082-4.88-4.654-.764-.711-2.027-2.4-2.027-2.4l-.072-.559-1.77-2.054c-5.7 3.102-30.003 10.888-53.52 2.267l4.47-4.123c-1.19-2.649-1.962-5.604-2.269-8.025-1.23-9.707-.759-27.188-.759-27.188zm74.13 5.497c1.076 0 1.95.806 1.95 1.799 0 .993-.874 1.799-1.95 1.799-1.075 0-1.944-.806-1.944-1.799 0-.993.869-1.799 1.944-1.799zm6.099 2.14c.992 4.471 3.174 10.963 5.348 15.34l-2.59.265c-2.108-1.264-4.337-3.109-4.571-5.725-5.703.04-7.37-8.213-5.287-7.222-.266 2.82 1.926 3.93 4.077 3.654 1.851-.238 3.452-2.598 1.249-5.202.979-.351 1.458-.617 1.774-1.11zm-80.814 13.223c.378 5.717 1.594 9.887 2.73 14.207l-11.268 9.81c.88-8.954 3.73-16.956 8.538-24.017zm54.038 18.832 1.432 1.894c-16.283 8.823-44.075 9.446-61.006 2.007l2.247-1.974c14.888 6.203 39.128 6.664 57.327-1.927zM56.843 819.33c-1.64-.019-3.534.559-5.541 1.97-7.47-3.14-12.362 4.2-7.743 9.06-.683 3.5-1.201 4.151 1.653 7.694-3.032.356-6.858-.376-10.113-.838.55 5.182 8.591 6.388 11.94 5.818 3.614-.723 7.024.928 7.172.966 2.125.547 3.446 1.491 5.541 1.946 3.457.758 8.518-2.979 9.251-6.529.07-.477.23-.908-.056-.98-2.363.558-4.959 1.344-7.26 1.809-2.254.51-3.953 1.014-5.67 2.253l-.143-4.28c11.701.514 6.609-9.751 5.946-10.192 2.174-4.05-.441-8.646-4.977-8.697zm106.363.322 2.545 5.648-6.763 2.116-1.729-5.53zm-106.85.17c3.977.036 7.535 3.9 3.715 8.228 7.405 6.026-2.085 12.484-6.604 8.001-6.016 5.083-12.406-.226-9.046-5.761-6.415-5.297 1.497-12.402 6.901-7.826 1.328-1.883 3.226-2.658 5.034-2.642zm46.177 2.07c.953 0 1.724.711 1.724 1.59 0 .878-.771 1.59-1.724 1.59-.952 0-1.724-.712-1.724-1.59 0-.879.772-1.59 1.724-1.59zm-44.058.118a.562.562 0 0 0-.344.146c-.193.017-.612.68-1.662 1.804-1.826 1.953-2.024 1.972-2.024 1.972-1.945-.588-3.246-.27-4.528.478 0 0-1.462-.256-3.48-1.81-.92-.71-1.414-.864-1.574-.484-.17.406.246.805 2.011 1.913 2.442 1.533 2.29 1.416 2.29 1.416-.15 1.347.086 2.442.639 3.462 0 0-.43.957-2.164 3.052-.49.592-.892 1.236-.893 1.43-.004.815.767.267 2.54-1.8.694-.81 1.647-1.969 1.647-1.969 2.082.665 2.811.26 4.116-.167 0 0 .448.307 1.583 1.142 2.077 1.528 2.527 1.69 2.782 1.496.343-.26.298-.346-.488-.87-2.342-1.566-3.148-2.47-3.148-2.47.476-1.712-.045-3.129-.556-4.022 0 0 .037-.218 1.36-1.58.97-1.002 2.3-2.58 2.216-2.808.022-.141-.107-.334-.323-.331zm47.948.345 6.09 1.747-1.344 5.842-6.49-1.931zm44.074 1.435 1.698 5.7-6.337 1.552-1.036-6.05zm4.448.094c.952 0 1.724.712 1.724 1.591s-.772 1.59-1.724 1.59-1.724-.711-1.724-1.59c0-.879.772-1.59 1.724-1.59zm14.402.204 5.326 4.374-5.91 2.756-2.848-5.7zm-50.22 1.264 6.187.672-.251 6.136-7.101-.876zm-21.468.066 6.886 2.789-2.484 6.4-7.05-2.793zm17.748.497c2.537.367 1.855 3.13 0 3.182-.952 0-1.724-.713-1.724-1.591 0-.879.772-1.59 1.724-1.59zm22.263.005.846 6.14-6.424.36-.138-6.24zm4.417.7c.952 0 1.724.713 1.724 1.591 0 .879-.772 1.591-1.724 1.591s-1.724-.712-1.724-1.59c0-.88.772-1.591 1.724-1.591zm-89.43.577c.983 0 1.78.731 1.78 1.638 0 .906-.797 1.642-1.78 1.642-.982 0-1.775-.736-1.775-1.642 0-.907.793-1.638 1.775-1.638zm76.07-.06c.952 0 1.723.712 1.723 1.59 0 .879-.771 1.591-1.724 1.591-.952 0-1.724-.712-1.724-1.59 0-.88.772-1.591 1.724-1.591zm30.256.393 2.504 6.31-7.02 2.088-1.985-6.481zm4.926.17c.952 0 1.724.712 1.724 1.59 0 .88-.772 1.591-1.724 1.591-.953 0-1.724-.712-1.724-1.59 0-.879.771-1.59 1.724-1.59zm12.134 1.79 4.536 2.958-2.248 1.156c-.589-1.301-1.628-2.843-2.288-4.114zm-64.833.572 6.695 1.34-1.02 6.472-7.307-1.345zm-19.913.356 3.556 1.543-2.345 5.392-5.752-2.826zm15.895.35c.953 0 1.724.712 1.724 1.59 0 .88-.771 1.591-1.724 1.591-.952 0-1.724-.712-1.724-1.59 0-.879.772-1.591 1.724-1.591zm38.671.355 1.196 6.472-7.553.98-.467-6.6zm28.277.123c.952 0 1.724.712 1.724 1.59 0 .88-.772 1.591-1.724 1.591-.953 0-1.724-.712-1.724-1.59 0-.879.771-1.591 1.724-1.591zm-5.357.047 2.499 5.705-7.389 2.85-2.185-5.71zm-18.84.412c.952 0 1.723.712 1.723 1.59 0 .88-.771 1.592-1.724 1.592-.952 0-1.723-.713-1.723-1.591 0-.879.771-1.59 1.723-1.59zm-24.952.649 7.07.118-.082 6.543-7.742-.199Zm56.547.454 2.781 1.78c-28.62 16.982-68.825 19.087-100.2 2.372 0 0 1.282-1.179 2.011-1.87 28.284 15.619 69.577 13.427 95.408-2.282zm-60.38.739c.953 0 1.724.712 1.724 1.59 0 .88-.771 1.591-1.724 1.591-.952 0-1.724-.712-1.724-1.59 0-.879.772-1.591 1.724-1.591zm14.516.36c.952 0 1.724.712 1.724 1.59 0 .879-.772 1.591-1.724 1.591-.953 0-1.724-.712-1.724-1.59 0-.88.771-1.591 1.724-1.591zm-33.674.875 7.383 1.97-1.257 5.378-8.096-2.15zm-4.885.038c.953 0 1.724.713 1.724 1.591 0 .879-.771 1.59-1.724 1.59-.952 0-1.724-.711-1.724-1.59 0-.878.772-1.59 1.724-1.59zm57.348 1.146 1.765 6.036-8.163 1.61-.986-5.937zm4.69.876c.952 0 1.723.712 1.723 1.59 0 .88-.771 1.591-1.724 1.591-.952 0-1.724-.712-1.724-1.59 0-.879.772-1.591 1.724-1.591zm-106.645.937-.016 4.233a164.567 164.567 0 0 0-4.448-3.234c1.596.078 3.08-.328 4.464-.999zm-16.814.104c.372-.003 1.244.278 2.283.275 3.324-.01 9.534.947 11.37 2.339.612.462 1.528.872 2.027 1.619-.002.356-.547.365-1.35-.095-1.539-.882-4.1-1.668-7.527-2.107-.619-.079-.696-.056-.697.213-.002.333.57.527 2.375.8 2.336.354 2.833.566 3.35.696 1.388.35.501.82-.927.945-5.827.504-10.19-1.81-11.068-4.453-.07-.173-.005-.23.164-.232zm81.185.095 7.332.876-.333 5.662-8.025-.847zm-62.35.492c1.281.928.4 3.741-.297 4.569-.452.465-1.51.218-1.504-.436.16-.587-.066-3.384.072-4.25.51-.27 1.263-.193 1.73.117zm84.967.251.38 5.838-8 .336.062-5.733zm-26.988.393c.952 0 1.724.712 1.724 1.591 0 .878-.772 1.59-1.724 1.59s-1.724-.712-1.724-1.59c0-.879.772-1.59 1.724-1.59zm-44.572.08c.296 4.284-6.835 7.19-9.502 5.876-1.181-.582-.69-.941 1.652-1.378 3.03-.74 5.026-1.461 5.028-1.983.002-.32-.458-.282-1.693.142-1.902.59-3.88.842-5.695 1.595-1.358.569-1.886.768-2.191.426-.64-.717 2.377-2.525 5.505-3.006 2.348-.36 4.714-1.515 6.896-1.671zm75.973.536c.952 0 1.724.712 1.724 1.59 0 .879-.772 1.591-1.724 1.591-.953 0-1.724-.712-1.724-1.59 0-.88.771-1.591 1.724-1.591zm-16.034 1.164c.952 0 1.724.713 1.724 1.591 0 .879-.772 1.59-1.724 1.59-.953 0-1.724-.711-1.724-1.59 0-.878.771-1.59 1.724-1.59zm38.414 2.704c11.539 10.137 24.186 21.807 34.618 31.406l-.046 15.07-39.836 34.933c-7.214-4.063-13.32-9.143-18.943-18.165.634-.505 1.192-.826 1.673-1.378l-2.078 1.146c-7.349-10.844-10.466-32.45 2.016-49.77l-12.612.425 2.058-3.962 13.73-.691 5.552-5.497s1.759-.3 3.217-.61c1.446-.309 4.398-1.088 6.562-1.733 2.164-.646 4.006-1.175 4.09-1.174zm-93.13 2.807s11.857 5.946 18.44 17.853c-21.28 16.89-29.303 36.56-31.113 57.033-11.583-9.996-17.436-15.526-27.901-25.234l.38-14.486zm44.762 1.889c-3.068 6.051-5.707 12.68-8.071 19.784l-3.3-.9s2.135-.823 3.085-1.344l-1.714-2.547 3.248-1.23-1.92-2.16 3.295-1.76-1.647-1.909 3.017-1.391-1.873-1.989 3.166-1.628-1.652-1.903zm1.01.014s.426.075.924.166c.12-.043-.594 1.586-.518 1.643 1.152.218 1.22.16 1.565.255l.877-1.676 1.442.251c-2.908 6.057-6.019 12.683-7.804 19.856l-1.698-.327s.496-1.512.497-1.714c-.199-.039-1.155-.41-1.452-.52-.102.236-.708 1.988-.708 1.988l-1.344-.033c2.2-7.832 6.036-16.516 8.22-19.889zm5.527.232 3.011 2.3-3.417 1.227 1.77 2.173-3.622 1.207 2.078 2.259-3.586 1.221 2.14 2.732-3.731 1.16 2.355 2.4-3.366 1.453 2.017 1.842s-2.1.639-2.222.667c-.338.08-1.75-.241-1.75-.241 2.128-6.99 4.757-14.074 8.323-20.4zm-73.274 1.165c-.832.498-.357 1.582-1.4 2.509-.167.166-.182.547-.247.88-.05.253-.874 3.277-.874 3.277s.208-.23.538-1.195c.282-.823.526-2.386.68-2.647.768-.216.885-2.53 1.665-2.214.45.183.364.561.11 1.45-.555 1.773-.773 2.52.18 1.31 1.423-1.58 1.562-3.007-.042-3.309a6.356 6.356 0 0 0-.61-.061zm21.519.658-37.225 32.25-.112 12.034 12.955 12.115 9.194 8.223c3.338-18.417 10.995-35.987 29.847-51.191-2.889-4.286-7.837-9.684-14.66-13.431zm100.339.331c-21.872 9.485-26.902 28.938-20.129 46.547 10.423-12.369 18.604-23.99 20.129-46.547Zm-77.846.985 9.934 2.95-3.74 11.769-8.944-2.505-.913-2.083zm76.748.308c-.95 15.738-7.383 31.11-18.574 43.171-5.659-12.88-2.255-33.475 18.574-43.171zm-53.5.085-.626 1.463 1.375.36.585-1.487zm-1.375 3.456-.564 1.486 1.41.44.53-1.51zm58.594.27c-3.061 21.83-15.844 41.697-29.348 51.82 4.303 6.441 9.363 10.584 14.505 14.042l38.04-33.622-.149-11.216ZM75.14 861.592c-.234.799-.317 1.204-.317 1.204s.438-.373 1.595-.957c7.474-3.44 5.063 1.791 1.54 3.726-.786.386-1.595.846-1.595.846s.748.156 1.558.295c4.536.87 3.57 3.318-1.16 2.937-.7-.057-1.522-.179-1.522-.143 0 .036.284.956.611 1.717 1.595 3.706-1.38 3.995-3.337 1.638-.273-.328-.89-1.233-.89-1.233s-.193.684-.31 1.347c-1.691 5.809-5.862 5.662-4.306-.232.195-.61.433-1.7.433-1.7s-.938.523-1.959.944c-5.402 2.225-6.279-.065-1.372-3.414 1.397-.953 1.87-1.327 1.87-1.327a15.408 15.408 0 0 1-2.378-.348c-3.915-.907-4.958-3.066 1.314-2.964.926.017 1.87.073 1.87.073s-.31-1.24-.636-2.176c-1.513-4.33 1.536-4.846 4.109-.966.547.825.704.83.704.83-.079.002.162-1.477.785-2.846 3.114-5.322 4.334-.465 3.393 2.75zm67.276-4.308c-2.613 4.26-4.891 8.495-5.978 12.91l-10.164-.16c.703-3.916 2.498-7.989 4.643-12.295 4.138-.105 7.87-.272 11.499-.455zm-26.835 1.89-.585 1.566 1.473.417.533-1.525zm-76.008 2.94c-1.089 2.61-1.453 5.518-2.058 7.848-.255 1.351.005 1.914.883 2.216 1.249.43 3.05-.156 4.058-1.486.569-.751.981-2.3 1.068-5.038l.097-2.438c-1.545-.265-2.6-.647-4.048-1.103zm74.633.34-.487 1.44 1.421.487.544-1.454zm65.829.54c1.73.039 2.05.182 3.617 1.036l3.022 2.87c-.792.7-1.288 1.682-1.288 2.774 0 2.122 1.866 3.844 4.167 3.844 1.14 0 2.924-1.108 2.924-1.108l4.79 4.577c-2.792 1.129-5.526-1.468-6.554-2.495-.242-.241-.304-.407-.304-.407s.043.127-.057.635c-.402 2.038-2.58 8.052-4.663 7.731-2.346-.36.043-8.958.068-8.76-1.613 1.573-9.472 3.248-8.921 1.492 1.094-3.49 6.972-4.834 7.745-5.44-3.126-1.736-7.088-6.547-4.546-6.75zm-140.083.113c.996.064 1.679.175 2.356.436.315.078.329.32.364.549.006 1.03.286 4.055-.75 4.086-1.149-.023-2.228.205-2.985.738-.61.43-.811.12-.647-.98.16-1.065.733-3.302.98-4.209.04-.373.361-.637.682-.62zm31.058.038c-2.3 0-4.167 1.722-4.167 3.844 0 2.123 1.866 3.845 4.167 3.845 2.3 0 4.166-1.722 4.166-3.845 0-2.122-1.866-3.844-4.166-3.844zm0 1.345c1.495 0 2.709 1.12 2.709 2.5 0 1.379-1.214 2.494-2.71 2.494-1.495 0-2.709-1.115-2.709-2.495 0-1.38 1.214-2.5 2.71-2.5zm21.496.046c9.55 15.21 8.443 36.086-2.815 51.273l12.104-.781-1.59 2.859-12.905 1.16c-1.972 1.665-3.766 3.569-5.706 5.35l-.02.63c-4.424.947-8.852 2.038-13.36 3.537-2.381-2.156-6.858-6.467-6.829-6.576l.288-1.395c30.69-14.447 21.711-43.42 19.55-45.802 3.293-3.648 7.223-7.08 11.283-10.255zm85.174 2.766c1.243 0 2.247.931 2.247 2.078 0 1.147-1.004 2.078-2.247 2.078-1.243 0-2.253-.93-2.253-2.078 0-1.147 1.01-2.078 2.253-2.078zm10.005.558 3.771 3.584a2.823 2.823 0 0 1-1.903.725c-1.495 0-2.71-1.116-2.71-2.495 0-.712.324-1.358.842-1.814zm-129.528.445c1.243 0 2.247.927 2.247 2.074 0 1.147-1.004 2.078-2.247 2.078-1.243 0-2.253-.931-2.253-2.078 0-1.147 1.01-2.074 2.253-2.074zm-16.747.872c1.054.325.808 1.234-.554 2.033-.881.517-1.688.631-2.463.248-1.47-.725 1.579-2.755 3.017-2.281zm17.398 5.084-13.56 12.106c.853-2.012.884-4.018.949-6.027 4.08.388 5.789-1.522 5.192-5.454 2.636.145 5.367-.111 7.42-.625zm21.73 1.383c6.287 16.542.826 34.05-18.841 44.189.81-15.852 8.02-31.008 18.84-44.19zm17.911 1.448c10.793 2.607 23.079 3.822 35.834 3.83.096 4.479.33 9.215 1.324 13.786-10.866-2.622-23.002-3.841-36.26-3.626.55-4.733-.33-10.103-.898-13.99zm80.031 2.448-11.493 12.399.482-6.77c3.871.455 5.25-1.43 4.68-5.151 2.111.241 4.22-.1 6.331-.478zm-111.678.686-.908 4.952c-2.294.058-4.545.81-4.515 5.535l-6.855-.076zm126.486.914c1.243 0 2.247.931 2.247 2.078 0 1.147-1.004 2.079-2.247 2.079-1.243 0-2.253-.932-2.253-2.079 0-1.147 1.01-2.078 2.253-2.078zm-136.912.63c1.243 0 2.253.931 2.253 2.078 0 1.147-1.01 2.074-2.253 2.074s-2.252-.927-2.252-2.074c0-1.147 1.01-2.078 2.252-2.078zm131.889 2.13-1.2 7.499c-3.132-.254-5.746.191-4.942 5.274-2.65-.239-6.329.338-8.794.535zm-11.221 1.359c1.243 0 2.252.931 2.252 2.078 0 1.147-1.01 2.074-2.252 2.074-1.243 0-2.253-.927-2.253-2.074 0-1.147 1.01-2.078 2.253-2.078zm-137.168 1.61c1.243 0 2.252.93 2.252 2.078 0 1.147-1.01 2.073-2.252 2.073-1.243 0-2.248-.926-2.248-2.073 0-1.147 1.005-2.079 2.248-2.079zm7.465 2.456c2.875.596 1.545 6.779.898 8.46-.05.046 8.02-3.9 8.502-2.158.315 3.492-6.68 5.927-6.68 5.927s4.714 3.779 4.848 6.154c.011 1.537-1.972 1.252-4.546-.696-1.1-.997-1.952-1.744-2.71-2.438.885-.705 1.443-1.749 1.443-2.911 0-2.123-1.866-3.844-4.167-3.844-1.27 0-2.406.526-3.17 1.354-.598-.531-1.273-1.15-2.181-1.941-1.487-1.284-2.531-2.303-2.38-2.765 1.961-1.275 5.864 2.15 6.213 2.462-.293-.668 1.866-7.248 3.93-7.604zm-3.93 7.604c.015.035.036.056.066.056l-.066-.056zm122.555-2.775c1.368-.017 1.283 2.855.795 4.346a44.75 44.75 0 0 1-.661 2.07s1.152-.831 1.662-1.052c3.721-1.608 5.108.213 3.232 2.325-.901 1.086-2.131 1.327-3.13 2.239 1.423.06 3.056.35 4.285 1.018.955.527 1.705 1.166 1.703 1.562-.004.888-2.366 1.366-4.576 1.136-.94.02-2.71-.445-2.71-.445s.734 1.139 1.001 1.818c.825 2.113.536 4.587-.657 4.583-1.996-.492-2.97-2.54-3.75-4.01-.641 1.639-1.262 3.393-2.689 4.611-1.415 1.208-2.14.205-2.068-1.841.03-.814.678-3.243.678-3.243-8.383 2.61-7.76-.922-1.218-4.016-4.03-1.773-6.478-3.368.376-3.73-.181-.15-1.378-3.538-.097-4.331 1.19-.737 3.726 1.794 3.848 1.917-.052-.25.668-2.233 1.872-3.603.924-.964 1.61-1.347 2.104-1.354zm-7.727 7.372c.009.007.017.007.02 0h-.02zm36.697-2.238c-1.46.123-2.368 1.318-3.044 2.36-.136.212-.39.287-.483.566-.605 1.797-1.133 3.95-1.457 6.63.925.35 3.012.942 3.934.624.26-.1.18-.72.267-.924 1.455-3.381 2.175-5.909 2.175-7.462 0-1.253-.467-1.872-1.392-1.794zm-149.996-.153c1.495 0 2.709 1.12 2.709 2.5 0 .792-.401 1.498-1.026 1.955-1.745-1.606-2.638-2.447-3.807-3.504a2.788 2.788 0 0 1 2.124-.951zm150.512 1.19c.366.82-.81 1.71-2.333 1.705-.905-.004-1.2.114-.797-.61.48-.881 2.43-2.664 3.13-1.095zm-20.425-.58c1.243 0 2.253.932 2.253 2.079 0 1.147-1.01 2.073-2.253 2.073s-2.252-.926-2.252-2.073c0-1.147 1.01-2.079 2.252-2.079zm-118.733.147c1.243 0 2.253.927 2.253 2.074 0 1.147-1.01 2.078-2.253 2.078s-2.247-.931-2.247-2.078c0-1.147 1.004-2.074 2.247-2.074zm106.486.843c-2.3 0-4.166 1.722-4.166 3.844 0 2.123 1.866 3.844 4.166 3.844 2.3 0 4.166-1.721 4.166-3.844 0-2.122-1.866-3.844-4.166-3.844zm-55.68.516c-1.095 4.43-2.781 8.664-4.91 12.853-4.017.224-8.358.397-11.221.772 4.768-7.707 4.884-9.519 6.65-13.601zm6.9.625c1.129.123 2.365.28 3.48.478-2.05 6.658-4.761 13.494-8.261 20.073l-2.12-.303-1.005-1.146 3.366-1.24-2.622-2.471 4.346-1.212-2.673-2.434 4.294-.989-2.298-2.575 3.853-1.388-2.447-2.916 4.104-1.041zm48.78.203c1.495 0 2.709 1.12 2.709 2.5s-1.214 2.495-2.71 2.495c-1.494 0-2.708-1.115-2.708-2.495 0-1.38 1.214-2.5 2.709-2.5zm-44.53.38 1.43.212-.44 1.416 1.631.322.529-1.53s1.312.112 1.452.209c-1.71 6.427-7.753 19.88-7.83 19.808l-1.555-.213.41-1.359-1.446-.19v-.014l-.698 1.477-1.544-.118c3.741-7.878 6.289-13.927 8.06-20.02zm76.049.51c1.147-.004 1.078.541.246 2.538-.781 1.876-1.074 2.627-1.453 2.87-.905.592-2.853.096-2.695-.768.513-2.802.695-3.997 1.479-4.378.816-.148 1.612-.258 2.423-.262zm-70.293.232 3.735.668-3.124 1.714 1.985 2.14-3.838 1.51 2.33 2.225-3.705 1.397 2.253 2.447-3.843 1.496 2.616 2.093-4.32 1.259 1.637 2.32-1.626.838-2.007-.29c3.33-7.167 5.47-13.063 7.907-19.817zm9.18 1.714 7.316 1.837 1.462 2.41-3.433 10.694-9.748-2.641zm-14.542 1.032-.697 1.757 1.61.307.621-1.808zm-1.416 4.034-.698 1.756 1.514.275.713-1.776zm-1.426 3.546-.713 1.747 1.472.279.703-1.752zm68.741 3.214c.002 0-.747.5-.944.721.163.401.635 1.017.565 1.421-.064.304-.432.55-.984 1.092-1.377 1.48-1.862 1.318-1.062-.26.263-.497.38-.957.38-.957-.319.412-.559.9-.775 1.286-.454.807-.878 1.57-.878 1.57.878.28 1.46.881 2.027 1.271 0 0 .289-.715.488-1.4.278-.955.826-1.348 1.498-1.676.424-.207.829-.584.829-.584-.74-.697-.825-1.693-1.144-2.484zm-70.265.431-.754 1.86 1.467.332.816-1.898zm-82.781 4.678c-.134 7.408.132 12.286-.149 20.276l21.74 25.996-3.392 1.05s-.037.361-.22.408c-4.646 1.179-12.181 2.353-12.181 2.353 5.604 11.807 9.238 26.572 6.731 41.32l56.265-.137zm118.994 12.555-1.939 1.794c-28.614-14.29-68.024-14.233-96.783 3.068l-2.345-1.586c31.389-18.555 70.005-18.439 101.067-3.276zM32.55 924.449l66.224 87.777-7.779.104-58.389-70.478zm142.119 1.586s-1.912.457-3.52.932c-4.601 1.36-6.754 3.815-6.331 7.225.125 1.007.408.993 2.283-.1 4.388-2.556 4.663-2.669 10.128-4.147.423-.114 1.037-.028 1.037-.028l-.241 3.981c-9.111-.032-8.614 6.646-5.993 10.117-.918 1.605-2.925 7.209 3.684 9.34 3.296.607 6.788-1.865 6.68-1.992 6.08 2.653 13.137-1.796 7.635-9.502 2.069-3.36.61-5.856-1.365-8 0 0 .334.026 3.212.515 4.366.743 6.034.611 6.034.611.006-3.626-3.249-5.245-10.036-5.738-4.807.626-13.207-3.246-13.207-3.214zm-73.31.42c.33 0 .654 0 .98.006l-.318 6.192-7.393.312-.482-6.168c2.546-.162 4.913-.334 7.213-.341zm8.861.152 7.933.89-1.2 5.79-7.307-.724zm64.172.067c.815-.017.637.764-.318.937-1.426.258-5.083 2.222-5.085 2.732-.001.329.18.281 1.519-.379.669-.33 2.065-.892 3.099-1.255 1.034-.362 2.215-.799 2.627-.97 1.23-.512 1.839-.158 1.396.81-.293.64-.41.69-3.259 1.524-2.578.754-3.051.95-4.69 1.917-.61.361-1.693.938-2.405 1.278-1.685.805-2.027.808-2.022-.274-.092-3.208 3.753-5.614 8.964-6.306.063-.009.12-.013.174-.014zm-68.487.752c.992 0 1.796.742 1.796 1.657 0 .916-.804 1.657-1.796 1.657-.991 0-1.795-.741-1.795-1.657 0-.915.804-1.657 1.795-1.657zm-19.625.44.59 5.62-7.27 1.723-1.663-5.804c2.782-.628 5.561-1.07 8.343-1.538zm93.658.427c1.993.28 1.835 4.491.816 5.222-1.568 1.042-2.531-1.138-1.831-4.03.197-.869.56-1.172 1.015-1.192zm-89.533.227c.992 0 1.796.742 1.796 1.657s-.804 1.657-1.796 1.657c-.991 0-1.796-.742-1.796-1.657s.805-1.657 1.796-1.657zm35.516.483 8.22 2.069-2.012 5.87-7.711-2.002zm-4.474.114c.992 0 1.796.741 1.796 1.657 0 .915-.804 1.657-1.796 1.657s-1.796-.742-1.796-1.657c0-.916.804-1.657 1.796-1.657zm67.24.492c3.54.034 8.21 1.673 8.22 4.2-.073.717-7.419-.236-10.812-1.497-1.203-.447-2.67-1.808-2.668-2.376.002-.338.719-.314 1.011.014.478.535 2.169 1.094 6.055 1.998 2.984.693 3.282.72 3.283.303.002-.38-1.762-.905-3.673-1.198-.961-.145-1.858-.413-3.335-.53-.69-.003-.857-.401-.283-.673.626-.171 1.384-.249 2.202-.241zm-6.255 1.307c.893.386 1.216 1.156 1.709 1.562-.613.268-.887.538-1.878.606.018-.605-.161-1.326.169-2.168zm-107.64.454c.992 0 1.796.742 1.796 1.657s-.804 1.657-1.796 1.657-1.796-.742-1.796-1.657.804-1.657 1.796-1.657zm-4.833.469 1.94 5.738-6.948 2.788-2.463-5.686c2.402-1.165 5.029-2.011 7.47-2.84zm32.124.937s5.534.007 7.445.029l-.447 6.476-6.906.047zm-7.394.355.385 6.467-6.65.824-1.313-6.505zm42.043.057c.991 0 1.795.742 1.795 1.657s-.804 1.657-1.795 1.657c-.992 0-1.796-.742-1.796-1.657s.804-1.657 1.796-1.657zm48.112.151c4.048.017 7.91 4.314 3.91 8.816 6.561 4.658-.573 12.488-6.373 7.925-8.294 7.516-12.93-2.69-9.497-5.397-5.07-7.685 1.158-12.542 7.583-9.152 1.183-1.548 2.792-2.198 4.377-2.192zm-67.774.185 7.296 1.496-1.467 6.396-7.127-1.335zm24.146.156 6.67 3.059-5.172 4.592-3.843-1.766zm-42.766.725c.992 0 1.796.742 1.796 1.657s-.804 1.657-1.796 1.657c-.991 0-1.795-.742-1.795-1.657s.804-1.657 1.795-1.657zm14.413.208c.992 0 1.796.742 1.796 1.657s-.804 1.657-1.796 1.657c-2.643-.382-1.932-3.26 0-3.314zm-33.222.933 1.626 6.396-6.757 2.106-2.417-6.23zm4.643.454c.992 0 1.796.742 1.796 1.657s-.804 1.657-1.796 1.657-1.796-.742-1.796-1.657.804-1.657 1.796-1.657zm100.026 2.95c-.508.582-1.176 1.269-1.176 1.269-1.681-.64-3.311-.384-4.401.306 0 0-1.159-.852-2.217-1.642-1.834-1.367-2.445-1.68-2.447-1.108 0 .119.622.704 1.38 1.302 2.068 1.633 2.49 2.221 2.49 2.221-.496 1.481-.491 2.642.458 3.888 0 0 .04.162-.687.869-1.317 1.282-2.676 3.261-2.363 3.552.389.362 1.49-.505 2.871-2.227.985-1.227 1.28-1.254 1.28-1.254 1.68.418 2.61.797 4.29-.482 0 0 .633.177 1.898 1.14 1.972 1.502 2.68 1.826 2.894 1.317.175-.415-.085-.693-1.755-1.866a134.99 134.99 0 0 1-2.296-1.657c.355-.538.607-2.45-.609-3.759 0 0 .048.086 1.846-2.064 1.196-1.43 1.403-1.61 1.007-1.917-.529-.638-2.285 1.908-2.463 2.112zm-52.114-1.833 6.583 2.552-2.355 6.349-6.357-2.396zm-72.432.426c.992 0 1.796.742 1.796 1.657 0 .916-.804 1.657-1.796 1.657s-1.796-.741-1.796-1.657c0-.915.804-1.657 1.796-1.657zm67.342.17c.992 0 1.796.743 1.796 1.658 0 .915-.804 1.657-1.796 1.657s-1.796-.742-1.796-1.657.804-1.657 1.796-1.657zm-71.94.455 2.155 4.924-4.9-3.37zm54.023 1.27 6.557.714-1.036 5.766-5.654-.473zm-7.157.013-.067 5.928-6.229.246-.528-5.918zm-32.048 1.08c.992 0 1.796.742 1.796 1.657s-.804 1.657-1.796 1.657c-.991 0-1.795-.742-1.795-1.657s.804-1.657 1.795-1.657zm-4.966.118 2.534 5.956-3.93 1.751-5.27-4.601zm23.443.076 1.015 5.667-6.495 1.482-1.575-5.767zm92.842.057c1.414 0 2.56 1.058 2.56 2.362 0 1.305-1.146 2.362-2.56 2.362-1.414 0-2.56-1.057-2.56-2.362 0-1.304 1.146-2.362 2.56-2.362zm-76.003.18c.992 0 1.796.741 1.796 1.657 0 .915-.804 1.657-1.796 1.657s-1.796-.742-1.796-1.657c0-.916.804-1.657 1.796-1.657zm17.691.61 6.927 2.07-2.33 5.117-5.982-1.496zm-30.698.213c.992 0 1.796.742 1.796 1.657s-.804 1.657-1.796 1.657-1.796-.742-1.796-1.657.804-1.657 1.796-1.657zm26.337.611c.992 0 1.796.742 1.796 1.657s-.804 1.657-1.796 1.657-1.796-.742-1.796-1.657.804-1.657 1.796-1.657zm-43.982 1.941 2.386 5.066-6.516 2.599-2.837-5.165zm4.618.303c.992 0 1.796.742 1.796 1.657s-.804 1.657-1.796 1.657-1.796-.742-1.796-1.657.804-1.657 1.796-1.657zm24.007 1.53c10.698-.021 20.355 2.042 28.107 5.003l-2.309 1.998c-25.144-7.972-41.587-4.38-58.45 2.443l-1.704-1.941c11.92-5.38 23.659-7.483 34.356-7.504zm28.446.06c.992 0 1.796.743 1.796 1.658 0 .915-.804 1.657-1.796 1.657s-1.796-.742-1.796-1.657.804-1.657 1.796-1.657zm-65.526 3.637c1.442.078 1.58 2.562.908 1.846l-1.606-1.714c.26-.103.492-.144.698-.132zm67.219 1.027c-.053 1.884-1.987 14.509-8.512 23.188-.396-4.39-1.544-9.639-2.827-13.142 0 0 7.021-5.986 11.339-10.046zm-83.474 19.131 33.956 42.248-3.566-.023c-.745-3.103-1.823-6.277-3.94-8.65-1.72-1.927-3.259-3.378-6.342-4.673-1.855-.778-2.094-.612-2.211-1.926-.56-7.39-7.045-12.037-12.012-13.805-.48-4.467-2.664-8.86-8.142-12.56zm-3.306 1.012c3.102 1.967 6.503 3.674 8.335 11.43.137 1.622.245 1.45 1.626 1.926 5.411 1.464 10.12 7.465 10.539 12.712-.005 1.582.554 1.723 2.668 2.542 2.595 1.006 5.289 3.133 6.813 5.227 2.269 3.01 3.07 7.568 2.874 7.352l-1.868.01c-1.332-7.73-6.602-10.812-12.177-12.257.434-10.91-8.76-14.316-11.971-14.828.188-7.86-5.323-11.101-8.88-13.739.664-.24 2.04-.375 2.04-.375zm-5.493 1.084c2.777.837 4.882 4.408 4.669 6.052 3.663.426 7.512 3.693 6.667 7.097-.27.144-.698.173-1.122-.218.982-6.603-9.701-3.334-5.432 1.443l-1.909 1.15c-1.535-6.607-3.425-10.351-5.476-15.124.748-.183 2.603-.4 2.603-.4zm8.845 13.844c.95 0 1.714.71 1.714 1.586 0 .876-.765 1.586-1.714 1.586s-1.719-.71-1.719-1.586c0-.875.77-1.586 1.72-1.586zm9.172 7.127c4.079 1.065 5.4 4.875 5.265 6.262l-.892-.02c-1.434-6.036-8.89-2.752-5.778 2.062-3.986 1.36-3.672 4.755-2.498 6.097 1.62 1.853 5.75 1.794 7.01-1.057 3.875 4.625 9.222-.565 4.504-4.876 3.864 1.313 4.484 6.089 3.903 7.58 1.793.565 3.86 3.19 3.583 3.176l-28.948.004s1.401-10.778-.087-18.913c1.926.428 3.217.857 5.433-1.543 3.586 2.74 6.164.672 5.978-1.695-.276-1.655-1.203-2.477-2.74-3.352 3.139-.712 5.512 4.298 5.267 6.275zm3.23 7.594c.977 0 1.77.731 1.77 1.633s-.793 1.633-1.77 1.633c-.978 0-1.77-.73-1.77-1.633 0-.902.792-1.633 1.77-1.633z"/></g></g></svg>