<svg xmlns="http://www.w3.org/2000/svg" width="234" height="333"><g transform="translate(0 -719.362)"><rect width="233.244" height="332.244" x=".378" y="719.74" fill="#fff" stroke="gray" stroke-width=".756" rx="8.919" ry="8.946"/><g fill="red" aria-label="Q" font-family="Levenim MT" font-size="3.772" font-weight="700" letter-spacing="0" style="line-height:0%;-inkscape-font-specification:&quot;Sans Bold&quot;" word-spacing="0"><path d="M32.313 622.413H27.54l-1.868-2.4q-2.315 1.265-5.16 1.265-4.687 0-7.878-3.206-3.177-3.22-3.177-7.906 0-3.004 1.452-5.549 1.452-2.544 4.054-4.053 2.558-1.495 5.505-1.495 4.6 0 7.777 3.277 3.177 3.278 3.177 7.892 0 4.298-2.79 7.417zm-4.916-12.204q0-2.961-1.97-5.06-2.012-2.142-4.959-2.142-3.062 0-5.017 2.085-1.94 2.07-1.94 5.146 0 3.507 2.515 5.548 1.97 1.596 4.47 1.596 1.438 0 2.703-.56l-3.78-4.874h4.8l1.898 2.459q1.28-1.898 1.28-4.198z" font-size="29.439" style="line-height:1.25" transform="scale(.82383 1.21385)"/></g><g fill="red" aria-label="Q" font-family="Levenim MT" font-size="3.772" font-weight="700" letter-spacing="0" style="line-height:0%;-inkscape-font-specification:&quot;Sans Bold&quot;" word-spacing="0"><path d="M-251.727-837.182h-4.773l-1.868-2.4q-2.315 1.264-5.16 1.264-4.687 0-7.878-3.205-3.177-3.22-3.177-7.906 0-3.004 1.452-5.549 1.452-2.544 4.053-4.053 2.56-1.495 5.506-1.495 4.6 0 7.777 3.277 3.176 3.278 3.176 7.892 0 4.298-2.788 7.417zm-4.916-12.204q0-2.961-1.97-5.06-2.012-2.142-4.959-2.142-3.062 0-5.017 2.085-1.94 2.07-1.94 5.146 0 3.507 2.515 5.548 1.97 1.596 4.47 1.596 1.438 0 2.703-.56l-3.78-4.874h4.8l1.898 2.458q1.28-1.897 1.28-4.197z" font-size="29.439" style="line-height:1.25" transform="scale(-.82383 -1.21385)"/></g><path fill="red" d="M58.608 804.63a46.124 46.124 0 0 0-6.765-10.512c-1.75-2.043-3.673-3.924-5.62-5.77-1.523-1.443-3.072-2.877-4.317-4.573-.841-1.145-1.543-2.42-1.877-3.809-.606-2.516.053-5.213 1.296-7.473.728-1.324 1.66-2.541 2.807-3.509 1.705-1.438 3.93-2.297 6.136-2.11 2.023.172 3.914 1.206 5.39 2.624a12.346 12.346 0 0 1 2.972 4.537 12.346 12.346 0 0 1 2.97-4.537c1.477-1.418 3.369-2.452 5.392-2.624 2.206-.187 4.43.672 6.135 2.11 1.148.968 2.08 2.185 2.807 3.509 1.244 2.26 1.903 4.957 1.297 7.473-.335 1.39-1.037 2.664-1.878 3.81-1.245 1.695-2.794 3.13-4.316 4.572-1.948 1.846-3.871 3.727-5.62 5.77a46.124 46.124 0 0 0-6.766 10.513M175.349 967.094a46.124 46.124 0 0 1-6.765 10.513c-1.75 2.042-3.673 3.923-5.621 5.77-1.522 1.442-3.07 2.877-4.316 4.572-.841 1.146-1.543 2.42-1.878 3.81-.606 2.515.053 5.212 1.297 7.473.728 1.323 1.66 2.54 2.807 3.508 1.705 1.438 3.93 2.298 6.135 2.11 2.023-.172 3.915-1.205 5.391-2.624a12.345 12.345 0 0 0 2.971-4.537 12.345 12.345 0 0 0 2.971 4.537c1.477 1.419 3.368 2.452 5.391 2.624 2.206.188 4.43-.672 6.136-2.11 1.147-.967 2.079-2.185 2.807-3.508 1.243-2.26 1.902-4.958 1.296-7.474-.334-1.389-1.036-2.663-1.877-3.809-1.245-1.695-2.794-3.13-4.316-4.572-1.948-1.847-3.872-3.728-5.621-5.77a46.124 46.124 0 0 1-6.765-10.513M216.784 991.022a23.063 23.063 0 0 1-3.383 5.257c-.875 1.021-1.836 1.961-2.81 2.885-.761.721-1.536 1.438-2.158 2.286-.42.573-.772 1.21-.94 1.904-.302 1.258.028 2.607.65 3.737.363.662.829 1.27 1.403 1.755.852.718 1.964 1.148 3.067 1.054 1.012-.086 1.958-.602 2.696-1.312a6.172 6.172 0 0 0 1.485-2.268c.324.858.833 1.64 1.486 2.268.738.71 1.684 1.226 2.695 1.312 1.103.094 2.216-.336 3.068-1.054.574-.484 1.04-1.093 1.404-1.755.621-1.13.95-2.479.648-3.737-.167-.694-.518-1.331-.939-1.904-.622-.848-1.397-1.565-2.158-2.286-.974-.924-1.936-1.864-2.81-2.885a23.062 23.062 0 0 1-3.383-5.257M17.195 780.702a23.062 23.062 0 0 0-3.383-5.256c-.874-1.022-1.836-1.962-2.81-2.885-.761-.722-1.536-1.439-2.158-2.287-.42-.572-.772-1.21-.939-1.904-.303-1.258.027-2.607.648-3.737.364-.662.83-1.27 1.404-1.754.852-.72 1.965-1.149 3.068-1.055 1.011.086 1.957.602 2.695 1.312a6.172 6.172 0 0 1 1.486 2.268 6.173 6.173 0 0 1 1.485-2.268c.738-.71 1.684-1.226 2.696-1.312 1.103-.094 2.215.336 3.067 1.055.574.484 1.04 1.092 1.404 1.754.622 1.13.951 2.479.648 3.737-.167.694-.518 1.332-.939 1.904-.622.848-1.397 1.565-2.158 2.287-.974.923-1.935 1.863-2.81 2.885a23.063 23.063 0 0 0-3.383 5.256"/><g stroke-width="3.181"><path fill="#131f67" d="m202.925 757.881-172.539-.478.072 256.693 173.156.225c-1.018-85.587-.823-171.009-.689-256.44zm-20.363 2.095 18.196.144-.372 98.773s-1.134-.034-1.026-.725c.145-.926-.002-2.659-.7-3.39-.294-.308-.774-.793-.963-1.145-.474-.884-1.258-1.8-1.886-2.049-.313-.123-.675-.193-.722-.394-.043-.186-.143-.802-.275-1.369-.329-1.418-.627-1.375.352-2.782 3.391-4.877 4.707-9.368 4.297-13.827-.128-1.393-.498-3.198-.675-3.446-3.271 3.016-5.645 6.749-7.873 9.505-.48-3.95-.398-6.93-.458-10.095 1.743-.455 2.8-1.31 3.557-3.504 0 0 1.861 1.36 3.005 1.17l-.743-2.553c4.997-1.403 5.702-7.437-.188-8.731l.543-3.177s-1.781.546-2.565.898c-.39.15-.486.03-.757-.494-2.734-3.971-7.006-3.142-8.902.76l-2.298-.914c.245 1.082.539 2.18.323 3.261-4.837 1.978-3.665 7.436.189 8.163l-.346 2.547 2.905-.86c.419 1.2.2 1.89 2.514 3.245-.077 5.34-.183 8.678-.02 13.423-3.013-2.878-5.922-4.88-11.03-6.358 0 0-.052 1.15.238 2.898.096.576.078.492-.215.49-.665-.017-3.644-4.49-3.644-4.49s-.348.003-.653.282c-.358.327.455.935 1.594 2.515 1.334 1.849 1.205 1.77.148 2.595-6.005 4.688-14.72 22.578-13.273 24.325-3.786.198-18.563 6.852-21.294 20.662a15.153 15.153 0 0 1-.48 1.428l-4.262-.995c2.616-11.31 8.51-34.305 8.51-34.305s4.087-1.062 6.476-1.29l-.022-.892-5.626 1.194.278-1.971 5.308-.95-.013-.468-5.619.68.93-3.28s-12.614 1.675-17.13 1.534c.239 12.77-.889 23.374-.355 37.137l-6.15-3.481c-.513-9.582-.586-33.782-.586-33.782l-17.01-2.532.552 3.803c-14.089-5.227-28.224-10.04-38.607-20.203 6.433-4.542 17.157-9.031 17.157-9.031l-.349-.728c-26.373 12.49-36.184 21.196-49.452 31.993l-.019-89.613 71.851.2-.3 16.342s-.096.423-.232.57c-.894 3.956 1.602 10.992 1.08 14.412.232 1.057.142 3.02.142 3.02-4.31 5.43-6.602 10.592-8.536 16.914-.74.27-1.83.826-2.6 1.016l-.222.862c1.686-.851 6.464-2.234 6.464-2.234 21.226 9.673 36.859 7.373 53.608.291-2.7 8.664 3.056 19.71 12.584 22.06 1.09.268 2.957.5 4.027.244 1.068-.282-2.375-7.654-3.911-7.934-4.6-1.864-6.481-6.215-5.971-11.196l-.76-1.192c-1.593 6.048 2.163 12.207 7.347 13.725l1.384 2.826c-9.395-2.645-13.37-10.818-10.208-18.877.073-5.035-3.439-7.272-5.046-9.447-8.169-2.918-9.662-9.942-8.21-15.61 3.802 1.513-2.547-4.99-2.547-4.99-2.826 5.62-4.025 12.731 2.363 19.964-4.169 5.082-9.535 9.095-15.53 12.518-8.759 4.2-15.307 1.33-19.496-8.045-2.515-5.63-3.402-11.236-3.367-17.104.028-3.634.073-3.744 1.54-3.123 1.377.583 4.37.674 6.16-.174 2.44-1.156 2.323-.448-.338 2.07-.724.685-1.496 1.303-1.497 1.434-.006.746 1.131.122 2.754-1.359.593-.54 1.031-1.061 1.216-1.053.211.01.19.709-.057 1.463-.094.289-.396 1.513-.672 2.715s-.653 2.614-.836 3.14c-.727 2.084-.536 3.051 1.62 4.022 1.137.512 3.078 2.248 3.061 2.248 0 0-.458-1.898-.283-2.508.21-.732 1.149-.21 2.106.217 2.115.944 3.348.975 4.489.1 1.574-1.21 1.134-3.938-.803-4.655-1.421-.527-1.672-.045-.255.878 2.126 1.384-.285 3.504-2.09 2.179-1.412-1.037-3.87-1.16-4.147-.302-.262.812-.53.664-1.508.13-1.52-.83-1.532-.974-.238-5.521 2.449-8.61 2.224-11.774-.97-14.402-2.363-1.946-6.276-2.858-10.348-.718l.01-2.934c5.974-2.19 10.327-5.83 13.849-11.934l.682.002c3.457 7 9.07 12.039 19.65 15.755 4.125 3.8-5.205-10.894-2.232-4.88-5.614-2.036-10.61-5.963-13.35-10.862l1.533.005c1.606 2.167 4.864 6.123 10.679 8.866.527.412 1.039-.01 1.039-.01s-4.861-7.112-5.654-8.803l48.832-.163c-1.591 11.015-3.818 22.984 4.688 44.475-4.02-1.973-20.185 2.15-17.345 2.984 1.432-1.522 11.732-3.74 19.34-2.051-.628-.506-11.521-24.154-5.054-45.167zm5.053 45.167c.014.011.027.016.03.005-.01-.003-.02-.003-.03-.005zm-37.888 42.405.04 1.727.387-.084-.218-1.68zm-43.756-87.768 2.143.007c-.474.896-1.164 1.566-2.212 2.116zm3.686.012 2.306.007c-1.806 2.645-3.723 4.244-6.033 5.491l.048-2.075c1.337-1.078 2.613-2.193 3.679-3.423zm3.813.012 2.129.007c-2.904 4.103-5.88 6.853-9.681 8.589l.007-1.68c2.35-1.682 5.684-4.154 7.546-6.916zm3.249.01 1.72.006c-2.978 5.214-7.118 8.808-12.53 10.797l.006-1.255c5.93-2.903 8.532-6.157 10.804-9.547zm4.704.016 2.067.007c2.817 5.231 8.69 10.19 15.152 12.377l.98 2.121c-8.518-2.865-14.151-7.022-18.199-14.505zm5.983.02 1.476.004c1.545 2.01 3.42 3.645 5.613 5.005l1.33 2.406c-2.96-1.859-6.263-4.115-8.42-7.416zm2.693.008 1.65.086 2.17 3.38c-1.451-.762-2.548-2.306-3.82-3.466zm-1.945 13.553c-2.262-.017-4.321.555-5.816 1.675-1.578 1.184-.425 2.483 1.843 1.516 3.862-1.647 8.29-.885 13.064 1.557 4.019 2.055 2.616-.078-1.132-2.363-2.57-1.587-5.396-2.366-7.959-2.385zm-18.197 2.616c3.244.035 6.956 1.378 7.04 3.142-2.145-1.675-6.467-2.499-10.623-.799-.317-.063-.358-1.11-.167-1.491.895-.608 2.276-.867 3.75-.852zm19.644 1.201c-2.052-.007-3.93.484-4.802 1.55-.445.506-.562.56-1.05.483-.955-.15-.903.362.18 1.765.527.681.437 1.454-.273 2.373-.815 1.054-.657 1.095 1.754 2.176 1.842.838 3.32 2.024 4.993 3.002 1.196.63 1.437.08.334-.749-.379-.284-1.5-1.032-2.509-1.645-1.71-1.039-2.963-2.087-1.603-1.619.624.185.784.262 1.47.373 1.764.359 3.507.562 4.989.29 1.063-.194 2.45-.84 3.59-1.748.292-.124.579.009 1.284.037 2.697.105 2.104-.63-1.762-2.6-3.826-1.95-6.831-2.314-9.287-1.258-1.04.448-1.635.558-1.483.274.158-.296.448-.64.915-.889 3.97-2.184 7.149-.353 10.636 1.309 1.496.832 1.9 1.049 2.08.785.229-.338-1.666-1.596-4.211-2.788-1.492-.723-3.435-1.115-5.245-1.121zm-12.68 2.503c.67.246.367.955-.245.73-3.654-1.535-4.385-2.28-8.753-.884-1.443.46-2.012.047-.24-.65 3.858-1.481 6.651-.464 9.239.804zm-2.514 1.784c-1.009 4.662-6.016 3.207-5.438.006l.922.007c.06 2.818 3.108 2.809 3.64.04zm29.148.103 1.34 2.68c-2.978 6.726.995 15.81 9.702 18.011 0 0 1.399 2.006 1.122 2.259-16.348-3.408-15.035-17.857-12.164-22.95zm-15.499.125.459.025c1.4 3.256 3.46 1.394 3.864.022l1.044.027c-.332 3.366-5.848 3.92-5.367-.074zm-12.611.053c.662-.07.884.853.698 1.022-.051.046-1.266 1.133-1.412.49-.213-.939.438-1.467.714-1.512zm-7.633.07c.056 0 .113.003.173.01.41.291.562 1.159.345 1.605-.243.233-1.224-.09-1.413-.438-.29-.511.055-1.185.895-1.177zm26.536.397c.322.013 1.21.372 1.122.768-.022.1-1.262.94-1.54.802-.536-.267.21-1.476.316-1.551.018-.013.055-.02.102-.019zm-7.23.123c.007-.002.017-.002.02 0 .095.066.883.524.208 1.364-.046.058-.942-.24-.956-.338-.07-.49.604-.992.727-1.026zm19.803 5.971c-.214 3.871.861 7.634 5.415 10.062l-.976-1.664c-1.167-.867-3.608-3.339-3.291-6.271zm-41.002 6.789.505 2.549c-2.526 3.858-4.447 7.65-6.044 12.086l-2.375.795c1.905-5.595 3.663-10.027 7.914-15.43zm.983 3.97.664 2.192c-1.241 2.101-2.568 4.475-3.373 7.24l-2.625.888c1.194-3.663 2.932-7.22 5.334-10.32zm8.31.933a.48.48 0 0 0-.116.014c-.03.432-.029 1.624.063 3.59.017.373.412.218 1.528-.306.973-.456.873-.53 1.814-.235 2.603.836 3.79.48 4.81.24 1.555-.365 2.188-.213 3.09.29.495.278 1.172.483 1.306.529.714.243.443-.05-.039-1.84-.541-2.015-.305-2.235-1.178-1.713-.191.114-.745.396-1.047.427-.758.08-2.022-.786-2.778-.515-1.832.658-1.815.483-3.512.092-.848-.196-1.663.281-2.401.414-.422.047-.952-.989-1.54-.987zm31.116 1.144c3.08 2.636 6.254 3.545 9.697 4.55-.42 1.305-1.257 2.772-1.65 4.477-17.971 8.728-35.996 8.394-52.97.362l8.836-3.095c4.791 7.752 10.963 9.837 17.92 7.329 7.776-3.321 13.541-7.958 18.167-13.623zm-38.334 1.423.756 1.899-1.146 2.855-2.167.805c.422-1.946 1.228-3.544 2.557-5.559zm16.202 2.251c-.537.022-1.349.354-3.198.358-1.002.002-1.786-.084-2.174-.012-.807.148.134.485 1.936.969 1.802.481 4.009-.23 4.285-.954.068-.177-.169-.39-.849-.361zm-14.946.886.47.964-.811.266zm47.69.697 1.328 2.83c-2.338 4.645-3.926 17.392 11.548 21.41l.67 1.827c-10.543.157-21.06-12.293-13.547-26.067zm-35.472.847c-1.513-.019-3.1.325-4.123 1.072-.925.673.202 1.103 1.404.566 1.556-.696 4.15-.63 5.67.259 1.162.74 1.77.612.995-.511-.608-.881-2.23-1.364-3.946-1.386zm67.618 3.394c4.049-.049 4.45 5.323 3.66 5.782.228-.07.92-.257 1.905-.23 2.966.082 4.507 1.607 4.67 3.818.163 2.228-1.668 3.463-4.33 3.331-.989-.049-1.67-.144-1.625.018.488 1.782-.12 4.463-2.667 5.125-.292.076-.71.452-.72.587-.201 2.823.63 12.524.63 12.524s4.8-7.416 5.877-8.54c2.11-2.65 2.49-2.41 2.477 2.004-.37 6.123-1.436 7.524-5.347 12.65-1.675 2.208-5.616 1.033-5.264 2.531.077.33.716.926 1.353 1.49.409.362.832.59 1.79.563 1.684-.046 2.34-.36 1.33.992-.8 1.07-3.597 1.283-3.914 1.84-.738 1.295-.235 1.01-1.492 2.146-.963.97-.627.476-.193 1.278.681 1.036.388 3.098-.297 4.486-.559 1.13-.5 1.939-.5 1.939.01.094 1.563-1.475 2.037-3.293.395-1.512.852-2.269.846-1.422-.009 1.07.187 2.523 1.225 3.08.822.441.939.88.8 1.418-.144.557.497 1.05 1.13 1.518.148.139.647.322.593.616-.173.93.23 2.024.961 2.205.326.15 2.404-.007 2.751-1.09-.032-.345.004-1.767-.823-1.851-.583-.252-.522-.4.365-.886 1.327-.727 2.289-1.249 2.943-1.359.876-.107 1.72-.985 1.72-.985l-.053 58.455c-7.879 7.42-16.512 14.804-27.887 22.05-6.576-5.113-13.762-10.29-21.398-14.175l-2.637-1.457.952-1.12-4.567-5.62 5.178-3.832 1.302 1.537-2.452 2.19 3.652 3.768 8.266-7.418-5.41-4.83 2.845-4.893 1.804.827-1.376 3.105 4.12 2.433 5.204-9.494-6.543-2.786 1.684-6.383 2.02.205-.689 4.598 5.103.955 2.119-10.84-7.49-1.265.66-6.183 2.092.03-.318 3.42 5.292.716 1.034-9.452-7.343-1.151.974-7.296 1.68.228-.343 4.5 5.389.87c.604-3.05 1.101-6.881 1.992-9.872l-6.936-2.42 2.482-6.12 1.562.51-1.377 3.317 5.12 2.036 4.351-7.889-6.023-3.977c1.36-2.076 2.72-4.048 4.66-5.727l1.183.962s-.437.362-1.11 1.218c-.817 1.04-1.074 1.565-.964 1.837.109.268 3.83 2.832 4.113 2.834.33.003 1.571-1.038 2.212-1.738.685-.749 1.043-.82 1.747-.348.14.094.343.28.487.44.17.19.237.348.253.468a.343.343 0 0 1-.052.245c.06-.052.19-.143.47-.286.508-.26-.976-1.478-2.192-2.111-3.634-1.906-7.904-5.488-8.877-9.956-.356-2.006 5.228.424 9.068 3.993.582.54 2.745 2.495 2.745 2.495-.297-5.161-.731-10.405-.466-15.627l-.848-.55c-1.187-.773-1.64-2.035-1.744-3.3-.071-.87.737-1.314-1.105-1.262-3.834.019-6.04-3.332-3.704-6.183.835-1.067 4.374-1.578 4.37-1.553-.891-3.421 1.829-5.247 3.828-5.413zm-1.545 39.753c-.073.063-.042.064 0 0zm5.205-33.971-.107.033a.232.232 0 0 0 .107-.033zM65.05 827.227c10.675 8.387 17.486 14.03 39.255 20.39l.528 2.994c-12.52-2.722-26.17-8.193-42.37-21.736Zm-3.23 1.92c6.757 5.886 13.69 10.375 20.71 14.145l2.464 1.385-1.278 1.204 4.119 5.543-5.341 4.007-1.263-1.174 2.789-2.515-3.942-3.618-8.089 7.532 5.507 4.557-3.22 4.552-1.158-.49 1.712-3.174-5.122-2.612-5.775 9.752 7.295 3.105-1.673 5.99-1.705-.085.593-4.697-5.49-.919-1.89 10.973 7.063 1.05-.192 6.322-1.883-.034.146-3.571-5.58-.259-.533 9.213 6.865.847-.71 7.476-1.69-.406.207-4.855-5.232-.493-1.841 10.317 7.054 1.891-2.519 6.427-1.53-.783 1.016-3.318c-1.285-.525-4.9-1.932-4.9-1.932l-4.644 8.001 5.969 3.794-3.704 5.98-1.417-.887 2.554-3.488-4.959-2.908-2.844 3.571c-1.198-.97-3.353-2.32-4.173-3.221-.878-.746-1.547-.861-2.681-.618-.895.193-1.757.34-1.558.047.097-.144 1.8-1.197 4.399-2.712.727-.424 1.3-.795 1.292-1.176-.005-.284.396-.734.92-1.025.581-.323.453-.625.36-.962-.494-1.804-.167-4.614.82-6.503.66-1.264.866-1.491.438-1.494-1.263.146-2.818 4.378-3.117 5.571-.098-.095-.232-1.213-.32-1.643-.158-.777-.274-1.258-.946-1.409-.804-.18-.547-.536-.627-1.096-.13-.91-.591-1.487-1.43-1.812-.806-.312-.894-.437-.855-1.182 0-.585-.655-1.579-1.144-1.896l-2.804.906c-.223.685.067 1.574.528 1.899 1.402 1.231-.657 1.241-2.07 2.036-.382.227-.84.723-1.148.558-.894-.275-.833 2.204-1.712 1.89l.437-59.458c7.53-7.174 29.452-22.117 29.452-22.117zm113.367 10.882 1.075 1.113c-3.36 3.48-5.802 7.066-8.495 11.446-2.297 3.737-4.29 8.974-5.345 14.689-.812 3.497-.948 7.059-1.456 10.639-.517 3.851-.633 9.04-1.444 13.106-1.512 11.155-4.916 17.082-12.293 23.39-3.242 2.772-13.314 7.995-13.588 7.943l-2.381-.555c20.65-9.711 25.83-16.439 28.147-39.577.546-29.038 14.842-40.24 15.78-42.194zm2.019 1.95 1.101.99-6.048 7.855 5.917 3.893-2.371 5.083-1.795-.624 1.291-3.469-4.982-1.964-4.07 10.102 7.099 2.099-1.196 6.587-1.434-.363.022-4.492-5.271-1.012-1.576 11.294 7.766 1.025-.592 5.83-1.838-.124-.058-3.473-5.39-.281-1.27 9.79 7.648 1.228-1.41 6.954-1.629-.364.384-4.589-5.13-.644-3.003 9.388 6.434 3.031-3.195 6.015-1.356-.882 1.77-3.557-5.006-2.309-4.871 7.76 5.236 4.805-5.151 4.966-1.14-1.363 2.657-2.633-3.942-3.641-8.251 6.036 4.181 5.142-.496.645-4.332-1.628-2.068-2.55-2.488 1.002-1.958-.7c12.175-5.865 20.108-12.686 23.411-23 1.814-5.702 2.37-11.93 2.976-18.206.314-3.26.64-6.533 1.162-9.753.619-5.26 1.505-9.672 3.828-14.74 2.818-6.147 6.231-10.474 10.434-15.158zm-65.41 3.681 8.33 4.104-.132 2.707-7.7-3.605zm2.348.084 5.944.774.017 2.222zm-26.807-.016 3.467 1.46 2.93 3.156 2.21-1.333 2.39.838c-7.574 3.576-14.3 7.863-19.553 15.28-5.853 8.264-6.541 19.107-7.326 29.571-1.296 14.435-4.007 24.568-14.408 36.24l-1.524-.898 5.622-8.21-6.29-3.794 2.89-4.855 1.45.467-1.136 2.898 5.204 2.564 4.036-10.356-7.345-2.147 1.257-6.483 1.848.157-.507 4.645 5.252.786 1.548-10.96-7.078-1.027.18-5.793 1.735.161-.023 3.524 5.584.297.47-10-6.942-.736.882-7.06 1.945.19-.464 4.236 5.343.725 2.57-9.135-6.934-2.929 3.77-6.163 1.683.722-1.734 3.415 4.809 2.19 5.077-7.135-5.348-4.792 5.289-5.092 1.289 1.178-2.873 3.039 3.953 3.41 7.874-6.08-3.813-5.353zm49.94.5-.253 2.562-8.382 4.375.004-2.51zm44.897.236 1.844 1.067-1.345 1.468-1.61-.949zm-48.416.206-5.02 2.664.01-2.666zm59.071 2.692c.262.006.502.06.687.172.503.306.428 1.057-.143 1.424-.743.479-2.774.44-2.973-.056-.287-.716 1.296-1.568 2.43-1.54zm-79.965.798 7.176 3.618-.035 2.534-6.906-3.547zm23.42.156-.434 3.301-7.417 3.614-.05-2.864zm-35.833-.055 2.945.704c-10.93 4.476-21.74 10.984-25.98 22.387-1.322 3.412-2.22 7.212-2.814 12.078-.29 5.134-1.023 10.184-1.302 14.465-.566 8.716-3.707 20.513-14.453 33.022l-1.02-.749c6.591-7.472 10.028-14.256 12.163-21.427 3.382-11.411 1.774-24.022 5.378-35.508 2.198-6.988 6.73-13.228 13.506-18.616 4.713-3.369 11.577-6.356 11.577-6.356zm4.95.974c.032-.001.047 0 .051.01 2.618 8.273 5.833 23.349 5.833 23.349-6.996-3.164-18.665-2.627-18.665-2.627s-6.535-7.867-7.804-8.518c5.274-6.544 19.584-12.171 20.585-12.214zm90.236 1.594c1.614-.042 1.49 2.23-.559 3.768-1.046.786-1.529.673-2.296.04-.226-.283-.882-.486-1.363-.434-1.145-.008 1.126-2.194 3.143-3.094.417-.186.776-.272 1.075-.28zm-81.944 1.585 6.4 3.068.05 2.51-5.92-3zm21.73.41-.357 2.758-6.687 3.196.045-2.542zm62.458 1.23c.221-.018.393.062.554.228.906.942-.834 3.782-2.798 4.629-.754.325-1.217.27-1.842-.232-.304-.244-.753-.565-1.011-.541-1.123.103-.5-1.062.406-1.127.25-.018 1.825-1.102 3.017-2.014.799-.611 1.304-.912 1.674-.943zm-6.786 1.087c1.417-.027 1.928 1.067.248 1.539-1.196.336-1.862.092-1.856-.653.254-.763.977-.85 1.608-.886zm-76.536 1.229 5.678 2.66.015 2.709-5.214-2.541zm20.35.439-.407 2.56-6.136 2.896.023-2.118zm64.194 1.283c.387.023.5.424.494 1.134-.01 1.176-.854 2.259-2.118 2.786-.926.386-1.578.353-2.036-.106-.21-.209-.5-.378-.65-.384-1.979-.079-1.658-.55.238-1.278.668-.256 1.98-1.093 2.603-1.501.7-.46 1.167-.67 1.469-.651zm-7.264.811c.97.007 1.822.644 1.284 1.052-.418.317-1.984.466-2.292.177-.584-.55-.06-1.236 1.008-1.229zm-76.353 1.575 4.838 2.436-.035 2.575-4.62-2.44zm18.593.258-.122 2.637-5.574 2.525-.027-2.515zm59.871 1.287c.941.066.82.91.057 1.318-.57.363-1.305.169-1.603-.26-.673-1.194.865-1.045 1.546-1.058zm1.879 2.713c.155.292.066.813-.243.977-.414.16-1.484-.012-1.648-.301-.135-.238-.104-.363.16-.604.44-.321 1.424-.558 1.73-.072zm-79.656-.208 4.132 2.108-.035 2.529-3.796-2.06zm17.214.122-.213 2.433-4.825 2.197.076-2.372zm-50.431 1.37c1.032.014 1.827.654 1.215 1.74-.382.678-.669.928-2.324 2.002-.676.439-1.262.84-1.307.892-.045.053-.476.327-.76.507-1.484.945-.963-1.035.895-3.95.533-.836 1.478-1.202 2.28-1.191zm50.05 2.332-.391 2.678-4.315 2.025.009-2.581zm-16.196.198 3.476 1.61.041 2.61-3.156-1.549zm41.835.338a.318.318 0 0 1 .28.123c.284.371.324 1.97.04 2.874-.491 1.062-1.43-1.626-1.32-2.307.204-.308.665-.679 1-.69zm-73.211.249c1.408-.02 2.423.875 1.941 2.195-.554 1.274-3.736 2.067-5.173 2.942-.94.428-1.165-.04-.873-.791.135-.347.239-.619-.476-.719-1.736-.242-.675-1.021 2.516-2.987.7-.431 1.424-.631 2.065-.64zm69.841 1.06c.5-.003 1.115.27 1.748.912 1.09 1.104 1.872 3.424 1.273 4.024-.457-.048-.686.575-.71.828-.073.73-1.505-.607-2.857-2.712-1.09-1.696-.553-3.044.546-3.051zm-58.66.203c4.293-.014 12.488.835 23.81 7.45 1.444.846 2.888 1.777 4.522 2.53 4.297 2.165 7.844 3.635 13.389 4.61l-.168 2.66c-.053.84 1.422 5.707.727 8.439-1.018-.022.98.81.98.81l1.294 2.476s-6.812-.075-9.906-.65c-4.985-.768-14.074-4.715-18.463-7.811-4.559-3.122-11.453-5.727-17.367-6.747l-.073-2.288s-.558-7.837-1.026-8.91l-1.08-2.481c.267.1 1.41-.082 3.36-.088zm35.812 1.833-.341 2.627-3.784 1.63.008-2.251zm18.828.179c1.057.005 2.653 1.157 4.472 3.454.41.517.726.966.785 1.276.054.286-.137.45-.44.414-.72-.123-.983-.365-1.188.463-.05.205.077.577-.17.509-1.281-.353-4.936-3.794-4.706-4.889.172-.823.612-1.23 1.247-1.227zm-33.645.065 2.749 1.368.112 2.59-2.445-.984zm-29.605.693c.846-.023 1.37.288 1.636.897.642 1.467-.508 2.346-3.916 2.997-2.962.642-2.901.683-2.484-.334.277-.674-.637-.752-1.147-.933-.862-.305-.155-.397 2.333-1.535 1.563-.715 2.732-1.07 3.578-1.092zm-9.85.661c.085-.006.185.068.33.237 4.285 4.843 3.152 11.878-2.308 15.335-.62.378-.64.026-.567-.728l.112-1.434c.03-.285 6.27-3.807 1.694-11.704l.391-1.112c.125-.355.208-.583.348-.594zm70.282 1.728c1.699.011 6.45 4.034 4.42 4.17-.24.017-.159.304-.16.486-.001.182-.014.53-.07.66-.147.35-.702.279-1.556-.193-2.165-1.197-2.656-1.578-3.403-2.238-1.471-1.299-1.046-2.898.77-2.885zm-16.789.634-.039 2.161-3.401 1.513.027-1.953zm-43.044 1.413c2.286-.065 3.564 2.05 1.277 3.151-.915.441-3.919.12-5.316.002-1.577-.133-.644-.565-.557-.695.217-.33.386-.38-.435-.837-.651-.64-1.025-.797.61-.989.793-.093 2.72-.26 3.387-.46a4.01 4.01 0 0 1 1.034-.172zm69.573.74c.168-.007.15.252.078.925l-.117 1.443c-1.042.15-6.236 6.091-2.06 13.034l-.357 1.23c-.163.608-.216.697-.76.318-3.14-2.026-4.124-12.295 2.415-16.519.426-.259.67-.426.801-.431zm-12.285 1.163c.608.012 1.351.173 2.203.536 1.983.844 3.3 1.525 3.607 1.974.19.277-.11.506-.511.612-.486.127-.546.315-.416.843-.003.306.08.645-.333.664-.767.035-2.477-.47-4.206-1.34-2.92-1.467-2.515-3.332-.344-3.289zm-14.857-.015-.01 2.628-2.785-1.203zm-46.779 2.109c.296.008.687.058 1.201.136.629.094 1.604.187 2.108.18 3.18-.04 4.489 2.016 1.862 3.05-.719.283-1.017.25-2.978-.283-.939-.256-2.089-.525-2.558-.65-.944-.252-1.27-.529-.644-.724.583-.182.635-.555.274-1.051-.087-.496.085-.677.735-.658zm73.893.239c-.466 4.068-.846 7.238-1.524 11.219-.484-.179-3.887-7.695 1.524-11.22zm-13.388 1.905c1.035.02 2.78.395 4.477 1.02 1.483.51 1.67.646.642 1.049-.62.243-.546.462-.364.838.28.283.814.848-.029.731-.999.067-3.623-.08-4.423-.212-2.395-.398-3.04-2.401-1.072-3.325.158-.074.424-.108.769-.101zm-61.575.83c.222 0 .627.111 1.363.329 4.299 1.272 6.038 2.802 3.925 4.273-.613.427-1.56.242-3.347-.69-1.828-.953-2.744-1.475-3.084-1.812-.337-.335-.151-.717.369-.683.714.046.608-.287.553-.843-.038-.39-.064-.575.221-.575zm11.607.405 3.297.704-8.364 33.357c-2.815.742-4.438 1.061-6.418 2.04l5.701-.891-.503 2.385-5.176.885-.12.712 5.93-.972s-.22 2.278-.43 3.16c5.658-.404 11.25-1.843 16.937-1.866 0 0 .237-26.345.227-29.217-.01-3.103.031-6.813.031-6.813l5.691 3 .817 33.208 17.85 2.747a223.54 223.54 0 0 1-.598-3.129c13.228 3.66 26.634 9.053 38.477 20.144-5.541 2.755-10.778 5.488-16.16 8.136l-.784 1.035c13.647-5.853 34.404-18.047 49.41-31.55v87.801l-71.581.033.025-8.214.069-7.34c-.273-4.71.63-9.891-.91-13.846l-.29-4.139c4.43-4.74 6.836-10.728 8.963-16.847 0 0 2.126-.755 3.161-1.089l.361-1.202c-2.056.964-6.771 2.578-6.771 2.578.508-.366-9.997-4.504-16.491-5.488-10.716-1.625-25.145-.034-36.664 5.212-.564.367-.804.357-.661-.12 2.704-8.988-2.887-18.038-12.748-20.687-2.092-.562-3.806-.564-3.806-.564l.175.788c16.125 1.737 19.85 17.543 13.612 24.86-1.637 2.416-1.888 3.122 1.53 3.052 13.812-.06 18.559 14.256 12.234 22.149.017-.062.507.922.507.922 3.943-4.789 5.023-13.907-1.91-20.34 5.163-5.297 15.067-13.768 23.604-13.243 3.107.191 6.161 3.687 8.193 6.476 4.303 5.906 5.384 14.136 5.673 18.829.07 1.23.244 2.123.244 2.77 0 1.878-.387 1.652-1.696 1.334-1.642-.398-3.897-.421-5.565.044-2.68.747-2.246.317.147-2.41 1.412-1.61 1.602-2.107 1.021-2.215-.177-.033-.775.519-1.559 1.627-2.363 3.344-2.175 1.969-.456-3.252 1.117-3.394 1.006-3.631-1.995-5.753-.992-.701-2.213-1.384-2.32-1.597-.563-1.116-.805.281-.3 1.202.493.9-.56 1.307-2.405.375-4.341-2.247-7.19 2.264-3.315 4.235.913.465 1.426.087.72-.521-2.381-2.055-.713-3.773 2.512-1.95 1.864 1.053 2.575.72 3.205-.59.348-.532 3.241 1.402 3.235 2.149-.004.49-.346 2.057-.679 3.107-.94 2.961-1.195 3.881-1.605 5.802-.742 3.483-.73 5.27.046 6.803 1.737 3.439 6.138 5.072 9.965 3.703.556-.199 1.62-.362 1.62-.362l.037 2.519c-7.547 2.62-13.023 10.858-12.776 11.14l-2.688-.004c-3.544-6.575-9.803-11.538-17.772-14.296 0 0-.954-1.484-.106 1.222.049 1.084 1.275 2.617 2.269 3.154 3.784 1.797 8.787 4.979 11.536 9.902l-1.905.022c-2.309-3.287-5.308-5.51-8.154-7.452-.67-.133.467 5.949 3.199 7.833l-49.136.633c3.4-12.144 4.094-25.63-3.696-43.336 6.513.391 12.295-.885 17.598-3.01l-.474-1.261c-6.042 2.649-12.663 3.152-19.286 2.504 4.993 8.638 9.323 26.719 4.976 44.081l-18.034.032.108-94.726s.702.598.923.805c.564.528.944 1.316 1.103 1.886.203.729.421.774 1.542 1.557.538.376.848.706.847.899-.032.215-.042.88.32 1.289.987 1.113.809 1.824.063 2.538-3.47 3.322-5.662 10.319-3.942 17.713 4.11-2.544 8.358-9.219 8.492-9.23l.363 9.136c-.364-.076-2.872 1.29-2.909 3.085-1.135.309-2.516-.218-3.664-.535l.819 2.693c-4.215 1.542-4.461 6.875.41 8.414 0 0-.453 2.084-.84 3.204l3.169-.437c1.82 5.096 8.889 3.49 8.868-.062 0 0 2.146.754 2.96 1.09l-.78-3.473c8.044-3.687 2.055-8.567.221-8.503.029-.97.51-1.274.955-2.403l-3.244.178c-.588-1.794-2.763-3.267-2.845-3.071l-.399-13.075c2.445 1.99 4.85 4.03 8.095 5.617 2.995 1.465 3.302 1.141 2.867-1.373-.197-1.134-.177-1.878-.177-1.878 1.125.249 3.952 3.676 3.809 5.362 1.032 1.257 1.986-2.113-.679-4.994 7.148-6.887 12.618-18.323 13.805-26.125l9.483-3.46.112-1.142c6.467-3.98 9.852-9.532 11.647-15.82zm7.874 2.068 2.176.908-2.479 1.13zm-21 .484c.42.18 1.055.57 1.926 1.167 1.847 1.264 2.925 2.134 2.958 2.897.016.377-.285.864-.753 1.092-1.12.546-2.19.093-4.6-2.209-.778-.744-1.3-1.142-1.537-1.472-.276-.385-.07-.746.39-.589 1.96.828.269-1.458 1.617-.886zm66.733.688c.403.003.722.012.921.05.524.1.675.375.349.643-.505.414-.363.835.144 1.062.348.155.205.48-.217.702-.246.13-.623.269-1.137.416-2.976.852-5.166.588-5.735-.698-.654-1.477.61-2.19 4.244-2.175.54.002 1.027-.003 1.43 0zm-43.296.737-.033 1.977-3.09 1.363.343-2.004zm-26.229.533c.271.016.714.403 1.356 1.137 2.963 3.388 3.362 4.04 2.384 4.933-1.159 1.059-2.776.027-4.51-2.94-.233-.398-.518-.91-.688-1.096-.638-.697-.355-.913.456-.853.444.033.656-.111.67-.535.013-.448.122-.658.332-.646zm71.315 1.939c.542.002.5.173.257.756-.188.516-.493.682.291 1.01.13.06.419.391.156.534-.622.387-3.4 1.548-4.406 1.854-1.953.593-3.148-.883-1.997-2.342.482-.611 3.785-1.71 5.43-1.804.101-.005.192-.008.27-.008zm-72.886 1.722c1.967 2.74 2.21 4.017.903 4.81-.827.58-2.581-.262-2.976-2.028-.302-1.353-.438-2.766.041-3.887.726-1.697 1.828.822 2.032 1.105zm27.773-1.042.007 2.137-3.759 1.733.355-2.353zm7.647.11 3.52 2.129.197 1.822-3.639-1.87zm39.354 2.23c.093.002.143.041.142.143-.003.251-.074 1.145.453 1.228 1.038.163.8.462-.11 1.184-.988.804-1.891 1.76-3.08 2.344-3.063 1.038-4.013-1.961-1.112-3.509 1.002-.534 1.91-.902 2.586-1.077.508-.13.917-.316 1.12-.312zm-39.27.973 4.08 2.245.135 2.246-4.056-1.929zm-7.887.182.008 1.953-4 2.106.34-2.184zm16.516 1.648c1.128.492 15.623 4.274 20.43 3.015 0 0 4.092 5.505 7.126 7.482-4.733 6.388-20.704 12.615-20.704 12.615zm32.656.243c.264-.008.327.236.323.694-.07 1.328-2.444 6.212-4.311 3.7-.513-.936.016-1.9 1.666-3.048 1.309-.91 1.982-1.337 2.322-1.346zm-78.996.516c.357.362.19 1.475-.58 1.399-.223-.022-.249-1.153-.1-1.765.222-.1.557.246.68.366zm29.863.717-.035 2.481-4.744 2.372.52-2.758zm7.83.374 4.68 2.332.54 2.742-5.19-2.512zm-7.854 3.348-.009 2.5-5.33 2.512.37-2.466zm7.932.243 5.233 2.781.678 2.607-5.845-2.822zm-74.336-.16c.86-.009 1.166.84.514 1.379-.43.368-1.645.289-1.751-.006-.547-.493.21-1.364 1.237-1.374zm1.594 2.651c.127-.007.247 0 .351.025.62.148 1.002.979.621 1.45-.703.87-2.547.26-2.273-.842.073-.292.75-.6 1.3-.633zm64.704 1.045-.008 2.236-5.8 2.812.377-2.5zm8.186.337 5.961 2.992.449 2.507-6.409-3.116zm-75.73-.178c.288-.014.517.061.64.261.11.179.24.636.654.86.771.42.851.507-.62 1.098-.62.25-1.84 1.012-2.266 1.276-1.303.807-1.831.533-1.923-.426-.116-1.209 2.265-3.01 3.514-3.07zm4.473 1.845c.301-.015.594.038.804.167.496.306.52.917.041 1.222-1.096.645-2.803-.249-1.89-1.02.257-.217.658-.35 1.045-.37zm63.048 1.416.02 2.902-6.468 3.135.439-2.943zm-66.246.125c.423-.02.828.073 1.18.316.38.453.84.587 1.108.598 1.107.043.753.416-.411.904-1.604.672-2.733 1.529-3.89 2.516-1.203 1.028-1.29 1.25-1.683.825-1.46-1.577 1.41-5.046 3.696-5.159zm74.539.275 6.753 3.451.57 2.899-7.333-3.812zm-70.102 1.816c.274-.005.53.056.732.21.48.365.2 1.066-.468 1.38-.568.268-1.5.15-1.767-.1-.637-.599.525-1.472 1.503-1.49zm-3.274 1.447c.412-.036.784.453 1.116.98.116.132.58.075.911.079 1.267.013 1.441.51.21 1.137-.36.184-1.543 1.016-2.333 1.635-2.132 1.873-3.281 1.428-3.002-.496.266-1.84 1.997-3.24 3.098-3.335zm73.362.416 7.45 3.818.716 3.12-8.177-4.116zm-8.238.03-.042 2.874-7.04 3.42.557-2.913zm8.336 3.684 8.342 4.716.294 3.054-8.648-4.652zm-8.357.482.004 2.817-7.783 3.626.402-2.66zm-63.08 1.66c.198-.004.385.025.54.091.908.391.667 1.062-.705 1.748-1.4.7-1.877.578-2.173-.214-.25-.667 1.265-1.605 2.338-1.625zm87.291.664c14.525 3.13 28.732 9.844 42.505 21.529l-2.894 1.882s-12.06-12.834-38.94-20.422zm-15.783 1.29 4.024 2.215.008.562-4.042-.32zm-68.7-.2c.306.017.575.182 2.014.823 5.772 3.89 8.08 6.232 9.502 10.481.852 2.546.835 2.442-1.99 1.05-2.657-1.317-6.297-3.503-8.642-6.321-.415 6.611.387 14.834.387 14.834 3.609 1.663 2.423 5.956 2.413 5.93 9.311-2.322 7.23 9.047.308 6.571 1.62 8.54-8.923 7.81-7.815.5-8.393-.328-6.876-8.8.087-7.606-.715-2.618.29-4.386 2.864-5.5l-.35-11.174s-6.875 9.075-8.017 8.929c-.67-.086-1.676-1.134.055-9.106.901-4.15 5.673-9.193 8.334-9.347.47-.027.667-.073.85-.063zm6.69.107 1.225.783-1.163 1.907-1.275-.863zm53.525.72-.047 1.675-3.768.196zm-41.383 18.776c-.565.012.952.347 1.91 1.148 8.861 1.3 14.247 11.368 10.118 18.63-.498.326.262 1.913.764 1.32 4.346-5.667 1.18-19.637-11.433-21.009-.749-.061-1.17-.093-1.36-.089zm3.336 3.828c-.72 1.808-.909 2.24.92 1.508 3.224 1.117 6.688 5.996 5.555 10.883-.36.57.27-.371.688 1.238 1.606-3.574.046-11.3-7.163-13.63zm40.946 9.242c9.076.005 18.05 1.872 25.182 5.7-2.433 1.244-10.19 2.964-10.19 2.964-4.337-4.543-6.54-9.078-14.423-6.789-8.255 1.946-15.707 8.537-19.903 12.911-4.182-2.325-6.45-2.897-10.164-3.1-.215-.007-.537.868-.268-.544 1.069-1.514 1.808-3.23 2.524-4.964 7.804-4.079 17.581-6.182 27.242-6.178zm28.19 5.904c-1.827 5.413-4.181 10.742-8.159 15.43l-.48-2.351c3.744-5.285 5.526-10.096 6.33-12.204zm-3.518 1.395c.23.345-3.642 8.815-5.543 10.352l-.735-2.192c1.554-2.159 3.862-7.369 3.795-7.418zm-23.431-.067c-.12.01-.163.107-.164.32-.006.78.868 1.395 2.463 1.735 2.154.46 5.18-.22 5.187-1.167.005-.546-.417-.588-1.654-.062-1.552.66-2.92.525-4.937-.474-.463-.229-.741-.364-.895-.352zm19.205 1.416c-.608 2.054-1.504 3.564-2.647 5.13l-.362-1.082c.79-1.175 1.314-2.519 1.985-3.824zm-2.258.658c-.294.714-.618 1.54-1.286 2.176l-.86-1.701zm-13.66 1.53c-1.462.022-2.91.453-3.038 1.172-.062.345.5.213 3.219-.085 1.435-.157 2.116.632 3.431.554.67-.071.046-.646-.161-.813-.729-.578-2.162-.846-3.451-.827zm-6.244 1.548c-.147.027.016.373.56 1.257.295.478.365 1.451.42 2.054-.077 1.499-.072 1.452.731.587.505-.46 1.482-.355 3.03.038.997.254 1.236.344 1.93-.056.806-.464.994-.228 1.685-.097.667.126 1.274-.12 2.007-.305.895-.226 1.066-.173 1.843.006 1.187.525 1.014.478 1.12-1.388.107-1.838 0-1.97-1.15-1.354-1.114.597-1.882.866-3.586.31-1.857-.607-2.12-.455-3.441-.092-1.597.44-2.322.59-3.59-.134-.834-.476-1.393-.857-1.56-.826zm-25.992 2.69.708 1.078c6.42 2.152 10.757 7.034 8.155 15.232l.608.908c3.248-8.258-.398-15.106-9.471-17.218zm1.977 3.507.87 1.668c4.829 2.181 4.517 8.143 4.247 7.907l.752 1.555c1.225-3.854-.958-9.559-5.869-11.13zm20.17 8.959c-.19 0-.316.06-.368.183-.125.296.248.475 2.452 1.9 1.893 1.222 3.358 2.13 3.245 2.303-.075.116-1.254-.154-2.096-.39-2.206-.615-5.466.108-7.296 1.294-.465.287-1.235-.031-1.904-.195-.267-.071-.858-.14-1.15-.07-1.382.33-.05 1.557 3.323 3.153 4.14 1.959 6.383 2.143 8.907.972 1.675-.796 2.272-.2.44.71-3.201 1.586-6.26 1.082-11.295-2.15-2.333-1.499-3.268-1.253-1.264.174 3.518 2.567 10.296 5.706 14.479 1.91.162-.053.54-.026.723-.025.866.006.904-.247.006-1.576-.541-.8-1.64-1.645-.295-2.62 1.019-.738.947-1.09-.28-1.435-.324-.084-.292.114-.778-.252-2.942-2.214-5.822-3.888-6.849-3.886zm1.261 4.358c1.239.036 2.483.924 2.867 2.515.035.142.065.287.085.439l-1.055.033c-.863-3.241-3.502-2.176-3.772-.28l-.95-.12c.357-1.806 1.586-2.622 2.825-2.587zm21.847 2.836-.703.094c-.455-1.194-2.53-2.804-3.534.1l-.885-.036c.631-3.936 4.487-3.312 5.122-.158zm-5.381-1.654c.286.379-.221 1.014-.515 1.305-.282.277-.904.04-1.164-.235-.227-.272-.056-.812.325-.99.395-.185 1.066-.351 1.354-.08zm-12.352.077c.293.612-.534 1.066-.637.859-.177-.058-.392-1.066-.29-1.133.273-.007.816.078.927.274zm18.57-.039c.444.035.928.232 1.015.697.003.308-.382.641-.822.658-.194.007-.933-.5-.791-1.218.158-.254.339-.157.597-.137zm-25.815.11c.155.222-.14.883-.208.971-.035.047-.982.006-.962-.06.021-.064-.085-.562.146-.923.264-.155.835-.235 1.024.012zm17.211 2.188c.123.004.279.05.463.158 2.645 1.608 6.053 2.331 8.513 1.197.55-.253.909-.238.907.008-.003.27-.612.82-1.746 1.131-2.533.696-6.707-.247-8.145-1.687-.423-.423-.36-.816.008-.807zm-23.259 1.6c-.253-.007-.335.131-.287.414.165.954 7.242 4.747 10.204 5.265 2.433.426 4.325.245 5.817-.552 3.623-1.934 2.706-4.57-.84-2.597-2.383 1.325-8.405.692-11.981-1.237-1.59-.858-2.491-1.28-2.913-1.293zm31.942 1.482c.898-.345 1.283-.466 1.48-.312.908.71-.59 1.806-3.315 2.227-2.18.325-3.489.385-5.97-1.327-1.92-1.326-1.01-1.963.093-1.36 2.935 1.602 5.12 1.66 7.712.772zm-31.331 4.021c6.265 2.102 13.382 7.146 16.528 13.254l-1.935-.02c-2.14-3.489-6.386-7.925-13.4-11.055-.62-.476-.941-1.324-1.193-2.179zm32.936 2.961-.008 1.906c-3.884 1.798-7.144 4.574-9.61 8.41l-2.193-.036c2.53-4.116 6.31-7.965 11.81-10.28zm-.01 2.906-.009 2.34c-2.456 1.324-4.509 3.073-5.95 5.081l-2.597-.008c2.093-3.253 4.958-5.842 8.556-7.412zM99 1006.104c1.864 1 4.946 3.663 6.062 5.71l-.998.038c-1.012-1.202-2.632-2.587-3.952-3.678-.843-.924-1.112-2.07-1.112-2.07zm28.715 1.593c.031 0 .031.018 0 .057l-.008 1.858c0 .05-1.866 1.17-2.661 2.219l-2.108-.006c1.456-2.422 4.474-4.133 4.776-4.127zm-.007 3.09-.009 1.052h-1.324c.089-.118.828-.866 1.333-1.052zm-25.835.18c.396.195.699.886.699.886l-.356.034z"/><path fill="#e2cf00" d="M48.717 969.848c4.363.11 13.57-1.4 13.423-1.246 0 0 28.569 43.984 27.407 43.548-.371.546-36.598.526-36.598.526-.785.008 7.686-16.298-4.232-42.828zm12.954-30.986c13.92-10.688 28.503-10.768 44.161-12.238l.36-36.323 5.666 3.143.12 33.28c20.67 1.436 38.503 8.45 53.823 20.728.192.267-22.165 11.343-31.956 14.274-7.602-5.17-27.658-8.43-40.958-4.454-3.653 1.091-8.138 2.839-12.502 4.13 3.16-17.535-11.616-20.124-16.814-20.933-.651-.102-1.428-1.4-1.9-1.607zm-17.869 5.67c.244-3.737-.02-7.477-.32-11.297-.08-.872-8.141 11.366-8.592 8.398-1.128-7.432 2.855-16.88 9.112-18.039.623-.782 13.019 6.327 12.452 12.47-.184 2.001-11.057-6.76-11.102-6.236-.255 1.024.32 14.733.657 14.706 3.131 1.632 2.45 3.729 2.791 5.466 8.39-1.146 7.931 7.477.013 7.208.49 10.187-9.72 5.584-7.71.158-10.282-.45-5.218-9.349-.098-7.393-.309-2.246.29-4.588 2.797-5.442zM55.6 901.31c-.592-.217-21.936-1.23-21.936-1.23l1.117-48.157c10.897-23.181 51.905-12.34 45.381-7.408-19.596 11.894-22.58 33.585-24.562 56.795zm39.366-19.783-.651-5.347c-1.675-3.323 43.636 16.065 44.147 16.48l1.319 5.705c.262 2.507-28.82-10.157-44.815-16.838zm82.424-9.444c-.667 21.61-4.264 36.243-17.815 53.902-.376.58-4.207 2.05-4.504 2.549 1.937 2.837 12.993 7 18.1 9.237l26.568-14.658c.308.02-.909-51.354-.909-51.354zm10.055-23.467c-3.57-.505-11.875-8.484-10.153-10.897.053-1.811 10.333 5.12 11.402 6.989-.527-.555-.6-16.933-.767-16.282-.391.192-3.14-1.631-2.424-5.045-7.882 1.614-7.45-7.872-.56-7.485-.89-8.63 10.49-5.461 7.462.32 9.74-1.663 8.058 8.466.698 6.818.624 3.841-1.086 4.903-3.478 5.67.153 1.61.806 12.35.806 12.35s7.2-10.221 7.717-9.34c1.441 3.1-1.185 19.493-10.703 16.902zm-33.37-37.696c-3.25 10.375 5.654 22.229 14.065 22.196 1.692-.247 4.932.6 3.814 1.439-13.27 9.958-44.235 12.026-44.243 11.594.325 12.225-.267 24.573-.582 36.795l-5.675-3.166c-.182-11.149-.478-22.552-.754-33.699-19.84-2.398-37.672-8.326-51.763-20.936 9.356-6.423 20.535-10.435 31.272-14.49 13.518 6.505 32.34 10.264 53.867.267zm-9.791-49.294c-.622-.254 2.139-2.153 2.139-2.153s23.051.28 34.486.138c-4.166 15.84-1.22 30.033 4.16 43.662-1.426-.31-10.894.402-13.206 1.36-.372.345-27.287-42.62-27.58-43.007z"/><path fill="#d40000" d="m90.297 1012.088-27.87-43.592 4.182-1.683 28.732 45.339zm-49.592-58.28 4.026-3.839 4.037 3.79-4.221 3.633zm89.418-24.448-.567-3.116c16.058 3.643 29.2 11.289 38.651 19.616l-2.25 1.525c.702-.177-22.812-16.513-35.834-18.025zm-46.636-3.07 5.09-.683-.145 2.62-4.838 1.018zm93.99-2.07-2.774-2.071 1.996-2.193 2.695 1.968zm-94.311-21.122c6.893-3.023 12.274-15.218 11.599-16.032l3.756.825-8.677 33.413-6.533 1.095c-.03-6.392-.147-12.91-.145-19.301zm45.364 18.906c-2.337-7.034-6.938-22.944-6.938-22.944.168.52 14.952 4.413 20.225 2.995 2.251 2.855 4.727 5.364 7.338 7.664-5.474 4.96-12.27 9.103-20.625 12.285zm61.967-25.607-2.604-2.09 2.336-2.65 2.86 2.018zM156.475 895c-2.122-3.532-2.27-7.525 1.667-11.463zm-80.895-6.846c-.168-.364.892-8.734 1.142-9.105.438-.651 1.296 1.697 1.7 3.49.509 2.25-2.226 6.95-2.842 5.615zm59.493-2.6s5.725-24.576 8.205-34.207l6.985-1.633-.943 20.18c-5.74 4.755-10.514 16.084-10.514 16.084zm-92.01-4.086-2.765-2.392 2.339-2.37 2.438 2.31zm49.515-9.581-7.594-8.23c4.704-6.062 12.513-9.57 20.787-12.324l5.603 23.094c-6.333-1.768-13.161-3.683-18.796-2.54zm-38.81-20.585 1.948-2.243 2.55 1.86-1.938 2.482zm91.42-6.938 4.886-.647-.368 3.107-5.173.763zm-79.594-17.462 3.008-1.734c10.562 8.784 22.227 14.845 34.95 18.291l.854 3.795c-14.345-4.097-27.898-10.307-38.812-20.352Zm123.415-3.505-3.912-3.573 3.522-3.628 4.183 3.348c-1.38 1.93-3.793 3.853-3.793 3.853zm-21.672-17.389-29.28-46.275 4.23-.033 28.812 44.575z"/><path d="m137.79 758.953-6.995.024 39.708 73.995s-1.076.168-3.182-.344c-9.537-2.318-15.414-11.653-13.258-20.81.22-.712.275-1.322.275-1.322-24.585 10.31-39.806 6.513-54-.052l-6.054 2.152c.402-3.388 4.925-16.109 11.69-22.099l-.01-6.416-.163-3.029-.535-5.496c-10.065 8.78-21.808 22.602-23.278 42.23 0 0-9.164 4.36-16.985 9.185.434-.053 12.183 13.314 40.41 20.82l-1.241-4.265c4.197 1.092 10.164 1.955 16.099 2.652l.794 33.502 6.741 3.698.23-37.092c.206.153 10.75-.344 16.43-1.6l-.8 3.577 5.61-1.024v2.61l-6.15 1.344-8.757 34.672 5.102 1.052c1.493-6.984 5.264-12.633 10.727-16.098l-.056-1.33c3.505-2.33 10.788-4.181 10.835-4.138 2.485-11.244 8.267-19.036 14.414-26.448l-2.927-3.685 11.226-3.817-15.585-24.566c5.996-3.834 17.887-2.406 17.887-2.406-5.097-12.747-9.576-25.896-4.542-45.193l-43.349.034Zm14.222.8c-.01 3.223-4.555 2.891-5.11-.016zm27.85-.101c-2.759 14.775-1.844 29.167 4.551 42.843 0 0-.932.05-1.049.028-.088-.016.109-.737.061-.93-.127-.513-1.046-.272-1.817.208-.336.21-.723.449-.968.562-.792.366-4.81.338-4.81.338 1.311-.822 3.155-3.136 2.085-4.486-.242-.288-.389-.161-.625.227-1.141 1.88-1.708 2.174-3.233 2.156-2.392-.027-4.104-1.4-3.91-3.472.187-2.013 3.384-3.076 2.912-1.123-.129 1.74 1.733 2.077 2.077.344.13-.649.027-.347.179-1.108 3.724-1.831 1.668-5.56-1.808-4.78-.817.2-.92.271-1.497-.004-1.072-.512-1.962-.35-2.367.368-.357.633.186 1.139.982 1.142.826.003.985.371.983.83-.005 1.067-1.992 1.58-3.31.958-3.477-1.644-2.188-5.917 1.849-5.902 1.227.004 1.74.075 1.792-.17.147-.69-1.727-1.884-2.785-1.708-.897.162-1.442.38-.967-.727.29-1.14.283-1.657.035-2.514-.645-1.225-.63-.597-1.028.396-1.33 2.043-3.334 2.495-5.061 1.378-1.602-1.038-1.554-3.007-.03-4.412 1.058-.975 2.193-.311 1.557.779-.263.451-.055 1.01.418 1.123.955.226 1.548-.296 1.553-1.369-.02-.59-.197-.722.952-1.33 2.974-1.574.75-5.873-2.607-4.491-.737.303-.909.6-1.242.457-1.403-1.228-3.416.325-2.225 1.147.514.232 1.143.32 1.308.335.29.153.193.535-.229 1.014-1.39 1.518-4.545.769-5.29-1.373-.863-2.48 1.874-5.088 3.971-3.642.62.427 1.158.472 1.161-.16.003-.986-1.336-2.117-3.044-2.006-1.736.114-1.546.32-.601-1.132.697-1.294.602-2.556-.005-3.317-.469-.586-.95-.71-.902-.09.38 1.923-2.044 3.751-4.037 2.945-1.916-.794-2.866-2.781-1.925-4.506.868-1.591 2.973-1.756 2.622-.057-.164 1.084.725 1.654 1.584 1.015.312-.233.385-.438.407-1.137.024-.779-.317-1.007.224-1.463 1.421-.174 1.509-2.97 1.293-3.085l22.815-.1zm-25.433.094c.901 0 1.65.283 1.65 1.118 0 .835-.728 1.51-1.63 1.51-.9 0-1.634-.675-1.634-1.51s.713-1.118 1.614-1.118zm-15.988.109h3.626l28.642 44.23-3.392 1.528zm5.956 1.545c1.736.92 3.338 1.674 5.515 1.871-.638 1.199-1.219 2.508-1.324 4.747zm5.834 8.907c1.767.587 3.3 1.475 6.212.578-1.552 1.272-2.431 2.795-3.089 4.4zm14.9 5.343c.836 0 1.513.628 1.513 1.401 0 .774-.677 1.397-1.512 1.397s-1.512-.623-1.512-1.397c0-.773.677-1.401 1.512-1.401zm-9.278 3.492c1.277.436 2.615.724 4.101.662-.734.936-.985 2.36-1.032 3.989zm4.385 6.971c1.182.534 2.582 1.313 5.064 1.063-1.644 2.585-1.292 3.298-1.46 4.429zm14.354 5.134c.874 0 1.583.657 1.583 1.468 0 .81-.709 1.467-1.583 1.467-.875 0-1.584-.657-1.584-1.467s.71-1.468 1.584-1.468zm-8.897 3.295c1.083.567 3.221.89 3.245.737-.137-.095-.616 1.91-.7 3.171zm4.985 7.534c1.539.841 3.242.761 4.243.86-1.07.199-2.08.447-3.228.865zm18.15 8.271c-3.708.222-4.568 2.856-4.128 5.525-2.827-.418-5.99 2.064-5.106 5.1.839 2.88 3.728 2.981 5.722 2.789-.153.7-.573 3.051 2.494 5.041l.409 14.949s-1.352-1.15-2.235-1.966c-3.853-3.556-9.65-6.132-9.286-4.128.053.295.176 1.043.27 1.661.612 3.384 5.519 7.043 8.864 8.884 1.195.617 1.934 1.278 1.934 1.278-6.257 6.199-9.62 12.813-10.457 19.377a1001.58 1001.58 0 0 0-2.027 17.192c-2.553 28.09-15.562 35.156-16.18 36.53l-.245 3.746-3.63-.25-4.185 3.355c13.708 6.563 21.704 14.484 21.593 14.635 10.945-6.642 20.393-14.02 29.311-21.655l-.173-62.546s-.74.251-.932.25c-.677-.002-.763.28-.998 1.477-.125.64-.537 1.23-.86 1.651-.613.8-.395.395.377.685 1.756.658-.524 3.64-3.02 4.005-1.797.262-2.8.568-3.105.953-3.783 3.066-7.552 3.552-10.402 2.425-1.402-.554-2.927-1.365-3.442-2.717-1.17-3.07 1.268-7.494 2.698-10.05 2.623-4.685 6.98-8.204 6.98-8.204l-.712-.717s.856.012 1.018-.043c3.76-1.266 3.993-1.285 4.685-2.208.691-.923 2.435-3.557 2.795-4.425 1.932-4.658 2.192-4.96 2.19-8.016-.004-2.475-.182-4.129-.698-4.26-2.963 2.105-5.954 7.02-7.704 9.917-.605-4.292-.784-11.785-.784-11.785.627-.642 4.185-.283 3.396-5.657 3.132 1.309 6.431-.693 6.293-3.488-.215-4.35-3.832-4.222-6.777-3.673 1.403-2.628-1.264-5.797-3.943-5.637zm-.058.366c3.87.111 4.637 4.073 2.266 6.316 0 0-1.536-1.096-2.351-1.72-.774.564-.998 1.052-1.849 1.632-1.008-.69-1.616-1.911-1.625-3.087.047-1.838 2.048-3.184 3.56-3.14zm-88.399.123c15.658 8.108 35.29 8.688 53.262.425l-.219 1.373-1.97 1.028 1.115 1.892.616-.274.015 1.25c-14.814 7.415-39.63 8.95-59.056-3.363l1.69-.727s.382.247.749.458c.708.406 1.876 1.058 2.648 1.377l1.176-1.57s-1.796-1.015-1.62-1.081l1.594-.788zm1.38 2.486-.896 1.888 2.245 1.108.856-1.901zm-8.518.213c24.111 14.024 46.555 9.849 60.034 4.114l.173 1.495c-17.397 6.858-40.272 8.699-62.045-4.864zm56.755.9-2.144.793.85 1.822 2.205-.873zm-59.637.34c19.594 11.707 40.608 14 63.257 5.421l.865 2.241c-22.057 8.208-45.335 7.263-66.601-6.69Zm15.056.067-.876 1.962 2.429.854.707-1.925zm41.205.811-2.123.637.662 1.878 2.2-.694zm-37.494.538-.524 1.972 2.48.646.432-1.981zm89.734 3.246c.334 3.354-5.033 4.973-7.04 1.843l1.769-1.992L192 817.92c2.148-3.147 6.54-1.632 6.854 1.517zM87.334 816.3l5.845 3.723-4.246 6.114-6.293-3.916zm101.305.17 3.712 2.982-3.406 3.694-3.483-3.255zm-2.307 1.012-2.087 2.248 2.258 2.225c-2.678 2.638-6.676 1.01-6.636-2.22.03-2.464 4.102-4.864 6.465-2.253zm-43.272-.866-2.23.619.51 1.811 2.306-.557zm-30.08.571-.413 1.949 2.561.51.433-1.94zm26.399.33-2.373.477.408 1.94 2.377-.463zm49.51.458-1.956 1.779 1.956 1.878 1.97-1.878zm-71.8.057-.3 1.963 2.682.334.21-1.986zm18.07.269-2.414.255.244 1.924 2.505-.292zm-14.247.226-.03 2.015 2.352.174.005-1.995zm10.377.189-2.363.08.016 1.949 2.413-.142-.066-1.887zm-43.105.019c-1.39 0-2.515 1.043-2.515 2.33 0 1.288 1.125 2.331 2.515 2.331 1.39 0 2.516-1.043 2.515-2.33 0-1.288-1.125-2.331-2.515-2.331zm39.143.066-2.321.019.01 1.972 2.393.01-.082-2.001zm61.562.01 1.018.943-1.018.93-1.044-.93zm-100.71.745c.912 0 1.65.683 1.65 1.528s-.738 1.534-1.65 1.534c-.912 0-1.655-.689-1.655-1.534 0-.845.743-1.528 1.655-1.528zm-8.946.113 3.345 2.524c-1.064 1.888-4.434 5.874-4.434 5.874l-6.181-4.59 3.233-1.694a2.132 2.132 0 0 0-.275 1.047c0 1.266 1.108 2.288 2.474 2.288s2.475-1.022 2.475-2.288c0-1.214-1.023-2.204-2.312-2.284zm-1.868 1.623c.916 0 1.66.69 1.66 1.538 0 .849-.744 1.533-1.66 1.533-.916 0-1.66-.684-1.66-1.533 0-.849.744-1.538 1.66-1.538zm113.694.726s.911.32 1.134.637c1.794 2.552-.075 5.586-3.082 5.527-3.513-.07-4.438-4.15-2.021-5.814l1.964 1.718zm-91.327 1.038 6.924 2.463-2.627 6.973-7.571-2.878zm-28.462.727c28.25 23.585 68.383 25.28 97.553 9.624l1.777-.033.942.897C138.31 852.48 97 848.517 69.112 825.08zm77.788 1.406 2.23 6.893-7.658 1.868-1.71-6.982zm-80.685.25c8.574 7.656 20.696 14.364 34.933 18.169l.351 2.826c-15.113-4.206-26.527-9.822-37.646-19.57zm33.192.108c-1.366 0-2.475 1.028-2.475 2.293 0 1.266 1.109 2.289 2.475 2.289 1.365 0 2.474-1.023 2.474-2.289 0-1.265-1.109-2.293-2.474-2.293zm-12.317.515 7.144 3.5-3.56 6.6-7.586-3.769Zm12.286.24c.916 0 1.66.69 1.66 1.538 0 .849-.744 1.534-1.66 1.534-.916 0-1.66-.685-1.66-1.534 0-.848.744-1.538 1.66-1.538zm11.828.94 6.863.924-.316 7.048-8.009-.891c.307-2.481 1.462-7.082 1.462-7.082zm33.15.174c-1.366 0-2.474 1.027-2.474 2.293 0 1.265 1.108 2.288 2.474 2.288s2.475-1.023 2.475-2.288c0-1.266-1.109-2.293-2.475-2.293zm-.03.755c.915 0 1.66.689 1.66 1.538 0 .848-.744 1.533-1.66 1.533-.916 0-1.66-.685-1.66-1.533 0-.85.744-1.538 1.66-1.538zm-55.803.099c-1.366 0-2.474 1.027-2.474 2.293 0 1.265 1.108 2.288 2.474 2.288s2.474-1.023 2.474-2.288c0-1.266-1.108-2.293-2.474-2.293zm43.878.01.983 7.08-7.495.345-.443-7.063zm53.716.631h1.064c.098 6.095.618 13.15 1.38 18.367.114.777.166 1.007.08 1.147-.735 1.207-1.59-.313-1.924-3.78-.092-.955-.209-2.346-.336-3.26-.385-2.763-.264-12.474-.264-12.474zm-126.671.109c-11.27 6.514-30.014 22.076-29.903 22.438l.077 59.795 1.466.066 1.212-2.199c-1.875-.435-1.35-3.7 2.24-4.354.613-.112 2.484-.695 2.943-1.02 2.725-1.925 7.153-3.061 10.26-2.302 4.53 1.074 5.458 4.16 3.278 9.526-1.718 4.23-5.123 9.638-8.32 11.181-.26.126-.824.382-.824.382s.743.626 1.013.788c8.806-4.715 13.252-21.629 13.014-32.152.355-10.78 2.361-21.597 7.057-29.464 7.76-13.002 18.025-18.229 17.973-18.277 0 0-13.838-7.784-21.486-14.408zm29.046.005c.917 0 1.66.689 1.66 1.538 0 .848-.743 1.533-1.66 1.533-.915 0-1.66-.685-1.66-1.533 0-.85.745-1.538 1.66-1.538zm68.455.245 2.673 6.581-7.428 2.817-2.678-6.917zm-42.727.033c-1.366 0-2.475 1.027-2.475 2.293 0 1.265 1.109 2.288 2.475 2.288s2.474-1.023 2.474-2.288c0-1.266-1.108-2.293-2.474-2.293zm15.101.57c-1.366 0-2.474 1.028-2.474 2.294 0 1.265 1.108 2.288 2.474 2.288s2.474-1.023 2.474-2.288c0-1.266-1.108-2.293-2.474-2.293zm-15.132.185c.916 0 1.66.69 1.66 1.538 0 .848-.744 1.533-1.66 1.533-.916 0-1.66-.685-1.66-1.533 0-.849.744-1.538 1.66-1.538zm15.101.57c.917 0 1.66.69 1.66 1.539 0 .848-.743 1.533-1.66 1.533-.915 0-1.66-.685-1.66-1.533 0-.849.745-1.538 1.66-1.538zm25.264.784c-1.365 0-2.474 1.027-2.474 2.293 0 1.265 1.109 2.288 2.474 2.288 1.367 0 2.475-1.023 2.475-2.288 0-1.266-1.108-2.293-2.475-2.293zm-.03.755c.916 0 1.66.689 1.66 1.538 0 .848-.744 1.533-1.66 1.533-.916 0-1.66-.685-1.66-1.533 0-.849.744-1.538 1.66-1.538zm-52.468.118 7.424 1.76-1.726 7.213-8.376-2.062zm93.908-.187c1.215 3.524-1.013 8.044-1.126 8.34-1.35 3.544-2.973 6.44-3.564 6.609-.502.176-.725.063-.723-.373.003-.67 1.66-5.208 2.963-8.129.32-.715 1.059-2.877 1.06-3.24.002-.547-.57.344-1.187 1.707-1.194 2.726-2.937 5.646-3.314 8.29-.271 2.16-.715 1.854-1.04-.718-.45-3.57.393-5.407 4.726-10.38 1.036-1.189 2.1-2.41 2.205-2.106zm-54.535 1.833 2.148 7.063-8.762 1.387-1.365-7.162zm-36.69.713c-1.366 0-2.474 1.027-2.474 2.292 0 1.266 1.108 2.289 2.474 2.289s2.475-1.023 2.475-2.289c0-1.265-1.109-2.292-2.475-2.292zm13.1.457 7.938.42.072 7.341-8.615-.344zm-13.13.297c.916 0 1.66.69 1.66 1.538 0 .85-.744 1.534-1.66 1.534-.916 0-1.66-.685-1.66-1.534 0-.848.744-1.538 1.66-1.538zm33.313.651c-1.365 0-2.474 1.028-2.474 2.293 0 1.266 1.109 2.289 2.474 2.289 1.366 0 2.475-1.023 2.475-2.289 0-1.265-1.109-2.293-2.475-2.293zm-16.455.59c-1.366 0-2.475 1.028-2.475 2.293 0 1.266 1.109 2.288 2.475 2.288s2.474-1.022 2.474-2.288c0-1.265-1.108-2.293-2.474-2.293zm16.425.165c.916 0 1.66.69 1.66 1.538 0 .85-.744 1.534-1.66 1.534-.916 0-1.66-.685-1.66-1.534 0-.848.744-1.538 1.66-1.538zm-16.456.59c.916 0 1.66.69 1.66 1.538 0 .849-.744 1.533-1.66 1.533-.916 0-1.66-.684-1.66-1.533 0-.849.744-1.538 1.66-1.538zm54.128.439c.13-.003.302.02.417.019 1.773-.019 7.75 3.96 9.282 6.369 1.27 2.127.613 2.972-.85 1.07-2.019-2.082-5.747-5.173-6.222-5.175-.51-.002.192.672 2.566 2.817 2.355 2.127 4.839 4.898 4.837 5.392 0 .326-.468.285-1.14-.099-1.47-.838-2.744-1.686-3.397-2.255a76.253 76.253 0 0 0-1.675-1.406c-2.195-1.783-4.697-5.896-3.991-6.685.031-.035.094-.045.173-.047zm-110.75.585c1.53-.041 3.255.86 3.325 2.51.05 1.165.135 1.255 1.272 1.274 1.086.018 4.221.363 4.221.363l.02 3.265s-1.513-.009-3.258-.085c-2.97-.13-2.957-.134-3.335 1.075-.153.49-.365.73-.957 1.09-2.668 1.624-5.24-1.322-3.584-4.104.568-.955.601-1.282.208-1.854-.798-1.661.264-3.451 2.088-3.534zm.651 1.67c-.329 0-.688.131-1.018.434-.44.404-.443 1.557-.005 2.227.418.641.408.813-.081 1.236-.862.744-.887 2.221-.046 2.777.766.506 1.58-.163 1.583-1.187.005-1.122.853-1.102.853-1.102l5.581.09.018-.843-4.05-.188c-.562-.002-1.151-.052-1.586-.324-.461-.295-.986-.808-.485-1.431.702-.873.077-1.695-.763-1.689zm-12.097 1.93 2.648 4.17 3.085.104.27 2.538 3.75 2.238-3.842 2.083-.19 2.554-2.91.339-2.704 3.137-2.592-3.132-2.856.014-.04-2.619-3.931-2.344 4.302-2.241-.046-2.992 3.05-.188 2.006-3.661zm93.52 1.896.128 2.52-4.333.712.565-2.567zm-27.768 2.538 5.84.166-.337 35.36s-1.15-.007-1.37-.01l-.025-1.377-1.868.057-1.9-1.067zm-65.752.897-3.426 4.02 4.15 3.359 3.655-3.93zm67.503.538v1.627h2.449v-1.627zm-67.426 1.391 2.413 1.638-1.838 2.25-2.327-1.868Zm93.566.925-.077 19.353c-8.024 5.835-10.524 16.107-10.524 16.107l-3.263-.18 8.294-34.09zm-43.497.43c-7.22 3.183-14.497 5.593-21.659 13.186 2.773 2.313 5.704 4.67 8.31 8.61 5.962-.823 12.595.166 19.83 2.803zm17.357.434v1.684h2.449v-1.684zm-81.163 2.43a5.41 5.41 0 0 1 .234 1.065c5.295-.411 3.944 5.283.57 5.478-.396.047.327 1.01 1.115 1.316 2.006.781 3.446.28 4.76-1.344 1.009-1.246 1.07-1.425 1.07-1.425l3.269 1.604s.093-.044-.484 1.345c-1.05 2.527.482 5.628 1.665 3.368.63-1.204 2.484-1.89 3.768-1.392 1.5.582 2.02 3.064.967 4.629-.319.472-.328.571-.132 1.01.294.658.476 2.354.168 2.9-.4.71-.861.872-1.762.293-1.233-.792-1.923-1.122-4.068-1.675-3.768-.657-4.505-1.885-6.003-4.755-4.462 1.238-11.139-1.354-10.25-7.492.406-1.355.517-3.955-.228-4.487-1.46-1.042.142-2.547 2.337-2.788 1.803-.166 2.671 1.417 3.004 2.35zm63.124-1.78 5.804 22.524c-6.37-2.162-12.623-3.85-18.156-2.595-2.534-3.747-4.694-5.59-7.505-8.025 5.476-6.118 12.439-9.54 19.857-11.903zm-65.67 1.105c-.375-.004-.8.146-1.242.51 0 0 .392.303.606.716.341.66.345.66-.041 2.123-1.77 5.867 2.429 9.75 8.4 8.054 1.467-.42 1.41-.374 1.834 1.222.696 2.627 2.7 3.983 6.685 4.482.245.03.653.104.977.287 1.753 1.037 1.034-.342.555-.877-.342-.419-.967-.835-.967-.835s.534-.32.784-.444c1.125-.552 1.544-2.715.616-3.18-.846-.423-2.287.216-2.291 1.02-.007 1.467-2.005 1.623-3.754.403-2.244-1.566-.256-5.511-.243-5.506l-1.265-.516c.168.139-2.665 3.868-6.151 2.568-2.434-.909-4.15-3.521-3.021-4.267.822-.204 1.808.215 2.433-.231 1.245-.905.24-2.493-1.537-2.434-.374.012-1.222.165-1.222.165.093-.74.298-1.26.198-1.972-.104-.714-.638-1.282-1.354-1.288zm83.734 1.712v1.387l2.424.014v-1.387zm-.025 2.86v1.429h2.449v-1.43zm0 3.08v1.463h2.449v-1.463Zm0 2.873v1.548h2.449v-1.548zm0 2.883v1.444h2.449v-1.444zm0 2.94v1.457h2.449v-1.458zm-79.62 1.424 2.061 3.227 2.45.099.096 2.217 4.165 2.95-3.64 2.41-.265 2.392-2.887.085-2.337 3.651-2.877-3.203-2.311-.344-.265-2.916-3.559-2.467 3.345-2.477.27-2.59 2.724.221zm135.52 1.543c.222.004.465.06.727.184.866.404 1.138.451 3.386.556 2.608.122 3.53.338 4.822 1.137.78.482.825.48 1.66-.033 3.66-2.248 7.842-.204 8.146 3.982.08 1.1.199 1.544.667 2.468.32.64.65 1.144.458 1.552-.587 1.246-3.407 1.327-4.944-.524-.275-.279-.554-.4-.936-.4-.763.262-2.716-1.162-2.694-1.223-.181.99-.272 1.778-.463 3.218l-3.416-.047s-.077-.58-.235-2.605c-.182-2.326-.806-3.007-1.609-1.75-1.38 2.164-5.052 1.213-5.264-1.363-.072-.874-.126-.987-.642-1.354-1.728-1.232-1.225-3.827.336-3.798zm-55.9.127v1.293h2.449v-1.293zm56.291 1.382c-.678.045-.292 1.161.83 1.75.637.335.639.333.555 1.36-.151 1.859 1.783 2.77 2.643 1.245.149-.264.213-.6.153-.826-.36-1.35 2.794-.982 3.553.416.175.32.37 1.175.464 2.038.09.817.112 1.764.112 1.764h1.008s-.012-.564.046-1.104c.25-2.31 1.352-3.77 2.84-3.765.636.003.659.107.215.868-.752 1.288-.028 2.221 1.726 2.232 1.112.007 1.108.009 1.522.74.454.805.798 1.06 1.222.911.299-.105.304.05-.087-2.694-.582-4.088-3.15-5.19-6.695-2.873-1.003.656-1.223.636-2.113-.16-1.334-1.194-2.178-1.467-4.786-1.557-1.242-.043-2.467-.156-2.719-.25a1.21 1.21 0 0 0-.489-.095zm-84.136 1.17c-.58.01-1.253.123-1.837.169.649 3.16.95 6.32 1.246 9.48 2.986-.481 6.853-.033 11.955 2.17 3.13 1.352 6.954 3.662 10.962 6.27 4.338 2.823 9.424 4.49 13.756 5.36 5.275 1.061 9.511.97 9.395.74-.233.036-1.901-7.751-1.683-9.416-7.296-.621-14.341-3.125-19.727-6.516-7.129-4.49-15.37-8.394-24.067-8.257zm27.845.265v1.311h2.449v-1.311Zm-80.364.26-3.875 3.74 4.216 3.7 3.58-3.77zm-.107 1.698 2.195 1.948-1.772 2.08-2.47-1.971zm54.632.306c.516.004 1.021.34 2.729 1.227 1.432.915 2.576 1.487 2.159.052.326-.414 1.913.931 3.783 1.778 2.254 1.674 2.263 1.27 2.555.44.303-.609.72-.197 2.52 1.348 2.367 2.032 2.155 2.034 2.628 1.53.54-.95.72-.94 2.648 1.112 2.004 2.073 2.428 2.515 2.856 1.628.66-.459 1.001-.013 3.722 2.354 1.338 1.237 1.653 1.045 1.904.213.259-.858.332-.665 2.591.995 2.616 1.94 2.875 2.083 2.984 1.41.173-1.066.983-.688 3.676 1.105 1.632 1.08 2.249 1.381 2.597 1.113.355-.582-.885-1.701 1.746-.646l.723 3.538-.911-.24c-.56-.148-1.786-.533-1.324.57.267.638-.395.562-2.439-.566-2.927-1.615-3.467-1.986-3.686-1.656-.387 1.21-.337 1.288-2.312-.146-2.297-1.614-2.759-2.06-3.08-1.51-.042 1.22-.683.972-2.826-.74-1.811-1.468-2.197-2.235-3.008-1.112-.223.39-.447.292-.746.089-1.054-.722-3.172-2.793-3.77-3.388-.471-.476-.74-.323-1.126.07-.361.367-.389.253-1.558-.74-2.793-2.374-3.312-2.967-3.702-2.642-.318.556-.014 1.313-2.158-.255-2.69-1.796-3.859-2.592-3.676-1.416-.462.527-.139.63-2.831-.75-2.56-1.311-2.884-1.705-3.254-1.255-.251.713-1.11.457-1.11.415l-.52-3.6.923.01s.886-.334 1.293-.335zm-20.534.302c-.205.557-1.617 3.768-1.635 11.941.17.193 3.5-2.952 3.661-5.883.154-2.778-2.02-6.066-2.026-6.058zm46.368.227v1.49h2.449v-1.49Zm-46.193 1.182c3.113 4.572-.318 8.884-1.173 9.189 0-3.437.546-6.668 1.173-9.19zm81.696 3.841c-5.118 2.988-4.287 11.075-1.776 13.146.185 0 1.797-8.735 1.776-13.146zm-.7.995-1.378 10.408c-1.79-1.837-2.107-7.31 1.377-10.408zm32.272 1.757 2.704 3.151 2.403.165.534 2.274 3.508 2.647-3.513 2.208-.31 2.52-2.612.245-2.587 3.77-2.53-3.695-2.424-.24-.076-2.425-3.808-2.605 3.635-2.024.071-2.74 2.846.009zm-95.745.986c-1.718 7.568-5.82 12.747-11.609 16.23l.03.764-9.75 3.623c-2.135 9.233-5.976 18.24-14.026 26.689l2.245 4.227-10.89 3.468 15.59 24.774c1.073 0-7.554 3.783-17.969 2.797 6.591 14.953 7.95 30.433 4.303 43.99l51.032-.198-39.001-70.915-.636-1.156c-.542-.926 20.732 2.772 16.216 21.056-.063.423.095.477.351.302 4.136-3.292 31.603-12.42 53.537-.368l6.517-2.5c-3.101 10.06-6.627 16.981-12.57 23.047l1.007 14.318c10.518-7.98 21.93-22.632 23.462-42.102 4.736-2.139 8.855-4.567 13.268-6.855l.586.174 2.856-1.59c-9.16-9.286-27.865-18.161-39.85-20.494l.707 3.147c-6.614-1.646-11.56-2.003-16.705-2.515l-.79-33.318-6.66-3.637-.208 36.752c-4.98.057-16.43 1.878-16.43 1.878l.514-3.142-5.244 1-.092-3.062 5.927-1.576 8.594-33.76zm.718.75 2.739.514-8.508 33.1s-4.772 1.223-5.066 1.053c-.38-6.207-.524-18.857-.524-18.857 8.396-6.486 9.711-11.078 11.359-15.81Zm-58.395 2.43c1.283-.015 2.662.849 2.75 1.627.22.48.403.687.748.732 2.147.274 2.215.801 2.276 1.948-.302 2.199 1.286.353 1.736-1.83.047-.228.02-1.897.02-1.897l2.628-.024s.09 1.743.127 2.02c.232 1.688 1.009 3.057 1.548 2.16 1.848-3.075 6.082-1.507 5.412 1.458-.164.701-.154.746.362 1.279.84.869 1.153 1.789.876 2.59-.271.782-.862.901-2.134.43-.598-.223-1.322-.302-3.258-.355-2.74-.074-2.91-.122-3.977-1.08l-.672-.604-1.16.632c-1.934 1.053-3.69 1.093-5.734.123-1.33-.632-2.104-2.145-2.311-4.506-.04-1.254-.42-2.162-1.258-2.462-.452-.395.052-1.18.825-1.897a2.18 2.18 0 0 1 1.196-.344zm153.198.358-3.61 4.17 4.292 3.558 3.997-4.355zm-83.617.6 5 2.65.641 32.847-5.652-.147.01-35.35zm-69.443.457c-.38.034-.141.6.137 1.463.25.772.314 1.251.235 1.788-.531 3.599 3.923 5.43 7.138 2.934.855-.907.995-.848 1.71.123.883 1.024 2.166 1.357 4.858 1.208 1.229-.069 2.043.539 2.576.136.386-.259.012-.945-.733-1.344-.456-.245-.472-.283-.382-1.128.228-2.13-1.668-2.694-3.014-.896-1.112 1.485-2.79.504-3.33-1.949-.321-1.887-.577-1.857-.82-.212-.262 2-3.105 4.17-4.24 3.185-.311-.29-.308-.218.01-1.222.41-1.29.081-1.77-1.436-2.105-.249-.054-.535-.247-.632-.424-.803-1.153-.768-1.557-2.077-1.557zm153.422.764 2.29 1.83-1.995 2.185-2.439-1.736zm-82.411 1.17V894.715h2.138v-1.552zm0 3.128v1.633h2.138v-1.633Zm12.881 1.878c2.397 8.247 4.813 16.487 7.22 24.731 2.28-.844 15.449-6.26 21.66-13.191-.237.017-5.647-4.884-7.541-8.063-6.211.949-13.346-.258-21.339-3.477zm-12.881.981v1.524h2.138v-1.524Zm14.23.415c5.661 1.565 12.911 3.722 19.587 2.624 1.722 2.866 4.214 5.226 7.027 7.402-5.053 5.093-12.36 8.978-19.918 11.97zm53.726.595c.284.001.573.102.85.33.896.738 1.586.993 3.417 1.27 2.948.444 5.196 2.15 5.834 4.425.268.955.416 1.007 1.884.665 5.563-1.297 9.852 2.977 8.528 8.68-.462 1.993-.604 2.231.041 3.02 1.414 1.413 1.721 1.431.173 2.675-1.41 1.174-4.208.606-4.801-1.297-.568-1.043-.559-1.122-1.492-1.26-3.63-.536-3.48-5.189-.06-5.727.285-.045.496.008.64-.052.971-.407-1.057-2.534-2.734-2.208-2.056.4-3.08 1.622-3.89 3.538l-3.238-1.712c.813-1.557 1.409-3.563.703-4.803-.57-1.046-1.291-1.086-1.512-.085-.519 2.356-3.68 3.06-5.753 1.142-1.16-1.072-1.295-2.222-.443-3.775.551-1.004.565-1.076.33-1.5-.815-1.475.289-3.333 1.523-3.326zm-67.956 1.915v1.59l2.143-.01-.005-1.58h-2.138zm68.353.132c-.658.005-.654.6-.046 1.322.54.508.646.741-.102 1.179-.937.805-1.141 2.016-.494 2.94.972 1.385 3.216.613 2.959-1.02-.18-1.145.79-1.658 2.337-1.226 2.247.627 3.317 2.953 2.433 5.298-.166.442-.498 1.472-.498 1.472l.664.373s.788-1.165 1.095-1.518c2.553-2.908 8.587-1.435 7.914 2.201-.103 1.143-.098 1.297-1.44.94-.892-.426-1.754.457-1.727 1.561.044.994.976 1.792 2.266 1.632 1.023-.177 1.28-.145 1.207 1.133.104.888.462 1.477 1.09 1.778 1.523.583 2.307-.22 1.089-1.4-.738-.716-.693-1.823-.23-2.86.555-1.24.266-3.967-.585-5.506-1.225-2.216-4.654-3.145-7.525-2.038-1.312.65-1.456.8-1.583-.34-.72-2.826-3.015-4.962-5.876-5.151-1.1-.073-2.246-.63-2.948-.77zm-68.353 2.888v1.467h2.143v-1.467zm0 2.868v1.619h2.138v-1.619Zm0 3.157v1.618s1.17-.03 2.138 0v-1.618zm69.835 2.594 2.342 3.209 2.591.16.306 2.59 3.93 2.27-3.406 1.976-.025 2.505-3.249.255-2.871 3.53-2.444-3.115-2.444.01-.575-2.779-4.328-2.033 4.44-2.345-.123-2.92 3.02-.02 2.836-3.293zm-69.835.383v1.66h2.138v-1.66zm0 3.043v1.641h2.138v-1.641zm68.521 1.222-3.355 4.137 4.52 3.463 3.596-4.185zm-68.521 1.656v1.797h2.138v-1.797zm68.867.217 2.332 1.67-1.665 1.958-2.316-1.637zm-68.867 3.104v1.505h2.138v-1.505zm-63.644.193c-4.122.018-8.021 6.205-8.956 9.134-1.104 3.753-1.268 10.542-.219 10.733 3.696-2.463 5.447-6.639 8.223-9.766.431 3.616.363 10.589.363 10.589s-1.643.8-2.529 2.066c-.64 1.052-.843 2.31-.298 3.48-2.054-.618-5.776.08-5.988 3.596.134 4.949 5.966 4.252 5.988 4.184-.124-.03-1.148 5.265 4.027 5.827 1.858.201 5.125-1.053 4.155-5.87 3.267.5 6.084-1.167 6.12-4.08.041-1.996-1.595-3.712-4.414-3.722-.588-.003-1.828.245-1.828.245.04-.288 1.129-3.386-2.663-5.633l-.596-14.329s1.309 1.322 1.894 1.822c2.52 2.149 4.165 3.231 7.072 4.651 2.83 1.383 2.48 1.042 1.991-1.585-1.337-3.945-4.132-6.926-10.045-10.653-.762-.48-1.533-.692-2.297-.689zm.408.307.83 20.265-1.227-.002-1.054-20.244zm121.32.67c.108-.004.22 0 .336.01 2.667.208 3.352 2.971 2.153 4.198-.474.486-.638.59-.392.887 1.145 1.344.506 3.467-.626 3.794-3.6 1.037-4.145-.788-4.134-2.935l-5.56-.193.035-3.001 6.13.113c-.462-1.363.424-2.815 2.057-2.873zm-123.897.033a.42.42 0 0 1 .067 0c.576.045-.017 1.472-1.625 3.647-1.086 1.47-2.597 4.063-3.05 5.11-.99 2.29-1.656 6.396-.992 5.642.598-1.717.656-2.432 1.17-3.666.678-1.61 3.84-6.9 4.466-7.421.536-.446.674-.172.662 1.316-.028 3.352-1.742 6.879-5.83 11.007-.681.688-1.59 1.44-1.655 1.44-.393-.002-.383-.761-.376-2.355.026-6.332 2.563-11.986 6.466-14.418.305-.19.536-.289.697-.302zm4.14.293c1.793.486 5.012 3.153 6.339 4.524 1.536 1.537 3.595 5.79 3.233 6.445-.12.287-.38.242-1.278-.227-5.707-2.976-9.793-6.645-8.722-7.832.3-.331 1.525.352 3.167 1.765 1.116.917 2.258 1.848 3.279 2.779 1.603 1.463 1.964 1.678.998.052-.868-1.46-3.328-3.911-6.303-5.992-1.21-.846-1.485-1.528-.713-1.514zm120.108.853a.594.594 0 0 0-.199.033c-1.123.439-.666 1.787-.774 2.822l-6.17-.198-.036.792 5.789.293c.102.809-.353 2.554.392 2.85 1.62.624 2.505-1.31 1.13-2.473-.49-.403-1.02-.582.341-1.151.897-.71 1.037-2.097.27-2.713a1.247 1.247 0 0 0-.743-.255zm-78.073.236-.31 2.119-3.58.835-.092-2.265zm42.213.75c13.215 3.299 27.904 10.787 37.443 19.245l-1.91 1.16c-9.91-8.483-22.985-14.923-34.998-18.121zM107.73 927c21.76-.056 41.598 7.783 57.605 20.443l-2.617 1.528c-14.601-11.184-30.778-18.643-52.544-19.532-14.226-.581-30.46 2.8-46.46 10.955l-1.19-2.005c15.539-7.851 30.794-11.352 45.206-11.389zm-1.71 3.038 8.558.232-.53 7.364-7.779-.236zm-9.206.524 1.207 7.105-7.449 1.288-2.113-7.124zm27.092.939 8.503 2.1-2.806 7.241-7.464-1.972zm-13.62.104c-1.35 0-2.444 1.014-2.444 2.264 0 1.251 1.094 2.265 2.444 2.265 1.35 0 2.444-1.014 2.444-2.265 0-1.25-1.094-2.264-2.444-2.264zm0 .783c.9 0 1.63.661 1.63 1.481 0 .82-.73 1.486-1.63 1.486-.9 0-1.63-.666-1.629-1.486 0-.82.73-1.481 1.63-1.481zm-16.883.014c-1.35 0-2.444 1.014-2.444 2.265 0 1.25 1.094 2.264 2.444 2.264 1.35 0 2.444-1.014 2.444-2.264 0-1.251-1.094-2.265-2.444-2.265zm0 .783c.9 0 1.63.662 1.63 1.482s-.73 1.486-1.63 1.486c-.9 0-1.63-.666-1.63-1.486s.73-1.482 1.63-1.482zm33.66.91c-1.35 0-2.444 1.015-2.444 2.265 0 1.251 1.094 2.265 2.444 2.265 1.35 0 2.444-1.014 2.444-2.265 0-1.25-1.094-2.264-2.444-2.264zm-47.382.265 2.52 6.93L74.988 944l-2.704-6.846zm47.382.519c.9 0 1.63.661 1.629 1.481 0 .82-.729 1.486-1.63 1.486-.9 0-1.628-.666-1.629-1.486 0-.82.73-1.481 1.63-1.481zm14.134 1.66 7.652 3.747-3.956 6.624-7.133-3.444zm-64.072.6c-1.35 0-2.443 1.014-2.443 2.264 0 1.251 1.094 2.265 2.443 2.265 1.35 0 2.444-1.014 2.444-2.265 0-1.25-1.094-2.264-2.444-2.264zm28.91.217.356 6.996-6.776.444-1.233-6.954zm8.131.368 7.724.99-1.818 6.738-6.99-1.043 1.084-6.685zm-37.04.198c.9 0 1.629.661 1.629 1.481 0 .82-.73 1.487-1.63 1.486-.9 0-1.629-.666-1.629-1.486s.73-1.481 1.63-1.481zm25.304.906c-1.35 0-2.444 1.014-2.444 2.264 0 1.251 1.094 2.265 2.444 2.265 1.35 0 2.444-1.014 2.444-2.265 0-1.25-1.094-2.264-2.444-2.264zm-12.342.283 2.001 6.808-7.449 1.977-2.286-6.549zm27.041.108c-1.35 0-2.444 1.014-2.444 2.265 0 1.25 1.094 2.264 2.444 2.265 1.35 0 2.444-1.014 2.444-2.265 0-1.25-1.094-2.265-2.444-2.265zm-14.699.392c.9 0 1.63.661 1.63 1.481 0 .82-.73 1.486-1.63 1.487-.9 0-1.63-.667-1.63-1.487 0-.82.73-1.481 1.63-1.481zm14.7.392c.9 0 1.629.661 1.629 1.481 0 .82-.73 1.486-1.63 1.486-.9 0-1.629-.666-1.629-1.486s.73-1.481 1.63-1.481zm26.139.014c-1.35 0-2.444 1.014-2.444 2.264 0 1.251 1.094 2.265 2.444 2.265 1.35 0 2.444-1.014 2.444-2.265 0-1.25-1.094-2.264-2.444-2.264zm-13.223.66 7.464 2.364-2.978 6.463-7.143-2.519zm13.223.123c.9 0 1.63.661 1.63 1.481 0 .82-.73 1.486-1.63 1.486-.9 0-1.63-.666-1.63-1.486s.73-1.481 1.63-1.481zm-56.149.24c-1.35 0-2.443 1.014-2.444 2.265 0 1.25 1.094 2.265 2.444 2.265 1.35 0 2.444-1.014 2.444-2.265 0-1.25-1.094-2.264-2.444-2.265zm0 .784c.9 0 1.63.661 1.63 1.481 0 .82-.73 1.486-1.63 1.486-.9 0-1.63-.666-1.63-1.486s.73-1.481 1.63-1.481zm45.223 1.32c-1.35 0-2.444 1.014-2.444 2.265 0 1.251 1.094 2.265 2.444 2.265 1.35 0 2.443-1.014 2.443-2.265 0-1.25-1.094-2.264-2.443-2.264zm0 .784c.9 0 1.629.661 1.629 1.481 0 .82-.73 1.486-1.63 1.486-.9 0-1.629-.666-1.629-1.486s.73-1.481 1.63-1.481zm-87.431.788c1.953.076 3.418 1.702 3.507 3.393.067 1.286-1.702 2.968-1.702 2.968l-2.06-1.766-1.978 1.688c-.334.103-1.87-2.318-1.401-3.57.611-1.63 1.87-2.782 3.634-2.713zm110.974 0 5.91 4.482s-2.594 1.461-3.074 1.722c.058-.195.086-.401.086-.614 0-1.25-1.094-2.264-2.444-2.264-1.35 0-2.444 1.014-2.444 2.264 0 1.073.809 1.974 1.89 2.208-.608.324-1.416.741-1.416.741l-3.121-2.425zm-9.359 11.978-2.615.995c-16.096-9.797-38.116-15.159-63.288-5.293l-.866-1.934c18.687-7.21 42.263-9.456 66.77 6.232zm-1.43-9.79 6.334 3.6-4.023 5.723-6.186-3.665zm-1.915 11.097-2.657.925c-19.648-11.697-40.59-11.074-59.3-4.062l-.29-1.643c22.033-8.84 44.145-6.027 62.247 4.78zm13.182-9.176c.9 0 1.63.662 1.63 1.481 0 .82-.73 1.487-1.63 1.487-.9 0-1.63-.667-1.63-1.487 0-.82.73-1.481 1.63-1.481zm-114.32 2.683-2.185 2.042 1.995 2.077s-.633.496-1.092.728c-2.614 1.318-5.475-.764-5.338-3.013.199-3.278 4.46-4.84 6.62-1.834zm103.964-1.565c-1.35 0-2.444 1.014-2.444 2.265 0 1.25 1.094 2.264 2.444 2.264 1.35 0 2.444-1.014 2.444-2.264 0-1.251-1.094-2.265-2.444-2.265zm-95.12.092c1.944.014 3.455 1.398 3.641 2.989.15 1.27-.563 2.488-2.098 3.35-2.084 1.172-4.504-.724-4.462-.84l1.756-1.61-2.112-2.002c-.061-.037 1.394-1.9 3.275-1.887zm-6.083.39 3.6 3.326-3.809 3.288-3.528-3.284zm94.93 8.85-2.02.859-2.755-1.538-.815 1.448 1.533.901-1.594.554c-18.358-9.557-39.1-6.788-52.889-.446 0 0 .12-.984.127-.984l1.5-.709-.56-1.76-.804.217-.06-1.948c19.687-8.214 42.026-6.333 58.337 3.406zm6.273-8.549c.9 0 1.63.662 1.63 1.482s-.73 1.486-1.63 1.486c-.9 0-1.63-.666-1.63-1.486s.73-1.482 1.63-1.482zm-101.28 1.19-1.92 1.768 1.91 1.888 1.864-1.826zm60.09.39-2.515.105.132 1.9 2.454-.056zm1.716.01.046 1.902 2.28-.01-.01-1.877-2.316-.015zm4.048.033-.112 1.892 2.265.095.163-1.883zm-9.776.24-2.576.26.285 1.911 2.439-.264zm13.996.03-.183 1.952 2.327.246.316-1.868zm-70.063.009 1.12 1.104-1.115 1.028-1.187-1.076zm51.724.58-2.485.363.265 1.968 2.424-.444zm22.54 0-.413 1.821 2.312.514.377-1.859zm-26.613.797-2.088.515.453 1.915 2.205-.5zm30.58.076-.439 1.85 2.358.594.473-1.774zm-34.027.92-2.184.717.565 1.774 2.22-.694zm38.084.203-.728 1.778 2.042.76.9-1.614zm-41.689 1.042-2.072.788.855 1.76 1.965-.83zm-42.713.055 2.098 1.94 2.493-2.083c2.175 1.782 2.14 5.95-1.71 6.645-3.362.608-6.438-4.056-2.88-6.502zm88.144.375-.799 1.632 2.255.92.78-1.571zm-64.336 10.473 28.462 44.825-4.501-.08-27.545-43.315zm-4.672 1.708 1.574 2.265c-3.082-2.273-7.612-.36-7.42 2.505.15 1.28 1.318 2.058 1.323.826-.14-1.288 1.83-2.41 3.259-2.35 2.637.032 4.249 3.173 2.428 4.737-1.197 1.022-2.817.976-2.27-.425.086-.483.043-.66-.204-.868-.757-.64-2.153.194-1.813 1.109.224.601.29.75-.488 1.245-3.018 1.964-.915 5.835 2.739 4.072.747-.25 1.05-.286 1.39-.165 1.52.542 2.557-.681 1.115-1.316-.838-.37-.86-1-.051-1.5 1.725-1.069 4.413.6 4.404 2.736-.007 1.51-2.158 2.628-4.22 2.189-1.227-.261-1.374.508-.25 1.307 2.177 1.546 5.436.264 6.41-2.52.306-.875.262-1.059.262-1.059l2.904 4.443s-.901-.394-1.445-.548c-2.734-.774-5.8.87-5.81 3.113-.005 1.058.67 1.467 1.05.637.88-1.93 2.794-2.682 4.76-1.868 1.818.753 2.65 2.46 1.94 3.982-.744 1.594-3.24 2.064-2.959.557.135-.718-.338-1.157-1.17-1.085-.316.027-.72.875-.612 1.283.102.381.03.474-1.038 1.245-2.537 1.833-.586 4.826 2.581 3.959.532-.146.73-.133 1.207.08 1.145.511 2.348.193 2.352-.623.002-.56-.27-.776-.988-.778-1.085-.004-.85-1.142.352-1.699 3.013-1.395 6.091 2.128 4.256 4.874-.788 1.18-1.286 1.301-4.104 1.014-.454-.046-.66.242-.389.585.834 1.095 3.313 1.441 4.757.835 1.559-.654 2.509-2.304 2.619-4.064l3.184 5.153c-2.477-2.4-6.75-1.482-7.436 1.954-.004.872.853 1.325 1.15.609 1.288-3.102 6.185-2.15 6.171 1.198-.002.54-.116.844-.489 1.317-.899 1.606-3.196 2.002-2.78.561.185-.446-.182-.93-.814-1.071-.622-.138-1.019.345-1.003 1.222.011.657.016.857.016.857-1.145.448-1.877 1.324-2.131 2.62l-22.294.047c2.651-14.318 2.028-27.248-3.04-39.474-.437-1.06-1.066-2.602-1.066-2.602l3.934.096c.95.763 4.537.467 5.938-.712zm3.785 5.622 2.303 3.833c-.953-.506-1.923-.842-3.406-.958.774-1.064.835-2.018 1.103-2.875zm-6.052 4.073c.839 0 1.517.63 1.517 1.406 0 .778-.678 1.406-1.517 1.406-.84 0-1.523-.628-1.523-1.406 0-.777.684-1.406 1.523-1.406zm15.875 11.45 2.217 3.657c-1.078-.426-1.99-.842-3.676-.883.613-.664 1.144-1.778 1.459-2.775zm-6.395 3.917c.795 0 1.44.598 1.44 1.335s-.645 1.33-1.44 1.33c-.795 0-1.436-.593-1.436-1.33 0-.737.64-1.335 1.436-1.335zm16.067 11.4 3.274 5.38c-1.288-.682-2.674-1.548-4.413-1.382.827-1.639 1.279-2.532 1.139-3.999zm-4.356 6.713-3.512.012c.702-2.845 3.541-2.106 3.512-.012zm3.323-1.37c1.194.055 2.225.434 2.87 1.399l-4.42.01s.032-1.415 1.55-1.41z"/></g></g></svg>