<svg xmlns="http://www.w3.org/2000/svg" width="234" height="333"><g transform="translate(0 -719.362)"><rect width="233.244" height="332.244" x=".378" y="719.74" fill="#fff" stroke="gray" stroke-width=".756" rx="8.919" ry="8.946"/><g aria-label="Q" font-family="Levenim MT" font-size="3.772" font-weight="700" letter-spacing="0" style="line-height:0%;-inkscape-font-specification:&quot;Sans Bold&quot;" word-spacing="0"><path d="M32.313 622.413H27.54l-1.868-2.4q-2.315 1.265-5.16 1.265-4.687 0-7.878-3.206-3.177-3.22-3.177-7.906 0-3.004 1.452-5.549 1.452-2.544 4.054-4.053 2.558-1.495 5.505-1.495 4.6 0 7.777 3.277 3.177 3.278 3.177 7.892 0 4.298-2.79 7.417zm-4.916-12.204q0-2.961-1.97-5.06-2.012-2.142-4.959-2.142-3.062 0-5.017 2.085-1.94 2.07-1.94 5.146 0 3.507 2.515 5.548 1.97 1.596 4.47 1.596 1.438 0 2.703-.56l-3.78-4.874h4.8l1.898 2.459q1.28-1.898 1.28-4.198z" font-size="29.439" style="line-height:1.25" transform="scale(.82383 1.21385)"/></g><g aria-label="Q" font-family="Levenim MT" font-size="3.772" font-weight="700" letter-spacing="0" style="line-height:0%;-inkscape-font-specification:&quot;Sans Bold&quot;" word-spacing="0"><path d="M-251.727-837.182h-4.773l-1.868-2.4q-2.315 1.264-5.16 1.264-4.687 0-7.878-3.205-3.177-3.22-3.177-7.906 0-3.004 1.452-5.549 1.452-2.544 4.053-4.053 2.56-1.495 5.506-1.495 4.6 0 7.777 3.277 3.176 3.278 3.176 7.892 0 4.298-2.788 7.417zm-4.916-12.204q0-2.961-1.97-5.06-2.012-2.142-4.959-2.142-3.062 0-5.017 2.085-1.94 2.07-1.94 5.146 0 3.507 2.515 5.548 1.97 1.596 4.47 1.596 1.438 0 2.703-.56l-3.78-4.874h4.8l1.898 2.458q1.28-1.897 1.28-4.197z" font-size="29.439" style="line-height:1.25" transform="scale(-.82383 -1.21385)"/></g><path d="M12.899 780.702c0-.556-.031-.958-.031-1.514h3.545v-2.737c-2.244.072-4.673.24-6.774-.687-1.627-.893-2.076-2.97-1.748-4.68.281-1.927 1.353-3.638 2.75-4.957 1.82-1.946 4.14-3.26 6.562-4.316 2.472 1.075 4.843 2.431 6.685 4.428 1.66 1.56 2.765 3.764 2.731 6.071.036 1.665-.995 3.425-2.697 3.789-1.904.527-3.83.434-5.785.352v2.737h3.353c0 .556.03.958.03 1.514a669.463 669.463 0 0 0-8.621 0zM212.488 991.022c0 .556-.031.958-.031 1.514h3.545v2.737c-2.244-.072-4.673-.239-6.774.687-1.627.893-2.076 2.971-1.748 4.68.28 1.927 1.352 3.639 2.75 4.957 1.82 1.946 4.14 3.26 6.562 4.316 2.472-1.075 4.843-2.431 6.685-4.428 1.66-1.56 2.765-3.763 2.731-6.07.036-1.666-.996-3.426-2.697-3.79-1.904-.527-3.83-.433-5.785-.352v-2.737h3.353c0-.556.03-.958.03-1.514-2.632.019-5.778.019-8.621 0zM50.016 804.63c0-1.111-.061-1.915-.061-3.027h7.089v-5.474c-4.488.145-9.345.478-13.548-1.374-3.253-1.786-4.15-5.942-3.495-9.359.562-3.855 2.705-7.278 5.5-9.915 3.639-3.892 8.279-6.519 13.123-8.632 4.945 2.15 9.687 4.862 13.371 8.856 3.319 3.119 5.53 7.527 5.462 12.141.072 3.331-1.991 6.851-5.395 7.578-3.807 1.055-7.66.868-11.57.705v5.474h6.706c0 1.112.062 1.916.062 3.028-5.265-.037-11.558-.037-17.244 0zM166.757 967.094c0 1.112-.062 1.915-.062 3.027h7.09v5.474c-4.488-.144-9.345-.478-13.548 1.374-3.253 1.786-4.151 5.942-3.495 9.36.561 3.854 2.704 7.278 5.5 9.914 3.638 3.892 8.278 6.519 13.123 8.633 4.944-2.15 9.686-4.863 13.37-8.857 3.32-3.119 5.53-7.526 5.463-12.141.072-3.331-1.992-6.851-5.395-7.578-3.808-1.054-7.661-.867-11.57-.705v-5.474h6.706c0-1.112.061-1.915.061-3.027-5.264.037-11.557.037-17.243 0z"/><g stroke-width="3.181"><path fill="#e2cf00" d="m106.821 1012.357 24.767-41.552c-.003.01 5.972 2.124 12.96 3.81-6.74 16.123-.118 37.418-.118 37.418s-37.628.289-37.609.324zm-67.715-71.188c-1.372-17.679-1.384-34.756 1.797-48.898.059-.226-8.81-4.973-7.89-5.514 1.407-.83 18.913-9.216 18.913-9.216s1.18.622 2.2.528c.796-.073 1.543-.74 1.236-1.453-.728-1.687-2.024-5.885-1.234-10.107.455-2.426 1.885-5.095 3.367-6.727 3.303-3.64 10.823-1.702 13.011-1.759 1.39-.036 5.613-13.578-1.068-16.103-1.84-.695-6.086 8.546-3.152 10.627.442.313-5.902-3.095-10.763-5.13-.45-.189-2.434-1.603-2.877-3.466-.554-2.325 7.467-6.783 5.899-9.405-2.285-3.82-8.194-9.536-10.73-7.974-2.4 1.993-8.12 6.062-8.087 8.854 1.775 5.007 6.31 5.362 8.685 10.1.593 1.025 4.969 5.332 4.969 5.332-1.65 2.32 1.005 6.381 1.13 5.76l-20.752-8.382s4.698 33.059-.339 37.942c-.533.517 4.45-1.29 4.534-1.007 1.51 1.77 18.265 11.637 23.06 15.181 8.546-10.958 11.669-15.78 22.676-25.496 2.415-1.835 7.798-5.186 10.88-9.217 2.477-3.24 3.508-6.89 3.07-9.726-.567-3.667-.916-6.177-3.363-9.103-5.653-6.759-14.653-13.212-14.494-13.329l3.084-2.306s11.1 8.498 15.794 14.742c3.164 4.207 1.732 9.023 4.464 9.89.658.208 5.15-.13 6.623.133.179.032 32.657 21.26 26.76 22.472-8.166 1.677-21.18.553-21.18.553-9.276-8.383-13.756-11.142-19.299-8.529 0 0-14.055 11.304-22.171 20.158-4.626 5.047-8.491 11.365-11.587 15.429-1.193 1.565-16.07-11.67-15.922-10.086 2.187 14.384 3.417 31.71 1.68 43.453-1.194 9.975-2.824 20.687-3.56 29.887 0 0 2.502-.666 4.408-.038 1.03.34 1.777 1.222 1.865 2.202.548 4.381-5.563 3.355-5.705 2.975.007-.004 3.4 6.763 3.4 6.763s-5.312 8.418-5.164 8.052c.091-.227-4.799-7.488-4.799-7.488s3.732-6.057 4.202-7.318c.282-.757-5.373 2.5-5.8-2.231-.43-4.77 6.173-3.48 5.875-2.895-.778-9.778-2.537-19.89-3.646-28.13zm79.576 22.124c.146-.1-14.043-5.279-27.087-4.814-4.592-1.658-12.084-3.397-17.092-.329-5.62-3.523-10.469-7.399-15.396-11.24 1.382-.014 6.616-30.722 10.022-41.418-1.485-13.295 12.397-13.263 13.582-2.614 14.927 14.288 33.21 29.071 52.056 43.618-3.013 5.74-13.86 10.102-16.085 16.797zm32.873-93.977c-17.019-16.062-52.646-44.785-52.646-44.785l16.732-15.011c8.762 2.424 17.769 4.453 27.954 4.564.04.037 11.153 4.686 17.088.015l15.397 11.295s-6.453 31.016-10.229 41.839c.072 4.29-1.697 9.51-6.292 10.28-3.923.656-6.93-4.478-8.004-8.197zm34.53-37.089c1.797-10.083 2.178-17.424 3.434-29.19-7.694 2.066-7.571-7.495-.023-4.968l-3.488-7.124 5.2-8.009 4.746 7.622-4.111 6.743c8.518.4 6.449 7.691-.884 5.918 1.362 11.275 4.386 22.668 4.218 33.812 2.602 17.877-3.325 42.738-2.353 43.33l8.298 5.283-1.493 38.884-13.109-5.324-3.91 2.423c1.25 2.29 2.84 4.487 3.374 6.974 0 0 9.022 6.87 7.764 9.003.581.316-6.446 8.865-8.504 8.648-3.928-.413-8.514-5.096-9.765-8.429-1.102-3.351 8.125-6.62 6.966-9.072-1.385-2.933-4.895-4.349-8.006-5.215-4.29-1.195-6.248-4.333-6.445-4.333 0 0-1.691 12.426-3.296 11.43-6.453-4.008-2.01-16.683-.812-16.328 0 0 2.82.603 6.153.897 11.741 1.154 10.971-12.165 8.707-18.615-.568-1.53.325-1.54.262-1.56-.545-.174 1.9-.045 3.975-.605 5.705-1.541 14.452-6.878 14.452-6.878-9.17-4.71-17.262-10.081-24.521-15.173 0 0-6.768 10.61-14.78 17.963-5.832 5.354-6.783 7.178-16.54 14.068-.19.134-7.4 8.057-3.991 17.327 2.917 7.933 16.992 16.538 16.888 17.11l-2.78 2.44c.113.143-19.925-11.51-19.434-24.006-.022-.472-9.116-.65-9.116-.65l-26.39-22.637 22.392-.053 11.48 8.679 7.183.355c.469.382.733-1.749 7.068-6.091 12.104-8.297 27.121-29.628 27.121-29.628s15.819 10.3 15.834 10.301c-.763-15.43-3.428-32.026-1.764-45.322zm-57.524-73.006s-16.51 28.483-25.56 41.899l-12.777-3.402c5.381-13.103.3-38.102-1.047-38.733z"/><path fill="#131f67" d="m30.386 757.403.486 256.742 172.742.176-.011-256.64zm119.707 186.246c8.208-7.01 16.325-12.796 23.912-16.998 2.942-1.63 3.834-1.868 4.987-.897 1.88 1.584 3.05 2.961 2.433 4.067-.139.25-.583.663-.583.663l-4.524-1.596 1.458 4.74c-4.077 1.524-4.011 5.59-.084 7.751l-2.716 5.739 6.293-2.543c.239 1.252 4.717 4.286 7.515.013l5.674 2.566-1.945-6.418c1.868-1.636 2.96-4.254.032-6.673l1.36-5.023-5.132 1.532c-1.282-1.623-2.028-1.513-2.323-1.955-.086-.604-.1-2.011-.95-3.31-.703-1.073-1.508-2.213-2.26-3.012-.399-.624-.08-.676 1.97-1.695a26.366 26.366 0 0 0 1.76-.963s10.084 4.688 14.198 6.473l.071 86.024-55.362-.238c-6.194-17.157-1.693-31.97-.031-38.205-2.903-.228-17.867-4.726-18.312-6.267 5.947-8.684 14.012-16.57 22.559-23.775zM42.318 968.504c-7.217-2.163-7.305 5.86-3.617 6.487.956.163 1.955.297 3.452-.146.37.071-4.338 6.719-4.338 6.719s3.748 6.308 5.545 8.989l5.703-9.299-3.705-6.447c5.816 2.746 8.845-5.4 2.735-6.476-1.477-.188-3.11.491-3.11.491l3.267-27.875c2.588 1.628 7.308 4.893 7.308 4.893 1.047 15.362.234 28.163 9.5 50.526l.066 15.55-31.956-.052.03-81.184 5.585 3.701c.119.46-.891.15-.357 5.801.483 5.105 2.15 13.958 3.892 28.322zM157.45 759.992c.255.333.235.843.454 1.52 1.285 3.978 5.772 8.76 9.353 10.02 1.254.442 1.74 1.11 1.014 1.778-.917.843-4.69-1.473-7.472-4.474-2.527-2.724-4.211-4.978-4.582-6.687-.22-1.014-.33-1.666-.165-2.193.465-.591 1.04-.426 1.398.036zm4.47-.423c.473-.001 1.109.514 1.49 1.451.916 2.253 2.355 3.938 4.608 5.398.598.387.834.966.53 1.303-.113.125-.26.187-.426.23-1.76.45-6.383-4.503-6.746-7.573-.079-.667.175-.808.543-.81zm5.763.07c.936-.002 1.381 1.8.837 2.743-.354.297-1.129-.164-1.815-1.347-.59-1.018-.352-1.392.978-1.396zm-3.135.024c.21-.006.643-.108.862.174.357 1.862 1.876 3.212 3.088 4.292.203.353.297 1.092-.15 1.284-1.064.433-4.259-2.93-4.277-4.873-.006-.585.188-.87.477-.877zm-4.065 1.173c1.116 3.4 3.829 6.176 6.26 7.619 1.737 1.024 2.408 1.606 1.6 2.126-.2.13-.403.228-.45.222-4.072-1.442-9.07-6.894-9.23-10.747.889-1.047 1.67.129 1.82.78zm-14.127 14.727c-2.143 0-4.767.445-6.9 1.334-2.967 1.237-3.712 2.061-3.28 2.36.31.212 2.22-.54 3.178-.654 5.165-1.17 8.718-1.454 12.08-.096 2.6 1.051 2.616.57.873-1.174-1.264-1.266-3.523-1.769-5.951-1.77zm18.194 2.641c1.708-.013 3.452.358 4.07 1.094.478 2.38-.807 1.29-1.843.815-1.497-.64-3.213-1.195-4.816-.97-1.03.144-1.059.096-.474-.208.88-.492 2.128-.72 3.063-.73zm-20.24.894c-4.884.342-6.579 2.618-9.736 4.963-1.297.907-1.003 1.61.576 1.375 1.948-.292 2.734-.22 5.39.622 2.899.918 4.977 1.3 6.573.738 3.017-1.064 2.757-.887-1.56 2.958-2.31 1.706-1.379 1.617.96.141 1.729-1.27 2.918-2.079 3.28-2.776.175-.339.193-1.553.518-1.552 1.097.002.534-1.262-.462-1.8-.654-.43-.507-.88.343-1.707 1.333-1.29.881-1.874-.565-1.072-.255.127-.38-.268-1.26-.76-1.394-.78-2.57-1.143-4.057-1.13zm3.517 1.697c1.179.918.673 1.171-1.902 1.144-2.177-.022-4.03.186-6.618.973-2.937.894-3.117.916-1.39-.437 2.376-1.862 7.2-3.726 9.91-1.68zm15.255-.767c1.185-.021 2.184.135 3.085.595 2.458 1.256 3.003 2.341.267 1.453-1.717-.558-4.037-.484-5.642-.076-1.656.42-1.942.569-1.716-.255.277-1.01 2.032-1.68 4.006-1.717zm-19.351 3.66c.578 2.698 2.796 1.82 3.018.193l.81.004c-.349 2.165-3.547 3.972-4.78-.197.262-.006 1.422.07.952 0zm17.678.075.601-.017c.392 2.068 2.473 2.748 3.383.163l.727.015c-.565 4.312-5.507 2.203-4.71-.161zm-19.375.17c.4.131.58 1.142.512 1.409-.14.552-2.095-.04-2.509-.58.41-.4 1.376-1.032 1.997-.829zm26.615.502-.007.755c-.903.199-1.28.666-2.123.511.049-.482-.038-1.145.453-1.707.616-.3 1.348.07 1.677.441zm-19.713.842c-.41.297-.973.328-.973.328-.087-.723-.218-1.536.759-1.541.641.174.595.906.214 1.213zm11.275-1.181c.343.023.744.812.79 1.27-.102.755-2.113.45-2.111-.3 0-.316.842-.97 1.32-.97zm-18.467 28.526c-1.552-.719-13.318-7.343-16.312-19.027l-.602 1.193c1.274 2.799 3.152 7.344 3.152 7.344-.079-.392.475 3.043 1.664 8.875-.637.006-1.34-.162-2.031-.334-1.544-5.34-1.903-9.525-3.198-14.75l-.57 1.458s1.622 9.375 2.726 13.04c-.635-.056-1.804-.3-1.804-.3-.919-3.954-1.63-6.606-2.493-10.572l-.803.957c1.144 3.256 1.587 6.166 2.16 9.283-.79-.11-1.584-.182-2.336-.57 0 0-1.178-5.687-1.335-5.77-.454.42-.641.962-.641.962-.048-.052 1.024 3.153.945 4.472-.756-.117-2.067-.468-2.992-.756-.484.296-.737.79-1.11 1.235.452 1.81 27.467 5.77 25.85 4.27-.01.157 11.905 4.836 18.568.887 0 0 11.56 7.94 16.075 11.111 0 .36 1.563 2.041 3.19 3.111l4.577 3.264c1.33.957 1.864.267 2.07-1.53.229-2.002 1.83-15.492 2.204-18.367 1.394-9.69 1.392-9.586-.204-9.143-2.44.678-4.633-.212-4.629-2.514.003-1.408.711-2.574 2.338-3.116.462-.145 1.064-.157 1.755-.144.315.054.9.09.961.101.777-.039-2.995-6.367-2.995-6.367s3.627-5.94 5.37-8.153l4.665 7.834-3.845 6.897c7.465-.505 6.718 8.151-.583 5.24 0 0-.048 2.572-.033 2.384.071-.736.062-1.365.314-1.503 7.074 2.487 8.534-7.037.905-6.61 1.26-2.017 2.662-4.102 3.97-6.326l-5.496-9.286-6.25 9.554 3.125 5.976c-.704-.17-1.27-.068-2.026.002-4.619.865-3.64 7.724 1.64 6.79.603-.107 1.51-.527 1.51-.527l-3.46 28.005s-.336.25-1.702-.66c-1.577-1.053-4.88-3.339-5.09-3.573 1.216-17.906-3.602-36.754-9.122-48.56-.35-.905-.108-18.67-.108-18.67l31.425.126-.04 82.509c-1.641-.963-3.415-2.229-5.103-3.331-.505-.38-.819-.828-.6-1.55-.558 1.097-.223 1.568-.223 1.568l6.93 5.127-.43 81.2s-11.192-5.346-18.084-7.928c-3.11-1.177-3.25-.84-3.25-.84.01-.005 2.19 4.558 1.564 5.38 1.48 1.317 3.967 4.074 4.083 6.768 1.326 1.063 1.698 1.196 2.691 2.724l4.165-1.382-.952 4c4.42 2.868.151 6.708-.668 6.352 0 0 1.946 3.87 2.388 5.632-.699-.045-4.2-1.805-5.177-2.222-2.548 4.609-6.83.73-6.864.05l-4.761 1.947 1.694-4.995c-3.061-1.724-5.126-4.328-.167-7.12l-1.136-3.9 4.072 1.484s.762-1.126 1.341-1.947c-1.512-6.126-11.535-4.984-14.743-10.497 0 0-.804 6.874-1.619 9.361-.329 6.576-5.309-.085-5.295-7.041.003-1.571 2.152-6.853 2.877-7.109.754-.095 7.9 3.107 12.71-.055 2.19-2.096 5.974-7.994 2.368-17.245-1.195-2.138 2.284-2.403 3.412-1.68 0 0 10.463-5.029 15.187-7.452-7.909-4.027-24.35-14.734-24.338-15.24-2.202 3.213-4.723 5.907-8.267 10.451-5.744 6.219-10.236 12.13-17.52 17.096-10.242 6.857-12.658 13.772-9.82 21.9 1.148 3.511 3.466 7.076 7.272 8.314 1.933 1.81 9.701 8.62 9.701 8.62-13.01 10.895-21.946 19.857-28.22 29.767 5.275 2.57 18 6.302 18 6.302-4.756 14.497-2.625 26.022.47 37.592 0 0-36.96-.016-56.138-.603-.165.149-2.24.044-2.267-.078-.073-1.294 3.463-4.843 4.519-4.345.532-.482 1.656-.726 1.455-1.32-2.645-.295-6.668 3.918-6.83 5.663l-1.579-.002c-.323-.261 2.878-7.123 9.267-7.66-.067.247.858-.533.165-.868-7.448.802-10.93 8.421-10.71 8.526l-1.151-.002c2.546-7.495 9.143-9.85 12.959-10.17.037-.015 1.238-.399.917-1.056-8.434 1.338-12.644 4.699-14.683 11.224l-1.52-.002c1.11-6.62 8.502-12.41 16.845-12.207.261-.153.581-.332.447-1.085-9.262.948-13.884 3.792-17.702 11.125-3.388-8.156-12.837-12.039-12.95-12.073 0 0-.223-2.282.305-2.187 8.062 2.708 11.154-3.75 10.824-7.507-.184-2.09-.055-3.242-.807-6.255-.67-2.688-1.166-4.499-1.11-5.665.055-1.154.447-1.387 1.372-1.772 1.73-.72 2.818-3.338 2.434-3.66-.892 1.905-3.241 2.23-4.326 3.508-.866 1.053-.488 2.733 1.04 8.565.93 3.554-.178 1.919-2.364.803l-1.46-.765c.978.931 2.013 1.809 3.01 2.722.892.755.39 1.22-.89.782-1.844-.853-5.402-.503-6.767.565-.532.348-.72.312-.854-.01-.58-9.056.463-14.623 3.725-21.422 2.11-4.622 5.244-8.08 9.417-8.32 4.205-.315 10.246 1.054 15.73 4.504 6.44 4.051 12.71 10.206 13.364 17.746.026.088.497-.643.711-1.03.297-.895-.774-3.589-2.448-6.712-.306-2.347-1.173-6.464-1.855-9.249.523-.219 1.637-.094 1.95.258 1.17 4.604 2.004 8.19 3.005 14.358.013.602.853-.89.856-1.287-.143-.92-2.905-12.99-2.85-12.715.017-.41 2.642.133 2.28.513 0 0 1.977 10.125 2.12 9.812l.676-.858s-1.891-7.396-1.65-8.82c.163-.218 1.639.226 2.106.461.586.728.958 3.366 1.202 5.166.678.48.815-.903.765-1.269-.488-.717-1-3.39-.612-3.526.305-.108 1.996.515 2.32.782.381.315 1.86-1.568 1.486-1.894-7.977-2.835-18.046-4.498-25.624-4.621-1.761.004-2.46-.227-5.159-1.131-6.874-2.303-12.566-.03-13.4.694-8.39-5.4-17.75-12.936-25.205-17.747-.35-.215-1.187-.344-1.28-.344-1.2 8.353-2.045 18.019-3.069 25.728-.416 3.052-.465 3.29-.314 3.377.131.075.39-.046.493-.095 2.458-.831 4.676-.284 5.848 1.765.586 2.929-2.193 4.851-5.116 3.456-1.085-.518-1.241-.416-.748.56.853 1.76 3.313 6.392 3.313 6.392.004.002-3.347 6.277-5.038 7.983-1.64-2.454-3.734-4.937-4.64-7.616 1.297-2.332 3.745-5.334 4.52-7.634-.11-.074-.774-.012-1.237.21-4.273 1.857-4.952-1.653-4.893-2.914.12-2.564 2.542-3.106 6.055-1.905-3.755-23.301-4.541-36.576-3.573-35.138 0 0-4.584-3.035-6.861-5.092l.115-169.65 54.91.164c5.57 13.858 3.998 30.51.636 39.176 5.941 1.012 11.941 2.317 18.717 5.92-11.487 15.483-29.505 32.208-49.007 42.902-1.105.458-4.729-1.635-5.151-3.699-.098-.48.192-1.423.776-1.405 1.43.431 2.816 1.022 4.213 1.55 0 0-1.939-4.51-.998-5.194.612-.37 1.113-.678 1.506-1.059 1.401-1.664 1.293-3.556-.185-5.011-.595-.578-1.29-.977-1.638-1.124 0 0 1.38-3.514 2.072-5.171l-5.409 1.641c-1.746-2.242-4.961-3.99-7.346-.66-.455.889-.361.752-3.705-.62-1.895-.777-3.064-1.175-3.064-1.175.708 1.955 1.635 3.793 2.444 6.056-3.729 2.185-2.887 5.882.246 6.99l-1.661 4.988s3.523-1.205 5.433-1.673c0 0 1.671 1.556 2.165 3.03.846 2.532 2.776 4.368 3.997 5.415-2.04 1.374-3.047 1.836-5.342 2.85l7.912 2.965c-.489-1.546-1.536-2.694-1.638-4.648-.09-1.674-.194-1.705-1.364-2.84-1.915-1.529-2.2-3.572-3.274-5.242-.75-.42-1.348-1.26-1.907-2.209-1.205.104-3.929 1.348-4.443.9-.631-.624 1.103-3.808.912-4.127-1.39-.112-5.278-2.918-.635-6.03l-1.47-5.076s3.528 1.43 5.218 2.23c1.185-5.068 6.54-2.628 7.402-.442 0 0 4.25-1.282 3.985-.236-.12.938-.814 3.28-.814 3.28 3.814 3.127 3.02 4.658-.087 6.7-.05 1.654.698 4.227.698 4.227s-2.16-.889-3.583-1.263c-.57.525-1.219 1.474-1.112 1.963.958 3.947 6.228 5.053 14.03 9.098.273-2.548 2.185-6.029 2.407-9.087.138-2.23.221-2.265 1.92-1.55 4.47 2.99 3.09 11.185 1.451 14.545-.97 1.902-1.127 1.853-3.004 1.298-2.6-.769-7.198-.468-9.729.32-3.5 1.316-5.164 8.513-5.206 10.7-.066 2.079.104 4.14 1.281 6.71.487 1.643-.415 2.908-2.02 2.465-.36-.1-1.216-.403-1.216-.403l-15.112 7.183 2.841 1.549s-2.094-1.158-.793-1.782l12.956-6.213c2.41.872 2.087 1.049 3.653-.453.938-.887 1.397-.904 2.65-.791 7.631.688 11.014-.332 12.339-3.282.199-.442.123-.427.903-.789 1.445-.515 2.126-1.452 2.202-2.628.05-.77.412-.876 1.05-1.414 1.188-1.004 1.431-2.265.686-3.562-.35-.61-.62-.803-.472-1.436.247-1.06-.176-2.164-1.277-3.334-1.269-1.347-1.26-1.12 1.136-3.173 4.707-4.115 8.855-7.264 13.434-10.987 3.131-2.547 2.793-2.365 4.008-1.195 4.472 4.305 6.217 11.01 4.189 16.902-.096.276-.138.245.097 0 1.27-1.324 1.318-7.995.24-10.955-1.313-3.637-2.588-5.532-6.948-9.099-2.721-2.276-10.127-8.844-10.127-8.844 10.808-8.62 22.453-19.336 28.99-29.196-3.339-3.315-18.84-6.392-18.84-6.392 1.937-3.692 5.787-20.287-.715-38.704l55.707.684 1.981.127s.3-.105.458-.143c.534-.128.8.22.67.77-.413 1.404-2.654 4.69-4.23 4.415-.701-.252-.506.995-.822 1.513 2.486-.293 5.405-3.194 6.14-6.072.402-.605.662-.706 1.06-.589.459.136.343.539-.157 1.93-1.562 3.481-4.723 6.713-8.39 6.384l-.478 1.187c4.948-.065 8.782-4.34 9.919-7.54.793-1.903.824-2.16 1.617-1.976.655.562.248 1.366.023 2.028-2.5 7.33-9.337 9.279-12.738 8.954-.41-.048-.482.307-.36.91 7.308.458 13.14-5.343 13.973-10.328.403-1.384 1.098-1.855 1.498-1.222.225.559.149 1.128.036 1.66-2.012 7.867-11.111 12.321-16.665 11.036-.256-.222-.677.865-.073 1.254 11.216-.372 14.688-5.707 17.255-10.421 3.043 4.252 5.53 8.636 12.836 11.22 0 0 .727 1.484.151 1.816-.303.174-.766.092-1.437-.01-8.91-1.342-11.871 6.34-8.1 17.83 1.033 3.145.569 2.663-1.655 4.627-1.06.936-1.567 2.598-1.289 2.637.38-.197.507-.736 1.435-1.442.404-.308 1.232-.601 1.843-.989 1.65-.88 1.637-1.483 1.049-3.57-.438-1.551-1.549-6.27-1.55-6.748 0-.904.23-.809 1.455.003 1.708 1.173 2.678 1.091.611-.411-.8-.583-1.32-1.036-1.562-1.362-.328-.444-.124-.73.543-.535 3.07.893 5.706.832 8.69-.837.327 7.576-.825 19.067-7.717 27.274-5.287 5.459-15.38 1.305-19.113-.428zm8.114-17.394c-.205.008-.941.148-1.397.387-2.028 1.068-1.552 4.866.658 5.375.89.205 1.696.318 3.192-.338.89-.39 2.137-.695 2.487-.56.733.284.967-.314 1.124-.989.354-1.509-2.329-1.549-4.467.008-2.697 1.965-4.756-.944-2.214-3.128.847-.503.822-.763.617-.755zm-20.94 8.092 2.257 2.416 1.411 5.753c-.862.134-1.907-.31-1.907-.31-.7-2.602-1.385-5.208-1.761-7.86zm30.808 1.496a.292.292 0 0 0-.076.019c-.096.038-.518.213-1.1.272-.337.034-.845-.188-1.207-.167-.99.055-1.917.322-2.164.416-.305.116-.605.164-.865.022-.738-.402-2.89-.292-3.544.06-.776.304-1.646.306-2.281.002-.274-.131-.554-.462-.603-.416-.102.093-.518 1.72-.644 2.35.003.22-.167.59-.068.627.126.047.533-.292 1.035-.527 1.028-.482 2.177-.443 4.193.016 2.49.567 3.46.405 4.931-.285 1.172-.549 1.883-.68 2.66-.482.193.05.703.295.773.233.137-.122-.238-.804-.56-1.478-.233-.488-.318-.68-.48-.662zm-26.873 2.552c2.183 1.916 2.02 1.752 3.398 2.7l-.07 1.842s-1.692.032-2.521-.207c-.261-.717-1.392-4.318-.807-4.335zm17.99 1.267c.148.094.363.193.66.287 3.48 1.21-.162.901-.511 2.048 0 .104.158.12.33.058 1.195-.431 4.115-.707 5.442-.468 1.723.54 1.831.169.176-.632-1.212-.442.259-.74.754-1.125 1.03-.608.323-.86-.987-.284-1.311.578-3.643.565-4.705.013-.47-.22-.928-.427-1.145-.44-.446-.017-.21.413-.014.543zm-13.712 2.042 2.035 1.474-2.083-.188zM90.9 847.55c-.412 0-.748.308-.749.688 0 .38.334.69.746.69.411.001.747-.308.748-.687 0-.38-.334-.69-.746-.69zm2.719.7-9.356 4.08 2.469.768-.024 2.36 2.276-.666.96 2.206zm.41 1.93c-.411-.001-.747.307-.748.687 0 .38.334.69.746.69.411.001.747-.307.748-.687 0-.38-.334-.69-.746-.69zM82.17 854.35c-.412 0-.747.304-.748.684 0 .38.334.69.745.69.412 0 .748-.308.748-.688.001-.38-.333-.685-.745-.686zm2.87 1.287-10.501 4.431 3.108.878-.827 2.954 2.536-.978 1.41 1.986zm.306 2.118c-.412-.001-.748.308-.748.687-.001.38.333.69.745.69.412.001.742-.307.743-.687 0-.38-.329-.69-.74-.69zm-20.822.41c3.946 0 8.369 1.393 9.873 4.513.4 1.56-1.263 2.485-4.805 1.582-5.857-1.492-6.95-1.66-5.978-.74.128.121.386.419 1.262.696 2.206.697 6.476 1.507 7.628 1.4 1.575-.19 2.663.488 2.268 1.698-.45 1.375-2.494 1.934-5.568 1.53-3.182-.42-4.934-.76-5.992-1.058-1.357-.381-1.405-.349-.763.532.334.459.366.826.863.913 2.102-.106 4.34.268 6.27.44 3.464.291 4.004 1.198 1.457 2.579-1.207.654-4.814.469-6.863-.216-1.464-.489-4.822-1.19-3.529-.245.311.227.203.784.745.96 1.776.229 6.798.562 7.582 1.219.505.423-.636 1.493-2.982 2.05-3.53.61-8.808.345-10.2-.536-2.572-4.855-1.168-12.791 2.879-15.888 1.29-.928 3.486-1.43 5.853-1.43zm23.133 2.566c-.411 0-.742.308-.743.688 0 .38.33.685.74.686.412 0 .748-.304.749-.684 0-.38-.334-.69-.746-.69zm3.116.74-10.845 4.962 2.74.756-.655 2.909 2.54-.962 1.535 1.96zm.079 2.437c-.412 0-.747.308-.748.688 0 .38.334.69.745.69.412.001.748-.307.748-.687.001-.38-.333-.69-.745-.69zm6.29 5.882c-4.813 4.307-10.234 7.717-15.188 11.9l1.071-.038 2.7-2.24 75.9-.097-1.777 2.386.745.297s2.282-3.102 2.128-3.245c-16.676.017-29.548-.04-47.842.048-3.328-3.053-6.845-5.914-10.325-8.815zm-23.076 2.73c-.412 0-.748.308-.748.688-.001.38.334.69.745.69.412.001.742-.308.743-.688 0-.38-.329-.69-.74-.69zm99.088.686c6.547 4.501 14.305 10.021 20.746 13.3 2.58 1.04 2.33 1.392-.296 2.532-2.582 1.475-6.877 3.374-10.459 5.034-1.552.538-2.228-.168-3.33.018-.794.185-1.02.323-1.495.899-.777.945-.566.913-4.712.733-4.183-.18-5.908-.097-6.808.325-.865.405-2.351 1.793-2.353 2.37 0 .555-.475 1.266-1.337 1.503-1.004.224-2.163.955-2.116 2.093-.27.856-.838 1.234-1.343 1.703-1.194 1.108-1.077 1.981-.734 3.013.158.462.402.355.275 1.72-.29 3.128-.522 2.864 3.1 5.185l-18.558 14.87c-.43.312-.556.28-.946.032-2.257-1.552-3.825-4.113-4.726-6.675-3.115-7.963.72-14.495 5.807-18.487 1.763-1.384 4.13-3.033 4.79-3.447 9.58-7.514 17.92-18.164 24.495-26.72zm-96.324.428-10.602 4.599 3.41.536-.658 2.719 2.473-.86 1.304 2.294zm.643 2.158c-.411 0-.747.308-.748.688 0 .38.334.685.746.686.411 0 .742-.304.743-.684 0-.38-.33-.69-.74-.69zm97.059 3.183-1.198-2.626s-3.36 7.6-4.073 10.176a4362.27 4362.27 0 0 1 11.15-5.231l-3.553-.615.407-2.978zm-121.003.275c-.412-.001-.747.308-.748.688 0 .38.334.69.745.69.412 0 .748-.308.749-.688 0-.38-.334-.69-.746-.69zm3.243.633s-7.889 3.4-11.45 4.868l3.321.647-.589 2.98 3-1.074 1.204 2.948zm.418 2.252c-.412 0-.748.308-.748.688-.001.38.334.685.745.685.412.001.747-.303.748-.683 0-.38-.334-.69-.745-.69zm111.543.675c-.412 0-.747.303-.748.683 0 .38.334.69.745.69.412.001.743-.308.743-.687.001-.38-.328-.685-.74-.686zm12.887.644-3.77 9.615 10.155-4.697-2.753-.699.018-2.38-2.267.605zm-119.915 2.12c-.412-.001-.748.308-.748.687-.001.38.334.69.745.69.412.001.747-.307.748-.687 0-.38-.334-.69-.745-.69zm110.974.353c-.412 0-.742.308-.743.688 0 .38.329.685.74.686.412 0 .748-.304.748-.683.001-.38-.333-.69-.745-.69zm-107.865.532-10.76 4.823 3.335.726-.372 3.098 2.716-1.418 1.467 2.828zm.668 2.047a.684.684 0 0 0-.706.688c-.001.38.333.685.745.686.412 0 .742-.303.743-.683 0-.38-.37-.69-.782-.69zm111.8.789c-.411 0-.747.308-.748.688 0 .38.334.685.746.685.412.001.747-.303.748-.683 0-.38-.334-.69-.745-.69zm-14.82 3.14-.995-2.591-3.995 9.492 10.705-4.505-3.393-.74.065-2.48zm-10.865-2.062c-.122-.006-.23.025-.23.1 0 .219-2.738 2.68-2.738 2.68l-31.573.217c.065.005 2.627.663 2.627.663 4.135 3.06 10.615 8.488 10.615 8.488l7.839-.276c4.347-3.925 10.875-6.905 13.793-11.758-.071-.065-.21-.107-.333-.114zm29.591 2.006c-.412 0-.747.308-.748.688 0 .38.334.685.745.686.412 0 .743-.304.743-.683.001-.38-.328-.69-.74-.69zm-24.378 3.277c-.412 0-.742.304-.743.683 0 .38.329.69.74.69.412.001.748-.307.748-.687.001-.38-.333-.685-.745-.686zm16.026 1.02c2.263-.006 4.442.069 5.006.467 3.493 2.724 1.81 15.426-2.601 17.023-4.84.997-8.187 1.178-12.382-1.385-1.19-.537-3.55-2.16-3.086-3.497.632-1.642 2.362-1.52 7.32-.087 1.809.523 2.805.42 3.267.095.433-.303-.132-.644-1.057-.648-.373-.002-1.976-.37-3.313-.751-1.887-.54-2.43-.698-3.65-.766-2.053-.116-2.65-.191-2.647-1.35.004-2.164 3.265-2.445 9.265-1.165.717.153 2.017.324 2.336.315.232.082-.455-.717-.57-1.195-.216-.17-.604-.252-1.626-.285-3.859-.356-7.062-.603-7.13-1.07-.337-2.29 4.656-2.906 9.83-1.06 1.328.474 1.354.28 1.345-.078-.018-.66-2.24-1.816-5.523-1.79-3.192.026-2.744-1.47-.118-2.59.898-.384 3.07-.175 5.334-.182zm-12.35 2.436c-.412 0-.742.308-.743.688 0 .38.329.69.74.69.412 0 .748-.308.748-.688.001-.38-.333-.69-.745-.69zm-11.512 4.735-.67-2.568-4.362 9.981 10.98-5.138-3.616-.633.32-2.101zm-5.597 4.002c-.412-.001-.748.308-.748.688-.001.38.333.69.745.69s.742-.308.743-.688c0-.38-.329-.69-.74-.69zm10.924 2.85-.919-2.428-3.705 8.689 9.368-3.844-2.763-.701.398-2.634zm-7.452.014c-.412 0-.747.308-.748.688 0 .38.334.69.745.69.412.001.743-.308.743-.687.001-.38-.328-.69-.74-.69zm2.39 3.325c-.411 0-.747.303-.748.683 0 .38.334.69.746.69.411.001.742-.308.743-.687 0-.38-.33-.685-.74-.686zm-4.708 2.028-3.175 8.23 8.804-3.916-2.57-.785s.146-1.852-.097-1.766c-.153.054-1.81.478-1.81.478zm7.828.998c-.412 0-.748.303-.748.683-.001.38.333.69.745.69.412.001.747-.308.748-.688 0-.38-.334-.685-.745-.685zm-11.67 3.942c-.411 0-.747.309-.748.688 0 .38.334.69.746.69.411.001.747-.307.748-.687 0-.38-.334-.69-.746-.69zm3.357 3.192c-.412 0-.748.303-.748.683-.001.38.333.69.745.69.412.001.747-.308.748-.688 0-.38-.334-.684-.745-.685zm-46.467 37.85c-.404.055-1.45-.83-1.652-1.245.597-.138 1.213-.034 1.546.224.276.243.47.863.106 1.022zm3.185-.59c-.143 1.006.528 2.826.399 3.258-.346.156-2.093-1.579-2.523-2-.089-.576.01-1.305.045-1.635.602-.097 1.668-.059 2.08.377zm3.15.506c.37 2.23 1.426 5.816 1.258 7.025-.157-.116-1.504-1.346-2.498-2.65-.349-.78-.89-3.495-.84-4.794.672-.083 1.573.017 2.08.42zm-21.109-.285c-1.077.505-2.3.868-3.836.86-1.232-.007-3.352-.6-3.138-.455.56.927 2.025.444 2.052 1.048-.365.597-1.339.539-1.824 1.11-.102.152.143.28.828.215 2.083-.867 4.8-.847 7.286-.09.523.103.18-.36.003-.483-.323-.22-.856-.45-1.305-.5-2.173-.36-1.218-.56.237-1.157 1.068-.358 1.338-1.243-.303-.548zm4.703 2.84c-.29.021-1.014.36-1.807.654-1.34.497-2.578.378-4.378-.087-1.564-.405-2.134-.294-3.692.427-1.034.61-2.166.778-2.984.35-1.06-.558-1.053-.368-.53 1.009.13.344-.13 1.384.33 1.624.351.184.758-.424 1.03-.508.271-.084 1.977.626 2.93-.15 1.7-.567 2.21.356 3.386.27 1.911-.62 3.107-1.265 4.746-.062.098-.45.484-2.903 1.096-3.484-.015-.033-.06-.047-.127-.042zm-3.493 7.061c-1.375.013-2.12.79-3.893.64-1.415-.095-1.902 1.063-1.304 1.908.421.596.986.706 2.918-.107.794-.334 1.899-1.071 2.544-1.01 1.887.177 2.34 1.86.766 3.281-.766.414-.774.864-.54.873.62.023 1.88-.66 2.167-1.458.787-2.186-.616-4.163-2.658-4.127zm6.147 10.086c-1.788.345-4.37 2.235-5.249 3.46-.821 1.194-1.609 2.544-1.037 3.212.468.548 1.124 1.081 1.18 1.378.049.259-.335.515-.695.885-1.574 1.619-1.2 1.708 1.004.66 1.117-.532 1.636-.745 2.364-.569 2.122.515 4.765.155 6.563-.451.812-.274 1.607-.646 1.668-.456-3.285 3.325-7.372 2.48-8.832 2.275-.254-.061-.45-.047-.45.033 0 .162.422.514 1.323.884 1.506.62 5.127-.03 7.393-1.55 4.482-2.695 6.954-5.273 3.425-4.2-1.619.492-2.225.405-4.188-.417-2.943-1.233-5.198-1.596-7.64-.815-3.092.99-.717-1.357 2.763-3.39.754-.44.85-.946.408-.939zm-16.682 6.998-1.03.012c-.733-2.292-2.514-2.29-3.29.01l-.86-.058c.848-2.854 4.035-3.437 5.18.036zm18.33.218-.773.032c-.467-1.388-2.12-2.612-3.29-.34l-.537-.103c.96-3.63 4.756-1.604 4.6.411zm-5.158-2.095c.482.001.604.507.054 1.327-.387.577-.845.524-1.304.087-.415-.384-.39-.452.063-.83.481-.404.898-.584 1.187-.584zm5.703.024c.21-.006.608.154 1.054.294 1.175.368 1.44.672.958 1.115-.473.436-1.371.566-1.785.318-.018-.546-.603-.967-.622-1.515.002-.147.185-.207.395-.212zm-18.407-.011c.814-.033 1.906.413 1.825.848-.088.474-.892.783-1.554.833-.444.053-.426-.113-.542-.404-.103-.26-.236-.591-.311-.85-.182-.499.165-.413.582-.427zm-5.572.156s-.459 1.252-.663 1.68c-1.705-.088-1.542-.781-.737-1.281.434-.304.872-.309 1.4-.4zm-1.329 2.976c.309.006.691.253 1.227.413 1.509.451 4.017.404 5.974-.01.937-.197 1.38-.465 1.586-.327.366.245-.015 1.098-1.369 1.645-1.763.597-4.451.918-6.485-.044-1.74-.822-1.932-1.695-.933-1.677zm-.469 1.793c1.595.976 3.193 1.286 5.168 1.12 2.958-.095 3.486-.431.992.783-2.305 1.122-5.854.909-6.536-.313-.39-.7-.136-1.532.376-1.59zm14.328 1.656a.063.063 0 0 0-.025.005c.236 1.473 2.912 2.825 4.198 3.146 2.727 1.121 7.066.022 10.334-1.272 2.386-.945 3.249-2.376.407-1.567-4.573 1.303-10.31 1.393-13.18.37-.934-.41-1.574-.688-1.734-.682zm-15.048 5.491c5.716 1.2 12.613 9.35 12.58 12.909l-1.847-.003c-2.794-9.057-10.093-11.028-10.805-11.57-.325-1.111.085-1.363.072-1.336zm-.095 2.293c6.79 2.758 9.199 7.664 10.211 10.612l-1.987-.003c-1.472-4.057-4.128-6.953-8.243-8.76-.278-.565.019-1.85.019-1.85zm-.016 2.774c3.481.954 6.544 5.19 7.412 7.833l-1.74-.012c-1.226-2.95-2.969-4.844-5.742-5.938-.113-.555-.089-1.184.07-1.883zm-.061 2.875c1.634.306 4.399 2.656 4.793 4.954l-1.596-.003c-.56-1.549-2.297-2.967-3.187-3.545-.003-.281-.01-1.406-.01-1.406zm.163 2.452c.176-.1 2.613 1.932 2.2 2.498l-2.199-.003c-.024-.631-.036-2.501 0-2.495z"/><path fill="#d40000" d="M128.602 759.614c-4.16 7.402-25.49 40.736-25.708 41.897l5.443 2.232 26.525-43.949s-5.48-.173-6.26-.18zm62.38 27.968-2.476 3.2 2.095 3.52 2.14-3.475zM93.77 820.904s-7.64 6.98-10.626 10.237c6.396 5.909 18.627 13.335 18.695 24.733l8.443.043 27.284 22.6s24.745.206 25.207.108c.498-.106 9.312-11.707 9.312-11.707l15.661 10.576s-.73-11.364-1.31-18.328c-.185-4.657-.346-7.521 3.346-9.577-5.064-2.237-4.735-6.335-1.003-9.34-1.227-1.57-3.063-1.863-3.33-7.425-.773-.77-1.507-1.22-2.476-1.874l-1.014.834c-3.26 2.69-5.481 5.437-5.85 7.227-.701 3.406 3.044 5.746 5.216 3.26.612-.7 1.157-.503 1.155.413-.003 1.858-2.538 2.903-4.678 1.932-.5-.227-.942-.378-.987-.337-.077.072 2.116 5.056 2.71 6.155.986 1.829 1.502 3.665 1.575 5.586.077 2.052.032 2.314-1.014 5.856-.986 3.337-.528 5.323 1.223 5.326.985.002.953.876-.044 1.194-2.117.678-3.427-.764-3.496-3.838-.042-1.868-.076-1.914-1.117-1.465-3.622 1.564-7.547-1.248-5.838-4.182.359-.616.781-.42 1.001.46.414 1.652 1.35 2.382 3.044 2.379 3.906-.008 5.55-5.097 3.308-10.228-.45-1.03-.678-.972-1.274.328-.935 2.04-2.497 2.638-3.782 1.448-.431-.399-.639-1.045-.346-1.077.067-.007.497-.023.951-.036 2.276-.064 3.065-2.1 2.005-5.165-.932-2.694-1.076-3.182-1.352-4.642-.427-2.256-.123-3.967 1.09-6.153.215-.386 1.552-1.76 3.214-3.304 1.696-1.576 3.156-2.784 3.156-2.784s-.856-.683-2.016-1.49a437.722 437.722 0 0 0-2.875-1.993s-11.685 29.448-10.883 40.93c-1.504 15.124-13.546 10.92-14.413.442zm-.527 4.417c3.975-.054 6.586 4.8 8.063 14.867.49 3.336 2.684 8.01 4.28 9.117 4.026 2.792 10.34.655 10.353-3.505.016-5.178-7.862-5.959-7.993-.791-.03 1.218-.708 1.28-1.355.12-.577-1.034-.052-2.966 1.076-3.94.723-.624.667-.741-.708-1.445-4.789-2.45-6.82-6.094-4.256-7.639 1.121-.675 2.65.183 1.946 1.093-1.1 1.423-1.115 1.648-.2 2.832 1.04 1.346 2.276 2.019 5.207 2.822 2.46.674 2.866.8 4.002 1.28 3.327 1.406 4.841 4.491 3.674 7.483a136.92 136.92 0 0 0-.597 1.547c-.12.328.076.33 2.42.047 3.73-.453 7.87.783 9.906 2.956 1.095 1.168 1.97 3.791 1.994 5.979.004.421.143 1.373.313 2.115.17.742.394 1.996.496 2.786.961 7.488 7.708 11.328 10.637 6.054 1.843-3.32-2.398-6.65-4.566-3.586-.761 1.077-1.543.58-1.103-.7.854-2.487 4.223-2.905 6.512-.806 1.238 1.135 1.828 3.706 1.223 5.336-.318.855-.285.91.402.69 1.542-.494 4.205-.012 5.16.933 2.247 2.227 1.79 4.896-.983 5.757-1.262.387-2.689-.02-3.154-1.384-.203-.972.522-1.25 1.08-.413 1.046 1.567 3.331.309 2.796-1.54-.61-2.102-2.555-2.551-6.15-1.416-5.716 1.805-7.56 1.65-10.29-.861-1.948-1.793-2.68-3.34-3.198-6.755-.574-3.77-.629-3.867-1.641-3.075-4.842 3.787-11.216-1.959-7.114-5.723 1.268-1.166 2.198-.147 1.056 1.158-1.667 1.905.497 4.566 3.215 3.951 4.95-1.119 3.952-7.802-1.399-9.371-1.631-.479-6.115-.289-9.565.404-9.633 1.936-13.88-1.864-15.839-14.157-.228-1.436-.497-2.498-1.406-5.59-1.077-3.67-4.763-5.667-6.78-3.674-1.608 1.588-.768 3.732 1.466 3.74 2.227.01 1.542 1.417-.78 1.604-4.03.324-4.72-5.867-.85-7.634.944-.431 1.825-.654 2.65-.666zm-52.589 2.2 1.241 4.407 4.977 1.306-1.571-4.194zm12.77 1.336-1.344 3.983 3.776-.848 1.24-4.155zm40.946 6.59c.79.002 1.43.595 1.43 1.324-.002.73-.644 1.321-1.435 1.32-.791-.002-1.431-.594-1.43-1.324.002-.73.644-1.32 1.435-1.32zm-48.002 2.301-3.929 1.262-.761 3.158 4.11-.97zm9.365 1.014-3.206-.515.895 3.263 3.395 1.287zm139.238-.025-2.065 1.477c6.003 4.833-.495 9.47-.696 9.155 4.341 2.662 3.559 6.848 2.988 10.681-1.042 6.839-1.455 13.308-2.59 20.316 0 0 5.23 3.343 8.71 4.64.066.007.1-41.13.1-41.13zm-74.207 6.075c.79.001 1.43.594 1.43 1.324-.002.73-.644 1.32-1.435 1.32-.791-.002-1.431-.595-1.43-1.325.002-.73.644-1.32 1.435-1.319zm-87.917 3.241.107 38.387 8.637-14.195-5.912-6.315 5.13-5.037zm83.828 5.985c.791.001 1.431.594 1.43 1.324-.002.73-.644 1.32-1.435 1.32-.79-.002-1.43-.595-1.43-1.325.002-.73.644-1.32 1.435-1.32zm19.54 3.958c.791.002 1.431.594 1.43 1.324-.001.73-.644 1.32-1.434 1.32-.791-.002-1.431-.594-1.43-1.324.001-.73.644-1.32 1.435-1.32zm55.913 42.854 6.314 6-4.951 5.67 7.755 12.193-.054-37.69zM32.692 887.986l.222 41.288 6.754 4.563 1.718-1.492c-4.356-4.308-1.743-7.503 1.55-9.349-5.801-1.256-4.026-8.357-3.673-11.649-.13-6.112 2.31-13.082 1.574-18.96zm38.94 5.801-9.717 12.448s-10.637-7.462-16-10.83c.564 5.38 1.075 12.24 1.777 18.027 1.725 8.45-2.81 8.588-2.852 9.397 7.197 5.058 1.14 9.769.055 9.53 3.835 1.935 3.507 7.793 3.507 7.793l1.819.953s.593-.332.844-.457c1.948-.963 5.128-4.402 5.859-6.674 1.24-3.851-2.38-7.058-4.667-4.133-1.123 1.438-2.019.474-1.097-1.181.84-1.51 3.03-2.267 4.483-1.546.845.42.658-.665-.643-3.701-.436-1.02-.79-2.13-1.403-4.383-.593-2.179-.356-4.805.684-7.475 1.5-3.85.975-6.268-1.414-6.483-1.275-.115-1.413-.483-.372-1.025 2.323-1.21 4.57.521 4.474 3.448-.053 1.583-.034 1.61.872 1.276 4.583-1.688 8.194 2.704 4.986 6.064-.981 1.027-1.596.373-.95-1.007 1-2.133.055-3.656-2.274-3.676-3.378-.03-5.256 4.275-3.935 9.014.413 1.479.477 1.497 1.6.512.997-.875 1.742-1.154 2.513-.94 1.598.444 2.015 2.015.483 1.818-2.633-.339-3.33 2.206-1.85 6.737 1.966 6.012-.044 10.904-5.898 14.377-.296.176-.768.514-.768.514 2.252 1.858 3.692 2.914 6.67 4.593l10.715-39.662s-.175-2.253-.435-3.316c.012-10.65 10.782-11.653 14.134-1.977.322.929 2.03 3.303 2.03 3.303l55.972 45.998s10.483-9.316 10.34-9.564c-7.937-7.407-18.665-12.653-19.034-24.388-1.905-.053-8.275.045-8.275.045L96.651 894.1c-8.555.037-16.141-.54-25.02-.313zm15.271.89c1.497-.042 3.006.679 3.004 1.831-.002.994-.724 1.22-1.32.413-.834-1.128-1.804-1.22-2.792-.264-2.741 2.65 1.505 5.082 6.396 3.664 2.995-.869 4.445-1.102 5.54-.898 4.617.863 6.842 3.742 7.225 9.344.195 2.848.19 2.837 1.526 1.71 3.254-2.741 7.946-1.205 8.67 2.842.31 1.737-1.72 3.92-3.644 3.916-.755 0-.634-.728.18-1.085 1.96-.858 2.043-3.707.143-4.824-2.522-1.481-5.853.818-5.818 4.017.042 3.846 3.151 5.622 9.298 5.306.9-.046 3.16-.14 5.018-.209 2.936-.11 6.093-.616 9.08 1.473 3.13 2.305 5.2 6.88 6.077 13.486 1.386 8.132 2.464 10.312 5.422 10.512 1.755.118 3.245-1.259 3.248-2.861.002-1.13-1.616-2.128-2.845-1.756-1.486.45-1.782-1.035-.32-1.596 2.027-.777 4.497.731 5.043 3.081.318 1.37-1.361 3.993-3.118 4.645-4.584 1.702-7.834-1.795-8.892-9.61-.651-3.586-1.008-6.002-2.213-9.067-2.212-5.64-5.859-7.973-9.839-6.293-4.507 1.902-3.625 8.125 1.146 8.087 2.62.196 3.173-1.58 3.23-3.484.065-1.403 1.786-.083 1.932.884.14 1.172-1.002 2.62-2.008 3.305-1.626 1-1.049.938.612 1.345 4.464.766 7.772 6.225 5.099 8.072-1.389.779-2.86-.373-1.896-1.5 1.532-1.791-1.05-4.63-5.76-5.59-6.167-1.257-8.616-5.5-6.382-9.851.739-1.44.803-1.407-2.207-1.255-6.623.334-8.972-.514-11.188-4.058-.67-1.07-.963-2.5-1.1-5.34-.246-5.085-.743-8.234-1.436-9.122-3.43-4.394-10.585-3.092-9.7 1.764.465 2.55 3.318 3.372 5.27 1.52 1.475-1.4 2.159-.097.719 1.369-3.465 3.526-9.474-.606-7.677-5.28.41-1.07.466-1.035-1.753-1.098-4.934-.139-7.275-4.04-4.089-6.808.558-.485 1.335-.716 2.12-.737zm11.875 16.746c.791.002 1.431.594 1.43 1.324-.002.73-.644 1.32-1.435 1.32-.79-.002-1.43-.594-1.43-1.324.002-.73.644-1.32 1.435-1.32zm19.83 4.724c.792.001 1.432.594 1.43 1.324-.001.73-.643 1.32-1.434 1.32-.791-.002-1.431-.595-1.43-1.325.001-.73.644-1.32 1.435-1.319zm-4.276 8.617c.79 0 1.43.594 1.43 1.324-.002.73-.644 1.32-1.435 1.319-.791-.001-1.431-.594-1.43-1.324.002-.73.644-1.32 1.435-1.32zm63.038 5.241.9 3.91 3.285.804-.507-3.35zm11.495 1.372-.076 2.318 2.923.322 1.042-3.994zm-49.092 3.42c.791.001 1.431.594 1.43 1.324-.002.73-.644 1.32-1.435 1.32-.79-.002-1.43-.595-1.43-1.325.002-.73.644-1.32 1.435-1.32zm41.978 5.452-3.438.874-1.66 4.402 4.403-1.463zm6.722.407.415 3.264 4.23 1.773-1.423-4.654zm-62.462 27.72-26.37 43.812 7.183-.08 24.889-41.313zm-82.695 10.483-2.327 2.88 2.198 3.35 2.538-3.357z"/><path d="M88.401 758.452c4.815 13.55 5.24 26.896 1.015 39.713 2.392.116 12.828 2.603 18.57 5.886-1.07 2.522-17.397 20.987-28.472 29.304 3.138 2.878 6.592 5.756 10.222 8.928 5.49 4.824 7.427 8.143 7.778 14.395-.055 3.018-1.234 6.74-3.322 9.373-1.578 1.99-3.252 3.52-6.608 5.564-3.096 1.885-7.624 5.946-13.32 11.934-2.172 2.283-5.837 6.441-8.874 10.407-1.148 1.442-4.531 5.941-4.531 5.941-11.24-8.495-23.283-15.053-23.592-15.003 0 0 12.173-5.962 14.734-7.177 1.963 1.167 4.633.176 3.357-2.387-2.451-5.833-.723-11.829 2.308-16.012.726-1.008 2.472-1.594 5.292-1.771 1.225-.072 2.519-.033 3.816-.046.468.001 1.728.17 2.418.519 2.297 1.162 2.76-.327 4.204-5.341 1.436-4.989-.848-11.305-4.121-11.33-.77-.006-1.202.255-1.047 2.03.117 1.341-.234 2.036-.61 2.88-.82 1.844-1.257 3.648-1.52 6.054.477.09-3.034-3.235-8.573-4.56-3.601-.398-5.422-4.54-5.27-4.548 0 0 .542-1.12 1.016-1.556 1.229.545 2.436 1.185 3.894 1.582 0 0-.333-1.663-.461-2.11-.665-2.313-.628-2.665.338-3.143 2.396-1.186 2.652-3.314.787-5.252-.47-.496-.868-.814-1.501-1.065l1.19-4.34s-1.083.213-1.95.454c-2.506.699-2.32.723-3.385-.402-2.32-2.446-5.87-1.987-6.405.83-.06.312-.217.807-.217.807l-5.338-2.401c.154 1.156 1.534 5.076 1.534 5.076-4.68 3.343-.736 6.318.539 6.633 0 0-1.098 3.205-1.476 4.538l5.275-1.382c.441.927.986 1.632 2.08 2.283.282 2.738 2.563 4.948 4.136 6.279 0 0 .225 1.001.087 1.641-.344 1.591 1.404 4.114 1.701 4.265-7.23-2.743-14.767-6.033-22.043-9.263l.3 82.596s1.692 1.405 5.05 3.633c1.614 1.07 1.614 1.075 1.275 2.306-.447 1.622-.34 2.861 1.14 13.548.785 5.652 1.638 11.513 2.403 16.77.304 1.914.344 3.142.344 3.142-1.606-.69-3.946-.763-5.158.489-2.092 2.19-.428 5.724 2.664 5.654.703-.039 1.18-.226 1.786-.606.42-.207.851-.025.851-.025l-4.628 7.474 5.296 8.261 5.315-8.817-3.84-6.988s.376-.038.898.205c.517.24 1.213.425 1.697.451 2.688.023 3.242-1.107 3.53-3.142.005-2.62-2.253-3.81-5.365-2.827a5.307 5.307 0 0 1-1.028.197l3.317-28.801 1.747 1.187.574-.287-1.527-1.206c.34-4.615-1.307-6.253-3.086-7.373 5.965-3.118 3.391-8.068-.568-9.597 0 0 2.577-1.383 3.096-2.84.442-1.301.281-3.366-.21-7.03-.362-5.646-1.655-17.315-1.655-17.315 5.2 3.631 10.537 7.517 15.558 11.188l10.1-12.907 24.283.195s18.428 15.494 27.703 23.394l8.02.08s.086.79.165 1.316c.746 7.638 6.287 12.89 11.334 16.577 2.056 1.71 7.138 6.204 7.138 6.204l-9.453 8.764-57.694-47.723s-.275-.695-.386-1.12c-1.325-5.046-4.943-7.164-8.237-6.814-3.457.368-6.41 3.504-6.272 8.85.021.826.343 2.284.343 2.284l-10.633 40.561s-4.216-2.98-6.492-4.414l-.502.268 6.17 4.296.461-.183 1.752 1.268.131.863c5.399 3.403 14.553 9.752 14.553 9.752 4.333-2.96 8.88-1.961 13.433-.838 0 0 3.31 1.027 5.071 1.023 8.951.2 16.876 1.818 25.191 4.605l-30.423 49.568 57.774.202c-2.829-10.39-5.834-20.944-.393-38.648-5.695-1.07-18.355-5.77-18.355-5.77s-.06-.266.477-.872c2.348-3.087 8.286-11.455 13.845-16.29.677-.445 10.367-9.093 10.462-9.367.053-.153.287-.737.667-.966.892-.548 3.267-2.612 3.267-2.612l-12.088-9.707s-.532-.049-.705-.138c-1.688-.875-4.73-5.746-5.476-9.006-1.714-7.497 1.49-13.417 10.507-19.486 8.803-5.542 25.518-27.083 25.574-27.561 8.977 6.883 15.99 10.45 23.891 14.969-4.783 2.522-8.682 4.207-12.03 5.875-2.171 1.138-2.47 1.376-4.302.894-2.077.012-2.789.75-2.265 2.404 3.135 4.59 1.765 15.262-2.49 17.312-3.693 1.78-7.28 1.29-10.243.273-2.287-.68-2.257-.687-3.28 1.226-2.254 4.408-2.405 8.123-.341 12.357 1.693 3.4 4.216 4.951 4.536.373.188-2.689 1.478-5.83 1.443-8.718 2.572 2.63 4.278 3.833 8.506 4.909 2.837.411 5.844 3.7 5.748 5.04-.78.724-1.02 1.65-1.146 1.585-1.38-.419-4.37-1.598-4.37-1.598l1.265 4.155s-.21.188-.824.476c-2.819 1.321-2.644 4.906.31 6.344.601.293.644.43.386 1.195-.37 1.703-1.18 2.845-1.62 4.533 0 0 .403.014 3.778-1.42l1.326-.564.796.79c1.744 1.726 3.842 1.72 5.677-.02l.84-.796 2.34 1.1c2.206 1.035 2.786 1.25 2.786 1.25s-1.264-4.56-1.5-5.081c-.126-.282-.386-.569-.576-.634-.315-.108-.264-.176.574-.787 2.127-1.55 2.344-3.692.537-5.323-.688-.622-.776-.752-.776-.752l1.108-4.223-4.563 1.387a4.893 4.893 0 0 0-2.58-2.347c-.074-1.907-.33-3.867-3.874-6.852 1.198-1.006-.22-3.438-1.388-4.897 1.996.622 6.986 2.58 6.986 2.58l.754-.028 2.382 1.059.279.392s7.494 3.278 10.936 4.812c-.008-.17-.029-3.59.032-41.229.036-22.441.111-40.898.062-41.017-.049-.118-.871-.703-1.726-1.3-1.577-1.103-1.9-1.318-3.903-2.556-1.607-.993-1.498-.985-1.162-2.126.387-1.31.382-3.113-.12-6.49-.371-2.493-1.716-11.26-2.651-18.337-.656-4.964-.812-6.065-.974-6.864-.26-2.01.024-2.886-.023-2.915 7.527 3.023 8.14-6.96.586-5.625 1.45-2.686 2.67-3.932 3.913-6.803-1.569-3.131-5.045-8.428-5.045-8.428l-5.535 8.86 3.236 6.141c-3.735-.627-5.723 1.88-5.036 4.132.748 1.991 2.815 2.553 4.641 1.753 1.407-.509 1.405-.638.141 9.087a3119.869 3119.869 0 0 0-2.264 18.324c-.154 1.344-.249 1.717-.842 1.42-.803-.321-1.262-.787-2.069-1.278l-.45.386a53.696 53.696 0 0 1 2.43 1.97c-.206 3.562-.131 5.626 3.079 7.37-5.83 3.359-2.435 8.547.984 9.302-2.04.483-4.055 2.9-3.577 7.71l1.615 19.822-15.768-10.844-9.291 12.224-24.417-.01-27.498-22.98s-6.038-.086-8.516-.146c.281-.12-.506-7.09-4.484-11.646-4.324-4.761-14.17-12.623-14.164-12.626l10.376-9.687 58.056 48.393s.278 1.368.425 1.95c1.93 7.629 11.33 8.106 13.344.343.325-1.255.72-4.174.576-4.521-.046-.112.248-1.385.655-2.831 3.147-11.309 5.828-21.064 8.924-31.921.427-1.495.879-3.16 1.004-3.7.51-2.203.435-2.189 2.932-.448 1.528 1.066 2.16 1.448 2.16 1.448l.487-.466c-1.714-1.23-4.648-3.19-4.648-3.19l.032-.83c-9.429-6.254-11.37-7.914-16.952-12.011-4.338 3.513-10.53 2.077-14.41.826-1-.365-3.455-.959-3.455-.959-9.67-.004-18.16-1.74-26.179-4.172l31.029-50.785-11.947-.019-.418.432-6.217-.01-.02-.432zm113.76 167.372c0 .032.004 0 .004 0zm-78.502-166.167 4.23.082-25.109 41.175-2.658-.962s.244-.118.244-1.855c0-1.864-.435-2.661-1.343-3.764-.76-.954-1.085-1.007 1.147-.72 4.563.586 7.815-3.988 6.009-7.566-.697-1.38-.599-1.464 1.25-1.631 5.092-.46 7.083-6.417 3.486-9.392-.743-.623-.41-1.018.978-.74 4.403.884 7.823-3.616 6.08-7.15-.568-.986-.055-1.149.749-1.245 3.772-.81 5.06-3.54 4.937-6.232zm-33.736-.05 19.594.037c-2.643 3.717 2.008 5.928 2.598 5.668-4.228 2.122-3.075 5.125-.885 6.16 2.123 1.004 5.314.109 4.472-4.224l1.049-.418c1.017 1.065 2.016 7.661-5.756 6.73-1.384-.165-2.137 1.027-.98 1.689 6.13 6.528-3.492 9.393-3.908 8.31l-.03-1.103c2.6.446 5.933-2.642 3.02-5.395-1.656-1.566-6.47-.812-5.655 3.932-2.835-3.922-5.94-2.745-6.78-.677-.651 1.604.17 3.802 3.004 4.18-3.17 2.443-1.638 5.176.537 5.783 2.4.67 4.856-.23 4.2-4.258.04-.382.878-.256.948-.277 2.473 5.724-3.468 7.815-6.672 6.63-1.187-.429-1.811 1.26-.551 2.123 1.912 1.309 1.313 5.067 1.089 5.104-3.557-1.251-8.656-2.181-8.466-2.11 3.425-12.409 3.228-25.032-.828-37.883zm31.24.056 1.77.007c.019 2.338-1.087 5.214-5.412 5.65a6.36 6.36 0 0 0-.201-1.883c1.622-.336 3.773.083 3.843-3.774zm7.728.14 5.651.032-26.673 43.514-4.246-2.023Zm-13.949 3.281c.999.002 1.81.747 1.808 1.67-.002.92-.815 1.669-1.814 1.667-.999-.002-1.804-.752-1.802-1.674.001-.921.81-1.665 1.808-1.663zm-11.37 18.975c.925.002 1.672.693 1.67 1.546-.001.853-.75 1.547-1.675 1.546-.925-.002-1.671-.698-1.67-1.551.002-.853.751-1.542 1.676-1.54zm87.534 1.373 4.487 7.238-5.151 8.384-4.27-8.05zm-.087 2.464-3.175 4.818 2.865 4.947 3.277-4.691zm.058 2.067 1.63 2.92-1.994 2.956-1.646-3.132zm-4.382 9.792c.34.001.705.069 1.08.214 3.029 1.174 2.055 5.426-1.182 5.157-.427-.042-.989-.243-1.395-.498-2.242-1.703-.885-4.883 1.497-4.873zm7.411.092c2.652.049 4.243 3.456 1.448 5.043-1.348.69-3.36.267-4.15-.964-.679-1.057-.382-2.817 1.142-3.727a3.51 3.51 0 0 1 1.56-.352zm-3.691 4.851c.264.021.55 1.21.812 3.272.094.748.35 2.618.565 4.155.41 3.287.835 6.349 1.199 9.517.072.623.252 1.95.399 2.946 1.514 10.293 1.855 13.58 1.491 14.455-.973 3.067-5.51 3.294-7.403 1.508-1.43-1.35-1.639-2.83-1.067-6.685.33-2.226.466-3.346 1.44-11.854a289.7 289.7 0 0 1 .731-5.89c.386-3.329.84-6.448 1.338-9.73.144-1.174.313-1.708.495-1.694zm-74.324 7.527s14.524 4.443 25.58 4.26c1.623.002 1.887-.01 3.906.602 1.198.363 3.083.855 4.187 1.092 3.408.615 6.404.447 9.06-.547.416-.156 1.03-.628 1.647-.455.377.105.924.799.924.799-9.685 2.356-32.33 1.882-46.418-3.624zm74.66 1.527c-.06.009-.124.085-.195.188-.238.345-.046 2.61.82 9.814 1.655 13.763 1.647 14.057-.392 15.5-1.003.71-1.159.995-.678 1.255.358.193.329.192 1.059.006 1.714-.436 2.426-1.69 2.417-4.254-.007-1.953-.032-2.189-.683-6.991a758.284 758.284 0 0 1-.685-5.212c-1.087-8.573-1.338-10.356-1.664-10.306zm-76.128 1.317c14.458 4.804 29.572 6.182 47.799 3.63 0 0 1.75 1.051 2.63 1.567l-.613.131.272 2.323 3.095-.453s1.671 1.231 2.916 1.987c-16.255 4.552-42.494 3.721-58.668-2.945a9.069 9.069 0 0 1-.976-.592c.35-.79.774-1.26 1.205-1.702l2.955.784.859-2.486-2.26-.764zm3.784 2.984-.95 2.448 4.13 1.14.71-2.5zm6.319 1.525-.553 2.789 4.147.715.521-2.714zm6.861 1.319-.332 2.69 4.397.436.276-2.723zm30.232.09-3.745.372.231 2.37 3.786-.404zm-6.604.675-3.714.22.123 2.483 3.734-.21zm-16.73.025-.01 2.638 3.805.138.051-2.695zm10.464.347-3.509.008-.02 2.511 3.544.02zm-40.682.378c.378-.01 1.242.77 1.598 1.64.7 1.714.373 3.611-.73 4.238-1.5.853-3.26-.49-2.226-1.698.182-.214.476-.429.655-.48.772-.225.954-1.345.538-3.285-.061-.287.017-.411.165-.415zm5.61.665c15.65 4.757 33.418 6.375 51.733 2.944 0 0-8.738 32.685-8.926 32.7zm-7.678.087c.824.001.972 1.293.227 1.978-.952.875-2.762.169-2.382-.929.11-.319 1.61-1.05 2.155-1.049zm4.5.767c.17-.011.493.302 1.005.941 1.755 2.188 1.888 4.63.312 5.74-1.849 1.301-3.195-.725-1.653-2.49.4-.457.46-1.303.226-3.176-.083-.667-.061-1.004.11-1.015zm60.723.886c.202-.006.56.14 1.278.465 1.121.509 1.51 1.252.968 1.852-.787.871-2.935-.861-2.528-2.039.062-.179.125-.273.282-.278zm-1.69 1.135c.281.026.73.503 1.25 1.47.334.621.529.8 1.093.988 1.338.448 1.584 1.729.405 2.106-1.28.41-2.232-.44-2.813-2.516-.384-1.368-.297-2.082.065-2.048zm-56.021.825c.194-.01.565.392 1.153 1.196 1.746 2.387 1.134 6.963-1.074 8.027-.973.47-1.65.368-2.428-.353-1.138-1.054-.856-1.885.838-2.457 1.442-.487 1.911-2 1.472-4.756-.176-1.1-.181-1.645.039-1.657zm8.335.77c10.68 8.155 20.318 16.896 32.743 27.102 2.972-8.386 7.313-25.8 7.327-25.858-.47.357-20.91 3-40.07-1.245zm40.07 1.244c.01-.008.013-.014.005-.02l-.005.02zm6.636-1.146c.178 0 .691 1.225.983 2.343.264 1.012 1.32 2.709 1.728 2.773 2.107.333 3.003 1.418 1.96 2.377-.766.705-2.42.302-3.216-.779-1.495-2.031-2.51-6.716-1.455-6.714zm-119.335.931c1.272.012 2.493.753 2.799 2.28.356 1.776-.734 3.065-1.654 2.857-1-.347-1.337-1.81-1.337-1.81s-.24 1.192-.651 1.793c-.9 1.261-2.781-.617-2.44-2.435.333-1.775 1.842-2.698 3.283-2.685zm76.12.59c11.643 1.634 21.663 2.068 35.56.7l-6.592 23.447zm-8.798.024c.173.01.526.297 1.078.837 1.806 1.769 2.324 4.22 1.145 5.434-.717.74-1.2.824-1.96.342-.97-.616-1.041-1.54-.149-1.964.82-.39.896-1.25.251-2.879-.481-1.215-.617-1.786-.365-1.77zm-75.983.481 4.252 1.636 1.518 3.32-4.243-1.017zm16.09.465-1.27 3.302-3.275 1.123 1.28-3.571zm111 .873c.157-.002.39.416.672 1.28.699 2.138.996 2.679 1.636 2.962 1.044.461 1.118 1.63.13 2.044-.628.262-.833.208-1.279-.332-.693-.842-1.249-2.452-1.348-3.897-.092-1.353-.014-2.055.188-2.057zm-47.374 1.415c.123-.008.304.16.572.454 1.65 1.816 1.824 4.598.342 5.429-1.435.804-3.437-.864-2.185-1.821.112-.086.372-.279.578-.424.35-.244.38-.387.413-1.963.026-1.17.074-1.662.28-1.675zm12.56.213 20.339 17.119 4.709-16.894c-8.048.654-16.454.442-25.049-.225zm-50.047.78c6.425 6.281 14.836 11.365 16.824 17.604 3.57 8.59.922 18.545-7.482 24.23-4.639 3.227-9.185 6.625-12.97 10.731-6.21 6.078-10.358 12.725-14.508 17.545-.703.81-2.558 3.36-2.558 3.36s-.908.955-3.93-1.393c-8.02-6.604-16.44-11.398-25.011-15.966l3.635-1.868c7.156 3.78 16.051 9.16 24.05 15.426 0 0 6.386-8.575 8.424-11.031 2.954-3.526 5.03-5.796 7.78-8.521 7.026-7.977 14.27-10.607 17.29-14.647 4.422-5.918 4.625-12.943 1.007-18.945-3.568-5.727-10.52-9.661-15.133-14.406zm61.087.56 7.964.013s-1.171.898-2.07 1.45c-.562.347-1.22.298-2.459-.183a239.93 239.93 0 0 0-3.435-1.28zm9.12.015 1.856.055c-1.391 1.607-2.816 2.642-4.682 4.07-.241.096-.376.135-.936-.034-3.804-1.168-7.295-2.65-10.999-4.054l3.304-.008s1.59.47 3.977 1.389c2.737 1.053 3.446 1.377 4.504.739 1.02-.624 1.865-1.564 2.976-2.157zm3.759.006-.67 2.25c-1.112 1.279-3.361 2.75-5.24 4.202-.44.211-.425.25-2.346-.443-7.074-2.548-10.492-4.203-10.492-4.203l-1.435-1.187s1.845.49 3.062.935c.83.303 2.243.8 3.143 1.11.9.308 2.889 1.092 4.216 1.578 3.062 1.12 2.893 1.154 5.833-1.232 3.185-2.585 3.929-3.01 3.929-3.01zm-107.237.035 3.083 3.271-4.123 3.189-3.104-3.385zm117.212.192c.708 1.228 1.182 2.68 2.333 3.715.867.766 1.083 1.355.566 1.785-1.345.765-1.574-.474-1.99-1.283-.729-1.426-1.619-3.354-.909-4.217zm-111.71.147c.079-.002.16 0 .24 0 3.295.052 4.064 4.545.962 5.619-1.112.385-2.39.207-3.078-.43-.668-.618-.76-1.14-.301-1.462.715-.468 2.417-.497 2.417-.497s-1.544-.486-2.231-.843c-1.353-.714-.177-2.31 1.991-2.387zm67.824.114c.187.01.506.36.96 1.054 1.657 2.536 1.56 7.354-.175 8.571-.902.633-2.024.54-2.777-.23-.991-1.017-.684-2.043.793-2.643 1.426-.579 1.719-1.878 1.145-5.09-.2-1.12-.185-1.674.054-1.662zm-79.935-.048c.984-.03 1.932.325 2.402 1.042.347.53.178.918-.48 1.18-.802.291-2.321.554-2.321.554s1.472.226 2.362.56c1.113.456 1.025 1.29-.608 2.002-3.145 1.373-6.106-2.397-3.51-4.554.605-.502 1.39-.76 2.155-.784zm82.617 1.95a.296.296 0 0 1 .077 0c.288.033.82.42 1.353 1.074 1.869 2.292 2.187 5.733.591 6.4-1.685.706-2.894-.756-1.678-2.031.86-.903.756-2.227-.38-4.848-.165-.382-.126-.571.037-.595zm40.45.174c.148-.01.416.54.847 1.653.947 2.449 1.76 3.477 2.74 3.478 1.231.002 1.873 1.56.9 2.187-1.921 1.238-4.43-1.806-4.607-5.596-.053-1.138-.027-1.712.12-1.722zm-10.149 1.206-.571 1.995s-1.311 1.173-2.25 1.918c-1.489 1.183-1.855 1.419-3.03 1.047a158.487 158.487 0 0 0-5.474-1.632l-4.346-3.33 9.926 3.594s.86.235 1.16-.04c1.304-1.198 2.734-2.126 4.585-3.552zm9.366 1.884c.125-.026.25.12.337.487.446 1.88 1.097 3.245 1.646 3.457.695.27.961.827.667 1.394-.848 1.634-3.066-1.258-3.061-3.994.001-.776.204-1.3.411-1.344zm-35.848.074c.121-.006.317.161.623.445 1.371 1.27 1.78 4.772.675 5.788-1.597 1.468-3.295-.72-1.745-2.25.41-.404.41-.433.316-2.227-.066-1.25-.07-1.745.131-1.756zm-83.204.216-1.08 3.283-3.433.811.808-2.703zm4.112.341c.272-.01.58.087.904.304 1.397.937 1.509 2.534.853 3.711-.628 1.15-1.907 1.478-3.143 1.36-1.604-.168-2.814-1.202-2.726-2.78.03-.792.405-1.669.986-2.043.409-.263.743-.154 1.096.388.329.53.89 1.73.89 1.73s.02-1.23.21-1.863c.155-.504.496-.791.93-.807zm2.618.292 2.484.788.976 3.117-2.78-1zm141.723.81s.712.28 4.102 2.772c.847.623 2.277 1.816 2.277 1.816l-.158 40.653s-6.687-3.349-7.552-4.142c-.461-.456-.236-1.732-.069-4.05.799-6.086 1.127-10.751 1.985-16.384.604-6.28 1.915-8.08-2.636-10.75 4.909-2.834 3.533-7.257.46-9.102zm-39.976.09-.453 1.86c-1.619 2.546-3.064 2.413-5.532 1.227l-2.962-2.331c1.92.372 2.95.941 4.826 1.49.93.239 1.272.086 1.929-.455a87.684 87.684 0 0 1 2.192-1.79zm-21.994.942c1.003 1.014 1.264 2.012 1.173 4.477-.197 1.752-.115 3.057-1.675 4.037-.762.46-2.078.458-2.665 0-1.409-.873-.628-2.615 1.22-2.697 1.167-.018 1.653-3.535.995-5.733-.102-.342-.075-.565.108-.581.184-.016.525.175.844.497zm31.521-.081c.227-.002.626.534.862 1.408.342 1.265.824 1.976 1.58 2.334.972.46 1.284 1.339.662 1.856-1.238 1.03-2.499-.21-2.9-2.85-.018-.3-.58-2.72-.204-2.748zm26.533.477c2.757.044 4.313 1.827 4.306 3.985-.033 1.555-.957 3.136-2.654 3.79-4.051 1.093-6.257-1.412-6.213-3.845.034-1.963 1.805-3.974 4.561-3.93zm-55.648 1.322c2.314 2.143 2.41 6.72.14 6.716-2.72-.836-.594-2.315-.541-2.7.215-1.576-.175-2.588-.571-4.06-.174-.871.717-.212.972.044zm55.795-.118c-.487-.015-.453.437.437 1.147 1.614 1.288.818 3.66-1.23 3.666-.944.003-1.176.59-.354.896 3.178 1.184 5.357-3.274 2.511-5.136-.594-.389-1.073-.565-1.364-.573zm-121.604.403c2.557.81 3.431 5.31 3.525 6.897.11 2.762-1.292 7.276-2.537 8.176-3.223 2.331-4.716-5.93-1.953-11.242.242-.435.545-1.023.434-2.109-.11-1.077.088-1.715.53-1.722zm84.557.57s-.325 1.349-.669 2.086c-.398.853-.69.879-1.611.148-.513-.406-1.364-1.248-1.364-1.248.804.117 1.521.503 2.204.192.73-.33 1.318-.953 1.44-1.177zm9.712.087c.182.006.413.476.719 1.408.837 2.55 1.572 3.51 2.689 3.511 1.828.003 2.223 2.036.496 2.555-.64.192-.856.19-1.673-.013-1.23-.305-2.908-4.142-2.663-6.093.115-.917.25-1.374.432-1.368zm-112.625 1.3c.672-.013.935.293 1.328 1.046.447.858 1.623 1.95 2.62 2.426 2.4 1.094 4.93 1.95 7.302 3.046 3.076 1.433 5.827 5.808 3.937 6.26-.685.146-1.474.152-2.174.092-.229-.111-.675-.59-.99-1.069-1.4-2.123-4.023-4.203-8.072-5.181-2.854-.69-5.406-3.94-5.953-5.466-.141-.395-.148-.705.237-.807.813-.214 1.362-.338 1.765-.346zm86.824.405c.128-.019.315.132.598.412 1.696 1.679 1.902 4.758.373 5.627-1.657.941-3.104-.623-1.802-1.948.574-.584.574-.584.577-2.34.002-1.21.042-1.72.254-1.75zm24.74 1.994c.205.008.51.529.877 1.554.522 1.455.594 1.57 1.194 1.857 1.014.486 1.178 1.212.43 1.898-1.39 1.28-2.786-.785-2.784-4.12 0-.802.104-1.196.284-1.189zm-22.219.195c.126.011.479.267.752.568 2.078 2.282 1.65 7.618-.675 8.415-.776.266-1.013.28-1.494.087-1.73-.694-1.516-2.381.62-3.45 1.598-.798.47-5.6.797-5.62zm-106.471 1.51 8.59 3.95s2.348 4.583 3.43 6.302c.743 1.192 2.231 2.343.69 3.135-2.59 1.614-4.058 2.533-4.037 3.538.017.813 1.11 1.644 2.582 3.247 2.113 2.303 2.093 1.773.164 5.277-1.478 2.457-2.742 8.025-2.742 8.025l-8.692 4.116c2.595-5.692 5.647-10.535 9.064-13.995a39.165 39.165 0 0 1-6.873-5.953c1.643-2.024 3.81-3.656 5.81-5.414-4.048-4.238-6.581-8.3-7.986-12.229zm108.735.245c.014-.002.03 0 .046 0 .36.023 1.182.851 1.904 2.18.931 1.715 1.018 3.874.185 4.64-1.434 1.319-3.297-.383-1.955-1.788.945-.632.691-2.207-.05-3.847-.342-.786-.336-1.155-.13-1.185zm-109.688.593c2.229 4.39 4.724 7.962 7.282 11.344l-5.605 5.41c1.719 1.847 3.803 3.832 6.729 6.137-3.605 3.687-5.975 8.854-8.347 13.732zm128.682.302c.194.013.468.545.749 1.615.354 1.349.598 1.694 1.448 2.032 1.353.538 1.382 1.744.053 2.176-.488.158-1.398-.294-1.774-.885-.495-.844-.748-1.98-.74-3.018-.077-1.285.044-1.936.264-1.92zm31.022.862c2.113.55 2.874 2.508 2.455 6.13-.562 4.845-1.22 10.235-1.757 14.686-.617 5.134-.974 7.801-1.11 8.003-.43.64-.496-1.773-.18-4.456.48-3.834.748-7.192 1.156-11.024.915-8.524.7-11.22-.97-12.01-1.291-.61-1.848-.252-.895.58 1.816 1.297 1.758 1.838-.228 22.83-.203 2.172-.288 3.71-.288 3.71l-2.468-1.42s-.18-1.8-.406-4.518c-.548-5.12-.863-10.577-1.223-15.484-.387-5.234.678-7.064 4.197-7.186.562-.02 1.187.024 1.717.159zm-45.396 2.969c.268.693 1.485 5.858-1.65 4.37-.836-.436-.881-1.118-.263-1.78.692-.74.856-1.806.513-3.327a20.315 20.315 0 0 0-.462-1.693c.605.205 1.792 2.249 1.862 2.43zm-93.332-1.77c2.654.47 5.568 1.904 7.445 3.695 1.163 1.146 1.103 2.067-.72 2.171-1.757.236-1.795.499-2.632-.172-.376-.273-1.108-.942-1.944-1.062-2.649-.383-3.992-4.957-2.15-4.632zm107.177 1.525c.28.416.307 1.233.54 1.818.393 1.637 1.606 2.849 2.7 2.7.734-.08 1.747.126 1.854.937.212.687-.179 1.335-.985 1.632-.91.334-1.935.126-2.71-.548-1.631-1.42-2.62-6.046-1.399-6.539zm-12.772.043c.952.34 2.162 3.155 2.288 5.387-.007 1.598-.278 3.609-1.773 4.368-.95.451-1.93.224-2.357-.542-.524-.94-.132-1.908.956-2.358 1.33-.552 1.767-3.039.961-5.47-.044-.404-.707-1.553-.075-1.385zM46.93 854.255l7.001 3.287c-1.022 1.283-1.825 2.473-2.38 3.829-2.223-2.335-3.386-4.713-4.62-7.116zm104.062 1.289c.12-.003.523.353.875.669 1.746 1.565 2.495 4.404 1.437 5.44-.845.827-2.322.768-2.567-.104-.088-.427.404-1.225.622-1.608.324-.57.385-2.201-.101-3.394-.218-.535-.42-1-.266-1.003zm-48.68.565 7.917.263 26.483 22.09-2.491-.056-24.332-20.533-7.585.006zm-45.622 3.899c-3.031 4.428-3.867 10.015-2.02 14.985 1.403 3.525-1.674 3.73-2.932 1.407-.967-1.737-1.52-4.758-1.218-7.974.423-5.201 3.034-10.418 5.118-11.042 2.116-.633 1.647 1.917 1.052 2.624zm108.662 10.844c-.81 3.467-2.304 5.19-4.42 5.908-8.665 2.937-12.407-13.187-4.366-17.028 7.661-2.336 9.858 6.542 8.786 11.12zm-63.528-10.632 7.467.153c6.796 5.725 14.104 11.068 21.375 18.028l-3.524-.006-1.271-1.12c-6.574-5.439-11.443-9.877-17.78-14.93l-6.665-.181zm56.97 1.154c-4.039.145-4.377 5.192-4.26 7.105.289 2.755 1.471 6.828 5.261 6.513 2.781-.251 4.074-3.288 3.827-6.938-.233-3.434-1.744-6.678-4.829-6.68zm-57.655 1.582 6.551.148c5.763 4.654 11.858 9.71 17.913 15.288l-2.86-.004s-.745-.659-.97-.87c-4.902-4.105-9.885-8.678-14.64-12.367l-6.796-.256Zm57.758.292c1.146.393 1.332 2.97.33 4.036-.687.731-2.262-.657-2.4-2.402-.084-1.064 1.039-1.989 2.07-1.634zm-108.286.146c-.53 1.666-.88 3.538-1.1 5.563l-2.735-3.218zm110.36 3.279c.67.001 1.212.502 1.21 1.12 0 .619-.544 1.118-1.213 1.117-.67 0-1.211-.502-1.21-1.12 0-.619.544-1.118 1.214-1.117zm-55.048.473 13.036 11.349-3.718.032-10.693-8.976-6.797-.247 1.334-2.136zm50.782.275c.67.001 1.211.503 1.21 1.12-.001.619-.544 1.119-1.214 1.118-.67-.002-1.212-.503-1.21-1.121 0-.618.544-1.118 1.214-1.117zm15.543.049c7.351 5.291 17.728 12.313 28.51 18.01 0-.02-1.78 1.287-3.42 1.699-8.391-4.287-18.375-10.332-24.556-15.229-5.86 7.93-17.114 22.356-27.106 29.008-6.306 4.148-9.488 9.268-9.48 15.259.006 6.197 2.37 10.235 8.967 15.321 4.255 3.281 8.906 7.468 8.906 7.468l-2.454 1.945c-.408-.046-7.138-5.417-13.946-11.747-3.74-3.479-5.394-11.103-4.748-15.216.878-5.591 2.906-9.596 8.66-13.905 2.209-1.572 4.44-2.793 6.386-4.582 17.885-17.594 24.281-28.031 24.281-28.031zm-11.953 2.86c.673 1.281 1.04 2.962-1.075 3.07-1.253.066-1.967-1.86-.878-3.574.824-1.348 1.554-.198 1.953.504zm-62.908-.441 7.047.205s6.94 5.602 10.443 8.706l23.609.038c12.984.02 23.655.086 23.716.142.16.15-1.682 2.423-1.682 2.423l-77.864-.083c.016-.01 4.817-3.942 6.535-5.044 3.044-1.952 5.833-3.769 8.196-6.387zm-47.72 2.627c.507 1.736.93 3.506 1.807 5.106l-5.411 2.639c.998-2.64 2.14-5.178 3.605-7.745zm150.096 14.667c-1.079 2.698-3.9 8.203-7.302 12.373-.675.8-1.138 1.424-1.138 1.424l6.613 5.863-5.76 5.631c3.223 3.106 5.945 7.86 7.374 11.642-2.606-.954-4.07-1.531-7.282-3.188-.906-2.107-1.83-4.339-2.848-6.263-2.337-4.391-2.306-3.962-.389-5.25 2.808-1.885 3.644-2.322 2.917-3.275-.511-.67-3.812-4.301-4.012-4.415-.304-.174-.168-.71.397-1.567 1.923-3.173 3.5-6.672 4.483-9.782zm1.252.223.105 36.883c-2.364-4.41-4.824-8.915-7.568-11.732-.103-.192 6.01-5.683 6.01-5.683-2.233-1.916-3.54-3.061-6.659-5.722 3.05-4.042 5.47-9.329 8.112-13.746zm-167.969 1.009 7.586 4.08c-.412 5.202-.93 12.03-1.722 18.958-.662 5.405-.936 7.896.1 9.398.877 1.099 3.246 2.29 3.246 2.29-3.996 1.486-5.545 5.884-1.074 9.183 0 0-1.089.788-1.572 1.263l-6.222-4.31zm118.854 2.056c-1.897 1.954-4.872 4.853-7.152 6.238-3.042 1.847-7.314 5.395-7.11 5.45 0 0-4.47-.029-7.497-.145l-10.428-8.617s.374-.126-13.84-.04c-18.37.109-33.254-.102-33.254-.102l2.092-2.7zm37.225 1.75c-1.034 3.047-2.635 5.863-4.66 8.502-.464-1.875-.718-3.865-1.693-5.459zm-147.53.739.909.6s-.555 6.364-.737 8.227c-.327 3.44-.49 6.542-.822 10.047-.667 6.96-.56 7.987.919 9.064 1.137.789 1.914.433.906-.565-.664-.79-.661-.774-.86-1.936-.14-.808-.115-2.012.091-5.277 1.162-18.39 1.397-19.01 1.422-19.015l2.268 1.358c-.127.283 2.045 18.542 1.812 23.08-.272 5.305-8.01 4.121-8.369.182-.15-.905 1.347-15.803 1.347-15.803zm63.126 1.173 3.038.085 18.71 15.927 6.387.138-.56 2.005-6.174-.024zm11.62.019 2.941.005 10.708 8.99 6.603.105-1.261 1.725-6.567-.185zm-3.662.003 15.83 13.218 5.406.269-.837 1.801-6.408-.175-17.786-15.086Zm-15.287.023 3.294.005 24.746 20.634 6.495.119-.1 1.854-7.82-.045zm83.407.72c1.307.304 1.95 1.475 2.863 5.815 1.066 5.06-1.28 13.268-4.201 14.804-1.513 1.094-3.154-.071-2.084-1.5 3.491-4.662 3.965-12.299 1.913-16.573-.65-1.374.025-2.796 1.509-2.546zm-105.157.59c7.92.1 9.938 15.114 2.144 17.206-5.062.681-7.66-3.55-8.388-7.366-.856-4.741 1.416-9.9 6.244-9.84zm-4.37 8.998c.468 3.009 2.483 6.457 5.422 6.167 3.866-.38 4.36-5.142 3.981-7.54-.456-2.893-2.179-5.517-4.94-5.666-4.115-.222-4.823 4.717-4.463 7.039zm4.257-5.836c1.105-.015 1.915 1.349 1.61 3.038-.197 1.094-.65 2.44-1.982 1.523-.62-.524-1.173-2.058-1.021-3.204.1-.752.503-1.337 1.393-1.357zm109.2 3.645 3.71 3.976-4.23 2.726c.598-2.088.798-4.309.52-6.702zm-106.512.188c.67 0 1.211.507 1.21 1.125-.001.618-.544 1.118-1.214 1.117-.67-.001-1.211-.503-1.21-1.121 0-.618.544-1.122 1.214-1.121zm-4.338.682c.67 0 1.21.502 1.21 1.12-.002.619-.545 1.118-1.215 1.117-.67-.001-1.216-.502-1.215-1.12.001-.619.55-1.118 1.22-1.117zm2.452 1.448c.609.172.997.689 1.322 1.138.81 1.115.913 2.513.335 3.097-1.167 1.275-2.984-.094-2.76-2.066.162-1.445.58-2.316 1.103-2.169zm10.374 4.397c1.739.003 2.226 1.896.726 2.819-.975.6-1.195 2.556-.598 5.267.485 1.957.228 2.26-1.034.493-2.155-3.2-1.587-8.583.906-8.58zm-4.068 1.022c1.526-.05 2.013 1.025 1.122 1.848-.523.533-.473 1.942.106 3.1.82 1.68.626 2.186-.911.57-2.124-2.103-2.085-5.458-.317-5.518zm100.827.98c1.726 2.125 3.255 4.898 4.649 8.04l-7.497-3.193zm-109.66 8.36c-.53-.569-.784-2.406-1.218-3.192-.337-.942-.63-1.491-1.181-1.46-3.171.242-3.031-2.555-1.21-3.08 3.768-1.088 5.126 7.306 3.608 7.732zm15.734-2.799c-.54 1.466-.15 2.343-.042 3.91.093.711.132.899-.5.352-1.502-1.213-2.293-5.347-.937-6.11 1.823-1.027 2.371.713 1.48 1.848zm75.174-1.84c.736-.03 1.57.5 1.981 1.472.593 1.398.532 4.823.228 6.646-.465 2.79-1.199 5.352-1.502 7.27-1.064 1.164-3.671-2.96-3.91-6.212-.408-2.58.565-7.935 2.717-9.063.153-.068.316-.106.486-.113zm10.129.456c.657-.027.507.178.993.648.737.714 1.037.888 2.08 1.193 2.15.628 4.51 3.4 3.598 4.24-.722.526-2.68-.473-3.35-.686-.72-.23-1.619-.516-1.998-.635-1.803-.564-4.39-3.637-3.583-4.254.432-.33 1.748-.485 2.26-.506zm-5.247.501c1.334.015 1.697.322 2.457 1.647 1.127 1.963 3.225 3.351 6.273 4.154 3.892 1.103 7.247 3.191 7.076 7.049-.929.007-1.858.063-2.788.322-1.072-2.8-3.75-4.41-6.057-4.896-5.321-1.123-10.252-6.115-8.843-8.09.615-.289 1.273-.194 1.882-.186zm-91.822.098 45.915 37.031c-19.393-6.675-37.196-6.56-54.416-4.132zm19.607 2.478c-.088 1.15-1.8 1.394-2.154 1.677-.861.689-.75 2.681-.387 5.005.278 1.396-.098 1.334-.89.24-1.404-1.938-1.37-5.293-.432-7.269 1.207-2.544 3.987-1.265 3.863.347zm-26.44-1.852c1.762.172 2.244 2.387 2.314 3.855-.004 2.023-.626 1.946-.972-.001-.165-.864-.455-1.199-1.21-1.409-1.714-.477-1.822-2.448-.133-2.445zm21.364 2.295c-.453.458-.468 2.603-.06 4.045.227.798-.194.859-.777.225-1.899-2.062-2.067-5.554-.3-6.226 1.438-.342 1.808 1.277 1.137 1.956zm-19.904 4.098c.04 2.055-.47 2.244-1.136.272-.17-.458-.475-.92-.693-1.058-1.25-.793-1.47-1.41-.743-2.078 1.784-1.34 2.55 2.253 2.572 2.864zm6.724-1.802-6.281 24.53c15.347-1.163 22.32-1.4 38.71 1.582zm18.59.436c.939.219 1.26 1.35.165 2.417-.36.423-.695 1.077-.261 2.812.594 2.375-.413 1.614-1.636-.63-.783-1.436-.415-5.1 1.733-4.599zm-29.352.029c1.667.002 3.208 2.502 3.228 5.235.013 2.208-.327 2.048-1.212-.064-.623-1.396-1.127-1.903-2.262-2.27-2.102-.678-1.915-2.905.246-2.901zm11.266.726 28.833 23.335c-11.822-1.763-23.43-1.916-34.706-.627zm24.032.916c2.265.004 3.152 2.588.372 3.487-1.656.536-.956 3.626-.655 5.462.114.692-.123.74-.599.122-1.74-2.38-2.705-8.374.882-9.07zm-3.064 2.898c-.412.597-.46 1.239-.179 2.398.73 2.492.92 2.953-.611 1.684-1.612-1.578-2.31-4.697-.957-5.619 1.521-1.035 2.888.119 1.747 1.537zm-57.06-2.014c2.68-.013 4.626 1.59 4.519 3.824-.118 2.459-1.79 4.007-4.242 4.133-2.737.123-4.424-1.895-4.481-3.982-.05-1.844 1.226-3.96 4.204-3.975zm-.047.988c-3.068-.014-4.225 3.716-1.688 5.444 1.087.74 1.947.533 1.054-.253-1.684-1.483-1.002-3.927 1.22-4.374 1.099-.22.674-.812-.586-.817zm37.35.692L77.114 942.2c7.556-1.071 16.695-.726 23.747-.104zm-12.44.608c1.837-.083 2.37 2.468 2.382 3.483 0 1.312-.17 1.995-.431 1.293-.615-1.656-1.223-2.566-1.888-2.567-.36-.086-.667-.22-.956-.52-.651-.798-.017-1.657.893-1.689zm12.78.681 2.431 1.911c-1.565-.636-2.902 1-2.902 1zm25.05 3.16c-.707.82-.706 2.55-.162 4.565.153.564-.417.145-.99-.526-1.088-1.269-1.597-2.755-1.397-3.972.225-3.078 4.456-2.472 2.55-.066zm-38.51-1.534c1.576.167 2.165 3.204 2.126 4.124-.054.962-.293 1.61-.498 1.026-.403-1.27-1.238-3.094-1.963-3.513-1.243-.718-.89-1.538.336-1.637zm120.628 3.596c.054 1.07-.43 2.166-1.146 2.518-.731.36-1.176-.13-1.61-1.365a62.396 62.396 0 0 1-.432-1.256s-.272 1.134-.358 1.371c-.573 1.575-2.428 1.587-3.201-.174-.823-2.054 1.49-4.154 3.265-4.076 1.969.087 3.381 1.261 3.482 2.982zm-105.23-2.462c.554 0 2.7.892 2.7.892l2.134 1.75s-1.965-.792-2.658-1.02c-1.654-.543-1.619-.547-2.957.458-1.378 1.036-2.51 1.795-2.51 1.795l.43-2.242s2.016-1.634 2.861-1.633zm-14.04 5.486c.312 2.37-.406 2.569-1.1.305-.593-1.939-1.18-2.645-2.194-2.647-1.868.254-2.492-2.304-.813-2.814 3.169-.816 3.975 4.22 4.108 5.156zm108.541-5.022 2.918 1.255.614 2.79-2.69-.617zm-65.455.151c2.813-.714 3.154 2.515.998 2.988-1.316.29-1.312 2.17-.942 4.902.084.623.264 1.379.222 1.483-.201.493-.869-.262-1.766-2.014-1.338-3.194-.912-6.748 1.488-7.359zm80.343.09-.819 3.227-2.47-.16-.088-1.978zm-83.231 1.965c-1.357 1.806-.144 3.477.153 4.893.052.822-1.097.015-1.757-1.184-1.378-2.502-1.454-4.52-.21-5.42 1.742-.937 2.538.747 1.814 1.711zm-25.343-.483c.478.005 1.125.246 2.484.73 1.03.368 3.414 1.266 3.414 1.266l3.15 2.578s-2.768-.947-4.696-1.702c-4.342-1.701-3.717-1.755-7.157.654a68.412 68.412 0 0 0-2.028 1.488l.423-2.067s1.3-1.187 2.92-2.26c.698-.463 1.011-.693 1.49-.687zm-40.417.912c2.223-.054 3.682 1.58 4.213 3.405.307 1.056.038 2.03-.027 3.044-1.555 10.85-2.25 20.92-3.68 30.967-.174.48-.362.3-.586-.563-1.617-9.113-2.662-19.116-4.018-28.147-.308-3.372-1.243-7.782 3.381-8.637.247-.043.487-.064.717-.07zm-.136 1.203c-.98.035-2.141.654-2.555 1.454-.844 1.634-.63 4.964.949 14.946.131.83.313 2.218.403 3.082.276 2.65.653 4.755.927 5.147.521.745.59-.055.22-2.648a161.088 161.088 0 0 1-.57-4.494c-.71-4.734-.86-8.102-1.296-12.42-.219-2.124.71-3.687 2.447-4.108.941-.228.992-.618.114-.882a1.983 1.983 0 0 0-.639-.077zm147.043.37c3.248.012 4.434 4.21 1.253 5.684-1.18.547-3.158.285-3.648-.593-.237-.682.03-1.079.62-1.367.718-.352 1.77-.652 1.77-.652s-1.72-.31-2.202-1.062c-1.041-1.622.876-1.982 2.207-2.01zm-122.195 4.329c-.038.79-.475.464-.583-.001-.348-1.053-1.076-2.196-1.688-2.65-.739-.55-.914-1.295-.41-1.757 1.888-1.534 2.672 3.915 2.681 4.408zm110.19-4.36c.83-.02 1.96.241 2.675.902.922.854.871 1.173-.677 1.691-.752.256-1.27.456-1.27.456s.698.254 1.216.388c1.482.46 1.402 1.253.039 2.19-1.857 1.274-4.834-.426-4.795-2.676.031-1.783 1.224-2.911 2.811-2.951zm6.855-.002 2.96 3.021-3.473 3.308-3.257-3.31zm-100.808.12.128.001c.92.017 2.385.593 5.98 1.936 1.975.738 4.257 1.578 4.257 1.578l3.233 2.649s-4.433-1.293-5.975-2.016a21.597 21.597 0 0 0-1.636-.645c-.564-.196-1.964-.704-3.112-1.133-2.467-.92-2.495-.927-3.324-.284a60.62 60.62 0 0 1-1.931 1.394c-.707.492-1.74 1.214-2.294 1.602-.655.457-1.48 1.149-1.48 1.149l.526-2.548s.467-.42 1.3-1.008l2.562-1.804c.743-.524 1.131-.843 1.766-.87zm31.834 2.29c.09.53.036.632-.627 1.254-.836.785-.953 2.074-.344 3.747.167.461.372 1.008.326 1.05-.884.813-3.197-4.332-2.64-5.863.667-1.831 2.848-1.855 3.285-.188zm-50.916.14c.608-.026 1.313.4 1.665 1.286.955 2.475.362 5.509-.614 2.68-.253-.6-.691-1.242-1.025-1.569-.344-.338-1.116-.73-1.097-1.28.076-.722.534-1.095 1.07-1.118zm19.85.102c.389.012.907.192 1.84.546.842.32 3.215 1.053 4.564 1.537a66.35 66.35 0 0 1 4.283 1.739l-4.746-.253s-1.612-.498-2.571-.864c-3.474-1.323-3.28-1.316-5.012-.107-.62.432-1.399 1.13-1.399 1.13l-2.414.12s1.137-1.116 2.776-2.233a45.33 45.33 0 0 0 1.624-1.159c.408-.312.665-.468 1.054-.456zm37.13.924c1.322-.23 2.043.934 1.959 1.659-.094.795-.895 1.586-2.126 1.804-.26.889-1.002 2.916-.578 5.942.344 1.419-.306 1.45-.967.089-1.07-2.205-2.624-8.743 1.713-9.494zm-3.775 2.42c-.562 1.104-.758 1.994-.451 3.388.34 1.55.412 1.932-.539.962-1.843-2.276-2.105-5.894-.402-6.307 1.643-.398 2 1.248 1.392 1.957zm-55.366-1.784c2.882.426 3.722 4.96 3.316 6.897-.768 2.344-.727.76-.992-.22-.705-2.361-1.524-3.648-2.402-3.784-2.363-.366-2.027-3.203.078-2.893zm22.092.928a.624.624 0 0 1 .139.01c.948.147 3.487.875 2.391 1.117l-3.749.013c-.728.024.476-1.093 1.22-1.14zm100.95.903c.364-.03.859.365 1.44.914 1.332 1.256.743 3.232-1.06 4.203-2.833 1.526-6.048-1.363-4.49-4.01.856-1.452 1.88-1.19 2.75.862.16.25-.001-.256.3-.88.298-.621.696-1.059 1.06-1.089zm-4.747.139-.855 3.152-3.45 1.523 1.266-3.882zm7.17.55 2.746.207 1.517 4.1-3.956-1.565zm-64.903 2.21c1.998.08 2.197 1.821 1.049 2.581-.644.568-.868 1.39-.737 2.704.059.584.183 1.3.177 1.383-.02.28-.271.236-.614-.11-2.105-2.125-1.816-6.635.125-6.557zm-60.43.585c1.266.002 2.696 3.352 1.987 4.63-.447.752-.876.566-1.036-.307-.12-.635-.513-1.505-1.533-1.662-1.483-.44-.996-2.663.582-2.661zm64.077 2.128c.966.463 1.055 1.49.18 2.063-.678.444-.858.82-.965 2.028.217 2.748-1.454 1.001-1.606-1.499-.084-1.36.718-3.378 2.39-2.592zm-65.146.74c.909.001 1.985 1.508 1.745 2.387-.129.698-.525.574-1.08.054-.214-.155-.696-.315-.92-.379-1.36-.381-1.128-2.064.255-2.062zm25.821 1.198c12.282-.033 25.053 1.787 35.664 5.717l-.878 1.447-2.785-.887-.961 2.33 2.295.811-1.084 2.15c-12.524-3.823-26.034-6.677-48.5-3.646-1.113-.718-3.125-2.133-3.125-2.133l1.796-.36-.231-2.305-4.538.739-1.323-1.281c7.095-1.668 15.267-2.56 23.67-2.582zm41.192.571c1.176.004 1.903 1.224 1.04 1.744-.605.364-1.946.462-2.215.161-.555-.62.237-1.908 1.175-1.905zm-42.93 1.357-.055 2.388 3.703-.103.081-2.265zm6.47.062.012 2.346 3.595.114.173-2.298zm-9.405.145-3.637.216.108 2.19 3.606-.14zm16.258.39-.096 2.26 3.656.38.27-2.299zm-23.026.071-3.657.424.307 2.252 3.556-.358zm30.093.78-.363 2.36 3.411.473.444-2.242zm6.759 1.333-.342 2.383 3.466.685.47-2.213zm-24.55 2.708c11.514.006 22.004 1.853 30.837 4.968 0 0-1.15 2.277-1.555 2.522-6.338-2.346-17.14-4.535-24.444-4.665-2.676-.096-3.269-.162-4.254-.479-5.563-1.698-10.475-2.436-15.012.052l-1.849-1.212a112.96 112.96 0 0 1 16.277-1.186zM40.31 968.917c2.633.033 3.88 3.76 1.095 5.321-.747.389-1.728.335-2.517.006-2.252-.995-2.414-4.089.215-5.098a3.256 3.256 0 0 1 1.207-.229zm86.057.262c.942.533 4.42 1.96 4.42 1.96l-24.53 40.756-5.917.033zm-78.87-.031c1.466-.148 2.504 1.014 2.88 1.985.512 1.325-.417 3.675-3 3.535-2.962-.16-4.28-5.075.12-5.52zm84.088 2.257c.656.334 3.03.701 3.235 1.124.09.212-.091.628-.145 1.166a5.699 5.699 0 0 0 1.067 3.886c1.39 1.79-.118.966-1.51.951-3.143-.746-7.155 3.2-5.64 7.27.35.9.28.97-1.405 1.441-3.825 1.068-5.5 4.81-3.67 8.157.955 1.744.983 1.655-.701 1.781-4.68.351-7.403 4.177-5.447 8.096.303.606.109.773-.912.947-3.195.536-4.63 2.998-5.039 5.703l-4.224.031zm4.048 1.446 8.113 2.057c-3.39 10.571-3.88 22.858.15 37.076l-18.663-.016c2.596-2.143 1.578-5.11-1.45-5.768 2.942-1.554 2.952-5.698-.57-6.202-3.098-.443-4.702 2.272-3.332 4.998l-1.323.33s-.591-.687-.727-1.054c-1.162-3.145 1.29-6.262 5.459-6.245 2.572.01 3.105-.66 1.687-2.121-2.536-2.612-1.73-6.276 1.59-7.712 1.529-.661 2.429-.22 2.429-.22l.075 1.728s-.619.054-1.101.124c-3.665.535-2.996 5.925.728 5.885 2.05-.022 3.519-1.455 3.523-3.515 0-.579.005-1.433.005-1.433 1.877 2.975 5.11 3.193 6.492.777 1.626-2.843-1.312-4.637-4.26-4.348 0 0 .619-.37 1.01-.554 3.142-1.485 2.07-5.744-1.403-5.75-2.382-.003-3.776 2.037-3.012 4.205.122.347.413.905.413.905l-1.418.33s-.321-.228-.465-.435c-2.425-3.512 1.488-7.369 6.406-6.485 1.8.524 1.744-.625.734-1.665-1.084-1.498-1.893-3.195-1.09-4.892zm-91.732 1.382 4.247 6.936-4.787 7.974-4.717-7.484zm-.427 3.605-2.963 3.753 2.887 4.319 2.755-4.362zm-.13 1.412 1.919 2.381-1.944 2.919-1.893-2.745zm88.028 7.627c.895.002 1.625.672 1.623 1.5-.001.826-.733 1.494-1.629 1.493-.896-.002-1.62-.672-1.619-1.5.002-.826.729-1.494 1.625-1.493zm-11.506 18.767c.928.002 1.682.695 1.68 1.551-.002.857-.757 1.552-1.686 1.55-.928-.001-1.676-.699-1.674-1.555.001-.857.752-1.547 1.68-1.546zm-2.545 1.052c-.153.06.001 1.406.367 1.964-2.423.133-3.068 1.843-3.306 3.287l-2.17-.01c.37-4.882 4.954-4.985 5.109-5.241z"/></g></g></svg>