<svg xmlns="http://www.w3.org/2000/svg" width="234" height="333"><g transform="translate(0 -719.362)"><rect width="233.244" height="332.244" x=".378" y="719.74" fill="#fff" stroke="gray" stroke-width=".756" rx="8.919" ry="8.946"/><g stroke-width="3.181"><path d="M16.402 775.116h1.605v5.586h-1.605z"/><path d="M26.026 772.445a4.735 4.735 0 0 1-1.83 6.428 4.705 4.705 0 0 1-6.41-1.837 4.726 4.726 0 0 1-.58-1.975 4.717 4.717 0 0 1-5.022 4.396 4.722 4.722 0 0 1-4.382-5.037 4.718 4.718 0 0 1 6.975-3.824 4.74 4.74 0 0 1-1.618-6.483 4.705 4.705 0 0 1 6.463-1.631 4.735 4.735 0 0 1 1.627 6.482 4.771 4.771 0 0 1-1.635 1.642 4.712 4.712 0 0 1 6.412 1.839z"/></g><g stroke-width="3.181"><path d="M216.56 996.608h1.605v-5.586h-1.606z"/><path d="M226.184 999.28a4.734 4.734 0 0 0-1.83-6.428 4.705 4.705 0 0 0-6.41 1.836 4.726 4.726 0 0 0-.581 1.976 4.717 4.717 0 0 0-5.021-4.397 4.722 4.722 0 0 0-4.382 5.037 4.718 4.718 0 0 0 6.975 3.825 4.74 4.74 0 0 0-1.619 6.482 4.705 4.705 0 0 0 6.464 1.632 4.735 4.735 0 0 0 1.626-6.483 4.771 4.771 0 0 0-1.634-1.641 4.712 4.712 0 0 0 6.412-1.84z"/></g><g stroke-width="3.181"><path d="M114.588 897.441h4.816V914.2h-4.816z"/><path d="M143.462 889.427c3.792 6.846 1.333 15.48-5.493 19.283-6.826 3.804-15.433 1.337-19.225-5.509a14.177 14.177 0 0 1-1.745-5.926c-.528 7.816-7.273 13.72-15.063 13.188-7.79-.531-13.676-7.296-13.147-15.11.53-7.814 7.275-13.718 15.066-13.186 2.045.139 4.035.723 5.859 1.712-6.677-4.017-8.862-12.724-4.855-19.447 4.007-6.722 12.688-8.914 19.39-4.895s8.887 12.726 4.88 19.448a14.314 14.314 0 0 1-4.903 4.924c6.836-3.795 15.444-1.329 19.236 5.518z"/></g><g aria-label="A" font-family="Levenim MT" font-size="3.772" font-weight="700" letter-spacing="0" style="line-height:0%;-inkscape-font-specification:&quot;Sans Bold&quot;" word-spacing="0"><path d="M32.051 627.488h-4.655l-1.84-4.847h-9.6l-1.92 4.847H9.381l9.071-23.534h4.544zm-8.175-9.215-3.12-8.08-3.136 8.08z" font-size="32.766" style="line-height:1.25" transform="scale(.83055 1.20403)"/></g><g aria-label="A" font-family="Levenim MT" font-size="3.772" font-weight="700" letter-spacing="0" style="line-height:0%;-inkscape-font-specification:&quot;Sans Bold&quot;" word-spacing="0"><path d="M-249.691-844.008h-4.656l-1.84-4.848h-9.6l-1.92 4.848h-4.655l9.071-23.535h4.544zm-8.176-9.216-3.12-8.08-3.136 8.08z" font-size="32.766" style="line-height:1.25" transform="scale(-.83055 -1.20403)"/></g></g></svg>